<?xml version="1.0" encoding="UTF-8" standalone="no"?>
<!DOCTYPE svg PUBLIC "-//W3C//DTD SVG 1.1//EN"
 "http://www.w3.org/Graphics/SVG/1.1/DTD/svg11.dtd">
<!-- Generated by graphviz version 12.2.1 (20241206.2353)
 -->
<!-- Title: src/main/java/fr/softsf/canscan/service/AbstractQrCodeWorker.java Pages: 1 -->
<svg width="1026pt" height="120pt"
 viewBox="0.00 0.00 1026.12 120.00" xmlns="http://www.w3.org/2000/svg" xmlns:xlink="http://www.w3.org/1999/xlink">
<g id="graph0" class="graph" transform="scale(1 1) rotate(0) translate(4 116)">
<title>src/main/java/fr/softsf/canscan/service/AbstractQrCodeWorker.java</title>
<!-- Node1 -->
<g id="Node000001" class="node">
<title>Node1</title>
<g id="a_Node000001"><a xlink:title=" ">
<polygon fill="#999999" stroke="#666666" points="612.62,-112 448.88,-112 448.88,-68 612.62,-68 612.62,-112"/>
<text text-anchor="start" x="456.88" y="-98.5" font-family="Helvetica,sans-Serif" font-size="10.00">src/main/java/fr/softsf</text>
<text text-anchor="start" x="456.88" y="-86.5" font-family="Helvetica,sans-Serif" font-size="10.00">/canscan/service/AbstractQrCode</text>
<text text-anchor="middle" x="530.75" y="-74.5" font-family="Helvetica,sans-Serif" font-size="10.00">Worker.java</text>
</a>
</g>
</g>
<!-- Node2 -->
<g id="Node000002" class="node">
<title>Node2</title>
<g id="a_Node000002"><a xlink:title=" ">
<polygon fill="#e0e0e0" stroke="#999999" points="155.5,-32 0,-32 0,0 155.5,0 155.5,-32"/>
<text text-anchor="start" x="8" y="-18.5" font-family="Helvetica,sans-Serif" font-size="10.00">java.util.concurrent.Cancellation</text>
<text text-anchor="middle" x="77.75" y="-6.5" font-family="Helvetica,sans-Serif" font-size="10.00">Exception</text>
</a>
</g>
</g>
<!-- Node1&#45;&gt;Node2 -->
<g id="edge1_Node000001_Node000002" class="edge">
<title>Node1&#45;&gt;Node2</title>
<g id="a_edge1_Node000001_Node000002"><a xlink:title=" ">
<path fill="none" stroke="#63b8ff" d="M448.69,-76.7C376.88,-65.84 269.44,-49.34 166.76,-32.48"/>
<polygon fill="#63b8ff" stroke="#63b8ff" points="167.48,-29.05 157.05,-30.88 166.35,-35.96 167.48,-29.05"/>
</a>
</g>
</g>
<!-- Node3 -->
<g id="Node000003" class="node">
<title>Node3</title>
<g id="a_Node000003"><a xlink:title=" ">
<polygon fill="#e0e0e0" stroke="#999999" points="318.25,-32 173.25,-32 173.25,0 318.25,0 318.25,-32"/>
<text text-anchor="start" x="181.25" y="-18.5" font-family="Helvetica,sans-Serif" font-size="10.00">java.util.concurrent.Execution</text>
<text text-anchor="middle" x="245.75" y="-6.5" font-family="Helvetica,sans-Serif" font-size="10.00">Exception</text>
</a>
</g>
</g>
<!-- Node1&#45;&gt;Node3 -->
<g id="edge2_Node000001_Node000003" class="edge">
<title>Node1&#45;&gt;Node3</title>
<g id="a_edge2_Node000001_Node000003"><a xlink:title=" ">
<path fill="none" stroke="#63b8ff" d="M448.7,-68.27C407.36,-57.83 357.7,-45.28 317.84,-35.21"/>
<polygon fill="#63b8ff" stroke="#63b8ff" points="318.9,-31.87 308.35,-32.81 317.18,-38.66 318.9,-31.87"/>
</a>
</g>
</g>
<!-- Node4 -->
<g id="Node000004" class="node">
<title>Node4</title>
<g id="a_Node000004"><a xlink:title=" ">
<polygon fill="#e0e0e0" stroke="#999999" points="465,-26 336.5,-26 336.5,-6 465,-6 465,-26"/>
<text text-anchor="middle" x="400.75" y="-12.5" font-family="Helvetica,sans-Serif" font-size="10.00">javax.swing.SwingWorker</text>
</a>
</g>
</g>
<!-- Node1&#45;&gt;Node4 -->
<g id="edge3_Node000001_Node000004" class="edge">
<title>Node1&#45;&gt;Node4</title>
<g id="a_edge3_Node000001_Node000004"><a xlink:title=" ">
<path fill="none" stroke="#63b8ff" d="M492.1,-67.59C471.35,-56.1 446.3,-42.23 427.68,-31.92"/>
<polygon fill="#63b8ff" stroke="#63b8ff" points="429.58,-28.96 419.13,-27.18 426.19,-35.09 429.58,-28.96"/>
</a>
</g>
</g>
<!-- Node5 -->
<g id="Node000005" class="node">
<title>Node5</title>
<g id="a_Node000005"><a xlink:title=" ">
<polygon fill="#e0e0e0" stroke="#999999" points="578.5,-26 483,-26 483,-6 578.5,-6 578.5,-26"/>
<text text-anchor="middle" x="530.75" y="-12.5" font-family="Helvetica,sans-Serif" font-size="10.00">javax.swing.Timer</text>
</a>
</g>
</g>
<!-- Node1&#45;&gt;Node5 -->
<g id="edge4_Node000001_Node000005" class="edge">
<title>Node1&#45;&gt;Node5</title>
<g id="a_edge4_Node000001_Node000005"><a xlink:title=" ">
<path fill="none" stroke="#63b8ff" d="M530.75,-67.79C530.75,-58.32 530.75,-47.2 530.75,-37.78"/>
<polygon fill="#63b8ff" stroke="#63b8ff" points="534.25,-37.82 530.75,-27.82 527.25,-37.82 534.25,-37.82"/>
</a>
</g>
</g>
<!-- Node6 -->
<g id="Node000006" class="node">
<title>Node6</title>
<g id="a_Node000006"><a xlink:title=" ">
<polygon fill="#e0e0e0" stroke="#999999" points="718.62,-32 596.88,-32 596.88,0 718.62,0 718.62,-32"/>
<text text-anchor="start" x="604.88" y="-18.5" font-family="Helvetica,sans-Serif" font-size="10.00">fr.softsf.canscan.model.</text>
<text text-anchor="middle" x="657.75" y="-6.5" font-family="Helvetica,sans-Serif" font-size="10.00">QrInput</text>
</a>
</g>
</g>
<!-- Node1&#45;&gt;Node6 -->
<g id="edge5_Node000001_Node000006" class="edge">
<title>Node1&#45;&gt;Node6</title>
<g id="a_edge5_Node000001_Node000006"><a xlink:title=" ">
<path fill="none" stroke="#63b8ff" d="M568.51,-67.59C584.98,-58.26 604.23,-47.34 620.63,-38.05"/>
<polygon fill="#63b8ff" stroke="#63b8ff" points="622.13,-41.22 629.1,-33.24 618.68,-35.13 622.13,-41.22"/>
</a>
</g>
</g>
<!-- Node7 -->
<g id="Node000007" class="node">
<title>Node7</title>
<g id="a_Node000007"><a xlink:title=" ">
<polygon fill="#e0e0e0" stroke="#999999" points="868.88,-26 736.62,-26 736.62,-6 868.88,-6 868.88,-26"/>
<text text-anchor="middle" x="802.75" y="-12.5" font-family="Helvetica,sans-Serif" font-size="10.00">fr.softsf.canscan.ui.Loader</text>
</a>
</g>
</g>
<!-- Node1&#45;&gt;Node7 -->
<g id="edge6_Node000001_Node000007" class="edge">
<title>Node1&#45;&gt;Node7</title>
<g id="a_edge6_Node000001_Node000007"><a xlink:title=" ">
<path fill="none" stroke="#63b8ff" d="M611.62,-67.59C658.76,-55.12 716.53,-39.82 756.14,-29.34"/>
<polygon fill="#63b8ff" stroke="#63b8ff" points="756.82,-32.78 765.59,-26.84 755.03,-26.01 756.82,-32.78"/>
</a>
</g>
</g>
<!-- Node8 -->
<g id="Node000008" class="node">
<title>Node8</title>
<g id="a_Node000008"><a xlink:title=" ">
<polygon fill="#e0e0e0" stroke="#999999" points="1018.12,-26 887.38,-26 887.38,-6 1018.12,-6 1018.12,-26"/>
<text text-anchor="middle" x="952.75" y="-12.5" font-family="Helvetica,sans-Serif" font-size="10.00">fr.softsf.canscan.ui.Popup</text>
</a>
</g>
</g>
<!-- Node1&#45;&gt;Node8 -->
<g id="edge7_Node000001_Node000008" class="edge">
<title>Node1&#45;&gt;Node8</title>
<g id="a_edge7_Node000001_Node000008"><a xlink:title=" ">
<path fill="none" stroke="#63b8ff" d="M612.92,-76.32C683.32,-65.27 787.36,-48.46 877.75,-32 883.63,-30.93 889.76,-29.77 895.87,-28.59"/>
<polygon fill="#63b8ff" stroke="#63b8ff" points="896.16,-32.1 905.3,-26.74 894.82,-25.23 896.16,-32.1"/>
</a>
</g>
</g>
</g>
</svg>
