<?xml version="1.0" encoding="UTF-8" standalone="no"?>
<!DOCTYPE svg PUBLIC "-//W3C//DTD SVG 1.1//EN"
 "http://www.w3.org/Graphics/SVG/1.1/DTD/svg11.dtd">
<!-- Generated by graphviz version 12.2.1 (20241206.2353)
 -->
<!-- Title: src/main/java/fr/softsf/canscan/service/AbstractDynamicQrCodeWorker.java Pages: 1 -->
<svg width="1200pt" height="120pt"
 viewBox="0.00 0.00 1200.25 120.00" xmlns="http://www.w3.org/2000/svg" xmlns:xlink="http://www.w3.org/1999/xlink">
<g id="graph0" class="graph" transform="scale(1 1) rotate(0) translate(4 116)">
<title>src/main/java/fr/softsf/canscan/service/AbstractDynamicQrCodeWorker.java</title>
<!-- Node1 -->
<g id="Node000001" class="node">
<title>Node1</title>
<g id="a_Node000001"><a xlink:title=" ">
<polygon fill="#999999" stroke="#666666" points="698.25,-112 529.25,-112 529.25,-68 698.25,-68 698.25,-112"/>
<text text-anchor="start" x="537.25" y="-98.5" font-family="Helvetica,sans-Serif" font-size="10.00">src/main/java/fr/softsf</text>
<text text-anchor="start" x="537.25" y="-86.5" font-family="Helvetica,sans-Serif" font-size="10.00">/canscan/service/AbstractDynamic</text>
<text text-anchor="middle" x="613.75" y="-74.5" font-family="Helvetica,sans-Serif" font-size="10.00">QrCodeWorker.java</text>
</a>
</g>
</g>
<!-- Node2 -->
<g id="Node000002" class="node">
<title>Node2</title>
<g id="a_Node000002"><a xlink:title=" ">
<polygon fill="#e0e0e0" stroke="#999999" points="155.5,-32 0,-32 0,0 155.5,0 155.5,-32"/>
<text text-anchor="start" x="8" y="-18.5" font-family="Helvetica,sans-Serif" font-size="10.00">java.util.concurrent.Cancellation</text>
<text text-anchor="middle" x="77.75" y="-6.5" font-family="Helvetica,sans-Serif" font-size="10.00">Exception</text>
</a>
</g>
</g>
<!-- Node1&#45;&gt;Node2 -->
<g id="edge1_Node000001_Node000002" class="edge">
<title>Node1&#45;&gt;Node2</title>
<g id="a_edge1_Node000001_Node000002"><a xlink:title=" ">
<path fill="none" stroke="#63b8ff" d="M528.99,-79.46C440.89,-69.27 298.72,-52.07 166.65,-32.4"/>
<polygon fill="#63b8ff" stroke="#63b8ff" points="167.44,-28.98 157.04,-30.96 166.41,-35.9 167.44,-28.98"/>
</a>
</g>
</g>
<!-- Node3 -->
<g id="Node000003" class="node">
<title>Node3</title>
<g id="a_Node000003"><a xlink:title=" ">
<polygon fill="#e0e0e0" stroke="#999999" points="318.25,-32 173.25,-32 173.25,0 318.25,0 318.25,-32"/>
<text text-anchor="start" x="181.25" y="-18.5" font-family="Helvetica,sans-Serif" font-size="10.00">java.util.concurrent.Execution</text>
<text text-anchor="middle" x="245.75" y="-6.5" font-family="Helvetica,sans-Serif" font-size="10.00">Exception</text>
</a>
</g>
</g>
<!-- Node1&#45;&gt;Node3 -->
<g id="edge2_Node000001_Node000003" class="edge">
<title>Node1&#45;&gt;Node3</title>
<g id="a_edge2_Node000001_Node000003"><a xlink:title=" ">
<path fill="none" stroke="#63b8ff" d="M528.86,-72.39C469.14,-60.71 389.56,-45.14 329.98,-33.48"/>
<polygon fill="#63b8ff" stroke="#63b8ff" points="330.69,-30.05 320.21,-31.57 329.35,-36.92 330.69,-30.05"/>
</a>
</g>
</g>
<!-- Node4 -->
<g id="Node000004" class="node">
<title>Node4</title>
<g id="a_Node000004"><a xlink:title=" ">
<polygon fill="#e0e0e0" stroke="#999999" points="466.75,-26 336.75,-26 336.75,-6 466.75,-6 466.75,-26"/>
<text text-anchor="middle" x="401.75" y="-12.5" font-family="Helvetica,sans-Serif" font-size="10.00">javax.swing.JProgressBar</text>
</a>
</g>
</g>
<!-- Node1&#45;&gt;Node4 -->
<g id="edge3_Node000001_Node000004" class="edge">
<title>Node1&#45;&gt;Node4</title>
<g id="a_edge3_Node000001_Node000004"><a xlink:title=" ">
<path fill="none" stroke="#63b8ff" d="M550.72,-67.59C514.84,-55.41 471.07,-40.54 440.28,-30.09"/>
<polygon fill="#63b8ff" stroke="#63b8ff" points="441.6,-26.84 431,-26.93 439.35,-33.46 441.6,-26.84"/>
</a>
</g>
</g>
<!-- Node5 -->
<g id="Node000005" class="node">
<title>Node5</title>
<g id="a_Node000005"><a xlink:title=" ">
<polygon fill="#e0e0e0" stroke="#999999" points="613,-26 484.5,-26 484.5,-6 613,-6 613,-26"/>
<text text-anchor="middle" x="548.75" y="-12.5" font-family="Helvetica,sans-Serif" font-size="10.00">javax.swing.SwingWorker</text>
</a>
</g>
</g>
<!-- Node1&#45;&gt;Node5 -->
<g id="edge4_Node000001_Node000005" class="edge">
<title>Node1&#45;&gt;Node5</title>
<g id="a_edge4_Node000001_Node000005"><a xlink:title=" ">
<path fill="none" stroke="#63b8ff" d="M594.6,-67.79C585.08,-57.24 573.71,-44.65 564.68,-34.64"/>
<polygon fill="#63b8ff" stroke="#63b8ff" points="567.47,-32.51 558.17,-27.43 562.27,-37.2 567.47,-32.51"/>
</a>
</g>
</g>
<!-- Node6 -->
<g id="Node000006" class="node">
<title>Node6</title>
<g id="a_Node000006"><a xlink:title=" ">
<polygon fill="#e0e0e0" stroke="#999999" points="726.5,-26 631,-26 631,-6 726.5,-6 726.5,-26"/>
<text text-anchor="middle" x="678.75" y="-12.5" font-family="Helvetica,sans-Serif" font-size="10.00">javax.swing.Timer</text>
</a>
</g>
</g>
<!-- Node1&#45;&gt;Node6 -->
<g id="edge5_Node000001_Node000006" class="edge">
<title>Node1&#45;&gt;Node6</title>
<g id="a_edge5_Node000001_Node000006"><a xlink:title=" ">
<path fill="none" stroke="#63b8ff" d="M632.9,-67.79C642.42,-57.24 653.79,-44.65 662.82,-34.64"/>
<polygon fill="#63b8ff" stroke="#63b8ff" points="665.23,-37.2 669.33,-27.43 660.03,-32.51 665.23,-37.2"/>
</a>
</g>
</g>
<!-- Node7 -->
<g id="Node000007" class="node">
<title>Node7</title>
<g id="a_Node000007"><a xlink:title=" ">
<polygon fill="#e0e0e0" stroke="#999999" points="866.62,-32 744.88,-32 744.88,0 866.62,0 866.62,-32"/>
<text text-anchor="start" x="752.88" y="-18.5" font-family="Helvetica,sans-Serif" font-size="10.00">fr.softsf.canscan.model.</text>
<text text-anchor="middle" x="805.75" y="-6.5" font-family="Helvetica,sans-Serif" font-size="10.00">QrInput</text>
</a>
</g>
</g>
<!-- Node1&#45;&gt;Node7 -->
<g id="edge6_Node000001_Node000007" class="edge">
<title>Node1&#45;&gt;Node7</title>
<g id="a_edge6_Node000001_Node000007"><a xlink:title=" ">
<path fill="none" stroke="#63b8ff" d="M670.84,-67.59C697.14,-57.73 728.15,-46.1 753.79,-36.48"/>
<polygon fill="#63b8ff" stroke="#63b8ff" points="754.88,-39.82 763.01,-33.03 752.42,-33.26 754.88,-39.82"/>
</a>
</g>
</g>
<!-- Node8 -->
<g id="Node000008" class="node">
<title>Node8</title>
<g id="a_Node000008"><a xlink:title=" ">
<polygon fill="#e0e0e0" stroke="#999999" points="1028.88,-26 884.62,-26 884.62,-6 1028.88,-6 1028.88,-26"/>
<text text-anchor="middle" x="956.75" y="-12.5" font-family="Helvetica,sans-Serif" font-size="10.00">fr.softsf.canscan.ui.MyPopup</text>
</a>
</g>
</g>
<!-- Node1&#45;&gt;Node8 -->
<g id="edge7_Node000001_Node000008" class="edge">
<title>Node1&#45;&gt;Node8</title>
<g id="a_edge7_Node000001_Node000008"><a xlink:title=" ">
<path fill="none" stroke="#63b8ff" d="M698.54,-71.2C761.51,-57.98 845.64,-40.32 900.5,-28.81"/>
<polygon fill="#63b8ff" stroke="#63b8ff" points="901.19,-32.24 910.26,-26.76 899.76,-25.39 901.19,-32.24"/>
</a>
</g>
</g>
<!-- Node9 -->
<g id="Node000009" class="node">
<title>Node9</title>
<g id="a_Node000009"><a xlink:title=" ">
<polygon fill="#e0e0e0" stroke="#999999" points="1192.25,-26 1047.25,-26 1047.25,-6 1192.25,-6 1192.25,-26"/>
<text text-anchor="middle" x="1119.75" y="-12.5" font-family="Helvetica,sans-Serif" font-size="10.00">fr.softsf.canscan.util.Checker</text>
</a>
</g>
</g>
<!-- Node1&#45;&gt;Node9 -->
<g id="edge8_Node000001_Node000009" class="edge">
<title>Node1&#45;&gt;Node9</title>
<g id="a_edge8_Node000001_Node000009"><a xlink:title=" ">
<path fill="none" stroke="#63b8ff" d="M698.39,-78.82C784.1,-68.23 920.38,-50.61 1037.75,-32 1044.6,-30.91 1051.75,-29.71 1058.86,-28.47"/>
<polygon fill="#63b8ff" stroke="#63b8ff" points="1059.22,-31.96 1068.46,-26.76 1058,-25.07 1059.22,-31.96"/>
</a>
</g>
</g>
</g>
</svg>
