<?xml version="1.0" encoding="UTF-8" standalone="no"?>
<!DOCTYPE svg PUBLIC "-//W3C//DTD SVG 1.1//EN"
 "http://www.w3.org/Graphics/SVG/1.1/DTD/svg11.dtd">
<!-- Generated by graphviz version 12.2.1 (20241206.2353)
 -->
<!-- Title: src/main/java/fr/softsf/canscan/util/ApplicationMetadata.java Pages: 1 -->
<svg width="657pt" height="108pt"
 viewBox="0.00 0.00 656.88 108.00" xmlns="http://www.w3.org/2000/svg" xmlns:xlink="http://www.w3.org/1999/xlink">
<g id="graph0" class="graph" transform="scale(1 1) rotate(0) translate(4 104)">
<title>src/main/java/fr/softsf/canscan/util/ApplicationMetadata.java</title>
<!-- Node1 -->
<g id="Node000001" class="node">
<title>Node1</title>
<g id="a_Node000001"><a xlink:title=" ">
<polygon fill="#999999" stroke="#666666" points="378.75,-100 194.75,-100 194.75,-68 378.75,-68 378.75,-100"/>
<text text-anchor="start" x="202.75" y="-86.5" font-family="Helvetica,sans-Serif" font-size="10.00">src/main/java/fr/softsf</text>
<text text-anchor="middle" x="286.75" y="-74.5" font-family="Helvetica,sans-Serif" font-size="10.00">/canscan/util/ApplicationMetadata.java</text>
</a>
</g>
</g>
<!-- Node2 -->
<g id="Node000002" class="node">
<title>Node2</title>
<g id="a_Node000002"><a xlink:title=" ">
<polygon fill="#e0e0e0" stroke="#999999" points="101.5,-26 0,-26 0,-6 101.5,-6 101.5,-26"/>
<text text-anchor="middle" x="50.75" y="-12.5" font-family="Helvetica,sans-Serif" font-size="10.00">java.io.IOException</text>
</a>
</g>
</g>
<!-- Node1&#45;&gt;Node2 -->
<g id="edge1_Node000001_Node000002" class="edge">
<title>Node1&#45;&gt;Node2</title>
<g id="a_edge1_Node000001_Node000002"><a xlink:title=" ">
<path fill="none" stroke="#63b8ff" d="M231.42,-67.53C190,-55.94 134.08,-40.3 95.47,-29.51"/>
<polygon fill="#63b8ff" stroke="#63b8ff" points="96.61,-26.19 86.03,-26.87 94.72,-32.93 96.61,-26.19"/>
</a>
</g>
</g>
<!-- Node3 -->
<g id="Node000003" class="node">
<title>Node3</title>
<g id="a_Node000003"><a xlink:title=" ">
<polygon fill="#e0e0e0" stroke="#999999" points="220.12,-26 119.38,-26 119.38,-6 220.12,-6 220.12,-26"/>
<text text-anchor="middle" x="169.75" y="-12.5" font-family="Helvetica,sans-Serif" font-size="10.00">java.io.InputStream</text>
</a>
</g>
</g>
<!-- Node1&#45;&gt;Node3 -->
<g id="edge2_Node000001_Node000003" class="edge">
<title>Node1&#45;&gt;Node3</title>
<g id="a_edge2_Node000001_Node000003"><a xlink:title=" ">
<path fill="none" stroke="#63b8ff" d="M259.32,-67.53C240.37,-56.84 215.3,-42.7 196.5,-32.09"/>
<polygon fill="#63b8ff" stroke="#63b8ff" points="198.27,-29.07 187.84,-27.2 194.83,-35.17 198.27,-29.07"/>
</a>
</g>
</g>
<!-- Node4 -->
<g id="Node000004" class="node">
<title>Node4</title>
<g id="a_Node000004"><a xlink:title=" ">
<polygon fill="#e0e0e0" stroke="#999999" points="335.25,-26 238.25,-26 238.25,-6 335.25,-6 335.25,-26"/>
<text text-anchor="middle" x="286.75" y="-12.5" font-family="Helvetica,sans-Serif" font-size="10.00">java.util.Properties</text>
</a>
</g>
</g>
<!-- Node1&#45;&gt;Node4 -->
<g id="edge3_Node000001_Node000004" class="edge">
<title>Node1&#45;&gt;Node4</title>
<g id="a_edge3_Node000001_Node000004"><a xlink:title=" ">
<path fill="none" stroke="#63b8ff" d="M286.75,-67.69C286.75,-58.8 286.75,-47.46 286.75,-37.77"/>
<polygon fill="#63b8ff" stroke="#63b8ff" points="290.25,-37.83 286.75,-27.83 283.25,-37.83 290.25,-37.83"/>
</a>
</g>
</g>
<!-- Node5 -->
<g id="Node000005" class="node">
<title>Node5</title>
<g id="a_Node000005"><a xlink:title=" ">
<polygon fill="#e0e0e0" stroke="#999999" points="486.25,-32 353.25,-32 353.25,0 486.25,0 486.25,-32"/>
<text text-anchor="start" x="361.25" y="-18.5" font-family="Helvetica,sans-Serif" font-size="10.00">fr.softsf.canscan.constant.</text>
<text text-anchor="middle" x="419.75" y="-6.5" font-family="Helvetica,sans-Serif" font-size="10.00">StringConstants</text>
</a>
</g>
</g>
<!-- Node1&#45;&gt;Node5 -->
<g id="edge4_Node000001_Node000005" class="edge">
<title>Node1&#45;&gt;Node5</title>
<g id="a_edge4_Node000001_Node000005"><a xlink:title=" ">
<path fill="none" stroke="#63b8ff" d="M317.93,-67.53C336.03,-58.55 359.03,-47.13 378.6,-37.42"/>
<polygon fill="#63b8ff" stroke="#63b8ff" points="380.01,-40.63 387.41,-33.05 376.89,-34.36 380.01,-40.63"/>
</a>
</g>
</g>
<!-- Node6 -->
<g id="Node000006" class="node">
<title>Node6</title>
<g id="a_Node000006"><a xlink:title=" ">
<polygon fill="#e0e0e0" stroke="#999999" points="648.88,-26 504.62,-26 504.62,-6 648.88,-6 648.88,-26"/>
<text text-anchor="middle" x="576.75" y="-12.5" font-family="Helvetica,sans-Serif" font-size="10.00">fr.softsf.canscan.ui.MyPopup</text>
</a>
</g>
</g>
<!-- Node1&#45;&gt;Node6 -->
<g id="edge5_Node000001_Node000006" class="edge">
<title>Node1&#45;&gt;Node6</title>
<g id="a_edge5_Node000001_Node000006"><a xlink:title=" ">
<path fill="none" stroke="#63b8ff" d="M354.74,-67.53C406.51,-55.74 476.72,-39.77 524.22,-28.96"/>
<polygon fill="#63b8ff" stroke="#63b8ff" points="524.73,-32.43 533.71,-26.8 523.18,-25.6 524.73,-32.43"/>
</a>
</g>
</g>
</g>
</svg>
