<?xml version="1.0" encoding="UTF-8" standalone="no"?>
<!DOCTYPE svg PUBLIC "-//W3C//DTD SVG 1.1//EN"
 "http://www.w3.org/Graphics/SVG/1.1/DTD/svg11.dtd">
<!-- Generated by graphviz version 12.2.1 (20241206.2353)
 -->
<!-- Title: src/main/java/fr/softsf/canscan/util/BrowserHelper.java Pages: 1 -->
<svg width="1511pt" height="108pt"
 viewBox="0.00 0.00 1510.62 108.00" xmlns="http://www.w3.org/2000/svg" xmlns:xlink="http://www.w3.org/1999/xlink">
<g id="graph0" class="graph" transform="scale(1 1) rotate(0) translate(4 104)">
<title>src/main/java/fr/softsf/canscan/util/BrowserHelper.java</title>
<!-- Node1 -->
<g id="Node000001" class="node">
<title>Node1</title>
<g id="a_Node000001"><a xlink:title=" ">
<polygon fill="#999999" stroke="#666666" points="738.25,-100 578.25,-100 578.25,-68 738.25,-68 738.25,-100"/>
<text text-anchor="start" x="586.25" y="-86.5" font-family="Helvetica,sans-Serif" font-size="10.00">src/main/java/fr/softsf</text>
<text text-anchor="middle" x="658.25" y="-74.5" font-family="Helvetica,sans-Serif" font-size="10.00">/canscan/util/BrowserHelper.java</text>
</a>
</g>
</g>
<!-- Node2 -->
<g id="Node000002" class="node">
<title>Node2</title>
<g id="a_Node000002"><a xlink:title=" ">
<polygon fill="#e0e0e0" stroke="#999999" points="92.5,-26 0,-26 0,-6 92.5,-6 92.5,-26"/>
<text text-anchor="middle" x="46.25" y="-12.5" font-family="Helvetica,sans-Serif" font-size="10.00">java.awt.Desktop</text>
</a>
</g>
</g>
<!-- Node1&#45;&gt;Node2 -->
<g id="edge1_Node000001_Node000002" class="edge">
<title>Node1&#45;&gt;Node2</title>
<g id="a_edge1_Node000001_Node000002"><a xlink:title=" ">
<path fill="none" stroke="#63b8ff" d="M577.87,-80.05C469.06,-75.06 269.19,-62.35 101.25,-32 96.94,-31.22 92.47,-30.26 88.03,-29.21"/>
<polygon fill="#63b8ff" stroke="#63b8ff" points="89.18,-25.89 78.62,-26.82 87.45,-32.67 89.18,-25.89"/>
</a>
</g>
</g>
<!-- Node3 -->
<g id="Node000003" class="node">
<title>Node3</title>
<g id="a_Node000003"><a xlink:title=" ">
<polygon fill="#e0e0e0" stroke="#999999" points="212,-26 110.5,-26 110.5,-6 212,-6 212,-26"/>
<text text-anchor="middle" x="161.25" y="-12.5" font-family="Helvetica,sans-Serif" font-size="10.00">java.io.IOException</text>
</a>
</g>
</g>
<!-- Node1&#45;&gt;Node3 -->
<g id="edge2_Node000001_Node000003" class="edge">
<title>Node1&#45;&gt;Node3</title>
<g id="a_edge2_Node000001_Node000003"><a xlink:title=" ">
<path fill="none" stroke="#63b8ff" d="M578.05,-76.76C490.05,-69.19 344.86,-54.57 221.25,-32 216.62,-31.15 211.81,-30.16 207.02,-29.09"/>
<polygon fill="#63b8ff" stroke="#63b8ff" points="207.99,-25.72 197.46,-26.84 206.39,-32.53 207.99,-25.72"/>
</a>
</g>
</g>
<!-- Node4 -->
<g id="Node000004" class="node">
<title>Node4</title>
<g id="a_Node000004"><a xlink:title=" ">
<polygon fill="#e0e0e0" stroke="#999999" points="302,-26 230.5,-26 230.5,-6 302,-6 302,-26"/>
<text text-anchor="middle" x="266.25" y="-12.5" font-family="Helvetica,sans-Serif" font-size="10.00">java.net.URI</text>
</a>
</g>
</g>
<!-- Node1&#45;&gt;Node4 -->
<g id="edge3_Node000001_Node000004" class="edge">
<title>Node1&#45;&gt;Node4</title>
<g id="a_edge3_Node000001_Node000004"><a xlink:title=" ">
<path fill="none" stroke="#63b8ff" d="M577.9,-75.24C507.08,-67.45 401.43,-53.48 311.25,-32 308.45,-31.33 305.57,-30.57 302.69,-29.74"/>
<polygon fill="#63b8ff" stroke="#63b8ff" points="303.76,-26.41 293.17,-26.8 301.69,-33.1 303.76,-26.41"/>
</a>
</g>
</g>
<!-- Node5 -->
<g id="Node000005" class="node">
<title>Node5</title>
<g id="a_Node000005"><a xlink:title=" ">
<polygon fill="#e0e0e0" stroke="#999999" points="406.5,-26 320,-26 320,-6 406.5,-6 406.5,-26"/>
<text text-anchor="middle" x="363.25" y="-12.5" font-family="Helvetica,sans-Serif" font-size="10.00">java.util.Objects</text>
</a>
</g>
</g>
<!-- Node1&#45;&gt;Node5 -->
<g id="edge4_Node000001_Node000005" class="edge">
<title>Node1&#45;&gt;Node5</title>
<g id="a_edge4_Node000001_Node000005"><a xlink:title=" ">
<path fill="none" stroke="#63b8ff" d="M578.02,-67.71C530.49,-58.27 469.21,-45.43 415.25,-32 412.13,-31.22 408.91,-30.39 405.69,-29.52"/>
<polygon fill="#63b8ff" stroke="#63b8ff" points="406.8,-26.2 396.23,-26.9 404.93,-32.94 406.8,-26.2"/>
</a>
</g>
</g>
<!-- Node6 -->
<g id="Node000006" class="node">
<title>Node6</title>
<g id="a_Node000006"><a xlink:title=" ">
<polygon fill="#e0e0e0" stroke="#999999" points="569.75,-32 424.75,-32 424.75,0 569.75,0 569.75,-32"/>
<text text-anchor="start" x="432.75" y="-18.5" font-family="Helvetica,sans-Serif" font-size="10.00">java.util.concurrent.Execution</text>
<text text-anchor="middle" x="497.25" y="-6.5" font-family="Helvetica,sans-Serif" font-size="10.00">Exception</text>
</a>
</g>
</g>
<!-- Node1&#45;&gt;Node6 -->
<g id="edge5_Node000001_Node000006" class="edge">
<title>Node1&#45;&gt;Node6</title>
<g id="a_edge5_Node000001_Node000006"><a xlink:title=" ">
<path fill="none" stroke="#63b8ff" d="M620.5,-67.53C598.08,-58.33 569.41,-46.58 545.37,-36.73"/>
<polygon fill="#63b8ff" stroke="#63b8ff" points="547.02,-33.62 536.44,-33.07 544.37,-40.1 547.02,-33.62"/>
</a>
</g>
</g>
<!-- Node7 -->
<g id="Node000007" class="node">
<title>Node7</title>
<g id="a_Node000007"><a xlink:title=" ">
<polygon fill="#e0e0e0" stroke="#999999" points="728.5,-32 588,-32 588,0 728.5,0 728.5,-32"/>
<text text-anchor="start" x="596" y="-18.5" font-family="Helvetica,sans-Serif" font-size="10.00">java.util.concurrent.Executor</text>
<text text-anchor="middle" x="658.25" y="-6.5" font-family="Helvetica,sans-Serif" font-size="10.00">Service</text>
</a>
</g>
</g>
<!-- Node1&#45;&gt;Node7 -->
<g id="edge6_Node000001_Node000007" class="edge">
<title>Node1&#45;&gt;Node7</title>
<g id="a_edge6_Node000001_Node000007"><a xlink:title=" ">
<path fill="none" stroke="#63b8ff" d="M658.25,-67.69C658.25,-60.53 658.25,-51.79 658.25,-43.59"/>
<polygon fill="#63b8ff" stroke="#63b8ff" points="661.75,-43.74 658.25,-33.74 654.75,-43.74 661.75,-43.74"/>
</a>
</g>
</g>
<!-- Node8 -->
<g id="Node000008" class="node">
<title>Node8</title>
<g id="a_Node000008"><a xlink:title=" ">
<polygon fill="#e0e0e0" stroke="#999999" points="892.12,-26 746.38,-26 746.38,-6 892.12,-6 892.12,-26"/>
<text text-anchor="middle" x="819.25" y="-12.5" font-family="Helvetica,sans-Serif" font-size="10.00">java.util.concurrent.Executors</text>
</a>
</g>
</g>
<!-- Node1&#45;&gt;Node8 -->
<g id="edge7_Node000001_Node000008" class="edge">
<title>Node1&#45;&gt;Node8</title>
<g id="a_edge7_Node000001_Node000008"><a xlink:title=" ">
<path fill="none" stroke="#63b8ff" d="M696,-67.53C723.16,-56.39 759.47,-41.51 785.64,-30.78"/>
<polygon fill="#63b8ff" stroke="#63b8ff" points="786.85,-34.07 794.77,-27.03 784.19,-27.59 786.85,-34.07"/>
</a>
</g>
</g>
<!-- Node9 -->
<g id="Node000009" class="node">
<title>Node9</title>
<g id="a_Node000009"><a xlink:title=" ">
<polygon fill="#e0e0e0" stroke="#999999" points="1039.88,-26 910.62,-26 910.62,-6 1039.88,-6 1039.88,-26"/>
<text text-anchor="middle" x="975.25" y="-12.5" font-family="Helvetica,sans-Serif" font-size="10.00">java.util.concurrent.Future</text>
</a>
</g>
</g>
<!-- Node1&#45;&gt;Node9 -->
<g id="edge8_Node000001_Node000009" class="edge">
<title>Node1&#45;&gt;Node9</title>
<g id="a_edge8_Node000001_Node000009"><a xlink:title=" ">
<path fill="none" stroke="#63b8ff" d="M732.57,-67.53C789.52,-55.67 866.88,-39.56 918.81,-28.75"/>
<polygon fill="#63b8ff" stroke="#63b8ff" points="919.25,-32.23 928.33,-26.77 917.83,-25.38 919.25,-32.23"/>
</a>
</g>
</g>
<!-- Node10 -->
<g id="Node000010" class="node">
<title>Node10</title>
<g id="a_Node000010"><a xlink:title=" ">
<polygon fill="#e0e0e0" stroke="#999999" points="1198.88,-26 1057.62,-26 1057.62,-6 1198.88,-6 1198.88,-26"/>
<text text-anchor="middle" x="1128.25" y="-12.5" font-family="Helvetica,sans-Serif" font-size="10.00">java.util.concurrent.TimeUnit</text>
</a>
</g>
</g>
<!-- Node1&#45;&gt;Node10 -->
<g id="edge9_Node000001_Node000010" class="edge">
<title>Node1&#45;&gt;Node10</title>
<g id="a_edge9_Node000001_Node000010"><a xlink:title=" ">
<path fill="none" stroke="#63b8ff" d="M738.57,-73.9C817.75,-64.61 942.11,-49.14 1049.25,-32 1055.78,-30.95 1062.61,-29.78 1069.39,-28.56"/>
<polygon fill="#63b8ff" stroke="#63b8ff" points="1070.01,-32.01 1079.22,-26.76 1068.75,-25.12 1070.01,-32.01"/>
</a>
</g>
</g>
<!-- Node11 -->
<g id="Node000011" class="node">
<title>Node11</title>
<g id="a_Node000011"><a xlink:title=" ">
<polygon fill="#e0e0e0" stroke="#999999" points="1353.62,-32 1216.88,-32 1216.88,0 1353.62,0 1353.62,-32"/>
<text text-anchor="start" x="1224.88" y="-18.5" font-family="Helvetica,sans-Serif" font-size="10.00">java.util.concurrent.Timeout</text>
<text text-anchor="middle" x="1285.25" y="-6.5" font-family="Helvetica,sans-Serif" font-size="10.00">Exception</text>
</a>
</g>
</g>
<!-- Node1&#45;&gt;Node11 -->
<g id="edge10_Node000001_Node000011" class="edge">
<title>Node1&#45;&gt;Node11</title>
<g id="a_edge10_Node000001_Node000011"><a xlink:title=" ">
<path fill="none" stroke="#63b8ff" d="M738.7,-78.07C843.81,-71.06 1033.75,-56.47 1205.2,-32.36"/>
<polygon fill="#63b8ff" stroke="#63b8ff" points="1205.55,-35.84 1214.96,-30.97 1204.57,-28.91 1205.55,-35.84"/>
</a>
</g>
</g>
<!-- Node12 -->
<g id="Node000012" class="node">
<title>Node12</title>
<g id="a_Node000012"><a xlink:title=" ">
<polygon fill="#e0e0e0" stroke="#999999" points="1502.62,-26 1371.88,-26 1371.88,-6 1502.62,-6 1502.62,-26"/>
<text text-anchor="middle" x="1437.25" y="-12.5" font-family="Helvetica,sans-Serif" font-size="10.00">fr.softsf.canscan.ui.Popup</text>
</a>
</g>
</g>
<!-- Node1&#45;&gt;Node12 -->
<g id="edge11_Node000001_Node000012" class="edge">
<title>Node1&#45;&gt;Node12</title>
<g id="a_edge11_Node000001_Node000012"><a xlink:title=" ">
<path fill="none" stroke="#63b8ff" d="M738.56,-80.45C869.63,-75.56 1137.45,-62.5 1362.25,-32 1369.08,-31.07 1376.21,-29.91 1383.26,-28.64"/>
<polygon fill="#63b8ff" stroke="#63b8ff" points="1383.91,-32.07 1393.08,-26.78 1382.61,-25.2 1383.91,-32.07"/>
</a>
</g>
</g>
</g>
</svg>
