<?xml version="1.0" encoding="UTF-8" standalone="no"?>
<!DOCTYPE svg PUBLIC "-//W3C//DTD SVG 1.1//EN"
 "http://www.w3.org/Graphics/SVG/1.1/DTD/svg11.dtd">
<!-- Generated by graphviz version 12.2.1 (20241206.2353)
 -->
<!-- Title: src/main/java/fr/softsf/canscan/util/Checker.java Pages: 1 -->
<svg width="420pt" height="108pt"
 viewBox="0.00 0.00 420.38 108.00" xmlns="http://www.w3.org/2000/svg" xmlns:xlink="http://www.w3.org/1999/xlink">

<svg id="main" version="1.1" xmlns="http://www.w3.org/2000/svg" xmlns:xlink="http://www.w3.org/1999/xlink" xml:space="preserve">

<style type="text/css"><![CDATA[
.node, .edge {opacity: 0.7;}
.node.selected, .edge.selected {opacity: 1;}
.edge:hover path { stroke: red; }
.edge:hover polygon { stroke: red; fill: red; }
]]></style>
<script type="application/ecmascript" xlink:href="svg.min.js"/>
<svg id="graph" class="graph">
<g id="graph0" class="graph" transform="scale(1 1) rotate(0) translate(4 104)">
<title>src/main/java/fr/softsf/canscan/util/Checker.java</title>
<!-- Node1 -->
<g id="Node000001" class="node">
<title>Node1</title>
<g id="a_Node000001"><a xlink:title=" ">
<polygon fill="#999999" stroke="#666666" points="260.12,-100 127.88,-100 127.88,-68 260.12,-68 260.12,-100"/>
<text text-anchor="start" x="135.88" y="-86.5" font-family="Helvetica,sans-Serif" font-size="10.00">src/main/java/fr/softsf</text>
<text text-anchor="middle" x="194" y="-74.5" font-family="Helvetica,sans-Serif" font-size="10.00">/canscan/util/Checker.java</text>
</a>
</g>
</g>
<!-- Node2 -->
<g id="Node000002" class="node">
<title>Node2</title>
<g id="a_Node000002"><a xlink:title=" ">
<polygon fill="#e0e0e0" stroke="#999999" points="106,-26 0,-26 0,-6 106,-6 106,-26"/>
<text text-anchor="middle" x="53" y="-12.5" font-family="Helvetica,sans-Serif" font-size="10.00">java.awt.Component</text>
</a>
</g>
</g>
<!-- Node1&#45;&gt;Node2 -->
<g id="edge1_Node000001_Node000002" class="edge">
<title>Node1&#45;&gt;Node2</title>
<g id="a_edge1_Node000001_Node000002"><a xlink:title=" ">
<path fill="none" stroke="#63b8ff" d="M160.94,-67.53C137.47,-56.54 106.2,-41.9 83.36,-31.21"/>
<polygon fill="#63b8ff" stroke="#63b8ff" points="85.12,-28.17 74.58,-27.1 82.15,-34.51 85.12,-28.17"/>
</a>
</g>
</g>
<!-- Node3 -->
<g id="Node000003" class="node">
<title>Node3</title>
<g id="a_Node000003"><a xlink:title=" ">
<polygon fill="#e0e0e0" stroke="#999999" points="263.5,-32 124.5,-32 124.5,0 263.5,0 263.5,-32"/>
<text text-anchor="start" x="132.5" y="-18.5" font-family="Helvetica,sans-Serif" font-size="10.00">org.apache.commons.lang3.</text>
<text text-anchor="middle" x="194" y="-6.5" font-family="Helvetica,sans-Serif" font-size="10.00">StringUtils</text>
</a>
</g>
</g>
<!-- Node1&#45;&gt;Node3 -->
<g id="edge2_Node000001_Node000003" class="edge">
<title>Node1&#45;&gt;Node3</title>
<g id="a_edge2_Node000001_Node000003"><a xlink:title=" ">
<path fill="none" stroke="#63b8ff" d="M194,-67.69C194,-60.53 194,-51.79 194,-43.59"/>
<polygon fill="#63b8ff" stroke="#63b8ff" points="197.5,-43.74 194,-33.74 190.5,-43.74 197.5,-43.74"/>
</a>
</g>
</g>
<!-- Node4 -->
<g id="Node000004" class="node">
<title>Node4</title>
<g id="a_Node000004"><a xlink:title=" ">
<polygon fill="#e0e0e0" stroke="#999999" points="412.38,-26 281.62,-26 281.62,-6 412.38,-6 412.38,-26"/>
<text text-anchor="middle" x="347" y="-12.5" font-family="Helvetica,sans-Serif" font-size="10.00">fr.softsf.canscan.ui.Popup</text>
</a>
</g>
</g>
<!-- Node1&#45;&gt;Node4 -->
<g id="edge3_Node000001_Node000004" class="edge">
<title>Node1&#45;&gt;Node4</title>
<g id="a_edge3_Node000001_Node000004"><a xlink:title=" ">
<path fill="none" stroke="#63b8ff" d="M229.87,-67.53C255.57,-56.44 289.88,-41.64 314.72,-30.92"/>
<polygon fill="#63b8ff" stroke="#63b8ff" points="315.88,-34.23 323.68,-27.06 313.11,-27.81 315.88,-34.23"/>
</a>
</g>
</g>
</g>
</svg>
</svg>

<style type='text/css'>
<![CDATA[
[data-mouse-over-selected='false'] { opacity: 0.7; }
[data-mouse-over-selected='true']  { opacity: 1.0; }
]]>
</style>
<script type="application/ecmascript"><![CDATA[
document.addEventListener('DOMContentLoaded', (event) => {
  highlightEdges();
  highlightAdjacentNodes();
});
]]></script>
</svg>
