<?xml version="1.0" encoding="UTF-8" standalone="no"?>
<!DOCTYPE svg PUBLIC "-//W3C//DTD SVG 1.1//EN"
 "http://www.w3.org/Graphics/SVG/1.1/DTD/svg11.dtd">
<!-- Generated by graphviz version 12.2.1 (20241206.2353)
 -->
<!-- Title: src/main/java/fr/softsf/canscan/util/DateHelper.java Pages: 1 -->
<svg width="654pt" height="108pt"
 viewBox="0.00 0.00 653.62 108.00" xmlns="http://www.w3.org/2000/svg" xmlns:xlink="http://www.w3.org/1999/xlink">
<g id="graph0" class="graph" transform="scale(1 1) rotate(0) translate(4 104)">
<title>src/main/java/fr/softsf/canscan/util/DateHelper.java</title>
<!-- Node1 -->
<g id="Node000001" class="node">
<title>Node1</title>
<g id="a_Node000001"><a xlink:title=" ">
<polygon fill="#999999" stroke="#666666" points="368,-100 223,-100 223,-68 368,-68 368,-100"/>
<text text-anchor="start" x="231" y="-86.5" font-family="Helvetica,sans-Serif" font-size="10.00">src/main/java/fr/softsf</text>
<text text-anchor="middle" x="295.5" y="-74.5" font-family="Helvetica,sans-Serif" font-size="10.00">/canscan/util/DateHelper.java</text>
</a>
</g>
</g>
<!-- Node2 -->
<g id="Node000002" class="node">
<title>Node2</title>
<g id="a_Node000002"><a xlink:title=" ">
<polygon fill="#e0e0e0" stroke="#999999" points="103,-26 0,-26 0,-6 103,-6 103,-26"/>
<text text-anchor="middle" x="51.5" y="-12.5" font-family="Helvetica,sans-Serif" font-size="10.00">java.time.LocalDate</text>
</a>
</g>
</g>
<!-- Node1&#45;&gt;Node2 -->
<g id="edge1_Node000001_Node000002" class="edge">
<title>Node1&#45;&gt;Node2</title>
<g id="a_edge1_Node000001_Node000002"><a xlink:title=" ">
<path fill="none" stroke="#63b8ff" d="M238.29,-67.53C195.38,-55.92 137.4,-40.24 97.48,-29.44"/>
<polygon fill="#63b8ff" stroke="#63b8ff" points="98.5,-26.09 87.93,-26.86 96.67,-32.84 98.5,-26.09"/>
</a>
</g>
</g>
<!-- Node3 -->
<g id="Node000003" class="node">
<title>Node3</title>
<g id="a_Node000003"><a xlink:title=" ">
<polygon fill="#e0e0e0" stroke="#999999" points="224.38,-26 120.62,-26 120.62,-6 224.38,-6 224.38,-26"/>
<text text-anchor="middle" x="172.5" y="-12.5" font-family="Helvetica,sans-Serif" font-size="10.00">java.time.LocalTime</text>
</a>
</g>
</g>
<!-- Node1&#45;&gt;Node3 -->
<g id="edge2_Node000001_Node000003" class="edge">
<title>Node1&#45;&gt;Node3</title>
<g id="a_edge2_Node000001_Node000003"><a xlink:title=" ">
<path fill="none" stroke="#63b8ff" d="M266.66,-67.53C246.56,-56.74 219.9,-42.43 200.08,-31.8"/>
<polygon fill="#63b8ff" stroke="#63b8ff" points="201.93,-28.82 191.46,-27.18 198.62,-34.99 201.93,-28.82"/>
</a>
</g>
</g>
<!-- Node4 -->
<g id="Node000004" class="node">
<title>Node4</title>
<g id="a_Node000004"><a xlink:title=" ">
<polygon fill="#e0e0e0" stroke="#999999" points="348.88,-26 242.12,-26 242.12,-6 348.88,-6 348.88,-26"/>
<text text-anchor="middle" x="295.5" y="-12.5" font-family="Helvetica,sans-Serif" font-size="10.00">java.time.ZoneOffset</text>
</a>
</g>
</g>
<!-- Node1&#45;&gt;Node4 -->
<g id="edge3_Node000001_Node000004" class="edge">
<title>Node1&#45;&gt;Node4</title>
<g id="a_edge3_Node000001_Node000004"><a xlink:title=" ">
<path fill="none" stroke="#63b8ff" d="M295.5,-67.69C295.5,-58.8 295.5,-47.46 295.5,-37.77"/>
<polygon fill="#63b8ff" stroke="#63b8ff" points="299,-37.83 295.5,-27.83 292,-37.83 299,-37.83"/>
</a>
</g>
</g>
<!-- Node5 -->
<g id="Node000005" class="node">
<title>Node5</title>
<g id="a_Node000005"><a xlink:title=" ">
<polygon fill="#e0e0e0" stroke="#999999" points="495.75,-26 367.25,-26 367.25,-6 495.75,-6 495.75,-26"/>
<text text-anchor="middle" x="431.5" y="-12.5" font-family="Helvetica,sans-Serif" font-size="10.00">java.time.ZonedDateTime</text>
</a>
</g>
</g>
<!-- Node1&#45;&gt;Node5 -->
<g id="edge4_Node000001_Node000005" class="edge">
<title>Node1&#45;&gt;Node5</title>
<g id="a_edge4_Node000001_Node000005"><a xlink:title=" ">
<path fill="none" stroke="#63b8ff" d="M327.39,-67.53C349.92,-56.59 379.91,-42.04 401.91,-31.36"/>
<polygon fill="#63b8ff" stroke="#63b8ff" points="403.18,-34.64 410.64,-27.12 400.12,-28.34 403.18,-34.64"/>
</a>
</g>
</g>
<!-- Node6 -->
<g id="Node000006" class="node">
<title>Node6</title>
<g id="a_Node000006"><a xlink:title=" ">
<polygon fill="#e0e0e0" stroke="#999999" points="645.62,-32 513.38,-32 513.38,0 645.62,0 645.62,-32"/>
<text text-anchor="start" x="521.38" y="-18.5" font-family="Helvetica,sans-Serif" font-size="10.00">java.time.format.DateTime</text>
<text text-anchor="middle" x="579.5" y="-6.5" font-family="Helvetica,sans-Serif" font-size="10.00">Formatter</text>
</a>
</g>
</g>
<!-- Node1&#45;&gt;Node6 -->
<g id="edge5_Node000001_Node000006" class="edge">
<title>Node1&#45;&gt;Node6</title>
<g id="a_edge5_Node000001_Node000006"><a xlink:title=" ">
<path fill="none" stroke="#63b8ff" d="M362.09,-67.53C404.01,-57.78 458.3,-45.17 502.14,-34.98"/>
<polygon fill="#63b8ff" stroke="#63b8ff" points="502.91,-38.39 511.86,-32.72 501.32,-31.57 502.91,-38.39"/>
</a>
</g>
</g>
</g>
</svg>
