<?xml version="1.0" encoding="UTF-8" standalone="no"?>
<!DOCTYPE svg PUBLIC "-//W3C//DTD SVG 1.1//EN"
 "http://www.w3.org/Graphics/SVG/1.1/DTD/svg11.dtd">
<!-- Generated by graphviz version 12.2.1 (20241206.2353)
 -->
<!-- Title: src/main/java/fr/softsf/canscan/ui/DynamicQrCodePreview.java Pages: 1 -->
<svg width="2114pt" height="108pt"
 viewBox="0.00 0.00 2113.88 108.00" xmlns="http://www.w3.org/2000/svg" xmlns:xlink="http://www.w3.org/1999/xlink">
<g id="graph0" class="graph" transform="scale(1 1) rotate(0) translate(4 104)">
<title>src/main/java/fr/softsf/canscan/ui/DynamicQrCodePreview.java</title>
<!-- Node1 -->
<g id="Node000001" class="node">
<title>Node1</title>
<g id="a_Node000001"><a xlink:title=" ">
<polygon fill="#999999" stroke="#666666" points="1081.75,-100 884.25,-100 884.25,-68 1081.75,-68 1081.75,-100"/>
<text text-anchor="start" x="892.25" y="-86.5" font-family="Helvetica,sans-Serif" font-size="10.00">src/main/java/fr/softsf</text>
<text text-anchor="middle" x="983" y="-74.5" font-family="Helvetica,sans-Serif" font-size="10.00">/canscan/ui/DynamicQrCodePreview.java</text>
</a>
</g>
</g>
<!-- Node2 -->
<g id="Node000002" class="node">
<title>Node2</title>
<g id="a_Node000002"><a xlink:title=" ">
<polygon fill="#e0e0e0" stroke="#999999" points="148,-26 0,-26 0,-6 148,-6 148,-26"/>
<text text-anchor="middle" x="74" y="-12.5" font-family="Helvetica,sans-Serif" font-size="10.00">java.awt.image.BufferedImage</text>
</a>
</g>
</g>
<!-- Node1&#45;&gt;Node2 -->
<g id="edge1_Node000001_Node000002" class="edge">
<title>Node1&#45;&gt;Node2</title>
<g id="a_edge1_Node000001_Node000002"><a xlink:title=" ">
<path fill="none" stroke="#63b8ff" d="M883.8,-80.63C728.38,-76.06 418.21,-63.56 157,-32 148.9,-31.02 140.4,-29.76 132.06,-28.38"/>
<polygon fill="#63b8ff" stroke="#63b8ff" points="132.76,-24.95 122.31,-26.71 131.58,-31.85 132.76,-24.95"/>
</a>
</g>
</g>
<!-- Node3 -->
<g id="Node000003" class="node">
<title>Node3</title>
<g id="a_Node000003"><a xlink:title=" ">
<polygon fill="#e0e0e0" stroke="#999999" points="229.62,-26 166.38,-26 166.38,-6 229.62,-6 229.62,-26"/>
<text text-anchor="middle" x="198" y="-12.5" font-family="Helvetica,sans-Serif" font-size="10.00">java.io.File</text>
</a>
</g>
</g>
<!-- Node1&#45;&gt;Node3 -->
<g id="edge2_Node000001_Node000003" class="edge">
<title>Node1&#45;&gt;Node3</title>
<g id="a_edge2_Node000001_Node000003"><a xlink:title=" ">
<path fill="none" stroke="#63b8ff" d="M883.79,-79.67C710.4,-73.27 359.23,-57.57 239,-32 236.37,-31.44 233.69,-30.75 231.01,-29.97"/>
<polygon fill="#63b8ff" stroke="#63b8ff" points="232.25,-26.7 221.66,-26.89 230.06,-33.35 232.25,-26.7"/>
</a>
</g>
</g>
<!-- Node4 -->
<g id="Node000004" class="node">
<title>Node4</title>
<g id="a_Node000004"><a xlink:title=" ">
<polygon fill="#e0e0e0" stroke="#999999" points="334.25,-26 247.75,-26 247.75,-6 334.25,-6 334.25,-26"/>
<text text-anchor="middle" x="291" y="-12.5" font-family="Helvetica,sans-Serif" font-size="10.00">java.util.Objects</text>
</a>
</g>
</g>
<!-- Node1&#45;&gt;Node4 -->
<g id="edge3_Node000001_Node000004" class="edge">
<title>Node1&#45;&gt;Node4</title>
<g id="a_edge3_Node000001_Node000004"><a xlink:title=" ">
<path fill="none" stroke="#63b8ff" d="M883.8,-81.27C757.31,-77.65 532.3,-66.48 343,-32 338.97,-31.27 334.81,-30.35 330.68,-29.33"/>
<polygon fill="#63b8ff" stroke="#63b8ff" points="331.93,-26.04 321.37,-26.85 330.13,-32.81 331.93,-26.04"/>
</a>
</g>
</g>
<!-- Node5 -->
<g id="Node000005" class="node">
<title>Node5</title>
<g id="a_Node000005"><a xlink:title=" ">
<polygon fill="#e0e0e0" stroke="#999999" points="451.62,-26 352.38,-26 352.38,-6 451.62,-6 451.62,-26"/>
<text text-anchor="middle" x="402" y="-12.5" font-family="Helvetica,sans-Serif" font-size="10.00">javax.swing.JLabel</text>
</a>
</g>
</g>
<!-- Node1&#45;&gt;Node5 -->
<g id="edge4_Node000001_Node000005" class="edge">
<title>Node1&#45;&gt;Node5</title>
<g id="a_edge4_Node000001_Node000005"><a xlink:title=" ">
<path fill="none" stroke="#63b8ff" d="M883.78,-77.79C778.32,-71.22 606.98,-57.54 461,-32 456.32,-31.18 451.45,-30.19 446.62,-29.1"/>
<polygon fill="#63b8ff" stroke="#63b8ff" points="447.52,-25.72 436.98,-26.81 445.9,-32.53 447.52,-25.72"/>
</a>
</g>
</g>
<!-- Node6 -->
<g id="Node000006" class="node">
<title>Node6</title>
<g id="a_Node000006"><a xlink:title=" ">
<polygon fill="#e0e0e0" stroke="#999999" points="600,-26 470,-26 470,-6 600,-6 600,-26"/>
<text text-anchor="middle" x="535" y="-12.5" font-family="Helvetica,sans-Serif" font-size="10.00">javax.swing.JProgressBar</text>
</a>
</g>
</g>
<!-- Node1&#45;&gt;Node6 -->
<g id="edge5_Node000001_Node000006" class="edge">
<title>Node1&#45;&gt;Node6</title>
<g id="a_edge5_Node000001_Node000006"><a xlink:title=" ">
<path fill="none" stroke="#63b8ff" d="M883.91,-71.26C808.38,-61.87 701.88,-47.73 609,-32 602.94,-30.97 596.62,-29.82 590.34,-28.62"/>
<polygon fill="#63b8ff" stroke="#63b8ff" points="591.1,-25.2 580.62,-26.72 589.76,-32.07 591.1,-25.2"/>
</a>
</g>
</g>
<!-- Node7 -->
<g id="Node000007" class="node">
<title>Node7</title>
<g id="a_Node000007"><a xlink:title=" ">
<polygon fill="#e0e0e0" stroke="#999999" points="748.38,-26 617.62,-26 617.62,-6 748.38,-6 748.38,-26"/>
<text text-anchor="middle" x="683" y="-12.5" font-family="Helvetica,sans-Serif" font-size="10.00">javax.swing.SwingUtilities</text>
</a>
</g>
</g>
<!-- Node1&#45;&gt;Node7 -->
<g id="edge6_Node000001_Node000007" class="edge">
<title>Node1&#45;&gt;Node7</title>
<g id="a_edge6_Node000001_Node000007"><a xlink:title=" ">
<path fill="none" stroke="#63b8ff" d="M912.66,-67.53C859,-55.72 786.17,-39.7 737.03,-28.89"/>
<polygon fill="#63b8ff" stroke="#63b8ff" points="738,-25.52 727.48,-26.79 736.49,-32.35 738,-25.52"/>
</a>
</g>
</g>
<!-- Node8 -->
<g id="Node000008" class="node">
<title>Node8</title>
<g id="a_Node000008"><a xlink:title=" ">
<polygon fill="#e0e0e0" stroke="#999999" points="895.25,-26 766.75,-26 766.75,-6 895.25,-6 895.25,-26"/>
<text text-anchor="middle" x="831" y="-12.5" font-family="Helvetica,sans-Serif" font-size="10.00">javax.swing.SwingWorker</text>
</a>
</g>
</g>
<!-- Node1&#45;&gt;Node8 -->
<g id="edge7_Node000001_Node000008" class="edge">
<title>Node1&#45;&gt;Node8</title>
<g id="a_edge7_Node000001_Node000008"><a xlink:title=" ">
<path fill="none" stroke="#63b8ff" d="M947.36,-67.53C921.83,-56.44 887.74,-41.64 863.07,-30.92"/>
<polygon fill="#63b8ff" stroke="#63b8ff" points="864.74,-27.84 854.18,-27.06 861.95,-34.26 864.74,-27.84"/>
</a>
</g>
</g>
<!-- Node9 -->
<g id="Node000009" class="node">
<title>Node9</title>
<g id="a_Node000009"><a xlink:title=" ">
<polygon fill="#e0e0e0" stroke="#999999" points="1052.5,-32 913.5,-32 913.5,0 1052.5,0 1052.5,-32"/>
<text text-anchor="start" x="921.5" y="-18.5" font-family="Helvetica,sans-Serif" font-size="10.00">org.apache.commons.lang3.</text>
<text text-anchor="middle" x="983" y="-6.5" font-family="Helvetica,sans-Serif" font-size="10.00">StringUtils</text>
</a>
</g>
</g>
<!-- Node1&#45;&gt;Node9 -->
<g id="edge8_Node000001_Node000009" class="edge">
<title>Node1&#45;&gt;Node9</title>
<g id="a_edge8_Node000001_Node000009"><a xlink:title=" ">
<path fill="none" stroke="#63b8ff" d="M983,-67.69C983,-60.53 983,-51.79 983,-43.59"/>
<polygon fill="#63b8ff" stroke="#63b8ff" points="986.5,-43.74 983,-33.74 979.5,-43.74 986.5,-43.74"/>
</a>
</g>
</g>
<!-- Node10 -->
<g id="Node000010" class="node">
<title>Node10</title>
<g id="a_Node000010"><a xlink:title=" ">
<polygon fill="#e0e0e0" stroke="#999999" points="1191.88,-32 1070.12,-32 1070.12,0 1191.88,0 1191.88,-32"/>
<text text-anchor="start" x="1078.12" y="-18.5" font-family="Helvetica,sans-Serif" font-size="10.00">fr.softsf.canscan.model.</text>
<text text-anchor="middle" x="1131" y="-6.5" font-family="Helvetica,sans-Serif" font-size="10.00">QrConfig</text>
</a>
</g>
</g>
<!-- Node1&#45;&gt;Node10 -->
<g id="edge9_Node000001_Node000010" class="edge">
<title>Node1&#45;&gt;Node10</title>
<g id="a_edge9_Node000001_Node000010"><a xlink:title=" ">
<path fill="none" stroke="#63b8ff" d="M1017.7,-67.53C1038.04,-58.46 1063.96,-46.9 1085.87,-37.13"/>
<polygon fill="#63b8ff" stroke="#63b8ff" points="1087.17,-40.38 1094.88,-33.11 1084.32,-33.98 1087.17,-40.38"/>
</a>
</g>
</g>
<!-- Node11 -->
<g id="Node000011" class="node">
<title>Node11</title>
<g id="a_Node000011"><a xlink:title=" ">
<polygon fill="#e0e0e0" stroke="#999999" points="1331.88,-32 1210.12,-32 1210.12,0 1331.88,0 1331.88,-32"/>
<text text-anchor="start" x="1218.12" y="-18.5" font-family="Helvetica,sans-Serif" font-size="10.00">fr.softsf.canscan.model.</text>
<text text-anchor="middle" x="1271" y="-6.5" font-family="Helvetica,sans-Serif" font-size="10.00">QrDataResult</text>
</a>
</g>
</g>
<!-- Node1&#45;&gt;Node11 -->
<g id="edge10_Node000001_Node000011" class="edge">
<title>Node1&#45;&gt;Node11</title>
<g id="a_edge10_Node000001_Node000011"><a xlink:title=" ">
<path fill="none" stroke="#63b8ff" d="M1050.52,-67.53C1095.07,-57.32 1153.36,-43.96 1198.82,-33.54"/>
<polygon fill="#63b8ff" stroke="#63b8ff" points="1199.35,-37.01 1208.31,-31.37 1197.78,-30.19 1199.35,-37.01"/>
</a>
</g>
</g>
<!-- Node12 -->
<g id="Node000012" class="node">
<title>Node12</title>
<g id="a_Node000012"><a xlink:title=" ">
<polygon fill="#e0e0e0" stroke="#999999" points="1471.88,-32 1350.12,-32 1350.12,0 1471.88,0 1471.88,-32"/>
<text text-anchor="start" x="1358.12" y="-18.5" font-family="Helvetica,sans-Serif" font-size="10.00">fr.softsf.canscan.model.</text>
<text text-anchor="middle" x="1411" y="-6.5" font-family="Helvetica,sans-Serif" font-size="10.00">QrInput</text>
</a>
</g>
</g>
<!-- Node1&#45;&gt;Node12 -->
<g id="edge11_Node000001_Node000012" class="edge">
<title>Node1&#45;&gt;Node12</title>
<g id="a_edge11_Node000001_Node000012"><a xlink:title=" ">
<path fill="none" stroke="#63b8ff" d="M1082.07,-70.77C1151.29,-61.79 1246.1,-48.6 1338.69,-32.34"/>
<polygon fill="#63b8ff" stroke="#63b8ff" points="1339.24,-35.8 1348.48,-30.6 1338.02,-28.9 1339.24,-35.8"/>
</a>
</g>
</g>
<!-- Node13 -->
<g id="Node000013" class="node">
<title>Node13</title>
<g id="a_Node000013"><a xlink:title=" ">
<polygon fill="#e0e0e0" stroke="#999999" points="1646.12,-32 1489.88,-32 1489.88,0 1646.12,0 1646.12,-32"/>
<text text-anchor="start" x="1497.88" y="-18.5" font-family="Helvetica,sans-Serif" font-size="10.00">fr.softsf.canscan.service.</text>
<text text-anchor="middle" x="1568" y="-6.5" font-family="Helvetica,sans-Serif" font-size="10.00">AbstractDynamicQrCodeWorker</text>
</a>
</g>
</g>
<!-- Node1&#45;&gt;Node13 -->
<g id="edge12_Node000001_Node000013" class="edge">
<title>Node1&#45;&gt;Node13</title>
<g id="a_edge12_Node000001_Node000013"><a xlink:title=" ">
<path fill="none" stroke="#63b8ff" d="M1081.98,-74.88C1180.09,-66.37 1334.91,-51.71 1478.58,-32.27"/>
<polygon fill="#63b8ff" stroke="#63b8ff" points="1478.85,-35.77 1488.29,-30.95 1477.9,-28.83 1478.85,-35.77"/>
</a>
</g>
</g>
<!-- Node14 -->
<g id="Node000014" class="node">
<title>Node14</title>
<g id="a_Node000014"><a xlink:title=" ">
<polygon fill="#e0e0e0" stroke="#999999" points="1791.5,-32 1664.5,-32 1664.5,0 1791.5,0 1791.5,-32"/>
<text text-anchor="start" x="1672.5" y="-18.5" font-family="Helvetica,sans-Serif" font-size="10.00">fr.softsf.canscan.service.</text>
<text text-anchor="middle" x="1728" y="-6.5" font-family="Helvetica,sans-Serif" font-size="10.00">DataBuilderService</text>
</a>
</g>
</g>
<!-- Node1&#45;&gt;Node14 -->
<g id="edge13_Node000001_Node000014" class="edge">
<title>Node1&#45;&gt;Node14</title>
<g id="a_edge13_Node000001_Node000014"><a xlink:title=" ">
<path fill="none" stroke="#63b8ff" d="M1082.2,-79.41C1211.37,-73.85 1444.29,-60.82 1653.19,-32.12"/>
<polygon fill="#63b8ff" stroke="#63b8ff" points="1653.46,-35.62 1662.88,-30.78 1652.5,-28.69 1653.46,-35.62"/>
</a>
</g>
</g>
<!-- Node15 -->
<g id="Node000015" class="node">
<title>Node15</title>
<g id="a_Node000015"><a xlink:title=" ">
<polygon fill="#e0e0e0" stroke="#999999" points="1954.5,-26 1809.5,-26 1809.5,-6 1954.5,-6 1954.5,-26"/>
<text text-anchor="middle" x="1882" y="-12.5" font-family="Helvetica,sans-Serif" font-size="10.00">fr.softsf.canscan.util.Checker</text>
</a>
</g>
</g>
<!-- Node1&#45;&gt;Node15 -->
<g id="edge14_Node000001_Node000015" class="edge">
<title>Node1&#45;&gt;Node15</title>
<g id="a_edge14_Node000001_Node000015"><a xlink:title=" ">
<path fill="none" stroke="#63b8ff" d="M1082.2,-80.68C1236.45,-76.2 1542.92,-63.82 1801,-32 1808.81,-31.04 1817.01,-29.79 1825.07,-28.44"/>
<polygon fill="#63b8ff" stroke="#63b8ff" points="1825.58,-31.9 1834.82,-26.72 1824.37,-25.01 1825.58,-31.9"/>
</a>
</g>
</g>
<!-- Node16 -->
<g id="Node000016" class="node">
<title>Node16</title>
<g id="a_Node000016"><a xlink:title=" ">
<polygon fill="#e0e0e0" stroke="#999999" points="2105.88,-32 1972.12,-32 1972.12,0 2105.88,0 2105.88,-32"/>
<text text-anchor="start" x="1980.12" y="-18.5" font-family="Helvetica,sans-Serif" font-size="10.00">fr.softsf.canscan.util.String</text>
<text text-anchor="middle" x="2039" y="-6.5" font-family="Helvetica,sans-Serif" font-size="10.00">Constants</text>
</a>
</g>
</g>
<!-- Node1&#45;&gt;Node16 -->
<g id="edge15_Node000001_Node000016" class="edge">
<title>Node1&#45;&gt;Node16</title>
<g id="a_edge15_Node000001_Node000016"><a xlink:title=" ">
<path fill="none" stroke="#63b8ff" d="M1081.93,-82.6C1257.37,-80.85 1634.53,-72.41 1960.92,-32.28"/>
<polygon fill="#63b8ff" stroke="#63b8ff" points="1961.03,-35.79 1970.52,-31.08 1960.16,-28.84 1961.03,-35.79"/>
</a>
</g>
</g>
</g>
</svg>
