<?xml version="1.0" encoding="UTF-8" standalone="no"?>
<!DOCTYPE svg PUBLIC "-//W3C//DTD SVG 1.1//EN"
 "http://www.w3.org/Graphics/SVG/1.1/DTD/svg11.dtd">
<!-- Generated by graphviz version 12.2.1 (20241206.2353)
 -->
<!-- Title: src/main/java/fr/softsf/canscan/ui/DynamicQrCodeResize.java Pages: 1 -->
<svg width="1657pt" height="108pt"
 viewBox="0.00 0.00 1656.62 108.00" xmlns="http://www.w3.org/2000/svg" xmlns:xlink="http://www.w3.org/1999/xlink">
<g id="graph0" class="graph" transform="scale(1 1) rotate(0) translate(4 104)">
<title>src/main/java/fr/softsf/canscan/ui/DynamicQrCodeResize.java</title>
<!-- Node1 -->
<g id="Node000001" class="node">
<title>Node1</title>
<g id="a_Node000001"><a xlink:title=" ">
<polygon fill="#999999" stroke="#666666" points="886.75,-100 693,-100 693,-68 886.75,-68 886.75,-100"/>
<text text-anchor="start" x="701" y="-86.5" font-family="Helvetica,sans-Serif" font-size="10.00">src/main/java/fr/softsf</text>
<text text-anchor="middle" x="789.88" y="-74.5" font-family="Helvetica,sans-Serif" font-size="10.00">/canscan/ui/DynamicQrCodeResize.java</text>
</a>
</g>
</g>
<!-- Node2 -->
<g id="Node000002" class="node">
<title>Node2</title>
<g id="a_Node000002"><a xlink:title=" ">
<polygon fill="#e0e0e0" stroke="#999999" points="97.75,-26 0,-26 0,-6 97.75,-6 97.75,-26"/>
<text text-anchor="middle" x="48.88" y="-12.5" font-family="Helvetica,sans-Serif" font-size="10.00">java.awt.Container</text>
</a>
</g>
</g>
<!-- Node1&#45;&gt;Node2 -->
<g id="edge1_Node000001_Node000002" class="edge">
<title>Node1&#45;&gt;Node2</title>
<g id="a_edge1_Node000001_Node000002"><a xlink:title=" ">
<path fill="none" stroke="#63b8ff" d="M692.52,-81.19C559.44,-77.47 313.64,-66.18 106.88,-32 102.14,-31.22 97.23,-30.23 92.36,-29.14"/>
<polygon fill="#63b8ff" stroke="#63b8ff" points="93.19,-25.74 82.64,-26.8 91.55,-32.54 93.19,-25.74"/>
</a>
</g>
</g>
<!-- Node3 -->
<g id="Node000003" class="node">
<title>Node3</title>
<g id="a_Node000003"><a xlink:title=" ">
<polygon fill="#e0e0e0" stroke="#999999" points="218,-26 115.75,-26 115.75,-6 218,-6 218,-26"/>
<text text-anchor="middle" x="166.88" y="-12.5" font-family="Helvetica,sans-Serif" font-size="10.00">java.awt.Dimension</text>
</a>
</g>
</g>
<!-- Node1&#45;&gt;Node3 -->
<g id="edge2_Node000001_Node000003" class="edge">
<title>Node1&#45;&gt;Node3</title>
<g id="a_edge2_Node000001_Node000003"><a xlink:title=" ">
<path fill="none" stroke="#63b8ff" d="M692.66,-78.76C579.96,-72.8 388.96,-59.43 226.88,-32 221.98,-31.17 216.89,-30.15 211.85,-29.04"/>
<polygon fill="#63b8ff" stroke="#63b8ff" points="212.96,-25.7 202.42,-26.83 211.36,-32.52 212.96,-25.7"/>
</a>
</g>
</g>
<!-- Node4 -->
<g id="Node000004" class="node">
<title>Node4</title>
<g id="a_Node000004"><a xlink:title=" ">
<polygon fill="#e0e0e0" stroke="#999999" points="343.62,-26 236.12,-26 236.12,-6 343.62,-6 343.62,-26"/>
<text text-anchor="middle" x="289.88" y="-12.5" font-family="Helvetica,sans-Serif" font-size="10.00">java.awt.Graphics2D</text>
</a>
</g>
</g>
<!-- Node1&#45;&gt;Node4 -->
<g id="edge3_Node000001_Node000004" class="edge">
<title>Node1&#45;&gt;Node4</title>
<g id="a_edge3_Node000001_Node000004"><a xlink:title=" ">
<path fill="none" stroke="#63b8ff" d="M692.82,-75.11C603.74,-67.06 468.31,-52.78 351.88,-32 346.96,-31.12 341.85,-30.09 336.77,-28.98"/>
<polygon fill="#63b8ff" stroke="#63b8ff" points="337.79,-25.62 327.26,-26.81 336.23,-32.45 337.79,-25.62"/>
</a>
</g>
</g>
<!-- Node5 -->
<g id="Node000005" class="node">
<title>Node5</title>
<g id="a_Node000005"><a xlink:title=" ">
<polygon fill="#e0e0e0" stroke="#999999" points="484.5,-26 361.25,-26 361.25,-6 484.5,-6 484.5,-26"/>
<text text-anchor="middle" x="422.88" y="-12.5" font-family="Helvetica,sans-Serif" font-size="10.00">java.awt.RenderingHints</text>
</a>
</g>
</g>
<!-- Node1&#45;&gt;Node5 -->
<g id="edge4_Node000001_Node000005" class="edge">
<title>Node1&#45;&gt;Node5</title>
<g id="a_edge4_Node000001_Node000005"><a xlink:title=" ">
<path fill="none" stroke="#63b8ff" d="M694.73,-67.54C636.61,-57.87 560.84,-44.84 493.88,-32 488.59,-30.99 483.08,-29.89 477.59,-28.77"/>
<polygon fill="#63b8ff" stroke="#63b8ff" points="478.36,-25.36 467.86,-26.77 476.95,-32.22 478.36,-25.36"/>
</a>
</g>
</g>
<!-- Node6 -->
<g id="Node000006" class="node">
<title>Node6</title>
<g id="a_Node000006"><a xlink:title=" ">
<polygon fill="#e0e0e0" stroke="#999999" points="650.88,-26 502.88,-26 502.88,-6 650.88,-6 650.88,-26"/>
<text text-anchor="middle" x="576.88" y="-12.5" font-family="Helvetica,sans-Serif" font-size="10.00">java.awt.image.BufferedImage</text>
</a>
</g>
</g>
<!-- Node1&#45;&gt;Node6 -->
<g id="edge5_Node000001_Node000006" class="edge">
<title>Node1&#45;&gt;Node6</title>
<g id="a_edge5_Node000001_Node000006"><a xlink:title=" ">
<path fill="none" stroke="#63b8ff" d="M739.94,-67.53C702.88,-56.04 652.95,-40.57 618.14,-29.79"/>
<polygon fill="#63b8ff" stroke="#63b8ff" points="619.44,-26.52 608.85,-26.91 617.37,-33.21 619.44,-26.52"/>
</a>
</g>
</g>
<!-- Node7 -->
<g id="Node000007" class="node">
<title>Node7</title>
<g id="a_Node000007"><a xlink:title=" ">
<polygon fill="#e0e0e0" stroke="#999999" points="785.12,-26 668.62,-26 668.62,-6 785.12,-6 785.12,-26"/>
<text text-anchor="middle" x="726.88" y="-12.5" font-family="Helvetica,sans-Serif" font-size="10.00">javax.swing.ImageIcon</text>
</a>
</g>
</g>
<!-- Node1&#45;&gt;Node7 -->
<g id="edge6_Node000001_Node000007" class="edge">
<title>Node1&#45;&gt;Node7</title>
<g id="a_edge6_Node000001_Node000007"><a xlink:title=" ">
<path fill="none" stroke="#63b8ff" d="M775.26,-67.69C765.82,-57.8 753.49,-44.89 743.65,-34.57"/>
<polygon fill="#63b8ff" stroke="#63b8ff" points="746.25,-32.23 736.81,-27.41 741.19,-37.06 746.25,-32.23"/>
</a>
</g>
</g>
<!-- Node8 -->
<g id="Node000008" class="node">
<title>Node8</title>
<g id="a_Node000008"><a xlink:title=" ">
<polygon fill="#e0e0e0" stroke="#999999" points="902.5,-26 803.25,-26 803.25,-6 902.5,-6 902.5,-26"/>
<text text-anchor="middle" x="852.88" y="-12.5" font-family="Helvetica,sans-Serif" font-size="10.00">javax.swing.JLabel</text>
</a>
</g>
</g>
<!-- Node1&#45;&gt;Node8 -->
<g id="edge7_Node000001_Node000008" class="edge">
<title>Node1&#45;&gt;Node8</title>
<g id="a_edge7_Node000001_Node000008"><a xlink:title=" ">
<path fill="none" stroke="#63b8ff" d="M804.49,-67.69C813.93,-57.8 826.26,-44.89 836.1,-34.57"/>
<polygon fill="#63b8ff" stroke="#63b8ff" points="838.56,-37.06 842.94,-27.41 833.5,-32.23 838.56,-37.06"/>
</a>
</g>
</g>
<!-- Node9 -->
<g id="Node000009" class="node">
<title>Node9</title>
<g id="a_Node000009"><a xlink:title=" ">
<polygon fill="#e0e0e0" stroke="#999999" points="1050.88,-26 920.88,-26 920.88,-6 1050.88,-6 1050.88,-26"/>
<text text-anchor="middle" x="985.88" y="-12.5" font-family="Helvetica,sans-Serif" font-size="10.00">javax.swing.JProgressBar</text>
</a>
</g>
</g>
<!-- Node1&#45;&gt;Node9 -->
<g id="edge8_Node000001_Node000009" class="edge">
<title>Node1&#45;&gt;Node9</title>
<g id="a_edge8_Node000001_Node000009"><a xlink:title=" ">
<path fill="none" stroke="#63b8ff" d="M835.83,-67.53C869.63,-56.14 915.08,-40.84 947.07,-30.07"/>
<polygon fill="#63b8ff" stroke="#63b8ff" points="947.99,-33.45 956.35,-26.94 945.75,-26.82 947.99,-33.45"/>
</a>
</g>
</g>
<!-- Node10 -->
<g id="Node000010" class="node">
<title>Node10</title>
<g id="a_Node000010"><a xlink:title=" ">
<polygon fill="#e0e0e0" stroke="#999999" points="1197.12,-26 1068.62,-26 1068.62,-6 1197.12,-6 1197.12,-26"/>
<text text-anchor="middle" x="1132.88" y="-12.5" font-family="Helvetica,sans-Serif" font-size="10.00">javax.swing.SwingWorker</text>
</a>
</g>
</g>
<!-- Node1&#45;&gt;Node10 -->
<g id="edge9_Node000001_Node000010" class="edge">
<title>Node1&#45;&gt;Node10</title>
<g id="a_edge9_Node000001_Node000010"><a xlink:title=" ">
<path fill="none" stroke="#63b8ff" d="M873.56,-67.55C926.92,-57.61 997.51,-44.3 1059.88,-32 1065.15,-30.96 1070.64,-29.86 1076.13,-28.75"/>
<polygon fill="#63b8ff" stroke="#63b8ff" points="1076.75,-32.2 1085.85,-26.78 1075.36,-25.34 1076.75,-32.2"/>
</a>
</g>
</g>
<!-- Node11 -->
<g id="Node000011" class="node">
<title>Node11</title>
<g id="a_Node000011"><a xlink:title=" ">
<polygon fill="#e0e0e0" stroke="#999999" points="1336.75,-32 1215,-32 1215,0 1336.75,0 1336.75,-32"/>
<text text-anchor="start" x="1223" y="-18.5" font-family="Helvetica,sans-Serif" font-size="10.00">fr.softsf.canscan.model.</text>
<text text-anchor="middle" x="1275.88" y="-6.5" font-family="Helvetica,sans-Serif" font-size="10.00">QrInput</text>
</a>
</g>
</g>
<!-- Node1&#45;&gt;Node11 -->
<g id="edge10_Node000001_Node000011" class="edge">
<title>Node1&#45;&gt;Node11</title>
<g id="a_edge10_Node000001_Node000011"><a xlink:title=" ">
<path fill="none" stroke="#63b8ff" d="M886.89,-73.58C968.79,-65.06 1089.35,-51.18 1203.8,-32.26"/>
<polygon fill="#63b8ff" stroke="#63b8ff" points="1204.07,-35.76 1213.36,-30.66 1202.92,-28.86 1204.07,-35.76"/>
</a>
</g>
</g>
<!-- Node12 -->
<g id="Node000012" class="node">
<title>Node12</title>
<g id="a_Node000012"><a xlink:title=" ">
<polygon fill="#e0e0e0" stroke="#999999" points="1511,-32 1354.75,-32 1354.75,0 1511,0 1511,-32"/>
<text text-anchor="start" x="1362.75" y="-18.5" font-family="Helvetica,sans-Serif" font-size="10.00">fr.softsf.canscan.service.</text>
<text text-anchor="middle" x="1432.88" y="-6.5" font-family="Helvetica,sans-Serif" font-size="10.00">AbstractDynamicQrCodeWorker</text>
</a>
</g>
</g>
<!-- Node1&#45;&gt;Node12 -->
<g id="edge11_Node000001_Node000012" class="edge">
<title>Node1&#45;&gt;Node12</title>
<g id="a_edge11_Node000001_Node000012"><a xlink:title=" ">
<path fill="none" stroke="#63b8ff" d="M887.06,-76.43C995.85,-68.54 1177.61,-53.78 1343.75,-32.22"/>
<polygon fill="#63b8ff" stroke="#63b8ff" points="1343.7,-35.75 1353.16,-30.98 1342.79,-28.81 1343.7,-35.75"/>
</a>
</g>
</g>
<!-- Node13 -->
<g id="Node000013" class="node">
<title>Node13</title>
<g id="a_Node000013"><a xlink:title=" ">
<polygon fill="#e0e0e0" stroke="#999999" points="1648.62,-32 1529.12,-32 1529.12,0 1648.62,0 1648.62,-32"/>
<text text-anchor="start" x="1537.12" y="-18.5" font-family="Helvetica,sans-Serif" font-size="10.00">fr.softsf.canscan.util.Int</text>
<text text-anchor="middle" x="1588.88" y="-6.5" font-family="Helvetica,sans-Serif" font-size="10.00">Constants</text>
</a>
</g>
</g>
<!-- Node1&#45;&gt;Node13 -->
<g id="edge12_Node000001_Node000013" class="edge">
<title>Node1&#45;&gt;Node13</title>
<g id="a_edge12_Node000001_Node000013"><a xlink:title=" ">
<path fill="none" stroke="#63b8ff" d="M887.17,-80.66C1025.28,-76.35 1286.17,-64.55 1517.42,-32.21"/>
<polygon fill="#63b8ff" stroke="#63b8ff" points="1517.85,-35.68 1527.26,-30.82 1516.87,-28.75 1517.85,-35.68"/>
</a>
</g>
</g>
</g>
</svg>
