<?xml version="1.0" encoding="UTF-8" standalone="no"?>
<!DOCTYPE svg PUBLIC "-//W3C//DTD SVG 1.1//EN"
 "http://www.w3.org/Graphics/SVG/1.1/DTD/svg11.dtd">
<!-- Generated by graphviz version 12.2.1 (20241206.2353)
 -->
<!-- Title: src/main/java/fr/softsf/canscan/ui/FlatLafDatePicker.java Pages: 1 -->
<svg width="916pt" height="108pt"
 viewBox="0.00 0.00 916.38 108.00" xmlns="http://www.w3.org/2000/svg" xmlns:xlink="http://www.w3.org/1999/xlink">
<g id="graph0" class="graph" transform="scale(1 1) rotate(0) translate(4 104)">
<title>src/main/java/fr/softsf/canscan/ui/FlatLafDatePicker.java</title>
<!-- Node1 -->
<g id="Node000001" class="node">
<title>Node1</title>
<g id="a_Node000001"><a xlink:title=" ">
<polygon fill="#999999" stroke="#666666" points="439.62,-100 270.62,-100 270.62,-68 439.62,-68 439.62,-100"/>
<text text-anchor="start" x="278.62" y="-86.5" font-family="Helvetica,sans-Serif" font-size="10.00">src/main/java/fr/softsf</text>
<text text-anchor="middle" x="355.12" y="-74.5" font-family="Helvetica,sans-Serif" font-size="10.00">/canscan/ui/FlatLafDatePicker.java</text>
</a>
</g>
</g>
<!-- Node2 -->
<g id="Node000002" class="node">
<title>Node2</title>
<g id="a_Node000002"><a xlink:title=" ">
<polygon fill="#e0e0e0" stroke="#999999" points="102.25,-26 0,-26 0,-6 102.25,-6 102.25,-26"/>
<text text-anchor="middle" x="51.12" y="-12.5" font-family="Helvetica,sans-Serif" font-size="10.00">java.awt.Dimension</text>
</a>
</g>
</g>
<!-- Node1&#45;&gt;Node2 -->
<g id="edge1_Node000001_Node000002" class="edge">
<title>Node1&#45;&gt;Node2</title>
<g id="a_edge1_Node000001_Node000002"><a xlink:title=" ">
<path fill="none" stroke="#63b8ff" d="M277.21,-67.52C229.22,-57.78 166.49,-44.7 111.12,-32 107.12,-31.08 102.98,-30.1 98.82,-29.1"/>
<polygon fill="#63b8ff" stroke="#63b8ff" points="99.89,-25.76 89.35,-26.79 98.23,-32.56 99.89,-25.76"/>
</a>
</g>
</g>
<!-- Node3 -->
<g id="Node000003" class="node">
<title>Node3</title>
<g id="a_Node000003"><a xlink:title=" ">
<polygon fill="#e0e0e0" stroke="#999999" points="212,-26 120.25,-26 120.25,-6 212,-6 212,-26"/>
<text text-anchor="middle" x="166.12" y="-12.5" font-family="Helvetica,sans-Serif" font-size="10.00">java.util.ArrayList</text>
</a>
</g>
</g>
<!-- Node1&#45;&gt;Node3 -->
<g id="edge2_Node000001_Node000003" class="edge">
<title>Node1&#45;&gt;Node3</title>
<g id="a_edge2_Node000001_Node000003"><a xlink:title=" ">
<path fill="none" stroke="#63b8ff" d="M310.81,-67.53C278.36,-56.19 234.77,-40.97 203.95,-30.21"/>
<polygon fill="#63b8ff" stroke="#63b8ff" points="205.24,-26.95 194.64,-26.96 202.93,-33.56 205.24,-26.95"/>
</a>
</g>
</g>
<!-- Node4 -->
<g id="Node000004" class="node">
<title>Node4</title>
<g id="a_Node000004"><a xlink:title=" ">
<polygon fill="#e0e0e0" stroke="#999999" points="346,-26 230.25,-26 230.25,-6 346,-6 346,-26"/>
<text text-anchor="middle" x="288.12" y="-12.5" font-family="Helvetica,sans-Serif" font-size="10.00">javax.swing.JTextField</text>
</a>
</g>
</g>
<!-- Node1&#45;&gt;Node4 -->
<g id="edge3_Node000001_Node000004" class="edge">
<title>Node1&#45;&gt;Node4</title>
<g id="a_edge3_Node000001_Node000004"><a xlink:title=" ">
<path fill="none" stroke="#63b8ff" d="M339.59,-67.69C329.44,-57.7 316.17,-44.63 305.65,-34.26"/>
<polygon fill="#63b8ff" stroke="#63b8ff" points="308.24,-31.9 298.66,-27.38 303.33,-36.89 308.24,-31.9"/>
</a>
</g>
</g>
<!-- Node5 -->
<g id="Node000005" class="node">
<title>Node5</title>
<g id="a_Node000005"><a xlink:title=" ">
<polygon fill="#e0e0e0" stroke="#999999" points="482.5,-26 363.75,-26 363.75,-6 482.5,-6 482.5,-26"/>
<text text-anchor="middle" x="423.12" y="-12.5" font-family="Helvetica,sans-Serif" font-size="10.00">javax.swing.UIManager</text>
</a>
</g>
</g>
<!-- Node1&#45;&gt;Node5 -->
<g id="edge4_Node000001_Node000005" class="edge">
<title>Node1&#45;&gt;Node5</title>
<g id="a_edge4_Node000001_Node000005"><a xlink:title=" ">
<path fill="none" stroke="#63b8ff" d="M370.9,-67.69C381.2,-57.7 394.66,-44.63 405.34,-34.26"/>
<polygon fill="#63b8ff" stroke="#63b8ff" points="407.7,-36.85 412.44,-27.37 402.83,-31.82 407.7,-36.85"/>
</a>
</g>
</g>
<!-- Node6 -->
<g id="Node000006" class="node">
<title>Node6</title>
<g id="a_Node000006"><a xlink:title=" ">
<polygon fill="#e0e0e0" stroke="#999999" points="695.38,-32 500.88,-32 500.88,0 695.38,0 695.38,-32"/>
<text text-anchor="start" x="508.88" y="-18.5" font-family="Helvetica,sans-Serif" font-size="10.00">com.github.lgooddatepicker.components.</text>
<text text-anchor="middle" x="598.12" y="-6.5" font-family="Helvetica,sans-Serif" font-size="10.00">DatePicker</text>
</a>
</g>
</g>
<!-- Node1&#45;&gt;Node6 -->
<g id="edge5_Node000001_Node000006" class="edge">
<title>Node1&#45;&gt;Node6</title>
<g id="a_edge5_Node000001_Node000006"><a xlink:title=" ">
<path fill="none" stroke="#63b8ff" d="M412.1,-67.53C447.46,-57.92 493.11,-45.52 530.33,-35.41"/>
<polygon fill="#63b8ff" stroke="#63b8ff" points="530.9,-38.89 539.63,-32.89 529.06,-32.13 530.9,-38.89"/>
</a>
</g>
</g>
<!-- Node7 -->
<g id="Node000007" class="node">
<title>Node7</title>
<g id="a_Node000007"><a xlink:title=" ">
<polygon fill="#e0e0e0" stroke="#999999" points="908.38,-32 713.88,-32 713.88,0 908.38,0 908.38,-32"/>
<text text-anchor="start" x="721.88" y="-18.5" font-family="Helvetica,sans-Serif" font-size="10.00">com.github.lgooddatepicker.components.</text>
<text text-anchor="middle" x="811.12" y="-6.5" font-family="Helvetica,sans-Serif" font-size="10.00">DatePickerSettings</text>
</a>
</g>
</g>
<!-- Node1&#45;&gt;Node7 -->
<g id="edge6_Node000001_Node000007" class="edge">
<title>Node1&#45;&gt;Node7</title>
<g id="a_edge6_Node000001_Node000007"><a xlink:title=" ">
<path fill="none" stroke="#63b8ff" d="M440.09,-70.7C514.17,-59.98 622.03,-44.37 702.39,-32.74"/>
<polygon fill="#63b8ff" stroke="#63b8ff" points="702.64,-36.24 712.04,-31.34 701.64,-29.31 702.64,-36.24"/>
</a>
</g>
</g>
</g>
</svg>
