<?xml version="1.0" encoding="UTF-8" standalone="no"?>
<!DOCTYPE svg PUBLIC "-//W3C//DTD SVG 1.1//EN"
 "http://www.w3.org/Graphics/SVG/1.1/DTD/svg11.dtd">
<!-- Generated by graphviz version 12.2.1 (20241206.2353)
 -->
<!-- Title: src/main/java/fr/softsf/canscan/ui/FlatLafTimePicker.java Pages: 1 -->
<svg width="806pt" height="108pt"
 viewBox="0.00 0.00 806.38 108.00" xmlns="http://www.w3.org/2000/svg" xmlns:xlink="http://www.w3.org/1999/xlink">
<g id="graph0" class="graph" transform="scale(1 1) rotate(0) translate(4 104)">
<title>src/main/java/fr/softsf/canscan/ui/FlatLafTimePicker.java</title>
<!-- Node1 -->
<g id="Node000001" class="node">
<title>Node1</title>
<g id="a_Node000001"><a xlink:title=" ">
<polygon fill="#999999" stroke="#666666" points="398,-100 228.25,-100 228.25,-68 398,-68 398,-100"/>
<text text-anchor="start" x="236.25" y="-86.5" font-family="Helvetica,sans-Serif" font-size="10.00">src/main/java/fr/softsf</text>
<text text-anchor="middle" x="313.12" y="-74.5" font-family="Helvetica,sans-Serif" font-size="10.00">/canscan/ui/FlatLafTimePicker.java</text>
</a>
</g>
</g>
<!-- Node2 -->
<g id="Node000002" class="node">
<title>Node2</title>
<g id="a_Node000002"><a xlink:title=" ">
<polygon fill="#e0e0e0" stroke="#999999" points="102.25,-26 0,-26 0,-6 102.25,-6 102.25,-26"/>
<text text-anchor="middle" x="51.12" y="-12.5" font-family="Helvetica,sans-Serif" font-size="10.00">java.awt.Dimension</text>
</a>
</g>
</g>
<!-- Node1&#45;&gt;Node2 -->
<g id="edge1_Node000001_Node000002" class="edge">
<title>Node1&#45;&gt;Node2</title>
<g id="a_edge1_Node000001_Node000002"><a xlink:title=" ">
<path fill="none" stroke="#63b8ff" d="M251.7,-67.53C205.32,-55.84 142.57,-40.03 99.67,-29.23"/>
<polygon fill="#63b8ff" stroke="#63b8ff" points="100.7,-25.88 90.15,-26.83 98.99,-32.67 100.7,-25.88"/>
</a>
</g>
</g>
<!-- Node3 -->
<g id="Node000003" class="node">
<title>Node3</title>
<g id="a_Node000003"><a xlink:title=" ">
<polygon fill="#e0e0e0" stroke="#999999" points="236,-26 120.25,-26 120.25,-6 236,-6 236,-26"/>
<text text-anchor="middle" x="178.12" y="-12.5" font-family="Helvetica,sans-Serif" font-size="10.00">javax.swing.JTextField</text>
</a>
</g>
</g>
<!-- Node1&#45;&gt;Node3 -->
<g id="edge2_Node000001_Node000003" class="edge">
<title>Node1&#45;&gt;Node3</title>
<g id="a_edge2_Node000001_Node000003"><a xlink:title=" ">
<path fill="none" stroke="#63b8ff" d="M281.47,-67.53C259.21,-56.64 229.61,-42.17 207.79,-31.5"/>
<polygon fill="#63b8ff" stroke="#63b8ff" points="209.36,-28.37 198.83,-27.12 206.28,-34.66 209.36,-28.37"/>
</a>
</g>
</g>
<!-- Node4 -->
<g id="Node000004" class="node">
<title>Node4</title>
<g id="a_Node000004"><a xlink:title=" ">
<polygon fill="#e0e0e0" stroke="#999999" points="372.5,-26 253.75,-26 253.75,-6 372.5,-6 372.5,-26"/>
<text text-anchor="middle" x="313.12" y="-12.5" font-family="Helvetica,sans-Serif" font-size="10.00">javax.swing.UIManager</text>
</a>
</g>
</g>
<!-- Node1&#45;&gt;Node4 -->
<g id="edge3_Node000001_Node000004" class="edge">
<title>Node1&#45;&gt;Node4</title>
<g id="a_edge3_Node000001_Node000004"><a xlink:title=" ">
<path fill="none" stroke="#63b8ff" d="M313.12,-67.69C313.12,-58.8 313.12,-47.46 313.12,-37.77"/>
<polygon fill="#63b8ff" stroke="#63b8ff" points="316.63,-37.83 313.13,-27.83 309.63,-37.83 316.63,-37.83"/>
</a>
</g>
</g>
<!-- Node5 -->
<g id="Node000005" class="node">
<title>Node5</title>
<g id="a_Node000005"><a xlink:title=" ">
<polygon fill="#e0e0e0" stroke="#999999" points="585.38,-32 390.88,-32 390.88,0 585.38,0 585.38,-32"/>
<text text-anchor="start" x="398.88" y="-18.5" font-family="Helvetica,sans-Serif" font-size="10.00">com.github.lgooddatepicker.components.</text>
<text text-anchor="middle" x="488.12" y="-6.5" font-family="Helvetica,sans-Serif" font-size="10.00">TimePicker</text>
</a>
</g>
</g>
<!-- Node1&#45;&gt;Node5 -->
<g id="edge4_Node000001_Node000005" class="edge">
<title>Node1&#45;&gt;Node5</title>
<g id="a_edge4_Node000001_Node000005"><a xlink:title=" ">
<path fill="none" stroke="#63b8ff" d="M354.15,-67.53C378.75,-58.25 410.25,-46.37 436.52,-36.46"/>
<polygon fill="#63b8ff" stroke="#63b8ff" points="437.51,-39.83 445.63,-33.03 435.04,-33.28 437.51,-39.83"/>
</a>
</g>
</g>
<!-- Node6 -->
<g id="Node000006" class="node">
<title>Node6</title>
<g id="a_Node000006"><a xlink:title=" ">
<polygon fill="#e0e0e0" stroke="#999999" points="798.38,-32 603.88,-32 603.88,0 798.38,0 798.38,-32"/>
<text text-anchor="start" x="611.88" y="-18.5" font-family="Helvetica,sans-Serif" font-size="10.00">com.github.lgooddatepicker.components.</text>
<text text-anchor="middle" x="701.12" y="-6.5" font-family="Helvetica,sans-Serif" font-size="10.00">TimePickerSettings</text>
</a>
</g>
</g>
<!-- Node1&#45;&gt;Node6 -->
<g id="edge5_Node000001_Node000006" class="edge">
<title>Node1&#45;&gt;Node6</title>
<g id="a_edge5_Node000001_Node000006"><a xlink:title=" ">
<path fill="none" stroke="#63b8ff" d="M398.27,-68.52C457.41,-58.46 536.49,-45 599.01,-34.37"/>
<polygon fill="#63b8ff" stroke="#63b8ff" points="599.33,-37.87 608.6,-32.74 598.15,-30.97 599.33,-37.87"/>
</a>
</g>
</g>
</g>
</svg>
