<?xml version="1.0" encoding="UTF-8" standalone="no"?>
<!DOCTYPE svg PUBLIC "-//W3C//DTD SVG 1.1//EN"
 "http://www.w3.org/Graphics/SVG/1.1/DTD/svg11.dtd">
<!-- Generated by graphviz version 12.2.1 (20241206.2353)
 -->
<!-- Title: src/main/java/fr/softsf/canscan/service/GenerateAndSaveService.java Pages: 1 -->
<svg width="1695pt" height="120pt"
 viewBox="0.00 0.00 1694.88 120.00" xmlns="http://www.w3.org/2000/svg" xmlns:xlink="http://www.w3.org/1999/xlink">
<g id="graph0" class="graph" transform="scale(1 1) rotate(0) translate(4 116)">
<title>src/main/java/fr/softsf/canscan/service/GenerateAndSaveService.java</title>
<!-- Node1 -->
<g id="Node000001" class="node">
<title>Node1</title>
<g id="a_Node000001"><a xlink:title=" ">
<polygon fill="#999999" stroke="#666666" points="857.12,-112 706.88,-112 706.88,-68 857.12,-68 857.12,-112"/>
<text text-anchor="start" x="714.88" y="-98.5" font-family="Helvetica,sans-Serif" font-size="10.00">src/main/java/fr/softsf</text>
<text text-anchor="start" x="714.88" y="-86.5" font-family="Helvetica,sans-Serif" font-size="10.00">/canscan/service/GenerateAnd</text>
<text text-anchor="middle" x="782" y="-74.5" font-family="Helvetica,sans-Serif" font-size="10.00">SaveService.java</text>
</a>
</g>
</g>
<!-- Node2 -->
<g id="Node000002" class="node">
<title>Node2</title>
<g id="a_Node000002"><a xlink:title=" ">
<polygon fill="#e0e0e0" stroke="#999999" points="148,-26 0,-26 0,-6 148,-6 148,-26"/>
<text text-anchor="middle" x="74" y="-12.5" font-family="Helvetica,sans-Serif" font-size="10.00">java.awt.image.BufferedImage</text>
</a>
</g>
</g>
<!-- Node1&#45;&gt;Node2 -->
<g id="edge1_Node000001_Node000002" class="edge">
<title>Node1&#45;&gt;Node2</title>
<g id="a_edge1_Node000001_Node000002"><a xlink:title=" ">
<path fill="none" stroke="#63b8ff" d="M706.72,-84.28C589.06,-76.42 354.58,-58.81 157,-32 149.31,-30.96 141.24,-29.7 133.29,-28.37"/>
<polygon fill="#63b8ff" stroke="#63b8ff" points="134.11,-24.96 123.66,-26.7 132.91,-31.86 134.11,-24.96"/>
</a>
</g>
</g>
<!-- Node3 -->
<g id="Node000003" class="node">
<title>Node3</title>
<g id="a_Node000003"><a xlink:title=" ">
<polygon fill="#e0e0e0" stroke="#999999" points="229.62,-26 166.38,-26 166.38,-6 229.62,-6 229.62,-26"/>
<text text-anchor="middle" x="198" y="-12.5" font-family="Helvetica,sans-Serif" font-size="10.00">java.io.File</text>
</a>
</g>
</g>
<!-- Node1&#45;&gt;Node3 -->
<g id="edge2_Node000001_Node000003" class="edge">
<title>Node1&#45;&gt;Node3</title>
<g id="a_edge2_Node000001_Node000003"><a xlink:title=" ">
<path fill="none" stroke="#63b8ff" d="M706.38,-86.92C600.57,-82.69 402.91,-69.97 239,-32 236.54,-31.43 234.03,-30.75 231.51,-30.01"/>
<polygon fill="#63b8ff" stroke="#63b8ff" points="232.71,-26.72 222.12,-26.9 230.51,-33.37 232.71,-26.72"/>
</a>
</g>
</g>
<!-- Node4 -->
<g id="Node000004" class="node">
<title>Node4</title>
<g id="a_Node000004"><a xlink:title=" ">
<polygon fill="#e0e0e0" stroke="#999999" points="334.25,-26 247.75,-26 247.75,-6 334.25,-6 334.25,-26"/>
<text text-anchor="middle" x="291" y="-12.5" font-family="Helvetica,sans-Serif" font-size="10.00">java.util.Objects</text>
</a>
</g>
</g>
<!-- Node1&#45;&gt;Node4 -->
<g id="edge3_Node000001_Node000004" class="edge">
<title>Node1&#45;&gt;Node4</title>
<g id="a_edge3_Node000001_Node000004"><a xlink:title=" ">
<path fill="none" stroke="#63b8ff" d="M706.66,-82.58C618.94,-74.32 470,-57.88 344,-32 340.23,-31.23 336.34,-30.33 332.46,-29.36"/>
<polygon fill="#63b8ff" stroke="#63b8ff" points="333.67,-26.06 323.1,-26.88 331.88,-32.82 333.67,-26.06"/>
</a>
</g>
</g>
<!-- Node5 -->
<g id="Node000005" class="node">
<title>Node5</title>
<g id="a_Node000005"><a xlink:title=" ">
<polygon fill="#e0e0e0" stroke="#999999" points="481.25,-26 352.75,-26 352.75,-6 481.25,-6 481.25,-26"/>
<text text-anchor="middle" x="417" y="-12.5" font-family="Helvetica,sans-Serif" font-size="10.00">javax.swing.JFileChooser</text>
</a>
</g>
</g>
<!-- Node1&#45;&gt;Node5 -->
<g id="edge4_Node000001_Node000005" class="edge">
<title>Node1&#45;&gt;Node5</title>
<g id="a_edge4_Node000001_Node000005"><a xlink:title=" ">
<path fill="none" stroke="#63b8ff" d="M706.64,-74.5C647.65,-63.1 563.56,-46.74 490,-32 484.73,-30.94 479.24,-29.83 473.75,-28.72"/>
<polygon fill="#63b8ff" stroke="#63b8ff" points="474.53,-25.3 464.03,-26.73 473.13,-32.16 474.53,-25.3"/>
</a>
</g>
</g>
<!-- Node6 -->
<g id="Node000006" class="node">
<title>Node6</title>
<g id="a_Node000006"><a xlink:title=" ">
<polygon fill="#e0e0e0" stroke="#999999" points="629,-26 499,-26 499,-6 629,-6 629,-26"/>
<text text-anchor="middle" x="564" y="-12.5" font-family="Helvetica,sans-Serif" font-size="10.00">javax.swing.JProgressBar</text>
</a>
</g>
</g>
<!-- Node1&#45;&gt;Node6 -->
<g id="edge5_Node000001_Node000006" class="edge">
<title>Node1&#45;&gt;Node6</title>
<g id="a_edge5_Node000001_Node000006"><a xlink:title=" ">
<path fill="none" stroke="#63b8ff" d="M717.18,-67.59C680.13,-55.36 634.89,-40.41 603.21,-29.95"/>
<polygon fill="#63b8ff" stroke="#63b8ff" points="604.64,-26.74 594.04,-26.92 602.44,-33.38 604.64,-26.74"/>
</a>
</g>
</g>
<!-- Node7 -->
<g id="Node000007" class="node">
<title>Node7</title>
<g id="a_Node000007"><a xlink:title=" ">
<polygon fill="#e0e0e0" stroke="#999999" points="775.25,-26 646.75,-26 646.75,-6 775.25,-6 775.25,-26"/>
<text text-anchor="middle" x="711" y="-12.5" font-family="Helvetica,sans-Serif" font-size="10.00">javax.swing.SwingWorker</text>
</a>
</g>
</g>
<!-- Node1&#45;&gt;Node7 -->
<g id="edge6_Node000001_Node000007" class="edge">
<title>Node1&#45;&gt;Node7</title>
<g id="a_edge6_Node000001_Node000007"><a xlink:title=" ">
<path fill="none" stroke="#63b8ff" d="M761.08,-67.79C750.58,-57.14 738.01,-44.39 728.1,-34.34"/>
<polygon fill="#63b8ff" stroke="#63b8ff" points="730.76,-32.05 721.24,-27.39 725.77,-36.97 730.76,-32.05"/>
</a>
</g>
</g>
<!-- Node8 -->
<g id="Node000008" class="node">
<title>Node8</title>
<g id="a_Node000008"><a xlink:title=" ">
<polygon fill="#e0e0e0" stroke="#999999" points="914.88,-32 793.12,-32 793.12,0 914.88,0 914.88,-32"/>
<text text-anchor="start" x="801.12" y="-18.5" font-family="Helvetica,sans-Serif" font-size="10.00">fr.softsf.canscan.model.</text>
<text text-anchor="middle" x="854" y="-6.5" font-family="Helvetica,sans-Serif" font-size="10.00">QrConfig</text>
</a>
</g>
</g>
<!-- Node1&#45;&gt;Node8 -->
<g id="edge7_Node000001_Node000008" class="edge">
<title>Node1&#45;&gt;Node8</title>
<g id="a_edge7_Node000001_Node000008"><a xlink:title=" ">
<path fill="none" stroke="#63b8ff" d="M803.21,-67.79C811.89,-59.11 821.95,-49.05 830.82,-40.18"/>
<polygon fill="#63b8ff" stroke="#63b8ff" points="833.21,-42.74 837.8,-33.2 828.26,-37.79 833.21,-42.74"/>
</a>
</g>
</g>
<!-- Node9 -->
<g id="Node000009" class="node">
<title>Node9</title>
<g id="a_Node000009"><a xlink:title=" ">
<polygon fill="#e0e0e0" stroke="#999999" points="1054.88,-32 933.12,-32 933.12,0 1054.88,0 1054.88,-32"/>
<text text-anchor="start" x="941.12" y="-18.5" font-family="Helvetica,sans-Serif" font-size="10.00">fr.softsf.canscan.model.</text>
<text text-anchor="middle" x="994" y="-6.5" font-family="Helvetica,sans-Serif" font-size="10.00">QrDataResult</text>
</a>
</g>
</g>
<!-- Node1&#45;&gt;Node9 -->
<g id="edge8_Node000001_Node000009" class="edge">
<title>Node1&#45;&gt;Node9</title>
<g id="a_edge8_Node000001_Node000009"><a xlink:title=" ">
<path fill="none" stroke="#63b8ff" d="M845.03,-67.59C874.47,-57.59 909.23,-45.79 937.77,-36.1"/>
<polygon fill="#63b8ff" stroke="#63b8ff" points="938.6,-39.51 946.94,-32.98 936.35,-32.88 938.6,-39.51"/>
</a>
</g>
</g>
<!-- Node10 -->
<g id="Node000010" class="node">
<title>Node10</title>
<g id="a_Node000010"><a xlink:title=" ">
<polygon fill="#e0e0e0" stroke="#999999" points="1217.12,-26 1072.88,-26 1072.88,-6 1217.12,-6 1217.12,-26"/>
<text text-anchor="middle" x="1145" y="-12.5" font-family="Helvetica,sans-Serif" font-size="10.00">fr.softsf.canscan.ui.MyPopup</text>
</a>
</g>
</g>
<!-- Node1&#45;&gt;Node10 -->
<g id="edge9_Node000001_Node000010" class="edge">
<title>Node1&#45;&gt;Node10</title>
<g id="a_edge9_Node000001_Node000010"><a xlink:title=" ">
<path fill="none" stroke="#63b8ff" d="M857.21,-74.08C925.15,-60.61 1023.76,-41.05 1086.11,-28.68"/>
<polygon fill="#63b8ff" stroke="#63b8ff" points="1086.7,-32.13 1095.83,-26.75 1085.34,-25.27 1086.7,-32.13"/>
</a>
</g>
</g>
<!-- Node11 -->
<g id="Node000011" class="node">
<title>Node11</title>
<g id="a_Node000011"><a xlink:title=" ">
<polygon fill="#e0e0e0" stroke="#999999" points="1372.38,-32 1235.62,-32 1235.62,0 1372.38,0 1372.38,-32"/>
<text text-anchor="start" x="1243.62" y="-18.5" font-family="Helvetica,sans-Serif" font-size="10.00">fr.softsf.canscan.ui.QrCode</text>
<text text-anchor="middle" x="1304" y="-6.5" font-family="Helvetica,sans-Serif" font-size="10.00">BufferedImage</text>
</a>
</g>
</g>
<!-- Node1&#45;&gt;Node11 -->
<g id="edge10_Node000001_Node000011" class="edge">
<title>Node1&#45;&gt;Node11</title>
<g id="a_edge10_Node000001_Node000011"><a xlink:title=" ">
<path fill="none" stroke="#63b8ff" d="M857.62,-80.75C943.73,-71.02 1088.87,-53.63 1223.79,-32.29"/>
<polygon fill="#63b8ff" stroke="#63b8ff" points="1224.32,-35.75 1233.64,-30.72 1223.22,-28.84 1224.32,-35.75"/>
</a>
</g>
</g>
<!-- Node12 -->
<g id="Node000012" class="node">
<title>Node12</title>
<g id="a_Node000012"><a xlink:title=" ">
<polygon fill="#e0e0e0" stroke="#999999" points="1535.5,-26 1390.5,-26 1390.5,-6 1535.5,-6 1535.5,-26"/>
<text text-anchor="middle" x="1463" y="-12.5" font-family="Helvetica,sans-Serif" font-size="10.00">fr.softsf.canscan.util.Checker</text>
</a>
</g>
</g>
<!-- Node1&#45;&gt;Node12 -->
<g id="edge11_Node000001_Node000012" class="edge">
<title>Node1&#45;&gt;Node12</title>
<g id="a_edge11_Node000001_Node000012"><a xlink:title=" ">
<path fill="none" stroke="#63b8ff" d="M857.42,-83.92C971.21,-75.77 1193.46,-58.03 1381,-32 1388.42,-30.97 1396.18,-29.74 1403.86,-28.44"/>
<polygon fill="#63b8ff" stroke="#63b8ff" points="1404.24,-31.93 1413.49,-26.76 1403.04,-25.03 1404.24,-31.93"/>
</a>
</g>
</g>
<!-- Node13 -->
<g id="Node000013" class="node">
<title>Node13</title>
<g id="a_Node000013"><a xlink:title=" ">
<polygon fill="#e0e0e0" stroke="#999999" points="1686.88,-32 1553.12,-32 1553.12,0 1686.88,0 1686.88,-32"/>
<text text-anchor="start" x="1561.12" y="-18.5" font-family="Helvetica,sans-Serif" font-size="10.00">fr.softsf.canscan.util.String</text>
<text text-anchor="middle" x="1620" y="-6.5" font-family="Helvetica,sans-Serif" font-size="10.00">Constants</text>
</a>
</g>
</g>
<!-- Node1&#45;&gt;Node13 -->
<g id="edge12_Node000001_Node000013" class="edge">
<title>Node1&#45;&gt;Node13</title>
<g id="a_edge12_Node000001_Node000013"><a xlink:title=" ">
<path fill="none" stroke="#63b8ff" d="M857.59,-86.43C992.97,-81.16 1285.87,-66.69 1541.63,-32.37"/>
<polygon fill="#63b8ff" stroke="#63b8ff" points="1542.07,-35.84 1551.51,-31.03 1541.13,-28.9 1542.07,-35.84"/>
</a>
</g>
</g>
</g>
</svg>
