<?xml version="1.0" encoding="UTF-8" standalone="no"?>
<!DOCTYPE svg PUBLIC "-//W3C//DTD SVG 1.1//EN"
 "http://www.w3.org/Graphics/SVG/1.1/DTD/svg11.dtd">
<!-- Generated by graphviz version 12.2.1 (20241206.2353)
 -->
<!-- Title: src/main/java/fr/softsf/canscan/ui/worker/GenerateAndSaveWorker.java Pages: 1 -->
<!--zoomable 120 -->

<svg id="main" version="1.1" xmlns="http://www.w3.org/2000/svg" xmlns:xlink="http://www.w3.org/1999/xlink" xml:space="preserve" onload="init(evt)">

<style type="text/css"><![CDATA[
.node, .edge {opacity: 0.7;}
.node.selected, .edge.selected {opacity: 1;}
.edge:hover path { stroke: red; }
.edge:hover polygon { stroke: red; fill: red; }
]]></style>

<defs>
  <circle id="rim" cx="0" cy="0" r="7"/>
  <circle id="rim2" cx="0" cy="0" r="3.5"/>
  <g id="zoomPlus">
    <use xlink:href="#rim" fill="#404040"><set attributeName="fill" to="#808080" begin="zoomplus.mouseover" end="zoomplus.mouseout"/></use>
    <path d="M-4,0h8M0,-4v8" fill="none" stroke="white" stroke-width="1.5" pointer-events="none"/>
  </g>
  <g id="zoomMin">
    <use xlink:href="#rim" fill="#404040"><set attributeName="fill" to="#808080" begin="zoomminus.mouseover" end="zoomminus.mouseout"/></use>
    <path d="M-4,0h8" fill="none" stroke="white" stroke-width="1.5" pointer-events="none"/>
  </g>
  <g id="arrowUp" transform="translate(30 24)">
    <use xlink:href="#rim"/>
    <path pointer-events="none" fill="none" stroke="white" stroke-width="1.5" d="M0,-3.0v7 M-2.5,-0.5L0,-3.0L2.5,-0.5"/>
  </g>
  <g id="arrowRight" transform="rotate(90) translate(36 -43)">
    <use xlink:href="#rim"/>
    <path pointer-events="none" fill="none" stroke="white" stroke-width="1.5" d="M0,-3.0v7 M-2.5,-0.5L0,-3.0L2.5,-0.5"/>
  </g>
  <g id="arrowDown" transform="rotate(180) translate(-30 -48)">
    <use xlink:href="#rim"/>
    <path pointer-events="none" fill="none" stroke="white" stroke-width="1.5" d="M0,-3.0v7 M-2.5,-0.5L0,-3.0L2.5,-0.5"/>
  </g>
  <g id="arrowLeft" transform="rotate(270) translate(-36 17)">
    <use xlink:href="#rim"/>
    <path pointer-events="none" fill="none" stroke="white" stroke-width="1.5" d="M0,-3.0v7 M-2.5,-0.5L0,-3.0L2.5,-0.5"/>
  </g>
  <g id="resetDef">
    <use xlink:href="#rim2" fill="#404040"><set attributeName="fill" to="#808080" begin="reset.mouseover" end="reset.mouseout"/></use>
  </g>
</defs>
<script type="application/ecmascript">
var viewWidth = 2732;
var viewHeight = 120;
var sectionId = 'dynsection-0';
</script>
<script type="application/ecmascript" xlink:href="svg.min.js"/>
<svg id="graph" class="graph">
<g id="viewport">
<title>src/main/java/fr/softsf/canscan/ui/worker/GenerateAndSaveWorker.java</title>
<!-- Node1 -->
<g id="Node000001" class="node">
<title>Node1</title>
<g id="a_Node000001"><a xlink:title=" ">
<polygon fill="#999999" stroke="#666666" points="1351.5,-112 1193,-112 1193,-68 1351.5,-68 1351.5,-112"/>
<text text-anchor="start" x="1201" y="-98.5" font-family="Helvetica,sans-Serif" font-size="10.00">src/main/java/fr/softsf</text>
<text text-anchor="start" x="1201" y="-86.5" font-family="Helvetica,sans-Serif" font-size="10.00">/canscan/ui/worker/GenerateAnd</text>
<text text-anchor="middle" x="1272.25" y="-74.5" font-family="Helvetica,sans-Serif" font-size="10.00">SaveWorker.java</text>
</a>
</g>
</g>
<!-- Node2 -->
<g id="Node000002" class="node">
<title>Node2</title>
<g id="a_Node000002"><a xlink:title=" ">
<polygon fill="#e0e0e0" stroke="#999999" points="140.5,-26 0,-26 0,-6 140.5,-6 140.5,-26"/>
<text text-anchor="middle" x="70.25" y="-12.5" font-family="Helvetica,sans-Serif" font-size="10.00">java.awt.HeadlessException</text>
</a>
</g>
</g>
<!-- Node1&#45;&gt;Node2 -->
<g id="edge1_Node000001_Node000002" class="edge">
<title>Node1&#45;&gt;Node2</title>
<g id="a_edge1_Node000001_Node000002"><a xlink:title=" ">
<path fill="none" stroke="#63b8ff" d="M1192.62,-88.69C1008.37,-87.17 538.61,-78.62 149.25,-32 141.52,-31.07 133.42,-29.84 125.46,-28.48"/>
<polygon fill="#63b8ff" stroke="#63b8ff" points="126.32,-25.08 115.86,-26.75 125.09,-31.97 126.32,-25.08"/>
</a>
</g>
</g>
<!-- Node3 -->
<g id="Node000003" class="node">
<title>Node3</title>
<g id="a_Node000003"><a xlink:title=" ">
<polygon fill="#e0e0e0" stroke="#999999" points="242.38,-26 158.12,-26 158.12,-6 242.38,-6 242.38,-26"/>
<text text-anchor="middle" x="200.25" y="-12.5" font-family="Helvetica,sans-Serif" font-size="10.00">java.awt.Toolkit</text>
</a>
</g>
</g>
<!-- Node1&#45;&gt;Node3 -->
<g id="edge2_Node000001_Node000003" class="edge">
<title>Node1&#45;&gt;Node3</title>
<g id="a_edge2_Node000001_Node000003"><a xlink:title=" ">
<path fill="none" stroke="#63b8ff" d="M1192.75,-86.93C985.44,-81.14 431.88,-63.18 251.25,-32 247.19,-31.3 243,-30.39 238.84,-29.36"/>
<polygon fill="#63b8ff" stroke="#63b8ff" points="240.06,-26.06 229.5,-26.83 238.23,-32.82 240.06,-26.06"/>
</a>
</g>
</g>
<!-- Node4 -->
<g id="Node000004" class="node">
<title>Node4</title>
<g id="a_Node000004"><a xlink:title=" ">
<polygon fill="#e0e0e0" stroke="#999999" points="396.25,-32 260.25,-32 260.25,0 396.25,0 396.25,-32"/>
<text text-anchor="start" x="268.25" y="-18.5" font-family="Helvetica,sans-Serif" font-size="10.00">java.awt.datatransfer.String</text>
<text text-anchor="middle" x="328.25" y="-6.5" font-family="Helvetica,sans-Serif" font-size="10.00">Selection</text>
</a>
</g>
</g>
<!-- Node1&#45;&gt;Node4 -->
<g id="edge3_Node000001_Node000004" class="edge">
<title>Node1&#45;&gt;Node4</title>
<g id="a_edge3_Node000001_Node000004"><a xlink:title=" ">
<path fill="none" stroke="#63b8ff" d="M1192.73,-87.14C1041.63,-82.87 702.53,-69.77 407.95,-32.24"/>
<polygon fill="#63b8ff" stroke="#63b8ff" points="408.48,-28.78 398.11,-30.98 407.58,-35.72 408.48,-28.78"/>
</a>
</g>
</g>
<!-- Node5 -->
<g id="Node000005" class="node">
<title>Node5</title>
<g id="a_Node000005"><a xlink:title=" ">
<polygon fill="#e0e0e0" stroke="#999999" points="562.25,-26 414.25,-26 414.25,-6 562.25,-6 562.25,-26"/>
<text text-anchor="middle" x="488.25" y="-12.5" font-family="Helvetica,sans-Serif" font-size="10.00">java.awt.image.BufferedImage</text>
</a>
</g>
</g>
<!-- Node1&#45;&gt;Node5 -->
<g id="edge4_Node000001_Node000005" class="edge">
<title>Node1&#45;&gt;Node5</title>
<g id="a_edge4_Node000001_Node000005"><a xlink:title=" ">
<path fill="none" stroke="#63b8ff" d="M1192.61,-85.06C1062.3,-78.05 795.54,-61.31 571.25,-32 563.45,-30.98 555.28,-29.73 547.22,-28.39"/>
<polygon fill="#63b8ff" stroke="#63b8ff" points="547.91,-24.95 537.46,-26.7 546.72,-31.85 547.91,-24.95"/>
</a>
</g>
</g>
<!-- Node6 -->
<g id="Node000006" class="node">
<title>Node6</title>
<g id="a_Node000006"><a xlink:title=" ">
<polygon fill="#e0e0e0" stroke="#999999" points="643.88,-26 580.62,-26 580.62,-6 643.88,-6 643.88,-26"/>
<text text-anchor="middle" x="612.25" y="-12.5" font-family="Helvetica,sans-Serif" font-size="10.00">java.io.File</text>
</a>
</g>
</g>
<!-- Node1&#45;&gt;Node6 -->
<g id="edge5_Node000001_Node000006" class="edge">
<title>Node1&#45;&gt;Node6</title>
<g id="a_edge5_Node000001_Node000006"><a xlink:title=" ">
<path fill="none" stroke="#63b8ff" d="M1192.57,-88.22C1073.71,-85.58 843.56,-74.81 653.25,-32 650.79,-31.45 648.27,-30.78 645.76,-30.05"/>
<polygon fill="#63b8ff" stroke="#63b8ff" points="646.95,-26.76 636.36,-26.95 644.76,-33.4 646.95,-26.76"/>
</a>
</g>
</g>
<!-- Node7 -->
<g id="Node000007" class="node">
<title>Node7</title>
<g id="a_Node000007"><a xlink:title=" ">
<polygon fill="#e0e0e0" stroke="#999999" points="786.25,-26 662.25,-26 662.25,-6 786.25,-6 786.25,-26"/>
<text text-anchor="middle" x="724.25" y="-12.5" font-family="Helvetica,sans-Serif" font-size="10.00">java.io.FileOutputStream</text>
</a>
</g>
</g>
<!-- Node1&#45;&gt;Node7 -->
<g id="edge6_Node000001_Node000007" class="edge">
<title>Node1&#45;&gt;Node7</title>
<g id="a_edge6_Node000001_Node000007"><a xlink:title=" ">
<path fill="none" stroke="#63b8ff" d="M1192.61,-81.68C1097.65,-72.44 934.32,-54.95 795.25,-32 789.27,-31.01 783.03,-29.87 776.83,-28.66"/>
<polygon fill="#63b8ff" stroke="#63b8ff" points="777.78,-25.28 767.29,-26.73 776.4,-32.14 777.78,-25.28"/>
</a>
</g>
</g>
<!-- Node8 -->
<g id="Node000008" class="node">
<title>Node8</title>
<g id="a_Node000008"><a xlink:title=" ">
<polygon fill="#e0e0e0" stroke="#999999" points="906,-26 804.5,-26 804.5,-6 906,-6 906,-26"/>
<text text-anchor="middle" x="855.25" y="-12.5" font-family="Helvetica,sans-Serif" font-size="10.00">java.io.IOException</text>
</a>
</g>
</g>
<!-- Node1&#45;&gt;Node8 -->
<g id="edge7_Node000001_Node000008" class="edge">
<title>Node1&#45;&gt;Node8</title>
<g id="a_edge7_Node000001_Node000008"><a xlink:title=" ">
<path fill="none" stroke="#63b8ff" d="M1192.84,-78.33C1120.26,-68.11 1010.1,-51.39 915.25,-32 910.94,-31.12 906.46,-30.13 901.99,-29.1"/>
<polygon fill="#63b8ff" stroke="#63b8ff" points="903,-25.74 892.46,-26.82 901.37,-32.55 903,-25.74"/>
</a>
</g>
</g>
<!-- Node9 -->
<g id="Node000009" class="node">
<title>Node9</title>
<g id="a_Node000009"><a xlink:title=" ">
<polygon fill="#e0e0e0" stroke="#999999" points="1032.38,-26 924.12,-26 924.12,-6 1032.38,-6 1032.38,-26"/>
<text text-anchor="middle" x="978.25" y="-12.5" font-family="Helvetica,sans-Serif" font-size="10.00">java.io.OutputStream</text>
</a>
</g>
</g>
<!-- Node1&#45;&gt;Node9 -->
<g id="edge8_Node000001_Node000009" class="edge">
<title>Node1&#45;&gt;Node9</title>
<g id="a_edge8_Node000001_Node000009"><a xlink:title=" ">
<path fill="none" stroke="#63b8ff" d="M1192.69,-69.52C1140.17,-56.65 1072.99,-40.2 1027.94,-29.17"/>
<polygon fill="#63b8ff" stroke="#63b8ff" points="1029,-25.83 1018.46,-26.85 1027.34,-32.63 1029,-25.83"/>
</a>
</g>
</g>
<!-- Node10 -->
<g id="Node000010" class="node">
<title>Node10</title>
<g id="a_Node000010"><a xlink:title=" ">
<polygon fill="#e0e0e0" stroke="#999999" points="1195.75,-32 1050.75,-32 1050.75,0 1195.75,0 1195.75,-32"/>
<text text-anchor="start" x="1058.75" y="-18.5" font-family="Helvetica,sans-Serif" font-size="10.00">java.util.concurrent.Execution</text>
<text text-anchor="middle" x="1123.25" y="-6.5" font-family="Helvetica,sans-Serif" font-size="10.00">Exception</text>
</a>
</g>
</g>
<!-- Node1&#45;&gt;Node10 -->
<g id="edge9_Node000001_Node000010" class="edge">
<title>Node1&#45;&gt;Node10</title>
<g id="a_edge9_Node000001_Node000010"><a xlink:title=" ">
<path fill="none" stroke="#63b8ff" d="M1227.95,-67.59C1208.17,-58.04 1184.97,-46.83 1165.45,-37.39"/>
<polygon fill="#63b8ff" stroke="#63b8ff" points="1167.21,-34.35 1156.68,-33.15 1164.16,-40.66 1167.21,-34.35"/>
</a>
</g>
</g>
<!-- Node11 -->
<g id="Node000011" class="node">
<title>Node11</title>
<g id="a_Node000011"><a xlink:title=" ">
<polygon fill="#e0e0e0" stroke="#999999" points="1330.5,-26 1214,-26 1214,-6 1330.5,-6 1330.5,-26"/>
<text text-anchor="middle" x="1272.25" y="-12.5" font-family="Helvetica,sans-Serif" font-size="10.00">javax.imageio.ImageIO</text>
</a>
</g>
</g>
<!-- Node1&#45;&gt;Node11 -->
<g id="edge10_Node000001_Node000011" class="edge">
<title>Node1&#45;&gt;Node11</title>
<g id="a_edge10_Node000001_Node000011"><a xlink:title=" ">
<path fill="none" stroke="#63b8ff" d="M1272.25,-67.79C1272.25,-58.32 1272.25,-47.2 1272.25,-37.78"/>
<polygon fill="#63b8ff" stroke="#63b8ff" points="1275.75,-37.82 1272.25,-27.82 1268.75,-37.82 1275.75,-37.82"/>
</a>
</g>
</g>
<!-- Node12 -->
<g id="Node000012" class="node">
<title>Node12</title>
<g id="a_Node000012"><a xlink:title=" ">
<polygon fill="#e0e0e0" stroke="#999999" points="1478.25,-26 1348.25,-26 1348.25,-6 1478.25,-6 1478.25,-26"/>
<text text-anchor="middle" x="1413.25" y="-12.5" font-family="Helvetica,sans-Serif" font-size="10.00">javax.swing.JProgressBar</text>
</a>
</g>
</g>
<!-- Node1&#45;&gt;Node12 -->
<g id="edge11_Node000001_Node000012" class="edge">
<title>Node1&#45;&gt;Node12</title>
<g id="a_edge11_Node000001_Node000012"><a xlink:title=" ">
<path fill="none" stroke="#63b8ff" d="M1314.17,-67.59C1336.88,-56 1364.35,-41.97 1384.6,-31.63"/>
<polygon fill="#63b8ff" stroke="#63b8ff" points="1386.09,-34.8 1393.4,-27.14 1382.9,-28.57 1386.09,-34.8"/>
</a>
</g>
</g>
<!-- Node13 -->
<g id="Node000013" class="node">
<title>Node13</title>
<g id="a_Node000013"><a xlink:title=" ">
<polygon fill="#e0e0e0" stroke="#999999" points="1624.5,-26 1496,-26 1496,-6 1624.5,-6 1624.5,-26"/>
<text text-anchor="middle" x="1560.25" y="-12.5" font-family="Helvetica,sans-Serif" font-size="10.00">javax.swing.SwingWorker</text>
</a>
</g>
</g>
<!-- Node1&#45;&gt;Node13 -->
<g id="edge12_Node000001_Node000013" class="edge">
<title>Node1&#45;&gt;Node13</title>
<g id="a_edge12_Node000001_Node000013"><a xlink:title=" ">
<path fill="none" stroke="#63b8ff" d="M1351.71,-69.14C1402.87,-56.35 1467.73,-40.13 1511.42,-29.21"/>
<polygon fill="#63b8ff" stroke="#63b8ff" points="1512,-32.67 1520.86,-26.85 1510.31,-25.88 1512,-32.67"/>
</a>
</g>
</g>
<!-- Node14 -->
<g id="Node000014" class="node">
<title>Node14</title>
<g id="a_Node000014"><a xlink:title=" ">
<polygon fill="#e0e0e0" stroke="#999999" points="1807.5,-26 1643,-26 1643,-6 1807.5,-6 1807.5,-26"/>
<text text-anchor="middle" x="1725.25" y="-12.5" font-family="Helvetica,sans-Serif" font-size="10.00">com.google.zxing.WriterException</text>
</a>
</g>
</g>
<!-- Node1&#45;&gt;Node14 -->
<g id="edge13_Node000001_Node000014" class="edge">
<title>Node1&#45;&gt;Node14</title>
<g id="a_edge13_Node000001_Node000014"><a xlink:title=" ">
<path fill="none" stroke="#63b8ff" d="M1351.85,-76.55C1425.01,-65.08 1536.46,-47.53 1633.25,-32 1640.66,-30.81 1648.4,-29.56 1656.11,-28.31"/>
<polygon fill="#63b8ff" stroke="#63b8ff" points="1656.54,-31.79 1665.85,-26.73 1655.42,-24.88 1656.54,-31.79"/>
</a>
</g>
</g>
<!-- Node15 -->
<g id="Node000015" class="node">
<title>Node15</title>
<g id="a_Node000015"><a xlink:title=" ">
<polygon fill="#e0e0e0" stroke="#999999" points="1958.75,-32 1825.75,-32 1825.75,0 1958.75,0 1958.75,-32"/>
<text text-anchor="start" x="1833.75" y="-18.5" font-family="Helvetica,sans-Serif" font-size="10.00">fr.softsf.canscan.constant.</text>
<text text-anchor="middle" x="1892.25" y="-6.5" font-family="Helvetica,sans-Serif" font-size="10.00">StringConstants</text>
</a>
</g>
</g>
<!-- Node1&#45;&gt;Node15 -->
<g id="edge14_Node000001_Node000015" class="edge">
<title>Node1&#45;&gt;Node15</title>
<g id="a_edge14_Node000001_Node000015"><a xlink:title=" ">
<path fill="none" stroke="#63b8ff" d="M1351.82,-82.93C1455.77,-74.5 1643.63,-57.52 1814.36,-32.19"/>
<polygon fill="#63b8ff" stroke="#63b8ff" points="1814.71,-35.68 1824.08,-30.74 1813.68,-28.76 1814.71,-35.68"/>
</a>
</g>
</g>
<!-- Node16 -->
<g id="Node000016" class="node">
<title>Node16</title>
<g id="a_Node000016"><a xlink:title=" ">
<polygon fill="#e0e0e0" stroke="#999999" points="2098.12,-32 1976.38,-32 1976.38,0 2098.12,0 2098.12,-32"/>
<text text-anchor="start" x="1984.38" y="-18.5" font-family="Helvetica,sans-Serif" font-size="10.00">fr.softsf.canscan.model.</text>
<text text-anchor="middle" x="2037.25" y="-6.5" font-family="Helvetica,sans-Serif" font-size="10.00">CommonFields</text>
</a>
</g>
</g>
<!-- Node1&#45;&gt;Node16 -->
<g id="edge15_Node000001_Node000016" class="edge">
<title>Node1&#45;&gt;Node16</title>
<g id="a_edge15_Node000001_Node000016"><a xlink:title=" ">
<path fill="none" stroke="#63b8ff" d="M1351.97,-85.91C1479.63,-80.19 1737.91,-65.53 1964.88,-32.4"/>
<polygon fill="#63b8ff" stroke="#63b8ff" points="1965.13,-35.9 1974.51,-30.98 1964.1,-28.97 1965.13,-35.9"/>
</a>
</g>
</g>
<!-- Node17 -->
<g id="Node000017" class="node">
<title>Node17</title>
<g id="a_Node000017"><a xlink:title=" ">
<polygon fill="#e0e0e0" stroke="#999999" points="2238.12,-32 2116.38,-32 2116.38,0 2238.12,0 2238.12,-32"/>
<text text-anchor="start" x="2124.38" y="-18.5" font-family="Helvetica,sans-Serif" font-size="10.00">fr.softsf.canscan.model.</text>
<text text-anchor="middle" x="2177.25" y="-6.5" font-family="Helvetica,sans-Serif" font-size="10.00">EncodedData</text>
</a>
</g>
</g>
<!-- Node1&#45;&gt;Node17 -->
<g id="edge16_Node000001_Node000017" class="edge">
<title>Node1&#45;&gt;Node17</title>
<g id="a_edge16_Node000001_Node000017"><a xlink:title=" ">
<path fill="none" stroke="#63b8ff" d="M1351.79,-87.35C1498.76,-83.48 1822.83,-71.08 2104.61,-32.24"/>
<polygon fill="#63b8ff" stroke="#63b8ff" points="2104.96,-35.73 2114.38,-30.88 2103.99,-28.79 2104.96,-35.73"/>
</a>
</g>
</g>
<!-- Node18 -->
<g id="Node000018" class="node">
<title>Node18</title>
<g id="a_Node000018"><a xlink:title=" ">
<polygon fill="#e0e0e0" stroke="#999999" points="2397.88,-32 2256.62,-32 2256.62,0 2397.88,0 2397.88,-32"/>
<text text-anchor="start" x="2264.62" y="-18.5" font-family="Helvetica,sans-Serif" font-size="10.00">fr.softsf.canscan.ui.Encoded</text>
<text text-anchor="middle" x="2327.25" y="-6.5" font-family="Helvetica,sans-Serif" font-size="10.00">Image</text>
</a>
</g>
</g>
<!-- Node1&#45;&gt;Node18 -->
<g id="edge17_Node000001_Node000018" class="edge">
<title>Node1&#45;&gt;Node18</title>
<g id="a_edge17_Node000001_Node000018"><a xlink:title=" ">
<path fill="none" stroke="#63b8ff" d="M1351.86,-87.76C1516.78,-84.46 1907.81,-72.79 2245.25,-32.14"/>
<polygon fill="#63b8ff" stroke="#63b8ff" points="2245.22,-35.67 2254.72,-30.98 2244.37,-28.72 2245.22,-35.67"/>
</a>
</g>
</g>
<!-- Node19 -->
<g id="Node000019" class="node">
<title>Node19</title>
<g id="a_Node000019"><a xlink:title=" ">
<polygon fill="#e0e0e0" stroke="#999999" points="2560.38,-26 2416.12,-26 2416.12,-6 2560.38,-6 2560.38,-26"/>
<text text-anchor="middle" x="2488.25" y="-12.5" font-family="Helvetica,sans-Serif" font-size="10.00">fr.softsf.canscan.ui.MyPopup</text>
</a>
</g>
</g>
<!-- Node1&#45;&gt;Node19 -->
<g id="edge18_Node000001_Node000019" class="edge">
<title>Node1&#45;&gt;Node19</title>
<g id="a_edge18_Node000001_Node000019"><a xlink:title=" ">
<path fill="none" stroke="#63b8ff" d="M1351.67,-88.63C1537.13,-86.99 2012.89,-78.21 2407.25,-32 2415.26,-31.06 2423.67,-29.81 2431.91,-28.43"/>
<polygon fill="#63b8ff" stroke="#63b8ff" points="2432.27,-31.92 2441.51,-26.74 2431.05,-25.02 2432.27,-31.92"/>
</a>
</g>
</g>
<!-- Node20 -->
<g id="Node000020" class="node">
<title>Node20</title>
<g id="a_Node000020"><a xlink:title=" ">
<polygon fill="#e0e0e0" stroke="#999999" points="2723.75,-26 2578.75,-26 2578.75,-6 2723.75,-6 2723.75,-26"/>
<text text-anchor="middle" x="2651.25" y="-12.5" font-family="Helvetica,sans-Serif" font-size="10.00">fr.softsf.canscan.util.Checker</text>
</a>
</g>
</g>
<!-- Node1&#45;&gt;Node20 -->
<g id="edge19_Node000001_Node000020" class="edge">
<title>Node1&#45;&gt;Node20</title>
<g id="a_edge19_Node000001_Node000020"><a xlink:title=" ">
<path fill="none" stroke="#63b8ff" d="M1351.87,-89.29C1555.29,-89.2 2110.4,-83.8 2569.25,-32 2577.55,-31.06 2586.27,-29.79 2594.81,-28.37"/>
<polygon fill="#63b8ff" stroke="#63b8ff" points="2595.13,-31.87 2604.38,-26.71 2593.93,-24.97 2595.13,-31.87"/>
</a>
</g>
</g>
</g>
</svg>

<g id="navigator" transform="translate(0 0)" fill="#404254">
  <rect fill="#f2f5e9" fill-opacity="0.5" stroke="#606060" stroke-width=".5" x="0" y="0" width="60" height="60"/>
  <use id="zoomplus" xlink:href="#zoomPlus" x="17" y="9" onmousedown="handleZoom(evt,'in')"/>
  <use id="zoomminus" xlink:href="#zoomMin" x="42" y="9" onmousedown="handleZoom(evt,'out')"/>
  <use id="reset" xlink:href="#resetDef" x="30" y="36" onmousedown="handleReset()"/>
   <use id="arrowup" xlink:href="#arrowUp" x="0" y="0" onmousedown="handlePan(0,-1)"/>
  <use id="arrowright" xlink:href="#arrowRight" x="0" y="0" onmousedown="handlePan(1,0)"/>
  <use id="arrowdown" xlink:href="#arrowDown" x="0" y="0" onmousedown="handlePan(0,1)"/>
  <use id="arrowleft" xlink:href="#arrowLeft" x="0" y="0" onmousedown="handlePan(-1,0)"/>
</g>
<svg viewBox="0 0 15 15" width="100%" height="30px" preserveAspectRatio="xMaxYMin meet">
 <g id="arrow_out" transform="scale(0.3 0.3)">
  <a xlink:href="_generate_and_save_worker_8java__incl_org.svg" target="_base">
   <rect id="button" ry="5" rx="5" y="6" x="6" height="38" width="38"
        fill="#f2f5e9" fill-opacity="0.5" stroke="#606060" stroke-width="1.0"/>
   <path id="arrow"
     d="M 11.500037,31.436501 C 11.940474,20.09759 22.043105,11.32322 32.158766,21.979434 L 37.068811,17.246167 C 37.068811,17.246167 37.088388,32 37.088388,32 L 22.160133,31.978069 C 22.160133,31.978069 26.997745,27.140456 26.997745,27.140456 C 18.528582,18.264221 13.291696,25.230495 11.500037,31.436501 z"
     style="fill:#404040;"/>
  </a>
 </g>
</svg>

<style type='text/css'>
<![CDATA[
[data-mouse-over-selected='false'] { opacity: 0.7; }
[data-mouse-over-selected='true']  { opacity: 1.0; }
]]>
</style>
<script type="application/ecmascript"><![CDATA[
document.addEventListener('DOMContentLoaded', (event) => {
  highlightEdges();
  highlightAdjacentNodes();
});
]]></script>
</svg>
