<?xml version="1.0" encoding="UTF-8" standalone="no"?>
<!DOCTYPE svg PUBLIC "-//W3C//DTD SVG 1.1//EN"
 "http://www.w3.org/Graphics/SVG/1.1/DTD/svg11.dtd">
<!-- Generated by graphviz version 12.2.1 (20241206.2353)
 -->
<!-- Title: src/main/java/fr/softsf/canscan/ui/IFlatLafStyledForLGoodDatePicker.java Pages: 1 -->
<svg width="482pt" height="108pt"
 viewBox="0.00 0.00 481.50 108.00" xmlns="http://www.w3.org/2000/svg" xmlns:xlink="http://www.w3.org/1999/xlink">
<g id="graph0" class="graph" transform="scale(1 1) rotate(0) translate(4 104)">
<title>src/main/java/fr/softsf/canscan/ui/IFlatLafStyledForLGoodDatePicker.java</title>
<!-- Node1 -->
<g id="Node000001" class="node">
<title>Node1</title>
<g id="a_Node000001"><a xlink:title=" ">
<polygon fill="#999999" stroke="#666666" points="292.25,-100 148,-100 148,-56 292.25,-56 292.25,-100"/>
<text text-anchor="start" x="156" y="-86.5" font-family="Helvetica,sans-Serif" font-size="10.00">src/main/java/fr/softsf</text>
<text text-anchor="start" x="156" y="-74.5" font-family="Helvetica,sans-Serif" font-size="10.00">/canscan/ui/IFlatLafStyledFor</text>
<text text-anchor="middle" x="220.12" y="-62.5" font-family="Helvetica,sans-Serif" font-size="10.00">LGoodDatePicker.java</text>
</a>
</g>
</g>
<!-- Node2 -->
<g id="Node000002" class="node">
<title>Node2</title>
<g id="a_Node000002"><a xlink:title=" ">
<polygon fill="#e0e0e0" stroke="#999999" points="102.25,-20 0,-20 0,0 102.25,0 102.25,-20"/>
<text text-anchor="middle" x="51.12" y="-6.5" font-family="Helvetica,sans-Serif" font-size="10.00">java.awt.Dimension</text>
</a>
</g>
</g>
<!-- Node1&#45;&gt;Node2 -->
<g id="edge1_Node000001_Node000002" class="edge">
<title>Node1&#45;&gt;Node2</title>
<g id="a_edge1_Node000001_Node000002"><a xlink:title=" ">
<path fill="none" stroke="#63b8ff" d="M165.26,-55.57C139.08,-45.35 108.57,-33.43 85.68,-24.49"/>
<polygon fill="#63b8ff" stroke="#63b8ff" points="87.1,-21.29 76.52,-20.92 84.56,-27.81 87.1,-21.29"/>
</a>
</g>
</g>
<!-- Node3 -->
<g id="Node000003" class="node">
<title>Node3</title>
<g id="a_Node000003"><a xlink:title=" ">
<polygon fill="#e0e0e0" stroke="#999999" points="203.5,-20 120.75,-20 120.75,0 203.5,0 203.5,-20"/>
<text text-anchor="middle" x="162.12" y="-6.5" font-family="Helvetica,sans-Serif" font-size="10.00">java.awt.Insets</text>
</a>
</g>
</g>
<!-- Node1&#45;&gt;Node3 -->
<g id="edge2_Node000001_Node000003" class="edge">
<title>Node1&#45;&gt;Node3</title>
<g id="a_edge2_Node000001_Node000003"><a xlink:title=" ">
<path fill="none" stroke="#63b8ff" d="M201.45,-55.75C193.85,-47.1 185.16,-37.21 177.88,-28.93"/>
<polygon fill="#63b8ff" stroke="#63b8ff" points="180.63,-26.76 171.4,-21.56 175.37,-31.38 180.63,-26.76"/>
</a>
</g>
</g>
<!-- Node4 -->
<g id="Node000004" class="node">
<title>Node4</title>
<g id="a_Node000004"><a xlink:title=" ">
<polygon fill="#e0e0e0" stroke="#999999" points="337,-20 221.25,-20 221.25,0 337,0 337,-20"/>
<text text-anchor="middle" x="279.12" y="-6.5" font-family="Helvetica,sans-Serif" font-size="10.00">javax.swing.JTextField</text>
</a>
</g>
</g>
<!-- Node1&#45;&gt;Node4 -->
<g id="edge3_Node000001_Node000004" class="edge">
<title>Node1&#45;&gt;Node4</title>
<g id="a_edge3_Node000001_Node000004"><a xlink:title=" ">
<path fill="none" stroke="#63b8ff" d="M239.12,-55.75C246.85,-47.1 255.69,-37.21 263.1,-28.93"/>
<polygon fill="#63b8ff" stroke="#63b8ff" points="265.64,-31.34 269.7,-21.55 260.42,-26.67 265.64,-31.34"/>
</a>
</g>
</g>
<!-- Node5 -->
<g id="Node000005" class="node">
<title>Node5</title>
<g id="a_Node000005"><a xlink:title=" ">
<polygon fill="#e0e0e0" stroke="#999999" points="473.5,-20 354.75,-20 354.75,0 473.5,0 473.5,-20"/>
<text text-anchor="middle" x="414.12" y="-6.5" font-family="Helvetica,sans-Serif" font-size="10.00">javax.swing.UIManager</text>
</a>
</g>
</g>
<!-- Node1&#45;&gt;Node5 -->
<g id="edge4_Node000001_Node000005" class="edge">
<title>Node1&#45;&gt;Node5</title>
<g id="a_edge4_Node000001_Node000005"><a xlink:title=" ">
<path fill="none" stroke="#63b8ff" d="M283.11,-55.57C313.61,-45.2 349.24,-33.08 375.63,-24.09"/>
<polygon fill="#63b8ff" stroke="#63b8ff" points="376.57,-27.47 384.91,-20.94 374.31,-20.85 376.57,-27.47"/>
</a>
</g>
</g>
</g>
</svg>
