<?xml version="1.0" encoding="UTF-8" standalone="no"?>
<!DOCTYPE svg PUBLIC "-//W3C//DTD SVG 1.1//EN"
 "http://www.w3.org/Graphics/SVG/1.1/DTD/svg11.dtd">
<!-- Generated by graphviz version 12.2.1 (20241206.2353)
 -->
<!-- Title: src/main/java/fr/softsf/canscan/ui/Loader.java Pages: 1 -->
<svg width="438pt" height="96pt"
 viewBox="0.00 0.00 438.38 96.00" xmlns="http://www.w3.org/2000/svg" xmlns:xlink="http://www.w3.org/1999/xlink">
<g id="graph0" class="graph" transform="scale(1 1) rotate(0) translate(4 92)">
<title>src/main/java/fr/softsf/canscan/ui/Loader.java</title>
<!-- Node1 -->
<g id="Node000001" class="node">
<title>Node1</title>
<g id="a_Node000001"><a xlink:title=" ">
<polygon fill="#999999" stroke="#666666" points="266.38,-88 146.88,-88 146.88,-56 266.38,-56 266.38,-88"/>
<text text-anchor="start" x="154.88" y="-74.5" font-family="Helvetica,sans-Serif" font-size="10.00">src/main/java/fr/softsf</text>
<text text-anchor="middle" x="206.62" y="-62.5" font-family="Helvetica,sans-Serif" font-size="10.00">/canscan/ui/Loader.java</text>
</a>
</g>
</g>
<!-- Node2 -->
<g id="Node000002" class="node">
<title>Node2</title>
<g id="a_Node000002"><a xlink:title=" ">
<polygon fill="#e0e0e0" stroke="#999999" points="75.25,-20 0,-20 0,0 75.25,0 75.25,-20"/>
<text text-anchor="middle" x="37.62" y="-6.5" font-family="Helvetica,sans-Serif" font-size="10.00">java.awt.Font</text>
</a>
</g>
</g>
<!-- Node1&#45;&gt;Node2 -->
<g id="edge1_Node000001_Node000002" class="edge">
<title>Node1&#45;&gt;Node2</title>
<g id="a_edge1_Node000001_Node000002"><a xlink:title=" ">
<path fill="none" stroke="#63b8ff" d="M163.1,-55.55C135.8,-45.86 100.98,-33.49 74.94,-24.25"/>
<polygon fill="#63b8ff" stroke="#63b8ff" points="76.39,-21.05 65.8,-21 74.05,-27.65 76.39,-21.05"/>
</a>
</g>
</g>
<!-- Node3 -->
<g id="Node000003" class="node">
<title>Node3</title>
<g id="a_Node000003"><a xlink:title=" ">
<polygon fill="#e0e0e0" stroke="#999999" points="200.38,-20 92.88,-20 92.88,0 200.38,0 200.38,-20"/>
<text text-anchor="middle" x="146.62" y="-6.5" font-family="Helvetica,sans-Serif" font-size="10.00">java.awt.FontMetrics</text>
</a>
</g>
</g>
<!-- Node1&#45;&gt;Node3 -->
<g id="edge2_Node000001_Node000003" class="edge">
<title>Node1&#45;&gt;Node3</title>
<g id="a_edge2_Node000001_Node000003"><a xlink:title=" ">
<path fill="none" stroke="#63b8ff" d="M191.17,-55.55C182.84,-47.22 172.53,-36.91 163.93,-28.3"/>
<polygon fill="#63b8ff" stroke="#63b8ff" points="166.65,-26.07 157.1,-21.48 161.7,-31.02 166.65,-26.07"/>
</a>
</g>
</g>
<!-- Node4 -->
<g id="Node000004" class="node">
<title>Node4</title>
<g id="a_Node000004"><a xlink:title=" ">
<polygon fill="#e0e0e0" stroke="#999999" points="317.25,-20 218,-20 218,0 317.25,0 317.25,-20"/>
<text text-anchor="middle" x="267.62" y="-6.5" font-family="Helvetica,sans-Serif" font-size="10.00">javax.swing.JLabel</text>
</a>
</g>
</g>
<!-- Node1&#45;&gt;Node4 -->
<g id="edge3_Node000001_Node000004" class="edge">
<title>Node1&#45;&gt;Node4</title>
<g id="a_edge3_Node000001_Node000004"><a xlink:title=" ">
<path fill="none" stroke="#63b8ff" d="M222.33,-55.55C230.81,-47.22 241.29,-36.91 250.03,-28.3"/>
<polygon fill="#63b8ff" stroke="#63b8ff" points="252.31,-30.98 256.98,-21.47 247.4,-25.99 252.31,-30.98"/>
</a>
</g>
</g>
<!-- Node5 -->
<g id="Node000005" class="node">
<title>Node5</title>
<g id="a_Node000005"><a xlink:title=" ">
<polygon fill="#e0e0e0" stroke="#999999" points="430.38,-20 334.88,-20 334.88,0 430.38,0 430.38,-20"/>
<text text-anchor="middle" x="382.62" y="-6.5" font-family="Helvetica,sans-Serif" font-size="10.00">javax.swing.Timer</text>
</a>
</g>
</g>
<!-- Node1&#45;&gt;Node5 -->
<g id="edge4_Node000001_Node000005" class="edge">
<title>Node1&#45;&gt;Node5</title>
<g id="a_edge4_Node000001_Node000005"><a xlink:title=" ">
<path fill="none" stroke="#63b8ff" d="M251.95,-55.55C280.51,-45.81 316.97,-33.38 344.12,-24.13"/>
<polygon fill="#63b8ff" stroke="#63b8ff" points="345,-27.52 353.34,-20.98 342.74,-20.9 345,-27.52"/>
</a>
</g>
</g>
</g>
</svg>
