<?xml version="1.0" encoding="UTF-8" standalone="no"?>
<!DOCTYPE svg PUBLIC "-//W3C//DTD SVG 1.1//EN"
 "http://www.w3.org/Graphics/SVG/1.1/DTD/svg11.dtd">
<!-- Generated by graphviz version 12.2.1 (20241206.2353)
 -->
<!-- Title: src/main/java/fr/softsf/canscan/ui/Loader.java Pages: 1 -->
<svg width="543pt" height="96pt"
 viewBox="0.00 0.00 543.38 96.00" xmlns="http://www.w3.org/2000/svg" xmlns:xlink="http://www.w3.org/1999/xlink">
<g id="graph0" class="graph" transform="scale(1 1) rotate(0) translate(4 92)">
<title>src/main/java/fr/softsf/canscan/ui/Loader.java</title>
<!-- Node1 -->
<g id="Node000001" class="node">
<title>Node1</title>
<g id="a_Node000001"><a xlink:title=" ">
<polygon fill="#999999" stroke="#666666" points="321.38,-88 201.88,-88 201.88,-56 321.38,-56 321.38,-88"/>
<text text-anchor="start" x="209.88" y="-74.5" font-family="Helvetica,sans-Serif" font-size="10.00">src/main/java/fr/softsf</text>
<text text-anchor="middle" x="261.62" y="-62.5" font-family="Helvetica,sans-Serif" font-size="10.00">/canscan/ui/Loader.java</text>
</a>
</g>
</g>
<!-- Node2 -->
<g id="Node000002" class="node">
<title>Node2</title>
<g id="a_Node000002"><a xlink:title=" ">
<polygon fill="#e0e0e0" stroke="#999999" points="75.25,-20 0,-20 0,0 75.25,0 75.25,-20"/>
<text text-anchor="middle" x="37.62" y="-6.5" font-family="Helvetica,sans-Serif" font-size="10.00">java.awt.Font</text>
</a>
</g>
</g>
<!-- Node1&#45;&gt;Node2 -->
<g id="edge1_Node000001_Node000002" class="edge">
<title>Node1&#45;&gt;Node2</title>
<g id="a_edge1_Node000001_Node000002"><a xlink:title=" ">
<path fill="none" stroke="#63b8ff" d="M203.94,-55.55C166.63,-45.55 118.7,-32.72 83.89,-23.39"/>
<polygon fill="#63b8ff" stroke="#63b8ff" points="85.1,-20.09 74.54,-20.89 83.29,-26.86 85.1,-20.09"/>
</a>
</g>
</g>
<!-- Node3 -->
<g id="Node000003" class="node">
<title>Node3</title>
<g id="a_Node000003"><a xlink:title=" ">
<polygon fill="#e0e0e0" stroke="#999999" points="200.38,-20 92.88,-20 92.88,0 200.38,0 200.38,-20"/>
<text text-anchor="middle" x="146.62" y="-6.5" font-family="Helvetica,sans-Serif" font-size="10.00">java.awt.FontMetrics</text>
</a>
</g>
</g>
<!-- Node1&#45;&gt;Node3 -->
<g id="edge2_Node000001_Node000003" class="edge">
<title>Node1&#45;&gt;Node3</title>
<g id="a_edge2_Node000001_Node000003"><a xlink:title=" ">
<path fill="none" stroke="#63b8ff" d="M232.01,-55.55C214.37,-46.35 192.12,-34.74 174.75,-25.68"/>
<polygon fill="#63b8ff" stroke="#63b8ff" points="176.48,-22.63 166,-21.11 173.25,-28.84 176.48,-22.63"/>
</a>
</g>
</g>
<!-- Node4 -->
<g id="Node000004" class="node">
<title>Node4</title>
<g id="a_Node000004"><a xlink:title=" ">
<polygon fill="#e0e0e0" stroke="#999999" points="304.88,-20 218.38,-20 218.38,0 304.88,0 304.88,-20"/>
<text text-anchor="middle" x="261.62" y="-6.5" font-family="Helvetica,sans-Serif" font-size="10.00">java.util.Objects</text>
</a>
</g>
</g>
<!-- Node1&#45;&gt;Node4 -->
<g id="edge3_Node000001_Node000004" class="edge">
<title>Node1&#45;&gt;Node4</title>
<g id="a_edge3_Node000001_Node000004"><a xlink:title=" ">
<path fill="none" stroke="#63b8ff" d="M261.62,-55.55C261.62,-48.34 261.62,-39.66 261.62,-31.88"/>
<polygon fill="#63b8ff" stroke="#63b8ff" points="265.13,-31.92 261.63,-21.92 258.13,-31.92 265.13,-31.92"/>
</a>
</g>
</g>
<!-- Node5 -->
<g id="Node000005" class="node">
<title>Node5</title>
<g id="a_Node000005"><a xlink:title=" ">
<polygon fill="#e0e0e0" stroke="#999999" points="422.25,-20 323,-20 323,0 422.25,0 422.25,-20"/>
<text text-anchor="middle" x="372.62" y="-6.5" font-family="Helvetica,sans-Serif" font-size="10.00">javax.swing.JLabel</text>
</a>
</g>
</g>
<!-- Node1&#45;&gt;Node5 -->
<g id="edge4_Node000001_Node000005" class="edge">
<title>Node1&#45;&gt;Node5</title>
<g id="a_edge4_Node000001_Node000005"><a xlink:title=" ">
<path fill="none" stroke="#63b8ff" d="M290.21,-55.55C307.23,-46.35 328.71,-34.74 345.47,-25.68"/>
<polygon fill="#63b8ff" stroke="#63b8ff" points="346.76,-28.96 353.89,-21.13 343.43,-22.8 346.76,-28.96"/>
</a>
</g>
</g>
<!-- Node6 -->
<g id="Node000006" class="node">
<title>Node6</title>
<g id="a_Node000006"><a xlink:title=" ">
<polygon fill="#e0e0e0" stroke="#999999" points="535.38,-20 439.88,-20 439.88,0 535.38,0 535.38,-20"/>
<text text-anchor="middle" x="487.62" y="-6.5" font-family="Helvetica,sans-Serif" font-size="10.00">javax.swing.Timer</text>
</a>
</g>
</g>
<!-- Node1&#45;&gt;Node6 -->
<g id="edge5_Node000001_Node000006" class="edge">
<title>Node1&#45;&gt;Node6</title>
<g id="a_edge5_Node000001_Node000006"><a xlink:title=" ">
<path fill="none" stroke="#63b8ff" d="M319.83,-55.55C357.47,-45.55 405.83,-32.72 440.95,-23.39"/>
<polygon fill="#63b8ff" stroke="#63b8ff" points="441.63,-26.83 450.39,-20.88 439.83,-20.07 441.63,-26.83"/>
</a>
</g>
</g>
</g>
</svg>
