<?xml version="1.0" encoding="UTF-8" standalone="no"?>
<!DOCTYPE svg PUBLIC "-//W3C//DTD SVG 1.1//EN"
 "http://www.w3.org/Graphics/SVG/1.1/DTD/svg11.dtd">
<!-- Generated by graphviz version 12.2.1 (20241206.2353)
 -->
<!-- Title: src/main/java/fr/softsf/canscan/model/MeetJFields.java Pages: 1 -->
<svg width="549pt" height="108pt"
 viewBox="0.00 0.00 549.12 108.00" xmlns="http://www.w3.org/2000/svg" xmlns:xlink="http://www.w3.org/1999/xlink">
<g id="graph0" class="graph" transform="scale(1 1) rotate(0) translate(4 104)">
<title>src/main/java/fr/softsf/canscan/model/MeetJFields.java</title>
<!-- Node1 -->
<g id="Node000001" class="node">
<title>Node1</title>
<g id="a_Node000001"><a xlink:title=" ">
<polygon fill="#999999" stroke="#666666" points="312,-100 149.75,-100 149.75,-68 312,-68 312,-100"/>
<text text-anchor="start" x="157.75" y="-86.5" font-family="Helvetica,sans-Serif" font-size="10.00">src/main/java/fr/softsf</text>
<text text-anchor="middle" x="230.88" y="-74.5" font-family="Helvetica,sans-Serif" font-size="10.00">/canscan/model/MeetJFields.java</text>
</a>
</g>
</g>
<!-- Node2 -->
<g id="Node000002" class="node">
<title>Node2</title>
<g id="a_Node000002"><a xlink:title=" ">
<polygon fill="#e0e0e0" stroke="#999999" points="115.75,-26 0,-26 0,-6 115.75,-6 115.75,-26"/>
<text text-anchor="middle" x="57.88" y="-12.5" font-family="Helvetica,sans-Serif" font-size="10.00">javax.swing.JTextField</text>
</a>
</g>
</g>
<!-- Node1&#45;&gt;Node2 -->
<g id="edge1_Node000001_Node000002" class="edge">
<title>Node1&#45;&gt;Node2</title>
<g id="a_edge1_Node000001_Node000002"><a xlink:title=" ">
<path fill="none" stroke="#63b8ff" d="M190.31,-67.53C160.87,-56.29 121.41,-41.24 93.24,-30.49"/>
<polygon fill="#63b8ff" stroke="#63b8ff" points="94.68,-27.29 84.09,-27 92.18,-33.83 94.68,-27.29"/>
</a>
</g>
</g>
<!-- Node3 -->
<g id="Node000003" class="node">
<title>Node3</title>
<g id="a_Node000003"><a xlink:title=" ">
<polygon fill="#e0e0e0" stroke="#999999" points="328.12,-32 133.62,-32 133.62,0 328.12,0 328.12,-32"/>
<text text-anchor="start" x="141.62" y="-18.5" font-family="Helvetica,sans-Serif" font-size="10.00">com.github.lgooddatepicker.components.</text>
<text text-anchor="middle" x="230.88" y="-6.5" font-family="Helvetica,sans-Serif" font-size="10.00">DatePicker</text>
</a>
</g>
</g>
<!-- Node1&#45;&gt;Node3 -->
<g id="edge2_Node000001_Node000003" class="edge">
<title>Node1&#45;&gt;Node3</title>
<g id="a_edge2_Node000001_Node000003"><a xlink:title=" ">
<path fill="none" stroke="#63b8ff" d="M230.88,-67.69C230.88,-60.53 230.88,-51.79 230.88,-43.59"/>
<polygon fill="#63b8ff" stroke="#63b8ff" points="234.38,-43.74 230.88,-33.74 227.38,-43.74 234.38,-43.74"/>
</a>
</g>
</g>
<!-- Node4 -->
<g id="Node000004" class="node">
<title>Node4</title>
<g id="a_Node000004"><a xlink:title=" ">
<polygon fill="#e0e0e0" stroke="#999999" points="541.12,-32 346.62,-32 346.62,0 541.12,0 541.12,-32"/>
<text text-anchor="start" x="354.62" y="-18.5" font-family="Helvetica,sans-Serif" font-size="10.00">com.github.lgooddatepicker.components.</text>
<text text-anchor="middle" x="443.88" y="-6.5" font-family="Helvetica,sans-Serif" font-size="10.00">TimePicker</text>
</a>
</g>
</g>
<!-- Node1&#45;&gt;Node4 -->
<g id="edge3_Node000001_Node000004" class="edge">
<title>Node1&#45;&gt;Node4</title>
<g id="a_edge3_Node000001_Node000004"><a xlink:title=" ">
<path fill="none" stroke="#63b8ff" d="M280.81,-67.53C311.42,-58.04 350.79,-45.84 383.19,-35.81"/>
<polygon fill="#63b8ff" stroke="#63b8ff" points="383.92,-39.24 392.43,-32.94 381.85,-32.56 383.92,-39.24"/>
</a>
</g>
</g>
</g>
</svg>
