<?xml version="1.0" encoding="UTF-8" standalone="no"?>
<!DOCTYPE svg PUBLIC "-//W3C//DTD SVG 1.1//EN"
 "http://www.w3.org/Graphics/SVG/1.1/DTD/svg11.dtd">
<!-- Generated by graphviz version 12.2.1 (20241206.2353)
 -->
<!-- Title: src/main/java/fr/softsf/canscan/model/NativeImageUiComponents.java Pages: 1 -->
<svg width="858pt" height="120pt"
 viewBox="0.00 0.00 857.50 120.00" xmlns="http://www.w3.org/2000/svg" xmlns:xlink="http://www.w3.org/1999/xlink">
<g id="graph0" class="graph" transform="scale(1 1) rotate(0) translate(4 116)">
<title>src/main/java/fr/softsf/canscan/model/NativeImageUiComponents.java</title>
<!-- Node1 -->
<g id="Node000001" class="node">
<title>Node1</title>
<g id="a_Node000001"><a xlink:title=" ">
<polygon fill="#999999" stroke="#666666" points="459.88,-112 306.62,-112 306.62,-68 459.88,-68 459.88,-112"/>
<text text-anchor="start" x="314.62" y="-98.5" font-family="Helvetica,sans-Serif" font-size="10.00">src/main/java/fr/softsf</text>
<text text-anchor="start" x="314.62" y="-86.5" font-family="Helvetica,sans-Serif" font-size="10.00">/canscan/model/NativeImageUi</text>
<text text-anchor="middle" x="383.25" y="-74.5" font-family="Helvetica,sans-Serif" font-size="10.00">Components.java</text>
</a>
</g>
</g>
<!-- Node2 -->
<g id="Node000002" class="node">
<title>Node2</title>
<g id="a_Node000002"><a xlink:title=" ">
<polygon fill="#e0e0e0" stroke="#999999" points="104.5,-26 0,-26 0,-6 104.5,-6 104.5,-26"/>
<text text-anchor="middle" x="52.25" y="-12.5" font-family="Helvetica,sans-Serif" font-size="10.00">javax.swing.JButton</text>
</a>
</g>
</g>
<!-- Node1&#45;&gt;Node2 -->
<g id="edge1_Node000001_Node000002" class="edge">
<title>Node1&#45;&gt;Node2</title>
<g id="a_edge1_Node000001_Node000002"><a xlink:title=" ">
<path fill="none" stroke="#63b8ff" d="M306.29,-73.46C252.19,-62.36 178.17,-46.83 113.25,-32 109.24,-31.08 105.09,-30.11 100.92,-29.12"/>
<polygon fill="#63b8ff" stroke="#63b8ff" points="101.96,-25.77 91.42,-26.83 100.32,-32.58 101.96,-25.77"/>
</a>
</g>
</g>
<!-- Node3 -->
<g id="Node000003" class="node">
<title>Node3</title>
<g id="a_Node000003"><a xlink:title=" ">
<polygon fill="#e0e0e0" stroke="#999999" points="252.25,-26 122.25,-26 122.25,-6 252.25,-6 252.25,-26"/>
<text text-anchor="middle" x="187.25" y="-12.5" font-family="Helvetica,sans-Serif" font-size="10.00">javax.swing.JRadioButton</text>
</a>
</g>
</g>
<!-- Node1&#45;&gt;Node3 -->
<g id="edge2_Node000001_Node000003" class="edge">
<title>Node1&#45;&gt;Node3</title>
<g id="a_edge2_Node000001_Node000003"><a xlink:title=" ">
<path fill="none" stroke="#63b8ff" d="M324.97,-67.59C292.1,-55.52 252.05,-40.8 223.63,-30.36"/>
<polygon fill="#63b8ff" stroke="#63b8ff" points="224.98,-27.13 214.39,-26.97 222.57,-33.7 224.98,-27.13"/>
</a>
</g>
</g>
<!-- Node4 -->
<g id="Node000004" class="node">
<title>Node4</title>
<g id="a_Node000004"><a xlink:title=" ">
<polygon fill="#e0e0e0" stroke="#999999" points="370.62,-26 269.88,-26 269.88,-6 370.62,-6 370.62,-26"/>
<text text-anchor="middle" x="320.25" y="-12.5" font-family="Helvetica,sans-Serif" font-size="10.00">javax.swing.JSlider</text>
</a>
</g>
</g>
<!-- Node1&#45;&gt;Node4 -->
<g id="edge3_Node000001_Node000004" class="edge">
<title>Node1&#45;&gt;Node4</title>
<g id="a_edge3_Node000001_Node000004"><a xlink:title=" ">
<path fill="none" stroke="#63b8ff" d="M364.69,-67.79C355.56,-57.35 344.67,-44.91 335.96,-34.95"/>
<polygon fill="#63b8ff" stroke="#63b8ff" points="338.61,-32.67 329.39,-27.45 333.35,-37.28 338.61,-32.67"/>
</a>
</g>
</g>
<!-- Node5 -->
<g id="Node000005" class="node">
<title>Node5</title>
<g id="a_Node000005"><a xlink:title=" ">
<polygon fill="#e0e0e0" stroke="#999999" points="503.75,-26 388.75,-26 388.75,-6 503.75,-6 503.75,-26"/>
<text text-anchor="middle" x="446.25" y="-12.5" font-family="Helvetica,sans-Serif" font-size="10.00">javax.swing.JTextArea</text>
</a>
</g>
</g>
<!-- Node1&#45;&gt;Node5 -->
<g id="edge4_Node000001_Node000005" class="edge">
<title>Node1&#45;&gt;Node5</title>
<g id="a_edge4_Node000001_Node000005"><a xlink:title=" ">
<path fill="none" stroke="#63b8ff" d="M401.81,-67.79C410.94,-57.35 421.83,-44.91 430.54,-34.95"/>
<polygon fill="#63b8ff" stroke="#63b8ff" points="433.15,-37.28 437.11,-27.45 427.89,-32.67 433.15,-37.28"/>
</a>
</g>
</g>
<!-- Node6 -->
<g id="Node000006" class="node">
<title>Node6</title>
<g id="a_Node000006"><a xlink:title=" ">
<polygon fill="#e0e0e0" stroke="#999999" points="637.12,-26 521.38,-26 521.38,-6 637.12,-6 637.12,-26"/>
<text text-anchor="middle" x="579.25" y="-12.5" font-family="Helvetica,sans-Serif" font-size="10.00">javax.swing.JTextField</text>
</a>
</g>
</g>
<!-- Node1&#45;&gt;Node6 -->
<g id="edge5_Node000001_Node000006" class="edge">
<title>Node1&#45;&gt;Node6</title>
<g id="a_edge5_Node000001_Node000006"><a xlink:title=" ">
<path fill="none" stroke="#63b8ff" d="M441.53,-67.59C474.4,-55.52 514.45,-40.8 542.87,-30.36"/>
<polygon fill="#63b8ff" stroke="#63b8ff" points="543.93,-33.7 552.11,-26.97 541.52,-27.13 543.93,-33.7"/>
</a>
</g>
</g>
<!-- Node7 -->
<g id="Node000007" class="node">
<title>Node7</title>
<g id="a_Node000007"><a xlink:title=" ">
<polygon fill="#e0e0e0" stroke="#999999" points="849.5,-32 655,-32 655,0 849.5,0 849.5,-32"/>
<text text-anchor="start" x="663" y="-18.5" font-family="Helvetica,sans-Serif" font-size="10.00">com.github.lgooddatepicker.components.</text>
<text text-anchor="middle" x="752.25" y="-6.5" font-family="Helvetica,sans-Serif" font-size="10.00">TimePicker</text>
</a>
</g>
</g>
<!-- Node1&#45;&gt;Node7 -->
<g id="edge6_Node000001_Node000007" class="edge">
<title>Node1&#45;&gt;Node7</title>
<g id="a_edge6_Node000001_Node000007"><a xlink:title=" ">
<path fill="none" stroke="#63b8ff" d="M460.16,-73.99C518.94,-62.52 600.11,-46.69 661.97,-34.62"/>
<polygon fill="#63b8ff" stroke="#63b8ff" points="662.27,-38.12 671.41,-32.77 660.93,-31.25 662.27,-38.12"/>
</a>
</g>
</g>
</g>
</svg>
