<?xml version="1.0" encoding="UTF-8" standalone="no"?>
<!DOCTYPE svg PUBLIC "-//W3C//DTD SVG 1.1//EN"
 "http://www.w3.org/Graphics/SVG/1.1/DTD/svg11.dtd">
<!-- Generated by graphviz version 12.2.1 (20241206.2353)
 -->
<!-- Title: src/test/java/fr/softsf/canscan/NativeImageConfigSimulator.java Pages: 1 -->
<!--zoomable 108 -->

<svg id="main" version="1.1" xmlns="http://www.w3.org/2000/svg" xmlns:xlink="http://www.w3.org/1999/xlink" xml:space="preserve" onload="init(evt)">

<style type="text/css"><![CDATA[
.node, .edge {opacity: 0.7;}
.node.selected, .edge.selected {opacity: 1;}
.edge:hover path { stroke: red; }
.edge:hover polygon { stroke: red; fill: red; }
]]></style>

<defs>
  <circle id="rim" cx="0" cy="0" r="7"/>
  <circle id="rim2" cx="0" cy="0" r="3.5"/>
  <g id="zoomPlus">
    <use xlink:href="#rim" fill="#404040"><set attributeName="fill" to="#808080" begin="zoomplus.mouseover" end="zoomplus.mouseout"/></use>
    <path d="M-4,0h8M0,-4v8" fill="none" stroke="white" stroke-width="1.5" pointer-events="none"/>
  </g>
  <g id="zoomMin">
    <use xlink:href="#rim" fill="#404040"><set attributeName="fill" to="#808080" begin="zoomminus.mouseover" end="zoomminus.mouseout"/></use>
    <path d="M-4,0h8" fill="none" stroke="white" stroke-width="1.5" pointer-events="none"/>
  </g>
  <g id="arrowUp" transform="translate(30 24)">
    <use xlink:href="#rim"/>
    <path pointer-events="none" fill="none" stroke="white" stroke-width="1.5" d="M0,-3.0v7 M-2.5,-0.5L0,-3.0L2.5,-0.5"/>
  </g>
  <g id="arrowRight" transform="rotate(90) translate(36 -43)">
    <use xlink:href="#rim"/>
    <path pointer-events="none" fill="none" stroke="white" stroke-width="1.5" d="M0,-3.0v7 M-2.5,-0.5L0,-3.0L2.5,-0.5"/>
  </g>
  <g id="arrowDown" transform="rotate(180) translate(-30 -48)">
    <use xlink:href="#rim"/>
    <path pointer-events="none" fill="none" stroke="white" stroke-width="1.5" d="M0,-3.0v7 M-2.5,-0.5L0,-3.0L2.5,-0.5"/>
  </g>
  <g id="arrowLeft" transform="rotate(270) translate(-36 17)">
    <use xlink:href="#rim"/>
    <path pointer-events="none" fill="none" stroke="white" stroke-width="1.5" d="M0,-3.0v7 M-2.5,-0.5L0,-3.0L2.5,-0.5"/>
  </g>
  <g id="resetDef">
    <use xlink:href="#rim2" fill="#404040"><set attributeName="fill" to="#808080" begin="reset.mouseover" end="reset.mouseout"/></use>
  </g>
</defs>
<script type="application/ecmascript">
var viewWidth = 3405;
var viewHeight = 108;
var sectionId = 'dynsection-0';
</script>
<script type="application/ecmascript" xlink:href="svg.min.js"/>
<svg id="graph" class="graph">
<g id="viewport">
<title>src/test/java/fr/softsf/canscan/NativeImageConfigSimulator.java</title>
<!-- Node1 -->
<g id="Node000001" class="node">
<title>Node1</title>
<g id="a_Node000001"><a xlink:title=" ">
<polygon fill="#999999" stroke="#666666" points="1649.5,-100 1444.5,-100 1444.5,-68 1649.5,-68 1649.5,-100"/>
<text text-anchor="start" x="1452.5" y="-86.5" font-family="Helvetica,sans-Serif" font-size="10.00">src/test/java/fr/softsf</text>
<text text-anchor="middle" x="1547" y="-74.5" font-family="Helvetica,sans-Serif" font-size="10.00">/canscan/NativeImageConfigSimulator.java</text>
</a>
</g>
</g>
<!-- Node2 -->
<g id="Node000002" class="node">
<title>Node2</title>
<g id="a_Node000002"><a xlink:title=" ">
<polygon fill="#e0e0e0" stroke="#999999" points="106,-26 0,-26 0,-6 106,-6 106,-26"/>
<text text-anchor="middle" x="53" y="-12.5" font-family="Helvetica,sans-Serif" font-size="10.00">java.awt.Component</text>
</a>
</g>
</g>
<!-- Node1&#45;&gt;Node2 -->
<g id="edge1_Node000001_Node000002" class="edge">
<title>Node1&#45;&gt;Node2</title>
<g id="a_edge1_Node000001_Node000002"><a xlink:title=" ">
<path fill="none" stroke="#63b8ff" d="M1444.19,-82.03C1160.71,-78.93 372.01,-67.3 115,-32 109.32,-31.22 103.4,-30.14 97.57,-28.92"/>
<polygon fill="#63b8ff" stroke="#63b8ff" points="98.55,-25.55 88.03,-26.76 97.01,-32.38 98.55,-25.55"/>
</a>
</g>
</g>
<!-- Node3 -->
<g id="Node000003" class="node">
<title>Node3</title>
<g id="a_Node000003"><a xlink:title=" ">
<polygon fill="#e0e0e0" stroke="#999999" points="221.88,-26 124.12,-26 124.12,-6 221.88,-6 221.88,-26"/>
<text text-anchor="middle" x="173" y="-12.5" font-family="Helvetica,sans-Serif" font-size="10.00">java.awt.Container</text>
</a>
</g>
</g>
<!-- Node1&#45;&gt;Node3 -->
<g id="edge2_Node000001_Node000003" class="edge">
<title>Node1&#45;&gt;Node3</title>
<g id="a_edge2_Node000001_Node000003"><a xlink:title=" ">
<path fill="none" stroke="#63b8ff" d="M1444.13,-81.86C1176.74,-78.44 464.42,-66.3 231,-32 226,-31.27 220.81,-30.27 215.69,-29.14"/>
<polygon fill="#63b8ff" stroke="#63b8ff" points="216.67,-25.78 206.13,-26.85 215.04,-32.58 216.67,-25.78"/>
</a>
</g>
</g>
<!-- Node4 -->
<g id="Node000004" class="node">
<title>Node4</title>
<g id="a_Node000004"><a xlink:title=" ">
<polygon fill="#e0e0e0" stroke="#999999" points="318.12,-26 239.88,-26 239.88,-6 318.12,-6 318.12,-26"/>
<text text-anchor="middle" x="279" y="-12.5" font-family="Helvetica,sans-Serif" font-size="10.00">java.awt.Point</text>
</a>
</g>
</g>
<!-- Node1&#45;&gt;Node4 -->
<g id="edge3_Node000001_Node000004" class="edge">
<title>Node1&#45;&gt;Node4</title>
<g id="a_edge3_Node000001_Node000004"><a xlink:title=" ">
<path fill="none" stroke="#63b8ff" d="M1444.21,-82.15C1190.64,-79.49 540.42,-69.15 327,-32 323.34,-31.36 319.58,-30.53 315.84,-29.57"/>
<polygon fill="#63b8ff" stroke="#63b8ff" points="316.88,-26.23 306.31,-26.85 314.96,-32.96 316.88,-26.23"/>
</a>
</g>
</g>
<!-- Node5 -->
<g id="Node000005" class="node">
<title>Node5</title>
<g id="a_Node000005"><a xlink:title=" ">
<polygon fill="#e0e0e0" stroke="#999999" points="418,-26 336,-26 336,-6 418,-6 418,-26"/>
<text text-anchor="middle" x="377" y="-12.5" font-family="Helvetica,sans-Serif" font-size="10.00">java.awt.Robot</text>
</a>
</g>
</g>
<!-- Node1&#45;&gt;Node5 -->
<g id="edge4_Node000001_Node000005" class="edge">
<title>Node1&#45;&gt;Node5</title>
<g id="a_edge4_Node000001_Node000005"><a xlink:title=" ">
<path fill="none" stroke="#63b8ff" d="M1444.39,-81.55C1206.1,-77.66 620.81,-64.97 427,-32 423.13,-31.34 419.14,-30.48 415.18,-29.49"/>
<polygon fill="#63b8ff" stroke="#63b8ff" points="416.25,-26.16 405.68,-26.89 414.4,-32.91 416.25,-26.16"/>
</a>
</g>
</g>
<!-- Node6 -->
<g id="Node000006" class="node">
<title>Node6</title>
<g id="a_Node000006"><a xlink:title=" ">
<polygon fill="#e0e0e0" stroke="#999999" points="527.5,-26 436.5,-26 436.5,-6 527.5,-6 527.5,-26"/>
<text text-anchor="middle" x="482" y="-12.5" font-family="Helvetica,sans-Serif" font-size="10.00">java.awt.Window</text>
</a>
</g>
</g>
<!-- Node1&#45;&gt;Node6 -->
<g id="edge5_Node000001_Node000006" class="edge">
<title>Node1&#45;&gt;Node6</title>
<g id="a_edge5_Node000001_Node000006"><a xlink:title=" ">
<path fill="none" stroke="#63b8ff" d="M1444.32,-80.63C1223.48,-75.07 709.4,-59.53 537,-32 532.38,-31.26 527.6,-30.29 522.86,-29.18"/>
<polygon fill="#63b8ff" stroke="#63b8ff" points="524.02,-25.87 513.47,-26.81 522.31,-32.66 524.02,-25.87"/>
</a>
</g>
</g>
<!-- Node7 -->
<g id="Node000007" class="node">
<title>Node7</title>
<g id="a_Node000007"><a xlink:title=" ">
<polygon fill="#e0e0e0" stroke="#999999" points="676,-26 546,-26 546,-6 676,-6 676,-26"/>
<text text-anchor="middle" x="611" y="-12.5" font-family="Helvetica,sans-Serif" font-size="10.00">java.awt.event.InputEvent</text>
</a>
</g>
</g>
<!-- Node1&#45;&gt;Node7 -->
<g id="edge6_Node000001_Node000007" class="edge">
<title>Node1&#45;&gt;Node7</title>
<g id="a_edge6_Node000001_Node000007"><a xlink:title=" ">
<path fill="none" stroke="#63b8ff" d="M1444.06,-81.59C1281.96,-78.32 957.6,-67.51 685,-32 678.01,-31.09 670.68,-29.9 663.48,-28.59"/>
<polygon fill="#63b8ff" stroke="#63b8ff" points="664.28,-25.18 653.8,-26.73 662.96,-32.05 664.28,-25.18"/>
</a>
</g>
</g>
<!-- Node8 -->
<g id="Node000008" class="node">
<title>Node8</title>
<g id="a_Node000008"><a xlink:title=" ">
<polygon fill="#e0e0e0" stroke="#999999" points="819.75,-26 694.25,-26 694.25,-6 819.75,-6 819.75,-26"/>
<text text-anchor="middle" x="757" y="-12.5" font-family="Helvetica,sans-Serif" font-size="10.00">java.awt.event.KeyEvent</text>
</a>
</g>
</g>
<!-- Node1&#45;&gt;Node8 -->
<g id="edge7_Node000001_Node000008" class="edge">
<title>Node1&#45;&gt;Node8</title>
<g id="a_edge7_Node000001_Node000008"><a xlink:title=" ">
<path fill="none" stroke="#63b8ff" d="M1444.29,-80.05C1304.52,-75.04 1046.85,-62.29 829,-32 822.44,-31.09 815.58,-29.93 808.81,-28.66"/>
<polygon fill="#63b8ff" stroke="#63b8ff" points="809.55,-25.24 799.06,-26.74 808.2,-32.11 809.55,-25.24"/>
</a>
</g>
</g>
<!-- Node9 -->
<g id="Node000009" class="node">
<title>Node9</title>
<g id="a_Node000009"><a xlink:title=" ">
<polygon fill="#e0e0e0" stroke="#999999" points="924.25,-26 837.75,-26 837.75,-6 924.25,-6 924.25,-26"/>
<text text-anchor="middle" x="881" y="-12.5" font-family="Helvetica,sans-Serif" font-size="10.00">java.util.Objects</text>
</a>
</g>
</g>
<!-- Node1&#45;&gt;Node9 -->
<g id="edge8_Node000001_Node000009" class="edge">
<title>Node1&#45;&gt;Node9</title>
<g id="a_edge8_Node000001_Node000009"><a xlink:title=" ">
<path fill="none" stroke="#63b8ff" d="M1444.26,-80.49C1321.85,-76.12 1111.58,-64.21 934,-32 929.9,-31.26 925.66,-30.33 921.45,-29.31"/>
<polygon fill="#63b8ff" stroke="#63b8ff" points="922.5,-25.97 911.94,-26.81 920.73,-32.74 922.5,-25.97"/>
</a>
</g>
</g>
<!-- Node10 -->
<g id="Node000010" class="node">
<title>Node10</title>
<g id="a_Node000010"><a xlink:title=" ">
<polygon fill="#e0e0e0" stroke="#999999" points="1047.25,-26 942.75,-26 942.75,-6 1047.25,-6 1047.25,-26"/>
<text text-anchor="middle" x="995" y="-12.5" font-family="Helvetica,sans-Serif" font-size="10.00">javax.swing.JButton</text>
</a>
</g>
</g>
<!-- Node1&#45;&gt;Node10 -->
<g id="edge9_Node000001_Node000010" class="edge">
<title>Node1&#45;&gt;Node10</title>
<g id="a_edge9_Node000001_Node000010"><a xlink:title=" ">
<path fill="none" stroke="#63b8ff" d="M1444.4,-76.47C1344.68,-69.16 1189.19,-55.18 1056,-32 1051.09,-31.15 1046,-30.12 1040.93,-29.01"/>
<polygon fill="#63b8ff" stroke="#63b8ff" points="1041.99,-25.66 1031.46,-26.82 1040.41,-32.48 1041.99,-25.66"/>
</a>
</g>
</g>
<!-- Node11 -->
<g id="Node000011" class="node">
<title>Node11</title>
<g id="a_Node000011"><a xlink:title=" ">
<polygon fill="#e0e0e0" stroke="#999999" points="1201,-26 1065,-26 1065,-6 1201,-6 1201,-26"/>
<text text-anchor="middle" x="1133" y="-12.5" font-family="Helvetica,sans-Serif" font-size="10.00">javax.swing.JColorChooser</text>
</a>
</g>
</g>
<!-- Node1&#45;&gt;Node11 -->
<g id="edge10_Node000001_Node000011" class="edge">
<title>Node1&#45;&gt;Node11</title>
<g id="a_edge10_Node000001_Node000011"><a xlink:title=" ">
<path fill="none" stroke="#63b8ff" d="M1444.32,-68.61C1377.46,-58.96 1288.42,-45.57 1210,-32 1203.72,-30.91 1197.17,-29.72 1190.65,-28.51"/>
<polygon fill="#63b8ff" stroke="#63b8ff" points="1191.73,-25.15 1181.26,-26.72 1190.43,-32.03 1191.73,-25.15"/>
</a>
</g>
</g>
<!-- Node12 -->
<g id="Node000012" class="node">
<title>Node12</title>
<g id="a_Node000012"><a xlink:title=" ">
<polygon fill="#e0e0e0" stroke="#999999" points="1322.88,-26 1219.12,-26 1219.12,-6 1322.88,-6 1322.88,-26"/>
<text text-anchor="middle" x="1271" y="-12.5" font-family="Helvetica,sans-Serif" font-size="10.00">javax.swing.JDialog</text>
</a>
</g>
</g>
<!-- Node1&#45;&gt;Node12 -->
<g id="edge11_Node000001_Node000012" class="edge">
<title>Node1&#45;&gt;Node12</title>
<g id="a_edge11_Node000001_Node000012"><a xlink:title=" ">
<path fill="none" stroke="#63b8ff" d="M1481.1,-67.52C1438.53,-57.48 1381.97,-44.07 1332,-32 1328.23,-31.09 1324.33,-30.14 1320.4,-29.19"/>
<polygon fill="#63b8ff" stroke="#63b8ff" points="1321.4,-25.83 1310.86,-26.85 1319.74,-32.63 1321.4,-25.83"/>
</a>
</g>
</g>
<!-- Node13 -->
<g id="Node000013" class="node">
<title>Node13</title>
<g id="a_Node000013"><a xlink:title=" ">
<polygon fill="#e0e0e0" stroke="#999999" points="1469.25,-26 1340.75,-26 1340.75,-6 1469.25,-6 1469.25,-26"/>
<text text-anchor="middle" x="1405" y="-12.5" font-family="Helvetica,sans-Serif" font-size="10.00">javax.swing.JFileChooser</text>
</a>
</g>
</g>
<!-- Node1&#45;&gt;Node13 -->
<g id="edge12_Node000001_Node000013" class="edge">
<title>Node1&#45;&gt;Node13</title>
<g id="a_edge12_Node000001_Node000013"><a xlink:title=" ">
<path fill="none" stroke="#63b8ff" d="M1513.71,-67.53C1490.07,-56.54 1458.58,-41.9 1435.58,-31.21"/>
<polygon fill="#63b8ff" stroke="#63b8ff" points="1437.27,-28.14 1426.73,-27.1 1434.32,-34.49 1437.27,-28.14"/>
</a>
</g>
</g>
<!-- Node14 -->
<g id="Node000014" class="node">
<title>Node14</title>
<g id="a_Node000014"><a xlink:title=" ">
<polygon fill="#e0e0e0" stroke="#999999" points="1606.75,-26 1487.25,-26 1487.25,-6 1606.75,-6 1606.75,-26"/>
<text text-anchor="middle" x="1547" y="-12.5" font-family="Helvetica,sans-Serif" font-size="10.00">javax.swing.JMenuItem</text>
</a>
</g>
</g>
<!-- Node1&#45;&gt;Node14 -->
<g id="edge13_Node000001_Node000014" class="edge">
<title>Node1&#45;&gt;Node14</title>
<g id="a_edge13_Node000001_Node000014"><a xlink:title=" ">
<path fill="none" stroke="#63b8ff" d="M1547,-67.69C1547,-58.8 1547,-47.46 1547,-37.77"/>
<polygon fill="#63b8ff" stroke="#63b8ff" points="1550.5,-37.83 1547,-27.83 1543.5,-37.83 1550.5,-37.83"/>
</a>
</g>
</g>
<!-- Node15 -->
<g id="Node000015" class="node">
<title>Node15</title>
<g id="a_Node000015"><a xlink:title=" ">
<polygon fill="#e0e0e0" stroke="#999999" points="1751.5,-26 1624.5,-26 1624.5,-6 1751.5,-6 1751.5,-26"/>
<text text-anchor="middle" x="1688" y="-12.5" font-family="Helvetica,sans-Serif" font-size="10.00">javax.swing.JOptionPane</text>
</a>
</g>
</g>
<!-- Node1&#45;&gt;Node15 -->
<g id="edge14_Node000001_Node000015" class="edge">
<title>Node1&#45;&gt;Node15</title>
<g id="a_edge14_Node000001_Node000015"><a xlink:title=" ">
<path fill="none" stroke="#63b8ff" d="M1580.06,-67.53C1603.53,-56.54 1634.8,-41.9 1657.64,-31.21"/>
<polygon fill="#63b8ff" stroke="#63b8ff" points="1658.85,-34.51 1666.42,-27.1 1655.88,-28.17 1658.85,-34.51"/>
</a>
</g>
</g>
<!-- Node16 -->
<g id="Node000016" class="node">
<title>Node16</title>
<g id="a_Node000016"><a xlink:title=" ">
<polygon fill="#e0e0e0" stroke="#999999" points="1896.88,-26 1769.12,-26 1769.12,-6 1896.88,-6 1896.88,-26"/>
<text text-anchor="middle" x="1833" y="-12.5" font-family="Helvetica,sans-Serif" font-size="10.00">javax.swing.JPopupMenu</text>
</a>
</g>
</g>
<!-- Node1&#45;&gt;Node16 -->
<g id="edge15_Node000001_Node000016" class="edge">
<title>Node1&#45;&gt;Node16</title>
<g id="a_edge15_Node000001_Node000016"><a xlink:title=" ">
<path fill="none" stroke="#63b8ff" d="M1614.05,-67.53C1665,-55.77 1734.06,-39.83 1780.9,-29.02"/>
<polygon fill="#63b8ff" stroke="#63b8ff" points="1781.57,-32.46 1790.53,-26.8 1780,-25.64 1781.57,-32.46"/>
</a>
</g>
</g>
<!-- Node17 -->
<g id="Node000017" class="node">
<title>Node17</title>
<g id="a_Node000017"><a xlink:title=" ">
<polygon fill="#e0e0e0" stroke="#999999" points="2045,-26 1915,-26 1915,-6 2045,-6 2045,-26"/>
<text text-anchor="middle" x="1980" y="-12.5" font-family="Helvetica,sans-Serif" font-size="10.00">javax.swing.JRadioButton</text>
</a>
</g>
</g>
<!-- Node1&#45;&gt;Node17 -->
<g id="edge16_Node000001_Node000017" class="edge">
<title>Node1&#45;&gt;Node17</title>
<g id="a_edge16_Node000001_Node000017"><a xlink:title=" ">
<path fill="none" stroke="#63b8ff" d="M1649.77,-70.03C1721.69,-60.56 1819.92,-46.83 1906,-32 1911.97,-30.97 1918.21,-29.82 1924.41,-28.64"/>
<polygon fill="#63b8ff" stroke="#63b8ff" points="1924.84,-32.12 1933.98,-26.76 1923.5,-25.25 1924.84,-32.12"/>
</a>
</g>
</g>
<!-- Node18 -->
<g id="Node000018" class="node">
<title>Node18</title>
<g id="a_Node000018"><a xlink:title=" ">
<polygon fill="#e0e0e0" stroke="#999999" points="2163.38,-26 2062.62,-26 2062.62,-6 2163.38,-6 2163.38,-26"/>
<text text-anchor="middle" x="2113" y="-12.5" font-family="Helvetica,sans-Serif" font-size="10.00">javax.swing.JSlider</text>
</a>
</g>
</g>
<!-- Node1&#45;&gt;Node18 -->
<g id="edge17_Node000001_Node000018" class="edge">
<title>Node1&#45;&gt;Node18</title>
<g id="a_edge17_Node000001_Node000018"><a xlink:title=" ">
<path fill="none" stroke="#63b8ff" d="M1649.58,-77.17C1752.43,-70.28 1915.04,-56.51 2054,-32 2058.68,-31.17 2063.54,-30.17 2068.37,-29.09"/>
<polygon fill="#63b8ff" stroke="#63b8ff" points="2069.1,-32.51 2078.02,-26.79 2067.48,-25.7 2069.1,-32.51"/>
</a>
</g>
</g>
<!-- Node19 -->
<g id="Node000019" class="node">
<title>Node19</title>
<g id="a_Node000019"><a xlink:title=" ">
<polygon fill="#e0e0e0" stroke="#999999" points="2296.5,-26 2181.5,-26 2181.5,-6 2296.5,-6 2296.5,-26"/>
<text text-anchor="middle" x="2239" y="-12.5" font-family="Helvetica,sans-Serif" font-size="10.00">javax.swing.JTextArea</text>
</a>
</g>
</g>
<!-- Node1&#45;&gt;Node19 -->
<g id="edge18_Node000001_Node000019" class="edge">
<title>Node1&#45;&gt;Node19</title>
<g id="a_edge18_Node000001_Node000019"><a xlink:title=" ">
<path fill="none" stroke="#63b8ff" d="M1649.81,-78.99C1774.09,-73.14 1989.3,-59.77 2172,-32 2177.74,-31.13 2183.73,-30.04 2189.66,-28.86"/>
<polygon fill="#63b8ff" stroke="#63b8ff" points="2190.36,-32.29 2199.43,-26.8 2188.92,-25.44 2190.36,-32.29"/>
</a>
</g>
</g>
<!-- Node20 -->
<g id="Node000020" class="node">
<title>Node20</title>
<g id="a_Node000020"><a xlink:title=" ">
<polygon fill="#e0e0e0" stroke="#999999" points="2429.88,-26 2314.12,-26 2314.12,-6 2429.88,-6 2429.88,-26"/>
<text text-anchor="middle" x="2372" y="-12.5" font-family="Helvetica,sans-Serif" font-size="10.00">javax.swing.JTextField</text>
</a>
</g>
</g>
<!-- Node1&#45;&gt;Node20 -->
<g id="edge19_Node000001_Node000020" class="edge">
<title>Node1&#45;&gt;Node20</title>
<g id="a_edge19_Node000001_Node000020"><a xlink:title=" ">
<path fill="none" stroke="#63b8ff" d="M1649.74,-81.18C1796.15,-77.44 2072.91,-66.11 2306,-32 2311.96,-31.13 2318.18,-30 2324.31,-28.76"/>
<polygon fill="#63b8ff" stroke="#63b8ff" points="2324.66,-32.27 2333.71,-26.75 2323.2,-25.42 2324.66,-32.27"/>
</a>
</g>
</g>
<!-- Node21 -->
<g id="Node000021" class="node">
<title>Node21</title>
<g id="a_Node000021"><a xlink:title=" ">
<polygon fill="#e0e0e0" stroke="#999999" points="2559.62,-26 2448.38,-26 2448.38,-6 2559.62,-6 2559.62,-26"/>
<text text-anchor="middle" x="2504" y="-12.5" font-family="Helvetica,sans-Serif" font-size="10.00">javax.swing.JWindow</text>
</a>
</g>
</g>
<!-- Node1&#45;&gt;Node21 -->
<g id="edge20_Node000001_Node000021" class="edge">
<title>Node1&#45;&gt;Node21</title>
<g id="a_edge20_Node000001_Node000021"><a xlink:title=" ">
<path fill="none" stroke="#63b8ff" d="M1649.9,-82.77C1816.51,-81.13 2155.31,-72.54 2439,-32 2444.95,-31.15 2451.15,-30.03 2457.27,-28.78"/>
<polygon fill="#63b8ff" stroke="#63b8ff" points="2457.6,-32.29 2466.63,-26.75 2456.11,-25.45 2457.6,-32.29"/>
</a>
</g>
</g>
<!-- Node22 -->
<g id="Node000022" class="node">
<title>Node22</title>
<g id="a_Node000022"><a xlink:title=" ">
<polygon fill="#e0e0e0" stroke="#999999" points="2708.38,-26 2577.62,-26 2577.62,-6 2708.38,-6 2708.38,-26"/>
<text text-anchor="middle" x="2643" y="-12.5" font-family="Helvetica,sans-Serif" font-size="10.00">javax.swing.SwingUtilities</text>
</a>
</g>
</g>
<!-- Node1&#45;&gt;Node22 -->
<g id="edge21_Node000001_Node000022" class="edge">
<title>Node1&#45;&gt;Node22</title>
<g id="a_edge21_Node000001_Node000022"><a xlink:title=" ">
<path fill="none" stroke="#63b8ff" d="M1649.71,-82.96C1834.41,-81.76 2234.53,-74 2569,-32 2576.08,-31.11 2583.5,-29.92 2590.8,-28.6"/>
<polygon fill="#63b8ff" stroke="#63b8ff" points="2591.43,-32.04 2600.6,-26.72 2590.12,-25.16 2591.43,-32.04"/>
</a>
</g>
</g>
<!-- Node23 -->
<g id="Node000023" class="node">
<title>Node23</title>
<g id="a_Node000023"><a xlink:title=" ">
<polygon fill="#e0e0e0" stroke="#999999" points="2889.12,-32 2726.88,-32 2726.88,0 2889.12,0 2889.12,-32"/>
<text text-anchor="start" x="2734.88" y="-18.5" font-family="Helvetica,sans-Serif" font-size="10.00">com.formdev.flatlaf.intellijthemes.</text>
<text text-anchor="middle" x="2808" y="-6.5" font-family="Helvetica,sans-Serif" font-size="10.00">FlatCobalt2IJTheme</text>
</a>
</g>
</g>
<!-- Node1&#45;&gt;Node23 -->
<g id="edge22_Node000001_Node000023" class="edge">
<title>Node1&#45;&gt;Node23</title>
<g id="a_edge22_Node000001_Node000023"><a xlink:title=" ">
<path fill="none" stroke="#63b8ff" d="M1649.81,-82.65C1851.96,-81.06 2315.46,-72.94 2715.48,-32.05"/>
<polygon fill="#63b8ff" stroke="#63b8ff" points="2715.61,-35.56 2725.19,-31.05 2714.89,-28.6 2715.61,-35.56"/>
</a>
</g>
</g>
<!-- Node24 -->
<g id="Node000024" class="node">
<title>Node24</title>
<g id="a_Node000024"><a xlink:title=" ">
<polygon fill="#e0e0e0" stroke="#999999" points="3101.25,-32 2906.75,-32 2906.75,0 3101.25,0 3101.25,-32"/>
<text text-anchor="start" x="2914.75" y="-18.5" font-family="Helvetica,sans-Serif" font-size="10.00">com.github.lgooddatepicker.components.</text>
<text text-anchor="middle" x="3004" y="-6.5" font-family="Helvetica,sans-Serif" font-size="10.00">TimePicker</text>
</a>
</g>
</g>
<!-- Node1&#45;&gt;Node24 -->
<g id="edge23_Node000001_Node000024" class="edge">
<title>Node1&#45;&gt;Node24</title>
<g id="a_edge23_Node000001_Node000024"><a xlink:title=" ">
<path fill="none" stroke="#63b8ff" d="M1649.76,-82.72C1874.05,-81.33 2424.39,-73.66 2894.98,-32.21"/>
<polygon fill="#63b8ff" stroke="#63b8ff" points="2895.27,-35.7 2904.92,-31.33 2894.65,-28.72 2895.27,-35.7"/>
</a>
</g>
</g>
<!-- Node25 -->
<g id="Node000025" class="node">
<title>Node25</title>
<g id="a_Node000025"><a xlink:title=" ">
<polygon fill="#e0e0e0" stroke="#999999" points="3252.5,-32 3119.5,-32 3119.5,0 3252.5,0 3252.5,-32"/>
<text text-anchor="start" x="3127.5" y="-18.5" font-family="Helvetica,sans-Serif" font-size="10.00">fr.softsf.canscan.constant.</text>
<text text-anchor="middle" x="3186" y="-6.5" font-family="Helvetica,sans-Serif" font-size="10.00">StringConstants</text>
</a>
</g>
</g>
<!-- Node1&#45;&gt;Node25 -->
<g id="edge24_Node000001_Node000025" class="edge">
<title>Node1&#45;&gt;Node25</title>
<g id="a_edge24_Node000001_Node000025"><a xlink:title=" ">
<path fill="none" stroke="#63b8ff" d="M1649.86,-81.82C1947.07,-78.08 2804.56,-64.79 3108.36,-32.01"/>
<polygon fill="#63b8ff" stroke="#63b8ff" points="3108.31,-35.54 3117.86,-30.95 3107.54,-28.58 3108.31,-35.54"/>
</a>
</g>
</g>
<!-- Node26 -->
<g id="Node000026" class="node">
<title>Node26</title>
<g id="a_Node000026"><a xlink:title=" ">
<polygon fill="#e0e0e0" stroke="#999999" points="3397.12,-32 3270.88,-32 3270.88,0 3397.12,0 3397.12,-32"/>
<text text-anchor="start" x="3278.88" y="-18.5" font-family="Helvetica,sans-Serif" font-size="10.00">fr.softsf.canscan.util.Use</text>
<text text-anchor="middle" x="3334" y="-6.5" font-family="Helvetica,sans-Serif" font-size="10.00">LucioleFont</text>
</a>
</g>
</g>
<!-- Node1&#45;&gt;Node26 -->
<g id="edge25_Node000001_Node000026" class="edge">
<title>Node1&#45;&gt;Node26</title>
<g id="a_edge25_Node000001_Node000026"><a xlink:title=" ">
<path fill="none" stroke="#63b8ff" d="M1649.8,-82.31C1966.46,-79.82 2925.27,-69.42 3259.36,-32.14"/>
<polygon fill="#63b8ff" stroke="#63b8ff" points="3259.46,-35.65 3268.99,-31.03 3258.66,-28.7 3259.46,-35.65"/>
</a>
</g>
</g>
</g>
</svg>

<g id="navigator" transform="translate(0 0)" fill="#404254">
  <rect fill="#f2f5e9" fill-opacity="0.5" stroke="#606060" stroke-width=".5" x="0" y="0" width="60" height="60"/>
  <use id="zoomplus" xlink:href="#zoomPlus" x="17" y="9" onmousedown="handleZoom(evt,'in')"/>
  <use id="zoomminus" xlink:href="#zoomMin" x="42" y="9" onmousedown="handleZoom(evt,'out')"/>
  <use id="reset" xlink:href="#resetDef" x="30" y="36" onmousedown="handleReset()"/>
   <use id="arrowup" xlink:href="#arrowUp" x="0" y="0" onmousedown="handlePan(0,-1)"/>
  <use id="arrowright" xlink:href="#arrowRight" x="0" y="0" onmousedown="handlePan(1,0)"/>
  <use id="arrowdown" xlink:href="#arrowDown" x="0" y="0" onmousedown="handlePan(0,1)"/>
  <use id="arrowleft" xlink:href="#arrowLeft" x="0" y="0" onmousedown="handlePan(-1,0)"/>
</g>
<svg viewBox="0 0 15 15" width="100%" height="30px" preserveAspectRatio="xMaxYMin meet">
 <g id="arrow_out" transform="scale(0.3 0.3)">
  <a xlink:href="_native_image_config_simulator_8java__incl_org.svg" target="_base">
   <rect id="button" ry="5" rx="5" y="6" x="6" height="38" width="38"
        fill="#f2f5e9" fill-opacity="0.5" stroke="#606060" stroke-width="1.0"/>
   <path id="arrow"
     d="M 11.500037,31.436501 C 11.940474,20.09759 22.043105,11.32322 32.158766,21.979434 L 37.068811,17.246167 C 37.068811,17.246167 37.088388,32 37.088388,32 L 22.160133,31.978069 C 22.160133,31.978069 26.997745,27.140456 26.997745,27.140456 C 18.528582,18.264221 13.291696,25.230495 11.500037,31.436501 z"
     style="fill:#404040;"/>
  </a>
 </g>
</svg>

<style type='text/css'>
<![CDATA[
[data-mouse-over-selected='false'] { opacity: 0.7; }
[data-mouse-over-selected='true']  { opacity: 1.0; }
]]>
</style>
<script type="application/ecmascript"><![CDATA[
document.addEventListener('DOMContentLoaded', (event) => {
  highlightEdges();
  highlightAdjacentNodes();
});
]]></script>
</svg>
