<?xml version="1.0" encoding="UTF-8" standalone="no"?>
<!DOCTYPE svg PUBLIC "-//W3C//DTD SVG 1.1//EN"
 "http://www.w3.org/Graphics/SVG/1.1/DTD/svg11.dtd">
<!-- Generated by graphviz version 12.2.1 (20241206.2353)
 -->
<!-- Title: src/test/java/fr/softsf/canscan/NativeImageConfigSimulator.java Pages: 1 -->
<svg width="3041pt" height="108pt"
 viewBox="0.00 0.00 3041.12 108.00" xmlns="http://www.w3.org/2000/svg" xmlns:xlink="http://www.w3.org/1999/xlink">
<g id="graph0" class="graph" transform="scale(1 1) rotate(0) translate(4 104)">
<title>src/test/java/fr/softsf/canscan/NativeImageConfigSimulator.java</title>
<!-- Node1 -->
<g id="Node000001" class="node">
<title>Node1</title>
<g id="a_Node000001"><a xlink:title=" ">
<polygon fill="#999999" stroke="#666666" points="1507.5,-100 1302.5,-100 1302.5,-68 1507.5,-68 1507.5,-100"/>
<text text-anchor="start" x="1310.5" y="-86.5" font-family="Helvetica,sans-Serif" font-size="10.00">src/test/java/fr/softsf</text>
<text text-anchor="middle" x="1405" y="-74.5" font-family="Helvetica,sans-Serif" font-size="10.00">/canscan/NativeImageConfigSimulator.java</text>
</a>
</g>
</g>
<!-- Node2 -->
<g id="Node000002" class="node">
<title>Node2</title>
<g id="a_Node000002"><a xlink:title=" ">
<polygon fill="#e0e0e0" stroke="#999999" points="106,-26 0,-26 0,-6 106,-6 106,-26"/>
<text text-anchor="middle" x="53" y="-12.5" font-family="Helvetica,sans-Serif" font-size="10.00">java.awt.Component</text>
</a>
</g>
</g>
<!-- Node1&#45;&gt;Node2 -->
<g id="edge1_Node000001_Node000002" class="edge">
<title>Node1&#45;&gt;Node2</title>
<g id="a_edge1_Node000001_Node000002"><a xlink:title=" ">
<path fill="none" stroke="#63b8ff" d="M1302.28,-81.56C1038.77,-77.45 343.51,-63.84 115,-32 109.39,-31.22 103.54,-30.15 97.77,-28.94"/>
<polygon fill="#63b8ff" stroke="#63b8ff" points="98.88,-25.6 88.35,-26.81 97.34,-32.43 98.88,-25.6"/>
</a>
</g>
</g>
<!-- Node3 -->
<g id="Node000003" class="node">
<title>Node3</title>
<g id="a_Node000003"><a xlink:title=" ">
<polygon fill="#e0e0e0" stroke="#999999" points="221.88,-26 124.12,-26 124.12,-6 221.88,-6 221.88,-26"/>
<text text-anchor="middle" x="173" y="-12.5" font-family="Helvetica,sans-Serif" font-size="10.00">java.awt.Container</text>
</a>
</g>
</g>
<!-- Node1&#45;&gt;Node3 -->
<g id="edge2_Node000001_Node000003" class="edge">
<title>Node1&#45;&gt;Node3</title>
<g id="a_edge2_Node000001_Node000003"><a xlink:title=" ">
<path fill="none" stroke="#63b8ff" d="M1302.12,-81.3C1055.53,-76.77 436.05,-62.62 231,-32 226,-31.25 220.82,-30.25 215.69,-29.12"/>
<polygon fill="#63b8ff" stroke="#63b8ff" points="216.67,-25.75 206.13,-26.82 215.04,-32.56 216.67,-25.75"/>
</a>
</g>
</g>
<!-- Node4 -->
<g id="Node000004" class="node">
<title>Node4</title>
<g id="a_Node000004"><a xlink:title=" ">
<polygon fill="#e0e0e0" stroke="#999999" points="318.12,-26 239.88,-26 239.88,-6 318.12,-6 318.12,-26"/>
<text text-anchor="middle" x="279" y="-12.5" font-family="Helvetica,sans-Serif" font-size="10.00">java.awt.Point</text>
</a>
</g>
</g>
<!-- Node1&#45;&gt;Node4 -->
<g id="edge3_Node000001_Node000004" class="edge">
<title>Node1&#45;&gt;Node4</title>
<g id="a_edge3_Node000001_Node000004"><a xlink:title=" ">
<path fill="none" stroke="#63b8ff" d="M1302.35,-81.48C1070.53,-77.52 512.31,-64.78 327,-32 323.39,-31.36 319.67,-30.53 315.98,-29.58"/>
<polygon fill="#63b8ff" stroke="#63b8ff" points="317.14,-26.27 306.56,-26.9 315.22,-33.01 317.14,-26.27"/>
</a>
</g>
</g>
<!-- Node5 -->
<g id="Node000005" class="node">
<title>Node5</title>
<g id="a_Node000005"><a xlink:title=" ">
<polygon fill="#e0e0e0" stroke="#999999" points="418,-26 336,-26 336,-6 418,-6 418,-26"/>
<text text-anchor="middle" x="377" y="-12.5" font-family="Helvetica,sans-Serif" font-size="10.00">java.awt.Robot</text>
</a>
</g>
</g>
<!-- Node1&#45;&gt;Node5 -->
<g id="edge4_Node000001_Node000005" class="edge">
<title>Node1&#45;&gt;Node5</title>
<g id="a_edge4_Node000001_Node000005"><a xlink:title=" ">
<path fill="none" stroke="#63b8ff" d="M1302.27,-80.75C1086.57,-75.53 592.74,-60.75 427,-32 423.13,-31.33 419.14,-30.46 415.18,-29.47"/>
<polygon fill="#63b8ff" stroke="#63b8ff" points="416.25,-26.13 405.68,-26.85 414.4,-32.88 416.25,-26.13"/>
</a>
</g>
</g>
<!-- Node6 -->
<g id="Node000006" class="node">
<title>Node6</title>
<g id="a_Node000006"><a xlink:title=" ">
<polygon fill="#e0e0e0" stroke="#999999" points="527.5,-26 436.5,-26 436.5,-6 527.5,-6 527.5,-26"/>
<text text-anchor="middle" x="482" y="-12.5" font-family="Helvetica,sans-Serif" font-size="10.00">java.awt.Window</text>
</a>
</g>
</g>
<!-- Node1&#45;&gt;Node6 -->
<g id="edge5_Node000001_Node000006" class="edge">
<title>Node1&#45;&gt;Node6</title>
<g id="a_edge5_Node000001_Node000006"><a xlink:title=" ">
<path fill="none" stroke="#63b8ff" d="M1302.02,-83.83C1138.7,-83.6 810.73,-76.87 537,-32 532.57,-31.27 527.98,-30.33 523.42,-29.28"/>
<polygon fill="#63b8ff" stroke="#63b8ff" points="524.32,-25.89 513.77,-26.84 522.61,-32.68 524.32,-25.89"/>
</a>
</g>
</g>
<!-- Node7 -->
<g id="Node000007" class="node">
<title>Node7</title>
<g id="a_Node000007"><a xlink:title=" ">
<polygon fill="#e0e0e0" stroke="#999999" points="676,-26 546,-26 546,-6 676,-6 676,-26"/>
<text text-anchor="middle" x="611" y="-12.5" font-family="Helvetica,sans-Serif" font-size="10.00">java.awt.event.InputEvent</text>
</a>
</g>
</g>
<!-- Node1&#45;&gt;Node7 -->
<g id="edge6_Node000001_Node000007" class="edge">
<title>Node1&#45;&gt;Node7</title>
<g id="a_edge6_Node000001_Node000007"><a xlink:title=" ">
<path fill="none" stroke="#63b8ff" d="M1302.03,-79.89C1161.9,-74.71 903.53,-61.76 685,-32 678.18,-31.07 671.04,-29.89 664,-28.6"/>
<polygon fill="#63b8ff" stroke="#63b8ff" points="664.68,-25.17 654.2,-26.72 663.36,-32.04 664.68,-25.17"/>
</a>
</g>
</g>
<!-- Node8 -->
<g id="Node000008" class="node">
<title>Node8</title>
<g id="a_Node000008"><a xlink:title=" ">
<polygon fill="#e0e0e0" stroke="#999999" points="819.75,-26 694.25,-26 694.25,-6 819.75,-6 819.75,-26"/>
<text text-anchor="middle" x="757" y="-12.5" font-family="Helvetica,sans-Serif" font-size="10.00">java.awt.event.KeyEvent</text>
</a>
</g>
</g>
<!-- Node1&#45;&gt;Node8 -->
<g id="edge7_Node000001_Node000008" class="edge">
<title>Node1&#45;&gt;Node8</title>
<g id="a_edge7_Node000001_Node000008"><a xlink:title=" ">
<path fill="none" stroke="#63b8ff" d="M1302.09,-77.53C1186.52,-70.55 993.61,-56.35 829,-32 822.61,-31.05 815.93,-29.9 809.33,-28.65"/>
<polygon fill="#63b8ff" stroke="#63b8ff" points="810.33,-25.28 799.84,-26.77 808.97,-32.14 810.33,-25.28"/>
</a>
</g>
</g>
<!-- Node9 -->
<g id="Node000009" class="node">
<title>Node9</title>
<g id="a_Node000009"><a xlink:title=" ">
<polygon fill="#e0e0e0" stroke="#999999" points="924.25,-26 837.75,-26 837.75,-6 924.25,-6 924.25,-26"/>
<text text-anchor="middle" x="881" y="-12.5" font-family="Helvetica,sans-Serif" font-size="10.00">java.util.Objects</text>
</a>
</g>
</g>
<!-- Node1&#45;&gt;Node9 -->
<g id="edge8_Node000001_Node000009" class="edge">
<title>Node1&#45;&gt;Node9</title>
<g id="a_edge8_Node000001_Node000009"><a xlink:title=" ">
<path fill="none" stroke="#63b8ff" d="M1302.27,-76.87C1206.36,-69.96 1059.55,-56.38 934,-32 930.13,-31.25 926.13,-30.35 922.14,-29.37"/>
<polygon fill="#63b8ff" stroke="#63b8ff" points="923.08,-26 912.52,-26.84 921.3,-32.77 923.08,-26"/>
</a>
</g>
</g>
<!-- Node10 -->
<g id="Node000010" class="node">
<title>Node10</title>
<g id="a_Node000010"><a xlink:title=" ">
<polygon fill="#e0e0e0" stroke="#999999" points="1047.25,-26 942.75,-26 942.75,-6 1047.25,-6 1047.25,-26"/>
<text text-anchor="middle" x="995" y="-12.5" font-family="Helvetica,sans-Serif" font-size="10.00">javax.swing.JButton</text>
</a>
</g>
</g>
<!-- Node1&#45;&gt;Node10 -->
<g id="edge9_Node000001_Node000010" class="edge">
<title>Node1&#45;&gt;Node10</title>
<g id="a_edge9_Node000001_Node000010"><a xlink:title=" ">
<path fill="none" stroke="#63b8ff" d="M1302.24,-70.62C1232.49,-61.57 1138.33,-48.1 1056,-32 1051.42,-31.11 1046.68,-30.09 1041.94,-29.02"/>
<polygon fill="#63b8ff" stroke="#63b8ff" points="1043.01,-25.68 1032.47,-26.8 1041.41,-32.49 1043.01,-25.68"/>
</a>
</g>
</g>
<!-- Node11 -->
<g id="Node000011" class="node">
<title>Node11</title>
<g id="a_Node000011"><a xlink:title=" ">
<polygon fill="#e0e0e0" stroke="#999999" points="1201,-26 1065,-26 1065,-6 1201,-6 1201,-26"/>
<text text-anchor="middle" x="1133" y="-12.5" font-family="Helvetica,sans-Serif" font-size="10.00">javax.swing.JColorChooser</text>
</a>
</g>
</g>
<!-- Node1&#45;&gt;Node11 -->
<g id="edge10_Node000001_Node000011" class="edge">
<title>Node1&#45;&gt;Node11</title>
<g id="a_edge10_Node000001_Node000011"><a xlink:title=" ">
<path fill="none" stroke="#63b8ff" d="M1341.23,-67.53C1292.98,-55.82 1227.65,-39.97 1183.12,-29.16"/>
<polygon fill="#63b8ff" stroke="#63b8ff" points="1184,-25.77 1173.46,-26.82 1182.35,-32.58 1184,-25.77"/>
</a>
</g>
</g>
<!-- Node12 -->
<g id="Node000012" class="node">
<title>Node12</title>
<g id="a_Node000012"><a xlink:title=" ">
<polygon fill="#e0e0e0" stroke="#999999" points="1322.88,-26 1219.12,-26 1219.12,-6 1322.88,-6 1322.88,-26"/>
<text text-anchor="middle" x="1271" y="-12.5" font-family="Helvetica,sans-Serif" font-size="10.00">javax.swing.JDialog</text>
</a>
</g>
</g>
<!-- Node1&#45;&gt;Node12 -->
<g id="edge11_Node000001_Node000012" class="edge">
<title>Node1&#45;&gt;Node12</title>
<g id="a_edge11_Node000001_Node000012"><a xlink:title=" ">
<path fill="none" stroke="#63b8ff" d="M1373.58,-67.53C1351.48,-56.64 1322.1,-42.17 1300.45,-31.5"/>
<polygon fill="#63b8ff" stroke="#63b8ff" points="1302.08,-28.41 1291.56,-27.13 1298.99,-34.69 1302.08,-28.41"/>
</a>
</g>
</g>
<!-- Node13 -->
<g id="Node000013" class="node">
<title>Node13</title>
<g id="a_Node000013"><a xlink:title=" ">
<polygon fill="#e0e0e0" stroke="#999999" points="1469.25,-26 1340.75,-26 1340.75,-6 1469.25,-6 1469.25,-26"/>
<text text-anchor="middle" x="1405" y="-12.5" font-family="Helvetica,sans-Serif" font-size="10.00">javax.swing.JFileChooser</text>
</a>
</g>
</g>
<!-- Node1&#45;&gt;Node13 -->
<g id="edge12_Node000001_Node000013" class="edge">
<title>Node1&#45;&gt;Node13</title>
<g id="a_edge12_Node000001_Node000013"><a xlink:title=" ">
<path fill="none" stroke="#63b8ff" d="M1405,-67.69C1405,-58.8 1405,-47.46 1405,-37.77"/>
<polygon fill="#63b8ff" stroke="#63b8ff" points="1408.5,-37.83 1405,-27.83 1401.5,-37.83 1408.5,-37.83"/>
</a>
</g>
</g>
<!-- Node14 -->
<g id="Node000014" class="node">
<title>Node14</title>
<g id="a_Node000014"><a xlink:title=" ">
<polygon fill="#e0e0e0" stroke="#999999" points="1606.75,-26 1487.25,-26 1487.25,-6 1606.75,-6 1606.75,-26"/>
<text text-anchor="middle" x="1547" y="-12.5" font-family="Helvetica,sans-Serif" font-size="10.00">javax.swing.JMenuItem</text>
</a>
</g>
</g>
<!-- Node1&#45;&gt;Node14 -->
<g id="edge13_Node000001_Node000014" class="edge">
<title>Node1&#45;&gt;Node14</title>
<g id="a_edge13_Node000001_Node000014"><a xlink:title=" ">
<path fill="none" stroke="#63b8ff" d="M1438.29,-67.53C1461.93,-56.54 1493.42,-41.9 1516.42,-31.21"/>
<polygon fill="#63b8ff" stroke="#63b8ff" points="1517.68,-34.49 1525.27,-27.1 1514.73,-28.14 1517.68,-34.49"/>
</a>
</g>
</g>
<!-- Node15 -->
<g id="Node000015" class="node">
<title>Node15</title>
<g id="a_Node000015"><a xlink:title=" ">
<polygon fill="#e0e0e0" stroke="#999999" points="1751.5,-26 1624.5,-26 1624.5,-6 1751.5,-6 1751.5,-26"/>
<text text-anchor="middle" x="1688" y="-12.5" font-family="Helvetica,sans-Serif" font-size="10.00">javax.swing.JOptionPane</text>
</a>
</g>
</g>
<!-- Node1&#45;&gt;Node15 -->
<g id="edge14_Node000001_Node000015" class="edge">
<title>Node1&#45;&gt;Node15</title>
<g id="a_edge14_Node000001_Node000015"><a xlink:title=" ">
<path fill="none" stroke="#63b8ff" d="M1471.35,-67.53C1521.76,-55.77 1590.1,-39.83 1636.44,-29.02"/>
<polygon fill="#63b8ff" stroke="#63b8ff" points="1637.02,-32.48 1645.96,-26.8 1635.43,-25.67 1637.02,-32.48"/>
</a>
</g>
</g>
<!-- Node16 -->
<g id="Node000016" class="node">
<title>Node16</title>
<g id="a_Node000016"><a xlink:title=" ">
<polygon fill="#e0e0e0" stroke="#999999" points="1896.88,-26 1769.12,-26 1769.12,-6 1896.88,-6 1896.88,-26"/>
<text text-anchor="middle" x="1833" y="-12.5" font-family="Helvetica,sans-Serif" font-size="10.00">javax.swing.JPopupMenu</text>
</a>
</g>
</g>
<!-- Node1&#45;&gt;Node16 -->
<g id="edge15_Node000001_Node000016" class="edge">
<title>Node1&#45;&gt;Node16</title>
<g id="a_edge15_Node000001_Node000016"><a xlink:title=" ">
<path fill="none" stroke="#63b8ff" d="M1507.7,-70.03C1578.97,-60.61 1675.98,-46.93 1761,-32 1766.67,-31 1772.58,-29.89 1778.46,-28.74"/>
<polygon fill="#63b8ff" stroke="#63b8ff" points="1779.08,-32.19 1788.2,-26.78 1777.7,-25.32 1779.08,-32.19"/>
</a>
</g>
</g>
<!-- Node17 -->
<g id="Node000017" class="node">
<title>Node17</title>
<g id="a_Node000017"><a xlink:title=" ">
<polygon fill="#e0e0e0" stroke="#999999" points="2045,-26 1915,-26 1915,-6 2045,-6 2045,-26"/>
<text text-anchor="middle" x="1980" y="-12.5" font-family="Helvetica,sans-Serif" font-size="10.00">javax.swing.JRadioButton</text>
</a>
</g>
</g>
<!-- Node1&#45;&gt;Node17 -->
<g id="edge16_Node000001_Node000017" class="edge">
<title>Node1&#45;&gt;Node17</title>
<g id="a_edge16_Node000001_Node000017"><a xlink:title=" ">
<path fill="none" stroke="#63b8ff" d="M1507.56,-75.53C1609.09,-67.45 1768.78,-52.84 1906,-32 1912.48,-31.02 1919.24,-29.85 1925.94,-28.6"/>
<polygon fill="#63b8ff" stroke="#63b8ff" points="1926.44,-32.07 1935.6,-26.73 1925.12,-25.19 1926.44,-32.07"/>
</a>
</g>
</g>
<!-- Node18 -->
<g id="Node000018" class="node">
<title>Node18</title>
<g id="a_Node000018"><a xlink:title=" ">
<polygon fill="#e0e0e0" stroke="#999999" points="2163.38,-26 2062.62,-26 2062.62,-6 2163.38,-6 2163.38,-26"/>
<text text-anchor="middle" x="2113" y="-12.5" font-family="Helvetica,sans-Serif" font-size="10.00">javax.swing.JSlider</text>
</a>
</g>
</g>
<!-- Node1&#45;&gt;Node18 -->
<g id="edge17_Node000001_Node000018" class="edge">
<title>Node1&#45;&gt;Node18</title>
<g id="a_edge17_Node000001_Node000018"><a xlink:title=" ">
<path fill="none" stroke="#63b8ff" d="M1507.94,-80.32C1636.48,-75.74 1862.76,-63.59 2054,-32 2058.88,-31.19 2063.95,-30.18 2068.98,-29.06"/>
<polygon fill="#63b8ff" stroke="#63b8ff" points="2069.43,-32.55 2078.35,-26.84 2067.81,-25.74 2069.43,-32.55"/>
</a>
</g>
</g>
<!-- Node19 -->
<g id="Node000019" class="node">
<title>Node19</title>
<g id="a_Node000019"><a xlink:title=" ">
<polygon fill="#e0e0e0" stroke="#999999" points="2296.5,-26 2181.5,-26 2181.5,-6 2296.5,-6 2296.5,-26"/>
<text text-anchor="middle" x="2239" y="-12.5" font-family="Helvetica,sans-Serif" font-size="10.00">javax.swing.JTextArea</text>
</a>
</g>
</g>
<!-- Node1&#45;&gt;Node19 -->
<g id="edge18_Node000001_Node000019" class="edge">
<title>Node1&#45;&gt;Node19</title>
<g id="a_edge18_Node000001_Node000019"><a xlink:title=" ">
<path fill="none" stroke="#63b8ff" d="M1507.88,-81.18C1655.56,-77.43 1935.9,-66.07 2172,-32 2178.05,-31.13 2184.36,-30 2190.58,-28.76"/>
<polygon fill="#63b8ff" stroke="#63b8ff" points="2191.08,-32.23 2200.15,-26.75 2189.64,-25.39 2191.08,-32.23"/>
</a>
</g>
</g>
<!-- Node20 -->
<g id="Node000020" class="node">
<title>Node20</title>
<g id="a_Node000020"><a xlink:title=" ">
<polygon fill="#e0e0e0" stroke="#999999" points="2429.88,-26 2314.12,-26 2314.12,-6 2429.88,-6 2429.88,-26"/>
<text text-anchor="middle" x="2372" y="-12.5" font-family="Helvetica,sans-Serif" font-size="10.00">javax.swing.JTextField</text>
</a>
</g>
</g>
<!-- Node1&#45;&gt;Node20 -->
<g id="edge19_Node000001_Node000020" class="edge">
<title>Node1&#45;&gt;Node20</title>
<g id="a_edge19_Node000001_Node000020"><a xlink:title=" ">
<path fill="none" stroke="#63b8ff" d="M1507.9,-82.74C1675.8,-81.08 2018.8,-72.48 2306,-32 2312.04,-31.15 2318.34,-30.03 2324.54,-28.78"/>
<polygon fill="#63b8ff" stroke="#63b8ff" points="2325.02,-32.26 2334.07,-26.74 2323.55,-25.41 2325.02,-32.26"/>
</a>
</g>
</g>
<!-- Node21 -->
<g id="Node000021" class="node">
<title>Node21</title>
<g id="a_Node000021"><a xlink:title=" ">
<polygon fill="#e0e0e0" stroke="#999999" points="2559.62,-26 2448.38,-26 2448.38,-6 2559.62,-6 2559.62,-26"/>
<text text-anchor="middle" x="2504" y="-12.5" font-family="Helvetica,sans-Serif" font-size="10.00">javax.swing.JWindow</text>
</a>
</g>
</g>
<!-- Node1&#45;&gt;Node21 -->
<g id="edge20_Node000001_Node000021" class="edge">
<title>Node1&#45;&gt;Node21</title>
<g id="a_edge20_Node000001_Node000021"><a xlink:title=" ">
<path fill="none" stroke="#63b8ff" d="M1507.93,-83.95C1694.49,-84.33 2100.53,-79.02 2439,-32 2444.95,-31.17 2451.16,-30.07 2457.28,-28.83"/>
<polygon fill="#63b8ff" stroke="#63b8ff" points="2457.6,-32.34 2466.63,-26.8 2456.12,-25.49 2457.6,-32.34"/>
</a>
</g>
</g>
<!-- Node22 -->
<g id="Node000022" class="node">
<title>Node22</title>
<g id="a_Node000022"><a xlink:title=" ">
<polygon fill="#e0e0e0" stroke="#999999" points="2708.38,-26 2577.62,-26 2577.62,-6 2708.38,-6 2708.38,-26"/>
<text text-anchor="middle" x="2643" y="-12.5" font-family="Helvetica,sans-Serif" font-size="10.00">javax.swing.SwingUtilities</text>
</a>
</g>
</g>
<!-- Node1&#45;&gt;Node22 -->
<g id="edge21_Node000001_Node000022" class="edge">
<title>Node1&#45;&gt;Node22</title>
<g id="a_edge21_Node000001_Node000022"><a xlink:title=" ">
<path fill="none" stroke="#63b8ff" d="M1507.82,-83.87C1711.27,-84.41 2179.24,-79.74 2569,-32 2576.09,-31.13 2583.51,-29.95 2590.8,-28.64"/>
<polygon fill="#63b8ff" stroke="#63b8ff" points="2591.44,-32.08 2600.6,-26.76 2590.12,-25.2 2591.44,-32.08"/>
</a>
</g>
</g>
<!-- Node23 -->
<g id="Node000023" class="node">
<title>Node23</title>
<g id="a_Node000023"><a xlink:title=" ">
<polygon fill="#e0e0e0" stroke="#999999" points="2889.12,-32 2726.88,-32 2726.88,0 2889.12,0 2889.12,-32"/>
<text text-anchor="start" x="2734.88" y="-18.5" font-family="Helvetica,sans-Serif" font-size="10.00">com.formdev.flatlaf.intellijthemes.</text>
<text text-anchor="middle" x="2808" y="-6.5" font-family="Helvetica,sans-Serif" font-size="10.00">FlatCobalt2IJTheme</text>
</a>
</g>
</g>
<!-- Node1&#45;&gt;Node23 -->
<g id="edge22_Node000001_Node000023" class="edge">
<title>Node1&#45;&gt;Node23</title>
<g id="a_edge22_Node000001_Node000023"><a xlink:title=" ">
<path fill="none" stroke="#63b8ff" d="M1507.79,-83.35C1727.53,-83.15 2259.32,-77.62 2715.27,-32.07"/>
<polygon fill="#63b8ff" stroke="#63b8ff" points="2715.6,-35.55 2725.2,-31.07 2714.9,-28.59 2715.6,-35.55"/>
</a>
</g>
</g>
<!-- Node24 -->
<g id="Node000024" class="node">
<title>Node24</title>
<g id="a_Node000024"><a xlink:title=" ">
<polygon fill="#e0e0e0" stroke="#999999" points="3033.12,-32 2906.88,-32 2906.88,0 3033.12,0 3033.12,-32"/>
<text text-anchor="start" x="2914.88" y="-18.5" font-family="Helvetica,sans-Serif" font-size="10.00">fr.softsf.canscan.util.Use</text>
<text text-anchor="middle" x="2970" y="-6.5" font-family="Helvetica,sans-Serif" font-size="10.00">LucioleFont</text>
</a>
</g>
</g>
<!-- Node1&#45;&gt;Node24 -->
<g id="edge23_Node000001_Node000024" class="edge">
<title>Node1&#45;&gt;Node24</title>
<g id="a_edge23_Node000001_Node000024"><a xlink:title=" ">
<path fill="none" stroke="#63b8ff" d="M1507.92,-81.78C1795.79,-78.01 2606.44,-64.82 2895.2,-32.16"/>
<polygon fill="#63b8ff" stroke="#63b8ff" points="2895.46,-35.66 2904.99,-31.02 2894.65,-28.71 2895.46,-35.66"/>
</a>
</g>
</g>
</g>
</svg>
