<?xml version="1.0" encoding="UTF-8" standalone="no"?>
<!DOCTYPE svg PUBLIC "-//W3C//DTD SVG 1.1//EN"
 "http://www.w3.org/Graphics/SVG/1.1/DTD/svg11.dtd">
<!-- Generated by graphviz version 12.2.1 (20241206.2353)
 -->
<!-- Title: src/test/java/fr/softsf/canscan/NativeImageConfigSimulator.java Pages: 1 -->
<svg width="2897pt" height="108pt"
 viewBox="0.00 0.00 2897.12 108.00" xmlns="http://www.w3.org/2000/svg" xmlns:xlink="http://www.w3.org/1999/xlink">
<g id="graph0" class="graph" transform="scale(1 1) rotate(0) translate(4 104)">
<title>src/test/java/fr/softsf/canscan/NativeImageConfigSimulator.java</title>
<!-- Node1 -->
<g id="Node000001" class="node">
<title>Node1</title>
<g id="a_Node000001"><a xlink:title=" ">
<polygon fill="#999999" stroke="#666666" points="1440.5,-100 1235.5,-100 1235.5,-68 1440.5,-68 1440.5,-100"/>
<text text-anchor="start" x="1243.5" y="-86.5" font-family="Helvetica,sans-Serif" font-size="10.00">src/test/java/fr/softsf</text>
<text text-anchor="middle" x="1338" y="-74.5" font-family="Helvetica,sans-Serif" font-size="10.00">/canscan/NativeImageConfigSimulator.java</text>
</a>
</g>
</g>
<!-- Node2 -->
<g id="Node000002" class="node">
<title>Node2</title>
<g id="a_Node000002"><a xlink:title=" ">
<polygon fill="#e0e0e0" stroke="#999999" points="106,-26 0,-26 0,-6 106,-6 106,-26"/>
<text text-anchor="middle" x="53" y="-12.5" font-family="Helvetica,sans-Serif" font-size="10.00">java.awt.Component</text>
</a>
</g>
</g>
<!-- Node1&#45;&gt;Node2 -->
<g id="edge1_Node000001_Node000002" class="edge">
<title>Node1&#45;&gt;Node2</title>
<g id="a_edge1_Node000001_Node000002"><a xlink:title=" ">
<path fill="none" stroke="#63b8ff" d="M1235.09,-81.3C981.21,-76.69 330.05,-62.2 115,-32 109.39,-31.21 103.54,-30.14 97.78,-28.93"/>
<polygon fill="#63b8ff" stroke="#63b8ff" points="98.88,-25.59 88.36,-26.8 97.34,-32.42 98.88,-25.59"/>
</a>
</g>
</g>
<!-- Node3 -->
<g id="Node000003" class="node">
<title>Node3</title>
<g id="a_Node000003"><a xlink:title=" ">
<polygon fill="#e0e0e0" stroke="#999999" points="221.88,-26 124.12,-26 124.12,-6 221.88,-6 221.88,-26"/>
<text text-anchor="middle" x="173" y="-12.5" font-family="Helvetica,sans-Serif" font-size="10.00">java.awt.Container</text>
</a>
</g>
</g>
<!-- Node1&#45;&gt;Node3 -->
<g id="edge2_Node000001_Node000003" class="edge">
<title>Node1&#45;&gt;Node3</title>
<g id="a_edge2_Node000001_Node000003"><a xlink:title=" ">
<path fill="none" stroke="#63b8ff" d="M1235.35,-80.99C999.16,-75.91 422.79,-60.9 231,-32 226.01,-31.25 220.82,-30.24 215.69,-29.1"/>
<polygon fill="#63b8ff" stroke="#63b8ff" points="216.68,-25.74 206.14,-26.81 215.04,-32.55 216.68,-25.74"/>
</a>
</g>
</g>
<!-- Node4 -->
<g id="Node000004" class="node">
<title>Node4</title>
<g id="a_Node000004"><a xlink:title=" ">
<polygon fill="#e0e0e0" stroke="#999999" points="318.12,-26 239.88,-26 239.88,-6 318.12,-6 318.12,-26"/>
<text text-anchor="middle" x="279" y="-12.5" font-family="Helvetica,sans-Serif" font-size="10.00">java.awt.Point</text>
</a>
</g>
</g>
<!-- Node1&#45;&gt;Node4 -->
<g id="edge3_Node000001_Node000004" class="edge">
<title>Node1&#45;&gt;Node4</title>
<g id="a_edge3_Node000001_Node000004"><a xlink:title=" ">
<path fill="none" stroke="#63b8ff" d="M1235.14,-81.1C1013.92,-76.48 499.04,-62.71 327,-32 323.39,-31.36 319.67,-30.52 315.98,-29.57"/>
<polygon fill="#63b8ff" stroke="#63b8ff" points="317.14,-26.26 306.57,-26.88 315.22,-32.99 317.14,-26.26"/>
</a>
</g>
</g>
<!-- Node5 -->
<g id="Node000005" class="node">
<title>Node5</title>
<g id="a_Node000005"><a xlink:title=" ">
<polygon fill="#e0e0e0" stroke="#999999" points="418,-26 336,-26 336,-6 418,-6 418,-26"/>
<text text-anchor="middle" x="377" y="-12.5" font-family="Helvetica,sans-Serif" font-size="10.00">java.awt.Robot</text>
</a>
</g>
</g>
<!-- Node1&#45;&gt;Node5 -->
<g id="edge4_Node000001_Node000005" class="edge">
<title>Node1&#45;&gt;Node5</title>
<g id="a_edge4_Node000001_Node000005"><a xlink:title=" ">
<path fill="none" stroke="#63b8ff" d="M1235.35,-80.3C1030.95,-74.41 579.61,-58.78 427,-32 423.13,-31.32 419.14,-30.44 415.18,-29.45"/>
<polygon fill="#63b8ff" stroke="#63b8ff" points="416.26,-26.12 405.69,-26.84 414.4,-32.87 416.26,-26.12"/>
</a>
</g>
</g>
<!-- Node6 -->
<g id="Node000006" class="node">
<title>Node6</title>
<g id="a_Node000006"><a xlink:title=" ">
<polygon fill="#e0e0e0" stroke="#999999" points="527.5,-26 436.5,-26 436.5,-6 527.5,-6 527.5,-26"/>
<text text-anchor="middle" x="482" y="-12.5" font-family="Helvetica,sans-Serif" font-size="10.00">java.awt.Window</text>
</a>
</g>
</g>
<!-- Node1&#45;&gt;Node6 -->
<g id="edge5_Node000001_Node000006" class="edge">
<title>Node1&#45;&gt;Node6</title>
<g id="a_edge5_Node000001_Node000006"><a xlink:title=" ">
<path fill="none" stroke="#63b8ff" d="M1235.14,-83.09C1081.96,-81.72 785.28,-73.32 537,-32 532.57,-31.26 527.98,-30.31 523.43,-29.25"/>
<polygon fill="#63b8ff" stroke="#63b8ff" points="524.32,-25.87 513.77,-26.82 522.61,-32.66 524.32,-25.87"/>
</a>
</g>
</g>
<!-- Node7 -->
<g id="Node000007" class="node">
<title>Node7</title>
<g id="a_Node000007"><a xlink:title=" ">
<polygon fill="#e0e0e0" stroke="#999999" points="676,-26 546,-26 546,-6 676,-6 676,-26"/>
<text text-anchor="middle" x="611" y="-12.5" font-family="Helvetica,sans-Serif" font-size="10.00">java.awt.event.InputEvent</text>
</a>
</g>
</g>
<!-- Node1&#45;&gt;Node7 -->
<g id="edge6_Node000001_Node000007" class="edge">
<title>Node1&#45;&gt;Node7</title>
<g id="a_edge6_Node000001_Node000007"><a xlink:title=" ">
<path fill="none" stroke="#63b8ff" d="M1235.22,-78.85C1106.23,-72.76 878.42,-59.05 685,-32 678.27,-31.06 671.22,-29.88 664.27,-28.61"/>
<polygon fill="#63b8ff" stroke="#63b8ff" points="665.08,-25.2 654.6,-26.75 663.76,-32.07 665.08,-25.2"/>
</a>
</g>
</g>
<!-- Node8 -->
<g id="Node000008" class="node">
<title>Node8</title>
<g id="a_Node000008"><a xlink:title=" ">
<polygon fill="#e0e0e0" stroke="#999999" points="819.75,-26 694.25,-26 694.25,-6 819.75,-6 819.75,-26"/>
<text text-anchor="middle" x="757" y="-12.5" font-family="Helvetica,sans-Serif" font-size="10.00">java.awt.event.KeyEvent</text>
</a>
</g>
</g>
<!-- Node1&#45;&gt;Node8 -->
<g id="edge7_Node000001_Node000008" class="edge">
<title>Node1&#45;&gt;Node8</title>
<g id="a_edge7_Node000001_Node000008"><a xlink:title=" ">
<path fill="none" stroke="#63b8ff" d="M1235.23,-75.9C1132.14,-68.03 969.01,-53.54 829,-32 822.69,-31.03 816.11,-29.87 809.59,-28.62"/>
<polygon fill="#63b8ff" stroke="#63b8ff" points="810.72,-25.28 800.23,-26.77 809.36,-32.15 810.72,-25.28"/>
</a>
</g>
</g>
<!-- Node9 -->
<g id="Node000009" class="node">
<title>Node9</title>
<g id="a_Node000009"><a xlink:title=" ">
<polygon fill="#e0e0e0" stroke="#999999" points="924.25,-26 837.75,-26 837.75,-6 924.25,-6 924.25,-26"/>
<text text-anchor="middle" x="881" y="-12.5" font-family="Helvetica,sans-Serif" font-size="10.00">java.util.Objects</text>
</a>
</g>
</g>
<!-- Node1&#45;&gt;Node9 -->
<g id="edge8_Node000001_Node000009" class="edge">
<title>Node1&#45;&gt;Node9</title>
<g id="a_edge8_Node000001_Node000009"><a xlink:title=" ">
<path fill="none" stroke="#63b8ff" d="M1235.19,-74.32C1153.13,-66.36 1035.49,-52.65 934,-32 930.18,-31.22 926.24,-30.31 922.3,-29.33"/>
<polygon fill="#63b8ff" stroke="#63b8ff" points="923.38,-26 912.82,-26.82 921.59,-32.77 923.38,-26"/>
</a>
</g>
</g>
<!-- Node10 -->
<g id="Node000010" class="node">
<title>Node10</title>
<g id="a_Node000010"><a xlink:title=" ">
<polygon fill="#e0e0e0" stroke="#999999" points="1047.25,-26 942.75,-26 942.75,-6 1047.25,-6 1047.25,-26"/>
<text text-anchor="middle" x="995" y="-12.5" font-family="Helvetica,sans-Serif" font-size="10.00">javax.swing.JButton</text>
</a>
</g>
</g>
<!-- Node1&#45;&gt;Node10 -->
<g id="edge9_Node000001_Node000010" class="edge">
<title>Node1&#45;&gt;Node10</title>
<g id="a_edge9_Node000001_Node000010"><a xlink:title=" ">
<path fill="none" stroke="#63b8ff" d="M1244.03,-67.51C1189.06,-58.08 1118.41,-45.3 1056,-32 1051.74,-31.09 1047.33,-30.1 1042.91,-29.08"/>
<polygon fill="#63b8ff" stroke="#63b8ff" points="1044.02,-25.75 1033.48,-26.84 1042.41,-32.56 1044.02,-25.75"/>
</a>
</g>
</g>
<!-- Node11 -->
<g id="Node000011" class="node">
<title>Node11</title>
<g id="a_Node000011"><a xlink:title=" ">
<polygon fill="#e0e0e0" stroke="#999999" points="1201,-26 1065,-26 1065,-6 1201,-6 1201,-26"/>
<text text-anchor="middle" x="1133" y="-12.5" font-family="Helvetica,sans-Serif" font-size="10.00">javax.swing.JColorChooser</text>
</a>
</g>
</g>
<!-- Node1&#45;&gt;Node11 -->
<g id="edge10_Node000001_Node000011" class="edge">
<title>Node1&#45;&gt;Node11</title>
<g id="a_edge10_Node000001_Node000011"><a xlink:title=" ">
<path fill="none" stroke="#63b8ff" d="M1289.94,-67.53C1254.42,-56.09 1206.63,-40.71 1173.15,-29.93"/>
<polygon fill="#63b8ff" stroke="#63b8ff" points="1174.42,-26.66 1163.82,-26.92 1172.27,-33.32 1174.42,-26.66"/>
</a>
</g>
</g>
<!-- Node12 -->
<g id="Node000012" class="node">
<title>Node12</title>
<g id="a_Node000012"><a xlink:title=" ">
<polygon fill="#e0e0e0" stroke="#999999" points="1322.88,-26 1219.12,-26 1219.12,-6 1322.88,-6 1322.88,-26"/>
<text text-anchor="middle" x="1271" y="-12.5" font-family="Helvetica,sans-Serif" font-size="10.00">javax.swing.JDialog</text>
</a>
</g>
</g>
<!-- Node1&#45;&gt;Node12 -->
<g id="edge11_Node000001_Node000012" class="edge">
<title>Node1&#45;&gt;Node12</title>
<g id="a_edge11_Node000001_Node000012"><a xlink:title=" ">
<path fill="none" stroke="#63b8ff" d="M1322.46,-67.69C1312.31,-57.7 1299.04,-44.63 1288.52,-34.26"/>
<polygon fill="#63b8ff" stroke="#63b8ff" points="1291.12,-31.9 1281.54,-27.38 1286.2,-36.89 1291.12,-31.9"/>
</a>
</g>
</g>
<!-- Node13 -->
<g id="Node000013" class="node">
<title>Node13</title>
<g id="a_Node000013"><a xlink:title=" ">
<polygon fill="#e0e0e0" stroke="#999999" points="1469.25,-26 1340.75,-26 1340.75,-6 1469.25,-6 1469.25,-26"/>
<text text-anchor="middle" x="1405" y="-12.5" font-family="Helvetica,sans-Serif" font-size="10.00">javax.swing.JFileChooser</text>
</a>
</g>
</g>
<!-- Node1&#45;&gt;Node13 -->
<g id="edge12_Node000001_Node000013" class="edge">
<title>Node1&#45;&gt;Node13</title>
<g id="a_edge12_Node000001_Node000013"><a xlink:title=" ">
<path fill="none" stroke="#63b8ff" d="M1353.54,-67.69C1363.69,-57.7 1376.96,-44.63 1387.48,-34.26"/>
<polygon fill="#63b8ff" stroke="#63b8ff" points="1389.8,-36.89 1394.46,-27.38 1384.88,-31.9 1389.8,-36.89"/>
</a>
</g>
</g>
<!-- Node14 -->
<g id="Node000014" class="node">
<title>Node14</title>
<g id="a_Node000014"><a xlink:title=" ">
<polygon fill="#e0e0e0" stroke="#999999" points="1606.75,-26 1487.25,-26 1487.25,-6 1606.75,-6 1606.75,-26"/>
<text text-anchor="middle" x="1547" y="-12.5" font-family="Helvetica,sans-Serif" font-size="10.00">javax.swing.JMenuItem</text>
</a>
</g>
</g>
<!-- Node1&#45;&gt;Node14 -->
<g id="edge13_Node000001_Node000014" class="edge">
<title>Node1&#45;&gt;Node14</title>
<g id="a_edge13_Node000001_Node000014"><a xlink:title=" ">
<path fill="none" stroke="#63b8ff" d="M1387,-67.53C1423.21,-56.09 1471.93,-40.71 1506.07,-29.93"/>
<polygon fill="#63b8ff" stroke="#63b8ff" points="1507.12,-33.26 1515.6,-26.92 1505.01,-26.59 1507.12,-33.26"/>
</a>
</g>
</g>
<!-- Node15 -->
<g id="Node000015" class="node">
<title>Node15</title>
<g id="a_Node000015"><a xlink:title=" ">
<polygon fill="#e0e0e0" stroke="#999999" points="1751.5,-26 1624.5,-26 1624.5,-6 1751.5,-6 1751.5,-26"/>
<text text-anchor="middle" x="1688" y="-12.5" font-family="Helvetica,sans-Serif" font-size="10.00">javax.swing.JOptionPane</text>
</a>
</g>
</g>
<!-- Node1&#45;&gt;Node15 -->
<g id="edge14_Node000001_Node000015" class="edge">
<title>Node1&#45;&gt;Node15</title>
<g id="a_edge14_Node000001_Node000015"><a xlink:title=" ">
<path fill="none" stroke="#63b8ff" d="M1425.44,-67.51C1480.24,-57.67 1552.32,-44.47 1616,-32 1621.28,-30.97 1626.78,-29.86 1632.27,-28.75"/>
<polygon fill="#63b8ff" stroke="#63b8ff" points="1632.91,-32.19 1642,-26.75 1631.5,-25.33 1632.91,-32.19"/>
</a>
</g>
</g>
<!-- Node16 -->
<g id="Node000016" class="node">
<title>Node16</title>
<g id="a_Node000016"><a xlink:title=" ">
<polygon fill="#e0e0e0" stroke="#999999" points="1896.88,-26 1769.12,-26 1769.12,-6 1896.88,-6 1896.88,-26"/>
<text text-anchor="middle" x="1833" y="-12.5" font-family="Helvetica,sans-Serif" font-size="10.00">javax.swing.JPopupMenu</text>
</a>
</g>
</g>
<!-- Node1&#45;&gt;Node16 -->
<g id="edge15_Node000001_Node000016" class="edge">
<title>Node1&#45;&gt;Node16</title>
<g id="a_edge15_Node000001_Node000016"><a xlink:title=" ">
<path fill="none" stroke="#63b8ff" d="M1440.92,-73.08C1526.79,-64.2 1652.24,-49.85 1761,-32 1766.98,-31.02 1773.23,-29.88 1779.43,-28.69"/>
<polygon fill="#63b8ff" stroke="#63b8ff" points="1779.86,-32.17 1788.99,-26.78 1778.5,-25.3 1779.86,-32.17"/>
</a>
</g>
</g>
<!-- Node17 -->
<g id="Node000017" class="node">
<title>Node17</title>
<g id="a_Node000017"><a xlink:title=" ">
<polygon fill="#e0e0e0" stroke="#999999" points="2045,-26 1915,-26 1915,-6 2045,-6 2045,-26"/>
<text text-anchor="middle" x="1980" y="-12.5" font-family="Helvetica,sans-Serif" font-size="10.00">javax.swing.JRadioButton</text>
</a>
</g>
</g>
<!-- Node1&#45;&gt;Node17 -->
<g id="edge16_Node000001_Node000017" class="edge">
<title>Node1&#45;&gt;Node17</title>
<g id="a_edge16_Node000001_Node000017"><a xlink:title=" ">
<path fill="none" stroke="#63b8ff" d="M1440.75,-77.2C1554.83,-69.96 1744.22,-55.59 1906,-32 1912.56,-31.04 1919.43,-29.88 1926.21,-28.62"/>
<polygon fill="#63b8ff" stroke="#63b8ff" points="1926.84,-32.07 1936,-26.74 1925.52,-25.19 1926.84,-32.07"/>
</a>
</g>
</g>
<!-- Node18 -->
<g id="Node000018" class="node">
<title>Node18</title>
<g id="a_Node000018"><a xlink:title=" ">
<polygon fill="#e0e0e0" stroke="#999999" points="2163.38,-26 2062.62,-26 2062.62,-6 2163.38,-6 2163.38,-26"/>
<text text-anchor="middle" x="2113" y="-12.5" font-family="Helvetica,sans-Serif" font-size="10.00">javax.swing.JSlider</text>
</a>
</g>
</g>
<!-- Node1&#45;&gt;Node18 -->
<g id="edge17_Node000001_Node000018" class="edge">
<title>Node1&#45;&gt;Node18</title>
<g id="a_edge17_Node000001_Node000018"><a xlink:title=" ">
<path fill="none" stroke="#63b8ff" d="M1440.93,-81.4C1580.61,-77.93 1837.62,-66.93 2054,-32 2058.95,-31.2 2064.08,-30.18 2069.17,-29.06"/>
<polygon fill="#63b8ff" stroke="#63b8ff" points="2069.75,-32.52 2078.67,-26.8 2068.13,-25.71 2069.75,-32.52"/>
</a>
</g>
</g>
<!-- Node19 -->
<g id="Node000019" class="node">
<title>Node19</title>
<g id="a_Node000019"><a xlink:title=" ">
<polygon fill="#e0e0e0" stroke="#999999" points="2296.5,-26 2181.5,-26 2181.5,-6 2296.5,-6 2296.5,-26"/>
<text text-anchor="middle" x="2239" y="-12.5" font-family="Helvetica,sans-Serif" font-size="10.00">javax.swing.JTextArea</text>
</a>
</g>
</g>
<!-- Node1&#45;&gt;Node19 -->
<g id="edge18_Node000001_Node000019" class="edge">
<title>Node1&#45;&gt;Node19</title>
<g id="a_edge18_Node000001_Node000019"><a xlink:title=" ">
<path fill="none" stroke="#63b8ff" d="M1440.92,-81.96C1598.92,-79.19 1910.41,-69.04 2172,-32 2178.05,-31.14 2184.36,-30.03 2190.59,-28.79"/>
<polygon fill="#63b8ff" stroke="#63b8ff" points="2191.09,-32.27 2200.15,-26.78 2189.64,-25.42 2191.09,-32.27"/>
</a>
</g>
</g>
<!-- Node20 -->
<g id="Node000020" class="node">
<title>Node20</title>
<g id="a_Node000020"><a xlink:title=" ">
<polygon fill="#e0e0e0" stroke="#999999" points="2429.88,-26 2314.12,-26 2314.12,-6 2429.88,-6 2429.88,-26"/>
<text text-anchor="middle" x="2372" y="-12.5" font-family="Helvetica,sans-Serif" font-size="10.00">javax.swing.JTextField</text>
</a>
</g>
</g>
<!-- Node1&#45;&gt;Node20 -->
<g id="edge19_Node000001_Node000020" class="edge">
<title>Node1&#45;&gt;Node20</title>
<g id="a_edge19_Node000001_Node000020"><a xlink:title=" ">
<path fill="none" stroke="#63b8ff" d="M1440.99,-83.33C1618.47,-82.62 1993.04,-75.48 2306,-32 2312.04,-31.16 2318.34,-30.05 2324.55,-28.8"/>
<polygon fill="#63b8ff" stroke="#63b8ff" points="2325.02,-32.28 2334.07,-26.77 2323.56,-25.43 2325.02,-32.28"/>
</a>
</g>
</g>
<!-- Node21 -->
<g id="Node000021" class="node">
<title>Node21</title>
<g id="a_Node000021"><a xlink:title=" ">
<polygon fill="#e0e0e0" stroke="#999999" points="2559.62,-26 2448.38,-26 2448.38,-6 2559.62,-6 2559.62,-26"/>
<text text-anchor="middle" x="2504" y="-12.5" font-family="Helvetica,sans-Serif" font-size="10.00">javax.swing.JWindow</text>
</a>
</g>
</g>
<!-- Node1&#45;&gt;Node21 -->
<g id="edge20_Node000001_Node000021" class="edge">
<title>Node1&#45;&gt;Node21</title>
<g id="a_edge20_Node000001_Node000021"><a xlink:title=" ">
<path fill="none" stroke="#63b8ff" d="M1440.92,-80.61C1676.27,-74.75 2248.13,-58.23 2439,-32 2444.95,-31.18 2451.16,-30.08 2457.28,-28.84"/>
<polygon fill="#63b8ff" stroke="#63b8ff" points="2457.6,-32.35 2466.63,-26.82 2456.12,-25.51 2457.6,-32.35"/>
</a>
</g>
</g>
<!-- Node22 -->
<g id="Node000022" class="node">
<title>Node22</title>
<g id="a_Node000022"><a xlink:title=" ">
<polygon fill="#e0e0e0" stroke="#999999" points="2708.38,-26 2577.62,-26 2577.62,-6 2708.38,-6 2708.38,-26"/>
<text text-anchor="middle" x="2643" y="-12.5" font-family="Helvetica,sans-Serif" font-size="10.00">javax.swing.SwingUtilities</text>
</a>
</g>
</g>
<!-- Node1&#45;&gt;Node22 -->
<g id="edge21_Node000001_Node000022" class="edge">
<title>Node1&#45;&gt;Node22</title>
<g id="a_edge21_Node000001_Node000022"><a xlink:title=" ">
<path fill="none" stroke="#63b8ff" d="M1440.58,-80.85C1695.31,-75.16 2351.75,-58.35 2569,-32 2576.09,-31.14 2583.51,-29.97 2590.8,-28.65"/>
<polygon fill="#63b8ff" stroke="#63b8ff" points="2591.44,-32.1 2600.6,-26.78 2590.12,-25.22 2591.44,-32.1"/>
</a>
</g>
</g>
<!-- Node23 -->
<g id="Node000023" class="node">
<title>Node23</title>
<g id="a_Node000023"><a xlink:title=" ">
<polygon fill="#e0e0e0" stroke="#999999" points="2889.12,-32 2726.88,-32 2726.88,0 2889.12,0 2889.12,-32"/>
<text text-anchor="start" x="2734.88" y="-18.5" font-family="Helvetica,sans-Serif" font-size="10.00">com.formdev.flatlaf.intellijthemes.</text>
<text text-anchor="middle" x="2808" y="-6.5" font-family="Helvetica,sans-Serif" font-size="10.00">FlatCobalt2IJTheme</text>
</a>
</g>
</g>
<!-- Node1&#45;&gt;Node23 -->
<g id="edge22_Node000001_Node000023" class="edge">
<title>Node1&#45;&gt;Node23</title>
<g id="a_edge22_Node000001_Node000023"><a xlink:title=" ">
<path fill="none" stroke="#63b8ff" d="M1440.8,-83.63C1668.54,-84.06 2232.84,-79.83 2715.32,-32.06"/>
<polygon fill="#63b8ff" stroke="#63b8ff" points="2715.59,-35.55 2725.2,-31.07 2714.9,-28.58 2715.59,-35.55"/>
</a>
</g>
</g>
</g>
</svg>
