<?xml version="1.0" encoding="UTF-8" standalone="no"?>
<!DOCTYPE svg PUBLIC "-//W3C//DTD SVG 1.1//EN"
 "http://www.w3.org/Graphics/SVG/1.1/DTD/svg11.dtd">
<!-- Generated by graphviz version 12.2.1 (20241206.2353)
 -->
<!-- Title: src/main/java/fr/softsf/canscan/ui/Popup.java Pages: 1 -->
<svg width="577pt" height="108pt"
 viewBox="0.00 0.00 577.00 108.00" xmlns="http://www.w3.org/2000/svg" xmlns:xlink="http://www.w3.org/1999/xlink">
<g id="graph0" class="graph" transform="scale(1 1) rotate(0) translate(4 104)">
<title>src/main/java/fr/softsf/canscan/ui/Popup.java</title>
<!-- Node1 -->
<g id="Node000001" class="node">
<title>Node1</title>
<g id="a_Node000001"><a xlink:title=" ">
<polygon fill="#999999" stroke="#666666" points="324,-100 206,-100 206,-68 324,-68 324,-100"/>
<text text-anchor="start" x="214" y="-86.5" font-family="Helvetica,sans-Serif" font-size="10.00">src/main/java/fr/softsf</text>
<text text-anchor="middle" x="265" y="-74.5" font-family="Helvetica,sans-Serif" font-size="10.00">/canscan/ui/Popup.java</text>
</a>
</g>
</g>
<!-- Node2 -->
<g id="Node000002" class="node">
<title>Node2</title>
<g id="a_Node000002"><a xlink:title=" ">
<polygon fill="#e0e0e0" stroke="#999999" points="106,-26 0,-26 0,-6 106,-6 106,-26"/>
<text text-anchor="middle" x="53" y="-12.5" font-family="Helvetica,sans-Serif" font-size="10.00">java.awt.Component</text>
</a>
</g>
</g>
<!-- Node1&#45;&gt;Node2 -->
<g id="edge1_Node000001_Node000002" class="edge">
<title>Node1&#45;&gt;Node2</title>
<g id="a_edge1_Node000001_Node000002"><a xlink:title=" ">
<path fill="none" stroke="#63b8ff" d="M215.3,-67.53C178.41,-56.04 128.72,-40.57 94.07,-29.79"/>
<polygon fill="#63b8ff" stroke="#63b8ff" points="95.42,-26.54 84.83,-26.91 93.34,-33.22 95.42,-26.54"/>
</a>
</g>
</g>
<!-- Node3 -->
<g id="Node000003" class="node">
<title>Node3</title>
<g id="a_Node000003"><a xlink:title=" ">
<polygon fill="#e0e0e0" stroke="#999999" points="251.5,-26 124.5,-26 124.5,-6 251.5,-6 251.5,-26"/>
<text text-anchor="middle" x="188" y="-12.5" font-family="Helvetica,sans-Serif" font-size="10.00">javax.swing.JOptionPane</text>
</a>
</g>
</g>
<!-- Node1&#45;&gt;Node3 -->
<g id="edge2_Node000001_Node000003" class="edge">
<title>Node1&#45;&gt;Node3</title>
<g id="a_edge2_Node000001_Node000003"><a xlink:title=" ">
<path fill="none" stroke="#63b8ff" d="M247.14,-67.69C235.25,-57.5 219.62,-44.1 207.41,-33.64"/>
<polygon fill="#63b8ff" stroke="#63b8ff" points="209.89,-31.15 200.02,-27.3 205.33,-36.47 209.89,-31.15"/>
</a>
</g>
</g>
<!-- Node4 -->
<g id="Node000004" class="node">
<title>Node4</title>
<g id="a_Node000004"><a xlink:title=" ">
<polygon fill="#e0e0e0" stroke="#999999" points="414.5,-26 269.5,-26 269.5,-6 414.5,-6 414.5,-26"/>
<text text-anchor="middle" x="342" y="-12.5" font-family="Helvetica,sans-Serif" font-size="10.00">fr.softsf.canscan.util.Checker</text>
</a>
</g>
</g>
<!-- Node1&#45;&gt;Node4 -->
<g id="edge3_Node000001_Node000004" class="edge">
<title>Node1&#45;&gt;Node4</title>
<g id="a_edge3_Node000001_Node000004"><a xlink:title=" ">
<path fill="none" stroke="#63b8ff" d="M282.86,-67.69C294.75,-57.5 310.38,-44.1 322.59,-33.64"/>
<polygon fill="#63b8ff" stroke="#63b8ff" points="324.67,-36.47 329.98,-27.3 320.11,-31.15 324.67,-36.47"/>
</a>
</g>
</g>
<!-- Node5 -->
<g id="Node000005" class="node">
<title>Node5</title>
<g id="a_Node000005"><a xlink:title=" ">
<polygon fill="#e0e0e0" stroke="#999999" points="569,-32 433,-32 433,0 569,0 569,-32"/>
<text text-anchor="start" x="441" y="-18.5" font-family="Helvetica,sans-Serif" font-size="10.00">fr.softsf.canscan.util.Frame</text>
<text text-anchor="middle" x="501" y="-6.5" font-family="Helvetica,sans-Serif" font-size="10.00">Helper</text>
</a>
</g>
</g>
<!-- Node1&#45;&gt;Node5 -->
<g id="edge4_Node000001_Node000005" class="edge">
<title>Node1&#45;&gt;Node5</title>
<g id="a_edge4_Node000001_Node000005"><a xlink:title=" ">
<path fill="none" stroke="#63b8ff" d="M320.33,-67.53C354.53,-57.96 398.63,-45.63 434.69,-35.54"/>
<polygon fill="#63b8ff" stroke="#63b8ff" points="435.46,-38.96 444.15,-32.9 433.58,-32.22 435.46,-38.96"/>
</a>
</g>
</g>
</g>
</svg>
