<?xml version="1.0" encoding="UTF-8" standalone="no"?>
<!DOCTYPE svg PUBLIC "-//W3C//DTD SVG 1.1//EN"
 "http://www.w3.org/Graphics/SVG/1.1/DTD/svg11.dtd">
<!-- Generated by graphviz version 12.2.1 (20241206.2353)
 -->
<!-- Title: src/main/java/fr/softsf/canscan/ui/QrCodeColor.java Pages: 1 -->
<svg width="1443pt" height="108pt"
 viewBox="0.00 0.00 1442.50 108.00" xmlns="http://www.w3.org/2000/svg" xmlns:xlink="http://www.w3.org/1999/xlink">
<g id="graph0" class="graph" transform="scale(1 1) rotate(0) translate(4 104)">
<title>src/main/java/fr/softsf/canscan/ui/QrCodeColor.java</title>
<!-- Node1 -->
<g id="Node000001" class="node">
<title>Node1</title>
<g id="a_Node000001"><a xlink:title=" ">
<polygon fill="#999999" stroke="#666666" points="734.12,-100 586.88,-100 586.88,-68 734.12,-68 734.12,-100"/>
<text text-anchor="start" x="594.88" y="-86.5" font-family="Helvetica,sans-Serif" font-size="10.00">src/main/java/fr/softsf</text>
<text text-anchor="middle" x="660.5" y="-74.5" font-family="Helvetica,sans-Serif" font-size="10.00">/canscan/ui/QrCodeColor.java</text>
</a>
</g>
</g>
<!-- Node2 -->
<g id="Node000002" class="node">
<title>Node2</title>
<g id="a_Node000002"><a xlink:title=" ">
<polygon fill="#e0e0e0" stroke="#999999" points="109,-26 0,-26 0,-6 109,-6 109,-26"/>
<text text-anchor="middle" x="54.5" y="-12.5" font-family="Helvetica,sans-Serif" font-size="10.00">java.awt.BasicStroke</text>
</a>
</g>
</g>
<!-- Node1&#45;&gt;Node2 -->
<g id="edge1_Node000001_Node000002" class="edge">
<title>Node1&#45;&gt;Node2</title>
<g id="a_edge1_Node000001_Node000002"><a xlink:title=" ">
<path fill="none" stroke="#63b8ff" d="M586.74,-79.36C481.9,-73.43 284.02,-59.5 117.5,-32 112.23,-31.13 106.75,-30.07 101.31,-28.91"/>
<polygon fill="#63b8ff" stroke="#63b8ff" points="102.3,-25.55 91.78,-26.77 100.77,-32.38 102.3,-25.55"/>
</a>
</g>
</g>
<!-- Node3 -->
<g id="Node000003" class="node">
<title>Node3</title>
<g id="a_Node000003"><a xlink:title=" ">
<polygon fill="#e0e0e0" stroke="#999999" points="206,-26 127,-26 127,-6 206,-6 206,-26"/>
<text text-anchor="middle" x="166.5" y="-12.5" font-family="Helvetica,sans-Serif" font-size="10.00">java.awt.Color</text>
</a>
</g>
</g>
<!-- Node1&#45;&gt;Node3 -->
<g id="edge2_Node000001_Node000003" class="edge">
<title>Node1&#45;&gt;Node3</title>
<g id="a_edge2_Node000001_Node000003"><a xlink:title=" ">
<path fill="none" stroke="#63b8ff" d="M586.42,-78.83C497.36,-72.82 343.74,-59.33 214.5,-32 211.3,-31.32 208,-30.52 204.71,-29.65"/>
<polygon fill="#63b8ff" stroke="#63b8ff" points="205.71,-26.29 195.13,-26.89 203.77,-33.02 205.71,-26.29"/>
</a>
</g>
</g>
<!-- Node4 -->
<g id="Node000004" class="node">
<title>Node4</title>
<g id="a_Node000004"><a xlink:title=" ">
<polygon fill="#e0e0e0" stroke="#999999" points="331.25,-26 223.75,-26 223.75,-6 331.25,-6 331.25,-26"/>
<text text-anchor="middle" x="277.5" y="-12.5" font-family="Helvetica,sans-Serif" font-size="10.00">java.awt.Graphics2D</text>
</a>
</g>
</g>
<!-- Node1&#45;&gt;Node4 -->
<g id="edge3_Node000001_Node000004" class="edge">
<title>Node1&#45;&gt;Node4</title>
<g id="a_edge3_Node000001_Node000004"><a xlink:title=" ">
<path fill="none" stroke="#63b8ff" d="M586.5,-72.83C521.46,-63.5 424.37,-48.64 340.5,-32 335.85,-31.08 331.02,-30.05 326.19,-28.98"/>
<polygon fill="#63b8ff" stroke="#63b8ff" points="327.05,-25.58 316.52,-26.77 325.49,-32.41 327.05,-25.58"/>
</a>
</g>
</g>
<!-- Node5 -->
<g id="Node000005" class="node">
<title>Node5</title>
<g id="a_Node000005"><a xlink:title=" ">
<polygon fill="#e0e0e0" stroke="#999999" points="431.88,-26 349.12,-26 349.12,-6 431.88,-6 431.88,-26"/>
<text text-anchor="middle" x="390.5" y="-12.5" font-family="Helvetica,sans-Serif" font-size="10.00">java.awt.Image</text>
</a>
</g>
</g>
<!-- Node1&#45;&gt;Node5 -->
<g id="edge4_Node000001_Node000005" class="edge">
<title>Node1&#45;&gt;Node5</title>
<g id="a_edge4_Node000001_Node000005"><a xlink:title=" ">
<path fill="none" stroke="#63b8ff" d="M588.88,-67.61C545.72,-58.03 489.76,-45.08 440.5,-32 437.6,-31.23 434.62,-30.41 431.62,-29.56"/>
<polygon fill="#63b8ff" stroke="#63b8ff" points="432.85,-26.28 422.27,-26.85 430.9,-33 432.85,-26.28"/>
</a>
</g>
</g>
<!-- Node6 -->
<g id="Node000006" class="node">
<title>Node6</title>
<g id="a_Node000006"><a xlink:title=" ">
<polygon fill="#e0e0e0" stroke="#999999" points="597.5,-26 449.5,-26 449.5,-6 597.5,-6 597.5,-26"/>
<text text-anchor="middle" x="523.5" y="-12.5" font-family="Helvetica,sans-Serif" font-size="10.00">java.awt.image.BufferedImage</text>
</a>
</g>
</g>
<!-- Node1&#45;&gt;Node6 -->
<g id="edge5_Node000001_Node000006" class="edge">
<title>Node1&#45;&gt;Node6</title>
<g id="a_edge5_Node000001_Node000006"><a xlink:title=" ">
<path fill="none" stroke="#63b8ff" d="M628.38,-67.53C605.68,-56.59 575.47,-42.04 553.3,-31.36"/>
<polygon fill="#63b8ff" stroke="#63b8ff" points="555.03,-28.3 544.5,-27.12 551.99,-34.61 555.03,-28.3"/>
</a>
</g>
</g>
<!-- Node7 -->
<g id="Node000007" class="node">
<title>Node7</title>
<g id="a_Node000007"><a xlink:title=" ">
<polygon fill="#e0e0e0" stroke="#999999" points="705.25,-26 615.75,-26 615.75,-6 705.25,-6 705.25,-26"/>
<text text-anchor="middle" x="660.5" y="-12.5" font-family="Helvetica,sans-Serif" font-size="10.00">javax.swing.Icon</text>
</a>
</g>
</g>
<!-- Node1&#45;&gt;Node7 -->
<g id="edge6_Node000001_Node000007" class="edge">
<title>Node1&#45;&gt;Node7</title>
<g id="a_edge6_Node000001_Node000007"><a xlink:title=" ">
<path fill="none" stroke="#63b8ff" d="M660.5,-67.69C660.5,-58.8 660.5,-47.46 660.5,-37.77"/>
<polygon fill="#63b8ff" stroke="#63b8ff" points="664,-37.83 660.5,-27.83 657,-37.83 664,-37.83"/>
</a>
</g>
</g>
<!-- Node8 -->
<g id="Node000008" class="node">
<title>Node8</title>
<g id="a_Node000008"><a xlink:title=" ">
<polygon fill="#e0e0e0" stroke="#999999" points="839.75,-26 723.25,-26 723.25,-6 839.75,-6 839.75,-26"/>
<text text-anchor="middle" x="781.5" y="-12.5" font-family="Helvetica,sans-Serif" font-size="10.00">javax.swing.ImageIcon</text>
</a>
</g>
</g>
<!-- Node1&#45;&gt;Node8 -->
<g id="edge7_Node000001_Node000008" class="edge">
<title>Node1&#45;&gt;Node8</title>
<g id="a_edge7_Node000001_Node000008"><a xlink:title=" ">
<path fill="none" stroke="#63b8ff" d="M688.87,-67.53C708.55,-56.79 734.63,-42.56 754.1,-31.94"/>
<polygon fill="#63b8ff" stroke="#63b8ff" points="755.72,-35.05 762.83,-27.18 752.37,-28.9 755.72,-35.05"/>
</a>
</g>
</g>
<!-- Node9 -->
<g id="Node000009" class="node">
<title>Node9</title>
<g id="a_Node000009"><a xlink:title=" ">
<polygon fill="#e0e0e0" stroke="#999999" points="962.75,-26 858.25,-26 858.25,-6 962.75,-6 962.75,-26"/>
<text text-anchor="middle" x="910.5" y="-12.5" font-family="Helvetica,sans-Serif" font-size="10.00">javax.swing.JButton</text>
</a>
</g>
</g>
<!-- Node1&#45;&gt;Node9 -->
<g id="edge8_Node000001_Node000009" class="edge">
<title>Node1&#45;&gt;Node9</title>
<g id="a_edge8_Node000001_Node000009"><a xlink:title=" ">
<path fill="none" stroke="#63b8ff" d="M719.11,-67.53C763.17,-55.89 822.74,-40.17 863.65,-29.37"/>
<polygon fill="#63b8ff" stroke="#63b8ff" points="864.43,-32.78 873.2,-26.85 862.64,-26.01 864.43,-32.78"/>
</a>
</g>
</g>
<!-- Node10 -->
<g id="Node000010" class="node">
<title>Node10</title>
<g id="a_Node000010"><a xlink:title=" ">
<polygon fill="#e0e0e0" stroke="#999999" points="1116.5,-26 980.5,-26 980.5,-6 1116.5,-6 1116.5,-26"/>
<text text-anchor="middle" x="1048.5" y="-12.5" font-family="Helvetica,sans-Serif" font-size="10.00">javax.swing.JColorChooser</text>
</a>
</g>
</g>
<!-- Node1&#45;&gt;Node10 -->
<g id="edge9_Node000001_Node000010" class="edge">
<title>Node1&#45;&gt;Node10</title>
<g id="a_edge9_Node000001_Node000010"><a xlink:title=" ">
<path fill="none" stroke="#63b8ff" d="M734.44,-71.51C797.52,-61.56 890.58,-46.51 971.5,-32 977.53,-30.92 983.82,-29.75 990.1,-28.57"/>
<polygon fill="#63b8ff" stroke="#63b8ff" points="990.65,-32.02 999.82,-26.71 989.34,-25.15 990.65,-32.02"/>
</a>
</g>
</g>
<!-- Node11 -->
<g id="Node000011" class="node">
<title>Node11</title>
<g id="a_Node000011"><a xlink:title=" ">
<polygon fill="#e0e0e0" stroke="#999999" points="1280,-26 1135,-26 1135,-6 1280,-6 1280,-26"/>
<text text-anchor="middle" x="1207.5" y="-12.5" font-family="Helvetica,sans-Serif" font-size="10.00">fr.softsf.canscan.util.Checker</text>
</a>
</g>
</g>
<!-- Node1&#45;&gt;Node11 -->
<g id="edge10_Node000001_Node000011" class="edge">
<title>Node1&#45;&gt;Node11</title>
<g id="a_edge10_Node000001_Node000011"><a xlink:title=" ">
<path fill="none" stroke="#63b8ff" d="M734.4,-76.54C826.3,-68.14 987.88,-52.11 1125.5,-32 1132.73,-30.94 1140.29,-29.72 1147.78,-28.44"/>
<polygon fill="#63b8ff" stroke="#63b8ff" points="1148.3,-31.9 1157.54,-26.72 1147.09,-25.01 1148.3,-31.9"/>
</a>
</g>
</g>
<!-- Node12 -->
<g id="Node000012" class="node">
<title>Node12</title>
<g id="a_Node000012"><a xlink:title=" ">
<polygon fill="#e0e0e0" stroke="#999999" points="1434.5,-32 1298.5,-32 1298.5,0 1434.5,0 1434.5,-32"/>
<text text-anchor="start" x="1306.5" y="-18.5" font-family="Helvetica,sans-Serif" font-size="10.00">fr.softsf.canscan.util.Frame</text>
<text text-anchor="middle" x="1366.5" y="-6.5" font-family="Helvetica,sans-Serif" font-size="10.00">Helper</text>
</a>
</g>
</g>
<!-- Node1&#45;&gt;Node12 -->
<g id="edge11_Node000001_Node000012" class="edge">
<title>Node1&#45;&gt;Node12</title>
<g id="a_edge11_Node000001_Node000012"><a xlink:title=" ">
<path fill="none" stroke="#63b8ff" d="M734.39,-79.68C850.09,-73.9 1081.24,-59.98 1286.81,-32.27"/>
<polygon fill="#63b8ff" stroke="#63b8ff" points="1287.2,-35.75 1296.63,-30.93 1286.25,-28.82 1287.2,-35.75"/>
</a>
</g>
</g>
</g>
</svg>
