<?xml version="1.0" encoding="UTF-8" standalone="no"?>
<!DOCTYPE svg PUBLIC "-//W3C//DTD SVG 1.1//EN"
 "http://www.w3.org/Graphics/SVG/1.1/DTD/svg11.dtd">
<!-- Generated by graphviz version 12.2.1 (20241206.2353)
 -->
<!-- Title: src/main/java/fr/softsf/canscan/ui/QrCodeResize.java Pages: 1 -->
<svg width="1442pt" height="108pt"
 viewBox="0.00 0.00 1442.25 108.00" xmlns="http://www.w3.org/2000/svg" xmlns:xlink="http://www.w3.org/1999/xlink">
<g id="graph0" class="graph" transform="scale(1 1) rotate(0) translate(4 104)">
<title>src/main/java/fr/softsf/canscan/ui/QrCodeResize.java</title>
<!-- Node1 -->
<g id="Node000001" class="node">
<title>Node1</title>
<g id="a_Node000001"><a xlink:title=" ">
<polygon fill="#999999" stroke="#666666" points="830.12,-100 675.38,-100 675.38,-68 830.12,-68 830.12,-100"/>
<text text-anchor="start" x="683.38" y="-86.5" font-family="Helvetica,sans-Serif" font-size="10.00">src/main/java/fr/softsf</text>
<text text-anchor="middle" x="752.75" y="-74.5" font-family="Helvetica,sans-Serif" font-size="10.00">/canscan/ui/QrCodeResize.java</text>
</a>
</g>
</g>
<!-- Node2 -->
<g id="Node000002" class="node">
<title>Node2</title>
<g id="a_Node000002"><a xlink:title=" ">
<polygon fill="#e0e0e0" stroke="#999999" points="107.5,-26 0,-26 0,-6 107.5,-6 107.5,-26"/>
<text text-anchor="middle" x="53.75" y="-12.5" font-family="Helvetica,sans-Serif" font-size="10.00">java.awt.Graphics2D</text>
</a>
</g>
</g>
<!-- Node1&#45;&gt;Node2 -->
<g id="edge1_Node000001_Node000002" class="edge">
<title>Node1&#45;&gt;Node2</title>
<g id="a_edge1_Node000001_Node000002"><a xlink:title=" ">
<path fill="none" stroke="#63b8ff" d="M675.31,-80.73C554.94,-76.32 315.95,-64.03 115.75,-32 110.49,-31.16 105.02,-30.1 99.6,-28.95"/>
<polygon fill="#63b8ff" stroke="#63b8ff" points="100.64,-25.59 90.12,-26.79 99.09,-32.42 100.64,-25.59"/>
</a>
</g>
</g>
<!-- Node3 -->
<g id="Node000003" class="node">
<title>Node3</title>
<g id="a_Node000003"><a xlink:title=" ">
<polygon fill="#e0e0e0" stroke="#999999" points="248.38,-26 125.12,-26 125.12,-6 248.38,-6 248.38,-26"/>
<text text-anchor="middle" x="186.75" y="-12.5" font-family="Helvetica,sans-Serif" font-size="10.00">java.awt.RenderingHints</text>
</a>
</g>
</g>
<!-- Node1&#45;&gt;Node3 -->
<g id="edge2_Node000001_Node000003" class="edge">
<title>Node1&#45;&gt;Node3</title>
<g id="a_edge2_Node000001_Node000003"><a xlink:title=" ">
<path fill="none" stroke="#63b8ff" d="M675.26,-77.56C577.54,-70.12 404.55,-55 257.75,-32 251.68,-31.05 245.35,-29.92 239.08,-28.71"/>
<polygon fill="#63b8ff" stroke="#63b8ff" points="239.89,-25.3 229.4,-26.76 238.51,-32.16 239.89,-25.3"/>
</a>
</g>
</g>
<!-- Node4 -->
<g id="Node000004" class="node">
<title>Node4</title>
<g id="a_Node000004"><a xlink:title=" ">
<polygon fill="#e0e0e0" stroke="#999999" points="414.75,-26 266.75,-26 266.75,-6 414.75,-6 414.75,-26"/>
<text text-anchor="middle" x="340.75" y="-12.5" font-family="Helvetica,sans-Serif" font-size="10.00">java.awt.image.BufferedImage</text>
</a>
</g>
</g>
<!-- Node1&#45;&gt;Node4 -->
<g id="edge3_Node000001_Node000004" class="edge">
<title>Node1&#45;&gt;Node4</title>
<g id="a_edge3_Node000001_Node000004"><a xlink:title=" ">
<path fill="none" stroke="#63b8ff" d="M674.89,-71.49C608.17,-61.49 509.54,-46.4 423.75,-32 417.02,-30.87 409.99,-29.66 403,-28.42"/>
<polygon fill="#63b8ff" stroke="#63b8ff" points="404.02,-25.05 393.56,-26.75 402.8,-31.94 404.02,-25.05"/>
</a>
</g>
</g>
<!-- Node5 -->
<g id="Node000005" class="node">
<title>Node5</title>
<g id="a_Node000005"><a xlink:title=" ">
<polygon fill="#e0e0e0" stroke="#999999" points="588.5,-32 433,-32 433,0 588.5,0 588.5,-32"/>
<text text-anchor="start" x="441" y="-18.5" font-family="Helvetica,sans-Serif" font-size="10.00">java.util.concurrent.Cancellation</text>
<text text-anchor="middle" x="510.75" y="-6.5" font-family="Helvetica,sans-Serif" font-size="10.00">Exception</text>
</a>
</g>
</g>
<!-- Node1&#45;&gt;Node5 -->
<g id="edge4_Node000001_Node000005" class="edge">
<title>Node1&#45;&gt;Node5</title>
<g id="a_edge4_Node000001_Node000005"><a xlink:title=" ">
<path fill="none" stroke="#63b8ff" d="M696.01,-67.53C660.79,-57.92 615.34,-45.52 578.27,-35.41"/>
<polygon fill="#63b8ff" stroke="#63b8ff" points="579.58,-32.14 569.01,-32.89 577.74,-38.9 579.58,-32.14"/>
</a>
</g>
</g>
<!-- Node6 -->
<g id="Node000006" class="node">
<title>Node6</title>
<g id="a_Node000006"><a xlink:title=" ">
<polygon fill="#e0e0e0" stroke="#999999" points="751.25,-32 606.25,-32 606.25,0 751.25,0 751.25,-32"/>
<text text-anchor="start" x="614.25" y="-18.5" font-family="Helvetica,sans-Serif" font-size="10.00">java.util.concurrent.Execution</text>
<text text-anchor="middle" x="678.75" y="-6.5" font-family="Helvetica,sans-Serif" font-size="10.00">Exception</text>
</a>
</g>
</g>
<!-- Node1&#45;&gt;Node6 -->
<g id="edge5_Node000001_Node000006" class="edge">
<title>Node1&#45;&gt;Node6</title>
<g id="a_edge5_Node000001_Node000006"><a xlink:title=" ">
<path fill="none" stroke="#63b8ff" d="M735.59,-67.69C726.41,-59.5 714.91,-49.25 704.67,-40.12"/>
<polygon fill="#63b8ff" stroke="#63b8ff" points="707,-37.5 697.21,-33.46 702.34,-42.73 707,-37.5"/>
</a>
</g>
</g>
<!-- Node7 -->
<g id="Node000007" class="node">
<title>Node7</title>
<g id="a_Node000007"><a xlink:title=" ">
<polygon fill="#e0e0e0" stroke="#999999" points="886,-26 769.5,-26 769.5,-6 886,-6 886,-26"/>
<text text-anchor="middle" x="827.75" y="-12.5" font-family="Helvetica,sans-Serif" font-size="10.00">javax.swing.ImageIcon</text>
</a>
</g>
</g>
<!-- Node1&#45;&gt;Node7 -->
<g id="edge6_Node000001_Node000007" class="edge">
<title>Node1&#45;&gt;Node7</title>
<g id="a_edge6_Node000001_Node000007"><a xlink:title=" ">
<path fill="none" stroke="#63b8ff" d="M770.15,-67.69C781.73,-57.5 796.95,-44.1 808.84,-33.64"/>
<polygon fill="#63b8ff" stroke="#63b8ff" points="810.83,-36.55 816.03,-27.32 806.21,-31.29 810.83,-36.55"/>
</a>
</g>
</g>
<!-- Node8 -->
<g id="Node000008" class="node">
<title>Node8</title>
<g id="a_Node000008"><a xlink:title=" ">
<polygon fill="#e0e0e0" stroke="#999999" points="1003.38,-26 904.12,-26 904.12,-6 1003.38,-6 1003.38,-26"/>
<text text-anchor="middle" x="953.75" y="-12.5" font-family="Helvetica,sans-Serif" font-size="10.00">javax.swing.JLabel</text>
</a>
</g>
</g>
<!-- Node1&#45;&gt;Node8 -->
<g id="edge7_Node000001_Node000008" class="edge">
<title>Node1&#45;&gt;Node8</title>
<g id="a_edge7_Node000001_Node000008"><a xlink:title=" ">
<path fill="none" stroke="#63b8ff" d="M799.88,-67.53C834.69,-56.09 881.56,-40.71 914.38,-29.93"/>
<polygon fill="#63b8ff" stroke="#63b8ff" points="915.09,-33.38 923.5,-26.93 912.91,-26.73 915.09,-33.38"/>
</a>
</g>
</g>
<!-- Node9 -->
<g id="Node000009" class="node">
<title>Node9</title>
<g id="a_Node000009"><a xlink:title=" ">
<polygon fill="#e0e0e0" stroke="#999999" points="1150,-26 1021.5,-26 1021.5,-6 1150,-6 1150,-26"/>
<text text-anchor="middle" x="1085.75" y="-12.5" font-family="Helvetica,sans-Serif" font-size="10.00">javax.swing.SwingWorker</text>
</a>
</g>
</g>
<!-- Node1&#45;&gt;Node9 -->
<g id="edge8_Node000001_Node000009" class="edge">
<title>Node1&#45;&gt;Node9</title>
<g id="a_edge8_Node000001_Node000009"><a xlink:title=" ">
<path fill="none" stroke="#63b8ff" d="M830.43,-67.95C882.13,-57.89 951.53,-44.29 1012.75,-32 1018.02,-30.94 1023.51,-29.83 1029,-28.71"/>
<polygon fill="#63b8ff" stroke="#63b8ff" points="1029.62,-32.16 1038.72,-26.73 1028.22,-25.3 1029.62,-32.16"/>
</a>
</g>
</g>
<!-- Node10 -->
<g id="Node000010" class="node">
<title>Node10</title>
<g id="a_Node000010"><a xlink:title=" ">
<polygon fill="#e0e0e0" stroke="#999999" points="1289.62,-32 1167.88,-32 1167.88,0 1289.62,0 1289.62,-32"/>
<text text-anchor="start" x="1175.88" y="-18.5" font-family="Helvetica,sans-Serif" font-size="10.00">fr.softsf.canscan.model.</text>
<text text-anchor="middle" x="1228.75" y="-6.5" font-family="Helvetica,sans-Serif" font-size="10.00">QrInput</text>
</a>
</g>
</g>
<!-- Node1&#45;&gt;Node10 -->
<g id="edge9_Node000001_Node000010" class="edge">
<title>Node1&#45;&gt;Node10</title>
<g id="a_edge9_Node000001_Node000010"><a xlink:title=" ">
<path fill="none" stroke="#63b8ff" d="M830.5,-75.25C909.95,-66.87 1037.12,-52.2 1156.56,-32.28"/>
<polygon fill="#63b8ff" stroke="#63b8ff" points="1156.95,-35.76 1166.23,-30.65 1155.79,-28.86 1156.95,-35.76"/>
</a>
</g>
</g>
<!-- Node11 -->
<g id="Node000011" class="node">
<title>Node11</title>
<g id="a_Node000011"><a xlink:title=" ">
<polygon fill="#e0e0e0" stroke="#999999" points="1434.25,-32 1307.25,-32 1307.25,0 1434.25,0 1434.25,-32"/>
<text text-anchor="start" x="1315.25" y="-18.5" font-family="Helvetica,sans-Serif" font-size="10.00">fr.softsf.canscan.service.</text>
<text text-anchor="middle" x="1370.75" y="-6.5" font-family="Helvetica,sans-Serif" font-size="10.00">AbstractQrCodeWorker</text>
</a>
</g>
</g>
<!-- Node1&#45;&gt;Node11 -->
<g id="edge10_Node000001_Node000011" class="edge">
<title>Node1&#45;&gt;Node11</title>
<g id="a_edge10_Node000001_Node000011"><a xlink:title=" ">
<path fill="none" stroke="#63b8ff" d="M830.39,-78.5C934.28,-71.87 1124.43,-57.58 1295.58,-32.38"/>
<polygon fill="#63b8ff" stroke="#63b8ff" points="1295.96,-35.86 1305.33,-30.93 1294.92,-28.94 1295.96,-35.86"/>
</a>
</g>
</g>
</g>
</svg>
