<?xml version="1.0" encoding="UTF-8" standalone="no"?>
<!DOCTYPE svg PUBLIC "-//W3C//DTD SVG 1.1//EN"
 "http://www.w3.org/Graphics/SVG/1.1/DTD/svg11.dtd">
<!-- Generated by graphviz version 12.2.1 (20241206.2353)
 -->
<!-- Title: src/main/java/fr/softsf/canscan/ui/UiComponentsConfiguration.java Pages: 1 -->
<!--zoomable 108 -->

<svg id="main" version="1.1" xmlns="http://www.w3.org/2000/svg" xmlns:xlink="http://www.w3.org/1999/xlink" xml:space="preserve" onload="init(evt)">

<style type="text/css"><![CDATA[
.node, .edge {opacity: 0.7;}
.node.selected, .edge.selected {opacity: 1;}
.edge:hover path { stroke: red; }
.edge:hover polygon { stroke: red; fill: red; }
]]></style>

<defs>
  <circle id="rim" cx="0" cy="0" r="7"/>
  <circle id="rim2" cx="0" cy="0" r="3.5"/>
  <g id="zoomPlus">
    <use xlink:href="#rim" fill="#404040"><set attributeName="fill" to="#808080" begin="zoomplus.mouseover" end="zoomplus.mouseout"/></use>
    <path d="M-4,0h8M0,-4v8" fill="none" stroke="white" stroke-width="1.5" pointer-events="none"/>
  </g>
  <g id="zoomMin">
    <use xlink:href="#rim" fill="#404040"><set attributeName="fill" to="#808080" begin="zoomminus.mouseover" end="zoomminus.mouseout"/></use>
    <path d="M-4,0h8" fill="none" stroke="white" stroke-width="1.5" pointer-events="none"/>
  </g>
  <g id="arrowUp" transform="translate(30 24)">
    <use xlink:href="#rim"/>
    <path pointer-events="none" fill="none" stroke="white" stroke-width="1.5" d="M0,-3.0v7 M-2.5,-0.5L0,-3.0L2.5,-0.5"/>
  </g>
  <g id="arrowRight" transform="rotate(90) translate(36 -43)">
    <use xlink:href="#rim"/>
    <path pointer-events="none" fill="none" stroke="white" stroke-width="1.5" d="M0,-3.0v7 M-2.5,-0.5L0,-3.0L2.5,-0.5"/>
  </g>
  <g id="arrowDown" transform="rotate(180) translate(-30 -48)">
    <use xlink:href="#rim"/>
    <path pointer-events="none" fill="none" stroke="white" stroke-width="1.5" d="M0,-3.0v7 M-2.5,-0.5L0,-3.0L2.5,-0.5"/>
  </g>
  <g id="arrowLeft" transform="rotate(270) translate(-36 17)">
    <use xlink:href="#rim"/>
    <path pointer-events="none" fill="none" stroke="white" stroke-width="1.5" d="M0,-3.0v7 M-2.5,-0.5L0,-3.0L2.5,-0.5"/>
  </g>
  <g id="resetDef">
    <use xlink:href="#rim2" fill="#404040"><set attributeName="fill" to="#808080" begin="reset.mouseover" end="reset.mouseout"/></use>
  </g>
</defs>
<script type="application/ecmascript">
var viewWidth = 4988;
var viewHeight = 108;
var sectionId = 'dynsection-0';
</script>
<script type="application/ecmascript" xlink:href="svg.min.js"/>
<svg id="graph" class="graph">
<g id="viewport">
<title>src/main/java/fr/softsf/canscan/ui/UiComponentsConfiguration.java</title>
<!-- Node1 -->
<g id="Node000001" class="node">
<title>Node1</title>
<g id="a_Node000001"><a xlink:title=" ">
<polygon fill="#999999" stroke="#666666" points="2397.38,-100 2184.12,-100 2184.12,-68 2397.38,-68 2397.38,-100"/>
<text text-anchor="start" x="2192.12" y="-86.5" font-family="Helvetica,sans-Serif" font-size="10.00">src/main/java/fr/softsf</text>
<text text-anchor="middle" x="2290.75" y="-74.5" font-family="Helvetica,sans-Serif" font-size="10.00">/canscan/ui/UiComponentsConfiguration.java</text>
</a>
</g>
</g>
<!-- Node2 -->
<g id="Node000002" class="node">
<title>Node2</title>
<g id="a_Node000002"><a xlink:title=" ">
<polygon fill="#e0e0e0" stroke="#999999" points="113.5,-26 0,-26 0,-6 113.5,-6 113.5,-26"/>
<text text-anchor="middle" x="56.75" y="-12.5" font-family="Helvetica,sans-Serif" font-size="10.00">java.awt.BorderLayout</text>
</a>
</g>
</g>
<!-- Node1&#45;&gt;Node2 -->
<g id="edge1_Node000001_Node000002" class="edge">
<title>Node1&#45;&gt;Node2</title>
<g id="a_edge1_Node000001_Node000002"><a xlink:title=" ">
<path fill="none" stroke="#63b8ff" d="M2183.68,-83.31C1804.75,-83.98 528.25,-82.33 122.75,-32 116.56,-31.23 110.09,-30.14 103.73,-28.88"/>
<polygon fill="#63b8ff" stroke="#63b8ff" points="104.48,-25.46 93.97,-26.81 103.02,-32.31 104.48,-25.46"/>
</a>
</g>
</g>
<!-- Node3 -->
<g id="Node000003" class="node">
<title>Node3</title>
<g id="a_Node000003"><a xlink:title=" ">
<polygon fill="#e0e0e0" stroke="#999999" points="233.88,-26 131.62,-26 131.62,-6 233.88,-6 233.88,-26"/>
<text text-anchor="middle" x="182.75" y="-12.5" font-family="Helvetica,sans-Serif" font-size="10.00">java.awt.Dimension</text>
</a>
</g>
</g>
<!-- Node1&#45;&gt;Node3 -->
<g id="edge2_Node000001_Node000003" class="edge">
<title>Node1&#45;&gt;Node3</title>
<g id="a_edge2_Node000001_Node000003"><a xlink:title=" ">
<path fill="none" stroke="#63b8ff" d="M2183.94,-83.44C1819,-84.46 623.27,-83.66 242.75,-32 237.38,-31.27 231.8,-30.25 226.29,-29.07"/>
<polygon fill="#63b8ff" stroke="#63b8ff" points="227.2,-25.69 216.67,-26.84 225.62,-32.51 227.2,-25.69"/>
</a>
</g>
</g>
<!-- Node4 -->
<g id="Node000004" class="node">
<title>Node4</title>
<g id="a_Node000004"><a xlink:title=" ">
<polygon fill="#e0e0e0" stroke="#999999" points="393.38,-26 252.12,-26 252.12,-6 393.38,-6 393.38,-26"/>
<text text-anchor="middle" x="322.75" y="-12.5" font-family="Helvetica,sans-Serif" font-size="10.00">java.awt.GridBagConstraints</text>
</a>
</g>
</g>
<!-- Node1&#45;&gt;Node4 -->
<g id="edge3_Node000001_Node000004" class="edge">
<title>Node1&#45;&gt;Node4</title>
<g id="a_edge3_Node000001_Node000004"><a xlink:title=" ">
<path fill="none" stroke="#63b8ff" d="M2183.75,-82.34C1837.81,-79.85 751.83,-69.2 402.75,-32 394.54,-31.12 385.91,-29.87 377.48,-28.45"/>
<polygon fill="#63b8ff" stroke="#63b8ff" points="378.11,-25.01 367.65,-26.7 376.88,-31.9 378.11,-25.01"/>
</a>
</g>
</g>
<!-- Node5 -->
<g id="Node000005" class="node">
<title>Node5</title>
<g id="a_Node000005"><a xlink:title=" ">
<polygon fill="#e0e0e0" stroke="#999999" points="531.88,-26 411.62,-26 411.62,-6 531.88,-6 531.88,-26"/>
<text text-anchor="middle" x="471.75" y="-12.5" font-family="Helvetica,sans-Serif" font-size="10.00">java.awt.GridBagLayout</text>
</a>
</g>
</g>
<!-- Node1&#45;&gt;Node5 -->
<g id="edge4_Node000001_Node000005" class="edge">
<title>Node1&#45;&gt;Node5</title>
<g id="a_edge4_Node000001_Node000005"><a xlink:title=" ">
<path fill="none" stroke="#63b8ff" d="M2183.88,-82.43C1855.18,-80.28 862.09,-70.67 541.75,-32 534.95,-31.18 527.83,-30.02 520.85,-28.7"/>
<polygon fill="#63b8ff" stroke="#63b8ff" points="521.66,-25.29 511.17,-26.74 520.28,-32.15 521.66,-25.29"/>
</a>
</g>
</g>
<!-- Node6 -->
<g id="Node000006" class="node">
<title>Node6</title>
<g id="a_Node000006"><a xlink:title=" ">
<polygon fill="#e0e0e0" stroke="#999999" points="633.12,-26 550.38,-26 550.38,-6 633.12,-6 633.12,-26"/>
<text text-anchor="middle" x="591.75" y="-12.5" font-family="Helvetica,sans-Serif" font-size="10.00">java.awt.Insets</text>
</a>
</g>
</g>
<!-- Node1&#45;&gt;Node6 -->
<g id="edge5_Node000001_Node000006" class="edge">
<title>Node1&#45;&gt;Node6</title>
<g id="a_edge5_Node000001_Node000006"><a xlink:title=" ">
<path fill="none" stroke="#63b8ff" d="M2183.73,-83.32C1867.38,-83.7 940.1,-80.51 641.75,-32 637.83,-31.36 633.79,-30.5 629.78,-29.52"/>
<polygon fill="#63b8ff" stroke="#63b8ff" points="630.73,-26.15 620.16,-26.88 628.88,-32.9 630.73,-26.15"/>
</a>
</g>
</g>
<!-- Node7 -->
<g id="Node000007" class="node">
<title>Node7</title>
<g id="a_Node000007"><a xlink:title=" ">
<polygon fill="#e0e0e0" stroke="#999999" points="796.25,-26 651.25,-26 651.25,-6 796.25,-6 796.25,-26"/>
<text text-anchor="middle" x="723.75" y="-12.5" font-family="Helvetica,sans-Serif" font-size="10.00">java.awt.event.ActionListener</text>
</a>
</g>
</g>
<!-- Node1&#45;&gt;Node7 -->
<g id="edge6_Node000001_Node000007" class="edge">
<title>Node1&#45;&gt;Node7</title>
<g id="a_edge6_Node000001_Node000007"><a xlink:title=" ">
<path fill="none" stroke="#63b8ff" d="M2183.7,-81.36C1889.53,-76.54 1073.04,-60.88 805.75,-32 797.35,-31.09 788.51,-29.82 779.87,-28.39"/>
<polygon fill="#63b8ff" stroke="#63b8ff" points="780.63,-24.97 770.18,-26.71 779.43,-31.87 780.63,-24.97"/>
</a>
</g>
</g>
<!-- Node8 -->
<g id="Node000008" class="node">
<title>Node8</title>
<g id="a_Node000008"><a xlink:title=" ">
<polygon fill="#e0e0e0" stroke="#999999" points="946.88,-26 814.62,-26 814.62,-6 946.88,-6 946.88,-26"/>
<text text-anchor="middle" x="880.75" y="-12.5" font-family="Helvetica,sans-Serif" font-size="10.00">javax.swing.BorderFactory</text>
</a>
</g>
</g>
<!-- Node1&#45;&gt;Node8 -->
<g id="edge7_Node000001_Node000008" class="edge">
<title>Node1&#45;&gt;Node8</title>
<g id="a_edge7_Node000001_Node000008"><a xlink:title=" ">
<path fill="none" stroke="#63b8ff" d="M2184.02,-81.12C1911.12,-75.95 1192.7,-60.04 955.75,-32 948.39,-31.13 940.68,-29.93 933.12,-28.58"/>
<polygon fill="#63b8ff" stroke="#63b8ff" points="933.79,-25.14 923.31,-26.72 932.49,-32.02 933.79,-25.14"/>
</a>
</g>
</g>
<!-- Node9 -->
<g id="Node000009" class="node">
<title>Node9</title>
<g id="a_Node000009"><a xlink:title=" ">
<polygon fill="#e0e0e0" stroke="#999999" points="1090.5,-26 965,-26 965,-6 1090.5,-6 1090.5,-26"/>
<text text-anchor="middle" x="1027.75" y="-12.5" font-family="Helvetica,sans-Serif" font-size="10.00">javax.swing.ButtonGroup</text>
</a>
</g>
</g>
<!-- Node1&#45;&gt;Node9 -->
<g id="edge8_Node000001_Node000009" class="edge">
<title>Node1&#45;&gt;Node9</title>
<g id="a_edge8_Node000001_Node000009"><a xlink:title=" ">
<path fill="none" stroke="#63b8ff" d="M2183.69,-80.65C1931.88,-74.75 1307.69,-57.94 1099.75,-32 1092.93,-31.15 1085.8,-29.99 1078.78,-28.7"/>
<polygon fill="#63b8ff" stroke="#63b8ff" points="1079.52,-25.28 1069.03,-26.79 1078.17,-32.14 1079.52,-25.28"/>
</a>
</g>
</g>
<!-- Node10 -->
<g id="Node000010" class="node">
<title>Node10</title>
<g id="a_Node000010"><a xlink:title=" ">
<polygon fill="#e0e0e0" stroke="#999999" points="1213,-26 1108.5,-26 1108.5,-6 1213,-6 1213,-26"/>
<text text-anchor="middle" x="1160.75" y="-12.5" font-family="Helvetica,sans-Serif" font-size="10.00">javax.swing.JButton</text>
</a>
</g>
</g>
<!-- Node1&#45;&gt;Node10 -->
<g id="edge9_Node000001_Node000010" class="edge">
<title>Node1&#45;&gt;Node10</title>
<g id="a_edge9_Node000001_Node000010"><a xlink:title=" ">
<path fill="none" stroke="#63b8ff" d="M2183.89,-80.53C1951.23,-74.72 1405.04,-58.65 1221.75,-32 1216.37,-31.22 1210.77,-30.17 1205.24,-28.99"/>
<polygon fill="#63b8ff" stroke="#63b8ff" points="1206.09,-25.6 1195.56,-26.77 1204.52,-32.42 1206.09,-25.6"/>
</a>
</g>
</g>
<!-- Node11 -->
<g id="Node000011" class="node">
<title>Node11</title>
<g id="a_Node000011"><a xlink:title=" ">
<polygon fill="#e0e0e0" stroke="#999999" points="1356.88,-26 1230.62,-26 1230.62,-6 1356.88,-6 1356.88,-26"/>
<text text-anchor="middle" x="1293.75" y="-12.5" font-family="Helvetica,sans-Serif" font-size="10.00">javax.swing.JComponent</text>
</a>
</g>
</g>
<!-- Node1&#45;&gt;Node11 -->
<g id="edge10_Node000001_Node000011" class="edge">
<title>Node1&#45;&gt;Node11</title>
<g id="a_edge10_Node000001_Node000011"><a xlink:title=" ">
<path fill="none" stroke="#63b8ff" d="M2183.79,-82.31C2011.03,-80.03 1660.18,-70.56 1365.75,-32 1359.02,-31.12 1351.98,-29.96 1345.04,-28.67"/>
<polygon fill="#63b8ff" stroke="#63b8ff" points="1345.91,-25.27 1335.42,-26.78 1344.56,-32.14 1345.91,-25.27"/>
</a>
</g>
</g>
<!-- Node12 -->
<g id="Node000012" class="node">
<title>Node12</title>
<g id="a_Node000012"><a xlink:title=" ">
<polygon fill="#e0e0e0" stroke="#999999" points="1474.38,-26 1375.12,-26 1375.12,-6 1474.38,-6 1474.38,-26"/>
<text text-anchor="middle" x="1424.75" y="-12.5" font-family="Helvetica,sans-Serif" font-size="10.00">javax.swing.JLabel</text>
</a>
</g>
</g>
<!-- Node1&#45;&gt;Node12 -->
<g id="edge11_Node000001_Node000012" class="edge">
<title>Node1&#45;&gt;Node12</title>
<g id="a_edge11_Node000001_Node000012"><a xlink:title=" ">
<path fill="none" stroke="#63b8ff" d="M2183.67,-82.54C2028.45,-80.45 1732.33,-71.11 1483.75,-32 1478.74,-31.21 1473.54,-30.19 1468.39,-29.06"/>
<polygon fill="#63b8ff" stroke="#63b8ff" points="1469.3,-25.68 1458.77,-26.77 1467.69,-32.49 1469.3,-25.68"/>
</a>
</g>
</g>
<!-- Node13 -->
<g id="Node000013" class="node">
<title>Node13</title>
<g id="a_Node000013"><a xlink:title=" ">
<polygon fill="#e0e0e0" stroke="#999999" points="1593.12,-26 1492.38,-26 1492.38,-6 1593.12,-6 1593.12,-26"/>
<text text-anchor="middle" x="1542.75" y="-12.5" font-family="Helvetica,sans-Serif" font-size="10.00">javax.swing.JPanel</text>
</a>
</g>
</g>
<!-- Node1&#45;&gt;Node13 -->
<g id="edge12_Node000001_Node000013" class="edge">
<title>Node1&#45;&gt;Node13</title>
<g id="a_edge12_Node000001_Node000013"><a xlink:title=" ">
<path fill="none" stroke="#63b8ff" d="M2183.84,-80.88C2047.81,-76.85 1805.97,-65.25 1601.75,-32 1596.8,-31.19 1591.67,-30.17 1586.58,-29.04"/>
<polygon fill="#63b8ff" stroke="#63b8ff" points="1587.62,-25.69 1577.09,-26.79 1586.01,-32.5 1587.62,-25.69"/>
</a>
</g>
</g>
<!-- Node14 -->
<g id="Node000014" class="node">
<title>Node14</title>
<g id="a_Node000014"><a xlink:title=" ">
<polygon fill="#e0e0e0" stroke="#999999" points="1740.75,-26 1610.75,-26 1610.75,-6 1740.75,-6 1740.75,-26"/>
<text text-anchor="middle" x="1675.75" y="-12.5" font-family="Helvetica,sans-Serif" font-size="10.00">javax.swing.JProgressBar</text>
</a>
</g>
</g>
<!-- Node1&#45;&gt;Node14 -->
<g id="edge13_Node000001_Node000014" class="edge">
<title>Node1&#45;&gt;Node14</title>
<g id="a_edge13_Node000001_Node000014"><a xlink:title=" ">
<path fill="none" stroke="#63b8ff" d="M2183.85,-76.28C2074.43,-68.62 1899.65,-54.19 1749.75,-32 1743.27,-31.04 1736.5,-29.88 1729.8,-28.64"/>
<polygon fill="#63b8ff" stroke="#63b8ff" points="1730.62,-25.24 1720.14,-26.79 1729.3,-32.11 1730.62,-25.24"/>
</a>
</g>
</g>
<!-- Node15 -->
<g id="Node000015" class="node">
<title>Node15</title>
<g id="a_Node000015"><a xlink:title=" ">
<polygon fill="#e0e0e0" stroke="#999999" points="1888.75,-26 1758.75,-26 1758.75,-6 1888.75,-6 1888.75,-26"/>
<text text-anchor="middle" x="1823.75" y="-12.5" font-family="Helvetica,sans-Serif" font-size="10.00">javax.swing.JRadioButton</text>
</a>
</g>
</g>
<!-- Node1&#45;&gt;Node15 -->
<g id="edge14_Node000001_Node000015" class="edge">
<title>Node1&#45;&gt;Node15</title>
<g id="a_edge14_Node000001_Node000015"><a xlink:title=" ">
<path fill="none" stroke="#63b8ff" d="M2183.7,-71.19C2104.5,-61.94 1994.13,-48 1897.75,-32 1891.69,-30.99 1885.37,-29.85 1879.08,-28.66"/>
<polygon fill="#63b8ff" stroke="#63b8ff" points="1879.84,-25.24 1869.36,-26.77 1878.5,-32.11 1879.84,-25.24"/>
</a>
</g>
</g>
<!-- Node16 -->
<g id="Node000016" class="node">
<title>Node16</title>
<g id="a_Node000016"><a xlink:title=" ">
<polygon fill="#e0e0e0" stroke="#999999" points="2030.38,-26 1907.12,-26 1907.12,-6 2030.38,-6 2030.38,-26"/>
<text text-anchor="middle" x="1968.75" y="-12.5" font-family="Helvetica,sans-Serif" font-size="10.00">javax.swing.JScrollPane</text>
</a>
</g>
</g>
<!-- Node1&#45;&gt;Node16 -->
<g id="edge15_Node000001_Node000016" class="edge">
<title>Node1&#45;&gt;Node16</title>
<g id="a_edge15_Node000001_Node000016"><a xlink:title=" ">
<path fill="none" stroke="#63b8ff" d="M2213.82,-67.53C2164.13,-57.5 2098.1,-44.09 2039.75,-32 2034.83,-30.98 2029.72,-29.91 2024.59,-28.84"/>
<polygon fill="#63b8ff" stroke="#63b8ff" points="2025.42,-25.44 2014.91,-26.81 2023.98,-32.29 2025.42,-25.44"/>
</a>
</g>
</g>
<!-- Node17 -->
<g id="Node000017" class="node">
<title>Node17</title>
<g id="a_Node000017"><a xlink:title=" ">
<polygon fill="#e0e0e0" stroke="#999999" points="2149.12,-26 2048.38,-26 2048.38,-6 2149.12,-6 2149.12,-26"/>
<text text-anchor="middle" x="2098.75" y="-12.5" font-family="Helvetica,sans-Serif" font-size="10.00">javax.swing.JSlider</text>
</a>
</g>
</g>
<!-- Node1&#45;&gt;Node17 -->
<g id="edge16_Node000001_Node000017" class="edge">
<title>Node1&#45;&gt;Node17</title>
<g id="a_edge16_Node000001_Node000017"><a xlink:title=" ">
<path fill="none" stroke="#63b8ff" d="M2245.73,-67.53C2212.62,-56.14 2168.1,-40.84 2136.76,-30.07"/>
<polygon fill="#63b8ff" stroke="#63b8ff" points="2138.3,-26.89 2127.7,-26.95 2136.02,-33.51 2138.3,-26.89"/>
</a>
</g>
</g>
<!-- Node18 -->
<g id="Node000018" class="node">
<title>Node18</title>
<g id="a_Node000018"><a xlink:title=" ">
<polygon fill="#e0e0e0" stroke="#999999" points="2282.25,-26 2167.25,-26 2167.25,-6 2282.25,-6 2282.25,-26"/>
<text text-anchor="middle" x="2224.75" y="-12.5" font-family="Helvetica,sans-Serif" font-size="10.00">javax.swing.JTextArea</text>
</a>
</g>
</g>
<!-- Node1&#45;&gt;Node18 -->
<g id="edge17_Node000001_Node000018" class="edge">
<title>Node1&#45;&gt;Node18</title>
<g id="a_edge17_Node000001_Node000018"><a xlink:title=" ">
<path fill="none" stroke="#63b8ff" d="M2275.44,-67.69C2265.45,-57.7 2252.38,-44.63 2242.01,-34.26"/>
<polygon fill="#63b8ff" stroke="#63b8ff" points="2244.68,-31.98 2235.14,-27.39 2239.73,-36.93 2244.68,-31.98"/>
</a>
</g>
</g>
<!-- Node19 -->
<g id="Node000019" class="node">
<title>Node19</title>
<g id="a_Node000019"><a xlink:title=" ">
<polygon fill="#e0e0e0" stroke="#999999" points="2415.62,-26 2299.88,-26 2299.88,-6 2415.62,-6 2415.62,-26"/>
<text text-anchor="middle" x="2357.75" y="-12.5" font-family="Helvetica,sans-Serif" font-size="10.00">javax.swing.JTextField</text>
</a>
</g>
</g>
<!-- Node1&#45;&gt;Node19 -->
<g id="edge18_Node000001_Node000019" class="edge">
<title>Node1&#45;&gt;Node19</title>
<g id="a_edge18_Node000001_Node000019"><a xlink:title=" ">
<path fill="none" stroke="#63b8ff" d="M2306.29,-67.69C2316.44,-57.7 2329.71,-44.63 2340.23,-34.26"/>
<polygon fill="#63b8ff" stroke="#63b8ff" points="2342.55,-36.89 2347.21,-27.38 2337.63,-31.9 2342.55,-36.89"/>
</a>
</g>
</g>
<!-- Node20 -->
<g id="Node000020" class="node">
<title>Node20</title>
<g id="a_Node000020"><a xlink:title=" ">
<polygon fill="#e0e0e0" stroke="#999999" points="2567.62,-26 2433.88,-26 2433.88,-6 2567.62,-6 2567.62,-26"/>
<text text-anchor="middle" x="2500.75" y="-12.5" font-family="Helvetica,sans-Serif" font-size="10.00">javax.swing.OverlayLayout</text>
</a>
</g>
</g>
<!-- Node1&#45;&gt;Node20 -->
<g id="edge19_Node000001_Node000020" class="edge">
<title>Node1&#45;&gt;Node20</title>
<g id="a_edge19_Node000001_Node000020"><a xlink:title=" ">
<path fill="none" stroke="#63b8ff" d="M2339.99,-67.53C2376.52,-56.04 2425.75,-40.57 2460.07,-29.79"/>
<polygon fill="#63b8ff" stroke="#63b8ff" points="2460.72,-33.25 2469.21,-26.91 2458.62,-26.57 2460.72,-33.25"/>
</a>
</g>
</g>
<!-- Node21 -->
<g id="Node000021" class="node">
<title>Node21</title>
<g id="a_Node000021"><a xlink:title=" ">
<polygon fill="#e0e0e0" stroke="#999999" points="2716.12,-26 2585.38,-26 2585.38,-6 2716.12,-6 2716.12,-26"/>
<text text-anchor="middle" x="2650.75" y="-12.5" font-family="Helvetica,sans-Serif" font-size="10.00">javax.swing.SwingUtilities</text>
</a>
</g>
</g>
<!-- Node1&#45;&gt;Node21 -->
<g id="edge20_Node000001_Node000021" class="edge">
<title>Node1&#45;&gt;Node21</title>
<g id="a_edge20_Node000001_Node000021"><a xlink:title=" ">
<path fill="none" stroke="#63b8ff" d="M2380.7,-67.52C2437.08,-57.68 2511.23,-44.48 2576.75,-32 2582.32,-30.94 2588.12,-29.81 2593.92,-28.66"/>
<polygon fill="#63b8ff" stroke="#63b8ff" points="2594.39,-32.14 2603.51,-26.75 2593.02,-25.27 2594.39,-32.14"/>
</a>
</g>
</g>
<!-- Node22 -->
<g id="Node000022" class="node">
<title>Node22</title>
<g id="a_Node000022"><a xlink:title=" ">
<polygon fill="#e0e0e0" stroke="#999999" points="2877.12,-32 2734.38,-32 2734.38,0 2877.12,0 2877.12,-32"/>
<text text-anchor="start" x="2742.38" y="-18.5" font-family="Helvetica,sans-Serif" font-size="10.00">javax.swing.event.Document</text>
<text text-anchor="middle" x="2805.75" y="-6.5" font-family="Helvetica,sans-Serif" font-size="10.00">Listener</text>
</a>
</g>
</g>
<!-- Node1&#45;&gt;Node22 -->
<g id="edge21_Node000001_Node000022" class="edge">
<title>Node1&#45;&gt;Node22</title>
<g id="a_edge21_Node000001_Node000022"><a xlink:title=" ">
<path fill="none" stroke="#63b8ff" d="M2397.58,-72.44C2482.84,-63.54 2605.58,-49.71 2722.9,-32.21"/>
<polygon fill="#63b8ff" stroke="#63b8ff" points="2723.37,-35.68 2732.74,-30.73 2722.33,-28.76 2723.37,-35.68"/>
</a>
</g>
</g>
<!-- Node23 -->
<g id="Node000023" class="node">
<title>Node23</title>
<g id="a_Node000023"><a xlink:title=" ">
<polygon fill="#e0e0e0" stroke="#999999" points="3022.25,-32 2895.25,-32 2895.25,0 3022.25,0 3022.25,-32"/>
<text text-anchor="start" x="2903.25" y="-18.5" font-family="Helvetica,sans-Serif" font-size="10.00">javax.swing.text.Abstract</text>
<text text-anchor="middle" x="2958.75" y="-6.5" font-family="Helvetica,sans-Serif" font-size="10.00">Document</text>
</a>
</g>
</g>
<!-- Node1&#45;&gt;Node23 -->
<g id="edge22_Node000001_Node000023" class="edge">
<title>Node1&#45;&gt;Node23</title>
<g id="a_edge22_Node000001_Node000023"><a xlink:title=" ">
<path fill="none" stroke="#63b8ff" d="M2397.86,-77.61C2514.81,-70.86 2707.76,-57.21 2883.82,-32.16"/>
<polygon fill="#63b8ff" stroke="#63b8ff" points="2884.23,-35.64 2893.63,-30.75 2883.23,-28.71 2884.23,-35.64"/>
</a>
</g>
</g>
<!-- Node24 -->
<g id="Node000024" class="node">
<title>Node24</title>
<g id="a_Node000024"><a xlink:title=" ">
<polygon fill="#e0e0e0" stroke="#999999" points="3182.75,-26 3040.75,-26 3040.75,-6 3182.75,-6 3182.75,-26"/>
<text text-anchor="middle" x="3111.75" y="-12.5" font-family="Helvetica,sans-Serif" font-size="10.00">javax.swing.text.AttributeSet</text>
</a>
</g>
</g>
<!-- Node1&#45;&gt;Node24 -->
<g id="edge23_Node000001_Node000024" class="edge">
<title>Node1&#45;&gt;Node24</title>
<g id="a_edge23_Node000001_Node000024"><a xlink:title=" ">
<path fill="none" stroke="#63b8ff" d="M2397.58,-79.56C2541.94,-74.02 2807.11,-60.69 3031.75,-32 3039.28,-31.04 3047.18,-29.82 3054.96,-28.49"/>
<polygon fill="#63b8ff" stroke="#63b8ff" points="3055.48,-31.95 3064.72,-26.76 3054.26,-25.06 3055.48,-31.95"/>
</a>
</g>
</g>
<!-- Node25 -->
<g id="Node000025" class="node">
<title>Node25</title>
<g id="a_Node000025"><a xlink:title=" ">
<polygon fill="#e0e0e0" stroke="#999999" points="3344.88,-32 3200.62,-32 3200.62,0 3344.88,0 3344.88,-32"/>
<text text-anchor="start" x="3208.62" y="-18.5" font-family="Helvetica,sans-Serif" font-size="10.00">javax.swing.text.BadLocation</text>
<text text-anchor="middle" x="3272.75" y="-6.5" font-family="Helvetica,sans-Serif" font-size="10.00">Exception</text>
</a>
</g>
</g>
<!-- Node1&#45;&gt;Node25 -->
<g id="edge24_Node000001_Node000025" class="edge">
<title>Node1&#45;&gt;Node25</title>
<g id="a_edge24_Node000001_Node000025"><a xlink:title=" ">
<path fill="none" stroke="#63b8ff" d="M2397.59,-81.32C2564.54,-77.73 2897.53,-66.68 3189.17,-32.21"/>
<polygon fill="#63b8ff" stroke="#63b8ff" points="3189.38,-35.71 3198.89,-31.05 3188.55,-28.76 3189.38,-35.71"/>
</a>
</g>
</g>
<!-- Node26 -->
<g id="Node000026" class="node">
<title>Node26</title>
<g id="a_Node000026"><a xlink:title=" ">
<polygon fill="#e0e0e0" stroke="#999999" points="3498.38,-32 3363.12,-32 3363.12,0 3498.38,0 3498.38,-32"/>
<text text-anchor="start" x="3371.12" y="-18.5" font-family="Helvetica,sans-Serif" font-size="10.00">javax.swing.text.Document</text>
<text text-anchor="middle" x="3430.75" y="-6.5" font-family="Helvetica,sans-Serif" font-size="10.00">Filter</text>
</a>
</g>
</g>
<!-- Node1&#45;&gt;Node26 -->
<g id="edge25_Node000001_Node000026" class="edge">
<title>Node1&#45;&gt;Node26</title>
<g id="a_edge25_Node000001_Node000026"><a xlink:title=" ">
<path fill="none" stroke="#63b8ff" d="M2397.55,-82.97C2587.58,-81.78 2996.98,-74.19 3351.55,-32.14"/>
<polygon fill="#63b8ff" stroke="#63b8ff" points="3351.8,-35.63 3361.31,-30.97 3350.97,-28.68 3351.8,-35.63"/>
</a>
</g>
</g>
<!-- Node27 -->
<g id="Node000027" class="node">
<title>Node27</title>
<g id="a_Node000027"><a xlink:title=" ">
<polygon fill="#e0e0e0" stroke="#999999" points="3655.25,-32 3516.25,-32 3516.25,0 3655.25,0 3655.25,-32"/>
<text text-anchor="start" x="3524.25" y="-18.5" font-family="Helvetica,sans-Serif" font-size="10.00">org.apache.commons.lang3.</text>
<text text-anchor="middle" x="3585.75" y="-6.5" font-family="Helvetica,sans-Serif" font-size="10.00">StringUtils</text>
</a>
</g>
</g>
<!-- Node1&#45;&gt;Node27 -->
<g id="edge26_Node000001_Node000027" class="edge">
<title>Node1&#45;&gt;Node27</title>
<g id="a_edge26_Node000001_Node000027"><a xlink:title=" ">
<path fill="none" stroke="#63b8ff" d="M2397.8,-83.82C2608.29,-84.28 3090.91,-79.6 3504.79,-32.23"/>
<polygon fill="#63b8ff" stroke="#63b8ff" points="3505.05,-35.73 3514.58,-31.1 3504.25,-28.77 3505.05,-35.73"/>
</a>
</g>
</g>
<!-- Node28 -->
<g id="Node000028" class="node">
<title>Node28</title>
<g id="a_Node000028"><a xlink:title=" ">
<polygon fill="#e0e0e0" stroke="#999999" points="3868,-32 3673.5,-32 3673.5,0 3868,0 3868,-32"/>
<text text-anchor="start" x="3681.5" y="-18.5" font-family="Helvetica,sans-Serif" font-size="10.00">com.github.lgooddatepicker.components.</text>
<text text-anchor="middle" x="3770.75" y="-6.5" font-family="Helvetica,sans-Serif" font-size="10.00">DatePicker</text>
</a>
</g>
</g>
<!-- Node1&#45;&gt;Node28 -->
<g id="edge27_Node000001_Node000028" class="edge">
<title>Node1&#45;&gt;Node28</title>
<g id="a_edge27_Node000001_Node000028"><a xlink:title=" ">
<path fill="none" stroke="#63b8ff" d="M2397.44,-82.79C2626.98,-81.53 3184.87,-74.08 3661.93,-32.19"/>
<polygon fill="#63b8ff" stroke="#63b8ff" points="3662.02,-35.7 3671.67,-31.33 3661.4,-28.72 3662.02,-35.7"/>
</a>
</g>
</g>
<!-- Node29 -->
<g id="Node000029" class="node">
<title>Node29</title>
<g id="a_Node000029"><a xlink:title=" ">
<polygon fill="#e0e0e0" stroke="#999999" points="4081,-32 3886.5,-32 3886.5,0 4081,0 4081,-32"/>
<text text-anchor="start" x="3894.5" y="-18.5" font-family="Helvetica,sans-Serif" font-size="10.00">com.github.lgooddatepicker.components.</text>
<text text-anchor="middle" x="3983.75" y="-6.5" font-family="Helvetica,sans-Serif" font-size="10.00">TimePicker</text>
</a>
</g>
</g>
<!-- Node1&#45;&gt;Node29 -->
<g id="edge28_Node000001_Node000029" class="edge">
<title>Node1&#45;&gt;Node29</title>
<g id="a_edge28_Node000001_Node000029"><a xlink:title=" ">
<path fill="none" stroke="#63b8ff" d="M2397.72,-83.51C2652.03,-83.86 3312.83,-79.75 3874.95,-32.08"/>
<polygon fill="#63b8ff" stroke="#63b8ff" points="3874.95,-35.59 3884.62,-31.25 3874.35,-28.62 3874.95,-35.59"/>
</a>
</g>
</g>
<!-- Node30 -->
<g id="Node000030" class="node">
<title>Node30</title>
<g id="a_Node000030"><a xlink:title=" ">
<polygon fill="#e0e0e0" stroke="#999999" points="4232.25,-32 4099.25,-32 4099.25,0 4232.25,0 4232.25,-32"/>
<text text-anchor="start" x="4107.25" y="-18.5" font-family="Helvetica,sans-Serif" font-size="10.00">fr.softsf.canscan.constant.</text>
<text text-anchor="middle" x="4165.75" y="-6.5" font-family="Helvetica,sans-Serif" font-size="10.00">FloatConstants</text>
</a>
</g>
</g>
<!-- Node1&#45;&gt;Node30 -->
<g id="edge29_Node000001_Node000030" class="edge">
<title>Node1&#45;&gt;Node30</title>
<g id="a_edge29_Node000001_Node000030"><a xlink:title=" ">
<path fill="none" stroke="#63b8ff" d="M2397.68,-82.31C2729.05,-79.79 3736.99,-69.3 4087.92,-32.03"/>
<polygon fill="#63b8ff" stroke="#63b8ff" points="4088.05,-35.53 4097.61,-30.97 4087.29,-28.57 4088.05,-35.53"/>
</a>
</g>
</g>
<!-- Node31 -->
<g id="Node000031" class="node">
<title>Node31</title>
<g id="a_Node000031"><a xlink:title=" ">
<polygon fill="#e0e0e0" stroke="#999999" points="4383.25,-32 4250.25,-32 4250.25,0 4383.25,0 4383.25,-32"/>
<text text-anchor="start" x="4258.25" y="-18.5" font-family="Helvetica,sans-Serif" font-size="10.00">fr.softsf.canscan.constant.</text>
<text text-anchor="middle" x="4316.75" y="-6.5" font-family="Helvetica,sans-Serif" font-size="10.00">IntConstants</text>
</a>
</g>
</g>
<!-- Node1&#45;&gt;Node31 -->
<g id="edge30_Node000001_Node000031" class="edge">
<title>Node1&#45;&gt;Node31</title>
<g id="a_edge30_Node000001_Node000031"><a xlink:title=" ">
<path fill="none" stroke="#63b8ff" d="M2397.61,-82.62C2747.47,-80.99 3857.47,-72.77 4238.45,-32.22"/>
<polygon fill="#63b8ff" stroke="#63b8ff" points="4238.72,-35.72 4248.28,-31.15 4237.95,-28.76 4238.72,-35.72"/>
</a>
</g>
</g>
<!-- Node32 -->
<g id="Node000032" class="node">
<title>Node32</title>
<g id="a_Node000032"><a xlink:title=" ">
<polygon fill="#e0e0e0" stroke="#999999" points="4522.62,-32 4400.88,-32 4400.88,0 4522.62,0 4522.62,-32"/>
<text text-anchor="start" x="4408.88" y="-18.5" font-family="Helvetica,sans-Serif" font-size="10.00">fr.softsf.canscan.model.</text>
<text text-anchor="middle" x="4461.75" y="-6.5" font-family="Helvetica,sans-Serif" font-size="10.00">MecardJFields</text>
</a>
</g>
</g>
<!-- Node1&#45;&gt;Node32 -->
<g id="edge31_Node000001_Node000032" class="edge">
<title>Node1&#45;&gt;Node32</title>
<g id="a_edge31_Node000001_Node000032"><a xlink:title=" ">
<path fill="none" stroke="#63b8ff" d="M2397.74,-83.09C2765.56,-82.97 3977.74,-79.04 4389.18,-32.27"/>
<polygon fill="#63b8ff" stroke="#63b8ff" points="4389.5,-35.75 4399.03,-31.12 4388.69,-28.8 4389.5,-35.75"/>
</a>
</g>
</g>
<!-- Node33 -->
<g id="Node000033" class="node">
<title>Node33</title>
<g id="a_Node000033"><a xlink:title=" ">
<polygon fill="#e0e0e0" stroke="#999999" points="4662.62,-32 4540.88,-32 4540.88,0 4662.62,0 4662.62,-32"/>
<text text-anchor="start" x="4548.88" y="-18.5" font-family="Helvetica,sans-Serif" font-size="10.00">fr.softsf.canscan.model.</text>
<text text-anchor="middle" x="4601.75" y="-6.5" font-family="Helvetica,sans-Serif" font-size="10.00">MeetJFields</text>
</a>
</g>
</g>
<!-- Node1&#45;&gt;Node33 -->
<g id="edge32_Node000001_Node000033" class="edge">
<title>Node1&#45;&gt;Node33</title>
<g id="a_edge32_Node000001_Node000033"><a xlink:title=" ">
<path fill="none" stroke="#63b8ff" d="M2397.7,-83.23C2781.34,-83.67 4088.34,-81.47 4529.19,-32.12"/>
<polygon fill="#63b8ff" stroke="#63b8ff" points="4529.36,-35.62 4538.9,-31 4528.56,-28.67 4529.36,-35.62"/>
</a>
</g>
</g>
<!-- Node34 -->
<g id="Node000034" class="node">
<title>Node34</title>
<g id="a_Node000034"><a xlink:title=" ">
<polygon fill="#e0e0e0" stroke="#999999" points="4817.12,-32 4680.38,-32 4680.38,0 4817.12,0 4817.12,-32"/>
<text text-anchor="start" x="4688.38" y="-18.5" font-family="Helvetica,sans-Serif" font-size="10.00">fr.softsf.canscan.model.</text>
<text text-anchor="middle" x="4748.75" y="-6.5" font-family="Helvetica,sans-Serif" font-size="10.00">NativeImageUiComponents</text>
</a>
</g>
</g>
<!-- Node1&#45;&gt;Node34 -->
<g id="edge33_Node000001_Node000034" class="edge">
<title>Node1&#45;&gt;Node34</title>
<g id="a_edge33_Node000001_Node000034"><a xlink:title=" ">
<path fill="none" stroke="#63b8ff" d="M2397.72,-83.14C2796.72,-83.28 4198.88,-80.34 4668.73,-32.18"/>
<polygon fill="#63b8ff" stroke="#63b8ff" points="4668.91,-35.68 4678.49,-31.16 4668.18,-28.72 4668.91,-35.68"/>
</a>
</g>
</g>
<!-- Node35 -->
<g id="Node000035" class="node">
<title>Node35</title>
<g id="a_Node000035"><a xlink:title=" ">
<polygon fill="#e0e0e0" stroke="#999999" points="4980.25,-26 4835.25,-26 4835.25,-6 4980.25,-6 4980.25,-26"/>
<text text-anchor="middle" x="4907.75" y="-12.5" font-family="Helvetica,sans-Serif" font-size="10.00">fr.softsf.canscan.util.Checker</text>
</a>
</g>
</g>
<!-- Node1&#45;&gt;Node35 -->
<g id="edge34_Node000001_Node000035" class="edge">
<title>Node1&#45;&gt;Node35</title>
<g id="a_edge34_Node000001_Node000035"><a xlink:title=" ">
<path fill="none" stroke="#63b8ff" d="M2397.75,-83.14C2816.36,-83.33 4343.71,-80.62 4825.75,-32 4834.26,-31.14 4843.21,-29.88 4851.95,-28.45"/>
<polygon fill="#63b8ff" stroke="#63b8ff" points="4852.51,-31.9 4861.76,-26.74 4851.31,-25.01 4852.51,-31.9"/>
</a>
</g>
</g>
</g>
</svg>

<g id="navigator" transform="translate(0 0)" fill="#404254">
  <rect fill="#f2f5e9" fill-opacity="0.5" stroke="#606060" stroke-width=".5" x="0" y="0" width="60" height="60"/>
  <use id="zoomplus" xlink:href="#zoomPlus" x="17" y="9" onmousedown="handleZoom(evt,'in')"/>
  <use id="zoomminus" xlink:href="#zoomMin" x="42" y="9" onmousedown="handleZoom(evt,'out')"/>
  <use id="reset" xlink:href="#resetDef" x="30" y="36" onmousedown="handleReset()"/>
   <use id="arrowup" xlink:href="#arrowUp" x="0" y="0" onmousedown="handlePan(0,-1)"/>
  <use id="arrowright" xlink:href="#arrowRight" x="0" y="0" onmousedown="handlePan(1,0)"/>
  <use id="arrowdown" xlink:href="#arrowDown" x="0" y="0" onmousedown="handlePan(0,1)"/>
  <use id="arrowleft" xlink:href="#arrowLeft" x="0" y="0" onmousedown="handlePan(-1,0)"/>
</g>
<svg viewBox="0 0 15 15" width="100%" height="30px" preserveAspectRatio="xMaxYMin meet">
 <g id="arrow_out" transform="scale(0.3 0.3)">
  <a xlink:href="_ui_components_configuration_8java__incl_org.svg" target="_base">
   <rect id="button" ry="5" rx="5" y="6" x="6" height="38" width="38"
        fill="#f2f5e9" fill-opacity="0.5" stroke="#606060" stroke-width="1.0"/>
   <path id="arrow"
     d="M 11.500037,31.436501 C 11.940474,20.09759 22.043105,11.32322 32.158766,21.979434 L 37.068811,17.246167 C 37.068811,17.246167 37.088388,32 37.088388,32 L 22.160133,31.978069 C 22.160133,31.978069 26.997745,27.140456 26.997745,27.140456 C 18.528582,18.264221 13.291696,25.230495 11.500037,31.436501 z"
     style="fill:#404040;"/>
  </a>
 </g>
</svg>

<style type='text/css'>
<![CDATA[
[data-mouse-over-selected='false'] { opacity: 0.7; }
[data-mouse-over-selected='true']  { opacity: 1.0; }
]]>
</style>
<script type="application/ecmascript"><![CDATA[
document.addEventListener('DOMContentLoaded', (event) => {
  highlightEdges();
  highlightAdjacentNodes();
});
]]></script>
</svg>
