<?xml version="1.0" encoding="UTF-8" standalone="no"?>
<!DOCTYPE svg PUBLIC "-//W3C//DTD SVG 1.1//EN"
 "http://www.w3.org/Graphics/SVG/1.1/DTD/svg11.dtd">
<!-- Generated by graphviz version 12.2.1 (20241206.2353)
 -->
<!-- Title: src/main/java/fr/softsf/canscan/util/UseLucioleFont.java Pages: 1 -->
<svg width="1700pt" height="108pt"
 viewBox="0.00 0.00 1700.00 108.00" xmlns="http://www.w3.org/2000/svg" xmlns:xlink="http://www.w3.org/1999/xlink">
<g id="graph0" class="graph" transform="scale(1 1) rotate(0) translate(4 104)">
<title>src/main/java/fr/softsf/canscan/util/UseLucioleFont.java</title>
<!-- Node1 -->
<g id="Node000001" class="node">
<title>Node1</title>
<g id="a_Node000001"><a xlink:title=" ">
<polygon fill="#999999" stroke="#666666" points="917.5,-100 753.75,-100 753.75,-68 917.5,-68 917.5,-100"/>
<text text-anchor="start" x="761.75" y="-86.5" font-family="Helvetica,sans-Serif" font-size="10.00">src/main/java/fr/softsf</text>
<text text-anchor="middle" x="835.62" y="-74.5" font-family="Helvetica,sans-Serif" font-size="10.00">/canscan/util/UseLucioleFont.java</text>
</a>
</g>
</g>
<!-- Node2 -->
<g id="Node000002" class="node">
<title>Node2</title>
<g id="a_Node000002"><a xlink:title=" ">
<polygon fill="#e0e0e0" stroke="#999999" points="75.25,-26 0,-26 0,-6 75.25,-6 75.25,-26"/>
<text text-anchor="middle" x="37.62" y="-12.5" font-family="Helvetica,sans-Serif" font-size="10.00">java.awt.Font</text>
</a>
</g>
</g>
<!-- Node1&#45;&gt;Node2 -->
<g id="edge1_Node000001_Node000002" class="edge">
<title>Node1&#45;&gt;Node2</title>
<g id="a_edge1_Node000001_Node000002"><a xlink:title=" ">
<path fill="none" stroke="#63b8ff" d="M753.41,-79.99C585.83,-73.44 209.92,-56.48 83.62,-32 80.27,-31.35 76.82,-30.53 73.39,-29.6"/>
<polygon fill="#63b8ff" stroke="#63b8ff" points="74.67,-26.33 64.09,-26.83 72.67,-33.04 74.67,-26.33"/>
</a>
</g>
</g>
<!-- Node3 -->
<g id="Node000003" class="node">
<title>Node3</title>
<g id="a_Node000003"><a xlink:title=" ">
<polygon fill="#e0e0e0" stroke="#999999" points="242.38,-26 92.88,-26 92.88,-6 242.38,-6 242.38,-26"/>
<text text-anchor="middle" x="167.62" y="-12.5" font-family="Helvetica,sans-Serif" font-size="10.00">java.awt.FontFormatException</text>
</a>
</g>
</g>
<!-- Node1&#45;&gt;Node3 -->
<g id="edge2_Node000001_Node000003" class="edge">
<title>Node1&#45;&gt;Node3</title>
<g id="a_edge2_Node000001_Node000003"><a xlink:title=" ">
<path fill="none" stroke="#63b8ff" d="M753.64,-78.17C640.42,-70.96 429.95,-55.66 251.62,-32 243.84,-30.97 235.68,-29.72 227.63,-28.39"/>
<polygon fill="#63b8ff" stroke="#63b8ff" points="228.31,-24.95 217.86,-26.72 227.13,-31.85 228.31,-24.95"/>
</a>
</g>
</g>
<!-- Node4 -->
<g id="Node000004" class="node">
<title>Node4</title>
<g id="a_Node000004"><a xlink:title=" ">
<polygon fill="#e0e0e0" stroke="#999999" points="410.38,-26 260.88,-26 260.88,-6 410.38,-6 410.38,-26"/>
<text text-anchor="middle" x="335.62" y="-12.5" font-family="Helvetica,sans-Serif" font-size="10.00">java.awt.GraphicsEnvironment</text>
</a>
</g>
</g>
<!-- Node1&#45;&gt;Node4 -->
<g id="edge3_Node000001_Node000004" class="edge">
<title>Node1&#45;&gt;Node4</title>
<g id="a_edge3_Node000001_Node000004"><a xlink:title=" ">
<path fill="none" stroke="#63b8ff" d="M753.36,-74.26C669.3,-65.01 535.11,-49.38 419.62,-32 412.43,-30.92 404.9,-29.7 397.43,-28.43"/>
<polygon fill="#63b8ff" stroke="#63b8ff" points="398.13,-25 387.68,-26.75 396.94,-31.9 398.13,-25"/>
</a>
</g>
</g>
<!-- Node5 -->
<g id="Node000005" class="node">
<title>Node5</title>
<g id="a_Node000005"><a xlink:title=" ">
<polygon fill="#e0e0e0" stroke="#999999" points="580.5,-26 428.75,-26 428.75,-6 580.5,-6 580.5,-26"/>
<text text-anchor="middle" x="504.62" y="-12.5" font-family="Helvetica,sans-Serif" font-size="10.00">java.awt.geom.AffineTransform</text>
</a>
</g>
</g>
<!-- Node1&#45;&gt;Node5 -->
<g id="edge4_Node000001_Node000005" class="edge">
<title>Node1&#45;&gt;Node5</title>
<g id="a_edge4_Node000001_Node000005"><a xlink:title=" ">
<path fill="none" stroke="#63b8ff" d="M758.02,-67.53C698.44,-55.65 617.44,-39.5 563.22,-28.68"/>
<polygon fill="#63b8ff" stroke="#63b8ff" points="564.04,-25.28 553.55,-26.76 562.68,-32.14 564.04,-25.28"/>
</a>
</g>
</g>
<!-- Node6 -->
<g id="Node000006" class="node">
<title>Node6</title>
<g id="a_Node000006"><a xlink:title=" ">
<polygon fill="#e0e0e0" stroke="#999999" points="700.38,-26 598.88,-26 598.88,-6 700.38,-6 700.38,-26"/>
<text text-anchor="middle" x="649.62" y="-12.5" font-family="Helvetica,sans-Serif" font-size="10.00">java.io.IOException</text>
</a>
</g>
</g>
<!-- Node1&#45;&gt;Node6 -->
<g id="edge5_Node000001_Node000006" class="edge">
<title>Node1&#45;&gt;Node6</title>
<g id="a_edge5_Node000001_Node000006"><a xlink:title=" ">
<path fill="none" stroke="#63b8ff" d="M792.02,-67.53C760.08,-56.19 717.18,-40.97 686.85,-30.21"/>
<polygon fill="#63b8ff" stroke="#63b8ff" points="688.31,-27.01 677.71,-26.97 685.97,-33.61 688.31,-27.01"/>
</a>
</g>
</g>
<!-- Node7 -->
<g id="Node000007" class="node">
<title>Node7</title>
<g id="a_Node000007"><a xlink:title=" ">
<polygon fill="#e0e0e0" stroke="#999999" points="819,-26 718.25,-26 718.25,-6 819,-6 819,-26"/>
<text text-anchor="middle" x="768.62" y="-12.5" font-family="Helvetica,sans-Serif" font-size="10.00">java.io.InputStream</text>
</a>
</g>
</g>
<!-- Node1&#45;&gt;Node7 -->
<g id="edge6_Node000001_Node000007" class="edge">
<title>Node1&#45;&gt;Node7</title>
<g id="a_edge6_Node000001_Node000007"><a xlink:title=" ">
<path fill="none" stroke="#63b8ff" d="M820.09,-67.69C809.94,-57.7 796.67,-44.63 786.15,-34.26"/>
<polygon fill="#63b8ff" stroke="#63b8ff" points="788.74,-31.9 779.16,-27.38 783.83,-36.89 788.74,-31.9"/>
</a>
</g>
</g>
<!-- Node8 -->
<g id="Node000008" class="node">
<title>Node8</title>
<g id="a_Node000008"><a xlink:title=" ">
<polygon fill="#e0e0e0" stroke="#999999" points="968,-26 837.25,-26 837.25,-6 968,-6 968,-26"/>
<text text-anchor="middle" x="902.62" y="-12.5" font-family="Helvetica,sans-Serif" font-size="10.00">javax.swing.SwingUtilities</text>
</a>
</g>
</g>
<!-- Node1&#45;&gt;Node8 -->
<g id="edge7_Node000001_Node000008" class="edge">
<title>Node1&#45;&gt;Node8</title>
<g id="a_edge7_Node000001_Node000008"><a xlink:title=" ">
<path fill="none" stroke="#63b8ff" d="M851.16,-67.69C861.31,-57.7 874.58,-44.63 885.1,-34.26"/>
<polygon fill="#63b8ff" stroke="#63b8ff" points="887.42,-36.89 892.09,-27.38 882.51,-31.9 887.42,-36.89"/>
</a>
</g>
</g>
<!-- Node9 -->
<g id="Node000009" class="node">
<title>Node9</title>
<g id="a_Node000009"><a xlink:title=" ">
<polygon fill="#e0e0e0" stroke="#999999" points="1105,-26 986.25,-26 986.25,-6 1105,-6 1105,-26"/>
<text text-anchor="middle" x="1045.62" y="-12.5" font-family="Helvetica,sans-Serif" font-size="10.00">javax.swing.UIManager</text>
</a>
</g>
</g>
<!-- Node1&#45;&gt;Node9 -->
<g id="edge8_Node000001_Node000009" class="edge">
<title>Node1&#45;&gt;Node9</title>
<g id="a_edge8_Node000001_Node000009"><a xlink:title=" ">
<path fill="none" stroke="#63b8ff" d="M884.86,-67.53C921.4,-56.04 970.62,-40.57 1004.94,-29.79"/>
<polygon fill="#63b8ff" stroke="#63b8ff" points="1005.59,-33.25 1014.08,-26.91 1003.49,-26.57 1005.59,-33.25"/>
</a>
</g>
</g>
<!-- Node10 -->
<g id="Node000010" class="node">
<title>Node10</title>
<g id="a_Node000010"><a xlink:title=" ">
<polygon fill="#e0e0e0" stroke="#999999" points="1255.75,-26 1123.5,-26 1123.5,-6 1255.75,-6 1255.75,-26"/>
<text text-anchor="middle" x="1189.62" y="-12.5" font-family="Helvetica,sans-Serif" font-size="10.00">com.formdev.flatlaf.FlatLaf</text>
</a>
</g>
</g>
<!-- Node1&#45;&gt;Node10 -->
<g id="edge9_Node000001_Node000010" class="edge">
<title>Node1&#45;&gt;Node10</title>
<g id="a_edge9_Node000001_Node000010"><a xlink:title=" ">
<path fill="none" stroke="#63b8ff" d="M917.79,-68.23C973.16,-58.2 1047.83,-44.53 1113.62,-32 1119.26,-30.93 1125.13,-29.8 1130.99,-28.65"/>
<polygon fill="#63b8ff" stroke="#63b8ff" points="1131.58,-32.1 1140.73,-26.75 1130.24,-25.24 1131.58,-32.1"/>
</a>
</g>
</g>
<!-- Node11 -->
<g id="Node000011" class="node">
<title>Node11</title>
<g id="a_Node000011"><a xlink:title=" ">
<polygon fill="#e0e0e0" stroke="#999999" points="1391.62,-32 1273.62,-32 1273.62,0 1391.62,0 1391.62,-32"/>
<text text-anchor="start" x="1281.62" y="-18.5" font-family="Helvetica,sans-Serif" font-size="10.00">com.formdev.flatlaf.util.</text>
<text text-anchor="middle" x="1332.62" y="-6.5" font-family="Helvetica,sans-Serif" font-size="10.00">FontUtils</text>
</a>
</g>
</g>
<!-- Node1&#45;&gt;Node11 -->
<g id="edge10_Node000001_Node000011" class="edge">
<title>Node1&#45;&gt;Node11</title>
<g id="a_edge10_Node000001_Node000011"><a xlink:title=" ">
<path fill="none" stroke="#63b8ff" d="M917.81,-75.66C1001.88,-67.61 1136.47,-53.19 1262.01,-32.34"/>
<polygon fill="#63b8ff" stroke="#63b8ff" points="1262.58,-35.8 1271.86,-30.69 1261.42,-28.89 1262.58,-35.8"/>
</a>
</g>
</g>
<!-- Node12 -->
<g id="Node000012" class="node">
<title>Node12</title>
<g id="a_Node000012"><a xlink:title=" ">
<polygon fill="#e0e0e0" stroke="#999999" points="1543.12,-26 1410.12,-26 1410.12,-6 1543.12,-6 1543.12,-26"/>
<text text-anchor="middle" x="1476.62" y="-12.5" font-family="Helvetica,sans-Serif" font-size="10.00">fr.softsf.canscan.CanScan</text>
</a>
</g>
</g>
<!-- Node1&#45;&gt;Node12 -->
<g id="edge11_Node000001_Node000012" class="edge">
<title>Node1&#45;&gt;Node12</title>
<g id="a_edge11_Node000001_Node000012"><a xlink:title=" ">
<path fill="none" stroke="#63b8ff" d="M917.81,-78.29C1028.06,-71.36 1229.77,-56.5 1400.62,-32 1407.53,-31.01 1414.75,-29.81 1421.88,-28.52"/>
<polygon fill="#63b8ff" stroke="#63b8ff" points="1422.29,-32 1431.47,-26.71 1420.99,-25.12 1422.29,-32"/>
</a>
</g>
</g>
<!-- Node13 -->
<g id="Node000013" class="node">
<title>Node13</title>
<g id="a_Node000013"><a xlink:title=" ">
<polygon fill="#e0e0e0" stroke="#999999" points="1692,-26 1561.25,-26 1561.25,-6 1692,-6 1692,-26"/>
<text text-anchor="middle" x="1626.62" y="-12.5" font-family="Helvetica,sans-Serif" font-size="10.00">fr.softsf.canscan.ui.Popup</text>
</a>
</g>
</g>
<!-- Node1&#45;&gt;Node13 -->
<g id="edge12_Node000001_Node000013" class="edge">
<title>Node1&#45;&gt;Node13</title>
<g id="a_edge12_Node000001_Node000013"><a xlink:title=" ">
<path fill="none" stroke="#63b8ff" d="M917.97,-80.59C1051.67,-75.92 1324.03,-63.17 1552.62,-32 1559.45,-31.07 1566.58,-29.89 1573.62,-28.6"/>
<polygon fill="#63b8ff" stroke="#63b8ff" points="1574.26,-32.04 1583.42,-26.72 1572.94,-25.17 1574.26,-32.04"/>
</a>
</g>
</g>
</g>
</svg>
