<?xml version="1.0" encoding="UTF-8" standalone="no"?>
<!DOCTYPE svg PUBLIC "-//W3C//DTD SVG 1.1//EN"
 "http://www.w3.org/Graphics/SVG/1.1/DTD/svg11.dtd">
<!-- Generated by graphviz version 12.2.1 (20241206.2353)
 -->
<!-- Title: src/main/java/fr/softsf/canscan/service/VersionService.java Pages: 1 -->
<!--zoomable 108 -->

<svg id="main" version="1.1" xmlns="http://www.w3.org/2000/svg" xmlns:xlink="http://www.w3.org/1999/xlink" xml:space="preserve" onload="init(evt)">

<style type="text/css"><![CDATA[
.node, .edge {opacity: 0.7;}
.node.selected, .edge.selected {opacity: 1;}
.edge:hover path { stroke: red; }
.edge:hover polygon { stroke: red; fill: red; }
]]></style>

<defs>
  <circle id="rim" cx="0" cy="0" r="7"/>
  <circle id="rim2" cx="0" cy="0" r="3.5"/>
  <g id="zoomPlus">
    <use xlink:href="#rim" fill="#404040"><set attributeName="fill" to="#808080" begin="zoomplus.mouseover" end="zoomplus.mouseout"/></use>
    <path d="M-4,0h8M0,-4v8" fill="none" stroke="white" stroke-width="1.5" pointer-events="none"/>
  </g>
  <g id="zoomMin">
    <use xlink:href="#rim" fill="#404040"><set attributeName="fill" to="#808080" begin="zoomminus.mouseover" end="zoomminus.mouseout"/></use>
    <path d="M-4,0h8" fill="none" stroke="white" stroke-width="1.5" pointer-events="none"/>
  </g>
  <g id="arrowUp" transform="translate(30 24)">
    <use xlink:href="#rim"/>
    <path pointer-events="none" fill="none" stroke="white" stroke-width="1.5" d="M0,-3.0v7 M-2.5,-0.5L0,-3.0L2.5,-0.5"/>
  </g>
  <g id="arrowRight" transform="rotate(90) translate(36 -43)">
    <use xlink:href="#rim"/>
    <path pointer-events="none" fill="none" stroke="white" stroke-width="1.5" d="M0,-3.0v7 M-2.5,-0.5L0,-3.0L2.5,-0.5"/>
  </g>
  <g id="arrowDown" transform="rotate(180) translate(-30 -48)">
    <use xlink:href="#rim"/>
    <path pointer-events="none" fill="none" stroke="white" stroke-width="1.5" d="M0,-3.0v7 M-2.5,-0.5L0,-3.0L2.5,-0.5"/>
  </g>
  <g id="arrowLeft" transform="rotate(270) translate(-36 17)">
    <use xlink:href="#rim"/>
    <path pointer-events="none" fill="none" stroke="white" stroke-width="1.5" d="M0,-3.0v7 M-2.5,-0.5L0,-3.0L2.5,-0.5"/>
  </g>
  <g id="resetDef">
    <use xlink:href="#rim2" fill="#404040"><set attributeName="fill" to="#808080" begin="reset.mouseover" end="reset.mouseout"/></use>
  </g>
</defs>
<script type="application/ecmascript">
var viewWidth = 2568;
var viewHeight = 108;
var sectionId = 'dynsection-0';
</script>
<script type="application/ecmascript" xlink:href="svg.min.js"/>
<svg id="graph" class="graph">
<g id="viewport">
<title>src/main/java/fr/softsf/canscan/service/VersionService.java</title>
<!-- Node1 -->
<g id="Node000001" class="node">
<title>Node1</title>
<g id="a_Node000001"><a xlink:title=" ">
<polygon fill="#999999" stroke="#666666" points="1353.5,-100 1174,-100 1174,-68 1353.5,-68 1353.5,-100"/>
<text text-anchor="start" x="1182" y="-86.5" font-family="Helvetica,sans-Serif" font-size="10.00">src/main/java/fr/softsf</text>
<text text-anchor="middle" x="1263.75" y="-74.5" font-family="Helvetica,sans-Serif" font-size="10.00">/canscan/service/VersionService.java</text>
</a>
</g>
</g>
<!-- Node2 -->
<g id="Node000002" class="node">
<title>Node2</title>
<g id="a_Node000002"><a xlink:title=" ">
<polygon fill="#e0e0e0" stroke="#999999" points="101.5,-26 0,-26 0,-6 101.5,-6 101.5,-26"/>
<text text-anchor="middle" x="50.75" y="-12.5" font-family="Helvetica,sans-Serif" font-size="10.00">java.io.IOException</text>
</a>
</g>
</g>
<!-- Node1&#45;&gt;Node2 -->
<g id="edge1_Node000001_Node000002" class="edge">
<title>Node1&#45;&gt;Node2</title>
<g id="a_edge1_Node000001_Node000002"><a xlink:title=" ">
<path fill="none" stroke="#63b8ff" d="M1173.55,-81.4C939.08,-76.86 314.47,-62.22 109.75,-32 104.54,-31.23 99.11,-30.19 93.76,-29.02"/>
<polygon fill="#63b8ff" stroke="#63b8ff" points="94.98,-25.71 84.44,-26.81 93.36,-32.52 94.98,-25.71"/>
</a>
</g>
</g>
<!-- Node3 -->
<g id="Node000003" class="node">
<title>Node3</title>
<g id="a_Node000003"><a xlink:title=" ">
<polygon fill="#e0e0e0" stroke="#999999" points="270.25,-26 119.25,-26 119.25,-6 270.25,-6 270.25,-26"/>
<text text-anchor="middle" x="194.75" y="-12.5" font-family="Helvetica,sans-Serif" font-size="10.00">java.io.UncheckedIOException</text>
</a>
</g>
</g>
<!-- Node1&#45;&gt;Node3 -->
<g id="edge2_Node000001_Node000003" class="edge">
<title>Node1&#45;&gt;Node3</title>
<g id="a_edge2_Node000001_Node000003"><a xlink:title=" ">
<path fill="none" stroke="#63b8ff" d="M1173.8,-82.1C1000.2,-79.53 607.08,-69.67 278.75,-32 270.36,-31.04 261.54,-29.76 252.9,-28.35"/>
<polygon fill="#63b8ff" stroke="#63b8ff" points="253.63,-24.93 243.18,-26.7 252.45,-31.83 253.63,-24.93"/>
</a>
</g>
</g>
<!-- Node4 -->
<g id="Node000004" class="node">
<title>Node4</title>
<g id="a_Node000004"><a xlink:title=" ">
<polygon fill="#e0e0e0" stroke="#999999" points="359.5,-26 288,-26 288,-6 359.5,-6 359.5,-26"/>
<text text-anchor="middle" x="323.75" y="-12.5" font-family="Helvetica,sans-Serif" font-size="10.00">java.net.URI</text>
</a>
</g>
</g>
<!-- Node1&#45;&gt;Node4 -->
<g id="edge3_Node000001_Node000004" class="edge">
<title>Node1&#45;&gt;Node4</title>
<g id="a_edge3_Node000001_Node000004"><a xlink:title=" ">
<path fill="none" stroke="#63b8ff" d="M1173.64,-80.98C978.08,-76.07 520.1,-61.73 367.75,-32 364.73,-31.41 361.64,-30.67 358.57,-29.82"/>
<polygon fill="#63b8ff" stroke="#63b8ff" points="359.67,-26.5 349.08,-26.9 357.61,-33.19 359.67,-26.5"/>
</a>
</g>
</g>
<!-- Node5 -->
<g id="Node000005" class="node">
<title>Node5</title>
<g id="a_Node000005"><a xlink:title=" ">
<polygon fill="#e0e0e0" stroke="#999999" points="494.38,-26 377.12,-26 377.12,-6 494.38,-6 494.38,-26"/>
<text text-anchor="middle" x="435.75" y="-12.5" font-family="Helvetica,sans-Serif" font-size="10.00">java.net.http.HttpClient</text>
</a>
</g>
</g>
<!-- Node1&#45;&gt;Node5 -->
<g id="edge4_Node000001_Node000005" class="edge">
<title>Node1&#45;&gt;Node5</title>
<g id="a_edge4_Node000001_Node000005"><a xlink:title=" ">
<path fill="none" stroke="#63b8ff" d="M1173.5,-81.32C1030.69,-77.68 744.13,-66.38 503.75,-32 497.62,-31.12 491.21,-30 484.89,-28.75"/>
<polygon fill="#63b8ff" stroke="#63b8ff" points="485.67,-25.34 475.17,-26.73 484.25,-32.19 485.67,-25.34"/>
</a>
</g>
</g>
<!-- Node6 -->
<g id="Node000006" class="node">
<title>Node6</title>
<g id="a_Node000006"><a xlink:title=" ">
<polygon fill="#e0e0e0" stroke="#999999" points="641,-26 512.5,-26 512.5,-6 641,-6 641,-26"/>
<text text-anchor="middle" x="576.75" y="-12.5" font-family="Helvetica,sans-Serif" font-size="10.00">java.net.http.HttpRequest</text>
</a>
</g>
</g>
<!-- Node1&#45;&gt;Node6 -->
<g id="edge5_Node000001_Node000006" class="edge">
<title>Node1&#45;&gt;Node6</title>
<g id="a_edge5_Node000001_Node000006"><a xlink:title=" ">
<path fill="none" stroke="#63b8ff" d="M1173.63,-78.9C1053.61,-72.67 834.9,-58.61 649.75,-32 643.19,-31.06 636.33,-29.89 629.55,-28.63"/>
<polygon fill="#63b8ff" stroke="#63b8ff" points="630.26,-25.2 619.78,-26.72 628.92,-32.07 630.26,-25.2"/>
</a>
</g>
</g>
<!-- Node7 -->
<g id="Node000007" class="node">
<title>Node7</title>
<g id="a_Node000007"><a xlink:title=" ">
<polygon fill="#e0e0e0" stroke="#999999" points="794.75,-26 658.75,-26 658.75,-6 794.75,-6 794.75,-26"/>
<text text-anchor="middle" x="726.75" y="-12.5" font-family="Helvetica,sans-Serif" font-size="10.00">java.net.http.HttpResponse</text>
</a>
</g>
</g>
<!-- Node1&#45;&gt;Node7 -->
<g id="edge6_Node000001_Node000007" class="edge">
<title>Node1&#45;&gt;Node7</title>
<g id="a_edge6_Node000001_Node000007"><a xlink:title=" ">
<path fill="none" stroke="#63b8ff" d="M1173.56,-75.2C1080.6,-66.65 931.63,-51.51 803.75,-32 797.03,-30.97 790,-29.78 783.04,-28.52"/>
<polygon fill="#63b8ff" stroke="#63b8ff" points="783.8,-25.1 773.32,-26.7 782.51,-31.98 783.8,-25.1"/>
</a>
</g>
</g>
<!-- Node8 -->
<g id="Node000008" class="node">
<title>Node8</title>
<g id="a_Node000008"><a xlink:title=" ">
<polygon fill="#e0e0e0" stroke="#999999" points="960.38,-32 813.12,-32 813.12,0 960.38,0 960.38,-32"/>
<text text-anchor="start" x="821.12" y="-18.5" font-family="Helvetica,sans-Serif" font-size="10.00">java.security.KeyManagement</text>
<text text-anchor="middle" x="886.75" y="-6.5" font-family="Helvetica,sans-Serif" font-size="10.00">Exception</text>
</a>
</g>
</g>
<!-- Node1&#45;&gt;Node8 -->
<g id="edge7_Node000001_Node000008" class="edge">
<title>Node1&#45;&gt;Node8</title>
<g id="a_edge7_Node000001_Node000008"><a xlink:title=" ">
<path fill="none" stroke="#63b8ff" d="M1173.65,-67.54C1118.18,-57.98 1045.31,-45.35 971.42,-32.29"/>
<polygon fill="#63b8ff" stroke="#63b8ff" points="972.46,-28.92 962,-30.62 971.24,-35.81 972.46,-28.92"/>
</a>
</g>
</g>
<!-- Node9 -->
<g id="Node000009" class="node">
<title>Node9</title>
<g id="a_Node000009"><a xlink:title=" ">
<polygon fill="#e0e0e0" stroke="#999999" points="1128.88,-32 978.62,-32 978.62,0 1128.88,0 1128.88,-32"/>
<text text-anchor="start" x="986.62" y="-18.5" font-family="Helvetica,sans-Serif" font-size="10.00">java.security.NoSuchAlgorithm</text>
<text text-anchor="middle" x="1053.75" y="-6.5" font-family="Helvetica,sans-Serif" font-size="10.00">Exception</text>
</a>
</g>
</g>
<!-- Node1&#45;&gt;Node9 -->
<g id="edge8_Node000001_Node000009" class="edge">
<title>Node1&#45;&gt;Node9</title>
<g id="a_edge8_Node000001_Node000009"><a xlink:title=" ">
<path fill="none" stroke="#63b8ff" d="M1214.51,-67.53C1184.48,-58.09 1145.86,-45.95 1114,-35.94"/>
<polygon fill="#63b8ff" stroke="#63b8ff" points="1115.07,-32.6 1104.48,-32.95 1112.98,-39.28 1115.07,-32.6"/>
</a>
</g>
</g>
<!-- Node10 -->
<g id="Node000010" class="node">
<title>Node10</title>
<g id="a_Node000010"><a xlink:title=" ">
<polygon fill="#e0e0e0" stroke="#999999" points="1242.5,-26 1147,-26 1147,-6 1242.5,-6 1242.5,-26"/>
<text text-anchor="middle" x="1194.75" y="-12.5" font-family="Helvetica,sans-Serif" font-size="10.00">java.time.Duration</text>
</a>
</g>
</g>
<!-- Node1&#45;&gt;Node10 -->
<g id="edge9_Node000001_Node000010" class="edge">
<title>Node1&#45;&gt;Node10</title>
<g id="a_edge9_Node000001_Node000010"><a xlink:title=" ">
<path fill="none" stroke="#63b8ff" d="M1247.75,-67.69C1237.3,-57.7 1223.63,-44.63 1212.79,-34.26"/>
<polygon fill="#63b8ff" stroke="#63b8ff" points="1215.23,-31.75 1205.58,-27.36 1210.39,-36.8 1215.23,-31.75"/>
</a>
</g>
</g>
<!-- Node11 -->
<g id="Node000011" class="node">
<title>Node11</title>
<g id="a_Node000011"><a xlink:title=" ">
<polygon fill="#e0e0e0" stroke="#999999" points="1405.25,-32 1260.25,-32 1260.25,0 1405.25,0 1405.25,-32"/>
<text text-anchor="start" x="1268.25" y="-18.5" font-family="Helvetica,sans-Serif" font-size="10.00">java.util.concurrent.Execution</text>
<text text-anchor="middle" x="1332.75" y="-6.5" font-family="Helvetica,sans-Serif" font-size="10.00">Exception</text>
</a>
</g>
</g>
<!-- Node1&#45;&gt;Node11 -->
<g id="edge10_Node000001_Node000011" class="edge">
<title>Node1&#45;&gt;Node11</title>
<g id="a_edge10_Node000001_Node000011"><a xlink:title=" ">
<path fill="none" stroke="#63b8ff" d="M1279.75,-67.69C1288.38,-59.45 1299.18,-49.11 1308.79,-39.92"/>
<polygon fill="#63b8ff" stroke="#63b8ff" points="1310.93,-42.71 1315.74,-33.27 1306.09,-37.65 1310.93,-42.71"/>
</a>
</g>
</g>
<!-- Node12 -->
<g id="Node000012" class="node">
<title>Node12</title>
<g id="a_Node000012"><a xlink:title=" ">
<polygon fill="#e0e0e0" stroke="#999999" points="1538.25,-26 1423.25,-26 1423.25,-6 1538.25,-6 1538.25,-26"/>
<text text-anchor="middle" x="1480.75" y="-12.5" font-family="Helvetica,sans-Serif" font-size="10.00">java.util.regex.Matcher</text>
</a>
</g>
</g>
<!-- Node1&#45;&gt;Node12 -->
<g id="edge11_Node000001_Node000012" class="edge">
<title>Node1&#45;&gt;Node12</title>
<g id="a_edge11_Node000001_Node000012"><a xlink:title=" ">
<path fill="none" stroke="#63b8ff" d="M1314.63,-67.53C1352.38,-56.04 1403.25,-40.57 1438.71,-29.79"/>
<polygon fill="#63b8ff" stroke="#63b8ff" points="1439.65,-33.16 1448.2,-26.9 1437.61,-26.46 1439.65,-33.16"/>
</a>
</g>
</g>
<!-- Node13 -->
<g id="Node000013" class="node">
<title>Node13</title>
<g id="a_Node000013"><a xlink:title=" ">
<polygon fill="#e0e0e0" stroke="#999999" points="1667.38,-26 1556.12,-26 1556.12,-6 1667.38,-6 1667.38,-26"/>
<text text-anchor="middle" x="1611.75" y="-12.5" font-family="Helvetica,sans-Serif" font-size="10.00">java.util.regex.Pattern</text>
</a>
</g>
</g>
<!-- Node1&#45;&gt;Node13 -->
<g id="edge12_Node000001_Node000013" class="edge">
<title>Node1&#45;&gt;Node13</title>
<g id="a_edge12_Node000001_Node000013"><a xlink:title=" ">
<path fill="none" stroke="#63b8ff" d="M1353.84,-68.07C1409.79,-58.48 1483.12,-45.37 1547.75,-32 1552.34,-31.05 1557.1,-30.02 1561.87,-28.96"/>
<polygon fill="#63b8ff" stroke="#63b8ff" points="1562.45,-32.42 1571.43,-26.79 1560.9,-25.59 1562.45,-32.42"/>
</a>
</g>
</g>
<!-- Node14 -->
<g id="Node000014" class="node">
<title>Node14</title>
<g id="a_Node000014"><a xlink:title=" ">
<polygon fill="#e0e0e0" stroke="#999999" points="1813.62,-26 1685.88,-26 1685.88,-6 1813.62,-6 1813.62,-26"/>
<text text-anchor="middle" x="1749.75" y="-12.5" font-family="Helvetica,sans-Serif" font-size="10.00">javax.net.ssl.SSLContext</text>
</a>
</g>
</g>
<!-- Node1&#45;&gt;Node14 -->
<g id="edge13_Node000001_Node000014" class="edge">
<title>Node1&#45;&gt;Node14</title>
<g id="a_edge13_Node000001_Node000014"><a xlink:title=" ">
<path fill="none" stroke="#63b8ff" d="M1353.88,-73.97C1437.74,-65.06 1566.07,-50.18 1676.75,-32 1682.81,-31 1689.14,-29.86 1695.43,-28.66"/>
<polygon fill="#63b8ff" stroke="#63b8ff" points="1696,-32.11 1705.14,-26.75 1694.65,-25.25 1696,-32.11"/>
</a>
</g>
</g>
<!-- Node15 -->
<g id="Node000015" class="node">
<title>Node15</title>
<g id="a_Node000015"><a xlink:title=" ">
<polygon fill="#e0e0e0" stroke="#999999" points="1936,-26 1831.5,-26 1831.5,-6 1936,-6 1936,-26"/>
<text text-anchor="middle" x="1883.75" y="-12.5" font-family="Helvetica,sans-Serif" font-size="10.00">javax.swing.JButton</text>
</a>
</g>
</g>
<!-- Node1&#45;&gt;Node15 -->
<g id="edge14_Node000001_Node000015" class="edge">
<title>Node1&#45;&gt;Node15</title>
<g id="a_edge14_Node000001_Node000015"><a xlink:title=" ">
<path fill="none" stroke="#63b8ff" d="M1353.84,-78.95C1464.76,-73.01 1658.64,-59.5 1822.75,-32 1827.72,-31.17 1832.89,-30.14 1838.02,-29.03"/>
<polygon fill="#63b8ff" stroke="#63b8ff" points="1838.67,-32.47 1847.62,-26.82 1837.09,-25.65 1838.67,-32.47"/>
</a>
</g>
</g>
<!-- Node16 -->
<g id="Node000016" class="node">
<title>Node16</title>
<g id="a_Node000016"><a xlink:title=" ">
<polygon fill="#e0e0e0" stroke="#999999" points="2083,-26 1954.5,-26 1954.5,-6 2083,-6 2083,-26"/>
<text text-anchor="middle" x="2018.75" y="-12.5" font-family="Helvetica,sans-Serif" font-size="10.00">javax.swing.SwingWorker</text>
</a>
</g>
</g>
<!-- Node1&#45;&gt;Node16 -->
<g id="edge15_Node000001_Node000016" class="edge">
<title>Node1&#45;&gt;Node16</title>
<g id="a_edge15_Node000001_Node000016"><a xlink:title=" ">
<path fill="none" stroke="#63b8ff" d="M1353.91,-79.84C1484.65,-74.45 1734.23,-61.1 1944.75,-32 1951.49,-31.07 1958.53,-29.9 1965.48,-28.63"/>
<polygon fill="#63b8ff" stroke="#63b8ff" points="1966,-32.09 1975.16,-26.77 1964.68,-25.22 1966,-32.09"/>
</a>
</g>
</g>
<!-- Node17 -->
<g id="Node000017" class="node">
<title>Node17</title>
<g id="a_Node000017"><a xlink:title=" ">
<polygon fill="#e0e0e0" stroke="#999999" points="2244.88,-26 2100.62,-26 2100.62,-6 2244.88,-6 2244.88,-26"/>
<text text-anchor="middle" x="2172.75" y="-12.5" font-family="Helvetica,sans-Serif" font-size="10.00">fr.softsf.canscan.ui.MyPopup</text>
</a>
</g>
</g>
<!-- Node1&#45;&gt;Node17 -->
<g id="edge16_Node000001_Node000017" class="edge">
<title>Node1&#45;&gt;Node17</title>
<g id="a_edge16_Node000001_Node000017"><a xlink:title=" ">
<path fill="none" stroke="#63b8ff" d="M1353.83,-81.04C1506.27,-76.91 1824.62,-64.84 2091.75,-32 2099.56,-31.04 2107.76,-29.8 2115.82,-28.44"/>
<polygon fill="#63b8ff" stroke="#63b8ff" points="2116.33,-31.91 2125.57,-26.73 2115.12,-25.01 2116.33,-31.91"/>
</a>
</g>
</g>
<!-- Node18 -->
<g id="Node000018" class="node">
<title>Node18</title>
<g id="a_Node000018"><a xlink:title=" ">
<polygon fill="#e0e0e0" stroke="#999999" points="2408.25,-26 2263.25,-26 2263.25,-6 2408.25,-6 2408.25,-26"/>
<text text-anchor="middle" x="2335.75" y="-12.5" font-family="Helvetica,sans-Serif" font-size="10.00">fr.softsf.canscan.util.Checker</text>
</a>
</g>
</g>
<!-- Node1&#45;&gt;Node18 -->
<g id="edge17_Node000001_Node000018" class="edge">
<title>Node1&#45;&gt;Node18</title>
<g id="a_edge17_Node000001_Node000018"><a xlink:title=" ">
<path fill="none" stroke="#63b8ff" d="M1353.83,-82.26C1528.17,-79.95 1923.62,-70.53 2253.75,-32 2261.85,-31.05 2270.36,-29.8 2278.71,-28.41"/>
<polygon fill="#63b8ff" stroke="#63b8ff" points="2279.19,-31.88 2288.45,-26.72 2277.99,-24.98 2279.19,-31.88"/>
</a>
</g>
</g>
<!-- Node19 -->
<g id="Node000019" class="node">
<title>Node19</title>
<g id="a_Node000019"><a xlink:title=" ">
<polygon fill="#e0e0e0" stroke="#999999" points="2559.62,-32 2425.88,-32 2425.88,0 2559.62,0 2559.62,-32"/>
<text text-anchor="start" x="2433.88" y="-18.5" font-family="Helvetica,sans-Serif" font-size="10.00">fr.softsf.canscan.util.String</text>
<text text-anchor="middle" x="2492.75" y="-6.5" font-family="Helvetica,sans-Serif" font-size="10.00">Constants</text>
</a>
</g>
</g>
<!-- Node1&#45;&gt;Node19 -->
<g id="edge18_Node000001_Node000019" class="edge">
<title>Node1&#45;&gt;Node19</title>
<g id="a_edge18_Node000001_Node000019"><a xlink:title=" ">
<path fill="none" stroke="#63b8ff" d="M1353.91,-83.7C1547,-84.18 2014.78,-79.92 2414.56,-32.27"/>
<polygon fill="#63b8ff" stroke="#63b8ff" points="2414.76,-35.78 2424.27,-31.1 2413.92,-28.83 2414.76,-35.78"/>
</a>
</g>
</g>
</g>
</svg>

<g id="navigator" transform="translate(0 0)" fill="#404254">
  <rect fill="#f2f5e9" fill-opacity="0.5" stroke="#606060" stroke-width=".5" x="0" y="0" width="60" height="60"/>
  <use id="zoomplus" xlink:href="#zoomPlus" x="17" y="9" onmousedown="handleZoom(evt,'in')"/>
  <use id="zoomminus" xlink:href="#zoomMin" x="42" y="9" onmousedown="handleZoom(evt,'out')"/>
  <use id="reset" xlink:href="#resetDef" x="30" y="36" onmousedown="handleReset()"/>
   <use id="arrowup" xlink:href="#arrowUp" x="0" y="0" onmousedown="handlePan(0,-1)"/>
  <use id="arrowright" xlink:href="#arrowRight" x="0" y="0" onmousedown="handlePan(1,0)"/>
  <use id="arrowdown" xlink:href="#arrowDown" x="0" y="0" onmousedown="handlePan(0,1)"/>
  <use id="arrowleft" xlink:href="#arrowLeft" x="0" y="0" onmousedown="handlePan(-1,0)"/>
</g>
<svg viewBox="0 0 15 15" width="100%" height="30px" preserveAspectRatio="xMaxYMin meet">
 <g id="arrow_out" transform="scale(0.3 0.3)">
  <a xlink:href="_version_service_8java__incl_org.svg" target="_base">
   <rect id="button" ry="5" rx="5" y="6" x="6" height="38" width="38"
        fill="#f2f5e9" fill-opacity="0.5" stroke="#606060" stroke-width="1.0"/>
   <path id="arrow"
     d="M 11.500037,31.436501 C 11.940474,20.09759 22.043105,11.32322 32.158766,21.979434 L 37.068811,17.246167 C 37.068811,17.246167 37.088388,32 37.088388,32 L 22.160133,31.978069 C 22.160133,31.978069 26.997745,27.140456 26.997745,27.140456 C 18.528582,18.264221 13.291696,25.230495 11.500037,31.436501 z"
     style="fill:#404040;"/>
  </a>
 </g>
</svg>

<style type='text/css'>
<![CDATA[
[data-mouse-over-selected='false'] { opacity: 0.7; }
[data-mouse-over-selected='true']  { opacity: 1.0; }
]]>
</style>
<script type="application/ecmascript"><![CDATA[
document.addEventListener('DOMContentLoaded', (event) => {
  highlightEdges();
  highlightAdjacentNodes();
});
]]></script>
</svg>
