<?xml version="1.0" encoding="UTF-8" standalone="no"?>
<!DOCTYPE svg PUBLIC "-//W3C//DTD SVG 1.1//EN"
 "http://www.w3.org/Graphics/SVG/1.1/DTD/svg11.dtd">
<!-- Generated by graphviz version 12.2.1 (20241206.2353)
 -->
<!-- Title: src/main/java/fr/softsf/canscan/service/VersionService.java Pages: 1 -->
<!--zoomable 108 -->

<svg id="main" version="1.1" xmlns="http://www.w3.org/2000/svg" xmlns:xlink="http://www.w3.org/1999/xlink" xml:space="preserve" onload="init(evt)">

<style type="text/css"><![CDATA[
.node, .edge {opacity: 0.7;}
.node.selected, .edge.selected {opacity: 1;}
.edge:hover path { stroke: red; }
.edge:hover polygon { stroke: red; fill: red; }
]]></style>

<defs>
  <circle id="rim" cx="0" cy="0" r="7"/>
  <circle id="rim2" cx="0" cy="0" r="3.5"/>
  <g id="zoomPlus">
    <use xlink:href="#rim" fill="#404040"><set attributeName="fill" to="#808080" begin="zoomplus.mouseover" end="zoomplus.mouseout"/></use>
    <path d="M-4,0h8M0,-4v8" fill="none" stroke="white" stroke-width="1.5" pointer-events="none"/>
  </g>
  <g id="zoomMin">
    <use xlink:href="#rim" fill="#404040"><set attributeName="fill" to="#808080" begin="zoomminus.mouseover" end="zoomminus.mouseout"/></use>
    <path d="M-4,0h8" fill="none" stroke="white" stroke-width="1.5" pointer-events="none"/>
  </g>
  <g id="arrowUp" transform="translate(30 24)">
    <use xlink:href="#rim"/>
    <path pointer-events="none" fill="none" stroke="white" stroke-width="1.5" d="M0,-3.0v7 M-2.5,-0.5L0,-3.0L2.5,-0.5"/>
  </g>
  <g id="arrowRight" transform="rotate(90) translate(36 -43)">
    <use xlink:href="#rim"/>
    <path pointer-events="none" fill="none" stroke="white" stroke-width="1.5" d="M0,-3.0v7 M-2.5,-0.5L0,-3.0L2.5,-0.5"/>
  </g>
  <g id="arrowDown" transform="rotate(180) translate(-30 -48)">
    <use xlink:href="#rim"/>
    <path pointer-events="none" fill="none" stroke="white" stroke-width="1.5" d="M0,-3.0v7 M-2.5,-0.5L0,-3.0L2.5,-0.5"/>
  </g>
  <g id="arrowLeft" transform="rotate(270) translate(-36 17)">
    <use xlink:href="#rim"/>
    <path pointer-events="none" fill="none" stroke="white" stroke-width="1.5" d="M0,-3.0v7 M-2.5,-0.5L0,-3.0L2.5,-0.5"/>
  </g>
  <g id="resetDef">
    <use xlink:href="#rim2" fill="#404040"><set attributeName="fill" to="#808080" begin="reset.mouseover" end="reset.mouseout"/></use>
  </g>
</defs>
<script type="application/ecmascript">
var viewWidth = 2403;
var viewHeight = 108;
var sectionId = 'dynsection-0';
</script>
<script type="application/ecmascript" xlink:href="svg.min.js"/>
<svg id="graph" class="graph">
<g id="viewport">
<title>src/main/java/fr/softsf/canscan/service/VersionService.java</title>
<!-- Node1 -->
<g id="Node000001" class="node">
<title>Node1</title>
<g id="a_Node000001"><a xlink:title=" ">
<polygon fill="#999999" stroke="#666666" points="1284.5,-100 1105,-100 1105,-68 1284.5,-68 1284.5,-100"/>
<text text-anchor="start" x="1113" y="-86.5" font-family="Helvetica,sans-Serif" font-size="10.00">src/main/java/fr/softsf</text>
<text text-anchor="middle" x="1194.75" y="-74.5" font-family="Helvetica,sans-Serif" font-size="10.00">/canscan/service/VersionService.java</text>
</a>
</g>
</g>
<!-- Node2 -->
<g id="Node000002" class="node">
<title>Node2</title>
<g id="a_Node000002"><a xlink:title=" ">
<polygon fill="#e0e0e0" stroke="#999999" points="101.5,-26 0,-26 0,-6 101.5,-6 101.5,-26"/>
<text text-anchor="middle" x="50.75" y="-12.5" font-family="Helvetica,sans-Serif" font-size="10.00">java.io.IOException</text>
</a>
</g>
</g>
<!-- Node1&#45;&gt;Node2 -->
<g id="edge1_Node000001_Node000002" class="edge">
<title>Node1&#45;&gt;Node2</title>
<g id="a_edge1_Node000001_Node000002"><a xlink:title=" ">
<path fill="none" stroke="#63b8ff" d="M1104.66,-81.11C880.26,-76.02 300.7,-60.46 109.75,-32 104.54,-31.22 99.11,-30.18 93.76,-29"/>
<polygon fill="#63b8ff" stroke="#63b8ff" points="94.98,-25.69 84.44,-26.79 93.37,-32.5 94.98,-25.69"/>
</a>
</g>
</g>
<!-- Node3 -->
<g id="Node000003" class="node">
<title>Node3</title>
<g id="a_Node000003"><a xlink:title=" ">
<polygon fill="#e0e0e0" stroke="#999999" points="270.25,-26 119.25,-26 119.25,-6 270.25,-6 270.25,-26"/>
<text text-anchor="middle" x="194.75" y="-12.5" font-family="Helvetica,sans-Serif" font-size="10.00">java.io.UncheckedIOException</text>
</a>
</g>
</g>
<!-- Node1&#45;&gt;Node3 -->
<g id="edge2_Node000001_Node000003" class="edge">
<title>Node1&#45;&gt;Node3</title>
<g id="a_edge2_Node000001_Node000003"><a xlink:title=" ">
<path fill="none" stroke="#63b8ff" d="M1104.73,-81.6C940.2,-78.24 580.12,-67.17 278.75,-32 270.46,-31.03 261.76,-29.77 253.22,-28.38"/>
<polygon fill="#63b8ff" stroke="#63b8ff" points="254.07,-24.97 243.63,-26.75 252.9,-31.87 254.07,-24.97"/>
</a>
</g>
</g>
<!-- Node4 -->
<g id="Node000004" class="node">
<title>Node4</title>
<g id="a_Node000004"><a xlink:title=" ">
<polygon fill="#e0e0e0" stroke="#999999" points="359.5,-26 288,-26 288,-6 359.5,-6 359.5,-26"/>
<text text-anchor="middle" x="323.75" y="-12.5" font-family="Helvetica,sans-Serif" font-size="10.00">java.net.URI</text>
</a>
</g>
</g>
<!-- Node1&#45;&gt;Node4 -->
<g id="edge3_Node000001_Node000004" class="edge">
<title>Node1&#45;&gt;Node4</title>
<g id="a_edge3_Node000001_Node000004"><a xlink:title=" ">
<path fill="none" stroke="#63b8ff" d="M1104.67,-80.48C920.5,-74.82 506.58,-59.43 367.75,-32 364.74,-31.4 361.65,-30.65 358.57,-29.81"/>
<polygon fill="#63b8ff" stroke="#63b8ff" points="359.67,-26.49 349.09,-26.88 357.61,-33.18 359.67,-26.49"/>
</a>
</g>
</g>
<!-- Node5 -->
<g id="Node000005" class="node">
<title>Node5</title>
<g id="a_Node000005"><a xlink:title=" ">
<polygon fill="#e0e0e0" stroke="#999999" points="494.38,-26 377.12,-26 377.12,-6 494.38,-6 494.38,-26"/>
<text text-anchor="middle" x="435.75" y="-12.5" font-family="Helvetica,sans-Serif" font-size="10.00">java.net.http.HttpClient</text>
</a>
</g>
</g>
<!-- Node1&#45;&gt;Node5 -->
<g id="edge4_Node000001_Node000005" class="edge">
<title>Node1&#45;&gt;Node5</title>
<g id="a_edge4_Node000001_Node000005"><a xlink:title=" ">
<path fill="none" stroke="#63b8ff" d="M1104.58,-80.47C972.22,-75.82 717.84,-63.35 503.75,-32 497.69,-31.11 491.37,-29.99 485.13,-28.76"/>
<polygon fill="#63b8ff" stroke="#63b8ff" points="486.04,-25.37 475.53,-26.76 484.61,-32.23 486.04,-25.37"/>
</a>
</g>
</g>
<!-- Node6 -->
<g id="Node000006" class="node">
<title>Node6</title>
<g id="a_Node000006"><a xlink:title=" ">
<polygon fill="#e0e0e0" stroke="#999999" points="641,-26 512.5,-26 512.5,-6 641,-6 641,-26"/>
<text text-anchor="middle" x="576.75" y="-12.5" font-family="Helvetica,sans-Serif" font-size="10.00">java.net.http.HttpRequest</text>
</a>
</g>
</g>
<!-- Node1&#45;&gt;Node6 -->
<g id="edge5_Node000001_Node000006" class="edge">
<title>Node1&#45;&gt;Node6</title>
<g id="a_edge5_Node000001_Node000006"><a xlink:title=" ">
<path fill="none" stroke="#63b8ff" d="M1104.7,-77.6C996.34,-70.41 809.07,-55.75 649.75,-32 643.27,-31.03 636.5,-29.86 629.81,-28.61"/>
<polygon fill="#63b8ff" stroke="#63b8ff" points="630.66,-25.21 620.17,-26.73 629.32,-32.08 630.66,-25.21"/>
</a>
</g>
</g>
<!-- Node7 -->
<g id="Node000007" class="node">
<title>Node7</title>
<g id="a_Node000007"><a xlink:title=" ">
<polygon fill="#e0e0e0" stroke="#999999" points="794.75,-26 658.75,-26 658.75,-6 794.75,-6 794.75,-26"/>
<text text-anchor="middle" x="726.75" y="-12.5" font-family="Helvetica,sans-Serif" font-size="10.00">java.net.http.HttpResponse</text>
</a>
</g>
</g>
<!-- Node1&#45;&gt;Node7 -->
<g id="edge6_Node000001_Node000007" class="edge">
<title>Node1&#45;&gt;Node7</title>
<g id="a_edge6_Node000001_Node000007"><a xlink:title=" ">
<path fill="none" stroke="#63b8ff" d="M1104.83,-72.9C1025.43,-63.59 906.63,-48.71 803.75,-32 797.29,-30.95 790.54,-29.77 783.85,-28.54"/>
<polygon fill="#63b8ff" stroke="#63b8ff" points="784.64,-25.12 774.16,-26.72 783.34,-32 784.64,-25.12"/>
</a>
</g>
</g>
<!-- Node8 -->
<g id="Node000008" class="node">
<title>Node8</title>
<g id="a_Node000008"><a xlink:title=" ">
<polygon fill="#e0e0e0" stroke="#999999" points="960.38,-32 813.12,-32 813.12,0 960.38,0 960.38,-32"/>
<text text-anchor="start" x="821.12" y="-18.5" font-family="Helvetica,sans-Serif" font-size="10.00">java.security.KeyManagement</text>
<text text-anchor="middle" x="886.75" y="-6.5" font-family="Helvetica,sans-Serif" font-size="10.00">Exception</text>
</a>
</g>
</g>
<!-- Node1&#45;&gt;Node8 -->
<g id="edge7_Node000001_Node000008" class="edge">
<title>Node1&#45;&gt;Node8</title>
<g id="a_edge7_Node000001_Node000008"><a xlink:title=" ">
<path fill="none" stroke="#63b8ff" d="M1122.54,-67.53C1076.94,-57.76 1017.87,-45.1 970.26,-34.89"/>
<polygon fill="#63b8ff" stroke="#63b8ff" points="971.03,-31.48 960.52,-32.81 969.57,-38.33 971.03,-31.48"/>
</a>
</g>
</g>
<!-- Node9 -->
<g id="Node000009" class="node">
<title>Node9</title>
<g id="a_Node000009"><a xlink:title=" ">
<polygon fill="#e0e0e0" stroke="#999999" points="1128.88,-32 978.62,-32 978.62,0 1128.88,0 1128.88,-32"/>
<text text-anchor="start" x="986.62" y="-18.5" font-family="Helvetica,sans-Serif" font-size="10.00">java.security.NoSuchAlgorithm</text>
<text text-anchor="middle" x="1053.75" y="-6.5" font-family="Helvetica,sans-Serif" font-size="10.00">Exception</text>
</a>
</g>
</g>
<!-- Node1&#45;&gt;Node9 -->
<g id="edge8_Node000001_Node000009" class="edge">
<title>Node1&#45;&gt;Node9</title>
<g id="a_edge8_Node000001_Node000009"><a xlink:title=" ">
<path fill="none" stroke="#63b8ff" d="M1161.69,-67.53C1142.33,-58.46 1117.67,-46.92 1096.81,-37.15"/>
<polygon fill="#63b8ff" stroke="#63b8ff" points="1098.51,-34.09 1087.97,-33.02 1095.55,-40.43 1098.51,-34.09"/>
</a>
</g>
</g>
<!-- Node10 -->
<g id="Node000010" class="node">
<title>Node10</title>
<g id="a_Node000010"><a xlink:title=" ">
<polygon fill="#e0e0e0" stroke="#999999" points="1242.5,-26 1147,-26 1147,-6 1242.5,-6 1242.5,-26"/>
<text text-anchor="middle" x="1194.75" y="-12.5" font-family="Helvetica,sans-Serif" font-size="10.00">java.time.Duration</text>
</a>
</g>
</g>
<!-- Node1&#45;&gt;Node10 -->
<g id="edge9_Node000001_Node000010" class="edge">
<title>Node1&#45;&gt;Node10</title>
<g id="a_edge9_Node000001_Node000010"><a xlink:title=" ">
<path fill="none" stroke="#63b8ff" d="M1194.75,-67.69C1194.75,-58.8 1194.75,-47.46 1194.75,-37.77"/>
<polygon fill="#63b8ff" stroke="#63b8ff" points="1198.25,-37.83 1194.75,-27.83 1191.25,-37.83 1198.25,-37.83"/>
</a>
</g>
</g>
<!-- Node11 -->
<g id="Node000011" class="node">
<title>Node11</title>
<g id="a_Node000011"><a xlink:title=" ">
<polygon fill="#e0e0e0" stroke="#999999" points="1405.25,-32 1260.25,-32 1260.25,0 1405.25,0 1405.25,-32"/>
<text text-anchor="start" x="1268.25" y="-18.5" font-family="Helvetica,sans-Serif" font-size="10.00">java.util.concurrent.Execution</text>
<text text-anchor="middle" x="1332.75" y="-6.5" font-family="Helvetica,sans-Serif" font-size="10.00">Exception</text>
</a>
</g>
</g>
<!-- Node1&#45;&gt;Node11 -->
<g id="edge10_Node000001_Node000011" class="edge">
<title>Node1&#45;&gt;Node11</title>
<g id="a_edge10_Node000001_Node000011"><a xlink:title=" ">
<path fill="none" stroke="#63b8ff" d="M1227.1,-67.53C1245.96,-58.51 1269.97,-47.03 1290.33,-37.29"/>
<polygon fill="#63b8ff" stroke="#63b8ff" points="1291.72,-40.5 1299.23,-33.03 1288.7,-34.19 1291.72,-40.5"/>
</a>
</g>
</g>
<!-- Node12 -->
<g id="Node000012" class="node">
<title>Node12</title>
<g id="a_Node000012"><a xlink:title=" ">
<polygon fill="#e0e0e0" stroke="#999999" points="1538.25,-26 1423.25,-26 1423.25,-6 1538.25,-6 1538.25,-26"/>
<text text-anchor="middle" x="1480.75" y="-12.5" font-family="Helvetica,sans-Serif" font-size="10.00">java.util.regex.Matcher</text>
</a>
</g>
</g>
<!-- Node1&#45;&gt;Node12 -->
<g id="edge11_Node000001_Node000012" class="edge">
<title>Node1&#45;&gt;Node12</title>
<g id="a_edge11_Node000001_Node000012"><a xlink:title=" ">
<path fill="none" stroke="#63b8ff" d="M1261.8,-67.53C1312.75,-55.77 1381.81,-39.83 1428.65,-29.02"/>
<polygon fill="#63b8ff" stroke="#63b8ff" points="1429.32,-32.46 1438.28,-26.8 1427.75,-25.64 1429.32,-32.46"/>
</a>
</g>
</g>
<!-- Node13 -->
<g id="Node000013" class="node">
<title>Node13</title>
<g id="a_Node000013"><a xlink:title=" ">
<polygon fill="#e0e0e0" stroke="#999999" points="1667.38,-26 1556.12,-26 1556.12,-6 1667.38,-6 1667.38,-26"/>
<text text-anchor="middle" x="1611.75" y="-12.5" font-family="Helvetica,sans-Serif" font-size="10.00">java.util.regex.Pattern</text>
</a>
</g>
</g>
<!-- Node1&#45;&gt;Node13 -->
<g id="edge12_Node000001_Node000013" class="edge">
<title>Node1&#45;&gt;Node13</title>
<g id="a_edge12_Node000001_Node000013"><a xlink:title=" ">
<path fill="none" stroke="#63b8ff" d="M1284.69,-72.19C1356.24,-63.07 1458.77,-48.82 1547.75,-32 1552.68,-31.07 1557.8,-30.01 1562.9,-28.91"/>
<polygon fill="#63b8ff" stroke="#63b8ff" points="1563.49,-32.36 1572.49,-26.76 1561.96,-25.53 1563.49,-32.36"/>
</a>
</g>
</g>
<!-- Node14 -->
<g id="Node000014" class="node">
<title>Node14</title>
<g id="a_Node000014"><a xlink:title=" ">
<polygon fill="#e0e0e0" stroke="#999999" points="1813.62,-26 1685.88,-26 1685.88,-6 1813.62,-6 1813.62,-26"/>
<text text-anchor="middle" x="1749.75" y="-12.5" font-family="Helvetica,sans-Serif" font-size="10.00">javax.net.ssl.SSLContext</text>
</a>
</g>
</g>
<!-- Node1&#45;&gt;Node14 -->
<g id="edge13_Node000001_Node000014" class="edge">
<title>Node1&#45;&gt;Node14</title>
<g id="a_edge13_Node000001_Node000014"><a xlink:title=" ">
<path fill="none" stroke="#63b8ff" d="M1284.81,-76.1C1381.89,-68.06 1540.8,-53.11 1676.75,-32 1683.14,-31.01 1689.81,-29.83 1696.42,-28.58"/>
<polygon fill="#63b8ff" stroke="#63b8ff" points="1696.79,-32.08 1705.93,-26.72 1695.44,-25.21 1696.79,-32.08"/>
</a>
</g>
</g>
<!-- Node15 -->
<g id="Node000015" class="node">
<title>Node15</title>
<g id="a_Node000015"><a xlink:title=" ">
<polygon fill="#e0e0e0" stroke="#999999" points="1936,-26 1831.5,-26 1831.5,-6 1936,-6 1936,-26"/>
<text text-anchor="middle" x="1883.75" y="-12.5" font-family="Helvetica,sans-Serif" font-size="10.00">javax.swing.JButton</text>
</a>
</g>
</g>
<!-- Node1&#45;&gt;Node15 -->
<g id="edge14_Node000001_Node000015" class="edge">
<title>Node1&#45;&gt;Node15</title>
<g id="a_edge14_Node000001_Node000015"><a xlink:title=" ">
<path fill="none" stroke="#63b8ff" d="M1284.99,-80.21C1407.47,-75.39 1632.86,-62.85 1822.75,-32 1827.79,-31.18 1833.03,-30.16 1838.22,-29.04"/>
<polygon fill="#63b8ff" stroke="#63b8ff" points="1838.99,-32.45 1847.95,-26.8 1837.42,-25.63 1838.99,-32.45"/>
</a>
</g>
</g>
<!-- Node16 -->
<g id="Node000016" class="node">
<title>Node16</title>
<g id="a_Node000016"><a xlink:title=" ">
<polygon fill="#e0e0e0" stroke="#999999" points="2083,-26 1954.5,-26 1954.5,-6 2083,-6 2083,-26"/>
<text text-anchor="middle" x="2018.75" y="-12.5" font-family="Helvetica,sans-Serif" font-size="10.00">javax.swing.SwingWorker</text>
</a>
</g>
</g>
<!-- Node1&#45;&gt;Node16 -->
<g id="edge15_Node000001_Node000016" class="edge">
<title>Node1&#45;&gt;Node16</title>
<g id="a_edge15_Node000001_Node000016"><a xlink:title=" ">
<path fill="none" stroke="#63b8ff" d="M1284.9,-80.71C1426.13,-76.27 1707.9,-63.92 1944.75,-32 1951.57,-31.08 1958.71,-29.91 1965.75,-28.62"/>
<polygon fill="#63b8ff" stroke="#63b8ff" points="1966.39,-32.06 1975.55,-26.74 1965.07,-25.19 1966.39,-32.06"/>
</a>
</g>
</g>
<!-- Node17 -->
<g id="Node000017" class="node">
<title>Node17</title>
<g id="a_Node000017"><a xlink:title=" ">
<polygon fill="#e0e0e0" stroke="#999999" points="2232.12,-26 2101.38,-26 2101.38,-6 2232.12,-6 2232.12,-26"/>
<text text-anchor="middle" x="2166.75" y="-12.5" font-family="Helvetica,sans-Serif" font-size="10.00">fr.softsf.canscan.ui.Popup</text>
</a>
</g>
</g>
<!-- Node1&#45;&gt;Node17 -->
<g id="edge16_Node000001_Node000017" class="edge">
<title>Node1&#45;&gt;Node17</title>
<g id="a_edge16_Node000001_Node000017"><a xlink:title=" ">
<path fill="none" stroke="#63b8ff" d="M1284.89,-82.06C1446.99,-79.44 1798.16,-69.52 2091.75,-32 2098.84,-31.09 2106.26,-29.91 2113.56,-28.6"/>
<polygon fill="#63b8ff" stroke="#63b8ff" points="2114.21,-32.03 2123.39,-26.74 2112.91,-25.16 2114.21,-32.03"/>
</a>
</g>
</g>
<!-- Node18 -->
<g id="Node000018" class="node">
<title>Node18</title>
<g id="a_Node000018"><a xlink:title=" ">
<polygon fill="#e0e0e0" stroke="#999999" points="2395.25,-26 2250.25,-26 2250.25,-6 2395.25,-6 2395.25,-26"/>
<text text-anchor="middle" x="2322.75" y="-12.5" font-family="Helvetica,sans-Serif" font-size="10.00">fr.softsf.canscan.util.Checker</text>
</a>
</g>
</g>
<!-- Node1&#45;&gt;Node18 -->
<g id="edge17_Node000001_Node000018" class="edge">
<title>Node1&#45;&gt;Node18</title>
<g id="a_edge17_Node000001_Node000018"><a xlink:title=" ">
<path fill="none" stroke="#63b8ff" d="M1284.97,-82.61C1466.54,-80.94 1888.78,-72.59 2240.75,-32 2248.86,-31.07 2257.37,-29.81 2265.71,-28.43"/>
<polygon fill="#63b8ff" stroke="#63b8ff" points="2266.19,-31.9 2275.45,-26.74 2265,-25.01 2266.19,-31.9"/>
</a>
</g>
</g>
</g>
</svg>

<g id="navigator" transform="translate(0 0)" fill="#404254">
  <rect fill="#f2f5e9" fill-opacity="0.5" stroke="#606060" stroke-width=".5" x="0" y="0" width="60" height="60"/>
  <use id="zoomplus" xlink:href="#zoomPlus" x="17" y="9" onmousedown="handleZoom(evt,'in')"/>
  <use id="zoomminus" xlink:href="#zoomMin" x="42" y="9" onmousedown="handleZoom(evt,'out')"/>
  <use id="reset" xlink:href="#resetDef" x="30" y="36" onmousedown="handleReset()"/>
   <use id="arrowup" xlink:href="#arrowUp" x="0" y="0" onmousedown="handlePan(0,-1)"/>
  <use id="arrowright" xlink:href="#arrowRight" x="0" y="0" onmousedown="handlePan(1,0)"/>
  <use id="arrowdown" xlink:href="#arrowDown" x="0" y="0" onmousedown="handlePan(0,1)"/>
  <use id="arrowleft" xlink:href="#arrowLeft" x="0" y="0" onmousedown="handlePan(-1,0)"/>
</g>
<svg viewBox="0 0 15 15" width="100%" height="30px" preserveAspectRatio="xMaxYMin meet">
 <g id="arrow_out" transform="scale(0.3 0.3)">
  <a xlink:href="_version_service_8java__incl_org.svg" target="_base">
   <rect id="button" ry="5" rx="5" y="6" x="6" height="38" width="38"
        fill="#f2f5e9" fill-opacity="0.5" stroke="#606060" stroke-width="1.0"/>
   <path id="arrow"
     d="M 11.500037,31.436501 C 11.940474,20.09759 22.043105,11.32322 32.158766,21.979434 L 37.068811,17.246167 C 37.068811,17.246167 37.088388,32 37.088388,32 L 22.160133,31.978069 C 22.160133,31.978069 26.997745,27.140456 26.997745,27.140456 C 18.528582,18.264221 13.291696,25.230495 11.500037,31.436501 z"
     style="fill:#404040;"/>
  </a>
 </g>
</svg>

<style type='text/css'>
<![CDATA[
[data-mouse-over-selected='false'] { opacity: 0.7; }
[data-mouse-over-selected='true']  { opacity: 1.0; }
]]>
</style>
<script type="application/ecmascript"><![CDATA[
document.addEventListener('DOMContentLoaded', (event) => {
  highlightEdges();
  highlightAdjacentNodes();
});
]]></script>
</svg>
