<?xml version="1.0" encoding="UTF-8" standalone="no"?>
<!DOCTYPE svg PUBLIC "-//W3C//DTD SVG 1.1//EN"
 "http://www.w3.org/Graphics/SVG/1.1/DTD/svg11.dtd">
<!-- Generated by graphviz version 12.2.1 (20241206.2353)
 -->
<!-- Title: fr.softsf.canscan.CanScan.updateQrCodeSize Pages: 1 -->
<svg width="979pt" height="228pt"
 viewBox="0.00 0.00 979.00 228.00" xmlns="http://www.w3.org/2000/svg" xmlns:xlink="http://www.w3.org/1999/xlink">
<g id="graph0" class="graph" transform="scale(1 1) rotate(0) translate(4 224)">
<title>fr.softsf.canscan.CanScan.updateQrCodeSize</title>
<!-- Node1 -->
<g id="Node000001" class="node">
<title>Node1</title>
<g id="a_Node000001"><a xlink:title="Schedules a debounced QR code resize operation based on available vertical space.">
<polygon fill="#999999" stroke="#666666" points="165.25,-126 0,-126 0,-94 165.25,-94 165.25,-126"/>
<text text-anchor="start" x="8" y="-112.5" font-family="Helvetica,sans-Serif" font-size="10.00">fr.softsf.canscan.CanScan.update</text>
<text text-anchor="middle" x="82.62" y="-100.5" font-family="Helvetica,sans-Serif" font-size="10.00">QrCodeSize</text>
</a>
</g>
</g>
<!-- Node2 -->
<g id="Node000002" class="node">
<title>Node2</title>
<g id="a_Node000002"><a xlink:href="classfr_1_1softsf_1_1canscan_1_1_can_scan.html#ab8d47730e193662fdf6af6ad7a53d79a" target="_top" xlink:title="Handles the actual QR code resize logic after debounce delay.">
<polygon fill="white" stroke="#666666" points="365.75,-126 201.25,-126 201.25,-94 365.75,-94 365.75,-126"/>
<text text-anchor="start" x="209.25" y="-112.5" font-family="Helvetica,sans-Serif" font-size="10.00">fr.softsf.canscan.CanScan.handle</text>
<text text-anchor="middle" x="283.5" y="-100.5" font-family="Helvetica,sans-Serif" font-size="10.00">Resize</text>
</a>
</g>
</g>
<!-- Node1&#45;&gt;Node2 -->
<g id="edge1_Node000001_Node000002" class="edge">
<title>Node1&#45;&gt;Node2</title>
<g id="a_edge1_Node000001_Node000002"><a xlink:title=" ">
<path fill="none" stroke="#63b8ff" d="M165.66,-110C173.59,-110 181.67,-110 189.69,-110"/>
<polygon fill="#63b8ff" stroke="#63b8ff" points="189.46,-113.5 199.46,-110 189.46,-106.5 189.46,-113.5"/>
</a>
</g>
</g>
<!-- Node3 -->
<g id="Node000003" class="node">
<title>Node3</title>
<g id="a_Node000003"><a xlink:href="classfr_1_1softsf_1_1canscan_1_1_can_scan.html#adfbb5c9cf5fa4e297933cd0fce90162c" target="_top" xlink:title="Builds a QrInput from the current field values.">
<polygon fill="white" stroke="#666666" points="564,-220 407.75,-220 407.75,-188 564,-188 564,-220"/>
<text text-anchor="start" x="415.75" y="-206.5" font-family="Helvetica,sans-Serif" font-size="10.00">fr.softsf.canscan.CanScan.build</text>
<text text-anchor="middle" x="485.88" y="-194.5" font-family="Helvetica,sans-Serif" font-size="10.00">QrInput</text>
</a>
</g>
</g>
<!-- Node2&#45;&gt;Node3 -->
<g id="edge2_Node000002_Node000003" class="edge">
<title>Node2&#45;&gt;Node3</title>
<g id="a_edge2_Node000002_Node000003"><a xlink:title=" ">
<path fill="none" stroke="#63b8ff" d="M308.3,-126.31C331.37,-141.56 367.77,-164.15 401.75,-179 405.49,-180.64 409.37,-182.2 413.32,-183.7"/>
<polygon fill="#63b8ff" stroke="#63b8ff" points="411.86,-186.9 422.46,-186.99 414.23,-180.31 411.86,-186.9"/>
</a>
</g>
</g>
<!-- Node4 -->
<g id="Node000004" class="node">
<title>Node4</title>
<g id="a_Node000004"><a xlink:href="classfr_1_1softsf_1_1canscan_1_1_can_scan.html#ae299b57aba96ad890bab5bdfaae06f98" target="_top" xlink:title="Cancels any ongoing resize worker if active and waits for its proper termination.">
<polygon fill="white" stroke="#666666" points="770.5,-123 606,-123 606,-91 770.5,-91 770.5,-123"/>
<text text-anchor="start" x="614" y="-109.5" font-family="Helvetica,sans-Serif" font-size="10.00">fr.softsf.canscan.CanScan.cancel</text>
<text text-anchor="middle" x="688.25" y="-97.5" font-family="Helvetica,sans-Serif" font-size="10.00">PreviousResizeWorker</text>
</a>
</g>
</g>
<!-- Node2&#45;&gt;Node4 -->
<g id="edge3_Node000002_Node000004" class="edge">
<title>Node2&#45;&gt;Node4</title>
<g id="a_edge3_Node000002_Node000004"><a xlink:title=" ">
<path fill="none" stroke="#63b8ff" d="M366,-109.39C432.08,-108.9 525.24,-108.21 594.24,-107.69"/>
<polygon fill="#63b8ff" stroke="#63b8ff" points="594.04,-111.19 604.01,-107.62 593.98,-104.19 594.04,-111.19"/>
</a>
</g>
</g>
<!-- Node5 -->
<g id="Node000005" class="node">
<title>Node5</title>
<g id="a_Node000005"><a xlink:href="classfr_1_1softsf_1_1canscan_1_1_can_scan.html#aa520a5f04c8429a7d24c96e9ecab3351" target="_top" xlink:title="Determines whether the QR data is invalid or null and handles cleanup if needed.">
<polygon fill="white" stroke="#666666" points="557.62,-170 414.12,-170 414.12,-138 557.62,-138 557.62,-170"/>
<text text-anchor="start" x="422.12" y="-156.5" font-family="Helvetica,sans-Serif" font-size="10.00">fr.softsf.canscan.CanScan.is</text>
<text text-anchor="middle" x="485.88" y="-144.5" font-family="Helvetica,sans-Serif" font-size="10.00">InvalidQrData</text>
</a>
</g>
</g>
<!-- Node2&#45;&gt;Node5 -->
<g id="edge4_Node000002_Node000005" class="edge">
<title>Node2&#45;&gt;Node5</title>
<g id="a_edge4_Node000002_Node000005"><a xlink:title=" ">
<path fill="none" stroke="#63b8ff" d="M359.4,-126.45C373.57,-129.56 388.47,-132.83 402.84,-135.99"/>
<polygon fill="#63b8ff" stroke="#63b8ff" points="401.72,-139.32 412.24,-138.05 403.22,-132.49 401.72,-139.32"/>
</a>
</g>
</g>
<!-- Node7 -->
<g id="Node000007" class="node">
<title>Node7</title>
<g id="a_Node000007"><a xlink:href="classfr_1_1softsf_1_1canscan_1_1_can_scan.html#a3a59f2d5eae9195b29a42c70f52c0dac" target="_top" xlink:title="Manages the lifecycle of the resize worker by cancelling any existing worker, creating a new SwingWor...">
<polygon fill="white" stroke="#666666" points="568.12,-82 403.62,-82 403.62,-50 568.12,-50 568.12,-82"/>
<text text-anchor="start" x="411.62" y="-68.5" font-family="Helvetica,sans-Serif" font-size="10.00">fr.softsf.canscan.CanScan.launch</text>
<text text-anchor="middle" x="485.88" y="-56.5" font-family="Helvetica,sans-Serif" font-size="10.00">ResizeWorker</text>
</a>
</g>
</g>
<!-- Node2&#45;&gt;Node7 -->
<g id="edge6_Node000002_Node000007" class="edge">
<title>Node2&#45;&gt;Node7</title>
<g id="a_edge6_Node000002_Node000007"><a xlink:title=" ">
<path fill="none" stroke="#63b8ff" d="M359.4,-93.55C372.25,-90.73 385.7,-87.78 398.81,-84.9"/>
<polygon fill="#63b8ff" stroke="#63b8ff" points="399.24,-88.39 408.26,-82.82 397.74,-81.55 399.24,-88.39"/>
</a>
</g>
</g>
<!-- Node11 -->
<g id="Node000011" class="node">
<title>Node11</title>
<g id="a_Node000011"><a xlink:href="classfr_1_1softsf_1_1canscan_1_1_can_scan.html#a81ea88dd5138cbfcddf59be7837611f9" target="_top" xlink:title="Clears previous QR code visuals and starts wait icon animation.">
<polygon fill="white" stroke="#666666" points="570,-32 401.75,-32 401.75,0 570,0 570,-32"/>
<text text-anchor="start" x="409.75" y="-18.5" font-family="Helvetica,sans-Serif" font-size="10.00">fr.softsf.canscan.CanScan.prepare</text>
<text text-anchor="middle" x="485.88" y="-6.5" font-family="Helvetica,sans-Serif" font-size="10.00">ForResize</text>
</a>
</g>
</g>
<!-- Node2&#45;&gt;Node11 -->
<g id="edge11_Node000002_Node000011" class="edge">
<title>Node2&#45;&gt;Node11</title>
<g id="a_edge11_Node000002_Node000011"><a xlink:title=" ">
<path fill="none" stroke="#63b8ff" d="M308.3,-93.69C331.37,-78.44 367.77,-55.85 401.75,-41 405.49,-39.36 409.37,-37.8 413.32,-36.3"/>
<polygon fill="#63b8ff" stroke="#63b8ff" points="414.23,-39.69 422.46,-33.01 411.86,-33.1 414.23,-39.69"/>
</a>
</g>
</g>
<!-- Node6 -->
<g id="Node000006" class="node">
<title>Node6</title>
<g id="a_Node000006"><a xlink:href="classfr_1_1softsf_1_1canscan_1_1_can_scan.html#a4815606aa036969bcf5313568220d396" target="_top" xlink:title="Releases the currently stored QR code image to free native memory.">
<polygon fill="white" stroke="#666666" points="764.5,-173 612,-173 612,-141 764.5,-141 764.5,-173"/>
<text text-anchor="start" x="620" y="-159.5" font-family="Helvetica,sans-Serif" font-size="10.00">fr.softsf.canscan.CanScan.free</text>
<text text-anchor="middle" x="688.25" y="-147.5" font-family="Helvetica,sans-Serif" font-size="10.00">QrOriginal</text>
</a>
</g>
</g>
<!-- Node5&#45;&gt;Node6 -->
<g id="edge5_Node000005_Node000006" class="edge">
<title>Node5&#45;&gt;Node6</title>
<g id="a_edge5_Node000005_Node000006"><a xlink:title=" ">
<path fill="none" stroke="#63b8ff" d="M558.08,-155.07C571.75,-155.27 586.21,-155.49 600.31,-155.7"/>
<polygon fill="#63b8ff" stroke="#63b8ff" points="599.95,-159.19 610.01,-155.84 600.06,-152.19 599.95,-159.19"/>
</a>
</g>
</g>
<!-- Node7&#45;&gt;Node4 -->
<g id="edge7_Node000007_Node000004" class="edge">
<title>Node7&#45;&gt;Node4</title>
<g id="a_edge7_Node000007_Node000004"><a xlink:title=" ">
<path fill="none" stroke="#63b8ff" d="M567.51,-82.5C576.81,-84.4 586.35,-86.35 595.78,-88.28"/>
<polygon fill="#63b8ff" stroke="#63b8ff" points="594.8,-91.66 605.3,-90.23 596.2,-84.8 594.8,-91.66"/>
</a>
</g>
</g>
<!-- Node8 -->
<g id="Node000008" class="node">
<title>Node8</title>
<g id="a_Node000008"><a xlink:href="classfr_1_1softsf_1_1canscan_1_1_can_scan.html#aa6e81c2bc494d739a728f4572163b781" target="_top" xlink:title="Creates a background task to resize the QR code image to the specified height.">
<polygon fill="white" stroke="#666666" points="769.75,-73 606.75,-73 606.75,-41 769.75,-41 769.75,-73"/>
<text text-anchor="start" x="614.75" y="-59.5" font-family="Helvetica,sans-Serif" font-size="10.00">fr.softsf.canscan.CanScan.create</text>
<text text-anchor="middle" x="688.25" y="-47.5" font-family="Helvetica,sans-Serif" font-size="10.00">ResizeWorker</text>
</a>
</g>
</g>
<!-- Node7&#45;&gt;Node8 -->
<g id="edge8_Node000007_Node000008" class="edge">
<title>Node7&#45;&gt;Node8</title>
<g id="a_edge8_Node000007_Node000008"><a xlink:title=" ">
<path fill="none" stroke="#63b8ff" d="M568.38,-62.34C577.21,-61.94 586.25,-61.54 595.2,-61.13"/>
<polygon fill="#63b8ff" stroke="#63b8ff" points="595.13,-64.64 604.96,-60.7 594.81,-57.65 595.13,-64.64"/>
</a>
</g>
</g>
<!-- Node9 -->
<g id="Node000009" class="node">
<title>Node9</title>
<g id="a_Node000009"><a xlink:href="classfr_1_1softsf_1_1canscan_1_1_can_scan.html#a1ff2f05476d5b6127e69c1645fd53704" target="_top" xlink:title="Handles resize worker completion: checks cancellation, disposes obsolete icons, updates UI,...">
<polygon fill="white" stroke="#666666" points="971,-98 806.5,-98 806.5,-66 971,-66 971,-98"/>
<text text-anchor="start" x="814.5" y="-84.5" font-family="Helvetica,sans-Serif" font-size="10.00">fr.softsf.canscan.CanScan.handle</text>
<text text-anchor="middle" x="888.75" y="-72.5" font-family="Helvetica,sans-Serif" font-size="10.00">ResizeWorkerCompletion</text>
</a>
</g>
</g>
<!-- Node8&#45;&gt;Node9 -->
<g id="edge9_Node000008_Node000009" class="edge">
<title>Node8&#45;&gt;Node9</title>
<g id="a_edge9_Node000008_Node000009"><a xlink:title=" ">
<path fill="none" stroke="#63b8ff" d="M769.99,-67.17C778.18,-68.2 786.54,-69.25 794.85,-70.3"/>
<polygon fill="#63b8ff" stroke="#63b8ff" points="794.26,-73.75 804.62,-71.53 795.13,-66.81 794.26,-73.75"/>
</a>
</g>
</g>
<!-- Node10 -->
<g id="Node000010" class="node">
<title>Node10</title>
<g id="a_Node000010"><a xlink:href="classfr_1_1softsf_1_1canscan_1_1_can_scan.html#a9ecdcaf8fb8d45df31f2bdf3101243df" target="_top" xlink:title="Performs the image resizing operation on a background thread.">
<polygon fill="white" stroke="#666666" points="969.88,-48 807.62,-48 807.62,-16 969.88,-16 969.88,-48"/>
<text text-anchor="start" x="815.62" y="-34.5" font-family="Helvetica,sans-Serif" font-size="10.00">fr.softsf.canscan.CanScan.resize</text>
<text text-anchor="middle" x="888.75" y="-22.5" font-family="Helvetica,sans-Serif" font-size="10.00">ImageInBackground</text>
</a>
</g>
</g>
<!-- Node8&#45;&gt;Node10 -->
<g id="edge10_Node000008_Node000010" class="edge">
<title>Node8&#45;&gt;Node10</title>
<g id="a_edge10_Node000008_Node000010"><a xlink:title=" ">
<path fill="none" stroke="#63b8ff" d="M769.99,-46.83C778.57,-45.75 787.34,-44.65 796.04,-43.55"/>
<polygon fill="#63b8ff" stroke="#63b8ff" points="796.42,-47.03 805.9,-42.31 795.55,-40.09 796.42,-47.03"/>
</a>
</g>
</g>
</g>
</svg>
