<?xml version="1.0" encoding="UTF-8" standalone="no"?>
<!DOCTYPE svg PUBLIC "-//W3C//DTD SVG 1.1//EN"
 "http://www.w3.org/Graphics/SVG/1.1/DTD/svg11.dtd">
<!-- Generated by graphviz version 12.2.1 (20241206.2353)
 -->
<!-- Title: fr.softsf.canscan.ui.FlatLafDatePicker Pages: 1 -->
<svg width="224pt" height="408pt"
 viewBox="0.00 0.00 223.75 408.00" xmlns="http://www.w3.org/2000/svg" xmlns:xlink="http://www.w3.org/1999/xlink">

<svg id="main" version="1.1" xmlns="http://www.w3.org/2000/svg" xmlns:xlink="http://www.w3.org/1999/xlink" xml:space="preserve">

<style type="text/css"><![CDATA[
.node, .edge {opacity: 0.7;}
.node.selected, .edge.selected {opacity: 1;}
.edge:hover path { stroke: red; }
.edge:hover polygon { stroke: red; fill: red; }
]]></style>
<script type="application/ecmascript" xlink:href="svg.min.js"/>
<svg id="graph" class="graph">
<g id="graph0" class="graph" transform="scale(1 1) rotate(0) translate(4 404)">
<title>fr.softsf.canscan.ui.FlatLafDatePicker</title>
<!-- Node1 -->
<g id="Node000001" class="node">
<title>Node1</title>
<g id="a_Node000001"><a xlink:title="DatePicker component with FlatLaf styling applied and automatically maintained.">
<polygon fill="#999999" stroke="none" points="165.12,-204 7.62,-204 7.62,0 165.12,0 165.12,-204"/>
<text text-anchor="start" x="34.62" y="-190.5" font-family="Helvetica,sans-Serif" font-size="10.00">fr.softsf.canscan.ui.Flat</text>
<text text-anchor="start" x="55.25" y="-178.5" font-family="Helvetica,sans-Serif" font-size="10.00">LafDatePicker</text>
<text text-anchor="start" x="13.12" y="-162.5" font-family="Helvetica,sans-Serif" font-size="10.00">&#45;</text>
<text text-anchor="start" x="21.62" y="-162.5" font-family="Helvetica,sans-Serif" font-size="10.00">static final String</text>
<text text-anchor="start" x="21.62" y="-150.5" font-family="Helvetica,sans-Serif" font-size="10.00"> BUTTON_BACKGROUND</text>
<text text-anchor="start" x="13.12" y="-134.5" font-family="Helvetica,sans-Serif" font-size="10.00">&#45;</text>
<text text-anchor="start" x="21.62" y="-134.5" font-family="Helvetica,sans-Serif" font-size="10.00">static final String</text>
<text text-anchor="start" x="21.62" y="-122.5" font-family="Helvetica,sans-Serif" font-size="10.00"> BUTTON_FOREGROUND</text>
<text text-anchor="start" x="13.12" y="-106.5" font-family="Helvetica,sans-Serif" font-size="10.00">&#45;</text>
<text text-anchor="start" x="21.62" y="-106.5" font-family="Helvetica,sans-Serif" font-size="10.00">static final String</text>
<text text-anchor="start" x="21.62" y="-94.5" font-family="Helvetica,sans-Serif" font-size="10.00"> TEXT_FIELD_BACKGROUND</text>
<text text-anchor="start" x="11.62" y="-78.5" font-family="Helvetica,sans-Serif" font-size="10.00">+</text>
<text text-anchor="start" x="21.62" y="-78.5" font-family="Helvetica,sans-Serif" font-size="10.00">FlatLafDatePicker()</text>
<text text-anchor="start" x="11.62" y="-62.5" font-family="Helvetica,sans-Serif" font-size="10.00">+</text>
<text text-anchor="start" x="21.62" y="-62.5" font-family="Helvetica,sans-Serif" font-size="10.00">JTextField getInternalText</text>
<text text-anchor="start" x="21.62" y="-50.5" font-family="Helvetica,sans-Serif" font-size="10.00">Field()</text>
<text text-anchor="start" x="11.62" y="-34.5" font-family="Helvetica,sans-Serif" font-size="10.00">+</text>
<text text-anchor="start" x="21.62" y="-34.5" font-family="Helvetica,sans-Serif" font-size="10.00">Dimension getPreferredSize()</text>
<text text-anchor="start" x="13.12" y="-18.5" font-family="Helvetica,sans-Serif" font-size="10.00">&#45;</text>
<text text-anchor="start" x="21.62" y="-18.5" font-family="Helvetica,sans-Serif" font-size="10.00">static DatePickerSettings</text>
<text text-anchor="start" x="21.62" y="-6.5" font-family="Helvetica,sans-Serif" font-size="10.00"> createSettings()</text>
<polygon fill="#666666" stroke="#666666" points="7.62,-174 7.62,-174 165.12,-174 165.12,-174 7.62,-174"/>
<polygon fill="#666666" stroke="#666666" points="7.62,-90 7.62,-90 19.62,-90 19.62,-90 7.62,-90"/>
<polygon fill="#666666" stroke="#666666" points="19.62,-90 19.62,-90 165.12,-90 165.12,-90 19.62,-90"/>
<polygon fill="none" stroke="#666666" points="7.62,0 7.62,-204 165.12,-204 165.12,0 7.62,0"/>
</a>
</g>
</g>
<!-- Node2 -->
<g id="Node000002" class="node">
<title>Node2</title>
<g id="a_Node000002"><a xlink:title=" ">
<polygon fill="white" stroke="none" points="56.75,-346 0,-346 0,-294 56.75,-294 56.75,-346"/>
<text text-anchor="start" x="4" y="-332.5" font-family="Helvetica,sans-Serif" font-size="10.00">DatePicker</text>
<text text-anchor="start" x="26.88" y="-316.5" font-family="Helvetica,sans-Serif" font-size="10.00"> </text>
<text text-anchor="start" x="26.88" y="-300.5" font-family="Helvetica,sans-Serif" font-size="10.00"> </text>
<polygon fill="#666666" stroke="#666666" points="0,-328 0,-328 56.75,-328 56.75,-328 0,-328"/>
<polygon fill="#666666" stroke="#666666" points="0,-312 0,-312 56.75,-312 56.75,-312 0,-312"/>
<polygon fill="none" stroke="#666666" points="0,-294 0,-346 56.75,-346 56.75,-294 0,-294"/>
</a>
</g>
</g>
<!-- Node2&#45;&gt;Node1 -->
<g id="edge1_Node000001_Node000002" class="edge">
<title>Node2&#45;&gt;Node1</title>
<g id="a_edge1_Node000001_Node000002"><a xlink:title=" ">
<path fill="none" stroke="#63b8ff" d="M37.99,-283.2C43.85,-261.35 51.67,-232.24 59.31,-203.8"/>
<polygon fill="none" stroke="#63b8ff" points="34.63,-282.19 35.42,-292.76 41.39,-284.01 34.63,-282.19"/>
</a>
</g>
</g>
<!-- Node3 -->
<g id="Node000003" class="node">
<title>Node3</title>
<g id="a_Node000003"><a xlink:href="interfacefr_1_1softsf_1_1canscan_1_1ui_1_1_i_flat_laf_styled_for_l_good_date_picker.html" target="_top" xlink:title="Interface providing FlatLaf styling support for LGoodDatePicker components.">
<polygon fill="white" stroke="none" points="215.75,-400 75,-400 75,-240 215.75,-240 215.75,-400"/>
<text text-anchor="start" x="79" y="-386.5" font-family="Helvetica,sans-Serif" font-size="10.00">fr.softsf.canscan.ui.IFlat</text>
<text text-anchor="start" x="79" y="-374.5" font-family="Helvetica,sans-Serif" font-size="10.00">LafStyledForLGoodDatePicker</text>
<text text-anchor="start" x="79.88" y="-358.5" font-family="Helvetica,sans-Serif" font-size="10.00">+</text>
<text text-anchor="start" x="90.75" y="-358.5" font-family="Helvetica,sans-Serif" font-size="10.00">int TEXT_FIELD_HEIGHT</text>
<text text-anchor="start" x="79.88" y="-342.5" font-family="Helvetica,sans-Serif" font-size="10.00">+</text>
<text text-anchor="start" x="90.75" y="-342.5" font-family="Helvetica,sans-Serif" font-size="10.00">default void applyTheme()</text>
<text text-anchor="start" x="79.88" y="-326.5" font-family="Helvetica,sans-Serif" font-size="10.00">+</text>
<text text-anchor="start" x="90.75" y="-326.5" font-family="Helvetica,sans-Serif" font-size="10.00">default Dimension compute</text>
<text text-anchor="start" x="90.75" y="-314.5" font-family="Helvetica,sans-Serif" font-size="10.00">PreferredSize(Dimension</text>
<text text-anchor="start" x="90.75" y="-302.5" font-family="Helvetica,sans-Serif" font-size="10.00"> original)</text>
<text text-anchor="start" x="79.88" y="-286.5" font-family="Helvetica,sans-Serif" font-size="10.00">+</text>
<text text-anchor="start" x="90.75" y="-286.5" font-family="Helvetica,sans-Serif" font-size="10.00">JTextField getInternalText</text>
<text text-anchor="start" x="90.75" y="-274.5" font-family="Helvetica,sans-Serif" font-size="10.00">Field()</text>
<text text-anchor="start" x="79.88" y="-258.5" font-family="Helvetica,sans-Serif" font-size="10.00">+</text>
<text text-anchor="start" x="90.75" y="-258.5" font-family="Helvetica,sans-Serif" font-size="10.00">default void installTheme</text>
<text text-anchor="start" x="90.75" y="-246.5" font-family="Helvetica,sans-Serif" font-size="10.00">Listener()</text>
<polygon fill="#666666" stroke="#666666" points="75,-370 75,-370 215.75,-370 215.75,-370 75,-370"/>
<polygon fill="#666666" stroke="#666666" points="75,-354 75,-354 88.75,-354 88.75,-354 75,-354"/>
<polygon fill="#666666" stroke="#666666" points="88.75,-354 88.75,-354 215.75,-354 215.75,-354 88.75,-354"/>
<polygon fill="none" stroke="#666666" points="75,-240 75,-400 215.75,-400 215.75,-240 75,-240"/>
</a>
</g>
</g>
<!-- Node3&#45;&gt;Node1 -->
<g id="edge2_Node000001_Node000003" class="edge">
<title>Node3&#45;&gt;Node1</title>
<g id="a_edge2_Node000001_Node000003"><a xlink:title=" ">
<path fill="none" stroke="#63b8ff" d="M120.84,-229.18C118.55,-220.8 116.22,-212.27 113.91,-203.79"/>
<polygon fill="none" stroke="#63b8ff" points="117.41,-229.92 123.43,-238.64 124.17,-228.07 117.41,-229.92"/>
</a>
</g>
</g>
</g>
</svg>
</svg>

<style type='text/css'>
<![CDATA[
[data-mouse-over-selected='false'] { opacity: 0.7; }
[data-mouse-over-selected='true']  { opacity: 1.0; }
]]>
</style>
<script type="application/ecmascript"><![CDATA[
document.addEventListener('DOMContentLoaded', (event) => {
  highlightEdges();
  highlightAdjacentNodes();
});
]]></script>
</svg>
