<?xml version="1.0" encoding="UTF-8" standalone="no"?>
<!DOCTYPE svg PUBLIC "-//W3C//DTD SVG 1.1//EN"
 "http://www.w3.org/Graphics/SVG/1.1/DTD/svg11.dtd">
<!-- Generated by graphviz version 12.2.1 (20241206.2353)
 -->
<!-- Title: fr.softsf.canscan.service.QrGenerateAndSaveWorker Pages: 1 -->
<svg width="193pt" height="500pt"
 viewBox="0.00 0.00 193.25 500.00" xmlns="http://www.w3.org/2000/svg" xmlns:xlink="http://www.w3.org/1999/xlink">
<g id="graph0" class="graph" transform="scale(1 1) rotate(0) translate(4 496)">
<title>fr.softsf.canscan.service.QrGenerateAndSaveWorker</title>
<!-- Node1 -->
<g id="Node000001" class="node">
<title>Node1</title>
<g id="a_Node000001"><a xlink:title="SwingWorker that generates and saves QR codes in a background thread.">
<polygon fill="#999999" stroke="none" points="185.25,-392 0,-392 0,0 185.25,0 185.25,-392"/>
<text text-anchor="start" x="32.25" y="-378.5" font-family="Helvetica,sans-Serif" font-size="10.00">fr.softsf.canscan.service.</text>
<text text-anchor="start" x="32.25" y="-366.5" font-family="Helvetica,sans-Serif" font-size="10.00">QrGenerateAndSaveWorker</text>
<text text-anchor="start" x="5.5" y="-350.5" font-family="Helvetica,sans-Serif" font-size="10.00">&#45;</text>
<text text-anchor="start" x="14" y="-350.5" font-family="Helvetica,sans-Serif" font-size="10.00">final QrConfig config</text>
<text text-anchor="start" x="5.5" y="-334.5" font-family="Helvetica,sans-Serif" font-size="10.00">&#45;</text>
<text text-anchor="start" x="14" y="-334.5" font-family="Helvetica,sans-Serif" font-size="10.00">String errorMessage</text>
<text text-anchor="start" x="5.5" y="-318.5" font-family="Helvetica,sans-Serif" font-size="10.00">&#45;</text>
<text text-anchor="start" x="14" y="-318.5" font-family="Helvetica,sans-Serif" font-size="10.00">String errorTitle</text>
<text text-anchor="start" x="5.5" y="-302.5" font-family="Helvetica,sans-Serif" font-size="10.00">&#45;</text>
<text text-anchor="start" x="14" y="-302.5" font-family="Helvetica,sans-Serif" font-size="10.00">final JProgressBar</text>
<text text-anchor="start" x="14" y="-290.5" font-family="Helvetica,sans-Serif" font-size="10.00"> loader</text>
<text text-anchor="start" x="5.5" y="-274.5" font-family="Helvetica,sans-Serif" font-size="10.00">&#45;</text>
<text text-anchor="start" x="14" y="-274.5" font-family="Helvetica,sans-Serif" font-size="10.00">final File outputFile</text>
<text text-anchor="start" x="5.5" y="-258.5" font-family="Helvetica,sans-Serif" font-size="10.00">&#45;</text>
<text text-anchor="start" x="14" y="-258.5" font-family="Helvetica,sans-Serif" font-size="10.00">final QrCodeBufferedImage</text>
<text text-anchor="start" x="14" y="-246.5" font-family="Helvetica,sans-Serif" font-size="10.00"> qrCodeBufferedImage</text>
<text text-anchor="start" x="5.5" y="-230.5" font-family="Helvetica,sans-Serif" font-size="10.00">&#45;</text>
<text text-anchor="start" x="14" y="-230.5" font-family="Helvetica,sans-Serif" font-size="10.00">final QrDataResult</text>
<text text-anchor="start" x="14" y="-218.5" font-family="Helvetica,sans-Serif" font-size="10.00"> qrData</text>
<text text-anchor="start" x="4" y="-202.5" font-family="Helvetica,sans-Serif" font-size="10.00">+</text>
<text text-anchor="start" x="14" y="-202.5" font-family="Helvetica,sans-Serif" font-size="10.00">QrGenerateAndSaveWorker</text>
<text text-anchor="start" x="14" y="-190.5" font-family="Helvetica,sans-Serif" font-size="10.00">(QrDataResult qrData, QrConfig</text>
<text text-anchor="start" x="14" y="-178.5" font-family="Helvetica,sans-Serif" font-size="10.00"> config, JProgressBar loader,</text>
<text text-anchor="start" x="14" y="-166.5" font-family="Helvetica,sans-Serif" font-size="10.00"> File outputFile, QrCodeBufferedImage</text>
<text text-anchor="start" x="14" y="-154.5" font-family="Helvetica,sans-Serif" font-size="10.00"> qrCodeBufferedImage)</text>
<text text-anchor="start" x="4.38" y="-138.5" font-family="Helvetica,sans-Serif" font-size="10.00">#</text>
<text text-anchor="start" x="14" y="-138.5" font-family="Helvetica,sans-Serif" font-size="10.00">BufferedImage doInBackground()</text>
<text text-anchor="start" x="4.38" y="-122.5" font-family="Helvetica,sans-Serif" font-size="10.00">#</text>
<text text-anchor="start" x="14" y="-122.5" font-family="Helvetica,sans-Serif" font-size="10.00">void done()</text>
<text text-anchor="start" x="5.5" y="-106.5" font-family="Helvetica,sans-Serif" font-size="10.00">&#45;</text>
<text text-anchor="start" x="14" y="-106.5" font-family="Helvetica,sans-Serif" font-size="10.00">void handleBackgroundError</text>
<text text-anchor="start" x="14" y="-94.5" font-family="Helvetica,sans-Serif" font-size="10.00">(Throwable e)</text>
<text text-anchor="start" x="5.5" y="-78.5" font-family="Helvetica,sans-Serif" font-size="10.00">&#45;</text>
<text text-anchor="start" x="14" y="-78.5" font-family="Helvetica,sans-Serif" font-size="10.00">void handleExecutionError</text>
<text text-anchor="start" x="14" y="-66.5" font-family="Helvetica,sans-Serif" font-size="10.00">(ExecutionException ee)</text>
<text text-anchor="start" x="5.5" y="-50.5" font-family="Helvetica,sans-Serif" font-size="10.00">&#45;</text>
<text text-anchor="start" x="14" y="-50.5" font-family="Helvetica,sans-Serif" font-size="10.00">void handleInterruption()</text>
<text text-anchor="start" x="5.5" y="-34.5" font-family="Helvetica,sans-Serif" font-size="10.00">&#45;</text>
<text text-anchor="start" x="14" y="-34.5" font-family="Helvetica,sans-Serif" font-size="10.00">void handleSuccess()</text>
<text text-anchor="start" x="5.5" y="-18.5" font-family="Helvetica,sans-Serif" font-size="10.00">&#45;</text>
<text text-anchor="start" x="14" y="-18.5" font-family="Helvetica,sans-Serif" font-size="10.00">void saveQrCodeToFile</text>
<text text-anchor="start" x="14" y="-6.5" font-family="Helvetica,sans-Serif" font-size="10.00">(BufferedImage qr, File file)</text>
<polygon fill="#666666" stroke="#666666" points="0,-362 0,-362 185.25,-362 185.25,-362 0,-362"/>
<polygon fill="#666666" stroke="#666666" points="0,-214 0,-214 12,-214 12,-214 0,-214"/>
<polygon fill="#666666" stroke="#666666" points="12,-214 12,-214 185.25,-214 185.25,-214 12,-214"/>
<polygon fill="none" stroke="#666666" points="0,0 0,-392 185.25,-392 185.25,0 0,0"/>
</a>
</g>
</g>
<!-- Node2 -->
<g id="Node000002" class="node">
<title>Node2</title>
<g id="a_Node000002"><a xlink:title=" ">
<polygon fill="white" stroke="none" points="163,-492 22.25,-492 22.25,-428 163,-428 163,-492"/>
<text text-anchor="start" x="26.25" y="-478.5" font-family="Helvetica,sans-Serif" font-size="10.00">SwingWorker&lt; BufferedImage,</text>
<text text-anchor="start" x="77.25" y="-466.5" font-family="Helvetica,sans-Serif" font-size="10.00"> Void &gt;</text>
<text text-anchor="start" x="91.12" y="-450.5" font-family="Helvetica,sans-Serif" font-size="10.00"> </text>
<text text-anchor="start" x="91.12" y="-434.5" font-family="Helvetica,sans-Serif" font-size="10.00"> </text>
<polygon fill="#666666" stroke="#666666" points="22.25,-462 22.25,-462 163,-462 163,-462 22.25,-462"/>
<polygon fill="#666666" stroke="#666666" points="22.25,-446 22.25,-446 163,-446 163,-446 22.25,-446"/>
<polygon fill="none" stroke="#666666" points="22.25,-428 22.25,-492 163,-492 163,-428 22.25,-428"/>
</a>
</g>
</g>
<!-- Node2&#45;&gt;Node1 -->
<g id="edge1_Node000001_Node000002" class="edge">
<title>Node2&#45;&gt;Node1</title>
<g id="a_edge1_Node000001_Node000002"><a xlink:title=" ">
<path fill="none" stroke="#63b8ff" d="M92.62,-416.8C92.62,-409.15 92.62,-400.72 92.62,-391.77"/>
<polygon fill="none" stroke="#63b8ff" points="89.13,-416.66 92.63,-426.66 96.13,-416.66 89.13,-416.66"/>
</a>
</g>
</g>
</g>
</svg>
