<?xml version="1.0" encoding="UTF-8" standalone="no"?>
<!DOCTYPE svg PUBLIC "-//W3C//DTD SVG 1.1//EN"
 "http://www.w3.org/Graphics/SVG/1.1/DTD/svg11.dtd">
<!-- Generated by graphviz version 12.2.1 (20241206.2353)
 -->
<!-- Title: fr.softsf.canscan.CanScan.drawModules Pages: 1 -->
<svg width="786pt" height="270pt"
 viewBox="0.00 0.00 786.00 270.00" xmlns="http://www.w3.org/2000/svg" xmlns:xlink="http://www.w3.org/1999/xlink">
<g id="graph0" class="graph" transform="scale(1 1) rotate(0) translate(4 266)">
<title>fr.softsf.canscan.CanScan.drawModules</title>
<!-- Node1 -->
<g id="Node000001" class="node">
<title>Node1</title>
<g id="a_Node000001"><a xlink:title="Renders all QR code modules onto the provided graphics context.">
<polygon fill="#999999" stroke="#666666" points="157,-180 0,-180 0,-148 157,-148 157,-180"/>
<text text-anchor="start" x="8" y="-166.5" font-family="Helvetica,sans-Serif" font-size="10.00">fr.softsf.canscan.CanScan.draw</text>
<text text-anchor="middle" x="78.5" y="-154.5" font-family="Helvetica,sans-Serif" font-size="10.00">Modules</text>
</a>
</g>
</g>
<!-- Node2 -->
<g id="Node000002" class="node">
<title>Node2</title>
<g id="a_Node000002"><a xlink:href="enumfr_1_1softsf_1_1canscan_1_1util_1_1_checker.html#a38aa8db97b16480c728481f1835da11f" target="_top" xlink:title="Checks if the given object is null in a static context and displays an error dialog if so.">
<polygon fill="white" stroke="#666666" points="567.75,-262 393.5,-262 393.5,-230 567.75,-230 567.75,-262"/>
<text text-anchor="start" x="401.5" y="-248.5" font-family="Helvetica,sans-Serif" font-size="10.00">fr.softsf.canscan.util.Checker.check</text>
<text text-anchor="middle" x="480.62" y="-236.5" font-family="Helvetica,sans-Serif" font-size="10.00">StaticNPE</text>
</a>
</g>
</g>
<!-- Node1&#45;&gt;Node2 -->
<g id="edge1_Node000001_Node000002" class="edge">
<title>Node1&#45;&gt;Node2</title>
<g id="a_edge1_Node000001_Node000002"><a xlink:title=" ">
<path fill="none" stroke="#63b8ff" d="M99.32,-180.36C120.86,-197.07 157.04,-222.04 193,-233 253.85,-251.54 325.31,-254.82 381.66,-253.45"/>
<polygon fill="#63b8ff" stroke="#63b8ff" points="381.68,-256.95 391.57,-253.15 381.47,-249.95 381.68,-256.95"/>
</a>
</g>
</g>
<!-- Node4 -->
<g id="Node000004" class="node">
<title>Node4</title>
<g id="a_Node000004"><a xlink:href="classfr_1_1softsf_1_1canscan_1_1_can_scan.html#a27947dca81e478496f857b5a1b1fece1" target="_top" xlink:title="Draws a single QR code module at the specified coordinates with configured size and shape.">
<polygon fill="white" stroke="#666666" points="353.75,-224 196.75,-224 196.75,-192 353.75,-192 353.75,-224"/>
<text text-anchor="start" x="204.75" y="-210.5" font-family="Helvetica,sans-Serif" font-size="10.00">fr.softsf.canscan.CanScan.draw</text>
<text text-anchor="middle" x="275.25" y="-198.5" font-family="Helvetica,sans-Serif" font-size="10.00">Module</text>
</a>
</g>
</g>
<!-- Node1&#45;&gt;Node4 -->
<g id="edge3_Node000001_Node000004" class="edge">
<title>Node1&#45;&gt;Node4</title>
<g id="a_edge3_Node000001_Node000004"><a xlink:title=" ">
<path fill="none" stroke="#63b8ff" d="M152.29,-180.45C164.66,-183.24 177.59,-186.16 190.22,-189.02"/>
<polygon fill="#63b8ff" stroke="#63b8ff" points="189.22,-192.38 199.74,-191.17 190.76,-185.55 189.22,-192.38"/>
</a>
</g>
</g>
<!-- Node5 -->
<g id="Node000005" class="node">
<title>Node5</title>
<g id="a_Node000005"><a xlink:href="classfr_1_1softsf_1_1canscan_1_1_can_scan.html#abb6acfc2fa4bf839236f0daee33746f7" target="_top" xlink:title="Configuration parameters used to generate a QR code.">
<polygon fill="white" stroke="#666666" points="758.88,-182 622.88,-182 622.88,-150 758.88,-150 758.88,-182"/>
<text text-anchor="start" x="630.88" y="-168.5" font-family="Helvetica,sans-Serif" font-size="10.00">fr.softsf.canscan.CanScan.</text>
<text text-anchor="middle" x="690.88" y="-156.5" font-family="Helvetica,sans-Serif" font-size="10.00">QrConfig</text>
</a>
</g>
</g>
<!-- Node1&#45;&gt;Node5 -->
<g id="edge9_Node000001_Node000005" class="edge">
<title>Node1&#45;&gt;Node5</title>
<g id="a_edge9_Node000001_Node000005"><a xlink:title=" ">
<path fill="none" stroke="#63b8ff" d="M157.42,-164.26C274.37,-164.64 494.03,-165.36 611.34,-165.74"/>
<polygon fill="#63b8ff" stroke="#63b8ff" points="611.18,-169.24 621.19,-165.77 611.21,-162.24 611.18,-169.24"/>
</a>
</g>
</g>
<!-- Node6 -->
<g id="Node000006" class="node">
<title>Node6</title>
<g id="a_Node000006"><a xlink:href="classfr_1_1softsf_1_1canscan_1_1_can_scan.html#a484c9ff5ae69812c69d4318735f32130" target="_top" xlink:title="Encapsulates contextual data for module rendering decisions.">
<polygon fill="white" stroke="#666666" points="548.62,-136 412.62,-136 412.62,-104 548.62,-104 548.62,-136"/>
<text text-anchor="start" x="420.62" y="-122.5" font-family="Helvetica,sans-Serif" font-size="10.00">fr.softsf.canscan.CanScan.</text>
<text text-anchor="middle" x="480.62" y="-110.5" font-family="Helvetica,sans-Serif" font-size="10.00">ModuleContext</text>
</a>
</g>
</g>
<!-- Node1&#45;&gt;Node6 -->
<g id="edge7_Node000001_Node000006" class="edge">
<title>Node1&#45;&gt;Node6</title>
<g id="a_edge7_Node000001_Node000006"><a xlink:title=" ">
<path fill="none" stroke="#63b8ff" d="M157.32,-154.21C169.27,-152.76 181.46,-151.32 193,-150 263.37,-141.98 343.56,-133.65 401.19,-127.82"/>
<polygon fill="#63b8ff" stroke="#63b8ff" points="401.3,-131.32 410.9,-126.83 400.6,-124.36 401.3,-131.32"/>
</a>
</g>
</g>
<!-- Node7 -->
<g id="Node000007" class="node">
<title>Node7</title>
<g id="a_Node000007"><a xlink:href="classfr_1_1softsf_1_1canscan_1_1_can_scan.html#ad9893ec413ee4e8987dc7719d1bd9596" target="_top" xlink:title="Determines whether a QR code module should be skipped during rendering.">
<polygon fill="white" stroke="#666666" points="357.5,-98 193,-98 193,-66 357.5,-66 357.5,-98"/>
<text text-anchor="start" x="201" y="-84.5" font-family="Helvetica,sans-Serif" font-size="10.00">fr.softsf.canscan.CanScan.should</text>
<text text-anchor="middle" x="275.25" y="-72.5" font-family="Helvetica,sans-Serif" font-size="10.00">SkipModule</text>
</a>
</g>
</g>
<!-- Node1&#45;&gt;Node7 -->
<g id="edge10_Node000001_Node000007" class="edge">
<title>Node1&#45;&gt;Node7</title>
<g id="a_edge10_Node000001_Node000007"><a xlink:title=" ">
<path fill="none" stroke="#63b8ff" d="M113.47,-147.62C135.87,-137.02 165.96,-123.17 193,-112 200.83,-108.77 209.14,-105.5 217.35,-102.38"/>
<polygon fill="#63b8ff" stroke="#63b8ff" points="218.49,-105.7 226.62,-98.9 216.03,-99.14 218.49,-105.7"/>
</a>
</g>
</g>
<!-- Node3 -->
<g id="Node000003" class="node">
<title>Node3</title>
<g id="a_Node000003"><a xlink:href="enumfr_1_1softsf_1_1canscan_1_1util_1_1_checker.html#af3fc9dd2a33f4d12c5db8cf2aeea17d7" target="_top" xlink:title="Validates that the given object is non&#45;null and, if a String, not blank.">
<polygon fill="white" stroke="#666666" points="778,-262 603.75,-262 603.75,-230 778,-230 778,-262"/>
<text text-anchor="start" x="611.75" y="-248.5" font-family="Helvetica,sans-Serif" font-size="10.00">fr.softsf.canscan.util.Checker.check</text>
<text text-anchor="middle" x="690.88" y="-236.5" font-family="Helvetica,sans-Serif" font-size="10.00">NullOrBlankInternal</text>
</a>
</g>
</g>
<!-- Node2&#45;&gt;Node3 -->
<g id="edge2_Node000002_Node000003" class="edge">
<title>Node2&#45;&gt;Node3</title>
<g id="a_edge2_Node000002_Node000003"><a xlink:title=" ">
<path fill="none" stroke="#63b8ff" d="M568.13,-246C576.03,-246 584.07,-246 592.06,-246"/>
<polygon fill="#63b8ff" stroke="#63b8ff" points="591.79,-249.5 601.79,-246 591.79,-242.5 591.79,-249.5"/>
</a>
</g>
</g>
<!-- Node4&#45;&gt;Node2 -->
<g id="edge4_Node000004_Node000002" class="edge">
<title>Node4&#45;&gt;Node2</title>
<g id="a_edge4_Node000004_Node000002"><a xlink:title=" ">
<path fill="none" stroke="#63b8ff" d="M354.01,-222.53C363.2,-224.25 372.66,-226.01 382.08,-227.77"/>
<polygon fill="#63b8ff" stroke="#63b8ff" points="381.13,-231.16 391.6,-229.55 382.42,-224.28 381.13,-231.16"/>
</a>
</g>
</g>
<!-- Node4&#45;&gt;Node5 -->
<g id="edge5_Node000004_Node000005" class="edge">
<title>Node4&#45;&gt;Node5</title>
<g id="a_edge5_Node000004_Node000005"><a xlink:title=" ">
<path fill="none" stroke="#63b8ff" d="M354.05,-200.1C427.73,-192.62 537.78,-181.44 611.61,-173.95"/>
<polygon fill="#63b8ff" stroke="#63b8ff" points="611.58,-177.47 621.18,-172.98 610.87,-170.5 611.58,-177.47"/>
</a>
</g>
</g>
<!-- Node5&#45;&gt;Node5 -->
<g id="edge6_Node000005_Node000005" class="edge">
<title>Node5&#45;&gt;Node5</title>
<g id="a_edge6_Node000005_Node000005"><a xlink:title=" ">
<path fill="none" stroke="#63b8ff" d="M653.34,-182.44C646.33,-191.58 658.84,-200 690.88,-200 708.64,-200 720.4,-197.41 726.16,-193.54"/>
<polygon fill="#63b8ff" stroke="#63b8ff" points="729.55,-194.42 728.11,-183.93 722.69,-193.03 729.55,-194.42"/>
</a>
</g>
</g>
<!-- Node6&#45;&gt;Node5 -->
<g id="edge8_Node000006_Node000005" class="edge">
<title>Node6&#45;&gt;Node5</title>
<g id="a_edge8_Node000006_Node000005"><a xlink:title=" ">
<path fill="none" stroke="#63b8ff" d="M548.95,-134.87C568.8,-139.26 590.7,-144.09 611.2,-148.62"/>
<polygon fill="#63b8ff" stroke="#63b8ff" points="610.43,-152.04 620.95,-150.77 611.94,-145.2 610.43,-152.04"/>
</a>
</g>
</g>
<!-- Node7&#45;&gt;Node2 -->
<g id="edge11_Node000007_Node000002" class="edge">
<title>Node7&#45;&gt;Node2</title>
<g id="a_edge11_Node000007_Node000002"><a xlink:title=" ">
<path fill="none" stroke="#63b8ff" d="M296.49,-98.32C332.74,-127.55 408.81,-188.9 450.6,-222.6"/>
<polygon fill="#63b8ff" stroke="#63b8ff" points="448.3,-225.24 458.28,-228.79 452.7,-219.79 448.3,-225.24"/>
</a>
</g>
</g>
<!-- Node7&#45;&gt;Node6 -->
<g id="edge16_Node000007_Node000006" class="edge">
<title>Node7&#45;&gt;Node6</title>
<g id="a_edge16_Node000007_Node000006"><a xlink:title=" ">
<path fill="none" stroke="#63b8ff" d="M357.8,-97.24C372.1,-99.91 386.95,-102.68 401.17,-105.34"/>
<polygon fill="#63b8ff" stroke="#63b8ff" points="400.45,-108.77 410.92,-107.16 401.73,-101.89 400.45,-108.77"/>
</a>
</g>
</g>
<!-- Node8 -->
<g id="Node000008" class="node">
<title>Node8</title>
<g id="a_Node000008"><a xlink:href="classfr_1_1softsf_1_1canscan_1_1_can_scan.html#a940bd22cc9e8523e3f60bf19efb91129" target="_top" xlink:title="Determines whether the given coordinates fall within any of the three QR code position patterns.">
<polygon fill="white" stroke="#666666" points="552.38,-85 408.88,-85 408.88,-53 552.38,-53 552.38,-85"/>
<text text-anchor="start" x="416.88" y="-71.5" font-family="Helvetica,sans-Serif" font-size="10.00">fr.softsf.canscan.CanScan.is</text>
<text text-anchor="middle" x="480.62" y="-59.5" font-family="Helvetica,sans-Serif" font-size="10.00">InPositionPattern</text>
</a>
</g>
</g>
<!-- Node7&#45;&gt;Node8 -->
<g id="edge12_Node000007_Node000008" class="edge">
<title>Node7&#45;&gt;Node8</title>
<g id="a_edge12_Node000007_Node000008"><a xlink:title=" ">
<path fill="none" stroke="#63b8ff" d="M357.8,-76.79C370.79,-75.96 384.24,-75.1 397.25,-74.27"/>
<polygon fill="#63b8ff" stroke="#63b8ff" points="397.28,-77.77 407.04,-73.64 396.83,-70.79 397.28,-77.77"/>
</a>
</g>
</g>
<!-- Node9 -->
<g id="Node000009" class="node">
<title>Node9</title>
<g id="a_Node000009"><a xlink:href="classfr_1_1softsf_1_1canscan_1_1_can_scan.html#abf3dc1201aa081507d7a0229e3c798e4" target="_top" xlink:title="Checks if coordinates are within the bottom&#45;left position pattern.">
<polygon fill="white" stroke="#666666" points="762.62,-132 619.12,-132 619.12,-100 762.62,-100 762.62,-132"/>
<text text-anchor="start" x="627.12" y="-118.5" font-family="Helvetica,sans-Serif" font-size="10.00">fr.softsf.canscan.CanScan.is</text>
<text text-anchor="middle" x="690.88" y="-106.5" font-family="Helvetica,sans-Serif" font-size="10.00">InBottomLeftPattern</text>
</a>
</g>
</g>
<!-- Node8&#45;&gt;Node9 -->
<g id="edge13_Node000008_Node000009" class="edge">
<title>Node8&#45;&gt;Node9</title>
<g id="a_edge13_Node000008_Node000009"><a xlink:title=" ">
<path fill="none" stroke="#63b8ff" d="M552.71,-85.04C570.37,-89.03 589.45,-93.33 607.6,-97.43"/>
<polygon fill="#63b8ff" stroke="#63b8ff" points="606.76,-100.83 617.28,-99.62 608.3,-94 606.76,-100.83"/>
</a>
</g>
</g>
<!-- Node10 -->
<g id="Node000010" class="node">
<title>Node10</title>
<g id="a_Node000010"><a xlink:href="classfr_1_1softsf_1_1canscan_1_1_can_scan.html#a169bc46f13cb9990c8629fdd13abf182" target="_top" xlink:title="Checks if coordinates are within the top&#45;left position pattern.">
<polygon fill="white" stroke="#666666" points="762.62,-82 619.12,-82 619.12,-50 762.62,-50 762.62,-82"/>
<text text-anchor="start" x="627.12" y="-68.5" font-family="Helvetica,sans-Serif" font-size="10.00">fr.softsf.canscan.CanScan.is</text>
<text text-anchor="middle" x="690.88" y="-56.5" font-family="Helvetica,sans-Serif" font-size="10.00">InTopLeftPattern</text>
</a>
</g>
</g>
<!-- Node8&#45;&gt;Node10 -->
<g id="edge14_Node000008_Node000010" class="edge">
<title>Node8&#45;&gt;Node10</title>
<g id="a_edge14_Node000008_Node000010"><a xlink:title=" ">
<path fill="none" stroke="#63b8ff" d="M552.71,-67.98C570.29,-67.72 589.27,-67.45 607.34,-67.19"/>
<polygon fill="#63b8ff" stroke="#63b8ff" points="607.29,-70.69 617.24,-67.05 607.19,-63.69 607.29,-70.69"/>
</a>
</g>
</g>
<!-- Node11 -->
<g id="Node000011" class="node">
<title>Node11</title>
<g id="a_Node000011"><a xlink:href="classfr_1_1softsf_1_1canscan_1_1_can_scan.html#a12dfb700fa0b93fec09bf799ef2a917f" target="_top" xlink:title="Checks if coordinates are within the top&#45;right position pattern.">
<polygon fill="white" stroke="#666666" points="762.62,-32 619.12,-32 619.12,0 762.62,0 762.62,-32"/>
<text text-anchor="start" x="627.12" y="-18.5" font-family="Helvetica,sans-Serif" font-size="10.00">fr.softsf.canscan.CanScan.is</text>
<text text-anchor="middle" x="690.88" y="-6.5" font-family="Helvetica,sans-Serif" font-size="10.00">InTopRightPattern</text>
</a>
</g>
</g>
<!-- Node8&#45;&gt;Node11 -->
<g id="edge15_Node000008_Node000011" class="edge">
<title>Node8&#45;&gt;Node11</title>
<g id="a_edge15_Node000008_Node000011"><a xlink:title=" ">
<path fill="none" stroke="#63b8ff" d="M546.38,-52.52C567.82,-47.06 591.89,-40.94 614.09,-35.29"/>
<polygon fill="#63b8ff" stroke="#63b8ff" points="614.87,-38.7 623.7,-32.84 613.14,-31.92 614.87,-38.7"/>
</a>
</g>
</g>
</g>
</svg>
