<?xml version="1.0" encoding="UTF-8" standalone="no"?>
<!DOCTYPE svg PUBLIC "-//W3C//DTD SVG 1.1//EN"
 "http://www.w3.org/Graphics/SVG/1.1/DTD/svg11.dtd">
<!-- Generated by graphviz version 12.2.1 (20241206.2353)
 -->
<!-- Title: fr.softsf.canscan.CanScan.getManifestKeys Pages: 1 -->
<svg width="973pt" height="354pt"
 viewBox="0.00 0.00 973.00 354.00" xmlns="http://www.w3.org/2000/svg" xmlns:xlink="http://www.w3.org/1999/xlink">
<g id="graph0" class="graph" transform="scale(1 1) rotate(0) translate(4 350)">
<title>fr.softsf.canscan.CanScan.getManifestKeys</title>
<!-- Node1 -->
<g id="Node000001" class="node">
<title>Node1</title>
<g id="a_Node000001"><a xlink:title="Loads application metadata from the version.properties file.">
<polygon fill="#999999" stroke="#666666" points="149.5,-239 0,-239 0,-207 149.5,-207 149.5,-239"/>
<text text-anchor="start" x="8" y="-225.5" font-family="Helvetica,sans-Serif" font-size="10.00">fr.softsf.canscan.CanScan.get</text>
<text text-anchor="middle" x="74.75" y="-213.5" font-family="Helvetica,sans-Serif" font-size="10.00">ManifestKeys</text>
</a>
</g>
</g>
<!-- Node2 -->
<g id="Node000002" class="node">
<title>Node2</title>
<g id="a_Node000002"><a xlink:href="classfr_1_1softsf_1_1canscan_1_1_can_scan.html#a102bcbc6cda608b642e870ba3fde6344" target="_top" xlink:title="Initializes the CanScan GUI.">
<polygon fill="white" stroke="#666666" points="321.5,-208 185.5,-208 185.5,-176 321.5,-176 321.5,-208"/>
<text text-anchor="start" x="193.5" y="-194.5" font-family="Helvetica,sans-Serif" font-size="10.00">fr.softsf.canscan.CanScan.</text>
<text text-anchor="middle" x="253.5" y="-182.5" font-family="Helvetica,sans-Serif" font-size="10.00">CanScan</text>
</a>
</g>
</g>
<!-- Node1&#45;&gt;Node2 -->
<g id="edge1_Node000001_Node000002" class="edge">
<title>Node1&#45;&gt;Node2</title>
<g id="a_edge1_Node000001_Node000002"><a xlink:title=" ">
<path fill="none" stroke="#63b8ff" d="M149.94,-209.99C157.9,-208.59 166.02,-207.17 174.03,-205.76"/>
<polygon fill="#63b8ff" stroke="#63b8ff" points="174.52,-209.23 183.76,-204.06 173.31,-202.34 174.52,-209.23"/>
</a>
</g>
</g>
<!-- Node2&#45;&gt;Node2 -->
<g id="edge2_Node000002_Node000002" class="edge">
<title>Node2&#45;&gt;Node2</title>
<g id="a_edge2_Node000002_Node000002"><a xlink:title=" ">
<path fill="none" stroke="#63b8ff" d="M221.59,-208.44C215.63,-217.58 226.27,-226 253.5,-226 268.39,-226 278.32,-223.48 283.29,-219.71"/>
<polygon fill="#63b8ff" stroke="#63b8ff" points="286.72,-220.41 285.13,-209.93 279.84,-219.11 286.72,-220.41"/>
</a>
</g>
</g>
<!-- Node3 -->
<g id="Node000003" class="node">
<title>Node3</title>
<g id="a_Node000003"><a xlink:href="classfr_1_1softsf_1_1canscan_1_1_can_scan.html#a2732ecdc4490a717352975e68fce494c" target="_top" xlink:title="Adds a labeled component row to a panel using GridBagLayout.">
<polygon fill="white" stroke="#666666" points="754,-252 582,-252 582,-232 754,-232 754,-252"/>
<text text-anchor="middle" x="668" y="-238.5" font-family="Helvetica,sans-Serif" font-size="10.00">fr.softsf.canscan.CanScan.addRow</text>
</a>
</g>
</g>
<!-- Node2&#45;&gt;Node3 -->
<g id="edge3_Node000002_Node000003" class="edge">
<title>Node2&#45;&gt;Node3</title>
<g id="a_edge3_Node000002_Node000003"><a xlink:title=" ">
<path fill="none" stroke="#63b8ff" d="M270.12,-208.42C288.85,-226.79 322.16,-255.5 357.5,-267 449.19,-296.84 563.84,-272.78 624.61,-255.57"/>
<polygon fill="#63b8ff" stroke="#63b8ff" points="625.24,-259.03 633.86,-252.87 623.28,-252.31 625.24,-259.03"/>
</a>
</g>
</g>
<!-- Node4 -->
<g id="Node000004" class="node">
<title>Node4</title>
<g id="a_Node000004"><a xlink:href="classfr_1_1softsf_1_1canscan_1_1_can_scan.html#ad77dc63cc1aac70e3833d39005d42f25" target="_top" xlink:title="Constructs the application window title using metadata from the version properties.">
<polygon fill="white" stroke="#666666" points="529.88,-346 373.62,-346 373.62,-314 529.88,-314 529.88,-346"/>
<text text-anchor="start" x="381.62" y="-332.5" font-family="Helvetica,sans-Serif" font-size="10.00">fr.softsf.canscan.CanScan.build</text>
<text text-anchor="middle" x="451.75" y="-320.5" font-family="Helvetica,sans-Serif" font-size="10.00">Title</text>
</a>
</g>
</g>
<!-- Node2&#45;&gt;Node4 -->
<g id="edge4_Node000002_Node000004" class="edge">
<title>Node2&#45;&gt;Node4</title>
<g id="a_edge4_Node000002_Node000004"><a xlink:title=" ">
<path fill="none" stroke="#63b8ff" d="M265.9,-208.35C283.12,-231.89 317.99,-275.22 357.5,-300 362.95,-303.42 368.82,-306.48 374.87,-309.21"/>
<polygon fill="#63b8ff" stroke="#63b8ff" points="373.2,-312.31 383.78,-312.93 375.9,-305.85 373.2,-312.31"/>
</a>
</g>
</g>
<!-- Node5 -->
<g id="Node000005" class="node">
<title>Node5</title>
<g id="a_Node000005"><a xlink:href="classfr_1_1softsf_1_1canscan_1_1_can_scan.html#a2d26dcd1ae708eae46dba8952351aa1a" target="_top" xlink:title="Builds and returns a QrInput object containing all current user inputs and settings.">
<polygon fill="white" stroke="#666666" points="742.75,-126 593.25,-126 593.25,-94 742.75,-94 742.75,-126"/>
<text text-anchor="start" x="601.25" y="-112.5" font-family="Helvetica,sans-Serif" font-size="10.00">fr.softsf.canscan.CanScan.get</text>
<text text-anchor="middle" x="668" y="-100.5" font-family="Helvetica,sans-Serif" font-size="10.00">QrInput</text>
</a>
</g>
</g>
<!-- Node2&#45;&gt;Node5 -->
<g id="edge6_Node000002_Node000005" class="edge">
<title>Node2&#45;&gt;Node5</title>
<g id="a_edge6_Node000002_Node000005"><a xlink:title=" ">
<path fill="none" stroke="#63b8ff" d="M274.34,-175.75C294.08,-160.62 325.91,-138.95 357.5,-129 430.76,-105.92 518.5,-102.67 581.83,-104.31"/>
<polygon fill="#63b8ff" stroke="#63b8ff" points="581.34,-107.8 591.45,-104.61 581.56,-100.8 581.34,-107.8"/>
</a>
</g>
</g>
<!-- Node10 -->
<g id="Node000010" class="node">
<title>Node10</title>
<g id="a_Node000010"><a xlink:href="classfr_1_1softsf_1_1canscan_1_1_can_scan.html#addd7b7d7f9cc810756dbbb66218414d4" target="_top" xlink:title="Initializes the FREE mode input panel with a multiline text area for arbitrary text or URLs.">
<polygon fill="white" stroke="#666666" points="526.12,-258 377.38,-258 377.38,-226 526.12,-226 526.12,-258"/>
<text text-anchor="start" x="385.38" y="-244.5" font-family="Helvetica,sans-Serif" font-size="10.00">fr.softsf.canscan.CanScan.init</text>
<text text-anchor="middle" x="451.75" y="-232.5" font-family="Helvetica,sans-Serif" font-size="10.00">FreeCard</text>
</a>
</g>
</g>
<!-- Node2&#45;&gt;Node10 -->
<g id="edge11_Node000002_Node000010" class="edge">
<title>Node2&#45;&gt;Node10</title>
<g id="a_edge11_Node000002_Node000010"><a xlink:title=" ">
<path fill="none" stroke="#63b8ff" d="M319.03,-208.44C336.97,-213.01 356.61,-218.02 375.13,-222.73"/>
<polygon fill="#63b8ff" stroke="#63b8ff" points="374.16,-226.1 384.71,-225.18 375.89,-219.31 374.16,-226.1"/>
</a>
</g>
</g>
<!-- Node11 -->
<g id="Node000011" class="node">
<title>Node11</title>
<g id="a_Node000011"><a xlink:href="classfr_1_1softsf_1_1canscan_1_1_can_scan.html#a4047170747f52f54ee69ddbc834c5373" target="_top" xlink:title="Sets up automatic QR code preview updates for all input fields and controls.">
<polygon fill="white" stroke="#666666" points="537.38,-82 366.12,-82 366.12,-50 537.38,-50 537.38,-82"/>
<text text-anchor="start" x="374.12" y="-68.5" font-family="Helvetica,sans-Serif" font-size="10.00">fr.softsf.canscan.CanScan.initialize</text>
<text text-anchor="middle" x="451.75" y="-56.5" font-family="Helvetica,sans-Serif" font-size="10.00">AutomaticQRCodeRendering</text>
</a>
</g>
</g>
<!-- Node2&#45;&gt;Node11 -->
<g id="edge13_Node000002_Node000011" class="edge">
<title>Node2&#45;&gt;Node11</title>
<g id="a_edge13_Node000002_Node000011"><a xlink:title=" ">
<path fill="none" stroke="#63b8ff" d="M267.83,-175.75C286.02,-154.56 320.61,-117.65 357.5,-96 363.47,-92.5 369.89,-89.35 376.48,-86.53"/>
<polygon fill="#63b8ff" stroke="#63b8ff" points="377.52,-89.89 385.52,-82.94 374.93,-83.38 377.52,-89.89"/>
</a>
</g>
</g>
<!-- Node13 -->
<g id="Node000013" class="node">
<title>Node13</title>
<g id="a_Node000013"><a xlink:href="classfr_1_1softsf_1_1canscan_1_1_can_scan.html#ab78c47588f2cb82b4395a1268b3c4ca4" target="_top" xlink:title="Initializes the MECARD input panel with labeled text fields for structured contact information.">
<polygon fill="white" stroke="#666666" points="526.12,-208 377.38,-208 377.38,-176 526.12,-176 526.12,-208"/>
<text text-anchor="start" x="385.38" y="-194.5" font-family="Helvetica,sans-Serif" font-size="10.00">fr.softsf.canscan.CanScan.init</text>
<text text-anchor="middle" x="451.75" y="-182.5" font-family="Helvetica,sans-Serif" font-size="10.00">Mecard</text>
</a>
</g>
</g>
<!-- Node2&#45;&gt;Node13 -->
<g id="edge16_Node000002_Node000013" class="edge">
<title>Node2&#45;&gt;Node13</title>
<g id="a_edge16_Node000002_Node000013"><a xlink:title=" ">
<path fill="none" stroke="#63b8ff" d="M321.76,-192C336,-192 351.2,-192 365.99,-192"/>
<polygon fill="#63b8ff" stroke="#63b8ff" points="365.68,-195.5 375.68,-192 365.68,-188.5 365.68,-195.5"/>
</a>
</g>
</g>
<!-- Node14 -->
<g id="Node000014" class="node">
<title>Node14</title>
<g id="a_Node000014"><a xlink:href="classfr_1_1softsf_1_1canscan_1_1_can_scan.html#abbe4fb71ad979d6affed0b2c9629b832" target="_top" xlink:title="Updates the tooltip of the ratio slider to reflect its current value as a percentage.">
<polygon fill="white" stroke="#666666" points="526.5,-32 377,-32 377,0 526.5,0 526.5,-32"/>
<text text-anchor="start" x="385" y="-18.5" font-family="Helvetica,sans-Serif" font-size="10.00">fr.softsf.canscan.CanScan.set</text>
<text text-anchor="middle" x="451.75" y="-6.5" font-family="Helvetica,sans-Serif" font-size="10.00">RatioSliderTooltipValue</text>
</a>
</g>
</g>
<!-- Node2&#45;&gt;Node14 -->
<g id="edge18_Node000002_Node000014" class="edge">
<title>Node2&#45;&gt;Node14</title>
<g id="a_edge18_Node000002_Node000014"><a xlink:title=" ">
<path fill="none" stroke="#63b8ff" d="M261.07,-175.51C274.37,-144.27 307.55,-76.44 357.5,-41 360.35,-38.98 363.35,-37.12 366.46,-35.42"/>
<polygon fill="#63b8ff" stroke="#63b8ff" points="367.87,-38.62 375.35,-31.12 364.83,-32.32 367.87,-38.62"/>
</a>
</g>
</g>
<!-- Node15 -->
<g id="Node000015" class="node">
<title>Node15</title>
<g id="a_Node000015"><a xlink:href="classfr_1_1softsf_1_1canscan_1_1_can_scan.html#a428c742b098fa27d4c8984c1030c238d" target="_top" xlink:title="Switches the application between MECARD and FREE QR code modes.">
<polygon fill="white" stroke="#666666" points="546,-158 357.5,-158 357.5,-138 546,-138 546,-158"/>
<text text-anchor="middle" x="451.75" y="-144.5" font-family="Helvetica,sans-Serif" font-size="10.00">fr.softsf.canscan.CanScan.switchMode</text>
</a>
</g>
</g>
<!-- Node2&#45;&gt;Node15 -->
<g id="edge19_Node000002_Node000015" class="edge">
<title>Node2&#45;&gt;Node15</title>
<g id="a_edge19_Node000002_Node000015"><a xlink:title=" ">
<path fill="none" stroke="#63b8ff" d="M320.63,-175.57C332.87,-172.63 345.56,-169.67 357.5,-167 366.99,-164.88 377.04,-162.73 386.9,-160.68"/>
<polygon fill="#63b8ff" stroke="#63b8ff" points="387.34,-164.16 396.43,-158.72 385.93,-157.31 387.34,-164.16"/>
</a>
</g>
</g>
<!-- Node4&#45;&gt;Node1 -->
<g id="edge5_Node000004_Node000001" class="edge">
<title>Node4&#45;&gt;Node1</title>
<g id="a_edge5_Node000004_Node000001"><a xlink:title=" ">
<path fill="none" stroke="#63b8ff" d="M393.22,-313.58C326.2,-294.46 215.57,-262.89 144.19,-242.53"/>
<polygon fill="#63b8ff" stroke="#63b8ff" points="145.55,-239.28 134.98,-239.9 143.63,-246.01 145.55,-239.28"/>
</a>
</g>
</g>
<!-- Node6 -->
<g id="Node000006" class="node">
<title>Node6</title>
<g id="a_Node000006"><a xlink:href="classfr_1_1softsf_1_1canscan_1_1_can_scan.html#a22606ca129489c778fbbe17cb8b70697" target="_top" xlink:title="Calculates the available height for QR code rendering.">
<polygon fill="white" stroke="#666666" points="965,-201 790,-201 790,-169 965,-169 965,-201"/>
<text text-anchor="start" x="798" y="-187.5" font-family="Helvetica,sans-Serif" font-size="10.00">fr.softsf.canscan.CanScan.calculate</text>
<text text-anchor="middle" x="877.5" y="-175.5" font-family="Helvetica,sans-Serif" font-size="10.00">AvailableQrHeight</text>
</a>
</g>
</g>
<!-- Node5&#45;&gt;Node6 -->
<g id="edge7_Node000005_Node000006" class="edge">
<title>Node5&#45;&gt;Node6</title>
<g id="a_edge7_Node000005_Node000006"><a xlink:title=" ">
<path fill="none" stroke="#63b8ff" d="M732.97,-126.38C740.19,-128.94 747.34,-131.81 754,-135 771.57,-143.41 772.41,-151.63 790,-160 793.32,-161.58 796.75,-163.08 800.26,-164.5"/>
<polygon fill="#63b8ff" stroke="#63b8ff" points="798.93,-167.74 809.53,-168 801.41,-161.19 798.93,-167.74"/>
</a>
</g>
</g>
<!-- Node7 -->
<g id="Node000007" class="node">
<title>Node7</title>
<g id="a_Node000007"><a xlink:href="classfr_1_1softsf_1_1canscan_1_1_can_scan.html#a4e67b1b5c764e72414a5c0f387810f5c" target="_top" xlink:title="Validates and returns the current QR code margin from the margin slider.">
<polygon fill="white" stroke="#666666" points="962.38,-151 792.62,-151 792.62,-119 962.38,-119 962.38,-151"/>
<text text-anchor="start" x="800.62" y="-137.5" font-family="Helvetica,sans-Serif" font-size="10.00">fr.softsf.canscan.CanScan.validate</text>
<text text-anchor="middle" x="877.5" y="-125.5" font-family="Helvetica,sans-Serif" font-size="10.00">AndGetMargin</text>
</a>
</g>
</g>
<!-- Node5&#45;&gt;Node7 -->
<g id="edge8_Node000005_Node000007" class="edge">
<title>Node5&#45;&gt;Node7</title>
<g id="a_edge8_Node000005_Node000007"><a xlink:title=" ">
<path fill="none" stroke="#63b8ff" d="M743.03,-118.92C755.37,-120.41 768.31,-121.97 781.09,-123.5"/>
<polygon fill="#63b8ff" stroke="#63b8ff" points="780.4,-126.95 790.75,-124.67 781.24,-120 780.4,-126.95"/>
</a>
</g>
</g>
<!-- Node8 -->
<g id="Node000008" class="node">
<title>Node8</title>
<g id="a_Node000008"><a xlink:href="classfr_1_1softsf_1_1canscan_1_1_can_scan.html#a9e8188875168199cde065113ae2a393d" target="_top" xlink:title="Validates and returns the current image&#45;to&#45;QR ratio from the ratio slider.">
<polygon fill="white" stroke="#666666" points="962.38,-101 792.62,-101 792.62,-69 962.38,-69 962.38,-101"/>
<text text-anchor="start" x="800.62" y="-87.5" font-family="Helvetica,sans-Serif" font-size="10.00">fr.softsf.canscan.CanScan.validate</text>
<text text-anchor="middle" x="877.5" y="-75.5" font-family="Helvetica,sans-Serif" font-size="10.00">AndGetRatio</text>
</a>
</g>
</g>
<!-- Node5&#45;&gt;Node8 -->
<g id="edge9_Node000005_Node000008" class="edge">
<title>Node5&#45;&gt;Node8</title>
<g id="a_edge9_Node000005_Node000008"><a xlink:title=" ">
<path fill="none" stroke="#63b8ff" d="M743.03,-101.08C755.37,-99.59 768.31,-98.03 781.09,-96.5"/>
<polygon fill="#63b8ff" stroke="#63b8ff" points="781.24,-100 790.75,-95.33 780.4,-93.05 781.24,-100"/>
</a>
</g>
</g>
<!-- Node9 -->
<g id="Node000009" class="node">
<title>Node9</title>
<g id="a_Node000009"><a xlink:href="classfr_1_1softsf_1_1canscan_1_1_can_scan.html#a6d139bb8d0a3c7081096c8956189b684" target="_top" xlink:title="Validates and returns the QR code size from the corresponding text field.">
<polygon fill="white" stroke="#666666" points="962.38,-51 792.62,-51 792.62,-19 962.38,-19 962.38,-51"/>
<text text-anchor="start" x="800.62" y="-37.5" font-family="Helvetica,sans-Serif" font-size="10.00">fr.softsf.canscan.CanScan.validate</text>
<text text-anchor="middle" x="877.5" y="-25.5" font-family="Helvetica,sans-Serif" font-size="10.00">AndGetSize</text>
</a>
</g>
</g>
<!-- Node5&#45;&gt;Node9 -->
<g id="edge10_Node000005_Node000009" class="edge">
<title>Node5&#45;&gt;Node9</title>
<g id="a_edge10_Node000005_Node000009"><a xlink:title=" ">
<path fill="none" stroke="#63b8ff" d="M732.97,-93.62C740.19,-91.06 747.34,-88.19 754,-85 771.57,-76.59 772.41,-68.37 790,-60 793.32,-58.42 796.75,-56.92 800.26,-55.5"/>
<polygon fill="#63b8ff" stroke="#63b8ff" points="801.41,-58.81 809.53,-52 798.93,-52.26 801.41,-58.81"/>
</a>
</g>
</g>
<!-- Node10&#45;&gt;Node3 -->
<g id="edge12_Node000010_Node000003" class="edge">
<title>Node10&#45;&gt;Node3</title>
<g id="a_edge12_Node000010_Node000003"><a xlink:title=" ">
<path fill="none" stroke="#63b8ff" d="M526.48,-242C540.66,-242 555.71,-242 570.48,-242"/>
<polygon fill="#63b8ff" stroke="#63b8ff" points="570.2,-245.5 580.2,-242 570.2,-238.5 570.2,-245.5"/>
</a>
</g>
</g>
<!-- Node11&#45;&gt;Node5 -->
<g id="edge14_Node000011_Node000005" class="edge">
<title>Node11&#45;&gt;Node5</title>
<g id="a_edge14_Node000011_Node000005"><a xlink:title=" ">
<path fill="none" stroke="#63b8ff" d="M532.83,-82.45C548.86,-85.74 565.76,-89.21 581.95,-92.53"/>
<polygon fill="#63b8ff" stroke="#63b8ff" points="581.05,-95.92 591.55,-94.5 582.46,-89.06 581.05,-95.92"/>
</a>
</g>
</g>
<!-- Node12 -->
<g id="Node000012" class="node">
<title>Node12</title>
<g id="a_Node000012"><a xlink:href="classfr_1_1softsf_1_1canscan_1_1_can_scan.html#a9856545d05ef553c8dfddd95a850a360" target="_top" xlink:title="Creates a minimal DocumentListener that executes the given action on any document change.">
<polygon fill="white" stroke="#666666" points="750.25,-76 585.75,-76 585.75,-44 750.25,-44 750.25,-76"/>
<text text-anchor="start" x="593.75" y="-62.5" font-family="Helvetica,sans-Serif" font-size="10.00">fr.softsf.canscan.CanScan.simple</text>
<text text-anchor="middle" x="668" y="-50.5" font-family="Helvetica,sans-Serif" font-size="10.00">DocumentListener</text>
</a>
</g>
</g>
<!-- Node11&#45;&gt;Node12 -->
<g id="edge15_Node000011_Node000012" class="edge">
<title>Node11&#45;&gt;Node12</title>
<g id="a_edge15_Node000011_Node000012"><a xlink:title=" ">
<path fill="none" stroke="#63b8ff" d="M537.73,-63.62C549.6,-63.29 561.84,-62.94 573.85,-62.61"/>
<polygon fill="#63b8ff" stroke="#63b8ff" points="573.85,-66.11 583.75,-62.33 573.66,-59.11 573.85,-66.11"/>
</a>
</g>
</g>
<!-- Node13&#45;&gt;Node3 -->
<g id="edge17_Node000013_Node000003" class="edge">
<title>Node13&#45;&gt;Node3</title>
<g id="a_edge17_Node000013_Node000003"><a xlink:title=" ">
<path fill="none" stroke="#63b8ff" d="M523.2,-208.44C551.69,-215.09 584.12,-222.66 610.97,-228.92"/>
<polygon fill="#63b8ff" stroke="#63b8ff" points="610.09,-232.31 620.63,-231.18 611.68,-225.5 610.09,-232.31"/>
</a>
</g>
</g>
<!-- Node15&#45;&gt;Node5 -->
<g id="edge20_Node000015_Node000005" class="edge">
<title>Node15&#45;&gt;Node5</title>
<g id="a_edge20_Node000015_Node000005"><a xlink:title=" ">
<path fill="none" stroke="#63b8ff" d="M511.86,-137.52C533.36,-133.7 558.12,-129.31 581.45,-125.17"/>
<polygon fill="#63b8ff" stroke="#63b8ff" points="582.04,-128.62 591.28,-123.43 580.82,-121.73 582.04,-128.62"/>
</a>
</g>
</g>
<!-- Node16 -->
<g id="Node000016" class="node">
<title>Node16</title>
<g id="a_Node000016"><a xlink:href="enumfr_1_1softsf_1_1canscan_1_1model_1_1_mode.html#a16a898a11ca939056bd7b275f11ea54c" target="_top" xlink:title="Returns the name of the mode as a string.">
<polygon fill="white" stroke="#666666" points="728.88,-176 607.12,-176 607.12,-144 728.88,-144 728.88,-176"/>
<text text-anchor="start" x="615.12" y="-162.5" font-family="Helvetica,sans-Serif" font-size="10.00">fr.softsf.canscan.model.</text>
<text text-anchor="middle" x="668" y="-150.5" font-family="Helvetica,sans-Serif" font-size="10.00">Mode.text</text>
</a>
</g>
</g>
<!-- Node15&#45;&gt;Node16 -->
<g id="edge21_Node000015_Node000016" class="edge">
<title>Node15&#45;&gt;Node16</title>
<g id="a_edge21_Node000015_Node000016"><a xlink:title=" ">
<path fill="none" stroke="#63b8ff" d="M546.41,-153.25C562.9,-154.17 579.83,-155.12 595.58,-156"/>
<polygon fill="#63b8ff" stroke="#63b8ff" points="595.14,-159.48 605.32,-156.55 595.53,-152.49 595.14,-159.48"/>
</a>
</g>
</g>
</g>
</svg>
