<?xml version="1.0" encoding="UTF-8" standalone="no"?>
<!DOCTYPE svg PUBLIC "-//W3C//DTD SVG 1.1//EN"
 "http://www.w3.org/Graphics/SVG/1.1/DTD/svg11.dtd">
<!-- Generated by graphviz version 12.2.1 (20241206.2353)
 -->
<!-- Title: fr.softsf.canscan.CanScan.shouldSkipModule Pages: 1 -->
<svg width="593pt" height="258pt"
 viewBox="0.00 0.00 593.00 258.00" xmlns="http://www.w3.org/2000/svg" xmlns:xlink="http://www.w3.org/1999/xlink">
<g id="graph0" class="graph" transform="scale(1 1) rotate(0) translate(4 254)">
<title>fr.softsf.canscan.CanScan.shouldSkipModule</title>
<!-- Node1 -->
<g id="Node000001" class="node">
<title>Node1</title>
<g id="a_Node000001"><a xlink:title="Determines whether a QR code module should be skipped during rendering.">
<polygon fill="#999999" stroke="#666666" points="164.5,-150 0,-150 0,-118 164.5,-118 164.5,-150"/>
<text text-anchor="start" x="8" y="-136.5" font-family="Helvetica,sans-Serif" font-size="10.00">fr.softsf.canscan.CanScan.should</text>
<text text-anchor="middle" x="82.25" y="-124.5" font-family="Helvetica,sans-Serif" font-size="10.00">SkipModule</text>
</a>
</g>
</g>
<!-- Node2 -->
<g id="Node000002" class="node">
<title>Node2</title>
<g id="a_Node000002"><a xlink:href="enumfr_1_1softsf_1_1canscan_1_1util_1_1_checker.html#a38aa8db97b16480c728481f1835da11f" target="_top" xlink:title="Checks if the given object is null in a static context and displays an error dialog if so.">
<polygon fill="white" stroke="#666666" points="374.75,-225 200.5,-225 200.5,-193 374.75,-193 374.75,-225"/>
<text text-anchor="start" x="208.5" y="-211.5" font-family="Helvetica,sans-Serif" font-size="10.00">fr.softsf.canscan.util.Checker.check</text>
<text text-anchor="middle" x="287.62" y="-199.5" font-family="Helvetica,sans-Serif" font-size="10.00">StaticNPE</text>
</a>
</g>
</g>
<!-- Node1&#45;&gt;Node2 -->
<g id="edge1_Node000001_Node000002" class="edge">
<title>Node1&#45;&gt;Node2</title>
<g id="a_edge1_Node000001_Node000002"><a xlink:title=" ">
<path fill="none" stroke="#63b8ff" d="M127.88,-150.46C158.35,-161.69 198.91,-176.65 231.41,-188.64"/>
<polygon fill="#63b8ff" stroke="#63b8ff" points="230.08,-191.88 240.68,-192.06 232.51,-185.31 230.08,-191.88"/>
</a>
</g>
</g>
<!-- Node4 -->
<g id="Node000004" class="node">
<title>Node4</title>
<g id="a_Node000004"><a xlink:href="classfr_1_1softsf_1_1canscan_1_1_can_scan.html#a940bd22cc9e8523e3f60bf19efb91129" target="_top" xlink:title="Determines whether the given coordinates fall within any of the three QR code position patterns.">
<polygon fill="white" stroke="#666666" points="359.38,-150 215.88,-150 215.88,-118 359.38,-118 359.38,-150"/>
<text text-anchor="start" x="223.88" y="-136.5" font-family="Helvetica,sans-Serif" font-size="10.00">fr.softsf.canscan.CanScan.is</text>
<text text-anchor="middle" x="287.62" y="-124.5" font-family="Helvetica,sans-Serif" font-size="10.00">InPositionPattern</text>
</a>
</g>
</g>
<!-- Node1&#45;&gt;Node4 -->
<g id="edge3_Node000001_Node000004" class="edge">
<title>Node1&#45;&gt;Node4</title>
<g id="a_edge3_Node000001_Node000004"><a xlink:title=" ">
<path fill="none" stroke="#63b8ff" d="M164.8,-134C177.79,-134 191.24,-134 204.25,-134"/>
<polygon fill="#63b8ff" stroke="#63b8ff" points="204.03,-137.5 214.03,-134 204.03,-130.5 204.03,-137.5"/>
</a>
</g>
</g>
<!-- Node8 -->
<g id="Node000008" class="node">
<title>Node8</title>
<g id="a_Node000008"><a xlink:href="classfr_1_1softsf_1_1canscan_1_1_can_scan.html#a484c9ff5ae69812c69d4318735f32130" target="_top" xlink:title="Encapsulates contextual data for module rendering decisions.">
<polygon fill="white" stroke="#666666" points="355.62,-66 219.62,-66 219.62,-34 355.62,-34 355.62,-66"/>
<text text-anchor="start" x="227.62" y="-52.5" font-family="Helvetica,sans-Serif" font-size="10.00">fr.softsf.canscan.CanScan.</text>
<text text-anchor="middle" x="287.62" y="-40.5" font-family="Helvetica,sans-Serif" font-size="10.00">ModuleContext</text>
</a>
</g>
</g>
<!-- Node1&#45;&gt;Node8 -->
<g id="edge7_Node000001_Node000008" class="edge">
<title>Node1&#45;&gt;Node8</title>
<g id="a_edge7_Node000001_Node000008"><a xlink:title=" ">
<path fill="none" stroke="#63b8ff" d="M122.95,-117.6C155.32,-104.23 201.24,-85.27 236.21,-70.82"/>
<polygon fill="#63b8ff" stroke="#63b8ff" points="237.38,-74.13 245.28,-67.08 234.7,-67.66 237.38,-74.13"/>
</a>
</g>
</g>
<!-- Node3 -->
<g id="Node000003" class="node">
<title>Node3</title>
<g id="a_Node000003"><a xlink:href="enumfr_1_1softsf_1_1canscan_1_1util_1_1_checker.html#af3fc9dd2a33f4d12c5db8cf2aeea17d7" target="_top" xlink:title="Validates that the given object is non&#45;null and, if a String, not blank.">
<polygon fill="white" stroke="#666666" points="585,-250 410.75,-250 410.75,-218 585,-218 585,-250"/>
<text text-anchor="start" x="418.75" y="-236.5" font-family="Helvetica,sans-Serif" font-size="10.00">fr.softsf.canscan.util.Checker.check</text>
<text text-anchor="middle" x="497.88" y="-224.5" font-family="Helvetica,sans-Serif" font-size="10.00">NullOrBlankInternal</text>
</a>
</g>
</g>
<!-- Node2&#45;&gt;Node3 -->
<g id="edge2_Node000002_Node000003" class="edge">
<title>Node2&#45;&gt;Node3</title>
<g id="a_edge2_Node000002_Node000003"><a xlink:title=" ">
<path fill="none" stroke="#63b8ff" d="M375.13,-219.39C383.03,-220.33 391.07,-221.3 399.06,-222.26"/>
<polygon fill="#63b8ff" stroke="#63b8ff" points="398.45,-225.71 408.8,-223.43 399.29,-218.76 398.45,-225.71"/>
</a>
</g>
</g>
<!-- Node5 -->
<g id="Node000005" class="node">
<title>Node5</title>
<g id="a_Node000005"><a xlink:href="classfr_1_1softsf_1_1canscan_1_1_can_scan.html#abf3dc1201aa081507d7a0229e3c798e4" target="_top" xlink:title="Checks if coordinates are within the bottom&#45;left position pattern.">
<polygon fill="white" stroke="#666666" points="569.62,-200 426.12,-200 426.12,-168 569.62,-168 569.62,-200"/>
<text text-anchor="start" x="434.12" y="-186.5" font-family="Helvetica,sans-Serif" font-size="10.00">fr.softsf.canscan.CanScan.is</text>
<text text-anchor="middle" x="497.88" y="-174.5" font-family="Helvetica,sans-Serif" font-size="10.00">InBottomLeftPattern</text>
</a>
</g>
</g>
<!-- Node4&#45;&gt;Node5 -->
<g id="edge4_Node000004_Node000005" class="edge">
<title>Node4&#45;&gt;Node5</title>
<g id="a_edge4_Node000004_Node000005"><a xlink:title=" ">
<path fill="none" stroke="#63b8ff" d="M357.1,-150.44C376.32,-155.05 397.38,-160.11 417.18,-164.87"/>
<polygon fill="#63b8ff" stroke="#63b8ff" points="416.34,-168.26 426.88,-167.2 417.98,-161.46 416.34,-168.26"/>
</a>
</g>
</g>
<!-- Node6 -->
<g id="Node000006" class="node">
<title>Node6</title>
<g id="a_Node000006"><a xlink:href="classfr_1_1softsf_1_1canscan_1_1_can_scan.html#a169bc46f13cb9990c8629fdd13abf182" target="_top" xlink:title="Checks if coordinates are within the top&#45;left position pattern.">
<polygon fill="white" stroke="#666666" points="569.62,-150 426.12,-150 426.12,-118 569.62,-118 569.62,-150"/>
<text text-anchor="start" x="434.12" y="-136.5" font-family="Helvetica,sans-Serif" font-size="10.00">fr.softsf.canscan.CanScan.is</text>
<text text-anchor="middle" x="497.88" y="-124.5" font-family="Helvetica,sans-Serif" font-size="10.00">InTopLeftPattern</text>
</a>
</g>
</g>
<!-- Node4&#45;&gt;Node6 -->
<g id="edge5_Node000004_Node000006" class="edge">
<title>Node4&#45;&gt;Node6</title>
<g id="a_edge5_Node000004_Node000006"><a xlink:title=" ">
<path fill="none" stroke="#63b8ff" d="M359.71,-134C377.29,-134 396.27,-134 414.34,-134"/>
<polygon fill="#63b8ff" stroke="#63b8ff" points="414.24,-137.5 424.24,-134 414.24,-130.5 414.24,-137.5"/>
</a>
</g>
</g>
<!-- Node7 -->
<g id="Node000007" class="node">
<title>Node7</title>
<g id="a_Node000007"><a xlink:href="classfr_1_1softsf_1_1canscan_1_1_can_scan.html#a12dfb700fa0b93fec09bf799ef2a917f" target="_top" xlink:title="Checks if coordinates are within the top&#45;right position pattern.">
<polygon fill="white" stroke="#666666" points="569.62,-100 426.12,-100 426.12,-68 569.62,-68 569.62,-100"/>
<text text-anchor="start" x="434.12" y="-86.5" font-family="Helvetica,sans-Serif" font-size="10.00">fr.softsf.canscan.CanScan.is</text>
<text text-anchor="middle" x="497.88" y="-74.5" font-family="Helvetica,sans-Serif" font-size="10.00">InTopRightPattern</text>
</a>
</g>
</g>
<!-- Node4&#45;&gt;Node7 -->
<g id="edge6_Node000004_Node000007" class="edge">
<title>Node4&#45;&gt;Node7</title>
<g id="a_edge6_Node000004_Node000007"><a xlink:title=" ">
<path fill="none" stroke="#63b8ff" d="M357.1,-117.56C376.32,-112.95 397.38,-107.89 417.18,-103.13"/>
<polygon fill="#63b8ff" stroke="#63b8ff" points="417.98,-106.54 426.88,-100.8 416.34,-99.74 417.98,-106.54"/>
</a>
</g>
</g>
<!-- Node9 -->
<g id="Node000009" class="node">
<title>Node9</title>
<g id="a_Node000009"><a xlink:href="classfr_1_1softsf_1_1canscan_1_1_can_scan.html#abb6acfc2fa4bf839236f0daee33746f7" target="_top" xlink:title="Configuration parameters used to generate a QR code.">
<polygon fill="white" stroke="#666666" points="565.88,-32 429.88,-32 429.88,0 565.88,0 565.88,-32"/>
<text text-anchor="start" x="437.88" y="-18.5" font-family="Helvetica,sans-Serif" font-size="10.00">fr.softsf.canscan.CanScan.</text>
<text text-anchor="middle" x="497.88" y="-6.5" font-family="Helvetica,sans-Serif" font-size="10.00">QrConfig</text>
</a>
</g>
</g>
<!-- Node8&#45;&gt;Node9 -->
<g id="edge8_Node000008_Node000009" class="edge">
<title>Node8&#45;&gt;Node9</title>
<g id="a_edge8_Node000008_Node000009"><a xlink:title=" ">
<path fill="none" stroke="#63b8ff" d="M355.95,-39.01C375.8,-35.77 397.7,-32.19 418.2,-28.84"/>
<polygon fill="#63b8ff" stroke="#63b8ff" points="418.63,-32.32 427.93,-27.26 417.5,-25.41 418.63,-32.32"/>
</a>
</g>
</g>
<!-- Node9&#45;&gt;Node9 -->
<g id="edge9_Node000009_Node000009" class="edge">
<title>Node9&#45;&gt;Node9</title>
<g id="a_edge9_Node000009_Node000009"><a xlink:title=" ">
<path fill="none" stroke="#63b8ff" d="M460.34,-32.44C453.33,-41.58 465.84,-50 497.88,-50 515.64,-50 527.4,-47.41 533.16,-43.54"/>
<polygon fill="#63b8ff" stroke="#63b8ff" points="536.55,-44.42 535.11,-33.93 529.69,-43.03 536.55,-44.42"/>
</a>
</g>
</g>
</g>
</svg>
