<?xml version="1.0" encoding="UTF-8" standalone="no"?>
<!DOCTYPE svg PUBLIC "-//W3C//DTD SVG 1.1//EN"
 "http://www.w3.org/Graphics/SVG/1.1/DTD/svg11.dtd">
<!-- Generated by graphviz version 12.2.1 (20241206.2353)
 -->
<!-- Title: fr.softsf.canscan.CanScan.buildTitle Pages: 1 -->
<svg width="1545pt" height="307pt"
 viewBox="0.00 0.00 1544.50 307.46" xmlns="http://www.w3.org/2000/svg" xmlns:xlink="http://www.w3.org/1999/xlink">
<g id="graph0" class="graph" transform="scale(1 1) rotate(0) translate(4 303.46)">
<title>fr.softsf.canscan.CanScan.buildTitle</title>
<!-- Node1 -->
<g id="Node000001" class="node">
<title>Node1</title>
<g id="a_Node000001"><a xlink:title="Constructs the application window title using metadata from the version properties.">
<polygon fill="#999999" stroke="#666666" points="156.25,-176 0,-176 0,-144 156.25,-144 156.25,-176"/>
<text text-anchor="start" x="8" y="-162.5" font-family="Helvetica,sans-Serif" font-size="10.00">fr.softsf.canscan.CanScan.build</text>
<text text-anchor="middle" x="78.12" y="-150.5" font-family="Helvetica,sans-Serif" font-size="10.00">Title</text>
</a>
</g>
</g>
<!-- Node2 -->
<g id="Node000002" class="node">
<title>Node2</title>
<g id="a_Node000002"><a xlink:href="classfr_1_1softsf_1_1canscan_1_1_can_scan.html#aefe4d08d96fdc7b2097daf4033bbbb9c" target="_top" xlink:title="Loads application metadata from the version.properties file.">
<polygon fill="white" stroke="#666666" points="341.75,-198 192.25,-198 192.25,-166 341.75,-166 341.75,-198"/>
<text text-anchor="start" x="200.25" y="-184.5" font-family="Helvetica,sans-Serif" font-size="10.00">fr.softsf.canscan.CanScan.get</text>
<text text-anchor="middle" x="267" y="-172.5" font-family="Helvetica,sans-Serif" font-size="10.00">ManifestKeys</text>
</a>
</g>
</g>
<!-- Node1&#45;&gt;Node2 -->
<g id="edge1_Node000001_Node000002" class="edge">
<title>Node1&#45;&gt;Node2</title>
<g id="a_edge1_Node000001_Node000002"><a xlink:title=" ">
<path fill="none" stroke="#63b8ff" d="M156.48,-169.11C164.47,-170.05 172.61,-171.01 180.68,-171.96"/>
<polygon fill="#63b8ff" stroke="#63b8ff" points="180.16,-175.42 190.5,-173.11 180.98,-168.47 180.16,-175.42"/>
</a>
</g>
</g>
<!-- Node3 -->
<g id="Node000003" class="node">
<title>Node3</title>
<g id="a_Node000003"><a xlink:href="classfr_1_1softsf_1_1canscan_1_1_can_scan.html#a102bcbc6cda608b642e870ba3fde6344" target="_top" xlink:title="Initializes the CanScan GUI.">
<polygon fill="white" stroke="#666666" points="513.75,-176 377.75,-176 377.75,-144 513.75,-144 513.75,-176"/>
<text text-anchor="start" x="385.75" y="-162.5" font-family="Helvetica,sans-Serif" font-size="10.00">fr.softsf.canscan.CanScan.</text>
<text text-anchor="middle" x="445.75" y="-150.5" font-family="Helvetica,sans-Serif" font-size="10.00">CanScan</text>
</a>
</g>
</g>
<!-- Node2&#45;&gt;Node3 -->
<g id="edge2_Node000002_Node000003" class="edge">
<title>Node2&#45;&gt;Node3</title>
<g id="a_edge2_Node000002_Node000003"><a xlink:title=" ">
<path fill="none" stroke="#63b8ff" d="M342.19,-172.77C350.15,-171.77 358.27,-170.76 366.28,-169.77"/>
<polygon fill="#63b8ff" stroke="#63b8ff" points="366.51,-173.27 376,-168.56 365.65,-166.32 366.51,-173.27"/>
</a>
</g>
</g>
<!-- Node3&#45;&gt;Node1 -->
<g id="edge5_Node000003_Node000001" class="edge">
<title>Node3&#45;&gt;Node1</title>
<g id="a_edge5_Node000003_Node000001"><a xlink:title=" ">
<path fill="none" stroke="#63b8ff" d="M377.44,-157.76C365.55,-157.44 353.29,-157.17 341.75,-157 275.31,-156.03 258.69,-156.12 192.25,-157 184.44,-157.1 176.33,-157.25 168.19,-157.42"/>
<polygon fill="#63b8ff" stroke="#63b8ff" points="168.14,-153.92 158.22,-157.64 168.3,-160.91 168.14,-153.92"/>
</a>
</g>
</g>
<!-- Node3&#45;&gt;Node3 -->
<g id="edge3_Node000003_Node000003" class="edge">
<title>Node3&#45;&gt;Node3</title>
<g id="a_edge3_Node000003_Node000003"><a xlink:title=" ">
<path fill="none" stroke="#63b8ff" d="M413.84,-176.44C407.88,-185.58 418.52,-194 445.75,-194 460.64,-194 470.57,-191.48 475.54,-187.71"/>
<polygon fill="#63b8ff" stroke="#63b8ff" points="478.97,-188.41 477.38,-177.93 472.09,-187.11 478.97,-188.41"/>
</a>
</g>
</g>
<!-- Node4 -->
<g id="Node000004" class="node">
<title>Node4</title>
<g id="a_Node000004"><a xlink:href="classfr_1_1softsf_1_1canscan_1_1_can_scan.html#a2732ecdc4490a717352975e68fce494c" target="_top" xlink:title="Adds a labeled component row to a panel using GridBagLayout.">
<polygon fill="white" stroke="#666666" points="946.25,-264 774.25,-264 774.25,-244 946.25,-244 946.25,-264"/>
<text text-anchor="middle" x="860.25" y="-250.5" font-family="Helvetica,sans-Serif" font-size="10.00">fr.softsf.canscan.CanScan.addRow</text>
</a>
</g>
</g>
<!-- Node3&#45;&gt;Node4 -->
<g id="edge4_Node000003_Node000004" class="edge">
<title>Node3&#45;&gt;Node4</title>
<g id="a_edge4_Node000003_Node000004"><a xlink:title=" ">
<path fill="none" stroke="#63b8ff" d="M454.8,-176.21C469.38,-203.48 503.03,-257.65 549.75,-279 640.68,-320.56 762.29,-288.78 822.41,-268.12"/>
<polygon fill="#63b8ff" stroke="#63b8ff" points="823.21,-271.54 831.47,-264.91 820.88,-264.94 823.21,-271.54"/>
</a>
</g>
</g>
<!-- Node5 -->
<g id="Node000005" class="node">
<title>Node5</title>
<g id="a_Node000005"><a xlink:href="classfr_1_1softsf_1_1canscan_1_1_can_scan.html#a2d26dcd1ae708eae46dba8952351aa1a" target="_top" xlink:title="Builds and returns a QrInput object containing all current user inputs and settings.">
<polygon fill="white" stroke="#666666" points="1325.5,-129 1176,-129 1176,-97 1325.5,-97 1325.5,-129"/>
<text text-anchor="start" x="1184" y="-115.5" font-family="Helvetica,sans-Serif" font-size="10.00">fr.softsf.canscan.CanScan.get</text>
<text text-anchor="middle" x="1250.75" y="-103.5" font-family="Helvetica,sans-Serif" font-size="10.00">QrInput</text>
</a>
</g>
</g>
<!-- Node3&#45;&gt;Node5 -->
<g id="edge6_Node000003_Node000005" class="edge">
<title>Node3&#45;&gt;Node5</title>
<g id="a_edge6_Node000003_Node000005"><a xlink:title=" ">
<path fill="none" stroke="#63b8ff" d="M514.08,-163.09C638.44,-167.71 912.24,-172.77 1140,-141 1154.51,-138.98 1169.87,-135.76 1184.36,-132.21"/>
<polygon fill="#63b8ff" stroke="#63b8ff" points="1184.94,-135.68 1193.77,-129.82 1183.22,-128.89 1184.94,-135.68"/>
</a>
</g>
</g>
<!-- Node10 -->
<g id="Node000010" class="node">
<title>Node10</title>
<g id="a_Node000010"><a xlink:href="classfr_1_1softsf_1_1canscan_1_1_can_scan.html#addd7b7d7f9cc810756dbbb66218414d4" target="_top" xlink:title="Initializes the FREE mode input panel with a multiline text area for arbitrary text or URLs.">
<polygon fill="white" stroke="#666666" points="718.38,-270 569.62,-270 569.62,-238 718.38,-238 718.38,-270"/>
<text text-anchor="start" x="577.62" y="-256.5" font-family="Helvetica,sans-Serif" font-size="10.00">fr.softsf.canscan.CanScan.init</text>
<text text-anchor="middle" x="644" y="-244.5" font-family="Helvetica,sans-Serif" font-size="10.00">FreeCard</text>
</a>
</g>
</g>
<!-- Node3&#45;&gt;Node10 -->
<g id="edge11_Node000003_Node000010" class="edge">
<title>Node3&#45;&gt;Node10</title>
<g id="a_edge11_Node000003_Node000010"><a xlink:title=" ">
<path fill="none" stroke="#63b8ff" d="M466.86,-176.41C486.81,-191.96 518.78,-214.94 549.75,-229 553.48,-230.69 557.35,-232.29 561.29,-233.8"/>
<polygon fill="#63b8ff" stroke="#63b8ff" points="559.85,-237 570.45,-237.06 562.2,-230.4 559.85,-237"/>
</a>
</g>
</g>
<!-- Node11 -->
<g id="Node000011" class="node">
<title>Node11</title>
<g id="a_Node000011"><a xlink:href="classfr_1_1softsf_1_1canscan_1_1_can_scan.html#a4047170747f52f54ee69ddbc834c5373" target="_top" xlink:title="Sets up automatic QR code preview updates for all input fields and controls.">
<polygon fill="white" stroke="#666666" points="729.62,-132 558.38,-132 558.38,-100 729.62,-100 729.62,-132"/>
<text text-anchor="start" x="566.38" y="-118.5" font-family="Helvetica,sans-Serif" font-size="10.00">fr.softsf.canscan.CanScan.initialize</text>
<text text-anchor="middle" x="644" y="-106.5" font-family="Helvetica,sans-Serif" font-size="10.00">AutomaticQRCodeRendering</text>
</a>
</g>
</g>
<!-- Node3&#45;&gt;Node11 -->
<g id="edge13_Node000003_Node000011" class="edge">
<title>Node3&#45;&gt;Node11</title>
<g id="a_edge13_Node000003_Node000011"><a xlink:title=" ">
<path fill="none" stroke="#63b8ff" d="M514.01,-144.92C528.25,-141.73 543.45,-138.32 558.24,-135"/>
<polygon fill="#63b8ff" stroke="#63b8ff" points="558.97,-138.43 567.97,-132.82 557.44,-131.6 558.97,-138.43"/>
</a>
</g>
</g>
<!-- Node16 -->
<g id="Node000016" class="node">
<title>Node16</title>
<g id="a_Node000016"><a xlink:href="classfr_1_1softsf_1_1canscan_1_1_can_scan.html#ab78c47588f2cb82b4395a1268b3c4ca4" target="_top" xlink:title="Initializes the MECARD input panel with labeled text fields for structured contact information.">
<polygon fill="white" stroke="#666666" points="718.38,-220 569.62,-220 569.62,-188 718.38,-188 718.38,-220"/>
<text text-anchor="start" x="577.62" y="-206.5" font-family="Helvetica,sans-Serif" font-size="10.00">fr.softsf.canscan.CanScan.init</text>
<text text-anchor="middle" x="644" y="-194.5" font-family="Helvetica,sans-Serif" font-size="10.00">Mecard</text>
</a>
</g>
</g>
<!-- Node3&#45;&gt;Node16 -->
<g id="edge19_Node000003_Node000016" class="edge">
<title>Node3&#45;&gt;Node16</title>
<g id="a_edge19_Node000003_Node000016"><a xlink:title=" ">
<path fill="none" stroke="#63b8ff" d="M514.01,-175.08C528.25,-178.27 543.45,-181.68 558.24,-185"/>
<polygon fill="#63b8ff" stroke="#63b8ff" points="557.44,-188.4 567.97,-187.18 558.97,-181.57 557.44,-188.4"/>
</a>
</g>
</g>
<!-- Node17 -->
<g id="Node000017" class="node">
<title>Node17</title>
<g id="a_Node000017"><a xlink:href="classfr_1_1softsf_1_1canscan_1_1_can_scan.html#abbe4fb71ad979d6affed0b2c9629b832" target="_top" xlink:title="Updates the tooltip of the ratio slider to reflect its current value as a percentage.">
<polygon fill="white" stroke="#666666" points="718.75,-82 569.25,-82 569.25,-50 718.75,-50 718.75,-82"/>
<text text-anchor="start" x="577.25" y="-68.5" font-family="Helvetica,sans-Serif" font-size="10.00">fr.softsf.canscan.CanScan.set</text>
<text text-anchor="middle" x="644" y="-56.5" font-family="Helvetica,sans-Serif" font-size="10.00">RatioSliderTooltipValue</text>
</a>
</g>
</g>
<!-- Node3&#45;&gt;Node17 -->
<g id="edge21_Node000003_Node000017" class="edge">
<title>Node3&#45;&gt;Node17</title>
<g id="a_edge21_Node000003_Node000017"><a xlink:title=" ">
<path fill="none" stroke="#63b8ff" d="M466.86,-143.59C486.81,-128.04 518.78,-105.06 549.75,-91 553.48,-89.31 557.35,-87.71 561.29,-86.2"/>
<polygon fill="#63b8ff" stroke="#63b8ff" points="562.2,-89.6 570.45,-82.94 559.85,-83 562.2,-89.6"/>
</a>
</g>
</g>
<!-- Node18 -->
<g id="Node000018" class="node">
<title>Node18</title>
<g id="a_Node000018"><a xlink:href="classfr_1_1softsf_1_1canscan_1_1_can_scan.html#a428c742b098fa27d4c8984c1030c238d" target="_top" xlink:title="Switches the application between MECARD and FREE QR code modes.">
<polygon fill="white" stroke="#666666" points="738.25,-32 549.75,-32 549.75,-12 738.25,-12 738.25,-32"/>
<text text-anchor="middle" x="644" y="-18.5" font-family="Helvetica,sans-Serif" font-size="10.00">fr.softsf.canscan.CanScan.switchMode</text>
</a>
</g>
</g>
<!-- Node3&#45;&gt;Node18 -->
<g id="edge22_Node000003_Node000018" class="edge">
<title>Node3&#45;&gt;Node18</title>
<g id="a_edge22_Node000003_Node000018"><a xlink:title=" ">
<path fill="none" stroke="#63b8ff" d="M456.05,-143.51C471.76,-117.3 506.11,-66.52 549.75,-41 552.4,-39.45 555.16,-38.03 557.99,-36.72"/>
<polygon fill="#63b8ff" stroke="#63b8ff" points="559.17,-40.01 567.13,-33.02 556.55,-33.52 559.17,-40.01"/>
</a>
</g>
</g>
<!-- Node6 -->
<g id="Node000006" class="node">
<title>Node6</title>
<g id="a_Node000006"><a xlink:href="classfr_1_1softsf_1_1canscan_1_1_can_scan.html#a22606ca129489c778fbbe17cb8b70697" target="_top" xlink:title="Calculates the available height for QR code rendering.">
<polygon fill="white" stroke="#666666" points="1536.5,-204 1361.5,-204 1361.5,-172 1536.5,-172 1536.5,-204"/>
<text text-anchor="start" x="1369.5" y="-190.5" font-family="Helvetica,sans-Serif" font-size="10.00">fr.softsf.canscan.CanScan.calculate</text>
<text text-anchor="middle" x="1449" y="-178.5" font-family="Helvetica,sans-Serif" font-size="10.00">AvailableQrHeight</text>
</a>
</g>
</g>
<!-- Node5&#45;&gt;Node6 -->
<g id="edge7_Node000005_Node000006" class="edge">
<title>Node5&#45;&gt;Node6</title>
<g id="a_edge7_Node000005_Node000006"><a xlink:title=" ">
<path fill="none" stroke="#63b8ff" d="M1284.36,-129.38C1305.92,-139.82 1334.99,-153.19 1361.5,-163 1366.37,-164.8 1371.44,-166.56 1376.57,-168.25"/>
<polygon fill="#63b8ff" stroke="#63b8ff" points="1375.11,-171.46 1385.7,-171.17 1377.24,-164.79 1375.11,-171.46"/>
</a>
</g>
</g>
<!-- Node7 -->
<g id="Node000007" class="node">
<title>Node7</title>
<g id="a_Node000007"><a xlink:href="classfr_1_1softsf_1_1canscan_1_1_can_scan.html#a4e67b1b5c764e72414a5c0f387810f5c" target="_top" xlink:title="Validates and returns the current QR code margin from the margin slider.">
<polygon fill="white" stroke="#666666" points="1533.88,-154 1364.12,-154 1364.12,-122 1533.88,-122 1533.88,-154"/>
<text text-anchor="start" x="1372.12" y="-140.5" font-family="Helvetica,sans-Serif" font-size="10.00">fr.softsf.canscan.CanScan.validate</text>
<text text-anchor="middle" x="1449" y="-128.5" font-family="Helvetica,sans-Serif" font-size="10.00">AndGetMargin</text>
</a>
</g>
</g>
<!-- Node5&#45;&gt;Node7 -->
<g id="edge8_Node000005_Node000007" class="edge">
<title>Node5&#45;&gt;Node7</title>
<g id="a_edge8_Node000005_Node000007"><a xlink:title=" ">
<path fill="none" stroke="#63b8ff" d="M1325.94,-122.45C1334.64,-123.56 1343.61,-124.7 1352.55,-125.84"/>
<polygon fill="#63b8ff" stroke="#63b8ff" points="1351.97,-129.3 1362.33,-127.09 1352.85,-122.35 1351.97,-129.3"/>
</a>
</g>
</g>
<!-- Node8 -->
<g id="Node000008" class="node">
<title>Node8</title>
<g id="a_Node000008"><a xlink:href="classfr_1_1softsf_1_1canscan_1_1_can_scan.html#a9e8188875168199cde065113ae2a393d" target="_top" xlink:title="Validates and returns the current image&#45;to&#45;QR ratio from the ratio slider.">
<polygon fill="white" stroke="#666666" points="1533.88,-104 1364.12,-104 1364.12,-72 1533.88,-72 1533.88,-104"/>
<text text-anchor="start" x="1372.12" y="-90.5" font-family="Helvetica,sans-Serif" font-size="10.00">fr.softsf.canscan.CanScan.validate</text>
<text text-anchor="middle" x="1449" y="-78.5" font-family="Helvetica,sans-Serif" font-size="10.00">AndGetRatio</text>
</a>
</g>
</g>
<!-- Node5&#45;&gt;Node8 -->
<g id="edge9_Node000005_Node000008" class="edge">
<title>Node5&#45;&gt;Node8</title>
<g id="a_edge9_Node000005_Node000008"><a xlink:title=" ">
<path fill="none" stroke="#63b8ff" d="M1325.94,-103.55C1334.64,-102.44 1343.61,-101.3 1352.55,-100.16"/>
<polygon fill="#63b8ff" stroke="#63b8ff" points="1352.85,-103.65 1362.33,-98.91 1351.97,-96.7 1352.85,-103.65"/>
</a>
</g>
</g>
<!-- Node9 -->
<g id="Node000009" class="node">
<title>Node9</title>
<g id="a_Node000009"><a xlink:href="classfr_1_1softsf_1_1canscan_1_1_can_scan.html#a6d139bb8d0a3c7081096c8956189b684" target="_top" xlink:title="Validates and returns the QR code size from the corresponding text field.">
<polygon fill="white" stroke="#666666" points="1533.88,-54 1364.12,-54 1364.12,-22 1533.88,-22 1533.88,-54"/>
<text text-anchor="start" x="1372.12" y="-40.5" font-family="Helvetica,sans-Serif" font-size="10.00">fr.softsf.canscan.CanScan.validate</text>
<text text-anchor="middle" x="1449" y="-28.5" font-family="Helvetica,sans-Serif" font-size="10.00">AndGetSize</text>
</a>
</g>
</g>
<!-- Node5&#45;&gt;Node9 -->
<g id="edge10_Node000005_Node000009" class="edge">
<title>Node5&#45;&gt;Node9</title>
<g id="a_edge10_Node000005_Node000009"><a xlink:title=" ">
<path fill="none" stroke="#63b8ff" d="M1284.36,-96.62C1305.92,-86.18 1334.99,-72.81 1361.5,-63 1366.37,-61.2 1371.44,-59.44 1376.57,-57.75"/>
<polygon fill="#63b8ff" stroke="#63b8ff" points="1377.24,-61.21 1385.7,-54.83 1375.11,-54.54 1377.24,-61.21"/>
</a>
</g>
</g>
<!-- Node10&#45;&gt;Node4 -->
<g id="edge12_Node000010_Node000004" class="edge">
<title>Node10&#45;&gt;Node4</title>
<g id="a_edge12_Node000010_Node000004"><a xlink:title=" ">
<path fill="none" stroke="#63b8ff" d="M718.73,-254C732.91,-254 747.96,-254 762.73,-254"/>
<polygon fill="#63b8ff" stroke="#63b8ff" points="762.45,-257.5 772.45,-254 762.45,-250.5 762.45,-257.5"/>
</a>
</g>
</g>
<!-- Node12 -->
<g id="Node000012" class="node">
<title>Node12</title>
<g id="a_Node000012"><a xlink:href="classfr_1_1softsf_1_1canscan_1_1_can_scan.html#a9856545d05ef553c8dfddd95a850a360" target="_top" xlink:title="Creates a minimal DocumentListener that executes the given action on any document change.">
<polygon fill="white" stroke="#666666" points="942.5,-132 778,-132 778,-100 942.5,-100 942.5,-132"/>
<text text-anchor="start" x="786" y="-118.5" font-family="Helvetica,sans-Serif" font-size="10.00">fr.softsf.canscan.CanScan.simple</text>
<text text-anchor="middle" x="860.25" y="-106.5" font-family="Helvetica,sans-Serif" font-size="10.00">DocumentListener</text>
</a>
</g>
</g>
<!-- Node11&#45;&gt;Node12 -->
<g id="edge14_Node000011_Node000012" class="edge">
<title>Node11&#45;&gt;Node12</title>
<g id="a_edge14_Node000011_Node000012"><a xlink:title=" ">
<path fill="none" stroke="#63b8ff" d="M729.98,-116C741.85,-116 754.09,-116 766.1,-116"/>
<polygon fill="#63b8ff" stroke="#63b8ff" points="766,-119.5 776,-116 766,-112.5 766,-119.5"/>
</a>
</g>
</g>
<!-- Node13 -->
<g id="Node000013" class="node">
<title>Node13</title>
<g id="a_Node000013"><a xlink:href="classfr_1_1softsf_1_1canscan_1_1_can_scan.html#a9ac2e28615c970404a4408245e62a6fc" target="_top" xlink:title="Schedules a debounced QR code preview update based on the current input and settings.">
<polygon fill="white" stroke="#666666" points="942.88,-82 777.62,-82 777.62,-50 942.88,-50 942.88,-82"/>
<text text-anchor="start" x="785.62" y="-68.5" font-family="Helvetica,sans-Serif" font-size="10.00">fr.softsf.canscan.CanScan.update</text>
<text text-anchor="middle" x="860.25" y="-56.5" font-family="Helvetica,sans-Serif" font-size="10.00">PreviewQRCode</text>
</a>
</g>
</g>
<!-- Node11&#45;&gt;Node13 -->
<g id="edge15_Node000011_Node000013" class="edge">
<title>Node11&#45;&gt;Node13</title>
<g id="a_edge15_Node000011_Node000013"><a xlink:title=" ">
<path fill="none" stroke="#63b8ff" d="M715.45,-99.56C735.31,-94.92 757.09,-89.84 777.55,-85.07"/>
<polygon fill="#63b8ff" stroke="#63b8ff" points="778.34,-88.48 787.28,-82.79 776.75,-81.66 778.34,-88.48"/>
</a>
</g>
</g>
<!-- Node14 -->
<g id="Node000014" class="node">
<title>Node14</title>
<g id="a_Node000014"><a xlink:href="classfr_1_1softsf_1_1canscan_1_1_can_scan.html#aba5b2671745886284c444b8e3bec80e2" target="_top" xlink:title="Frees the QR code image and its label icon to release memory.">
<polygon fill="white" stroke="#666666" points="1137.38,-132 984.88,-132 984.88,-100 1137.38,-100 1137.38,-132"/>
<text text-anchor="start" x="992.88" y="-118.5" font-family="Helvetica,sans-Serif" font-size="10.00">fr.softsf.canscan.CanScan.free</text>
<text text-anchor="middle" x="1061.12" y="-106.5" font-family="Helvetica,sans-Serif" font-size="10.00">QrOriginalAndQrCodeLabel</text>
</a>
</g>
</g>
<!-- Node13&#45;&gt;Node14 -->
<g id="edge16_Node000013_Node000014" class="edge">
<title>Node13&#45;&gt;Node14</title>
<g id="a_edge16_Node000013_Node000014"><a xlink:title=" ">
<path fill="none" stroke="#63b8ff" d="M926.64,-82.44C944.91,-87.03 964.92,-92.06 983.76,-96.8"/>
<polygon fill="#63b8ff" stroke="#63b8ff" points="982.67,-100.14 993.22,-99.18 984.38,-93.35 982.67,-100.14"/>
</a>
</g>
</g>
<!-- Node15 -->
<g id="Node000015" class="node">
<title>Node15</title>
<g id="a_Node000015"><a xlink:href="classfr_1_1softsf_1_1canscan_1_1_can_scan.html#a42d6a5e11bc8f147bed036366316564f" target="_top" xlink:title="Clears the current QR code display and starts a background worker to generate a new preview.">
<polygon fill="white" stroke="#666666" points="1140,-82 982.25,-82 982.25,-50 1140,-50 1140,-82"/>
<text text-anchor="start" x="990.25" y="-68.5" font-family="Helvetica,sans-Serif" font-size="10.00">fr.softsf.canscan.CanScan.reset</text>
<text text-anchor="middle" x="1061.12" y="-56.5" font-family="Helvetica,sans-Serif" font-size="10.00">AndStartPreviewWorker</text>
</a>
</g>
</g>
<!-- Node13&#45;&gt;Node15 -->
<g id="edge17_Node000013_Node000015" class="edge">
<title>Node13&#45;&gt;Node15</title>
<g id="a_edge17_Node000013_Node000015"><a xlink:title=" ">
<path fill="none" stroke="#63b8ff" d="M943.29,-66C952.24,-66 961.39,-66 970.43,-66"/>
<polygon fill="#63b8ff" stroke="#63b8ff" points="970.28,-69.5 980.28,-66 970.28,-62.5 970.28,-69.5"/>
</a>
</g>
</g>
<!-- Node15&#45;&gt;Node5 -->
<g id="edge18_Node000015_Node000005" class="edge">
<title>Node15&#45;&gt;Node5</title>
<g id="a_edge18_Node000015_Node000005"><a xlink:title=" ">
<path fill="none" stroke="#63b8ff" d="M1127.75,-82.44C1142.46,-86.12 1158.19,-90.06 1173.3,-93.85"/>
<polygon fill="#63b8ff" stroke="#63b8ff" points="1172.15,-97.17 1182.7,-96.2 1173.85,-90.38 1172.15,-97.17"/>
</a>
</g>
</g>
<!-- Node16&#45;&gt;Node4 -->
<g id="edge20_Node000016_Node000004" class="edge">
<title>Node16&#45;&gt;Node4</title>
<g id="a_edge20_Node000016_Node000004"><a xlink:title=" ">
<path fill="none" stroke="#63b8ff" d="M715.45,-220.44C743.94,-227.09 776.37,-234.66 803.22,-240.92"/>
<polygon fill="#63b8ff" stroke="#63b8ff" points="802.34,-244.31 812.88,-243.18 803.93,-237.5 802.34,-244.31"/>
</a>
</g>
</g>
<!-- Node18&#45;&gt;Node13 -->
<g id="edge24_Node000018_Node000013" class="edge">
<title>Node18&#45;&gt;Node13</title>
<g id="a_edge24_Node000018_Node000013"><a xlink:title=" ">
<path fill="none" stroke="#63b8ff" d="M696.31,-32.43C709.94,-35.21 724.65,-38.21 738.25,-41 748.13,-43.03 758.45,-45.15 768.74,-47.27"/>
<polygon fill="#63b8ff" stroke="#63b8ff" points="767.87,-50.66 778.37,-49.26 769.28,-43.81 767.87,-50.66"/>
</a>
</g>
</g>
<!-- Node19 -->
<g id="Node000019" class="node">
<title>Node19</title>
<g id="a_Node000019"><a xlink:href="enumfr_1_1softsf_1_1canscan_1_1model_1_1_mode.html#a16a898a11ca939056bd7b275f11ea54c" target="_top" xlink:title="Returns the name of the mode as a string.">
<polygon fill="white" stroke="#666666" points="921.12,-32 799.38,-32 799.38,0 921.12,0 921.12,-32"/>
<text text-anchor="start" x="807.38" y="-18.5" font-family="Helvetica,sans-Serif" font-size="10.00">fr.softsf.canscan.model.</text>
<text text-anchor="middle" x="860.25" y="-6.5" font-family="Helvetica,sans-Serif" font-size="10.00">Mode.text</text>
</a>
</g>
</g>
<!-- Node18&#45;&gt;Node19 -->
<g id="edge23_Node000018_Node000019" class="edge">
<title>Node18&#45;&gt;Node19</title>
<g id="a_edge23_Node000018_Node000019"><a xlink:title=" ">
<path fill="none" stroke="#63b8ff" d="M738.66,-19.38C755.15,-18.92 772.08,-18.44 787.83,-18"/>
<polygon fill="#63b8ff" stroke="#63b8ff" points="787.67,-21.51 797.57,-17.73 787.47,-14.51 787.67,-21.51"/>
</a>
</g>
</g>
</g>
</svg>
