<?xml version="1.0" encoding="UTF-8" standalone="no"?>
<!DOCTYPE svg PUBLIC "-//W3C//DTD SVG 1.1//EN"
 "http://www.w3.org/Graphics/SVG/1.1/DTD/svg11.dtd">
<!-- Generated by graphviz version 12.2.1 (20241206.2353)
 -->
<!-- Title: fr.softsf.canscan.CanScan.cleanupResources Pages: 1 -->
<svg width="579pt" height="165pt"
 viewBox="0.00 0.00 578.75 165.00" xmlns="http://www.w3.org/2000/svg" xmlns:xlink="http://www.w3.org/1999/xlink">
<g id="graph0" class="graph" transform="scale(1 1) rotate(0) translate(4 161)">
<title>fr.softsf.canscan.CanScan.cleanupResources</title>
<!-- Node1 -->
<g id="Node000001" class="node">
<title>Node1</title>
<g id="a_Node000001"><a xlink:title="Releases all runtime resources associated with the QR code preview and generation workflow.">
<polygon fill="#999999" stroke="#666666" points="169.75,-82 0,-82 0,-50 169.75,-50 169.75,-82"/>
<text text-anchor="start" x="8" y="-68.5" font-family="Helvetica,sans-Serif" font-size="10.00">fr.softsf.canscan.CanScan.cleanup</text>
<text text-anchor="middle" x="84.88" y="-56.5" font-family="Helvetica,sans-Serif" font-size="10.00">Resources</text>
</a>
</g>
</g>
<!-- Node2 -->
<g id="Node000002" class="node">
<title>Node2</title>
<g id="a_Node000002"><a xlink:href="classfr_1_1softsf_1_1canscan_1_1_can_scan.html#a0b2e07f16a3c9b537016b04215b4d595" target="_top" xlink:title="Cancels all active background workers and ensures proper cleanup.">
<polygon fill="white" stroke="#666666" points="370.25,-132 205.75,-132 205.75,-100 370.25,-100 370.25,-132"/>
<text text-anchor="start" x="213.75" y="-118.5" font-family="Helvetica,sans-Serif" font-size="10.00">fr.softsf.canscan.CanScan.cancel</text>
<text text-anchor="middle" x="288" y="-106.5" font-family="Helvetica,sans-Serif" font-size="10.00">AllWorkers</text>
</a>
</g>
</g>
<!-- Node1&#45;&gt;Node2 -->
<g id="edge1_Node000001_Node000002" class="edge">
<title>Node1&#45;&gt;Node2</title>
<g id="a_edge1_Node000001_Node000002"><a xlink:title=" ">
<path fill="none" stroke="#63b8ff" d="M152.01,-82.44C170.48,-87.03 190.72,-92.06 209.77,-96.8"/>
<polygon fill="#63b8ff" stroke="#63b8ff" points="208.81,-100.17 219.36,-99.18 210.5,-93.37 208.81,-100.17"/>
</a>
</g>
</g>
<!-- Node5 -->
<g id="Node000005" class="node">
<title>Node5</title>
<g id="a_Node000005"><a xlink:href="classfr_1_1softsf_1_1canscan_1_1_can_scan.html#a4815606aa036969bcf5313568220d396" target="_top" xlink:title="Releases the currently stored QR code image to free native memory.">
<polygon fill="white" stroke="#666666" points="364.25,-82 211.75,-82 211.75,-50 364.25,-50 364.25,-82"/>
<text text-anchor="start" x="219.75" y="-68.5" font-family="Helvetica,sans-Serif" font-size="10.00">fr.softsf.canscan.CanScan.free</text>
<text text-anchor="middle" x="288" y="-56.5" font-family="Helvetica,sans-Serif" font-size="10.00">QrOriginal</text>
</a>
</g>
</g>
<!-- Node1&#45;&gt;Node5 -->
<g id="edge4_Node000001_Node000005" class="edge">
<title>Node1&#45;&gt;Node5</title>
<g id="a_edge4_Node000001_Node000005"><a xlink:title=" ">
<path fill="none" stroke="#63b8ff" d="M170,-66C180.02,-66 190.25,-66 200.3,-66"/>
<polygon fill="#63b8ff" stroke="#63b8ff" points="200.02,-69.5 210.02,-66 200.02,-62.5 200.02,-69.5"/>
</a>
</g>
</g>
<!-- Node6 -->
<g id="Node000006" class="node">
<title>Node6</title>
<g id="a_Node000006"><a xlink:href="classfr_1_1softsf_1_1canscan_1_1_can_scan.html#a61ffd3b70feaa6414de075f723a24b62" target="_top" xlink:title="Stops and clears all active Swing timers used in the QR code workflow.">
<polygon fill="white" stroke="#666666" points="365.38,-32 210.62,-32 210.62,0 365.38,0 365.38,-32"/>
<text text-anchor="start" x="218.62" y="-18.5" font-family="Helvetica,sans-Serif" font-size="10.00">fr.softsf.canscan.CanScan.stop</text>
<text text-anchor="middle" x="288" y="-6.5" font-family="Helvetica,sans-Serif" font-size="10.00">AllTimers</text>
</a>
</g>
</g>
<!-- Node1&#45;&gt;Node6 -->
<g id="edge5_Node000001_Node000006" class="edge">
<title>Node1&#45;&gt;Node6</title>
<g id="a_edge5_Node000001_Node000006"><a xlink:title=" ">
<path fill="none" stroke="#63b8ff" d="M152.01,-49.56C170.48,-44.97 190.72,-39.94 209.77,-35.2"/>
<polygon fill="#63b8ff" stroke="#63b8ff" points="210.5,-38.63 219.36,-32.82 208.81,-31.83 210.5,-38.63"/>
</a>
</g>
</g>
<!-- Node3 -->
<g id="Node000003" class="node">
<title>Node3</title>
<g id="a_Node000003"><a xlink:href="classfr_1_1softsf_1_1canscan_1_1_can_scan.html#ab7aac2c23dad07b50ad8a83dfb98aa4d" target="_top" xlink:title="Cancels and flushes any active preview worker to ensure clean restart.">
<polygon fill="white" stroke="#666666" points="570.75,-157 406.25,-157 406.25,-125 570.75,-125 570.75,-157"/>
<text text-anchor="start" x="414.25" y="-143.5" font-family="Helvetica,sans-Serif" font-size="10.00">fr.softsf.canscan.CanScan.cancel</text>
<text text-anchor="middle" x="488.5" y="-131.5" font-family="Helvetica,sans-Serif" font-size="10.00">ActivePreviewWorker</text>
</a>
</g>
</g>
<!-- Node2&#45;&gt;Node3 -->
<g id="edge2_Node000002_Node000003" class="edge">
<title>Node2&#45;&gt;Node3</title>
<g id="a_edge2_Node000002_Node000003"><a xlink:title=" ">
<path fill="none" stroke="#63b8ff" d="M370.6,-126.28C378.52,-127.27 386.6,-128.29 394.62,-129.3"/>
<polygon fill="#63b8ff" stroke="#63b8ff" points="394.04,-132.76 404.4,-130.53 394.91,-125.81 394.04,-132.76"/>
</a>
</g>
</g>
<!-- Node4 -->
<g id="Node000004" class="node">
<title>Node4</title>
<g id="a_Node000004"><a xlink:href="classfr_1_1softsf_1_1canscan_1_1_can_scan.html#ae299b57aba96ad890bab5bdfaae06f98" target="_top" xlink:title="Cancels any ongoing resize worker if active and waits for its proper termination.">
<polygon fill="white" stroke="#666666" points="570.75,-107 406.25,-107 406.25,-75 570.75,-75 570.75,-107"/>
<text text-anchor="start" x="414.25" y="-93.5" font-family="Helvetica,sans-Serif" font-size="10.00">fr.softsf.canscan.CanScan.cancel</text>
<text text-anchor="middle" x="488.5" y="-81.5" font-family="Helvetica,sans-Serif" font-size="10.00">PreviousResizeWorker</text>
</a>
</g>
</g>
<!-- Node2&#45;&gt;Node4 -->
<g id="edge3_Node000002_Node000004" class="edge">
<title>Node2&#45;&gt;Node4</title>
<g id="a_edge3_Node000002_Node000004"><a xlink:title=" ">
<path fill="none" stroke="#63b8ff" d="M370.6,-105.72C378.52,-104.73 386.6,-103.71 394.62,-102.7"/>
<polygon fill="#63b8ff" stroke="#63b8ff" points="394.91,-106.19 404.4,-101.47 394.04,-99.24 394.91,-106.19"/>
</a>
</g>
</g>
</g>
</svg>
