<?xml version="1.0" encoding="UTF-8" standalone="no"?>
<!DOCTYPE svg PUBLIC "-//W3C//DTD SVG 1.1//EN"
 "http://www.w3.org/Graphics/SVG/1.1/DTD/svg11.dtd">
<!-- Generated by graphviz version 12.2.1 (20241206.2353)
 -->
<!-- Title: fr.softsf.canscan.ui.QrCodeBufferedImage.drawModules Pages: 1 -->
<svg width="759pt" height="140pt"
 viewBox="0.00 0.00 759.00 140.00" xmlns="http://www.w3.org/2000/svg" xmlns:xlink="http://www.w3.org/1999/xlink">
<g id="graph0" class="graph" transform="scale(1 1) rotate(0) translate(4 136)">
<title>fr.softsf.canscan.ui.QrCodeBufferedImage.drawModules</title>
<!-- Node1 -->
<g id="Node000001" class="node">
<title>Node1</title>
<g id="a_Node000001"><a xlink:title="Renders all QR code modules onto the provided graphics context.">
<polygon fill="#999999" stroke="#666666" points="139.75,-107 0,-107 0,-75 139.75,-75 139.75,-107"/>
<text text-anchor="start" x="8" y="-93.5" font-family="Helvetica,sans-Serif" font-size="10.00">fr.softsf.canscan.ui.QrCode</text>
<text text-anchor="middle" x="69.88" y="-81.5" font-family="Helvetica,sans-Serif" font-size="10.00">BufferedImage.drawModules</text>
</a>
</g>
</g>
<!-- Node2 -->
<g id="Node000002" class="node">
<title>Node2</title>
<g id="a_Node000002"><a xlink:href="classfr_1_1softsf_1_1canscan_1_1ui_1_1_qr_code_buffered_image.html#a7515cc2fe4bc454921afb18d2f6cf5ee" target="_top" xlink:title="Draws a single QR code module at the specified coordinates with configured size and shape.">
<polygon fill="white" stroke="#666666" points="324.88,-132 188.12,-132 188.12,-100 324.88,-100 324.88,-132"/>
<text text-anchor="start" x="196.12" y="-118.5" font-family="Helvetica,sans-Serif" font-size="10.00">fr.softsf.canscan.ui.QrCode</text>
<text text-anchor="middle" x="256.5" y="-106.5" font-family="Helvetica,sans-Serif" font-size="10.00">BufferedImage.drawModule</text>
</a>
</g>
</g>
<!-- Node1&#45;&gt;Node2 -->
<g id="edge1_Node000001_Node000002" class="edge">
<title>Node1&#45;&gt;Node2</title>
<g id="a_edge1_Node000001_Node000002"><a xlink:title=" ">
<path fill="none" stroke="#63b8ff" d="M140.15,-100.38C151.93,-101.98 164.26,-103.64 176.27,-105.27"/>
<polygon fill="#63b8ff" stroke="#63b8ff" points="175.8,-108.74 186.18,-106.61 176.74,-101.8 175.8,-108.74"/>
</a>
</g>
</g>
<!-- Node3 -->
<g id="Node000003" class="node">
<title>Node3</title>
<g id="a_Node000003"><a xlink:href="classfr_1_1softsf_1_1canscan_1_1ui_1_1_qr_code_buffered_image.html#a1e86fe28f725b960843bc242bb77f286" target="_top" xlink:title="Determines whether a QR code module should be skipped during rendering.">
<polygon fill="white" stroke="#666666" points="337.25,-82 175.75,-82 175.75,-50 337.25,-50 337.25,-82"/>
<text text-anchor="start" x="183.75" y="-68.5" font-family="Helvetica,sans-Serif" font-size="10.00">fr.softsf.canscan.ui.QrCode</text>
<text text-anchor="middle" x="256.5" y="-56.5" font-family="Helvetica,sans-Serif" font-size="10.00">BufferedImage.shouldSkipModule</text>
</a>
</g>
</g>
<!-- Node1&#45;&gt;Node3 -->
<g id="edge2_Node000001_Node000003" class="edge">
<title>Node1&#45;&gt;Node3</title>
<g id="a_edge2_Node000001_Node000003"><a xlink:title=" ">
<path fill="none" stroke="#63b8ff" d="M140.15,-81.62C147.94,-80.57 155.96,-79.48 163.97,-78.39"/>
<polygon fill="#63b8ff" stroke="#63b8ff" points="164.34,-81.88 173.78,-77.07 163.4,-74.94 164.34,-81.88"/>
</a>
</g>
</g>
<!-- Node4 -->
<g id="Node000004" class="node">
<title>Node4</title>
<g id="a_Node000004"><a xlink:href="classfr_1_1softsf_1_1canscan_1_1ui_1_1_qr_code_buffered_image.html#a4bc72b6a6cf4ca35f82d4cd2899c7818" target="_top" xlink:title="Determines whether the given coordinates fall within any of the three QR code position patterns.">
<polygon fill="white" stroke="#666666" points="537.75,-82 373.25,-82 373.25,-50 537.75,-50 537.75,-82"/>
<text text-anchor="start" x="381.25" y="-68.5" font-family="Helvetica,sans-Serif" font-size="10.00">fr.softsf.canscan.ui.QrCode</text>
<text text-anchor="middle" x="455.5" y="-56.5" font-family="Helvetica,sans-Serif" font-size="10.00">BufferedImage.isInPositionPattern</text>
</a>
</g>
</g>
<!-- Node3&#45;&gt;Node4 -->
<g id="edge3_Node000003_Node000004" class="edge">
<title>Node3&#45;&gt;Node4</title>
<g id="a_edge3_Node000003_Node000004"><a xlink:title=" ">
<path fill="none" stroke="#63b8ff" d="M337.63,-66C345.52,-66 353.57,-66 361.58,-66"/>
<polygon fill="#63b8ff" stroke="#63b8ff" points="361.33,-69.5 371.33,-66 361.33,-62.5 361.33,-69.5"/>
</a>
</g>
</g>
<!-- Node5 -->
<g id="Node000005" class="node">
<title>Node5</title>
<g id="a_Node000005"><a xlink:href="classfr_1_1softsf_1_1canscan_1_1ui_1_1_qr_code_buffered_image.html#acdbacde2b4cabcb6003fbf7ac3699852" target="_top" xlink:title="Checks if coordinates are within the bottom&#45;left position pattern.">
<polygon fill="white" stroke="#666666" points="751,-132 573.75,-132 573.75,-100 751,-100 751,-132"/>
<text text-anchor="start" x="581.75" y="-118.5" font-family="Helvetica,sans-Serif" font-size="10.00">fr.softsf.canscan.ui.QrCode</text>
<text text-anchor="middle" x="662.38" y="-106.5" font-family="Helvetica,sans-Serif" font-size="10.00">BufferedImage.isInBottomLeftPattern</text>
</a>
</g>
</g>
<!-- Node4&#45;&gt;Node5 -->
<g id="edge4_Node000004_Node000005" class="edge">
<title>Node4&#45;&gt;Node5</title>
<g id="a_edge4_Node000004_Node000005"><a xlink:title=" ">
<path fill="none" stroke="#63b8ff" d="M523.87,-82.44C542.77,-87.05 563.49,-92.11 582.97,-96.87"/>
<polygon fill="#63b8ff" stroke="#63b8ff" points="581.95,-100.22 592.5,-99.19 583.61,-93.42 581.95,-100.22"/>
</a>
</g>
</g>
<!-- Node6 -->
<g id="Node000006" class="node">
<title>Node6</title>
<g id="a_Node000006"><a xlink:href="classfr_1_1softsf_1_1canscan_1_1ui_1_1_qr_code_buffered_image.html#a3951aad146f1247d0b23eae74de9e5dd" target="_top" xlink:title="Checks if coordinates are within the top&#45;left position pattern.">
<polygon fill="white" stroke="#666666" points="743.12,-82 581.62,-82 581.62,-50 743.12,-50 743.12,-82"/>
<text text-anchor="start" x="589.62" y="-68.5" font-family="Helvetica,sans-Serif" font-size="10.00">fr.softsf.canscan.ui.QrCode</text>
<text text-anchor="middle" x="662.38" y="-56.5" font-family="Helvetica,sans-Serif" font-size="10.00">BufferedImage.isInTopLeftPattern</text>
</a>
</g>
</g>
<!-- Node4&#45;&gt;Node6 -->
<g id="edge5_Node000004_Node000006" class="edge">
<title>Node4&#45;&gt;Node6</title>
<g id="a_edge5_Node000004_Node000006"><a xlink:title=" ">
<path fill="none" stroke="#63b8ff" d="M538.06,-66C548.55,-66 559.34,-66 569.98,-66"/>
<polygon fill="#63b8ff" stroke="#63b8ff" points="569.92,-69.5 579.92,-66 569.92,-62.5 569.92,-69.5"/>
</a>
</g>
</g>
<!-- Node7 -->
<g id="Node000007" class="node">
<title>Node7</title>
<g id="a_Node000007"><a xlink:href="classfr_1_1softsf_1_1canscan_1_1ui_1_1_qr_code_buffered_image.html#ad31e256d4159e4a6a791b995c9629863" target="_top" xlink:title="Checks if coordinates are within the top&#45;right position pattern.">
<polygon fill="white" stroke="#666666" points="746.5,-32 578.25,-32 578.25,0 746.5,0 746.5,-32"/>
<text text-anchor="start" x="586.25" y="-18.5" font-family="Helvetica,sans-Serif" font-size="10.00">fr.softsf.canscan.ui.QrCode</text>
<text text-anchor="middle" x="662.38" y="-6.5" font-family="Helvetica,sans-Serif" font-size="10.00">BufferedImage.isInTopRightPattern</text>
</a>
</g>
</g>
<!-- Node4&#45;&gt;Node7 -->
<g id="edge6_Node000004_Node000007" class="edge">
<title>Node4&#45;&gt;Node7</title>
<g id="a_edge6_Node000004_Node000007"><a xlink:title=" ">
<path fill="none" stroke="#63b8ff" d="M523.87,-49.56C542.77,-44.95 563.49,-39.89 582.97,-35.13"/>
<polygon fill="#63b8ff" stroke="#63b8ff" points="583.61,-38.58 592.5,-32.81 581.95,-31.78 583.61,-38.58"/>
</a>
</g>
</g>
</g>
</svg>
