<?xml version="1.0" encoding="UTF-8" standalone="no"?>
<!DOCTYPE svg PUBLIC "-//W3C//DTD SVG 1.1//EN"
 "http://www.w3.org/Graphics/SVG/1.1/DTD/svg11.dtd">
<!-- Generated by graphviz version 12.2.1 (20241206.2353)
 -->
<!-- Title: fr.softsf.canscan.CanScan.generateQrCodeImage Pages: 1 -->
<!--zoomable 718 -->

<svg id="main" version="1.1" xmlns="http://www.w3.org/2000/svg" xmlns:xlink="http://www.w3.org/1999/xlink" xml:space="preserve" onload="init(evt)">

<style type="text/css"><![CDATA[
.node, .edge {opacity: 0.7;}
.node.selected, .edge.selected {opacity: 1;}
.edge:hover path { stroke: red; }
.edge:hover polygon { stroke: red; fill: red; }
]]></style>

<defs>
  <circle id="rim" cx="0" cy="0" r="7"/>
  <circle id="rim2" cx="0" cy="0" r="3.5"/>
  <g id="zoomPlus">
    <use xlink:href="#rim" fill="#404040"><set attributeName="fill" to="#808080" begin="zoomplus.mouseover" end="zoomplus.mouseout"/></use>
    <path d="M-4,0h8M0,-4v8" fill="none" stroke="white" stroke-width="1.5" pointer-events="none"/>
  </g>
  <g id="zoomMin">
    <use xlink:href="#rim" fill="#404040"><set attributeName="fill" to="#808080" begin="zoomminus.mouseover" end="zoomminus.mouseout"/></use>
    <path d="M-4,0h8" fill="none" stroke="white" stroke-width="1.5" pointer-events="none"/>
  </g>
  <g id="arrowUp" transform="translate(30 24)">
    <use xlink:href="#rim"/>
    <path pointer-events="none" fill="none" stroke="white" stroke-width="1.5" d="M0,-3.0v7 M-2.5,-0.5L0,-3.0L2.5,-0.5"/>
  </g>
  <g id="arrowRight" transform="rotate(90) translate(36 -43)">
    <use xlink:href="#rim"/>
    <path pointer-events="none" fill="none" stroke="white" stroke-width="1.5" d="M0,-3.0v7 M-2.5,-0.5L0,-3.0L2.5,-0.5"/>
  </g>
  <g id="arrowDown" transform="rotate(180) translate(-30 -48)">
    <use xlink:href="#rim"/>
    <path pointer-events="none" fill="none" stroke="white" stroke-width="1.5" d="M0,-3.0v7 M-2.5,-0.5L0,-3.0L2.5,-0.5"/>
  </g>
  <g id="arrowLeft" transform="rotate(270) translate(-36 17)">
    <use xlink:href="#rim"/>
    <path pointer-events="none" fill="none" stroke="white" stroke-width="1.5" d="M0,-3.0v7 M-2.5,-0.5L0,-3.0L2.5,-0.5"/>
  </g>
  <g id="resetDef">
    <use xlink:href="#rim2" fill="#404040"><set attributeName="fill" to="#808080" begin="reset.mouseover" end="reset.mouseout"/></use>
  </g>
</defs>
<script type="application/ecmascript">
var viewWidth = 1017;
var viewHeight = 718;
var sectionId = 'dynsection-22';
</script>
<script type="application/ecmascript" xlink:href="svg.min.js"/>
<svg id="graph" class="graph">
<g id="viewport">
<title>fr.softsf.canscan.CanScan.generateQrCodeImage</title>
<!-- Node1 -->
<g id="Node000001" class="node">
<title>Node1</title>
<g id="a_Node000001"><a xlink:title="Generates a QR code image with optional logo and custom styling.">
<polygon fill="#999999" stroke="#666666" points="173.5,-266.8 0,-266.8 0,-234.8 173.5,-234.8 173.5,-266.8"/>
<text text-anchor="start" x="8" y="-253.3" font-family="Helvetica,sans-Serif" font-size="10.00">fr.softsf.canscan.CanScan.generate</text>
<text text-anchor="middle" x="86.75" y="-241.3" font-family="Helvetica,sans-Serif" font-size="10.00">QrCodeImage</text>
</a>
</g>
</g>
<!-- Node2 -->
<g id="Node000002" class="node">
<title>Node2</title>
<g id="a_Node000002"><a xlink:href="enumfr_1_1softsf_1_1canscan_1_1util_1_1_checker.html#a38aa8db97b16480c728481f1835da11f" target="_top" xlink:title="Checks if the given object is null in a static context and displays an error dialog if so.">
<polygon fill="white" stroke="#666666" points="799,-533.8 624.75,-533.8 624.75,-501.8 799,-501.8 799,-533.8"/>
<text text-anchor="start" x="632.75" y="-520.3" font-family="Helvetica,sans-Serif" font-size="10.00">fr.softsf.canscan.util.Checker.check</text>
<text text-anchor="middle" x="711.88" y="-508.3" font-family="Helvetica,sans-Serif" font-size="10.00">StaticNPE</text>
</a>
</g>
</g>
<!-- Node1&#45;&gt;Node2 -->
<g id="edge1_Node000001_Node000002" class="edge">
<title>Node1&#45;&gt;Node2</title>
<g id="a_edge1_Node000001_Node000002"><a xlink:title=" ">
<path fill="none" stroke="#63b8ff" d="M87.96,-266.93C89.64,-322.37 103.31,-506.32 209.5,-589.8 342.23,-694.15 428.91,-666.19 588.75,-611.8 628.95,-598.12 666.25,-565.27 688.79,-542.28"/>
<polygon fill="#63b8ff" stroke="#63b8ff" points="691.26,-544.76 695.64,-535.11 686.2,-539.92 691.26,-544.76"/>
</a>
</g>
</g>
<!-- Node4 -->
<g id="Node000004" class="node">
<title>Node4</title>
<g id="a_Node000004"><a xlink:href="classfr_1_1softsf_1_1canscan_1_1_can_scan.html#a82526318e704277d2a8270264552db6c" target="_top" xlink:title="Creates a QR code matrix for the given text.">
<polygon fill="white" stroke="#666666" points="375.88,-580.8 212.88,-580.8 212.88,-548.8 375.88,-548.8 375.88,-580.8"/>
<text text-anchor="start" x="220.88" y="-567.3" font-family="Helvetica,sans-Serif" font-size="10.00">fr.softsf.canscan.CanScan.create</text>
<text text-anchor="middle" x="294.38" y="-555.3" font-family="Helvetica,sans-Serif" font-size="10.00">Matrix</text>
</a>
</g>
</g>
<!-- Node1&#45;&gt;Node4 -->
<g id="edge3_Node000001_Node000004" class="edge">
<title>Node1&#45;&gt;Node4</title>
<g id="a_edge3_Node000001_Node000004"><a xlink:title=" ">
<path fill="none" stroke="#63b8ff" d="M92.86,-267C106.59,-308.76 147.5,-422.17 209.5,-498.8 222.94,-515.42 241.3,-530.46 257.42,-541.98"/>
<polygon fill="#63b8ff" stroke="#63b8ff" points="255.14,-544.65 265.35,-547.47 259.12,-538.9 255.14,-544.65"/>
</a>
</g>
</g>
<!-- Node5 -->
<g id="Node000005" class="node">
<title>Node5</title>
<g id="a_Node000005"><a xlink:href="classfr_1_1softsf_1_1canscan_1_1_can_scan.html#a57411c1dc563d6c8a1fdec872ad66877" target="_top" xlink:title="Renders the three QR code finder patterns at the corners using the specified style.">
<polygon fill="white" stroke="#666666" points="372.88,-489.8 215.88,-489.8 215.88,-457.8 372.88,-457.8 372.88,-489.8"/>
<text text-anchor="start" x="223.88" y="-476.3" font-family="Helvetica,sans-Serif" font-size="10.00">fr.softsf.canscan.CanScan.draw</text>
<text text-anchor="middle" x="294.38" y="-464.3" font-family="Helvetica,sans-Serif" font-size="10.00">FinderPatterns</text>
</a>
</g>
</g>
<!-- Node1&#45;&gt;Node5 -->
<g id="edge5_Node000001_Node000005" class="edge">
<title>Node1&#45;&gt;Node5</title>
<g id="a_edge5_Node000001_Node000005"><a xlink:title=" ">
<path fill="none" stroke="#63b8ff" d="M102.87,-267.2C138.59,-305.94 228.38,-403.32 270.68,-449.18"/>
<polygon fill="#63b8ff" stroke="#63b8ff" points="267.85,-451.29 277.21,-456.27 273,-446.54 267.85,-451.29"/>
</a>
</g>
</g>
<!-- Node8 -->
<g id="Node000008" class="node">
<title>Node8</title>
<g id="a_Node000008"><a xlink:href="classfr_1_1softsf_1_1canscan_1_1_can_scan.html#abb6acfc2fa4bf839236f0daee33746f7" target="_top" xlink:title="Configuration parameters used to generate a QR code.">
<polygon fill="white" stroke="#666666" points="990.12,-259.8 854.12,-259.8 854.12,-227.8 990.12,-227.8 990.12,-259.8"/>
<text text-anchor="start" x="862.12" y="-246.3" font-family="Helvetica,sans-Serif" font-size="10.00">fr.softsf.canscan.CanScan.</text>
<text text-anchor="middle" x="922.12" y="-234.3" font-family="Helvetica,sans-Serif" font-size="10.00">QrConfig</text>
</a>
</g>
</g>
<!-- Node1&#45;&gt;Node8 -->
<g id="edge35_Node000001_Node000008" class="edge">
<title>Node1&#45;&gt;Node8</title>
<g id="a_edge35_Node000001_Node000008"><a xlink:title=" ">
<path fill="none" stroke="#63b8ff" d="M119.04,-234.38C143.19,-222.26 177.75,-206.15 209.5,-195.8 298.32,-166.84 322.33,-162.41 415.25,-152.8 585.39,-135.21 635.77,-130.7 799,-181.8 829.44,-191.33 861.51,-207.9 885.15,-221.51"/>
<polygon fill="#63b8ff" stroke="#63b8ff" points="883.35,-224.52 893.75,-226.56 886.9,-218.48 883.35,-224.52"/>
</a>
</g>
</g>
<!-- Node9 -->
<g id="Node000009" class="node">
<title>Node9</title>
<g id="a_Node000009"><a xlink:href="classfr_1_1softsf_1_1canscan_1_1_can_scan.html#ada7babf06b5adade313f5236f040a383" target="_top" xlink:title="Draws the logo at the center of the QR code if a valid logo file is provided.">
<polygon fill="white" stroke="#666666" points="580.5,-193.8 423.5,-193.8 423.5,-161.8 580.5,-161.8 580.5,-193.8"/>
<text text-anchor="start" x="431.5" y="-180.3" font-family="Helvetica,sans-Serif" font-size="10.00">fr.softsf.canscan.CanScan.draw</text>
<text text-anchor="middle" x="502" y="-168.3" font-family="Helvetica,sans-Serif" font-size="10.00">LogoIfPresent</text>
</a>
</g>
</g>
<!-- Node1&#45;&gt;Node9 -->
<g id="edge13_Node000001_Node000009" class="edge">
<title>Node1&#45;&gt;Node9</title>
<g id="a_edge13_Node000001_Node000009"><a xlink:title=" ">
<path fill="none" stroke="#63b8ff" d="M173.88,-235.59C243.6,-223.27 341.45,-205.99 411.94,-193.53"/>
<polygon fill="#63b8ff" stroke="#63b8ff" points="412.28,-197.03 421.52,-191.84 411.06,-190.13 412.28,-197.03"/>
</a>
</g>
</g>
<!-- Node10 -->
<g id="Node000010" class="node">
<title>Node10</title>
<g id="a_Node000010"><a xlink:href="classfr_1_1softsf_1_1canscan_1_1_can_scan.html#a9bec7e01bac5ab7e6ef38f704d903f7f" target="_top" xlink:title="Renders all QR code modules onto the provided graphics context.">
<polygon fill="white" stroke="#666666" points="372.88,-307.8 215.88,-307.8 215.88,-275.8 372.88,-275.8 372.88,-307.8"/>
<text text-anchor="start" x="223.88" y="-294.3" font-family="Helvetica,sans-Serif" font-size="10.00">fr.softsf.canscan.CanScan.draw</text>
<text text-anchor="middle" x="294.38" y="-282.3" font-family="Helvetica,sans-Serif" font-size="10.00">Modules</text>
</a>
</g>
</g>
<!-- Node1&#45;&gt;Node10 -->
<g id="edge16_Node000001_Node000010" class="edge">
<title>Node1&#45;&gt;Node10</title>
<g id="a_edge16_Node000001_Node000010"><a xlink:title=" ">
<path fill="none" stroke="#63b8ff" d="M170.5,-267.3C181.63,-269.52 193.09,-271.8 204.32,-274.04"/>
<polygon fill="#63b8ff" stroke="#63b8ff" points="203.49,-277.45 213.98,-275.97 204.86,-270.58 203.49,-277.45"/>
</a>
</g>
</g>
<!-- Node18 -->
<g id="Node000018" class="node">
<title>Node18</title>
<g id="a_Node000018"><a xlink:href="classfr_1_1softsf_1_1canscan_1_1_can_scan.html#a070e10a2c703a908c63b30821cdcb4b1" target="_top" xlink:title="Estimates the memory required to create a BufferedImage.">
<polygon fill="white" stroke="#666666" points="588.75,-101.8 415.25,-101.8 415.25,-69.8 588.75,-69.8 588.75,-101.8"/>
<text text-anchor="start" x="423.25" y="-88.3" font-family="Helvetica,sans-Serif" font-size="10.00">fr.softsf.canscan.CanScan.estimate</text>
<text text-anchor="middle" x="502" y="-76.3" font-family="Helvetica,sans-Serif" font-size="10.00">ImageMemoryMB</text>
</a>
</g>
</g>
<!-- Node1&#45;&gt;Node18 -->
<g id="edge31_Node000001_Node000018" class="edge">
<title>Node1&#45;&gt;Node18</title>
<g id="a_edge31_Node000001_Node000018"><a xlink:title=" ">
<path fill="none" stroke="#63b8ff" d="M97.82,-234.61C116.17,-206.66 157.98,-149.85 209.5,-123.8 269.4,-93.52 344.7,-84.32 403.76,-82.54"/>
<polygon fill="#63b8ff" stroke="#63b8ff" points="403.53,-86.04 413.45,-82.32 403.37,-79.05 403.53,-86.04"/>
</a>
</g>
</g>
<!-- Node19 -->
<g id="Node000019" class="node">
<title>Node19</title>
<g id="a_Node000019"><a xlink:href="classfr_1_1softsf_1_1canscan_1_1_can_scan.html#a81256a8e00a35676330af2e8542acf51" target="_top" xlink:title="Fills the entire QR code area with the specified background color.">
<polygon fill="white" stroke="#666666" points="367.25,-709.8 221.5,-709.8 221.5,-677.8 367.25,-677.8 367.25,-709.8"/>
<text text-anchor="start" x="229.5" y="-696.3" font-family="Helvetica,sans-Serif" font-size="10.00">fr.softsf.canscan.CanScan.fill</text>
<text text-anchor="middle" x="294.38" y="-684.3" font-family="Helvetica,sans-Serif" font-size="10.00">Background</text>
</a>
</g>
</g>
<!-- Node1&#45;&gt;Node19 -->
<g id="edge32_Node000001_Node000019" class="edge">
<title>Node1&#45;&gt;Node19</title>
<g id="a_edge32_Node000001_Node000019"><a xlink:title=" ">
<path fill="none" stroke="#63b8ff" d="M87.6,-267.15C87.95,-328.15 97.33,-545.07 209.5,-663.8 212.1,-666.56 214.97,-669.06 218.04,-671.33"/>
<polygon fill="#63b8ff" stroke="#63b8ff" points="216.15,-674.28 226.47,-676.67 219.9,-668.36 216.15,-674.28"/>
</a>
</g>
</g>
<!-- Node20 -->
<g id="Node000020" class="node">
<title>Node20</title>
<g id="a_Node000020"><a xlink:href="classfr_1_1softsf_1_1canscan_1_1_can_scan.html#a734f691ae3eeecc255c1e43c4f9edb8c" target="_top" xlink:title="Gets the available memory in the JVM.">
<polygon fill="white" stroke="#666666" points="576.75,-43.8 427.25,-43.8 427.25,-11.8 576.75,-11.8 576.75,-43.8"/>
<text text-anchor="start" x="435.25" y="-30.3" font-family="Helvetica,sans-Serif" font-size="10.00">fr.softsf.canscan.CanScan.get</text>
<text text-anchor="middle" x="502" y="-18.3" font-family="Helvetica,sans-Serif" font-size="10.00">AvailableMemoryMB</text>
</a>
</g>
</g>
<!-- Node1&#45;&gt;Node20 -->
<g id="edge34_Node000001_Node000020" class="edge">
<title>Node1&#45;&gt;Node20</title>
<g id="a_edge34_Node000001_Node000020"><a xlink:title=" ">
<path fill="none" stroke="#63b8ff" d="M90.96,-234.49C100.34,-191.81 132.08,-76.98 209.5,-30.8 275.21,8.39 364.96,2.34 427.45,-9.18"/>
<polygon fill="#63b8ff" stroke="#63b8ff" points="426.43,-12.55 436.91,-11.02 427.77,-5.68 426.43,-12.55"/>
</a>
</g>
</g>
<!-- Node21 -->
<g id="Node000021" class="node">
<title>Node21</title>
<g id="a_Node000021"><a xlink:href="classfr_1_1softsf_1_1canscan_1_1_can_scan.html#a8919d8945854ca9cd798a20e9f076bff" target="_top" xlink:title="Validates that sufficient memory is available to generate a square image of the given size.">
<polygon fill="white" stroke="#666666" points="379.25,-71.8 209.5,-71.8 209.5,-39.8 379.25,-39.8 379.25,-71.8"/>
<text text-anchor="start" x="217.5" y="-58.3" font-family="Helvetica,sans-Serif" font-size="10.00">fr.softsf.canscan.CanScan.validate</text>
<text text-anchor="middle" x="294.38" y="-46.3" font-family="Helvetica,sans-Serif" font-size="10.00">MemoryForImageSize</text>
</a>
</g>
</g>
<!-- Node1&#45;&gt;Node21 -->
<g id="edge36_Node000001_Node000021" class="edge">
<title>Node1&#45;&gt;Node21</title>
<g id="a_edge36_Node000001_Node000021"><a xlink:title=" ">
<path fill="none" stroke="#63b8ff" d="M95.58,-234.47C112.1,-201.66 153.65,-127.33 209.5,-85.8 213.77,-82.62 218.42,-79.76 223.25,-77.18"/>
<polygon fill="#63b8ff" stroke="#63b8ff" points="224.54,-80.44 232.02,-72.93 221.49,-74.14 224.54,-80.44"/>
</a>
</g>
</g>
<!-- Node3 -->
<g id="Node000003" class="node">
<title>Node3</title>
<g id="a_Node000003"><a xlink:href="enumfr_1_1softsf_1_1canscan_1_1util_1_1_checker.html#af3fc9dd2a33f4d12c5db8cf2aeea17d7" target="_top" xlink:title="Validates that the given object is non&#45;null and, if a String, not blank.">
<polygon fill="white" stroke="#666666" points="1009.25,-545.8 835,-545.8 835,-513.8 1009.25,-513.8 1009.25,-545.8"/>
<text text-anchor="start" x="843" y="-532.3" font-family="Helvetica,sans-Serif" font-size="10.00">fr.softsf.canscan.util.Checker.check</text>
<text text-anchor="middle" x="922.12" y="-520.3" font-family="Helvetica,sans-Serif" font-size="10.00">NullOrBlankInternal</text>
</a>
</g>
</g>
<!-- Node2&#45;&gt;Node3 -->
<g id="edge2_Node000002_Node000003" class="edge">
<title>Node2&#45;&gt;Node3</title>
<g id="a_edge2_Node000002_Node000003"><a xlink:title=" ">
<path fill="none" stroke="#63b8ff" d="M799.38,-522.79C807.28,-523.24 815.32,-523.7 823.31,-524.16"/>
<polygon fill="#63b8ff" stroke="#63b8ff" points="822.86,-527.64 833.04,-524.73 823.26,-520.66 822.86,-527.64"/>
</a>
</g>
</g>
<!-- Node4&#45;&gt;Node2 -->
<g id="edge4_Node000004_Node000002" class="edge">
<title>Node4&#45;&gt;Node2</title>
<g id="a_edge4_Node000004_Node000002"><a xlink:title=" ">
<path fill="none" stroke="#63b8ff" d="M348.09,-581.24C407.63,-597.21 506.89,-615.93 588.75,-592.8 624.1,-582.81 659.3,-559.4 682.76,-541.36"/>
<polygon fill="#63b8ff" stroke="#63b8ff" points="684.89,-544.14 690.58,-535.2 680.56,-538.65 684.89,-544.14"/>
</a>
</g>
</g>
<!-- Node5&#45;&gt;Node2 -->
<g id="edge6_Node000005_Node000002" class="edge">
<title>Node5&#45;&gt;Node2</title>
<g id="a_edge6_Node000005_Node000002"><a xlink:title=" ">
<path fill="none" stroke="#63b8ff" d="M373.18,-475.93C432.48,-478.26 516.03,-483.05 588.75,-492.8 601.36,-494.49 614.62,-496.72 627.56,-499.16"/>
<polygon fill="#63b8ff" stroke="#63b8ff" points="626.86,-502.59 637.34,-501.06 628.19,-495.72 626.86,-502.59"/>
</a>
</g>
</g>
<!-- Node6 -->
<g id="Node000006" class="node">
<title>Node6</title>
<g id="a_Node000006"><a xlink:href="classfr_1_1softsf_1_1canscan_1_1_can_scan.html#ad07293248fd94f28e8840a4127591c74" target="_top" xlink:title="Draws a QR code finder pattern with rounded corners at the specified pixel coordinates.">
<polygon fill="white" stroke="#666666" points="580.5,-583.8 423.5,-583.8 423.5,-551.8 580.5,-551.8 580.5,-583.8"/>
<text text-anchor="start" x="431.5" y="-570.3" font-family="Helvetica,sans-Serif" font-size="10.00">fr.softsf.canscan.CanScan.draw</text>
<text text-anchor="middle" x="502" y="-558.3" font-family="Helvetica,sans-Serif" font-size="10.00">RoundedFinderPatternAtPixel</text>
</a>
</g>
</g>
<!-- Node5&#45;&gt;Node6 -->
<g id="edge7_Node000005_Node000006" class="edge">
<title>Node5&#45;&gt;Node6</title>
<g id="a_edge7_Node000005_Node000006"><a xlink:title=" ">
<path fill="none" stroke="#63b8ff" d="M319.73,-490.14C343.34,-505.41 380.57,-528.02 415.25,-542.8 419.23,-544.5 423.36,-546.12 427.56,-547.67"/>
<polygon fill="#63b8ff" stroke="#63b8ff" points="426.08,-550.86 436.67,-550.85 428.38,-544.25 426.08,-550.86"/>
</a>
</g>
</g>
<!-- Node7 -->
<g id="Node000007" class="node">
<title>Node7</title>
<g id="a_Node000007"><a xlink:href="classfr_1_1softsf_1_1canscan_1_1_can_scan.html#a52d47c63db292c6e4c9170ff3f110372" target="_top" xlink:title="Draws a standard square QR code finder pattern at the specified pixel coordinates.">
<polygon fill="white" stroke="#666666" points="580.5,-533.8 423.5,-533.8 423.5,-501.8 580.5,-501.8 580.5,-533.8"/>
<text text-anchor="start" x="431.5" y="-520.3" font-family="Helvetica,sans-Serif" font-size="10.00">fr.softsf.canscan.CanScan.draw</text>
<text text-anchor="middle" x="502" y="-508.3" font-family="Helvetica,sans-Serif" font-size="10.00">SquareFinderPatternAtPixel</text>
</a>
</g>
</g>
<!-- Node5&#45;&gt;Node7 -->
<g id="edge9_Node000005_Node000007" class="edge">
<title>Node5&#45;&gt;Node7</title>
<g id="a_edge9_Node000005_Node000007"><a xlink:title=" ">
<path fill="none" stroke="#63b8ff" d="M372.23,-490.25C385.42,-493.07 399.22,-496.02 412.68,-498.9"/>
<polygon fill="#63b8ff" stroke="#63b8ff" points="411.9,-502.31 422.41,-500.98 413.36,-495.47 411.9,-502.31"/>
</a>
</g>
</g>
<!-- Node5&#45;&gt;Node8 -->
<g id="edge11_Node000005_Node000008" class="edge">
<title>Node5&#45;&gt;Node8</title>
<g id="a_edge11_Node000005_Node000008"><a xlink:title=" ">
<path fill="none" stroke="#63b8ff" d="M373.04,-458.38C474.24,-436.62 655.23,-391.9 799,-324.8 832.79,-309.03 867.91,-284.77 891.77,-266.91"/>
<polygon fill="#63b8ff" stroke="#63b8ff" points="893.59,-269.92 899.44,-261.09 889.36,-264.35 893.59,-269.92"/>
</a>
</g>
</g>
<!-- Node6&#45;&gt;Node2 -->
<g id="edge8_Node000006_Node000002" class="edge">
<title>Node6&#45;&gt;Node2</title>
<g id="a_edge8_Node000006_Node000002"><a xlink:title=" ">
<path fill="none" stroke="#63b8ff" d="M571.35,-551.36C590.53,-546.75 611.55,-541.69 631.33,-536.94"/>
<polygon fill="#63b8ff" stroke="#63b8ff" points="632.1,-540.35 641.01,-534.61 630.47,-533.54 632.1,-540.35"/>
</a>
</g>
</g>
<!-- Node7&#45;&gt;Node2 -->
<g id="edge10_Node000007_Node000002" class="edge">
<title>Node7&#45;&gt;Node2</title>
<g id="a_edge10_Node000007_Node000002"><a xlink:title=" ">
<path fill="none" stroke="#63b8ff" d="M581,-517.8C591.51,-517.8 602.41,-517.8 613.21,-517.8"/>
<polygon fill="#63b8ff" stroke="#63b8ff" points="612.91,-521.3 622.91,-517.8 612.91,-514.3 612.91,-521.3"/>
</a>
</g>
</g>
<!-- Node8&#45;&gt;Node8 -->
<g id="edge12_Node000008_Node000008" class="edge">
<title>Node8&#45;&gt;Node8</title>
<g id="a_edge12_Node000008_Node000008"><a xlink:title=" ">
<path fill="none" stroke="#63b8ff" d="M884.59,-260.24C877.58,-269.38 890.09,-277.8 922.12,-277.8 939.89,-277.8 951.65,-275.21 957.41,-271.35"/>
<polygon fill="#63b8ff" stroke="#63b8ff" points="960.8,-272.22 959.36,-261.73 953.94,-270.83 960.8,-272.22"/>
</a>
</g>
</g>
<!-- Node9&#45;&gt;Node2 -->
<g id="edge14_Node000009_Node000002" class="edge">
<title>Node9&#45;&gt;Node2</title>
<g id="a_edge14_Node000009_Node000002"><a xlink:title=" ">
<path fill="none" stroke="#63b8ff" d="M521.59,-194.04C541.47,-212.51 572.36,-244.57 588.75,-278.8 625.49,-355.53 575.83,-397.2 624.75,-466.8 633.11,-478.69 645.2,-488.26 657.69,-495.75"/>
<polygon fill="#63b8ff" stroke="#63b8ff" points="655.96,-498.79 666.41,-500.58 659.36,-492.67 655.96,-498.79"/>
</a>
</g>
</g>
<!-- Node9&#45;&gt;Node8 -->
<g id="edge15_Node000009_Node000008" class="edge">
<title>Node9&#45;&gt;Node8</title>
<g id="a_edge15_Node000009_Node000008"><a xlink:title=" ">
<path fill="none" stroke="#63b8ff" d="M580.86,-181.74C640.89,-185.72 725.76,-193.42 799,-207.8 819.86,-211.9 842.29,-218 862.16,-224.02"/>
<polygon fill="#63b8ff" stroke="#63b8ff" points="860.87,-227.28 871.46,-226.89 862.94,-220.6 860.87,-227.28"/>
</a>
</g>
</g>
<!-- Node10&#45;&gt;Node2 -->
<g id="edge17_Node000010_Node000002" class="edge">
<title>Node10&#45;&gt;Node2</title>
<g id="a_edge17_Node000010_Node000002"><a xlink:title=" ">
<path fill="none" stroke="#63b8ff" d="M315.36,-308.11C338.53,-326.59 378.28,-356.96 415.25,-378.8 497.47,-427.38 599.43,-472.19 659.59,-497.17"/>
<polygon fill="#63b8ff" stroke="#63b8ff" points="657.98,-500.3 668.56,-500.88 660.66,-493.83 657.98,-500.3"/>
</a>
</g>
</g>
<!-- Node10&#45;&gt;Node8 -->
<g id="edge23_Node000010_Node000008" class="edge">
<title>Node10&#45;&gt;Node8</title>
<g id="a_edge23_Node000010_Node000008"><a xlink:title=" ">
<path fill="none" stroke="#63b8ff" d="M365.84,-275.35C382.01,-271.9 399.18,-268.5 415.25,-265.8 507.73,-250.29 531.14,-246.37 624.75,-240.8 702.06,-236.2 721.56,-239.85 799,-240.8 813.06,-240.97 828.02,-241.26 842.48,-241.58"/>
<polygon fill="#63b8ff" stroke="#63b8ff" points="842.35,-245.08 852.43,-241.82 842.51,-238.08 842.35,-245.08"/>
</a>
</g>
</g>
<!-- Node11 -->
<g id="Node000011" class="node">
<title>Node11</title>
<g id="a_Node000011"><a xlink:href="classfr_1_1softsf_1_1canscan_1_1_can_scan.html#a27947dca81e478496f857b5a1b1fece1" target="_top" xlink:title="Draws a single QR code module at the specified coordinates with configured size and shape.">
<polygon fill="white" stroke="#666666" points="580.5,-369.8 423.5,-369.8 423.5,-337.8 580.5,-337.8 580.5,-369.8"/>
<text text-anchor="start" x="431.5" y="-356.3" font-family="Helvetica,sans-Serif" font-size="10.00">fr.softsf.canscan.CanScan.draw</text>
<text text-anchor="middle" x="502" y="-344.3" font-family="Helvetica,sans-Serif" font-size="10.00">Module</text>
</a>
</g>
</g>
<!-- Node10&#45;&gt;Node11 -->
<g id="edge18_Node000010_Node000011" class="edge">
<title>Node10&#45;&gt;Node11</title>
<g id="a_edge18_Node000010_Node000011"><a xlink:title=" ">
<path fill="none" stroke="#63b8ff" d="M348.13,-308.28C369.01,-314.75 393.24,-322.2 415.25,-328.8 421.1,-330.56 427.18,-332.36 433.27,-334.16"/>
<polygon fill="#63b8ff" stroke="#63b8ff" points="432.2,-337.49 442.78,-336.96 434.17,-330.78 432.2,-337.49"/>
</a>
</g>
</g>
<!-- Node12 -->
<g id="Node000012" class="node">
<title>Node12</title>
<g id="a_Node000012"><a xlink:href="classfr_1_1softsf_1_1canscan_1_1_can_scan.html#a484c9ff5ae69812c69d4318735f32130" target="_top" xlink:title="Encapsulates contextual data for module rendering decisions.">
<polygon fill="white" stroke="#666666" points="779.88,-281.8 643.88,-281.8 643.88,-249.8 779.88,-249.8 779.88,-281.8"/>
<text text-anchor="start" x="651.88" y="-268.3" font-family="Helvetica,sans-Serif" font-size="10.00">fr.softsf.canscan.CanScan.</text>
<text text-anchor="middle" x="711.88" y="-256.3" font-family="Helvetica,sans-Serif" font-size="10.00">ModuleContext</text>
</a>
</g>
</g>
<!-- Node10&#45;&gt;Node12 -->
<g id="edge21_Node000010_Node000012" class="edge">
<title>Node10&#45;&gt;Node12</title>
<g id="a_edge21_Node000010_Node000012"><a xlink:title=" ">
<path fill="none" stroke="#63b8ff" d="M373.33,-282.61C387.28,-281.18 401.68,-279.83 415.25,-278.8 488.76,-273.2 572.75,-269.8 632.37,-267.88"/>
<polygon fill="#63b8ff" stroke="#63b8ff" points="632.19,-271.39 642.07,-267.58 631.97,-264.4 632.19,-271.39"/>
</a>
</g>
</g>
<!-- Node13 -->
<g id="Node000013" class="node">
<title>Node13</title>
<g id="a_Node000013"><a xlink:href="classfr_1_1softsf_1_1canscan_1_1_can_scan.html#ad9893ec413ee4e8987dc7719d1bd9596" target="_top" xlink:title="Determines whether a QR code module should be skipped during rendering.">
<polygon fill="white" stroke="#666666" points="584.25,-319.8 419.75,-319.8 419.75,-287.8 584.25,-287.8 584.25,-319.8"/>
<text text-anchor="start" x="427.75" y="-306.3" font-family="Helvetica,sans-Serif" font-size="10.00">fr.softsf.canscan.CanScan.should</text>
<text text-anchor="middle" x="502" y="-294.3" font-family="Helvetica,sans-Serif" font-size="10.00">SkipModule</text>
</a>
</g>
</g>
<!-- Node10&#45;&gt;Node13 -->
<g id="edge24_Node000010_Node000013" class="edge">
<title>Node10&#45;&gt;Node13</title>
<g id="a_edge24_Node000010_Node000013"><a xlink:title=" ">
<path fill="none" stroke="#63b8ff" d="M373.11,-296.34C384.58,-297.01 396.48,-297.7 408.21,-298.39"/>
<polygon fill="#63b8ff" stroke="#63b8ff" points="407.69,-301.86 417.87,-298.95 408.09,-294.87 407.69,-301.86"/>
</a>
</g>
</g>
<!-- Node11&#45;&gt;Node2 -->
<g id="edge19_Node000011_Node000002" class="edge">
<title>Node11&#45;&gt;Node2</title>
<g id="a_edge19_Node000011_Node000002"><a xlink:title=" ">
<path fill="none" stroke="#63b8ff" d="M526.37,-370.1C544.31,-383.13 569.23,-402.36 588.75,-421.8 606.9,-439.87 605.42,-450 624.75,-466.8 637.54,-477.91 653.08,-487.96 667.42,-496.14"/>
<polygon fill="#63b8ff" stroke="#63b8ff" points="665.34,-498.99 675.78,-500.76 668.72,-492.86 665.34,-498.99"/>
</a>
</g>
</g>
<!-- Node11&#45;&gt;Node8 -->
<g id="edge20_Node000011_Node000008" class="edge">
<title>Node11&#45;&gt;Node8</title>
<g id="a_edge20_Node000011_Node000008"><a xlink:title=" ">
<path fill="none" stroke="#63b8ff" d="M580.81,-340.71C641,-329.75 726.09,-312.44 799,-290.8 823.71,-283.47 850.5,-273.41 872.67,-264.47"/>
<polygon fill="#63b8ff" stroke="#63b8ff" points="873.82,-267.78 881.76,-260.77 871.18,-261.3 873.82,-267.78"/>
</a>
</g>
</g>
<!-- Node12&#45;&gt;Node8 -->
<g id="edge22_Node000012_Node000008" class="edge">
<title>Node12&#45;&gt;Node8</title>
<g id="a_edge22_Node000012_Node000008"><a xlink:title=" ">
<path fill="none" stroke="#63b8ff" d="M780.2,-258.69C800.05,-256.59 821.95,-254.28 842.45,-252.11"/>
<polygon fill="#63b8ff" stroke="#63b8ff" points="842.59,-255.62 852.17,-251.09 841.86,-248.66 842.59,-255.62"/>
</a>
</g>
</g>
<!-- Node13&#45;&gt;Node2 -->
<g id="edge25_Node000013_Node000002" class="edge">
<title>Node13&#45;&gt;Node2</title>
<g id="a_edge25_Node000013_Node000002"><a xlink:title=" ">
<path fill="none" stroke="#63b8ff" d="M577.91,-320.05C581.85,-322.57 585.51,-325.47 588.75,-328.8 632.93,-374.26 586.61,-416.18 624.75,-466.8 633.75,-478.75 646.43,-488.42 659.3,-496.01"/>
<polygon fill="#63b8ff" stroke="#63b8ff" points="657.35,-498.93 667.8,-500.67 660.72,-492.79 657.35,-498.93"/>
</a>
</g>
</g>
<!-- Node13&#45;&gt;Node12 -->
<g id="edge30_Node000013_Node000012" class="edge">
<title>Node13&#45;&gt;Node12</title>
<g id="a_edge30_Node000013_Node000012"><a xlink:title=" ">
<path fill="none" stroke="#63b8ff" d="M584.56,-288.89C600.3,-286.01 616.77,-283 632.41,-280.15"/>
<polygon fill="#63b8ff" stroke="#63b8ff" points="632.93,-283.61 642.14,-278.37 631.68,-276.72 632.93,-283.61"/>
</a>
</g>
</g>
<!-- Node14 -->
<g id="Node000014" class="node">
<title>Node14</title>
<g id="a_Node000014"><a xlink:href="classfr_1_1softsf_1_1canscan_1_1_can_scan.html#a940bd22cc9e8523e3f60bf19efb91129" target="_top" xlink:title="Determines whether the given coordinates fall within any of the three QR code position patterns.">
<polygon fill="white" stroke="#666666" points="783.62,-457.8 640.12,-457.8 640.12,-425.8 783.62,-425.8 783.62,-457.8"/>
<text text-anchor="start" x="648.12" y="-444.3" font-family="Helvetica,sans-Serif" font-size="10.00">fr.softsf.canscan.CanScan.is</text>
<text text-anchor="middle" x="711.88" y="-432.3" font-family="Helvetica,sans-Serif" font-size="10.00">InPositionPattern</text>
</a>
</g>
</g>
<!-- Node13&#45;&gt;Node14 -->
<g id="edge26_Node000013_Node000014" class="edge">
<title>Node13&#45;&gt;Node14</title>
<g id="a_edge26_Node000013_Node000014"><a xlink:title=" ">
<path fill="none" stroke="#63b8ff" d="M570.7,-320.28C576.97,-322.76 583.08,-325.59 588.75,-328.8 629.67,-351.97 667.94,-391.37 690.38,-416.99"/>
<polygon fill="#63b8ff" stroke="#63b8ff" points="687.47,-418.98 696.64,-424.28 692.78,-414.41 687.47,-418.98"/>
</a>
</g>
</g>
<!-- Node15 -->
<g id="Node000015" class="node">
<title>Node15</title>
<g id="a_Node000015"><a xlink:href="classfr_1_1softsf_1_1canscan_1_1_can_scan.html#abf3dc1201aa081507d7a0229e3c798e4" target="_top" xlink:title="Checks if coordinates are within the bottom&#45;left position pattern.">
<polygon fill="white" stroke="#666666" points="993.88,-495.8 850.38,-495.8 850.38,-463.8 993.88,-463.8 993.88,-495.8"/>
<text text-anchor="start" x="858.38" y="-482.3" font-family="Helvetica,sans-Serif" font-size="10.00">fr.softsf.canscan.CanScan.is</text>
<text text-anchor="middle" x="922.12" y="-470.3" font-family="Helvetica,sans-Serif" font-size="10.00">InBottomLeftPattern</text>
</a>
</g>
</g>
<!-- Node14&#45;&gt;Node15 -->
<g id="edge27_Node000014_Node000015" class="edge">
<title>Node14&#45;&gt;Node15</title>
<g id="a_edge27_Node000014_Node000015"><a xlink:title=" ">
<path fill="none" stroke="#63b8ff" d="M783.96,-454.77C801.62,-458 820.7,-461.48 838.85,-464.79"/>
<polygon fill="#63b8ff" stroke="#63b8ff" points="838.05,-468.2 848.52,-466.55 839.31,-461.31 838.05,-468.2"/>
</a>
</g>
</g>
<!-- Node16 -->
<g id="Node000016" class="node">
<title>Node16</title>
<g id="a_Node000016"><a xlink:href="classfr_1_1softsf_1_1canscan_1_1_can_scan.html#a169bc46f13cb9990c8629fdd13abf182" target="_top" xlink:title="Checks if coordinates are within the top&#45;left position pattern.">
<polygon fill="white" stroke="#666666" points="993.88,-445.8 850.38,-445.8 850.38,-413.8 993.88,-413.8 993.88,-445.8"/>
<text text-anchor="start" x="858.38" y="-432.3" font-family="Helvetica,sans-Serif" font-size="10.00">fr.softsf.canscan.CanScan.is</text>
<text text-anchor="middle" x="922.12" y="-420.3" font-family="Helvetica,sans-Serif" font-size="10.00">InTopLeftPattern</text>
</a>
</g>
</g>
<!-- Node14&#45;&gt;Node16 -->
<g id="edge28_Node000014_Node000016" class="edge">
<title>Node14&#45;&gt;Node16</title>
<g id="a_edge28_Node000014_Node000016"><a xlink:title=" ">
<path fill="none" stroke="#63b8ff" d="M783.96,-437.71C801.54,-436.69 820.52,-435.6 838.59,-434.56"/>
<polygon fill="#63b8ff" stroke="#63b8ff" points="838.71,-438.06 848.5,-433.99 838.31,-431.07 838.71,-438.06"/>
</a>
</g>
</g>
<!-- Node17 -->
<g id="Node000017" class="node">
<title>Node17</title>
<g id="a_Node000017"><a xlink:href="classfr_1_1softsf_1_1canscan_1_1_can_scan.html#a12dfb700fa0b93fec09bf799ef2a917f" target="_top" xlink:title="Checks if coordinates are within the top&#45;right position pattern.">
<polygon fill="white" stroke="#666666" points="993.88,-395.8 850.38,-395.8 850.38,-363.8 993.88,-363.8 993.88,-395.8"/>
<text text-anchor="start" x="858.38" y="-382.3" font-family="Helvetica,sans-Serif" font-size="10.00">fr.softsf.canscan.CanScan.is</text>
<text text-anchor="middle" x="922.12" y="-370.3" font-family="Helvetica,sans-Serif" font-size="10.00">InTopRightPattern</text>
</a>
</g>
</g>
<!-- Node14&#45;&gt;Node17 -->
<g id="edge29_Node000014_Node000017" class="edge">
<title>Node14&#45;&gt;Node17</title>
<g id="a_edge29_Node000014_Node000017"><a xlink:title=" ">
<path fill="none" stroke="#63b8ff" d="M766.64,-425.36C787.91,-418.9 812.59,-411.45 835,-404.8 840.88,-403.06 846.98,-401.26 853.11,-399.46"/>
<polygon fill="#63b8ff" stroke="#63b8ff" points="854.05,-402.84 862.66,-396.67 852.08,-396.12 854.05,-402.84"/>
</a>
</g>
</g>
<!-- Node19&#45;&gt;Node2 -->
<g id="edge33_Node000019_Node000002" class="edge">
<title>Node19&#45;&gt;Node2</title>
<g id="a_edge33_Node000019_Node000002"><a xlink:title=" ">
<path fill="none" stroke="#63b8ff" d="M367.56,-701.05C429.77,-704.01 520.13,-700.23 588.75,-663.8 640.07,-636.56 678.5,-577.87 697.54,-543.78"/>
<polygon fill="#63b8ff" stroke="#63b8ff" points="700.4,-545.84 702.1,-535.38 694.25,-542.5 700.4,-545.84"/>
</a>
</g>
</g>
<!-- Node21&#45;&gt;Node18 -->
<g id="edge37_Node000021_Node000018" class="edge">
<title>Node21&#45;&gt;Node18</title>
<g id="a_edge37_Node000021_Node000018"><a xlink:title=" ">
<path fill="none" stroke="#63b8ff" d="M379.6,-68.09C387.52,-69.24 395.59,-70.42 403.61,-71.59"/>
<polygon fill="#63b8ff" stroke="#63b8ff" points="403,-75.04 413.41,-73.02 404.02,-68.11 403,-75.04"/>
</a>
</g>
</g>
<!-- Node21&#45;&gt;Node20 -->
<g id="edge38_Node000021_Node000020" class="edge">
<title>Node21&#45;&gt;Node20</title>
<g id="a_edge38_Node000021_Node000020"><a xlink:title=" ">
<path fill="none" stroke="#63b8ff" d="M379.6,-44.33C391.45,-42.72 403.65,-41.06 415.52,-39.44"/>
<polygon fill="#63b8ff" stroke="#63b8ff" points="415.85,-42.93 425.29,-38.11 414.91,-35.99 415.85,-42.93"/>
</a>
</g>
</g>
</g>
</svg>

<g id="navigator" transform="translate(0 0)" fill="#404254">
  <rect fill="#f2f5e9" fill-opacity="0.5" stroke="#606060" stroke-width=".5" x="0" y="0" width="60" height="60"/>
  <use id="zoomplus" xlink:href="#zoomPlus" x="17" y="9" onmousedown="handleZoom(evt,'in')"/>
  <use id="zoomminus" xlink:href="#zoomMin" x="42" y="9" onmousedown="handleZoom(evt,'out')"/>
  <use id="reset" xlink:href="#resetDef" x="30" y="36" onmousedown="handleReset()"/>
   <use id="arrowup" xlink:href="#arrowUp" x="0" y="0" onmousedown="handlePan(0,-1)"/>
  <use id="arrowright" xlink:href="#arrowRight" x="0" y="0" onmousedown="handlePan(1,0)"/>
  <use id="arrowdown" xlink:href="#arrowDown" x="0" y="0" onmousedown="handlePan(0,1)"/>
  <use id="arrowleft" xlink:href="#arrowLeft" x="0" y="0" onmousedown="handlePan(-1,0)"/>
</g>
<svg viewBox="0 0 15 15" width="100%" height="30px" preserveAspectRatio="xMaxYMin meet">
 <g id="arrow_out" transform="scale(0.3 0.3)">
  <a xlink:href="classfr_1_1softsf_1_1canscan_1_1_can_scan_a0f6d45dd57c73833a7d5c968541914ae_cgraph_org.svg" target="_base">
   <rect id="button" ry="5" rx="5" y="6" x="6" height="38" width="38"
        fill="#f2f5e9" fill-opacity="0.5" stroke="#606060" stroke-width="1.0"/>
   <path id="arrow"
     d="M 11.500037,31.436501 C 11.940474,20.09759 22.043105,11.32322 32.158766,21.979434 L 37.068811,17.246167 C 37.068811,17.246167 37.088388,32 37.088388,32 L 22.160133,31.978069 C 22.160133,31.978069 26.997745,27.140456 26.997745,27.140456 C 18.528582,18.264221 13.291696,25.230495 11.500037,31.436501 z"
     style="fill:#404040;"/>
  </a>
 </g>
</svg>

<style type='text/css'>
<![CDATA[
[data-mouse-over-selected='false'] { opacity: 0.7; }
[data-mouse-over-selected='true']  { opacity: 1.0; }
]]>
</style>
<script type="application/ecmascript"><![CDATA[
document.addEventListener('DOMContentLoaded', (event) => {
  highlightEdges();
  highlightAdjacentNodes();
});
]]></script>
</svg>
