<?xml version="1.0" encoding="UTF-8" standalone="no"?>
<!DOCTYPE svg PUBLIC "-//W3C//DTD SVG 1.1//EN"
 "http://www.w3.org/Graphics/SVG/1.1/DTD/svg11.dtd">
<!-- Generated by graphviz version 12.2.1 (20241206.2353)
 -->
<!-- Title: fr.softsf.canscan.ui.QrCodeResize.createWorker Pages: 1 -->
<!--zoomable 234 -->

<svg id="main" version="1.1" xmlns="http://www.w3.org/2000/svg" xmlns:xlink="http://www.w3.org/1999/xlink" xml:space="preserve" onload="init(evt)">

<style type="text/css"><![CDATA[
.node, .edge {opacity: 0.7;}
.node.selected, .edge.selected {opacity: 1;}
.edge:hover path { stroke: red; }
.edge:hover polygon { stroke: red; fill: red; }
]]></style>

<defs>
  <circle id="rim" cx="0" cy="0" r="7"/>
  <circle id="rim2" cx="0" cy="0" r="3.5"/>
  <g id="zoomPlus">
    <use xlink:href="#rim" fill="#404040"><set attributeName="fill" to="#808080" begin="zoomplus.mouseover" end="zoomplus.mouseout"/></use>
    <path d="M-4,0h8M0,-4v8" fill="none" stroke="white" stroke-width="1.5" pointer-events="none"/>
  </g>
  <g id="zoomMin">
    <use xlink:href="#rim" fill="#404040"><set attributeName="fill" to="#808080" begin="zoomminus.mouseover" end="zoomminus.mouseout"/></use>
    <path d="M-4,0h8" fill="none" stroke="white" stroke-width="1.5" pointer-events="none"/>
  </g>
  <g id="arrowUp" transform="translate(30 24)">
    <use xlink:href="#rim"/>
    <path pointer-events="none" fill="none" stroke="white" stroke-width="1.5" d="M0,-3.0v7 M-2.5,-0.5L0,-3.0L2.5,-0.5"/>
  </g>
  <g id="arrowRight" transform="rotate(90) translate(36 -43)">
    <use xlink:href="#rim"/>
    <path pointer-events="none" fill="none" stroke="white" stroke-width="1.5" d="M0,-3.0v7 M-2.5,-0.5L0,-3.0L2.5,-0.5"/>
  </g>
  <g id="arrowDown" transform="rotate(180) translate(-30 -48)">
    <use xlink:href="#rim"/>
    <path pointer-events="none" fill="none" stroke="white" stroke-width="1.5" d="M0,-3.0v7 M-2.5,-0.5L0,-3.0L2.5,-0.5"/>
  </g>
  <g id="arrowLeft" transform="rotate(270) translate(-36 17)">
    <use xlink:href="#rim"/>
    <path pointer-events="none" fill="none" stroke="white" stroke-width="1.5" d="M0,-3.0v7 M-2.5,-0.5L0,-3.0L2.5,-0.5"/>
  </g>
  <g id="resetDef">
    <use xlink:href="#rim2" fill="#404040"><set attributeName="fill" to="#808080" begin="reset.mouseover" end="reset.mouseout"/></use>
  </g>
</defs>
<script type="application/ecmascript">
var viewWidth = 824;
var viewHeight = 234;
var sectionId = 'dynsection-2';
</script>
<script type="application/ecmascript" xlink:href="svg.min.js"/>
<svg id="graph" class="graph">
<g id="viewport">
<title>fr.softsf.canscan.ui.QrCodeResize.createWorker</title>
<!-- Node1 -->
<g id="Node000001" class="node">
<title>Node1</title>
<g id="a_Node000001"><a xlink:title="Creates a background SwingWorker that scales the QR code image to the target size.">
<polygon fill="#999999" stroke="#666666" points="136.75,-76 0,-76 0,-44 136.75,-44 136.75,-76"/>
<text text-anchor="start" x="8" y="-62.5" font-family="Helvetica,sans-Serif" font-size="10.00">fr.softsf.canscan.ui.QrCode</text>
<text text-anchor="middle" x="68.38" y="-50.5" font-family="Helvetica,sans-Serif" font-size="10.00">Resize.createWorker</text>
</a>
</g>
</g>
<!-- Node2 -->
<g id="Node000002" class="node">
<title>Node2</title>
<g id="a_Node000002"><a xlink:href="classfr_1_1softsf_1_1canscan_1_1service_1_1_abstract_qr_code_worker.html#ace733ca9c4cf397695cc148a3a458253" target="_top" xlink:title="Called when the worker fails or is cancelled.">
<polygon fill="white" stroke="#666666" points="363.5,-123 172.75,-123 172.75,-91 363.5,-91 363.5,-123"/>
<text text-anchor="start" x="180.75" y="-109.5" font-family="Helvetica,sans-Serif" font-size="10.00">fr.softsf.canscan.service.</text>
<text text-anchor="middle" x="268.12" y="-97.5" font-family="Helvetica,sans-Serif" font-size="10.00">AbstractQrCodeWorker.onWorkerFailure</text>
</a>
</g>
</g>
<!-- Node1&#45;&gt;Node2 -->
<g id="edge1_Node000001_Node000002" class="edge">
<title>Node1&#45;&gt;Node2</title>
<g id="a_edge1_Node000001_Node000002"><a xlink:title=" ">
<path fill="none" stroke="#63b8ff" d="M137.15,-76.11C153.2,-79.92 170.47,-84.03 187.01,-87.96"/>
<polygon fill="#63b8ff" stroke="#63b8ff" points="185.74,-91.26 196.28,-90.16 187.36,-84.45 185.74,-91.26"/>
</a>
</g>
</g>
<!-- Node7 -->
<g id="Node000007" class="node">
<title>Node7</title>
<g id="a_Node000007"><a xlink:href="classfr_1_1softsf_1_1canscan_1_1service_1_1_abstract_qr_code_worker.html#a3ecd1b3ddd1dbf2c2a1e9487ae4bfd59" target="_top" xlink:title="Stops the loader&#39;s wait indicator if assigned.">
<polygon fill="white" stroke="#666666" points="796.38,-76 628.12,-76 628.12,-32 796.38,-32 796.38,-76"/>
<text text-anchor="start" x="636.12" y="-62.5" font-family="Helvetica,sans-Serif" font-size="10.00">fr.softsf.canscan.service.</text>
<text text-anchor="start" x="636.12" y="-50.5" font-family="Helvetica,sans-Serif" font-size="10.00">AbstractQrCodeWorker.stopLoader</text>
<text text-anchor="middle" x="712.25" y="-38.5" font-family="Helvetica,sans-Serif" font-size="10.00">IfPresent</text>
</a>
</g>
</g>
<!-- Node1&#45;&gt;Node7 -->
<g id="edge8_Node000001_Node000007" class="edge">
<title>Node1&#45;&gt;Node7</title>
<g id="a_edge8_Node000001_Node000007"><a xlink:title=" ">
<path fill="none" stroke="#63b8ff" d="M137.16,-59.37C252.08,-58.29 485.41,-56.11 616.46,-54.89"/>
<polygon fill="#63b8ff" stroke="#63b8ff" points="616.17,-58.39 626.14,-54.8 616.11,-51.39 616.17,-58.39"/>
</a>
</g>
</g>
<!-- Node8 -->
<g id="Node000008" class="node">
<title>Node8</title>
<g id="a_Node000008"><a xlink:href="classfr_1_1softsf_1_1canscan_1_1ui_1_1_qr_code_resize.html#a76b20cd869fedbc49a4e1491f14cc91d" target="_top" xlink:title="Updates the label icon when the worker successfully completes.">
<polygon fill="white" stroke="#666666" points="336.5,-32 199.75,-32 199.75,0 336.5,0 336.5,-32"/>
<text text-anchor="start" x="207.75" y="-18.5" font-family="Helvetica,sans-Serif" font-size="10.00">fr.softsf.canscan.ui.QrCode</text>
<text text-anchor="middle" x="268.12" y="-6.5" font-family="Helvetica,sans-Serif" font-size="10.00">Resize.onWorkerSuccess</text>
</a>
</g>
</g>
<!-- Node1&#45;&gt;Node8 -->
<g id="edge7_Node000001_Node000008" class="edge">
<title>Node1&#45;&gt;Node8</title>
<g id="a_edge7_Node000001_Node000008"><a xlink:title=" ">
<path fill="none" stroke="#63b8ff" d="M137.15,-44.92C153.66,-41.25 171.46,-37.29 188.43,-33.51"/>
<polygon fill="#63b8ff" stroke="#63b8ff" points="188.96,-36.98 197.96,-31.39 187.44,-30.15 188.96,-36.98"/>
</a>
</g>
</g>
<!-- Node3 -->
<g id="Node000003" class="node">
<title>Node3</title>
<g id="a_Node000003"><a xlink:href="classfr_1_1softsf_1_1canscan_1_1service_1_1_abstract_qr_code_worker.html#ad2923dae15a1315f89f6df73d846e87d" target="_top" xlink:title="Resets the current worker and associated resources.">
<polygon fill="white" stroke="#666666" points="572.25,-126 399.5,-126 399.5,-94 572.25,-94 572.25,-126"/>
<text text-anchor="start" x="407.5" y="-112.5" font-family="Helvetica,sans-Serif" font-size="10.00">fr.softsf.canscan.service.</text>
<text text-anchor="middle" x="485.88" y="-100.5" font-family="Helvetica,sans-Serif" font-size="10.00">AbstractQrCodeWorker.resetWorker</text>
</a>
</g>
</g>
<!-- Node2&#45;&gt;Node3 -->
<g id="edge2_Node000002_Node000003" class="edge">
<title>Node2&#45;&gt;Node3</title>
<g id="a_edge2_Node000002_Node000003"><a xlink:title=" ">
<path fill="none" stroke="#63b8ff" d="M363.76,-108.32C371.76,-108.43 379.86,-108.54 387.88,-108.65"/>
<polygon fill="#63b8ff" stroke="#63b8ff" points="387.59,-112.15 397.64,-108.79 387.69,-105.15 387.59,-112.15"/>
</a>
</g>
</g>
<!-- Node4 -->
<g id="Node000004" class="node">
<title>Node4</title>
<g id="a_Node000004"><a xlink:href="classfr_1_1softsf_1_1canscan_1_1service_1_1_abstract_qr_code_worker.html#af307a6f804bca23190b6408780c380d0" target="_top" xlink:title="Cancels the current SwingWorker and clears its reference safely.">
<polygon fill="white" stroke="#666666" points="802,-226 622.5,-226 622.5,-194 802,-194 802,-226"/>
<text text-anchor="start" x="630.5" y="-212.5" font-family="Helvetica,sans-Serif" font-size="10.00">fr.softsf.canscan.service.</text>
<text text-anchor="middle" x="712.25" y="-200.5" font-family="Helvetica,sans-Serif" font-size="10.00">AbstractQrCodeWorker.cancelWorker</text>
</a>
</g>
</g>
<!-- Node3&#45;&gt;Node4 -->
<g id="edge3_Node000003_Node000004" class="edge">
<title>Node3&#45;&gt;Node4</title>
<g id="a_edge3_Node000003_Node000004"><a xlink:title=" ">
<path fill="none" stroke="#63b8ff" d="M508.54,-126.34C531.98,-143.28 571,-169.43 608.25,-185 612.55,-186.8 617,-188.48 621.54,-190.06"/>
<polygon fill="#63b8ff" stroke="#63b8ff" points="620.22,-193.31 630.81,-193.08 622.39,-186.65 620.22,-193.31"/>
</a>
</g>
</g>
<!-- Node5 -->
<g id="Node000005" class="node">
<title>Node5</title>
<g id="a_Node000005"><a xlink:href="classfr_1_1softsf_1_1canscan_1_1service_1_1_abstract_qr_code_worker.html#a63c4787bd3dbba55917dde56aa4ef5bc" target="_top" xlink:title="Clears any allocated data, icons, or buffers before starting a new task.">
<polygon fill="white" stroke="#666666" points="806.5,-176 618,-176 618,-144 806.5,-144 806.5,-176"/>
<text text-anchor="start" x="626" y="-162.5" font-family="Helvetica,sans-Serif" font-size="10.00">fr.softsf.canscan.service.</text>
<text text-anchor="middle" x="712.25" y="-150.5" font-family="Helvetica,sans-Serif" font-size="10.00">AbstractQrCodeWorker.clearResources</text>
</a>
</g>
</g>
<!-- Node3&#45;&gt;Node5 -->
<g id="edge4_Node000003_Node000005" class="edge">
<title>Node3&#45;&gt;Node5</title>
<g id="a_edge4_Node000003_Node000005"><a xlink:title=" ">
<path fill="none" stroke="#63b8ff" d="M560.65,-126.44C581.65,-131.12 604.68,-136.25 626.28,-141.07"/>
<polygon fill="#63b8ff" stroke="#63b8ff" points="625.43,-144.46 635.95,-143.22 626.95,-137.63 625.43,-144.46"/>
</a>
</g>
</g>
<!-- Node6 -->
<g id="Node000006" class="node">
<title>Node6</title>
<g id="a_Node000006"><a xlink:href="classfr_1_1softsf_1_1canscan_1_1service_1_1_abstract_qr_code_worker.html#ab11bed09d0e3e1f74e1fb72fdeec8245" target="_top" xlink:title="Stops and clears the debounce timer.">
<polygon fill="white" stroke="#666666" points="816.25,-126 608.25,-126 608.25,-94 816.25,-94 816.25,-126"/>
<text text-anchor="start" x="616.25" y="-112.5" font-family="Helvetica,sans-Serif" font-size="10.00">fr.softsf.canscan.service.</text>
<text text-anchor="middle" x="712.25" y="-100.5" font-family="Helvetica,sans-Serif" font-size="10.00">AbstractQrCodeWorker.stopDebounceTimer</text>
</a>
</g>
</g>
<!-- Node3&#45;&gt;Node6 -->
<g id="edge5_Node000003_Node000006" class="edge">
<title>Node3&#45;&gt;Node6</title>
<g id="a_edge5_Node000003_Node000006"><a xlink:title=" ">
<path fill="none" stroke="#63b8ff" d="M572.66,-110C580.48,-110 588.48,-110 596.5,-110"/>
<polygon fill="#63b8ff" stroke="#63b8ff" points="596.32,-113.5 606.32,-110 596.32,-106.5 596.32,-113.5"/>
</a>
</g>
</g>
<!-- Node3&#45;&gt;Node7 -->
<g id="edge6_Node000003_Node000007" class="edge">
<title>Node3&#45;&gt;Node7</title>
<g id="a_edge6_Node000003_Node000007"><a xlink:title=" ">
<path fill="none" stroke="#63b8ff" d="M552.98,-93.5C572.91,-88.53 595.18,-82.97 616.58,-77.63"/>
<polygon fill="#63b8ff" stroke="#63b8ff" points="617.35,-81.04 626.2,-75.23 615.65,-74.25 617.35,-81.04"/>
</a>
</g>
</g>
</g>
</svg>

<g id="navigator" transform="translate(0 0)" fill="#404254">
  <rect fill="#f2f5e9" fill-opacity="0.5" stroke="#606060" stroke-width=".5" x="0" y="0" width="60" height="60"/>
  <use id="zoomplus" xlink:href="#zoomPlus" x="17" y="9" onmousedown="handleZoom(evt,'in')"/>
  <use id="zoomminus" xlink:href="#zoomMin" x="42" y="9" onmousedown="handleZoom(evt,'out')"/>
  <use id="reset" xlink:href="#resetDef" x="30" y="36" onmousedown="handleReset()"/>
   <use id="arrowup" xlink:href="#arrowUp" x="0" y="0" onmousedown="handlePan(0,-1)"/>
  <use id="arrowright" xlink:href="#arrowRight" x="0" y="0" onmousedown="handlePan(1,0)"/>
  <use id="arrowdown" xlink:href="#arrowDown" x="0" y="0" onmousedown="handlePan(0,1)"/>
  <use id="arrowleft" xlink:href="#arrowLeft" x="0" y="0" onmousedown="handlePan(-1,0)"/>
</g>
<svg viewBox="0 0 15 15" width="100%" height="30px" preserveAspectRatio="xMaxYMin meet">
 <g id="arrow_out" transform="scale(0.3 0.3)">
  <a xlink:href="classfr_1_1softsf_1_1canscan_1_1ui_1_1_qr_code_resize_a1c485f4bdbb739c841b3dee0640ac2aa_cgraph_org.svg" target="_base">
   <rect id="button" ry="5" rx="5" y="6" x="6" height="38" width="38"
        fill="#f2f5e9" fill-opacity="0.5" stroke="#606060" stroke-width="1.0"/>
   <path id="arrow"
     d="M 11.500037,31.436501 C 11.940474,20.09759 22.043105,11.32322 32.158766,21.979434 L 37.068811,17.246167 C 37.068811,17.246167 37.088388,32 37.088388,32 L 22.160133,31.978069 C 22.160133,31.978069 26.997745,27.140456 26.997745,27.140456 C 18.528582,18.264221 13.291696,25.230495 11.500037,31.436501 z"
     style="fill:#404040;"/>
  </a>
 </g>
</svg>

<style type='text/css'>
<![CDATA[
[data-mouse-over-selected='false'] { opacity: 0.7; }
[data-mouse-over-selected='true']  { opacity: 1.0; }
]]>
</style>
<script type="application/ecmascript"><![CDATA[
document.addEventListener('DOMContentLoaded', (event) => {
  highlightEdges();
  highlightAdjacentNodes();
});
]]></script>
</svg>
