<?xml version="1.0" encoding="UTF-8" standalone="no"?>
<!DOCTYPE svg PUBLIC "-//W3C//DTD SVG 1.1//EN"
 "http://www.w3.org/Graphics/SVG/1.1/DTD/svg11.dtd">
<!-- Generated by graphviz version 12.2.1 (20241206.2353)
 -->
<!-- Title: fr.softsf.canscan.ui.QrCodeResize.updateQrCodeSize Pages: 1 -->
<!--zoomable 190 -->

<svg id="main" version="1.1" xmlns="http://www.w3.org/2000/svg" xmlns:xlink="http://www.w3.org/1999/xlink" xml:space="preserve" onload="init(evt)">

<style type="text/css"><![CDATA[
.node, .edge {opacity: 0.7;}
.node.selected, .edge.selected {opacity: 1;}
.edge:hover path { stroke: red; }
.edge:hover polygon { stroke: red; fill: red; }
]]></style>

<defs>
  <circle id="rim" cx="0" cy="0" r="7"/>
  <circle id="rim2" cx="0" cy="0" r="3.5"/>
  <g id="zoomPlus">
    <use xlink:href="#rim" fill="#404040"><set attributeName="fill" to="#808080" begin="zoomplus.mouseover" end="zoomplus.mouseout"/></use>
    <path d="M-4,0h8M0,-4v8" fill="none" stroke="white" stroke-width="1.5" pointer-events="none"/>
  </g>
  <g id="zoomMin">
    <use xlink:href="#rim" fill="#404040"><set attributeName="fill" to="#808080" begin="zoomminus.mouseover" end="zoomminus.mouseout"/></use>
    <path d="M-4,0h8" fill="none" stroke="white" stroke-width="1.5" pointer-events="none"/>
  </g>
  <g id="arrowUp" transform="translate(30 24)">
    <use xlink:href="#rim"/>
    <path pointer-events="none" fill="none" stroke="white" stroke-width="1.5" d="M0,-3.0v7 M-2.5,-0.5L0,-3.0L2.5,-0.5"/>
  </g>
  <g id="arrowRight" transform="rotate(90) translate(36 -43)">
    <use xlink:href="#rim"/>
    <path pointer-events="none" fill="none" stroke="white" stroke-width="1.5" d="M0,-3.0v7 M-2.5,-0.5L0,-3.0L2.5,-0.5"/>
  </g>
  <g id="arrowDown" transform="rotate(180) translate(-30 -48)">
    <use xlink:href="#rim"/>
    <path pointer-events="none" fill="none" stroke="white" stroke-width="1.5" d="M0,-3.0v7 M-2.5,-0.5L0,-3.0L2.5,-0.5"/>
  </g>
  <g id="arrowLeft" transform="rotate(270) translate(-36 17)">
    <use xlink:href="#rim"/>
    <path pointer-events="none" fill="none" stroke="white" stroke-width="1.5" d="M0,-3.0v7 M-2.5,-0.5L0,-3.0L2.5,-0.5"/>
  </g>
  <g id="resetDef">
    <use xlink:href="#rim2" fill="#404040"><set attributeName="fill" to="#808080" begin="reset.mouseover" end="reset.mouseout"/></use>
  </g>
</defs>
<script type="application/ecmascript">
var viewWidth = 1180;
var viewHeight = 190;
var sectionId = 'dynsection-5';
</script>
<script type="application/ecmascript" xlink:href="svg.min.js"/>
<svg id="graph" class="graph">
<g id="viewport">
<title>fr.softsf.canscan.ui.QrCodeResize.updateQrCodeSize</title>
<!-- Node1 -->
<g id="Node000001" class="node">
<title>Node1</title>
<g id="a_Node000001"><a xlink:title="Updates internal QrInput and schedules a debounced QR code resize.">
<polygon fill="#999999" stroke="#666666" points="136.75,-107 0,-107 0,-75 136.75,-75 136.75,-107"/>
<text text-anchor="start" x="8" y="-93.5" font-family="Helvetica,sans-Serif" font-size="10.00">fr.softsf.canscan.ui.QrCode</text>
<text text-anchor="middle" x="68.38" y="-81.5" font-family="Helvetica,sans-Serif" font-size="10.00">Resize.updateQrCodeSize</text>
</a>
</g>
</g>
<!-- Node2 -->
<g id="Node000002" class="node">
<title>Node2</title>
<g id="a_Node000002"><a xlink:href="classfr_1_1softsf_1_1canscan_1_1ui_1_1_qr_code_resize.html#a9ac7f346c52f752140984fa7a635336c" target="_top" xlink:title="Returns the current debounce timer.">
<polygon fill="white" stroke="#666666" points="343.62,-182 180.62,-182 180.62,-150 343.62,-150 343.62,-182"/>
<text text-anchor="start" x="188.62" y="-168.5" font-family="Helvetica,sans-Serif" font-size="10.00">fr.softsf.canscan.ui.QrCode</text>
<text text-anchor="middle" x="262.12" y="-156.5" font-family="Helvetica,sans-Serif" font-size="10.00">Resize.getResizeDebounceTimer</text>
</a>
</g>
</g>
<!-- Node1&#45;&gt;Node2 -->
<g id="edge1_Node000001_Node000002" class="edge">
<title>Node1&#45;&gt;Node2</title>
<g id="a_edge1_Node000001_Node000002"><a xlink:title=" ">
<path fill="none" stroke="#63b8ff" d="M99.52,-107.31C119.81,-117.86 147.4,-131.37 172.75,-141 177.4,-142.77 182.24,-144.48 187.13,-146.11"/>
<polygon fill="#63b8ff" stroke="#63b8ff" points="185.89,-149.39 196.48,-149.12 188.03,-142.73 185.89,-149.39"/>
</a>
</g>
</g>
<!-- Node3 -->
<g id="Node000003" class="node">
<title>Node3</title>
<g id="a_Node000003"><a xlink:href="classfr_1_1softsf_1_1canscan_1_1ui_1_1_qr_code_resize.html#a9962c344acd3a8046dff04e6da82aa07" target="_top" xlink:title="Handles the QR code resize process after the debounce delay.">
<polygon fill="white" stroke="#666666" points="330.5,-132 193.75,-132 193.75,-100 330.5,-100 330.5,-132"/>
<text text-anchor="start" x="201.75" y="-118.5" font-family="Helvetica,sans-Serif" font-size="10.00">fr.softsf.canscan.ui.QrCode</text>
<text text-anchor="middle" x="262.12" y="-106.5" font-family="Helvetica,sans-Serif" font-size="10.00">Resize.handleResize</text>
</a>
</g>
</g>
<!-- Node1&#45;&gt;Node3 -->
<g id="edge2_Node000001_Node000003" class="edge">
<title>Node1&#45;&gt;Node3</title>
<g id="a_edge2_Node000001_Node000003"><a xlink:title=" ">
<path fill="none" stroke="#63b8ff" d="M137.25,-99.85C151.76,-101.74 167.2,-103.75 182.09,-105.7"/>
<polygon fill="#63b8ff" stroke="#63b8ff" points="181.47,-109.14 191.84,-106.97 182.38,-102.2 181.47,-109.14"/>
</a>
</g>
</g>
<!-- Node11 -->
<g id="Node000011" class="node">
<title>Node11</title>
<g id="a_Node000011"><a xlink:href="classfr_1_1softsf_1_1canscan_1_1ui_1_1_qr_code_resize.html#a43bcfdd826cb50331a01ba51bce05ed2" target="_top" xlink:title="Checks if a resize debounce timer is currently running.">
<polygon fill="white" stroke="#666666" points="330.5,-82 193.75,-82 193.75,-50 330.5,-50 330.5,-82"/>
<text text-anchor="start" x="201.75" y="-68.5" font-family="Helvetica,sans-Serif" font-size="10.00">fr.softsf.canscan.ui.QrCode</text>
<text text-anchor="middle" x="262.12" y="-56.5" font-family="Helvetica,sans-Serif" font-size="10.00">Resize.isRunning</text>
</a>
</g>
</g>
<!-- Node1&#45;&gt;Node11 -->
<g id="edge10_Node000001_Node000011" class="edge">
<title>Node1&#45;&gt;Node11</title>
<g id="a_edge10_Node000001_Node000011"><a xlink:title=" ">
<path fill="none" stroke="#63b8ff" d="M137.25,-82.15C151.76,-80.26 167.2,-78.25 182.09,-76.3"/>
<polygon fill="#63b8ff" stroke="#63b8ff" points="182.38,-79.8 191.84,-75.03 181.47,-72.86 182.38,-79.8"/>
</a>
</g>
</g>
<!-- Node12 -->
<g id="Node000012" class="node">
<title>Node12</title>
<g id="a_Node000012"><a xlink:href="classfr_1_1softsf_1_1canscan_1_1ui_1_1_qr_code_resize.html#aed47fcf709f5f89a80357729b2878fe7" target="_top" xlink:title="Updates the debounce timer with a new instance.">
<polygon fill="white" stroke="#666666" points="351.5,-32 172.75,-32 172.75,0 351.5,0 351.5,-32"/>
<text text-anchor="start" x="180.75" y="-18.5" font-family="Helvetica,sans-Serif" font-size="10.00">fr.softsf.canscan.ui.QrCode</text>
<text text-anchor="middle" x="262.12" y="-6.5" font-family="Helvetica,sans-Serif" font-size="10.00">Resize.updateResizeDebounceTimer</text>
</a>
</g>
</g>
<!-- Node1&#45;&gt;Node12 -->
<g id="edge11_Node000001_Node000012" class="edge">
<title>Node1&#45;&gt;Node12</title>
<g id="a_edge11_Node000001_Node000012"><a xlink:title=" ">
<path fill="none" stroke="#63b8ff" d="M99.52,-74.69C119.81,-64.14 147.4,-50.63 172.75,-41 177.4,-39.23 182.24,-37.52 187.13,-35.89"/>
<polygon fill="#63b8ff" stroke="#63b8ff" points="188.03,-39.27 196.48,-32.88 185.89,-32.61 188.03,-39.27"/>
</a>
</g>
</g>
<!-- Node4 -->
<g id="Node000004" class="node">
<title>Node4</title>
<g id="a_Node000004"><a xlink:href="classfr_1_1softsf_1_1canscan_1_1ui_1_1_qr_code_resize.html#aa7bb188a82b4cd677a39d8b09dcd4ee4" target="_top" xlink:title="Checks whether QrDataResult is invalid or null, and performs cleanup if necessary.">
<polygon fill="white" stroke="#666666" points="541.5,-157 404.75,-157 404.75,-125 541.5,-125 541.5,-157"/>
<text text-anchor="start" x="412.75" y="-143.5" font-family="Helvetica,sans-Serif" font-size="10.00">fr.softsf.canscan.ui.QrCode</text>
<text text-anchor="middle" x="473.12" y="-131.5" font-family="Helvetica,sans-Serif" font-size="10.00">Resize.isInvalidQrData</text>
</a>
</g>
</g>
<!-- Node3&#45;&gt;Node4 -->
<g id="edge3_Node000003_Node000004" class="edge">
<title>Node3&#45;&gt;Node4</title>
<g id="a_edge3_Node000003_Node000004"><a xlink:title=" ">
<path fill="none" stroke="#63b8ff" d="M330.98,-124.12C350.79,-126.49 372.62,-129.1 393.06,-131.54"/>
<polygon fill="#63b8ff" stroke="#63b8ff" points="392.4,-134.99 402.75,-132.7 393.24,-128.04 392.4,-134.99"/>
</a>
</g>
</g>
<!-- Node5 -->
<g id="Node000005" class="node">
<title>Node5</title>
<g id="a_Node000005"><a xlink:href="classfr_1_1softsf_1_1canscan_1_1ui_1_1_qr_code_resize.html#a1093d8b446a9a20cb0d3a8275283a345" target="_top" xlink:title="Cancels any pending task, clears the current icon, starts the wait animation, and launches a new resi...">
<polygon fill="white" stroke="#666666" points="558.75,-107 387.5,-107 387.5,-75 558.75,-75 558.75,-107"/>
<text text-anchor="start" x="395.5" y="-93.5" font-family="Helvetica,sans-Serif" font-size="10.00">fr.softsf.canscan.ui.QrCode</text>
<text text-anchor="middle" x="473.12" y="-81.5" font-family="Helvetica,sans-Serif" font-size="10.00">Resize.resetAndStartResizeWorker</text>
</a>
</g>
</g>
<!-- Node3&#45;&gt;Node5 -->
<g id="edge4_Node000003_Node000005" class="edge">
<title>Node3&#45;&gt;Node5</title>
<g id="a_edge4_Node000003_Node000005"><a xlink:title=" ">
<path fill="none" stroke="#63b8ff" d="M330.98,-107.88C345.37,-106.16 360.82,-104.31 376.03,-102.5"/>
<polygon fill="#63b8ff" stroke="#63b8ff" points="376.02,-106.02 385.54,-101.36 375.19,-99.07 376.02,-106.02"/>
</a>
</g>
</g>
<!-- Node6 -->
<g id="Node000006" class="node">
<title>Node6</title>
<g id="a_Node000006"><a xlink:href="classfr_1_1softsf_1_1canscan_1_1ui_1_1_qr_code_resize.html#a8d6601bb69287724be51e8ffac0fc369" target="_top" xlink:title="Cancels any active resize worker and waits for proper termination.">
<polygon fill="white" stroke="#666666" points="772.75,-132 594.75,-132 594.75,-100 772.75,-100 772.75,-132"/>
<text text-anchor="start" x="602.75" y="-118.5" font-family="Helvetica,sans-Serif" font-size="10.00">fr.softsf.canscan.ui.QrCode</text>
<text text-anchor="middle" x="683.75" y="-106.5" font-family="Helvetica,sans-Serif" font-size="10.00">Resize.cancelPreviousResizeWorker</text>
</a>
</g>
</g>
<!-- Node5&#45;&gt;Node6 -->
<g id="edge5_Node000005_Node000006" class="edge">
<title>Node5&#45;&gt;Node6</title>
<g id="a_edge5_Node000005_Node000006"><a xlink:title=" ">
<path fill="none" stroke="#63b8ff" d="M558.98,-101.17C566.96,-102.12 575.09,-103.1 583.18,-104.07"/>
<polygon fill="#63b8ff" stroke="#63b8ff" points="582.73,-107.54 593.07,-105.25 583.56,-100.59 582.73,-107.54"/>
</a>
</g>
</g>
<!-- Node7 -->
<g id="Node000007" class="node">
<title>Node7</title>
<g id="a_Node000007"><a xlink:href="classfr_1_1softsf_1_1canscan_1_1ui_1_1_qr_code_resize.html#aadf6afa51d8b8667ff70777b0202d4af" target="_top" xlink:title="Launches a background worker that resizes the QR code image to the specified height.">
<polygon fill="white" stroke="#666666" points="753.62,-82 613.88,-82 613.88,-50 753.62,-50 753.62,-82"/>
<text text-anchor="start" x="621.88" y="-68.5" font-family="Helvetica,sans-Serif" font-size="10.00">fr.softsf.canscan.ui.QrCode</text>
<text text-anchor="middle" x="683.75" y="-56.5" font-family="Helvetica,sans-Serif" font-size="10.00">Resize.launchResizeWorker</text>
</a>
</g>
</g>
<!-- Node5&#45;&gt;Node7 -->
<g id="edge6_Node000005_Node000007" class="edge">
<title>Node5&#45;&gt;Node7</title>
<g id="a_edge6_Node000005_Node000007"><a xlink:title=" ">
<path fill="none" stroke="#63b8ff" d="M558.98,-80.83C573.31,-79.11 588.15,-77.34 602.36,-75.63"/>
<polygon fill="#63b8ff" stroke="#63b8ff" points="602.59,-79.13 612.1,-74.47 601.76,-72.18 602.59,-79.13"/>
</a>
</g>
</g>
<!-- Node8 -->
<g id="Node000008" class="node">
<title>Node8</title>
<g id="a_Node000008"><a xlink:href="classfr_1_1softsf_1_1canscan_1_1ui_1_1_qr_code_resize.html#a2141e795770aa1577397e33f990d356c" target="_top" xlink:title="Creates a SwingWorker to perform image resizing off the EDT and update the UI when the task completes...">
<polygon fill="white" stroke="#666666" points="947,-82 808.75,-82 808.75,-50 947,-50 947,-82"/>
<text text-anchor="start" x="816.75" y="-68.5" font-family="Helvetica,sans-Serif" font-size="10.00">fr.softsf.canscan.ui.QrCode</text>
<text text-anchor="middle" x="877.88" y="-56.5" font-family="Helvetica,sans-Serif" font-size="10.00">Resize.createResizeWorker</text>
</a>
</g>
</g>
<!-- Node7&#45;&gt;Node8 -->
<g id="edge7_Node000007_Node000008" class="edge">
<title>Node7&#45;&gt;Node8</title>
<g id="a_edge7_Node000007_Node000008"><a xlink:title=" ">
<path fill="none" stroke="#63b8ff" d="M754.11,-66C768.02,-66 782.74,-66 796.97,-66"/>
<polygon fill="#63b8ff" stroke="#63b8ff" points="796.75,-69.5 806.75,-66 796.75,-62.5 796.75,-69.5"/>
</a>
</g>
</g>
<!-- Node9 -->
<g id="Node000009" class="node">
<title>Node9</title>
<g id="a_Node000009"><a xlink:href="classfr_1_1softsf_1_1canscan_1_1ui_1_1_qr_code_resize.html#affac6f7db21e00ef84b3d804823c6b51" target="_top" xlink:title="Handles resize worker completion, ensuring that cancellation and stale worker checks are performed be...">
<polygon fill="white" stroke="#666666" points="1172.25,-107 983,-107 983,-75 1172.25,-75 1172.25,-107"/>
<text text-anchor="start" x="991" y="-93.5" font-family="Helvetica,sans-Serif" font-size="10.00">fr.softsf.canscan.ui.QrCode</text>
<text text-anchor="middle" x="1077.62" y="-81.5" font-family="Helvetica,sans-Serif" font-size="10.00">Resize.handleResizeWorkerCompletion</text>
</a>
</g>
</g>
<!-- Node8&#45;&gt;Node9 -->
<g id="edge8_Node000008_Node000009" class="edge">
<title>Node8&#45;&gt;Node9</title>
<g id="a_edge8_Node000008_Node000009"><a xlink:title=" ">
<path fill="none" stroke="#63b8ff" d="M947.48,-74.67C955.22,-75.65 963.22,-76.66 971.29,-77.68"/>
<polygon fill="#63b8ff" stroke="#63b8ff" points="970.84,-81.15 981.2,-78.94 971.72,-74.21 970.84,-81.15"/>
</a>
</g>
</g>
<!-- Node10 -->
<g id="Node000010" class="node">
<title>Node10</title>
<g id="a_Node000010"><a xlink:href="classfr_1_1softsf_1_1canscan_1_1ui_1_1_qr_code_resize.html#a9d652d45dd8f6c5a1715e7c19f27fad5" target="_top" xlink:title="Performs image resizing logic off the EDT.">
<polygon fill="white" stroke="#666666" points="1159.12,-57 996.12,-57 996.12,-25 1159.12,-25 1159.12,-57"/>
<text text-anchor="start" x="1004.12" y="-43.5" font-family="Helvetica,sans-Serif" font-size="10.00">fr.softsf.canscan.ui.QrCode</text>
<text text-anchor="middle" x="1077.62" y="-31.5" font-family="Helvetica,sans-Serif" font-size="10.00">Resize.resizeImageInBackground</text>
</a>
</g>
</g>
<!-- Node8&#45;&gt;Node10 -->
<g id="edge9_Node000008_Node000010" class="edge">
<title>Node8&#45;&gt;Node10</title>
<g id="a_edge9_Node000008_Node000010"><a xlink:title=" ">
<path fill="none" stroke="#63b8ff" d="M947.48,-57.33C959.44,-55.81 972.05,-54.22 984.52,-52.64"/>
<polygon fill="#63b8ff" stroke="#63b8ff" points="984.92,-56.12 994.4,-51.39 984.04,-49.18 984.92,-56.12"/>
</a>
</g>
</g>
</g>
</svg>

<g id="navigator" transform="translate(0 0)" fill="#404254">
  <rect fill="#f2f5e9" fill-opacity="0.5" stroke="#606060" stroke-width=".5" x="0" y="0" width="60" height="60"/>
  <use id="zoomplus" xlink:href="#zoomPlus" x="17" y="9" onmousedown="handleZoom(evt,'in')"/>
  <use id="zoomminus" xlink:href="#zoomMin" x="42" y="9" onmousedown="handleZoom(evt,'out')"/>
  <use id="reset" xlink:href="#resetDef" x="30" y="36" onmousedown="handleReset()"/>
   <use id="arrowup" xlink:href="#arrowUp" x="0" y="0" onmousedown="handlePan(0,-1)"/>
  <use id="arrowright" xlink:href="#arrowRight" x="0" y="0" onmousedown="handlePan(1,0)"/>
  <use id="arrowdown" xlink:href="#arrowDown" x="0" y="0" onmousedown="handlePan(0,1)"/>
  <use id="arrowleft" xlink:href="#arrowLeft" x="0" y="0" onmousedown="handlePan(-1,0)"/>
</g>
<svg viewBox="0 0 15 15" width="100%" height="30px" preserveAspectRatio="xMaxYMin meet">
 <g id="arrow_out" transform="scale(0.3 0.3)">
  <a xlink:href="classfr_1_1softsf_1_1canscan_1_1ui_1_1_qr_code_resize_ac168b5bcb9913de63928083f8f750d1e_cgraph_org.svg" target="_base">
   <rect id="button" ry="5" rx="5" y="6" x="6" height="38" width="38"
        fill="#f2f5e9" fill-opacity="0.5" stroke="#606060" stroke-width="1.0"/>
   <path id="arrow"
     d="M 11.500037,31.436501 C 11.940474,20.09759 22.043105,11.32322 32.158766,21.979434 L 37.068811,17.246167 C 37.068811,17.246167 37.088388,32 37.088388,32 L 22.160133,31.978069 C 22.160133,31.978069 26.997745,27.140456 26.997745,27.140456 C 18.528582,18.264221 13.291696,25.230495 11.500037,31.436501 z"
     style="fill:#404040;"/>
  </a>
 </g>
</svg>

<style type='text/css'>
<![CDATA[
[data-mouse-over-selected='false'] { opacity: 0.7; }
[data-mouse-over-selected='true']  { opacity: 1.0; }
]]>
</style>
<script type="application/ecmascript"><![CDATA[
document.addEventListener('DOMContentLoaded', (event) => {
  highlightEdges();
  highlightAdjacentNodes();
});
]]></script>
</svg>
