<?xml version="1.0" encoding="UTF-8" standalone="no"?>
<!DOCTYPE svg PUBLIC "-//W3C//DTD SVG 1.1//EN"
 "http://www.w3.org/Graphics/SVG/1.1/DTD/svg11.dtd">
<!-- Generated by graphviz version 12.2.1 (20241206.2353)
 -->
<!-- Title: fr.softsf.canscan.ui.DynamicQrCodePreview.createWorker Pages: 1 -->
<svg width="1023pt" height="282pt"
 viewBox="0.00 0.00 1023.25 282.00" xmlns="http://www.w3.org/2000/svg" xmlns:xlink="http://www.w3.org/1999/xlink">
<g id="graph0" class="graph" transform="scale(1 1) rotate(0) translate(4 278)">
<title>fr.softsf.canscan.ui.DynamicQrCodePreview.createWorker</title>
<!-- Node1 -->
<g id="Node000001" class="node">
<title>Node1</title>
<g id="a_Node000001"><a xlink:title="Creates a background SwingWorker that generates the QR code preview image.">
<polygon fill="#999999" stroke="#666666" points="145,-116 0,-116 0,-84 145,-84 145,-116"/>
<text text-anchor="start" x="8" y="-102.5" font-family="Helvetica,sans-Serif" font-size="10.00">fr.softsf.canscan.ui.Dynamic</text>
<text text-anchor="middle" x="72.5" y="-90.5" font-family="Helvetica,sans-Serif" font-size="10.00">QrCodePreview.createWorker</text>
</a>
</g>
</g>
<!-- Node2 -->
<g id="Node000002" class="node">
<title>Node2</title>
<g id="a_Node000002"><a xlink:href="classfr_1_1softsf_1_1canscan_1_1ui_1_1_dynamic_qr_code_preview.html#a21198a66d871f708a8759fb6b6e0c74b" target="_top" xlink:title="Builds and returns the QR code preview image based on the current QrInput.">
<polygon fill="white" stroke="#666666" points="359.75,-144 190,-144 190,-112 359.75,-112 359.75,-144"/>
<text text-anchor="start" x="198" y="-130.5" font-family="Helvetica,sans-Serif" font-size="10.00">fr.softsf.canscan.ui.Dynamic</text>
<text text-anchor="middle" x="274.88" y="-118.5" font-family="Helvetica,sans-Serif" font-size="10.00">QrCodePreview.buildPreviewImage</text>
</a>
</g>
</g>
<!-- Node1&#45;&gt;Node2 -->
<g id="edge1_Node000001_Node000002" class="edge">
<title>Node1&#45;&gt;Node2</title>
<g id="a_edge1_Node000001_Node000002"><a xlink:title=" ">
<path fill="none" stroke="#63b8ff" d="M145.27,-110.03C156.05,-111.54 167.31,-113.11 178.49,-114.67"/>
<polygon fill="#63b8ff" stroke="#63b8ff" points="177.74,-118.1 188.12,-116.02 178.71,-111.17 177.74,-118.1"/>
</a>
</g>
</g>
<!-- Node3 -->
<g id="Node000003" class="node">
<title>Node3</title>
<g id="a_Node000003"><a xlink:href="classfr_1_1softsf_1_1canscan_1_1service_1_1_abstract_dynamic_qr_code_worker.html#a2c43bc6e197cd5ca5fcf859a1f24c4ce" target="_top" xlink:title="Handles the completion of the current SwingWorker task.">
<polygon fill="white" stroke="#666666" points="368.75,-94 181,-94 181,-50 368.75,-50 368.75,-94"/>
<text text-anchor="start" x="189" y="-80.5" font-family="Helvetica,sans-Serif" font-size="10.00">fr.softsf.canscan.service.</text>
<text text-anchor="start" x="189" y="-68.5" font-family="Helvetica,sans-Serif" font-size="10.00">AbstractDynamicQrCodeWorker.handle</text>
<text text-anchor="middle" x="274.88" y="-56.5" font-family="Helvetica,sans-Serif" font-size="10.00">WorkerDone</text>
</a>
</g>
</g>
<!-- Node1&#45;&gt;Node3 -->
<g id="edge2_Node000001_Node000003" class="edge">
<title>Node1&#45;&gt;Node3</title>
<g id="a_edge2_Node000001_Node000003"><a xlink:title=" ">
<path fill="none" stroke="#63b8ff" d="M145.27,-89.97C153.15,-88.87 161.28,-87.73 169.45,-86.59"/>
<polygon fill="#63b8ff" stroke="#63b8ff" points="169.67,-90.1 179.09,-85.25 168.7,-83.16 169.67,-90.1"/>
</a>
</g>
</g>
<!-- Node4 -->
<g id="Node000004" class="node">
<title>Node4</title>
<g id="a_Node000004"><a xlink:href="classfr_1_1softsf_1_1canscan_1_1service_1_1_abstract_dynamic_qr_code_worker.html#a5ea567d314cb76b8c4c4abebca360bee" target="_top" xlink:title="Called when the worker fails or is cancelled.">
<polygon fill="white" stroke="#666666" points="574.5,-147 404.75,-147 404.75,-103 574.5,-103 574.5,-147"/>
<text text-anchor="start" x="412.75" y="-133.5" font-family="Helvetica,sans-Serif" font-size="10.00">fr.softsf.canscan.service.</text>
<text text-anchor="start" x="412.75" y="-121.5" font-family="Helvetica,sans-Serif" font-size="10.00">AbstractDynamicQrCodeWorker.on</text>
<text text-anchor="middle" x="489.62" y="-109.5" font-family="Helvetica,sans-Serif" font-size="10.00">WorkerFailure</text>
</a>
</g>
</g>
<!-- Node3&#45;&gt;Node4 -->
<g id="edge3_Node000003_Node000004" class="edge">
<title>Node3&#45;&gt;Node4</title>
<g id="a_edge3_Node000003_Node000004"><a xlink:title=" ">
<path fill="none" stroke="#63b8ff" d="M366.1,-94.48C375.12,-96.72 384.29,-99.01 393.36,-101.27"/>
<polygon fill="#63b8ff" stroke="#63b8ff" points="392.33,-104.62 402.88,-103.64 394.02,-97.83 392.33,-104.62"/>
</a>
</g>
</g>
<!-- Node9 -->
<g id="Node000009" class="node">
<title>Node9</title>
<g id="a_Node000009"><a xlink:href="classfr_1_1softsf_1_1canscan_1_1service_1_1_abstract_dynamic_qr_code_worker.html#a99151891dd8d4592131c224c1de25ad9" target="_top" xlink:title="Stops the loader&#39;s wait indicator.">
<polygon fill="white" stroke="#666666" points="1010.38,-88 832.38,-88 832.38,-44 1010.38,-44 1010.38,-88"/>
<text text-anchor="start" x="840.38" y="-74.5" font-family="Helvetica,sans-Serif" font-size="10.00">fr.softsf.canscan.service.</text>
<text text-anchor="start" x="840.38" y="-62.5" font-family="Helvetica,sans-Serif" font-size="10.00">AbstractDynamicQrCodeWorker.stop</text>
<text text-anchor="middle" x="921.38" y="-50.5" font-family="Helvetica,sans-Serif" font-size="10.00">Loader</text>
</a>
</g>
</g>
<!-- Node3&#45;&gt;Node9 -->
<g id="edge10_Node000003_Node000009" class="edge">
<title>Node3&#45;&gt;Node9</title>
<g id="a_edge10_Node000003_Node000009"><a xlink:title=" ">
<path fill="none" stroke="#63b8ff" d="M369.25,-71.13C489.43,-70.01 697.39,-68.08 820.6,-66.93"/>
<polygon fill="#63b8ff" stroke="#63b8ff" points="820.4,-70.43 830.37,-66.84 820.34,-63.43 820.4,-70.43"/>
</a>
</g>
</g>
<!-- Node10 -->
<g id="Node000010" class="node">
<title>Node10</title>
<g id="a_Node000010"><a xlink:href="classfr_1_1softsf_1_1canscan_1_1service_1_1_abstract_dynamic_qr_code_worker.html#a6d926dddd5758aeb10dde0d050c45a3b" target="_top" xlink:title="Called when the worker completes successfully with its result.">
<polygon fill="white" stroke="#666666" points="574.5,-44 404.75,-44 404.75,0 574.5,0 574.5,-44"/>
<text text-anchor="start" x="412.75" y="-30.5" font-family="Helvetica,sans-Serif" font-size="10.00">fr.softsf.canscan.service.</text>
<text text-anchor="start" x="412.75" y="-18.5" font-family="Helvetica,sans-Serif" font-size="10.00">AbstractDynamicQrCodeWorker.on</text>
<text text-anchor="middle" x="489.62" y="-6.5" font-family="Helvetica,sans-Serif" font-size="10.00">WorkerSuccess</text>
</a>
</g>
</g>
<!-- Node3&#45;&gt;Node10 -->
<g id="edge9_Node000003_Node000010" class="edge">
<title>Node3&#45;&gt;Node10</title>
<g id="a_edge9_Node000003_Node000010"><a xlink:title=" ">
<path fill="none" stroke="#63b8ff" d="M369.19,-50.07C377.25,-48.18 385.41,-46.26 393.48,-44.36"/>
<polygon fill="#63b8ff" stroke="#63b8ff" points="394.02,-47.83 402.95,-42.14 392.41,-41.02 394.02,-47.83"/>
</a>
</g>
</g>
<!-- Node5 -->
<g id="Node000005" class="node">
<title>Node5</title>
<g id="a_Node000005"><a xlink:href="classfr_1_1softsf_1_1canscan_1_1service_1_1_abstract_dynamic_qr_code_worker.html#ab96e38d883cf01ec5565f6391e20c9ac" target="_top" xlink:title="Resets the current worker and associated resources.">
<polygon fill="white" stroke="#666666" points="791.5,-150 610.5,-150 610.5,-106 791.5,-106 791.5,-150"/>
<text text-anchor="start" x="618.5" y="-136.5" font-family="Helvetica,sans-Serif" font-size="10.00">fr.softsf.canscan.service.</text>
<text text-anchor="start" x="618.5" y="-124.5" font-family="Helvetica,sans-Serif" font-size="10.00">AbstractDynamicQrCodeWorker.reset</text>
<text text-anchor="middle" x="701" y="-112.5" font-family="Helvetica,sans-Serif" font-size="10.00">Worker</text>
</a>
</g>
</g>
<!-- Node4&#45;&gt;Node5 -->
<g id="edge4_Node000004_Node000005" class="edge">
<title>Node4&#45;&gt;Node5</title>
<g id="a_edge4_Node000004_Node000005"><a xlink:title=" ">
<path fill="none" stroke="#63b8ff" d="M574.88,-126.21C582.76,-126.32 590.8,-126.44 598.81,-126.55"/>
<polygon fill="#63b8ff" stroke="#63b8ff" points="598.53,-130.05 608.58,-126.69 598.63,-123.05 598.53,-130.05"/>
</a>
</g>
</g>
<!-- Node6 -->
<g id="Node000006" class="node">
<title>Node6</title>
<g id="a_Node000006"><a xlink:href="classfr_1_1softsf_1_1canscan_1_1service_1_1_abstract_dynamic_qr_code_worker.html#a827422a0dbc6c5ece6981cdecccbd287" target="_top" xlink:title="Cancels the current SwingWorker and clears its reference safely.">
<polygon fill="white" stroke="#666666" points="1015.25,-274 827.5,-274 827.5,-230 1015.25,-230 1015.25,-274"/>
<text text-anchor="start" x="835.5" y="-260.5" font-family="Helvetica,sans-Serif" font-size="10.00">fr.softsf.canscan.service.</text>
<text text-anchor="start" x="835.5" y="-248.5" font-family="Helvetica,sans-Serif" font-size="10.00">AbstractDynamicQrCodeWorker.cancel</text>
<text text-anchor="middle" x="921.38" y="-236.5" font-family="Helvetica,sans-Serif" font-size="10.00">Worker</text>
</a>
</g>
</g>
<!-- Node5&#45;&gt;Node6 -->
<g id="edge5_Node000005_Node000006" class="edge">
<title>Node5&#45;&gt;Node6</title>
<g id="a_edge5_Node000005_Node000006"><a xlink:title=" ">
<path fill="none" stroke="#63b8ff" d="M726.85,-150.15C751.09,-170.82 789.73,-201.34 827.5,-221 830.16,-222.39 832.9,-223.73 835.69,-225.03"/>
<polygon fill="#63b8ff" stroke="#63b8ff" points="834.04,-228.12 844.6,-228.93 836.84,-221.71 834.04,-228.12"/>
</a>
</g>
</g>
<!-- Node7 -->
<g id="Node000007" class="node">
<title>Node7</title>
<g id="a_Node000007"><a xlink:href="classfr_1_1softsf_1_1canscan_1_1service_1_1_abstract_dynamic_qr_code_worker.html#a49e1caf8da3d33dde4b1d7e351aecd19" target="_top" xlink:title="Clears any allocated data, icons, or buffers before starting a new task.">
<polygon fill="white" stroke="#666666" points="1011.5,-212 831.25,-212 831.25,-168 1011.5,-168 1011.5,-212"/>
<text text-anchor="start" x="839.25" y="-198.5" font-family="Helvetica,sans-Serif" font-size="10.00">fr.softsf.canscan.service.</text>
<text text-anchor="start" x="839.25" y="-186.5" font-family="Helvetica,sans-Serif" font-size="10.00">AbstractDynamicQrCodeWorker.clear</text>
<text text-anchor="middle" x="921.38" y="-174.5" font-family="Helvetica,sans-Serif" font-size="10.00">Resources</text>
</a>
</g>
</g>
<!-- Node5&#45;&gt;Node7 -->
<g id="edge6_Node000005_Node000007" class="edge">
<title>Node5&#45;&gt;Node7</title>
<g id="a_edge6_Node000005_Node000007"><a xlink:title=" ">
<path fill="none" stroke="#63b8ff" d="M781.15,-150.47C797.17,-155.02 814.12,-159.83 830.48,-164.48"/>
<polygon fill="#63b8ff" stroke="#63b8ff" points="829.1,-167.72 839.68,-167.09 831.01,-160.99 829.1,-167.72"/>
</a>
</g>
</g>
<!-- Node8 -->
<g id="Node000008" class="node">
<title>Node8</title>
<g id="a_Node000008"><a xlink:href="classfr_1_1softsf_1_1canscan_1_1service_1_1_abstract_dynamic_qr_code_worker.html#a5ebccb20366b1496129ad831a399c8d0" target="_top" xlink:title="Stops and clears the debounce timer.">
<polygon fill="white" stroke="#666666" points="1010.38,-150 832.38,-150 832.38,-106 1010.38,-106 1010.38,-150"/>
<text text-anchor="start" x="840.38" y="-136.5" font-family="Helvetica,sans-Serif" font-size="10.00">fr.softsf.canscan.service.</text>
<text text-anchor="start" x="840.38" y="-124.5" font-family="Helvetica,sans-Serif" font-size="10.00">AbstractDynamicQrCodeWorker.stop</text>
<text text-anchor="middle" x="921.38" y="-112.5" font-family="Helvetica,sans-Serif" font-size="10.00">DebounceTimer</text>
</a>
</g>
</g>
<!-- Node5&#45;&gt;Node8 -->
<g id="edge7_Node000005_Node000008" class="edge">
<title>Node5&#45;&gt;Node8</title>
<g id="a_edge7_Node000005_Node000008"><a xlink:title=" ">
<path fill="none" stroke="#63b8ff" d="M791.77,-128C801.32,-128 811.08,-128 820.74,-128"/>
<polygon fill="#63b8ff" stroke="#63b8ff" points="820.5,-131.5 830.5,-128 820.5,-124.5 820.5,-131.5"/>
</a>
</g>
</g>
<!-- Node5&#45;&gt;Node9 -->
<g id="edge8_Node000005_Node000009" class="edge">
<title>Node5&#45;&gt;Node9</title>
<g id="a_edge8_Node000005_Node000009"><a xlink:title=" ">
<path fill="none" stroke="#63b8ff" d="M781.15,-105.53C797.17,-100.98 814.12,-96.17 830.48,-91.52"/>
<polygon fill="#63b8ff" stroke="#63b8ff" points="831.01,-95.01 839.68,-88.91 829.1,-88.28 831.01,-95.01"/>
</a>
</g>
</g>
</g>
</svg>
