<?xml version="1.0" encoding="UTF-8" standalone="no"?>
<!DOCTYPE svg PUBLIC "-//W3C//DTD SVG 1.1//EN"
 "http://www.w3.org/Graphics/SVG/1.1/DTD/svg11.dtd">
<!-- Generated by graphviz version 12.2.1 (20241206.2353)
 -->
<!-- Title: fr.softsf.canscan.ui.QrCodeResize.launchResizeWorker Pages: 1 -->
<svg width="547pt" height="90pt"
 viewBox="0.00 0.00 547.25 90.00" xmlns="http://www.w3.org/2000/svg" xmlns:xlink="http://www.w3.org/1999/xlink">
<g id="graph0" class="graph" transform="scale(1 1) rotate(0) translate(4 86)">
<title>fr.softsf.canscan.ui.QrCodeResize.launchResizeWorker</title>
<!-- Node1 -->
<g id="Node000001" class="node">
<title>Node1</title>
<g id="a_Node000001"><a xlink:title="Launches a background worker that resizes the QR code image to the specified height.">
<polygon fill="#999999" stroke="#666666" points="139.75,-57 0,-57 0,-25 139.75,-25 139.75,-57"/>
<text text-anchor="start" x="8" y="-43.5" font-family="Helvetica,sans-Serif" font-size="10.00">fr.softsf.canscan.ui.QrCode</text>
<text text-anchor="middle" x="69.88" y="-31.5" font-family="Helvetica,sans-Serif" font-size="10.00">Resize.launchResizeWorker</text>
</a>
</g>
</g>
<!-- Node2 -->
<g id="Node000002" class="node">
<title>Node2</title>
<g id="a_Node000002"><a xlink:href="classfr_1_1softsf_1_1canscan_1_1ui_1_1_qr_code_resize.html#a2141e795770aa1577397e33f990d356c" target="_top" xlink:title="Creates a SwingWorker to perform image resizing off the EDT and update the UI when the task completes...">
<polygon fill="white" stroke="#666666" points="314,-57 175.75,-57 175.75,-25 314,-25 314,-57"/>
<text text-anchor="start" x="183.75" y="-43.5" font-family="Helvetica,sans-Serif" font-size="10.00">fr.softsf.canscan.ui.QrCode</text>
<text text-anchor="middle" x="244.88" y="-31.5" font-family="Helvetica,sans-Serif" font-size="10.00">Resize.createResizeWorker</text>
</a>
</g>
</g>
<!-- Node1&#45;&gt;Node2 -->
<g id="edge1_Node000001_Node000002" class="edge">
<title>Node1&#45;&gt;Node2</title>
<g id="a_edge1_Node000001_Node000002"><a xlink:title=" ">
<path fill="none" stroke="#63b8ff" d="M140.24,-41C148.01,-41 155.97,-41 163.86,-41"/>
<polygon fill="#63b8ff" stroke="#63b8ff" points="163.82,-44.5 173.82,-41 163.82,-37.5 163.82,-44.5"/>
</a>
</g>
</g>
<!-- Node3 -->
<g id="Node000003" class="node">
<title>Node3</title>
<g id="a_Node000003"><a xlink:href="classfr_1_1softsf_1_1canscan_1_1ui_1_1_qr_code_resize.html#affac6f7db21e00ef84b3d804823c6b51" target="_top" xlink:title="Handles resize worker completion, ensuring that cancellation and stale worker checks are performed be...">
<polygon fill="white" stroke="#666666" points="539.25,-82 350,-82 350,-50 539.25,-50 539.25,-82"/>
<text text-anchor="start" x="358" y="-68.5" font-family="Helvetica,sans-Serif" font-size="10.00">fr.softsf.canscan.ui.QrCode</text>
<text text-anchor="middle" x="444.62" y="-56.5" font-family="Helvetica,sans-Serif" font-size="10.00">Resize.handleResizeWorkerCompletion</text>
</a>
</g>
</g>
<!-- Node2&#45;&gt;Node3 -->
<g id="edge2_Node000002_Node000003" class="edge">
<title>Node2&#45;&gt;Node3</title>
<g id="a_edge2_Node000002_Node000003"><a xlink:title=" ">
<path fill="none" stroke="#63b8ff" d="M314.48,-49.67C322.22,-50.65 330.22,-51.66 338.29,-52.68"/>
<polygon fill="#63b8ff" stroke="#63b8ff" points="337.84,-56.15 348.2,-53.94 338.72,-49.21 337.84,-56.15"/>
</a>
</g>
</g>
<!-- Node4 -->
<g id="Node000004" class="node">
<title>Node4</title>
<g id="a_Node000004"><a xlink:href="classfr_1_1softsf_1_1canscan_1_1ui_1_1_qr_code_resize.html#a9d652d45dd8f6c5a1715e7c19f27fad5" target="_top" xlink:title="Performs image resizing logic off the EDT.">
<polygon fill="white" stroke="#666666" points="526.12,-32 363.12,-32 363.12,0 526.12,0 526.12,-32"/>
<text text-anchor="start" x="371.12" y="-18.5" font-family="Helvetica,sans-Serif" font-size="10.00">fr.softsf.canscan.ui.QrCode</text>
<text text-anchor="middle" x="444.62" y="-6.5" font-family="Helvetica,sans-Serif" font-size="10.00">Resize.resizeImageInBackground</text>
</a>
</g>
</g>
<!-- Node2&#45;&gt;Node4 -->
<g id="edge3_Node000002_Node000004" class="edge">
<title>Node2&#45;&gt;Node4</title>
<g id="a_edge3_Node000002_Node000004"><a xlink:title=" ">
<path fill="none" stroke="#63b8ff" d="M314.48,-32.33C326.44,-30.81 339.05,-29.22 351.52,-27.64"/>
<polygon fill="#63b8ff" stroke="#63b8ff" points="351.92,-31.12 361.4,-26.39 351.04,-24.18 351.92,-31.12"/>
</a>
</g>
</g>
</g>
</svg>
