<?xml version="1.0" encoding="UTF-8" standalone="no"?>
<!DOCTYPE svg PUBLIC "-//W3C//DTD SVG 1.1//EN"
 "http://www.w3.org/Graphics/SVG/1.1/DTD/svg11.dtd">
<!-- Generated by graphviz version 12.2.1 (20241206.2353)
 -->
<!-- Title: fr.softsf.canscan.CanScan.generateQrCode Pages: 1 -->
<svg width="578pt" height="190pt"
 viewBox="0.00 0.00 578.00 190.00" xmlns="http://www.w3.org/2000/svg" xmlns:xlink="http://www.w3.org/1999/xlink">
<g id="graph0" class="graph" transform="scale(1 1) rotate(0) translate(4 186)">
<title>fr.softsf.canscan.CanScan.generateQrCode</title>
<!-- Node1 -->
<g id="Node000001" class="node">
<title>Node1</title>
<g id="a_Node000001"><a xlink:title="Builds the QR code data and configuration from the current input fields, then delegates the generatio...">
<polygon fill="#999999" stroke="#666666" points="173.5,-104 0,-104 0,-72 173.5,-72 173.5,-104"/>
<text text-anchor="start" x="8" y="-90.5" font-family="Helvetica,sans-Serif" font-size="10.00">fr.softsf.canscan.CanScan.generate</text>
<text text-anchor="middle" x="86.75" y="-78.5" font-family="Helvetica,sans-Serif" font-size="10.00">QrCode</text>
</a>
</g>
</g>
<!-- Node2 -->
<g id="Node000002" class="node">
<title>Node2</title>
<g id="a_Node000002"><a xlink:href="classfr_1_1softsf_1_1canscan_1_1_can_scan.html#a2d26dcd1ae708eae46dba8952351aa1a" target="_top" xlink:title="Builds and returns a QrInput object containing all current user inputs and settings.">
<polygon fill="white" stroke="#666666" points="359,-126 209.5,-126 209.5,-94 359,-94 359,-126"/>
<text text-anchor="start" x="217.5" y="-112.5" font-family="Helvetica,sans-Serif" font-size="10.00">fr.softsf.canscan.CanScan.get</text>
<text text-anchor="middle" x="284.25" y="-100.5" font-family="Helvetica,sans-Serif" font-size="10.00">QrInput</text>
</a>
</g>
</g>
<!-- Node1&#45;&gt;Node2 -->
<g id="edge1_Node000001_Node000002" class="edge">
<title>Node1&#45;&gt;Node2</title>
<g id="a_edge1_Node000001_Node000002"><a xlink:title=" ">
<path fill="none" stroke="#63b8ff" d="M173.78,-97.68C181.79,-98.58 189.9,-99.5 197.91,-100.4"/>
<polygon fill="#63b8ff" stroke="#63b8ff" points="197.29,-103.85 207.62,-101.49 198.07,-96.89 197.29,-103.85"/>
</a>
</g>
</g>
<!-- Node4 -->
<g id="Node000004" class="node">
<title>Node4</title>
<g id="a_Node000004"><a xlink:href="classfr_1_1softsf_1_1canscan_1_1_can_scan.html#a4e67b1b5c764e72414a5c0f387810f5c" target="_top" xlink:title="Validates and returns the current QR code margin from the margin slider.">
<polygon fill="white" stroke="#666666" points="567.38,-182 397.62,-182 397.62,-150 567.38,-150 567.38,-182"/>
<text text-anchor="start" x="405.62" y="-168.5" font-family="Helvetica,sans-Serif" font-size="10.00">fr.softsf.canscan.CanScan.validate</text>
<text text-anchor="middle" x="482.5" y="-156.5" font-family="Helvetica,sans-Serif" font-size="10.00">AndGetMargin</text>
</a>
</g>
</g>
<!-- Node1&#45;&gt;Node4 -->
<g id="edge6_Node000001_Node000004" class="edge">
<title>Node1&#45;&gt;Node4</title>
<g id="a_edge6_Node000001_Node000004"><a xlink:title=" ">
<path fill="none" stroke="#63b8ff" d="M123.2,-104.45C147.09,-114.84 179.58,-127.65 209.5,-135 267.12,-149.16 333.23,-156.88 385.84,-161.08"/>
<polygon fill="#63b8ff" stroke="#63b8ff" points="385.45,-164.56 395.69,-161.83 385.98,-157.58 385.45,-164.56"/>
</a>
</g>
</g>
<!-- Node5 -->
<g id="Node000005" class="node">
<title>Node5</title>
<g id="a_Node000005"><a xlink:href="classfr_1_1softsf_1_1canscan_1_1_can_scan.html#a9e8188875168199cde065113ae2a393d" target="_top" xlink:title="Validates and returns the current image&#45;to&#45;QR ratio from the ratio slider.">
<polygon fill="white" stroke="#666666" points="567.38,-82 397.62,-82 397.62,-50 567.38,-50 567.38,-82"/>
<text text-anchor="start" x="405.62" y="-68.5" font-family="Helvetica,sans-Serif" font-size="10.00">fr.softsf.canscan.CanScan.validate</text>
<text text-anchor="middle" x="482.5" y="-56.5" font-family="Helvetica,sans-Serif" font-size="10.00">AndGetRatio</text>
</a>
</g>
</g>
<!-- Node1&#45;&gt;Node5 -->
<g id="edge7_Node000001_Node000005" class="edge">
<title>Node1&#45;&gt;Node5</title>
<g id="a_edge7_Node000001_Node000005"><a xlink:title=" ">
<path fill="none" stroke="#63b8ff" d="M173.67,-83.2C236.33,-79.7 321.24,-74.95 386.01,-71.34"/>
<polygon fill="#63b8ff" stroke="#63b8ff" points="386.15,-74.83 395.94,-70.78 385.76,-67.84 386.15,-74.83"/>
</a>
</g>
</g>
<!-- Node6 -->
<g id="Node000006" class="node">
<title>Node6</title>
<g id="a_Node000006"><a xlink:href="classfr_1_1softsf_1_1canscan_1_1_can_scan.html#a6d139bb8d0a3c7081096c8956189b684" target="_top" xlink:title="Validates and returns the QR code size from the corresponding text field.">
<polygon fill="white" stroke="#666666" points="567.38,-32 397.62,-32 397.62,0 567.38,0 567.38,-32"/>
<text text-anchor="start" x="405.62" y="-18.5" font-family="Helvetica,sans-Serif" font-size="10.00">fr.softsf.canscan.CanScan.validate</text>
<text text-anchor="middle" x="482.5" y="-6.5" font-family="Helvetica,sans-Serif" font-size="10.00">AndGetSize</text>
</a>
</g>
</g>
<!-- Node1&#45;&gt;Node6 -->
<g id="edge8_Node000001_Node000006" class="edge">
<title>Node1&#45;&gt;Node6</title>
<g id="a_edge8_Node000001_Node000006"><a xlink:title=" ">
<path fill="none" stroke="#63b8ff" d="M173.67,-72.29C236.46,-60.81 321.59,-45.24 386.41,-33.39"/>
<polygon fill="#63b8ff" stroke="#63b8ff" points="386.75,-36.88 395.96,-31.64 385.49,-30 386.75,-36.88"/>
</a>
</g>
</g>
<!-- Node3 -->
<g id="Node000003" class="node">
<title>Node3</title>
<g id="a_Node000003"><a xlink:href="classfr_1_1softsf_1_1canscan_1_1_can_scan.html#a381368b99c4a0857c6abe6349b2c6d27" target="_top" xlink:title="Calculates the available height for QR code rendering.">
<polygon fill="white" stroke="#666666" points="570,-132 395,-132 395,-100 570,-100 570,-132"/>
<text text-anchor="start" x="403" y="-118.5" font-family="Helvetica,sans-Serif" font-size="10.00">fr.softsf.canscan.CanScan.calculate</text>
<text text-anchor="middle" x="482.5" y="-106.5" font-family="Helvetica,sans-Serif" font-size="10.00">AvailableQrCodeLabelHeight</text>
</a>
</g>
</g>
<!-- Node2&#45;&gt;Node3 -->
<g id="edge2_Node000002_Node000003" class="edge">
<title>Node2&#45;&gt;Node3</title>
<g id="a_edge2_Node000002_Node000003"><a xlink:title=" ">
<path fill="none" stroke="#63b8ff" d="M359.44,-112.27C367.26,-112.51 375.3,-112.75 383.34,-113"/>
<polygon fill="#63b8ff" stroke="#63b8ff" points="383.06,-116.49 393.16,-113.3 383.28,-109.5 383.06,-116.49"/>
</a>
</g>
</g>
<!-- Node2&#45;&gt;Node4 -->
<g id="edge3_Node000002_Node000004" class="edge">
<title>Node2&#45;&gt;Node4</title>
<g id="a_edge3_Node000002_Node000004"><a xlink:title=" ">
<path fill="none" stroke="#63b8ff" d="M343.07,-126.5C364.93,-132.74 390.02,-139.9 412.79,-146.39"/>
<polygon fill="#63b8ff" stroke="#63b8ff" points="411.72,-149.73 422.3,-149.11 413.64,-143 411.72,-149.73"/>
</a>
</g>
</g>
<!-- Node2&#45;&gt;Node5 -->
<g id="edge4_Node000002_Node000005" class="edge">
<title>Node2&#45;&gt;Node5</title>
<g id="a_edge4_Node000002_Node000005"><a xlink:title=" ">
<path fill="none" stroke="#63b8ff" d="M358.61,-93.55C371.07,-90.76 384.1,-87.84 396.83,-84.98"/>
<polygon fill="#63b8ff" stroke="#63b8ff" points="397.44,-88.43 406.43,-82.83 395.91,-81.6 397.44,-88.43"/>
</a>
</g>
</g>
<!-- Node2&#45;&gt;Node6 -->
<g id="edge5_Node000002_Node000006" class="edge">
<title>Node2&#45;&gt;Node6</title>
<g id="a_edge5_Node000002_Node000006"><a xlink:title=" ">
<path fill="none" stroke="#63b8ff" d="M307.33,-93.51C328.78,-78.13 362.75,-55.45 395,-41 398.71,-39.34 402.57,-37.75 406.49,-36.25"/>
<polygon fill="#63b8ff" stroke="#63b8ff" points="407.36,-39.66 415.58,-32.97 404.99,-33.07 407.36,-39.66"/>
</a>
</g>
</g>
</g>
</svg>
