<?xml version="1.0" encoding="UTF-8" standalone="no"?>
<!DOCTYPE svg PUBLIC "-//W3C//DTD SVG 1.1//EN"
 "http://www.w3.org/Graphics/SVG/1.1/DTD/svg11.dtd">
<!-- Generated by graphviz version 12.2.1 (20241206.2353)
 -->
<!-- Title: fr.softsf.canscan.CanScan.initializeMainPanel Pages: 1 -->
<!--zoomable 245 -->

<svg id="main" version="1.1" xmlns="http://www.w3.org/2000/svg" xmlns:xlink="http://www.w3.org/1999/xlink" xml:space="preserve" onload="init(evt)">

<style type="text/css"><![CDATA[
.node, .edge {opacity: 0.7;}
.node.selected, .edge.selected {opacity: 1;}
.edge:hover path { stroke: red; }
.edge:hover polygon { stroke: red; fill: red; }
]]></style>

<defs>
  <circle id="rim" cx="0" cy="0" r="7"/>
  <circle id="rim2" cx="0" cy="0" r="3.5"/>
  <g id="zoomPlus">
    <use xlink:href="#rim" fill="#404040"><set attributeName="fill" to="#808080" begin="zoomplus.mouseover" end="zoomplus.mouseout"/></use>
    <path d="M-4,0h8M0,-4v8" fill="none" stroke="white" stroke-width="1.5" pointer-events="none"/>
  </g>
  <g id="zoomMin">
    <use xlink:href="#rim" fill="#404040"><set attributeName="fill" to="#808080" begin="zoomminus.mouseover" end="zoomminus.mouseout"/></use>
    <path d="M-4,0h8" fill="none" stroke="white" stroke-width="1.5" pointer-events="none"/>
  </g>
  <g id="arrowUp" transform="translate(30 24)">
    <use xlink:href="#rim"/>
    <path pointer-events="none" fill="none" stroke="white" stroke-width="1.5" d="M0,-3.0v7 M-2.5,-0.5L0,-3.0L2.5,-0.5"/>
  </g>
  <g id="arrowRight" transform="rotate(90) translate(36 -43)">
    <use xlink:href="#rim"/>
    <path pointer-events="none" fill="none" stroke="white" stroke-width="1.5" d="M0,-3.0v7 M-2.5,-0.5L0,-3.0L2.5,-0.5"/>
  </g>
  <g id="arrowDown" transform="rotate(180) translate(-30 -48)">
    <use xlink:href="#rim"/>
    <path pointer-events="none" fill="none" stroke="white" stroke-width="1.5" d="M0,-3.0v7 M-2.5,-0.5L0,-3.0L2.5,-0.5"/>
  </g>
  <g id="arrowLeft" transform="rotate(270) translate(-36 17)">
    <use xlink:href="#rim"/>
    <path pointer-events="none" fill="none" stroke="white" stroke-width="1.5" d="M0,-3.0v7 M-2.5,-0.5L0,-3.0L2.5,-0.5"/>
  </g>
  <g id="resetDef">
    <use xlink:href="#rim2" fill="#404040"><set attributeName="fill" to="#808080" begin="reset.mouseover" end="reset.mouseout"/></use>
  </g>
</defs>
<script type="application/ecmascript">
var viewWidth = 844;
var viewHeight = 245;
var sectionId = 'dynsection-11';
</script>
<script type="application/ecmascript" xlink:href="svg.min.js"/>
<svg id="graph" class="graph">
<g id="viewport">
<title>fr.softsf.canscan.CanScan.initializeMainPanel</title>
<!-- Node1 -->
<g id="Node000001" class="node">
<title>Node1</title>
<g id="a_Node000001"><a xlink:title="Builds the main panel with header, QR preview overlay, and bottom spacer.">
<polygon fill="#999999" stroke="#666666" points="171.25,-157 0,-157 0,-125 171.25,-125 171.25,-157"/>
<text text-anchor="start" x="8" y="-143.5" font-family="Helvetica,sans-Serif" font-size="10.00">fr.softsf.canscan.CanScan.initialize</text>
<text text-anchor="middle" x="85.62" y="-131.5" font-family="Helvetica,sans-Serif" font-size="10.00">MainPanel</text>
</a>
</g>
</g>
<!-- Node2 -->
<g id="Node000002" class="node">
<title>Node2</title>
<g id="a_Node000002"><a xlink:href="classfr_1_1softsf_1_1canscan_1_1_can_scan.html#ad470e3c0750cf142dc611b1aeeda3a97" target="_top" xlink:title="Attaches automatic QR preview updates and input validation to all fields and controls.">
<polygon fill="white" stroke="#666666" points="400.25,-180 207.25,-180 207.25,-148 400.25,-148 400.25,-180"/>
<text text-anchor="start" x="215.25" y="-166.5" font-family="Helvetica,sans-Serif" font-size="10.00">fr.softsf.canscan.CanScan.automatic</text>
<text text-anchor="middle" x="303.75" y="-154.5" font-family="Helvetica,sans-Serif" font-size="10.00">QRCodeRenderingForFieldsAndControls</text>
</a>
</g>
</g>
<!-- Node1&#45;&gt;Node2 -->
<g id="edge1_Node000001_Node000002" class="edge">
<title>Node1&#45;&gt;Node2</title>
<g id="a_edge1_Node000001_Node000002"><a xlink:title=" ">
<path fill="none" stroke="#63b8ff" d="M171.73,-150.06C179.6,-150.89 187.64,-151.75 195.67,-152.6"/>
<polygon fill="#63b8ff" stroke="#63b8ff" points="195.18,-156.07 205.5,-153.65 195.92,-149.11 195.18,-156.07"/>
</a>
</g>
</g>
<!-- Node5 -->
<g id="Node000005" class="node">
<title>Node5</title>
<g id="a_Node000005"><a xlink:href="classfr_1_1softsf_1_1canscan_1_1_can_scan.html#a180290bc488e2346592ded98ccc4b1f3" target="_top" xlink:title="Collects current input and visual settings into a WholeFields for QR code generation.">
<polygon fill="white" stroke="#666666" points="601.12,-132 451.62,-132 451.62,-100 601.12,-100 601.12,-132"/>
<text text-anchor="start" x="459.62" y="-118.5" font-family="Helvetica,sans-Serif" font-size="10.00">fr.softsf.canscan.CanScan.get</text>
<text text-anchor="middle" x="526.38" y="-106.5" font-family="Helvetica,sans-Serif" font-size="10.00">QrInput</text>
</a>
</g>
</g>
<!-- Node1&#45;&gt;Node5 -->
<g id="edge10_Node000001_Node000005" class="edge">
<title>Node1&#45;&gt;Node5</title>
<g id="a_edge10_Node000001_Node000005"><a xlink:title=" ">
<path fill="none" stroke="#63b8ff" d="M171.74,-136.15C249.17,-131.74 362.86,-125.26 440.29,-120.85"/>
<polygon fill="#63b8ff" stroke="#63b8ff" points="440.14,-124.36 449.93,-120.3 439.74,-117.37 440.14,-124.36"/>
</a>
</g>
</g>
<!-- Node3 -->
<g id="Node000003" class="node">
<title>Node3</title>
<g id="a_Node000003"><a xlink:href="enumfr_1_1softsf_1_1canscan_1_1ui_1_1_ui_components_configuration.html#afe8da76131acc9dd19a15d7f22ca9ef1" target="_top" xlink:title="Attaches a DocumentListener to a JTextField that:">
<polygon fill="white" stroke="#666666" points="616.5,-237 436.25,-237 436.25,-193 616.5,-193 616.5,-237"/>
<text text-anchor="start" x="444.25" y="-223.5" font-family="Helvetica,sans-Serif" font-size="10.00">fr.softsf.canscan.ui.UiComponents</text>
<text text-anchor="start" x="444.25" y="-211.5" font-family="Helvetica,sans-Serif" font-size="10.00">Configuration.attachLimitedDocument</text>
<text text-anchor="middle" x="526.38" y="-199.5" font-family="Helvetica,sans-Serif" font-size="10.00">Listener</text>
</a>
</g>
</g>
<!-- Node2&#45;&gt;Node3 -->
<g id="edge2_Node000002_Node000003" class="edge">
<title>Node2&#45;&gt;Node3</title>
<g id="a_edge2_Node000002_Node000003"><a xlink:title=" ">
<path fill="none" stroke="#63b8ff" d="M376.08,-180.49C391.77,-184.12 408.68,-188.02 425.28,-191.86"/>
<polygon fill="#63b8ff" stroke="#63b8ff" points="424.11,-195.18 434.65,-194.03 425.69,-188.36 424.11,-195.18"/>
</a>
</g>
</g>
<!-- Node4 -->
<g id="Node000004" class="node">
<title>Node4</title>
<g id="a_Node000004"><a xlink:href="enumfr_1_1softsf_1_1canscan_1_1ui_1_1_ui_components_configuration.html#aa700d9f2a270f6e54fcb53111855fa44" target="_top" xlink:title="Creates a simple DocumentListener that executes the given action on any change to the document.">
<polygon fill="white" stroke="#666666" points="835.75,-232 652.5,-232 652.5,-200 835.75,-200 835.75,-232"/>
<text text-anchor="start" x="660.5" y="-218.5" font-family="Helvetica,sans-Serif" font-size="10.00">fr.softsf.canscan.ui.UiComponents</text>
<text text-anchor="middle" x="744.12" y="-206.5" font-family="Helvetica,sans-Serif" font-size="10.00">Configuration.createDocumentListener</text>
</a>
</g>
</g>
<!-- Node2&#45;&gt;Node4 -->
<g id="edge4_Node000002_Node000004" class="edge">
<title>Node2&#45;&gt;Node4</title>
<g id="a_edge4_Node000002_Node000004"><a xlink:title=" ">
<path fill="none" stroke="#63b8ff" d="M400.41,-165.6C462.35,-167.75 544.57,-172.7 616.5,-184 627.66,-185.75 649.34,-190.99 671.64,-196.74"/>
<polygon fill="#63b8ff" stroke="#63b8ff" points="670.57,-200.08 681.13,-199.21 672.33,-193.3 670.57,-200.08"/>
</a>
</g>
</g>
<!-- Node2&#45;&gt;Node5 -->
<g id="edge5_Node000002_Node000005" class="edge">
<title>Node2&#45;&gt;Node5</title>
<g id="a_edge5_Node000002_Node000005"><a xlink:title=" ">
<path fill="none" stroke="#63b8ff" d="M380.37,-147.55C399.64,-143.35 420.49,-138.82 440.21,-134.53"/>
<polygon fill="#63b8ff" stroke="#63b8ff" points="440.84,-137.97 449.87,-132.43 439.35,-131.13 440.84,-137.97"/>
</a>
</g>
</g>
<!-- Node3&#45;&gt;Node4 -->
<g id="edge3_Node000003_Node000004" class="edge">
<title>Node3&#45;&gt;Node4</title>
<g id="a_edge3_Node000003_Node000004"><a xlink:title=" ">
<path fill="none" stroke="#63b8ff" d="M617,-215.42C624.78,-215.45 632.69,-215.49 640.56,-215.52"/>
<polygon fill="#63b8ff" stroke="#63b8ff" points="640.51,-219.02 650.53,-215.57 640.55,-212.02 640.51,-219.02"/>
</a>
</g>
</g>
<!-- Node6 -->
<g id="Node000006" class="node">
<title>Node6</title>
<g id="a_Node000006"><a xlink:href="classfr_1_1softsf_1_1canscan_1_1_can_scan.html#a4e67b1b5c764e72414a5c0f387810f5c" target="_top" xlink:title="Validates and returns the current QR code margin from the margin slider.">
<polygon fill="white" stroke="#666666" points="829,-182 659.25,-182 659.25,-150 829,-150 829,-182"/>
<text text-anchor="start" x="667.25" y="-168.5" font-family="Helvetica,sans-Serif" font-size="10.00">fr.softsf.canscan.CanScan.validate</text>
<text text-anchor="middle" x="744.12" y="-156.5" font-family="Helvetica,sans-Serif" font-size="10.00">AndGetMargin</text>
</a>
</g>
</g>
<!-- Node5&#45;&gt;Node6 -->
<g id="edge6_Node000005_Node000006" class="edge">
<title>Node5&#45;&gt;Node6</title>
<g id="a_edge6_Node000005_Node000006"><a xlink:title=" ">
<path fill="none" stroke="#63b8ff" d="M598.32,-132.44C618.41,-137.1 640.45,-142.2 661.13,-147"/>
<polygon fill="#63b8ff" stroke="#63b8ff" points="660.13,-150.36 670.66,-149.21 661.71,-143.54 660.13,-150.36"/>
</a>
</g>
</g>
<!-- Node7 -->
<g id="Node000007" class="node">
<title>Node7</title>
<g id="a_Node000007"><a xlink:href="classfr_1_1softsf_1_1canscan_1_1_can_scan.html#a8a2b238ac4af96d8710b3e5d7d051f77" target="_top" xlink:title="Validates and returns the current meet UID from the meet title field.">
<polygon fill="white" stroke="#666666" points="829,-132 659.25,-132 659.25,-100 829,-100 829,-132"/>
<text text-anchor="start" x="667.25" y="-118.5" font-family="Helvetica,sans-Serif" font-size="10.00">fr.softsf.canscan.CanScan.validate</text>
<text text-anchor="middle" x="744.12" y="-106.5" font-family="Helvetica,sans-Serif" font-size="10.00">AndGetMeetUID</text>
</a>
</g>
</g>
<!-- Node5&#45;&gt;Node7 -->
<g id="edge7_Node000005_Node000007" class="edge">
<title>Node5&#45;&gt;Node7</title>
<g id="a_edge7_Node000005_Node000007"><a xlink:title=" ">
<path fill="none" stroke="#63b8ff" d="M601.62,-116C616.53,-116 632.39,-116 647.9,-116"/>
<polygon fill="#63b8ff" stroke="#63b8ff" points="647.6,-119.5 657.6,-116 647.6,-112.5 647.6,-119.5"/>
</a>
</g>
</g>
<!-- Node8 -->
<g id="Node000008" class="node">
<title>Node8</title>
<g id="a_Node000008"><a xlink:href="classfr_1_1softsf_1_1canscan_1_1_can_scan.html#a9e8188875168199cde065113ae2a393d" target="_top" xlink:title="Validates and returns the current image&#45;to&#45;QR ratio from the ratio slider.">
<polygon fill="white" stroke="#666666" points="829,-82 659.25,-82 659.25,-50 829,-50 829,-82"/>
<text text-anchor="start" x="667.25" y="-68.5" font-family="Helvetica,sans-Serif" font-size="10.00">fr.softsf.canscan.CanScan.validate</text>
<text text-anchor="middle" x="744.12" y="-56.5" font-family="Helvetica,sans-Serif" font-size="10.00">AndGetRatio</text>
</a>
</g>
</g>
<!-- Node5&#45;&gt;Node8 -->
<g id="edge8_Node000005_Node000008" class="edge">
<title>Node5&#45;&gt;Node8</title>
<g id="a_edge8_Node000005_Node000008"><a xlink:title=" ">
<path fill="none" stroke="#63b8ff" d="M598.32,-99.56C618.41,-94.9 640.45,-89.8 661.13,-85"/>
<polygon fill="#63b8ff" stroke="#63b8ff" points="661.71,-88.46 670.66,-82.79 660.13,-81.64 661.71,-88.46"/>
</a>
</g>
</g>
<!-- Node9 -->
<g id="Node000009" class="node">
<title>Node9</title>
<g id="a_Node000009"><a xlink:href="classfr_1_1softsf_1_1canscan_1_1_can_scan.html#a6d139bb8d0a3c7081096c8956189b684" target="_top" xlink:title="Validates and returns the QR code size from the corresponding text field.">
<polygon fill="white" stroke="#666666" points="829,-32 659.25,-32 659.25,0 829,0 829,-32"/>
<text text-anchor="start" x="667.25" y="-18.5" font-family="Helvetica,sans-Serif" font-size="10.00">fr.softsf.canscan.CanScan.validate</text>
<text text-anchor="middle" x="744.12" y="-6.5" font-family="Helvetica,sans-Serif" font-size="10.00">AndGetSize</text>
</a>
</g>
</g>
<!-- Node5&#45;&gt;Node9 -->
<g id="edge9_Node000005_Node000009" class="edge">
<title>Node5&#45;&gt;Node9</title>
<g id="a_edge9_Node000005_Node000009"><a xlink:title=" ">
<path fill="none" stroke="#63b8ff" d="M550.34,-99.62C574.7,-82.89 614.78,-57.15 652.5,-41 656.52,-39.28 660.69,-37.64 664.94,-36.1"/>
<polygon fill="#63b8ff" stroke="#63b8ff" points="665.86,-39.48 674.18,-32.92 663.58,-32.86 665.86,-39.48"/>
</a>
</g>
</g>
</g>
</svg>

<g id="navigator" transform="translate(0 0)" fill="#404254">
  <rect fill="#f2f5e9" fill-opacity="0.5" stroke="#606060" stroke-width=".5" x="0" y="0" width="60" height="60"/>
  <use id="zoomplus" xlink:href="#zoomPlus" x="17" y="9" onmousedown="handleZoom(evt,'in')"/>
  <use id="zoomminus" xlink:href="#zoomMin" x="42" y="9" onmousedown="handleZoom(evt,'out')"/>
  <use id="reset" xlink:href="#resetDef" x="30" y="36" onmousedown="handleReset()"/>
   <use id="arrowup" xlink:href="#arrowUp" x="0" y="0" onmousedown="handlePan(0,-1)"/>
  <use id="arrowright" xlink:href="#arrowRight" x="0" y="0" onmousedown="handlePan(1,0)"/>
  <use id="arrowdown" xlink:href="#arrowDown" x="0" y="0" onmousedown="handlePan(0,1)"/>
  <use id="arrowleft" xlink:href="#arrowLeft" x="0" y="0" onmousedown="handlePan(-1,0)"/>
</g>
<svg viewBox="0 0 15 15" width="100%" height="30px" preserveAspectRatio="xMaxYMin meet">
 <g id="arrow_out" transform="scale(0.3 0.3)">
  <a xlink:href="classfr_1_1softsf_1_1canscan_1_1_can_scan_a14263ca931024d56cd9bed4af4b74c25_cgraph_org.svg" target="_base">
   <rect id="button" ry="5" rx="5" y="6" x="6" height="38" width="38"
        fill="#f2f5e9" fill-opacity="0.5" stroke="#606060" stroke-width="1.0"/>
   <path id="arrow"
     d="M 11.500037,31.436501 C 11.940474,20.09759 22.043105,11.32322 32.158766,21.979434 L 37.068811,17.246167 C 37.068811,17.246167 37.088388,32 37.088388,32 L 22.160133,31.978069 C 22.160133,31.978069 26.997745,27.140456 26.997745,27.140456 C 18.528582,18.264221 13.291696,25.230495 11.500037,31.436501 z"
     style="fill:#404040;"/>
  </a>
 </g>
</svg>

<style type='text/css'>
<![CDATA[
[data-mouse-over-selected='false'] { opacity: 0.7; }
[data-mouse-over-selected='true']  { opacity: 1.0; }
]]>
</style>
<script type="application/ecmascript"><![CDATA[
document.addEventListener('DOMContentLoaded', (event) => {
  highlightEdges();
  highlightAdjacentNodes();
});
]]></script>
</svg>
