<?xml version="1.0" encoding="UTF-8" standalone="no"?>
<!DOCTYPE svg PUBLIC "-//W3C//DTD SVG 1.1//EN"
 "http://www.w3.org/Graphics/SVG/1.1/DTD/svg11.dtd">
<!-- Generated by graphviz version 12.2.1 (20241206.2353)
 -->
<!-- Title: fr.softsf.canscan.CanScan.initializeMainPanel Pages: 1 -->
<svg width="820pt" height="209pt"
 viewBox="0.00 0.00 819.75 209.00" xmlns="http://www.w3.org/2000/svg" xmlns:xlink="http://www.w3.org/1999/xlink">
<g id="graph0" class="graph" transform="scale(1 1) rotate(0) translate(4 205)">
<title>fr.softsf.canscan.CanScan.initializeMainPanel</title>
<!-- Node1 -->
<g id="Node000001" class="node">
<title>Node1</title>
<g id="a_Node000001"><a xlink:title="Initializes and assembles the main application panel.">
<polygon fill="#999999" stroke="#666666" points="171.25,-82 0,-82 0,-50 171.25,-50 171.25,-82"/>
<text text-anchor="start" x="8" y="-68.5" font-family="Helvetica,sans-Serif" font-size="10.00">fr.softsf.canscan.CanScan.initialize</text>
<text text-anchor="middle" x="85.62" y="-56.5" font-family="Helvetica,sans-Serif" font-size="10.00">MainPanel</text>
</a>
</g>
</g>
<!-- Node2 -->
<g id="Node000002" class="node">
<title>Node2</title>
<g id="a_Node000002"><a xlink:href="classfr_1_1softsf_1_1canscan_1_1_can_scan.html#ad470e3c0750cf142dc611b1aeeda3a97" target="_top" xlink:title="Sets up automatic QR code preview updates for all input fields and controls.">
<polygon fill="white" stroke="#666666" points="400.25,-82 207.25,-82 207.25,-50 400.25,-50 400.25,-82"/>
<text text-anchor="start" x="215.25" y="-68.5" font-family="Helvetica,sans-Serif" font-size="10.00">fr.softsf.canscan.CanScan.automatic</text>
<text text-anchor="middle" x="303.75" y="-56.5" font-family="Helvetica,sans-Serif" font-size="10.00">QRCodeRenderingForFieldsAndControls</text>
</a>
</g>
</g>
<!-- Node1&#45;&gt;Node2 -->
<g id="edge1_Node000001_Node000002" class="edge">
<title>Node1&#45;&gt;Node2</title>
<g id="a_edge1_Node000001_Node000002"><a xlink:title=" ">
<path fill="none" stroke="#63b8ff" d="M171.73,-66C179.6,-66 187.64,-66 195.67,-66"/>
<polygon fill="#63b8ff" stroke="#63b8ff" points="195.49,-69.5 205.49,-66 195.49,-62.5 195.49,-69.5"/>
</a>
</g>
</g>
<!-- Node3 -->
<g id="Node000003" class="node">
<title>Node3</title>
<g id="a_Node000003"><a xlink:href="classfr_1_1softsf_1_1canscan_1_1_can_scan.html#a2d26dcd1ae708eae46dba8952351aa1a" target="_top" xlink:title="Builds and returns a QrInput object containing all current user inputs and settings.">
<polygon fill="white" stroke="#666666" points="593.25,-126 443.75,-126 443.75,-94 593.25,-94 593.25,-126"/>
<text text-anchor="start" x="451.75" y="-112.5" font-family="Helvetica,sans-Serif" font-size="10.00">fr.softsf.canscan.CanScan.get</text>
<text text-anchor="middle" x="518.5" y="-100.5" font-family="Helvetica,sans-Serif" font-size="10.00">QrInput</text>
</a>
</g>
</g>
<!-- Node1&#45;&gt;Node3 -->
<g id="edge9_Node000001_Node000003" class="edge">
<title>Node1&#45;&gt;Node3</title>
<g id="a_edge9_Node000001_Node000003"><a xlink:title=" ">
<path fill="none" stroke="#63b8ff" d="M157.45,-82.44C173.74,-85.73 191.03,-88.83 207.25,-91 282.91,-101.1 369.67,-105.84 432.18,-108.06"/>
<polygon fill="#63b8ff" stroke="#63b8ff" points="431.93,-111.55 442.04,-108.4 432.17,-104.56 431.93,-111.55"/>
</a>
</g>
</g>
<!-- Node9 -->
<g id="Node000009" class="node">
<title>Node9</title>
<g id="a_Node000009"><a xlink:href="classfr_1_1softsf_1_1canscan_1_1_can_scan.html#a2680fca620b01b32419c021f63a5e047" target="_top" xlink:title="Creates the overlay panel containing the loader and the QR code label.">
<polygon fill="white" stroke="#666666" points="392.75,-32 214.75,-32 214.75,0 392.75,0 392.75,-32"/>
<text text-anchor="start" x="222.75" y="-18.5" font-family="Helvetica,sans-Serif" font-size="10.00">fr.softsf.canscan.CanScan.create</text>
<text text-anchor="middle" x="303.75" y="-6.5" font-family="Helvetica,sans-Serif" font-size="10.00">QrCodeLabelAndLoaderOverlayPanel</text>
</a>
</g>
</g>
<!-- Node1&#45;&gt;Node9 -->
<g id="edge8_Node000001_Node000009" class="edge">
<title>Node1&#45;&gt;Node9</title>
<g id="a_edge8_Node000001_Node000009"><a xlink:title=" ">
<path fill="none" stroke="#63b8ff" d="M157.69,-49.56C177.82,-44.9 199.89,-39.8 220.62,-35"/>
<polygon fill="#63b8ff" stroke="#63b8ff" points="221.21,-38.46 230.17,-32.79 219.63,-31.64 221.21,-38.46"/>
</a>
</g>
</g>
<!-- Node2&#45;&gt;Node3 -->
<g id="edge2_Node000002_Node000003" class="edge">
<title>Node2&#45;&gt;Node3</title>
<g id="a_edge2_Node000002_Node000003"><a xlink:title=" ">
<path fill="none" stroke="#63b8ff" d="M384.27,-82.45C400,-85.7 416.56,-89.12 432.47,-92.41"/>
<polygon fill="#63b8ff" stroke="#63b8ff" points="431.37,-95.76 441.87,-94.36 432.78,-88.91 431.37,-95.76"/>
</a>
</g>
</g>
<!-- Node8 -->
<g id="Node000008" class="node">
<title>Node8</title>
<g id="a_Node000008"><a xlink:href="classfr_1_1softsf_1_1canscan_1_1_can_scan.html#a9856545d05ef553c8dfddd95a850a360" target="_top" xlink:title="Creates a minimal DocumentListener that executes the given action on any document change.">
<polygon fill="white" stroke="#666666" points="600.75,-76 436.25,-76 436.25,-44 600.75,-44 600.75,-76"/>
<text text-anchor="start" x="444.25" y="-62.5" font-family="Helvetica,sans-Serif" font-size="10.00">fr.softsf.canscan.CanScan.simple</text>
<text text-anchor="middle" x="518.5" y="-50.5" font-family="Helvetica,sans-Serif" font-size="10.00">DocumentListener</text>
</a>
</g>
</g>
<!-- Node2&#45;&gt;Node8 -->
<g id="edge7_Node000002_Node000008" class="edge">
<title>Node2&#45;&gt;Node8</title>
<g id="a_edge7_Node000002_Node000008"><a xlink:title=" ">
<path fill="none" stroke="#63b8ff" d="M400.54,-63.3C408.47,-63.07 416.48,-62.85 424.39,-62.63"/>
<polygon fill="#63b8ff" stroke="#63b8ff" points="424.48,-66.12 434.37,-62.34 424.28,-59.13 424.48,-66.12"/>
</a>
</g>
</g>
<!-- Node4 -->
<g id="Node000004" class="node">
<title>Node4</title>
<g id="a_Node000004"><a xlink:href="classfr_1_1softsf_1_1canscan_1_1_can_scan.html#a381368b99c4a0857c6abe6349b2c6d27" target="_top" xlink:title="Calculates the available height for QR code rendering.">
<polygon fill="white" stroke="#666666" points="811.75,-201 636.75,-201 636.75,-169 811.75,-169 811.75,-201"/>
<text text-anchor="start" x="644.75" y="-187.5" font-family="Helvetica,sans-Serif" font-size="10.00">fr.softsf.canscan.CanScan.calculate</text>
<text text-anchor="middle" x="724.25" y="-175.5" font-family="Helvetica,sans-Serif" font-size="10.00">AvailableQrCodeLabelHeight</text>
</a>
</g>
</g>
<!-- Node3&#45;&gt;Node4 -->
<g id="edge3_Node000003_Node000004" class="edge">
<title>Node3&#45;&gt;Node4</title>
<g id="a_edge3_Node000003_Node000004"><a xlink:title=" ">
<path fill="none" stroke="#63b8ff" d="M554.97,-126.46C578,-136.82 608.82,-150.05 636.75,-160 641.73,-161.78 646.91,-163.52 652.14,-165.21"/>
<polygon fill="#63b8ff" stroke="#63b8ff" points="650.89,-168.48 661.48,-168.13 652.98,-161.8 650.89,-168.48"/>
</a>
</g>
</g>
<!-- Node5 -->
<g id="Node000005" class="node">
<title>Node5</title>
<g id="a_Node000005"><a xlink:href="classfr_1_1softsf_1_1canscan_1_1_can_scan.html#a4e67b1b5c764e72414a5c0f387810f5c" target="_top" xlink:title="Validates and returns the current QR code margin from the margin slider.">
<polygon fill="white" stroke="#666666" points="809.12,-151 639.38,-151 639.38,-119 809.12,-119 809.12,-151"/>
<text text-anchor="start" x="647.38" y="-137.5" font-family="Helvetica,sans-Serif" font-size="10.00">fr.softsf.canscan.CanScan.validate</text>
<text text-anchor="middle" x="724.25" y="-125.5" font-family="Helvetica,sans-Serif" font-size="10.00">AndGetMargin</text>
</a>
</g>
</g>
<!-- Node3&#45;&gt;Node5 -->
<g id="edge4_Node000003_Node000005" class="edge">
<title>Node3&#45;&gt;Node5</title>
<g id="a_edge4_Node000003_Node000005"><a xlink:title=" ">
<path fill="none" stroke="#63b8ff" d="M593.63,-119.1C604.73,-120.46 616.3,-121.88 627.76,-123.28"/>
<polygon fill="#63b8ff" stroke="#63b8ff" points="627.31,-126.75 637.66,-124.5 628.16,-119.81 627.31,-126.75"/>
</a>
</g>
</g>
<!-- Node6 -->
<g id="Node000006" class="node">
<title>Node6</title>
<g id="a_Node000006"><a xlink:href="classfr_1_1softsf_1_1canscan_1_1_can_scan.html#a9e8188875168199cde065113ae2a393d" target="_top" xlink:title="Validates and returns the current image&#45;to&#45;QR ratio from the ratio slider.">
<polygon fill="white" stroke="#666666" points="809.12,-101 639.38,-101 639.38,-69 809.12,-69 809.12,-101"/>
<text text-anchor="start" x="647.38" y="-87.5" font-family="Helvetica,sans-Serif" font-size="10.00">fr.softsf.canscan.CanScan.validate</text>
<text text-anchor="middle" x="724.25" y="-75.5" font-family="Helvetica,sans-Serif" font-size="10.00">AndGetRatio</text>
</a>
</g>
</g>
<!-- Node3&#45;&gt;Node6 -->
<g id="edge5_Node000003_Node000006" class="edge">
<title>Node3&#45;&gt;Node6</title>
<g id="a_edge5_Node000003_Node000006"><a xlink:title=" ">
<path fill="none" stroke="#63b8ff" d="M593.63,-100.9C604.73,-99.54 616.3,-98.12 627.76,-96.72"/>
<polygon fill="#63b8ff" stroke="#63b8ff" points="628.16,-100.19 637.66,-95.5 627.31,-93.25 628.16,-100.19"/>
</a>
</g>
</g>
<!-- Node7 -->
<g id="Node000007" class="node">
<title>Node7</title>
<g id="a_Node000007"><a xlink:href="classfr_1_1softsf_1_1canscan_1_1_can_scan.html#a6d139bb8d0a3c7081096c8956189b684" target="_top" xlink:title="Validates and returns the QR code size from the corresponding text field.">
<polygon fill="white" stroke="#666666" points="809.12,-51 639.38,-51 639.38,-19 809.12,-19 809.12,-51"/>
<text text-anchor="start" x="647.38" y="-37.5" font-family="Helvetica,sans-Serif" font-size="10.00">fr.softsf.canscan.CanScan.validate</text>
<text text-anchor="middle" x="724.25" y="-25.5" font-family="Helvetica,sans-Serif" font-size="10.00">AndGetSize</text>
</a>
</g>
</g>
<!-- Node3&#45;&gt;Node7 -->
<g id="edge6_Node000003_Node000007" class="edge">
<title>Node3&#45;&gt;Node7</title>
<g id="a_edge6_Node000003_Node000007"><a xlink:title=" ">
<path fill="none" stroke="#63b8ff" d="M580.2,-93.6C587.26,-91.03 594.25,-88.16 600.75,-85 618.27,-76.48 619.16,-68.37 636.75,-60 640.07,-58.42 643.5,-56.92 647.01,-55.5"/>
<polygon fill="#63b8ff" stroke="#63b8ff" points="648.16,-58.81 656.28,-52 645.68,-52.26 648.16,-58.81"/>
</a>
</g>
</g>
</g>
</svg>
