<?xml version="1.0" encoding="UTF-8" standalone="no"?>
<!DOCTYPE svg PUBLIC "-//W3C//DTD SVG 1.1//EN"
 "http://www.w3.org/Graphics/SVG/1.1/DTD/svg11.dtd">
<!-- Generated by graphviz version 12.2.1 (20241206.2353)
 -->
<!-- Title: fr.softsf.canscan.ui.FlatLafDatePicker Pages: 1 -->
<svg width="224pt" height="408pt"
 viewBox="0.00 0.00 223.75 408.00" xmlns="http://www.w3.org/2000/svg" xmlns:xlink="http://www.w3.org/1999/xlink">
<g id="graph0" class="graph" transform="scale(1 1) rotate(0) translate(4 404)">
<title>fr.softsf.canscan.ui.FlatLafDatePicker</title>
<!-- Node1 -->
<g id="Node000001" class="node">
<title>Node1</title>
<g id="a_Node000001"><a xlink:title="DatePicker component with FlatLaf styling applied and maintained.">
<polygon fill="#999999" stroke="none" points="165.12,-232 7.62,-232 7.62,0 165.12,0 165.12,-232"/>
<text text-anchor="start" x="34.62" y="-218.5" font-family="Helvetica,sans-Serif" font-size="10.00">fr.softsf.canscan.ui.Flat</text>
<text text-anchor="start" x="55.25" y="-206.5" font-family="Helvetica,sans-Serif" font-size="10.00">LafDatePicker</text>
<text text-anchor="start" x="13.12" y="-190.5" font-family="Helvetica,sans-Serif" font-size="10.00">&#45;</text>
<text text-anchor="start" x="21.62" y="-190.5" font-family="Helvetica,sans-Serif" font-size="10.00">static final String</text>
<text text-anchor="start" x="21.62" y="-178.5" font-family="Helvetica,sans-Serif" font-size="10.00"> BUTTON_BACKGROUND</text>
<text text-anchor="start" x="13.12" y="-162.5" font-family="Helvetica,sans-Serif" font-size="10.00">&#45;</text>
<text text-anchor="start" x="21.62" y="-162.5" font-family="Helvetica,sans-Serif" font-size="10.00">static final String</text>
<text text-anchor="start" x="21.62" y="-150.5" font-family="Helvetica,sans-Serif" font-size="10.00"> BUTTON_FOREGROUND</text>
<text text-anchor="start" x="13.12" y="-134.5" font-family="Helvetica,sans-Serif" font-size="10.00">&#45;</text>
<text text-anchor="start" x="21.62" y="-134.5" font-family="Helvetica,sans-Serif" font-size="10.00">static final String</text>
<text text-anchor="start" x="21.62" y="-122.5" font-family="Helvetica,sans-Serif" font-size="10.00"> TEXT_FIELD_BACKGROUND</text>
<text text-anchor="start" x="13.12" y="-106.5" font-family="Helvetica,sans-Serif" font-size="10.00">&#45;</text>
<text text-anchor="start" x="21.62" y="-106.5" font-family="Helvetica,sans-Serif" font-size="10.00">static final String</text>
<text text-anchor="start" x="21.62" y="-94.5" font-family="Helvetica,sans-Serif" font-size="10.00"> TEXT_FIELD_FOREGROUND</text>
<text text-anchor="start" x="11.62" y="-78.5" font-family="Helvetica,sans-Serif" font-size="10.00">+</text>
<text text-anchor="start" x="21.62" y="-78.5" font-family="Helvetica,sans-Serif" font-size="10.00">FlatLafDatePicker()</text>
<text text-anchor="start" x="11.62" y="-62.5" font-family="Helvetica,sans-Serif" font-size="10.00">+</text>
<text text-anchor="start" x="21.62" y="-62.5" font-family="Helvetica,sans-Serif" font-size="10.00">JTextField getInternalText</text>
<text text-anchor="start" x="21.62" y="-50.5" font-family="Helvetica,sans-Serif" font-size="10.00">Field()</text>
<text text-anchor="start" x="11.62" y="-34.5" font-family="Helvetica,sans-Serif" font-size="10.00">+</text>
<text text-anchor="start" x="21.62" y="-34.5" font-family="Helvetica,sans-Serif" font-size="10.00">Dimension getPreferredSize()</text>
<text text-anchor="start" x="13.12" y="-18.5" font-family="Helvetica,sans-Serif" font-size="10.00">&#45;</text>
<text text-anchor="start" x="21.62" y="-18.5" font-family="Helvetica,sans-Serif" font-size="10.00">static DatePickerSettings</text>
<text text-anchor="start" x="21.62" y="-6.5" font-family="Helvetica,sans-Serif" font-size="10.00"> createSettings()</text>
<polygon fill="#666666" stroke="#666666" points="7.62,-202 7.62,-202 165.12,-202 165.12,-202 7.62,-202"/>
<polygon fill="#666666" stroke="#666666" points="7.62,-90 7.62,-90 19.62,-90 19.62,-90 7.62,-90"/>
<polygon fill="#666666" stroke="#666666" points="19.62,-90 19.62,-90 165.12,-90 165.12,-90 19.62,-90"/>
<polygon fill="none" stroke="#666666" points="7.62,0 7.62,-232 165.12,-232 165.12,0 7.62,0"/>
</a>
</g>
</g>
<!-- Node2 -->
<g id="Node000002" class="node">
<title>Node2</title>
<g id="a_Node000002"><a xlink:title=" ">
<polygon fill="white" stroke="none" points="56.75,-360 0,-360 0,-308 56.75,-308 56.75,-360"/>
<text text-anchor="start" x="4" y="-346.5" font-family="Helvetica,sans-Serif" font-size="10.00">DatePicker</text>
<text text-anchor="start" x="26.88" y="-330.5" font-family="Helvetica,sans-Serif" font-size="10.00"> </text>
<text text-anchor="start" x="26.88" y="-314.5" font-family="Helvetica,sans-Serif" font-size="10.00"> </text>
<polygon fill="#666666" stroke="#666666" points="0,-342 0,-342 56.75,-342 56.75,-342 0,-342"/>
<polygon fill="#666666" stroke="#666666" points="0,-326 0,-326 56.75,-326 56.75,-326 0,-326"/>
<polygon fill="none" stroke="#666666" points="0,-308 0,-360 56.75,-360 56.75,-308 0,-308"/>
</a>
</g>
</g>
<!-- Node2&#45;&gt;Node1 -->
<g id="edge1_Node000001_Node000002" class="edge">
<title>Node2&#45;&gt;Node1</title>
<g id="a_edge1_Node000001_Node000002"><a xlink:title=" ">
<path fill="none" stroke="#63b8ff" d="M37.97,-297.27C42.88,-278.99 49.16,-255.6 55.56,-231.77"/>
<polygon fill="none" stroke="#63b8ff" points="34.63,-296.19 35.42,-306.76 41.39,-298.01 34.63,-296.19"/>
</a>
</g>
</g>
<!-- Node3 -->
<g id="Node000003" class="node">
<title>Node3</title>
<g id="a_Node000003"><a xlink:href="interfacefr_1_1softsf_1_1canscan_1_1ui_1_1_i_flat_laf_styled_for_l_good_date_picker.html" target="_top" xlink:title="Utility interface to apply FlatLaf styling to LGoodDatePicker components.">
<polygon fill="white" stroke="none" points="215.75,-400 75,-400 75,-268 215.75,-268 215.75,-400"/>
<text text-anchor="start" x="79" y="-386.5" font-family="Helvetica,sans-Serif" font-size="10.00">fr.softsf.canscan.ui.IFlat</text>
<text text-anchor="start" x="79" y="-374.5" font-family="Helvetica,sans-Serif" font-size="10.00">LafStyledForLGoodDatePicker</text>
<text text-anchor="start" x="79.88" y="-358.5" font-family="Helvetica,sans-Serif" font-size="10.00">+</text>
<text text-anchor="start" x="90.75" y="-358.5" font-family="Helvetica,sans-Serif" font-size="10.00">int TEXT_FIELD_HEIGHT</text>
<text text-anchor="start" x="79.88" y="-342.5" font-family="Helvetica,sans-Serif" font-size="10.00">+</text>
<text text-anchor="start" x="90.75" y="-342.5" font-family="Helvetica,sans-Serif" font-size="10.00">default void applyTheme()</text>
<text text-anchor="start" x="79.88" y="-326.5" font-family="Helvetica,sans-Serif" font-size="10.00">+</text>
<text text-anchor="start" x="90.75" y="-326.5" font-family="Helvetica,sans-Serif" font-size="10.00">default Dimension compute</text>
<text text-anchor="start" x="90.75" y="-314.5" font-family="Helvetica,sans-Serif" font-size="10.00">PreferredSize(Dimension</text>
<text text-anchor="start" x="90.75" y="-302.5" font-family="Helvetica,sans-Serif" font-size="10.00"> original)</text>
<text text-anchor="start" x="79.88" y="-286.5" font-family="Helvetica,sans-Serif" font-size="10.00">+</text>
<text text-anchor="start" x="90.75" y="-286.5" font-family="Helvetica,sans-Serif" font-size="10.00">JTextField getInternalText</text>
<text text-anchor="start" x="90.75" y="-274.5" font-family="Helvetica,sans-Serif" font-size="10.00">Field()</text>
<polygon fill="#666666" stroke="#666666" points="75,-370 75,-370 215.75,-370 215.75,-370 75,-370"/>
<polygon fill="#666666" stroke="#666666" points="75,-354 75,-354 88.75,-354 88.75,-354 75,-354"/>
<polygon fill="#666666" stroke="#666666" points="88.75,-354 88.75,-354 215.75,-354 215.75,-354 88.75,-354"/>
<polygon fill="none" stroke="#666666" points="75,-268 75,-400 215.75,-400 215.75,-268 75,-268"/>
</a>
</g>
</g>
<!-- Node3&#45;&gt;Node1 -->
<g id="edge2_Node000001_Node000003" class="edge">
<title>Node3&#45;&gt;Node1</title>
<g id="a_edge2_Node000001_Node000003"><a xlink:title=" ">
<path fill="none" stroke="#63b8ff" d="M124.66,-257.15C122.41,-248.91 120.08,-240.39 117.74,-231.82"/>
<polygon fill="none" stroke="#63b8ff" points="121.26,-258.01 127.27,-266.73 128.02,-256.16 121.26,-258.01"/>
</a>
</g>
</g>
</g>
</svg>
