<?xml version="1.0" encoding="UTF-8" standalone="no"?>
<!DOCTYPE svg PUBLIC "-//W3C//DTD SVG 1.1//EN"
 "http://www.w3.org/Graphics/SVG/1.1/DTD/svg11.dtd">
<!-- Generated by graphviz version 12.2.1 (20241206.2353)
 -->
<!-- Title: fr.softsf.canscan.service.AbstractQrCodeWorker.resetAndStartWorker Pages: 1 -->
<!--zoomable 202 -->

<svg id="main" version="1.1" xmlns="http://www.w3.org/2000/svg" xmlns:xlink="http://www.w3.org/1999/xlink" xml:space="preserve" onload="init(evt)">

<style type="text/css"><![CDATA[
.node, .edge {opacity: 0.7;}
.node.selected, .edge.selected {opacity: 1;}
.edge:hover path { stroke: red; }
.edge:hover polygon { stroke: red; fill: red; }
]]></style>

<defs>
  <circle id="rim" cx="0" cy="0" r="7"/>
  <circle id="rim2" cx="0" cy="0" r="3.5"/>
  <g id="zoomPlus">
    <use xlink:href="#rim" fill="#404040"><set attributeName="fill" to="#808080" begin="zoomplus.mouseover" end="zoomplus.mouseout"/></use>
    <path d="M-4,0h8M0,-4v8" fill="none" stroke="white" stroke-width="1.5" pointer-events="none"/>
  </g>
  <g id="zoomMin">
    <use xlink:href="#rim" fill="#404040"><set attributeName="fill" to="#808080" begin="zoomminus.mouseover" end="zoomminus.mouseout"/></use>
    <path d="M-4,0h8" fill="none" stroke="white" stroke-width="1.5" pointer-events="none"/>
  </g>
  <g id="arrowUp" transform="translate(30 24)">
    <use xlink:href="#rim"/>
    <path pointer-events="none" fill="none" stroke="white" stroke-width="1.5" d="M0,-3.0v7 M-2.5,-0.5L0,-3.0L2.5,-0.5"/>
  </g>
  <g id="arrowRight" transform="rotate(90) translate(36 -43)">
    <use xlink:href="#rim"/>
    <path pointer-events="none" fill="none" stroke="white" stroke-width="1.5" d="M0,-3.0v7 M-2.5,-0.5L0,-3.0L2.5,-0.5"/>
  </g>
  <g id="arrowDown" transform="rotate(180) translate(-30 -48)">
    <use xlink:href="#rim"/>
    <path pointer-events="none" fill="none" stroke="white" stroke-width="1.5" d="M0,-3.0v7 M-2.5,-0.5L0,-3.0L2.5,-0.5"/>
  </g>
  <g id="arrowLeft" transform="rotate(270) translate(-36 17)">
    <use xlink:href="#rim"/>
    <path pointer-events="none" fill="none" stroke="white" stroke-width="1.5" d="M0,-3.0v7 M-2.5,-0.5L0,-3.0L2.5,-0.5"/>
  </g>
  <g id="resetDef">
    <use xlink:href="#rim2" fill="#404040"><set attributeName="fill" to="#808080" begin="reset.mouseover" end="reset.mouseout"/></use>
  </g>
</defs>
<script type="application/ecmascript">
var viewWidth = 646;
var viewHeight = 202;
var sectionId = 'dynsection-4';
</script>
<script type="application/ecmascript" xlink:href="svg.min.js"/>
<svg id="graph" class="graph">
<g id="viewport">
<title>fr.softsf.canscan.service.AbstractQrCodeWorker.resetAndStartWorker</title>
<!-- Node1 -->
<g id="Node000001" class="node">
<title>Node1</title>
<g id="a_Node000001"><a xlink:title="Executes the unified workflow: cancel previous worker, stop debounce, clear resources,...">
<polygon fill="#999999" stroke="#666666" points="180.25,-150 0,-150 0,-106 180.25,-106 180.25,-150"/>
<text text-anchor="start" x="8" y="-136.5" font-family="Helvetica,sans-Serif" font-size="10.00">fr.softsf.canscan.service.</text>
<text text-anchor="start" x="8" y="-124.5" font-family="Helvetica,sans-Serif" font-size="10.00">AbstractQrCodeWorker.resetAndStart</text>
<text text-anchor="middle" x="90.12" y="-112.5" font-family="Helvetica,sans-Serif" font-size="10.00">Worker</text>
</a>
</g>
</g>
<!-- Node2 -->
<g id="Node000002" class="node">
<title>Node2</title>
<g id="a_Node000002"><a xlink:href="classfr_1_1softsf_1_1canscan_1_1service_1_1_abstract_qr_code_worker.html#a40caeb7994a66c7cfee85d78ce764026" target="_top" xlink:title="Creates and returns a new SwingWorker for the current operation.">
<polygon fill="white" stroke="#666666" points="394.25,-169 216.25,-169 216.25,-137 394.25,-137 394.25,-169"/>
<text text-anchor="start" x="224.25" y="-155.5" font-family="Helvetica,sans-Serif" font-size="10.00">fr.softsf.canscan.service.</text>
<text text-anchor="middle" x="305.25" y="-143.5" font-family="Helvetica,sans-Serif" font-size="10.00">AbstractQrCodeWorker.createWorker</text>
</a>
</g>
</g>
<!-- Node1&#45;&gt;Node2 -->
<g id="edge1_Node000001_Node000002" class="edge">
<title>Node1&#45;&gt;Node2</title>
<g id="a_edge1_Node000001_Node000002"><a xlink:title=" ">
<path fill="none" stroke="#63b8ff" d="M180.58,-138.49C188.56,-139.43 196.66,-140.38 204.72,-141.32"/>
<polygon fill="#63b8ff" stroke="#63b8ff" points="204.2,-144.79 214.54,-142.48 205.02,-137.84 204.2,-144.79"/>
</a>
</g>
</g>
<!-- Node3 -->
<g id="Node000003" class="node">
<title>Node3</title>
<g id="a_Node000003"><a xlink:href="classfr_1_1softsf_1_1canscan_1_1service_1_1_abstract_qr_code_worker.html#ad2923dae15a1315f89f6df73d846e87d" target="_top" xlink:title="Resets the current worker and associated resources.">
<polygon fill="white" stroke="#666666" points="391.62,-119 218.88,-119 218.88,-87 391.62,-87 391.62,-119"/>
<text text-anchor="start" x="226.88" y="-105.5" font-family="Helvetica,sans-Serif" font-size="10.00">fr.softsf.canscan.service.</text>
<text text-anchor="middle" x="305.25" y="-93.5" font-family="Helvetica,sans-Serif" font-size="10.00">AbstractQrCodeWorker.resetWorker</text>
</a>
</g>
</g>
<!-- Node1&#45;&gt;Node3 -->
<g id="edge2_Node000001_Node000003" class="edge">
<title>Node1&#45;&gt;Node3</title>
<g id="a_edge2_Node000001_Node000003"><a xlink:title=" ">
<path fill="none" stroke="#63b8ff" d="M180.58,-117.51C189.39,-116.47 198.36,-115.42 207.25,-114.38"/>
<polygon fill="#63b8ff" stroke="#63b8ff" points="207.4,-117.88 216.93,-113.24 206.59,-110.93 207.4,-117.88"/>
</a>
</g>
</g>
<!-- Node4 -->
<g id="Node000004" class="node">
<title>Node4</title>
<g id="a_Node000004"><a xlink:href="classfr_1_1softsf_1_1canscan_1_1service_1_1_abstract_qr_code_worker.html#af307a6f804bca23190b6408780c380d0" target="_top" xlink:title="Cancels the current SwingWorker and clears its reference safely.">
<polygon fill="white" stroke="#666666" points="624,-194 444.5,-194 444.5,-162 624,-162 624,-194"/>
<text text-anchor="start" x="452.5" y="-180.5" font-family="Helvetica,sans-Serif" font-size="10.00">fr.softsf.canscan.service.</text>
<text text-anchor="middle" x="534.25" y="-168.5" font-family="Helvetica,sans-Serif" font-size="10.00">AbstractQrCodeWorker.cancelWorker</text>
</a>
</g>
</g>
<!-- Node3&#45;&gt;Node4 -->
<g id="edge3_Node000003_Node000004" class="edge">
<title>Node3&#45;&gt;Node4</title>
<g id="a_edge3_Node000003_Node000004"><a xlink:title=" ">
<path fill="none" stroke="#63b8ff" d="M372.95,-119.4C380.27,-121.94 387.5,-124.81 394.25,-128 411.86,-136.33 412.48,-145.01 430.25,-153 434.04,-154.7 437.96,-156.3 441.96,-157.8"/>
<polygon fill="#63b8ff" stroke="#63b8ff" points="440.68,-161.06 451.28,-161.03 442.98,-154.45 440.68,-161.06"/>
</a>
</g>
</g>
<!-- Node5 -->
<g id="Node000005" class="node">
<title>Node5</title>
<g id="a_Node000005"><a xlink:href="classfr_1_1softsf_1_1canscan_1_1service_1_1_abstract_qr_code_worker.html#a63c4787bd3dbba55917dde56aa4ef5bc" target="_top" xlink:title="Clears any allocated data, icons, or buffers before starting a new task.">
<polygon fill="white" stroke="#666666" points="628.5,-144 440,-144 440,-112 628.5,-112 628.5,-144"/>
<text text-anchor="start" x="448" y="-130.5" font-family="Helvetica,sans-Serif" font-size="10.00">fr.softsf.canscan.service.</text>
<text text-anchor="middle" x="534.25" y="-118.5" font-family="Helvetica,sans-Serif" font-size="10.00">AbstractQrCodeWorker.clearResources</text>
</a>
</g>
</g>
<!-- Node3&#45;&gt;Node5 -->
<g id="edge4_Node000003_Node000005" class="edge">
<title>Node3&#45;&gt;Node5</title>
<g id="a_edge4_Node000003_Node000005"><a xlink:title=" ">
<path fill="none" stroke="#63b8ff" d="M392.07,-112.45C403.99,-113.76 416.34,-115.12 428.56,-116.47"/>
<polygon fill="#63b8ff" stroke="#63b8ff" points="427.9,-119.92 438.22,-117.53 428.66,-112.96 427.9,-119.92"/>
</a>
</g>
</g>
<!-- Node6 -->
<g id="Node000006" class="node">
<title>Node6</title>
<g id="a_Node000006"><a xlink:href="classfr_1_1softsf_1_1canscan_1_1service_1_1_abstract_qr_code_worker.html#ab11bed09d0e3e1f74e1fb72fdeec8245" target="_top" xlink:title="Stops and clears the debounce timer.">
<polygon fill="white" stroke="#666666" points="638.25,-94 430.25,-94 430.25,-62 638.25,-62 638.25,-94"/>
<text text-anchor="start" x="438.25" y="-80.5" font-family="Helvetica,sans-Serif" font-size="10.00">fr.softsf.canscan.service.</text>
<text text-anchor="middle" x="534.25" y="-68.5" font-family="Helvetica,sans-Serif" font-size="10.00">AbstractQrCodeWorker.stopDebounceTimer</text>
</a>
</g>
</g>
<!-- Node3&#45;&gt;Node6 -->
<g id="edge5_Node000003_Node000006" class="edge">
<title>Node3&#45;&gt;Node6</title>
<g id="a_edge5_Node000003_Node000006"><a xlink:title=" ">
<path fill="none" stroke="#63b8ff" d="M392.07,-93.55C400.81,-92.59 409.78,-91.6 418.76,-90.61"/>
<polygon fill="#63b8ff" stroke="#63b8ff" points="419.06,-94.1 428.62,-89.52 418.3,-87.14 419.06,-94.1"/>
</a>
</g>
</g>
<!-- Node7 -->
<g id="Node000007" class="node">
<title>Node7</title>
<g id="a_Node000007"><a xlink:href="classfr_1_1softsf_1_1canscan_1_1service_1_1_abstract_qr_code_worker.html#a3ecd1b3ddd1dbf2c2a1e9487ae4bfd59" target="_top" xlink:title="Stops the loader&#39;s wait indicator if assigned.">
<polygon fill="white" stroke="#666666" points="618.38,-44 450.12,-44 450.12,0 618.38,0 618.38,-44"/>
<text text-anchor="start" x="458.12" y="-30.5" font-family="Helvetica,sans-Serif" font-size="10.00">fr.softsf.canscan.service.</text>
<text text-anchor="start" x="458.12" y="-18.5" font-family="Helvetica,sans-Serif" font-size="10.00">AbstractQrCodeWorker.stopLoader</text>
<text text-anchor="middle" x="534.25" y="-6.5" font-family="Helvetica,sans-Serif" font-size="10.00">IfPresent</text>
</a>
</g>
</g>
<!-- Node3&#45;&gt;Node7 -->
<g id="edge6_Node000003_Node000007" class="edge">
<title>Node3&#45;&gt;Node7</title>
<g id="a_edge6_Node000003_Node000007"><a xlink:title=" ">
<path fill="none" stroke="#63b8ff" d="M344.45,-86.55C368.79,-76.33 401.12,-63.23 430.25,-53 435.17,-51.27 440.24,-49.55 445.36,-47.86"/>
<polygon fill="#63b8ff" stroke="#63b8ff" points="446.07,-51.31 454.51,-44.9 443.92,-44.65 446.07,-51.31"/>
</a>
</g>
</g>
</g>
</svg>

<g id="navigator" transform="translate(0 0)" fill="#404254">
  <rect fill="#f2f5e9" fill-opacity="0.5" stroke="#606060" stroke-width=".5" x="0" y="0" width="60" height="60"/>
  <use id="zoomplus" xlink:href="#zoomPlus" x="17" y="9" onmousedown="handleZoom(evt,'in')"/>
  <use id="zoomminus" xlink:href="#zoomMin" x="42" y="9" onmousedown="handleZoom(evt,'out')"/>
  <use id="reset" xlink:href="#resetDef" x="30" y="36" onmousedown="handleReset()"/>
   <use id="arrowup" xlink:href="#arrowUp" x="0" y="0" onmousedown="handlePan(0,-1)"/>
  <use id="arrowright" xlink:href="#arrowRight" x="0" y="0" onmousedown="handlePan(1,0)"/>
  <use id="arrowdown" xlink:href="#arrowDown" x="0" y="0" onmousedown="handlePan(0,1)"/>
  <use id="arrowleft" xlink:href="#arrowLeft" x="0" y="0" onmousedown="handlePan(-1,0)"/>
</g>
<svg viewBox="0 0 15 15" width="100%" height="30px" preserveAspectRatio="xMaxYMin meet">
 <g id="arrow_out" transform="scale(0.3 0.3)">
  <a xlink:href="classfr_1_1softsf_1_1canscan_1_1service_1_1_abstract_qr_code_worker_a6558af04f7318a4f74547c95778fed7c_cgraph_org.svg" target="_base">
   <rect id="button" ry="5" rx="5" y="6" x="6" height="38" width="38"
        fill="#f2f5e9" fill-opacity="0.5" stroke="#606060" stroke-width="1.0"/>
   <path id="arrow"
     d="M 11.500037,31.436501 C 11.940474,20.09759 22.043105,11.32322 32.158766,21.979434 L 37.068811,17.246167 C 37.068811,17.246167 37.088388,32 37.088388,32 L 22.160133,31.978069 C 22.160133,31.978069 26.997745,27.140456 26.997745,27.140456 C 18.528582,18.264221 13.291696,25.230495 11.500037,31.436501 z"
     style="fill:#404040;"/>
  </a>
 </g>
</svg>

<style type='text/css'>
<![CDATA[
[data-mouse-over-selected='false'] { opacity: 0.7; }
[data-mouse-over-selected='true']  { opacity: 1.0; }
]]>
</style>
<script type="application/ecmascript"><![CDATA[
document.addEventListener('DOMContentLoaded', (event) => {
  highlightEdges();
  highlightAdjacentNodes();
});
]]></script>
</svg>
