<?xml version="1.0" encoding="UTF-8" standalone="no"?>
<!DOCTYPE svg PUBLIC "-//W3C//DTD SVG 1.1//EN"
 "http://www.w3.org/Graphics/SVG/1.1/DTD/svg11.dtd">
<!-- Generated by graphviz version 12.2.1 (20241206.2353)
 -->
<!-- Title: fr.softsf.canscan.CanScan.CanScan Pages: 1 -->
<svg width="1167pt" height="400pt"
 viewBox="0.00 0.00 1166.75 399.82" xmlns="http://www.w3.org/2000/svg" xmlns:xlink="http://www.w3.org/1999/xlink">
<g id="graph0" class="graph" transform="scale(1 1) rotate(0) translate(4 395.82)">
<title>fr.softsf.canscan.CanScan.CanScan</title>
<!-- Node1 -->
<g id="Node000001" class="node">
<title>Node1</title>
<g id="a_Node000001"><a xlink:title="Initializes the CanScan GUI.">
<polygon fill="#999999" stroke="#666666" points="136,-214 0,-214 0,-182 136,-182 136,-214"/>
<text text-anchor="start" x="8" y="-200.5" font-family="Helvetica,sans-Serif" font-size="10.00">fr.softsf.canscan.CanScan.</text>
<text text-anchor="middle" x="68" y="-188.5" font-family="Helvetica,sans-Serif" font-size="10.00">CanScan</text>
</a>
</g>
</g>
<!-- Node1&#45;&gt;Node1 -->
<g id="edge1_Node000001_Node000001" class="edge">
<title>Node1&#45;&gt;Node1</title>
<g id="a_edge1_Node000001_Node000001"><a xlink:title=" ">
<path fill="none" stroke="#63b8ff" d="M32.61,-214.44C26,-223.58 37.8,-232 68,-232 84.52,-232 95.53,-229.48 101.04,-225.71"/>
<polygon fill="#63b8ff" stroke="#63b8ff" points="104.46,-226.43 103.08,-215.92 97.61,-225 104.46,-226.43"/>
</a>
</g>
</g>
<!-- Node2 -->
<g id="Node000002" class="node">
<title>Node2</title>
<g id="a_Node000002"><a xlink:href="classfr_1_1softsf_1_1canscan_1_1_can_scan.html#a2732ecdc4490a717352975e68fce494c" target="_top" xlink:title="Adds a labeled component row to a panel using GridBagLayout.">
<polygon fill="white" stroke="#666666" points="568.5,-352 396.5,-352 396.5,-332 568.5,-332 568.5,-352"/>
<text text-anchor="middle" x="482.5" y="-338.5" font-family="Helvetica,sans-Serif" font-size="10.00">fr.softsf.canscan.CanScan.addRow</text>
</a>
</g>
</g>
<!-- Node1&#45;&gt;Node2 -->
<g id="edge2_Node000001_Node000002" class="edge">
<title>Node1&#45;&gt;Node2</title>
<g id="a_edge2_Node000001_Node000002"><a xlink:title=" ">
<path fill="none" stroke="#63b8ff" d="M73.18,-214.42C83.21,-249.97 112.38,-333.52 172,-367 260.72,-416.83 386.86,-379.59 447.02,-356.58"/>
<polygon fill="#63b8ff" stroke="#63b8ff" points="448.02,-359.95 456.05,-353.03 445.46,-353.43 448.02,-359.95"/>
</a>
</g>
</g>
<!-- Node3 -->
<g id="Node000003" class="node">
<title>Node3</title>
<g id="a_Node000003"><a xlink:href="classfr_1_1softsf_1_1canscan_1_1_can_scan.html#ad77dc63cc1aac70e3833d39005d42f25" target="_top" xlink:title="Constructs the application window title using metadata from the version properties.">
<polygon fill="white" stroke="#666666" points="344.38,-258 188.12,-258 188.12,-226 344.38,-226 344.38,-258"/>
<text text-anchor="start" x="196.12" y="-244.5" font-family="Helvetica,sans-Serif" font-size="10.00">fr.softsf.canscan.CanScan.build</text>
<text text-anchor="middle" x="266.25" y="-232.5" font-family="Helvetica,sans-Serif" font-size="10.00">Title</text>
</a>
</g>
</g>
<!-- Node1&#45;&gt;Node3 -->
<g id="edge3_Node000001_Node000003" class="edge">
<title>Node1&#45;&gt;Node3</title>
<g id="a_edge3_Node000001_Node000003"><a xlink:title=" ">
<path fill="none" stroke="#63b8ff" d="M136.26,-213.08C150.5,-216.27 165.7,-219.68 180.49,-223"/>
<polygon fill="#63b8ff" stroke="#63b8ff" points="179.69,-226.4 190.22,-225.18 181.22,-219.57 179.69,-226.4"/>
</a>
</g>
</g>
<!-- Node5 -->
<g id="Node000005" class="node">
<title>Node5</title>
<g id="a_Node000005"><a xlink:href="classfr_1_1softsf_1_1canscan_1_1_can_scan.html#a2d26dcd1ae708eae46dba8952351aa1a" target="_top" xlink:title="Builds and returns a QrInput object containing all current user inputs and settings.">
<polygon fill="white" stroke="#666666" points="947.75,-154 798.25,-154 798.25,-122 947.75,-122 947.75,-154"/>
<text text-anchor="start" x="806.25" y="-140.5" font-family="Helvetica,sans-Serif" font-size="10.00">fr.softsf.canscan.CanScan.get</text>
<text text-anchor="middle" x="873" y="-128.5" font-family="Helvetica,sans-Serif" font-size="10.00">QrInput</text>
</a>
</g>
</g>
<!-- Node1&#45;&gt;Node5 -->
<g id="edge6_Node000001_Node000005" class="edge">
<title>Node1&#45;&gt;Node5</title>
<g id="a_edge6_Node000001_Node000005"><a xlink:title=" ">
<path fill="none" stroke="#63b8ff" d="M136.43,-192.96C282.15,-182.07 626.21,-156.37 786.74,-144.37"/>
<polygon fill="#63b8ff" stroke="#63b8ff" points="786.76,-147.88 796.47,-143.64 786.24,-140.9 786.76,-147.88"/>
</a>
</g>
</g>
<!-- Node10 -->
<g id="Node000010" class="node">
<title>Node10</title>
<g id="a_Node000010"><a xlink:href="classfr_1_1softsf_1_1canscan_1_1_can_scan.html#addd7b7d7f9cc810756dbbb66218414d4" target="_top" xlink:title="Initializes the FREE mode input panel with a multiline text area for arbitrary text or URLs.">
<polygon fill="white" stroke="#666666" points="340.62,-358 191.88,-358 191.88,-326 340.62,-326 340.62,-358"/>
<text text-anchor="start" x="199.88" y="-344.5" font-family="Helvetica,sans-Serif" font-size="10.00">fr.softsf.canscan.CanScan.init</text>
<text text-anchor="middle" x="266.25" y="-332.5" font-family="Helvetica,sans-Serif" font-size="10.00">FreeCard</text>
</a>
</g>
</g>
<!-- Node1&#45;&gt;Node10 -->
<g id="edge11_Node000001_Node000010" class="edge">
<title>Node1&#45;&gt;Node10</title>
<g id="a_edge11_Node000001_Node000010"><a xlink:title=" ">
<path fill="none" stroke="#63b8ff" d="M78.49,-214.19C94.45,-239.97 129.16,-290.16 172,-317 174.96,-318.85 178.05,-320.57 181.24,-322.16"/>
<polygon fill="#63b8ff" stroke="#63b8ff" points="179.75,-325.33 190.31,-326.21 182.61,-318.94 179.75,-325.33"/>
</a>
</g>
</g>
<!-- Node11 -->
<g id="Node000011" class="node">
<title>Node11</title>
<g id="a_Node000011"><a xlink:href="classfr_1_1softsf_1_1canscan_1_1_can_scan.html#a4047170747f52f54ee69ddbc834c5373" target="_top" xlink:title="Sets up automatic QR code preview updates for all input fields and controls.">
<polygon fill="white" stroke="#666666" points="351.88,-132 180.62,-132 180.62,-100 351.88,-100 351.88,-132"/>
<text text-anchor="start" x="188.62" y="-118.5" font-family="Helvetica,sans-Serif" font-size="10.00">fr.softsf.canscan.CanScan.initialize</text>
<text text-anchor="middle" x="266.25" y="-106.5" font-family="Helvetica,sans-Serif" font-size="10.00">AutomaticQRCodeRendering</text>
</a>
</g>
</g>
<!-- Node1&#45;&gt;Node11 -->
<g id="edge13_Node000001_Node000011" class="edge">
<title>Node1&#45;&gt;Node11</title>
<g id="a_edge13_Node000001_Node000011"><a xlink:title=" ">
<path fill="none" stroke="#63b8ff" d="M98.18,-181.73C118.49,-170.78 146.43,-156.49 172,-146 180.59,-142.47 189.77,-139.09 198.88,-135.94"/>
<polygon fill="#63b8ff" stroke="#63b8ff" points="199.71,-139.35 208.08,-132.84 197.48,-132.72 199.71,-139.35"/>
</a>
</g>
</g>
<!-- Node16 -->
<g id="Node000016" class="node">
<title>Node16</title>
<g id="a_Node000016"><a xlink:href="classfr_1_1softsf_1_1canscan_1_1_can_scan.html#ab78c47588f2cb82b4395a1268b3c4ca4" target="_top" xlink:title="Initializes the MECARD input panel with labeled text fields for structured contact information.">
<polygon fill="white" stroke="#666666" points="340.62,-308 191.88,-308 191.88,-276 340.62,-276 340.62,-308"/>
<text text-anchor="start" x="199.88" y="-294.5" font-family="Helvetica,sans-Serif" font-size="10.00">fr.softsf.canscan.CanScan.init</text>
<text text-anchor="middle" x="266.25" y="-282.5" font-family="Helvetica,sans-Serif" font-size="10.00">Mecard</text>
</a>
</g>
</g>
<!-- Node1&#45;&gt;Node16 -->
<g id="edge19_Node000001_Node000016" class="edge">
<title>Node1&#45;&gt;Node16</title>
<g id="a_edge19_Node000001_Node000016"><a xlink:title=" ">
<path fill="none" stroke="#63b8ff" d="M89.11,-214.41C109.06,-229.96 141.03,-252.94 172,-267 175.73,-268.69 179.6,-270.29 183.54,-271.8"/>
<polygon fill="#63b8ff" stroke="#63b8ff" points="182.1,-275 192.7,-275.06 184.45,-268.4 182.1,-275"/>
</a>
</g>
</g>
<!-- Node17 -->
<g id="Node000017" class="node">
<title>Node17</title>
<g id="a_Node000017"><a xlink:href="classfr_1_1softsf_1_1canscan_1_1_can_scan.html#abbe4fb71ad979d6affed0b2c9629b832" target="_top" xlink:title="Updates the tooltip of the ratio slider to reflect its current value as a percentage.">
<polygon fill="white" stroke="#666666" points="341,-41 191.5,-41 191.5,-9 341,-9 341,-41"/>
<text text-anchor="start" x="199.5" y="-27.5" font-family="Helvetica,sans-Serif" font-size="10.00">fr.softsf.canscan.CanScan.set</text>
<text text-anchor="middle" x="266.25" y="-15.5" font-family="Helvetica,sans-Serif" font-size="10.00">RatioSliderTooltipValue</text>
</a>
</g>
</g>
<!-- Node1&#45;&gt;Node17 -->
<g id="edge21_Node000001_Node000017" class="edge">
<title>Node1&#45;&gt;Node17</title>
<g id="a_edge21_Node000001_Node000017"><a xlink:title=" ">
<path fill="none" stroke="#63b8ff" d="M75.66,-181.83C89.12,-151.21 122.56,-84.73 172,-50 174.86,-47.99 177.87,-46.15 180.98,-44.45"/>
<polygon fill="#63b8ff" stroke="#63b8ff" points="182.39,-47.66 189.89,-40.17 179.36,-41.35 182.39,-47.66"/>
</a>
</g>
</g>
<!-- Node18 -->
<g id="Node000018" class="node">
<title>Node18</title>
<g id="a_Node000018"><a xlink:href="classfr_1_1softsf_1_1canscan_1_1_can_scan.html#a428c742b098fa27d4c8984c1030c238d" target="_top" xlink:title="Switches the application between MECARD and FREE QR code modes.">
<polygon fill="white" stroke="#666666" points="360.5,-79 172,-79 172,-59 360.5,-59 360.5,-79"/>
<text text-anchor="middle" x="266.25" y="-65.5" font-family="Helvetica,sans-Serif" font-size="10.00">fr.softsf.canscan.CanScan.switchMode</text>
</a>
</g>
</g>
<!-- Node1&#45;&gt;Node18 -->
<g id="edge22_Node000001_Node000018" class="edge">
<title>Node1&#45;&gt;Node18</title>
<g id="a_edge22_Node000001_Node000018"><a xlink:title=" ">
<path fill="none" stroke="#63b8ff" d="M79.9,-181.78C96.75,-158.03 131.45,-114.11 172,-91 177.33,-87.96 183.06,-85.34 188.96,-83.09"/>
<polygon fill="#63b8ff" stroke="#63b8ff" points="189.96,-86.44 198.29,-79.89 187.7,-79.82 189.96,-86.44"/>
</a>
</g>
</g>
<!-- Node4 -->
<g id="Node000004" class="node">
<title>Node4</title>
<g id="a_Node000004"><a xlink:href="classfr_1_1softsf_1_1canscan_1_1_can_scan.html#aefe4d08d96fdc7b2097daf4033bbbb9c" target="_top" xlink:title="Loads application metadata from the version.properties file.">
<polygon fill="white" stroke="#666666" points="557.25,-239 407.75,-239 407.75,-207 557.25,-207 557.25,-239"/>
<text text-anchor="start" x="415.75" y="-225.5" font-family="Helvetica,sans-Serif" font-size="10.00">fr.softsf.canscan.CanScan.get</text>
<text text-anchor="middle" x="482.5" y="-213.5" font-family="Helvetica,sans-Serif" font-size="10.00">ManifestKeys</text>
</a>
</g>
</g>
<!-- Node3&#45;&gt;Node4 -->
<g id="edge4_Node000003_Node000004" class="edge">
<title>Node3&#45;&gt;Node4</title>
<g id="a_edge4_Node000003_Node000004"><a xlink:title=" ">
<path fill="none" stroke="#63b8ff" d="M344.6,-235.14C361.41,-233.65 379.29,-232.06 396.38,-230.55"/>
<polygon fill="#63b8ff" stroke="#63b8ff" points="396.33,-234.07 405.98,-229.7 395.71,-227.09 396.33,-234.07"/>
</a>
</g>
</g>
<!-- Node4&#45;&gt;Node1 -->
<g id="edge5_Node000004_Node000001" class="edge">
<title>Node4&#45;&gt;Node1</title>
<g id="a_edge5_Node000004_Node000001"><a xlink:title=" ">
<path fill="none" stroke="#63b8ff" d="M407.36,-218.51C334.02,-214.06 222.2,-207.28 147.41,-202.75"/>
<polygon fill="#63b8ff" stroke="#63b8ff" points="147.9,-199.28 137.7,-202.16 147.47,-206.26 147.9,-199.28"/>
</a>
</g>
</g>
<!-- Node6 -->
<g id="Node000006" class="node">
<title>Node6</title>
<g id="a_Node000006"><a xlink:href="classfr_1_1softsf_1_1canscan_1_1_can_scan.html#a22606ca129489c778fbbe17cb8b70697" target="_top" xlink:title="Calculates the available height for QR code rendering.">
<polygon fill="white" stroke="#666666" points="1158.75,-229 983.75,-229 983.75,-197 1158.75,-197 1158.75,-229"/>
<text text-anchor="start" x="991.75" y="-215.5" font-family="Helvetica,sans-Serif" font-size="10.00">fr.softsf.canscan.CanScan.calculate</text>
<text text-anchor="middle" x="1071.25" y="-203.5" font-family="Helvetica,sans-Serif" font-size="10.00">AvailableQrHeight</text>
</a>
</g>
</g>
<!-- Node5&#45;&gt;Node6 -->
<g id="edge7_Node000005_Node000006" class="edge">
<title>Node5&#45;&gt;Node6</title>
<g id="a_edge7_Node000005_Node000006"><a xlink:title=" ">
<path fill="none" stroke="#63b8ff" d="M906.61,-154.38C928.17,-164.82 957.24,-178.19 983.75,-188 988.62,-189.8 993.69,-191.56 998.82,-193.25"/>
<polygon fill="#63b8ff" stroke="#63b8ff" points="997.36,-196.46 1007.95,-196.17 999.49,-189.79 997.36,-196.46"/>
</a>
</g>
</g>
<!-- Node7 -->
<g id="Node000007" class="node">
<title>Node7</title>
<g id="a_Node000007"><a xlink:href="classfr_1_1softsf_1_1canscan_1_1_can_scan.html#a4e67b1b5c764e72414a5c0f387810f5c" target="_top" xlink:title="Validates and returns the current QR code margin from the margin slider.">
<polygon fill="white" stroke="#666666" points="1156.12,-179 986.38,-179 986.38,-147 1156.12,-147 1156.12,-179"/>
<text text-anchor="start" x="994.38" y="-165.5" font-family="Helvetica,sans-Serif" font-size="10.00">fr.softsf.canscan.CanScan.validate</text>
<text text-anchor="middle" x="1071.25" y="-153.5" font-family="Helvetica,sans-Serif" font-size="10.00">AndGetMargin</text>
</a>
</g>
</g>
<!-- Node5&#45;&gt;Node7 -->
<g id="edge8_Node000005_Node000007" class="edge">
<title>Node5&#45;&gt;Node7</title>
<g id="a_edge8_Node000005_Node000007"><a xlink:title=" ">
<path fill="none" stroke="#63b8ff" d="M948.19,-147.45C956.89,-148.56 965.86,-149.7 974.8,-150.84"/>
<polygon fill="#63b8ff" stroke="#63b8ff" points="974.22,-154.3 984.58,-152.09 975.1,-147.35 974.22,-154.3"/>
</a>
</g>
</g>
<!-- Node8 -->
<g id="Node000008" class="node">
<title>Node8</title>
<g id="a_Node000008"><a xlink:href="classfr_1_1softsf_1_1canscan_1_1_can_scan.html#a9e8188875168199cde065113ae2a393d" target="_top" xlink:title="Validates and returns the current image&#45;to&#45;QR ratio from the ratio slider.">
<polygon fill="white" stroke="#666666" points="1156.12,-129 986.38,-129 986.38,-97 1156.12,-97 1156.12,-129"/>
<text text-anchor="start" x="994.38" y="-115.5" font-family="Helvetica,sans-Serif" font-size="10.00">fr.softsf.canscan.CanScan.validate</text>
<text text-anchor="middle" x="1071.25" y="-103.5" font-family="Helvetica,sans-Serif" font-size="10.00">AndGetRatio</text>
</a>
</g>
</g>
<!-- Node5&#45;&gt;Node8 -->
<g id="edge9_Node000005_Node000008" class="edge">
<title>Node5&#45;&gt;Node8</title>
<g id="a_edge9_Node000005_Node000008"><a xlink:title=" ">
<path fill="none" stroke="#63b8ff" d="M948.19,-128.55C956.89,-127.44 965.86,-126.3 974.8,-125.16"/>
<polygon fill="#63b8ff" stroke="#63b8ff" points="975.1,-128.65 984.58,-123.91 974.22,-121.7 975.1,-128.65"/>
</a>
</g>
</g>
<!-- Node9 -->
<g id="Node000009" class="node">
<title>Node9</title>
<g id="a_Node000009"><a xlink:href="classfr_1_1softsf_1_1canscan_1_1_can_scan.html#a6d139bb8d0a3c7081096c8956189b684" target="_top" xlink:title="Validates and returns the QR code size from the corresponding text field.">
<polygon fill="white" stroke="#666666" points="1156.12,-79 986.38,-79 986.38,-47 1156.12,-47 1156.12,-79"/>
<text text-anchor="start" x="994.38" y="-65.5" font-family="Helvetica,sans-Serif" font-size="10.00">fr.softsf.canscan.CanScan.validate</text>
<text text-anchor="middle" x="1071.25" y="-53.5" font-family="Helvetica,sans-Serif" font-size="10.00">AndGetSize</text>
</a>
</g>
</g>
<!-- Node5&#45;&gt;Node9 -->
<g id="edge10_Node000005_Node000009" class="edge">
<title>Node5&#45;&gt;Node9</title>
<g id="a_edge10_Node000005_Node000009"><a xlink:title=" ">
<path fill="none" stroke="#63b8ff" d="M906.61,-121.62C928.17,-111.18 957.24,-97.81 983.75,-88 988.62,-86.2 993.69,-84.44 998.82,-82.75"/>
<polygon fill="#63b8ff" stroke="#63b8ff" points="999.49,-86.21 1007.95,-79.83 997.36,-79.54 999.49,-86.21"/>
</a>
</g>
</g>
<!-- Node10&#45;&gt;Node2 -->
<g id="edge12_Node000010_Node000002" class="edge">
<title>Node10&#45;&gt;Node2</title>
<g id="a_edge12_Node000010_Node000002"><a xlink:title=" ">
<path fill="none" stroke="#63b8ff" d="M340.98,-342C355.16,-342 370.21,-342 384.98,-342"/>
<polygon fill="#63b8ff" stroke="#63b8ff" points="384.7,-345.5 394.7,-342 384.7,-338.5 384.7,-345.5"/>
</a>
</g>
</g>
<!-- Node12 -->
<g id="Node000012" class="node">
<title>Node12</title>
<g id="a_Node000012"><a xlink:href="classfr_1_1softsf_1_1canscan_1_1_can_scan.html#a9856545d05ef553c8dfddd95a850a360" target="_top" xlink:title="Creates a minimal DocumentListener that executes the given action on any document change.">
<polygon fill="white" stroke="#666666" points="564.75,-132 400.25,-132 400.25,-100 564.75,-100 564.75,-132"/>
<text text-anchor="start" x="408.25" y="-118.5" font-family="Helvetica,sans-Serif" font-size="10.00">fr.softsf.canscan.CanScan.simple</text>
<text text-anchor="middle" x="482.5" y="-106.5" font-family="Helvetica,sans-Serif" font-size="10.00">DocumentListener</text>
</a>
</g>
</g>
<!-- Node11&#45;&gt;Node12 -->
<g id="edge14_Node000011_Node000012" class="edge">
<title>Node11&#45;&gt;Node12</title>
<g id="a_edge14_Node000011_Node000012"><a xlink:title=" ">
<path fill="none" stroke="#63b8ff" d="M352.23,-116C364.1,-116 376.34,-116 388.35,-116"/>
<polygon fill="#63b8ff" stroke="#63b8ff" points="388.25,-119.5 398.25,-116 388.25,-112.5 388.25,-119.5"/>
</a>
</g>
</g>
<!-- Node13 -->
<g id="Node000013" class="node">
<title>Node13</title>
<g id="a_Node000013"><a xlink:href="classfr_1_1softsf_1_1canscan_1_1_can_scan.html#a9ac2e28615c970404a4408245e62a6fc" target="_top" xlink:title="Schedules a debounced QR code preview update based on the current input and settings.">
<polygon fill="white" stroke="#666666" points="565.12,-82 399.88,-82 399.88,-50 565.12,-50 565.12,-82"/>
<text text-anchor="start" x="407.88" y="-68.5" font-family="Helvetica,sans-Serif" font-size="10.00">fr.softsf.canscan.CanScan.update</text>
<text text-anchor="middle" x="482.5" y="-56.5" font-family="Helvetica,sans-Serif" font-size="10.00">PreviewQRCode</text>
</a>
</g>
</g>
<!-- Node11&#45;&gt;Node13 -->
<g id="edge15_Node000011_Node000013" class="edge">
<title>Node11&#45;&gt;Node13</title>
<g id="a_edge15_Node000011_Node000013"><a xlink:title=" ">
<path fill="none" stroke="#63b8ff" d="M337.7,-99.56C357.56,-94.92 379.34,-89.84 399.8,-85.07"/>
<polygon fill="#63b8ff" stroke="#63b8ff" points="400.59,-88.48 409.53,-82.79 399,-81.66 400.59,-88.48"/>
</a>
</g>
</g>
<!-- Node14 -->
<g id="Node000014" class="node">
<title>Node14</title>
<g id="a_Node000014"><a xlink:href="classfr_1_1softsf_1_1canscan_1_1_can_scan.html#aba5b2671745886284c444b8e3bec80e2" target="_top" xlink:title="Frees the QR code image and its label icon to release memory.">
<polygon fill="white" stroke="#666666" points="759.62,-82 607.12,-82 607.12,-50 759.62,-50 759.62,-82"/>
<text text-anchor="start" x="615.12" y="-68.5" font-family="Helvetica,sans-Serif" font-size="10.00">fr.softsf.canscan.CanScan.free</text>
<text text-anchor="middle" x="683.38" y="-56.5" font-family="Helvetica,sans-Serif" font-size="10.00">QrOriginalAndQrCodeLabel</text>
</a>
</g>
</g>
<!-- Node13&#45;&gt;Node14 -->
<g id="edge16_Node000013_Node000014" class="edge">
<title>Node13&#45;&gt;Node14</title>
<g id="a_edge16_Node000013_Node000014"><a xlink:title=" ">
<path fill="none" stroke="#63b8ff" d="M565.54,-66C575.49,-66 585.68,-66 595.69,-66"/>
<polygon fill="#63b8ff" stroke="#63b8ff" points="595.39,-69.5 605.39,-66 595.39,-62.5 595.39,-69.5"/>
</a>
</g>
</g>
<!-- Node15 -->
<g id="Node000015" class="node">
<title>Node15</title>
<g id="a_Node000015"><a xlink:href="classfr_1_1softsf_1_1canscan_1_1_can_scan.html#a42d6a5e11bc8f147bed036366316564f" target="_top" xlink:title="Clears the current QR code display and starts a background worker to generate a new preview.">
<polygon fill="white" stroke="#666666" points="762.25,-132 604.5,-132 604.5,-100 762.25,-100 762.25,-132"/>
<text text-anchor="start" x="612.5" y="-118.5" font-family="Helvetica,sans-Serif" font-size="10.00">fr.softsf.canscan.CanScan.reset</text>
<text text-anchor="middle" x="683.38" y="-106.5" font-family="Helvetica,sans-Serif" font-size="10.00">AndStartPreviewWorker</text>
</a>
</g>
</g>
<!-- Node13&#45;&gt;Node15 -->
<g id="edge17_Node000013_Node000015" class="edge">
<title>Node13&#45;&gt;Node15</title>
<g id="a_edge17_Node000013_Node000015"><a xlink:title=" ">
<path fill="none" stroke="#63b8ff" d="M548.89,-82.44C567.16,-87.03 587.17,-92.06 606.01,-96.8"/>
<polygon fill="#63b8ff" stroke="#63b8ff" points="604.92,-100.14 615.47,-99.18 606.63,-93.35 604.92,-100.14"/>
</a>
</g>
</g>
<!-- Node15&#45;&gt;Node5 -->
<g id="edge18_Node000015_Node000005" class="edge">
<title>Node15&#45;&gt;Node5</title>
<g id="a_edge18_Node000015_Node000005"><a xlink:title=" ">
<path fill="none" stroke="#63b8ff" d="M762.59,-125.17C770.51,-126.1 778.59,-127.05 786.59,-127.99"/>
<polygon fill="#63b8ff" stroke="#63b8ff" points="785.98,-131.44 796.32,-129.13 786.79,-124.49 785.98,-131.44"/>
</a>
</g>
</g>
<!-- Node16&#45;&gt;Node2 -->
<g id="edge20_Node000016_Node000002" class="edge">
<title>Node16&#45;&gt;Node2</title>
<g id="a_edge20_Node000016_Node000002"><a xlink:title=" ">
<path fill="none" stroke="#63b8ff" d="M337.7,-308.44C366.19,-315.09 398.62,-322.66 425.47,-328.92"/>
<polygon fill="#63b8ff" stroke="#63b8ff" points="424.59,-332.31 435.13,-331.18 426.18,-325.5 424.59,-332.31"/>
</a>
</g>
</g>
<!-- Node18&#45;&gt;Node13 -->
<g id="edge24_Node000018_Node000013" class="edge">
<title>Node18&#45;&gt;Node13</title>
<g id="a_edge24_Node000018_Node000013"><a xlink:title=" ">
<path fill="none" stroke="#63b8ff" d="M360.91,-67.69C369.94,-67.56 379.09,-67.43 388.12,-67.31"/>
<polygon fill="#63b8ff" stroke="#63b8ff" points="387.99,-70.81 397.94,-67.17 387.89,-63.81 387.99,-70.81"/>
</a>
</g>
</g>
<!-- Node19 -->
<g id="Node000019" class="node">
<title>Node19</title>
<g id="a_Node000019"><a xlink:href="enumfr_1_1softsf_1_1canscan_1_1model_1_1_mode.html#a16a898a11ca939056bd7b275f11ea54c" target="_top" xlink:title="Returns the name of the mode as a string.">
<polygon fill="white" stroke="#666666" points="543.38,-32 421.62,-32 421.62,0 543.38,0 543.38,-32"/>
<text text-anchor="start" x="429.62" y="-18.5" font-family="Helvetica,sans-Serif" font-size="10.00">fr.softsf.canscan.model.</text>
<text text-anchor="middle" x="482.5" y="-6.5" font-family="Helvetica,sans-Serif" font-size="10.00">Mode.text</text>
</a>
</g>
</g>
<!-- Node18&#45;&gt;Node19 -->
<g id="edge23_Node000018_Node000019" class="edge">
<title>Node18&#45;&gt;Node19</title>
<g id="a_edge23_Node000018_Node000019"><a xlink:title=" ">
<path fill="none" stroke="#63b8ff" d="M322.13,-58.51C334.77,-55.9 348.14,-52.99 360.5,-50 378.41,-45.66 397.68,-40.49 415.46,-35.5"/>
<polygon fill="#63b8ff" stroke="#63b8ff" points="416.18,-38.93 424.85,-32.84 414.27,-32.2 416.18,-38.93"/>
</a>
</g>
</g>
</g>
</svg>
