<?xml version="1.0" encoding="UTF-8" standalone="no"?>
<!DOCTYPE svg PUBLIC "-//W3C//DTD SVG 1.1//EN"
 "http://www.w3.org/Graphics/SVG/1.1/DTD/svg11.dtd">
<!-- Generated by graphviz version 12.2.1 (20241206.2353)
 -->
<!-- Title: fr.softsf.canscan.service.GenerateAndSaveService.generateAndSave Pages: 1 -->
<!--zoomable 152 -->

<svg id="main" version="1.1" xmlns="http://www.w3.org/2000/svg" xmlns:xlink="http://www.w3.org/1999/xlink" xml:space="preserve" onload="init(evt)">

<style type="text/css"><![CDATA[
.node, .edge {opacity: 0.7;}
.node.selected, .edge.selected {opacity: 1;}
.edge:hover path { stroke: red; }
.edge:hover polygon { stroke: red; fill: red; }
]]></style>

<defs>
  <circle id="rim" cx="0" cy="0" r="7"/>
  <circle id="rim2" cx="0" cy="0" r="3.5"/>
  <g id="zoomPlus">
    <use xlink:href="#rim" fill="#404040"><set attributeName="fill" to="#808080" begin="zoomplus.mouseover" end="zoomplus.mouseout"/></use>
    <path d="M-4,0h8M0,-4v8" fill="none" stroke="white" stroke-width="1.5" pointer-events="none"/>
  </g>
  <g id="zoomMin">
    <use xlink:href="#rim" fill="#404040"><set attributeName="fill" to="#808080" begin="zoomminus.mouseover" end="zoomminus.mouseout"/></use>
    <path d="M-4,0h8" fill="none" stroke="white" stroke-width="1.5" pointer-events="none"/>
  </g>
  <g id="arrowUp" transform="translate(30 24)">
    <use xlink:href="#rim"/>
    <path pointer-events="none" fill="none" stroke="white" stroke-width="1.5" d="M0,-3.0v7 M-2.5,-0.5L0,-3.0L2.5,-0.5"/>
  </g>
  <g id="arrowRight" transform="rotate(90) translate(36 -43)">
    <use xlink:href="#rim"/>
    <path pointer-events="none" fill="none" stroke="white" stroke-width="1.5" d="M0,-3.0v7 M-2.5,-0.5L0,-3.0L2.5,-0.5"/>
  </g>
  <g id="arrowDown" transform="rotate(180) translate(-30 -48)">
    <use xlink:href="#rim"/>
    <path pointer-events="none" fill="none" stroke="white" stroke-width="1.5" d="M0,-3.0v7 M-2.5,-0.5L0,-3.0L2.5,-0.5"/>
  </g>
  <g id="arrowLeft" transform="rotate(270) translate(-36 17)">
    <use xlink:href="#rim"/>
    <path pointer-events="none" fill="none" stroke="white" stroke-width="1.5" d="M0,-3.0v7 M-2.5,-0.5L0,-3.0L2.5,-0.5"/>
  </g>
  <g id="resetDef">
    <use xlink:href="#rim2" fill="#404040"><set attributeName="fill" to="#808080" begin="reset.mouseover" end="reset.mouseout"/></use>
  </g>
</defs>
<script type="application/ecmascript">
var viewWidth = 640;
var viewHeight = 152;
var sectionId = 'dynsection-2';
</script>
<script type="application/ecmascript" xlink:href="svg.min.js"/>
<svg id="graph" class="graph">
<g id="viewport">
<title>fr.softsf.canscan.service.GenerateAndSaveService.generateAndSave</title>
<!-- Node1 -->
<g id="Node000001" class="node">
<title>Node1</title>
<g id="a_Node000001"><a xlink:title="Generates and saves a QR code as a PNG file using the provided data and configuration.">
<polygon fill="#999999" stroke="#666666" points="169,-100 0,-100 0,-56 169,-56 169,-100"/>
<text text-anchor="start" x="8" y="-86.5" font-family="Helvetica,sans-Serif" font-size="10.00">fr.softsf.canscan.service.</text>
<text text-anchor="start" x="8" y="-74.5" font-family="Helvetica,sans-Serif" font-size="10.00">GenerateAndSaveService.generate</text>
<text text-anchor="middle" x="84.5" y="-62.5" font-family="Helvetica,sans-Serif" font-size="10.00">AndSave</text>
</a>
</g>
</g>
<!-- Node2 -->
<g id="Node000002" class="node">
<title>Node2</title>
<g id="a_Node000002"><a xlink:href="classfr_1_1softsf_1_1canscan_1_1service_1_1_generate_and_save_service.html#adf363b081ce6f875faf15b76cf701bc3" target="_top" xlink:title="Validates that all required inputs are non&#45;null.">
<polygon fill="white" stroke="#666666" points="411.88,-144 206.12,-144 206.12,-112 411.88,-112 411.88,-144"/>
<text text-anchor="start" x="214.12" y="-130.5" font-family="Helvetica,sans-Serif" font-size="10.00">fr.softsf.canscan.service.</text>
<text text-anchor="middle" x="309" y="-118.5" font-family="Helvetica,sans-Serif" font-size="10.00">GenerateAndSaveService.checkNPEInputs</text>
</a>
</g>
</g>
<!-- Node1&#45;&gt;Node2 -->
<g id="edge1_Node000001_Node000002" class="edge">
<title>Node1&#45;&gt;Node2</title>
<g id="a_edge1_Node000001_Node000002"><a xlink:title=" ">
<path fill="none" stroke="#63b8ff" d="M169.3,-96.83C187.07,-100.82 205.83,-105.04 223.62,-109.04"/>
<polygon fill="#63b8ff" stroke="#63b8ff" points="222.85,-112.45 233.38,-111.23 224.39,-105.62 222.85,-112.45"/>
</a>
</g>
</g>
<!-- Node3 -->
<g id="Node000003" class="node">
<title>Node3</title>
<g id="a_Node000003"><a xlink:href="classfr_1_1softsf_1_1canscan_1_1service_1_1_generate_and_save_service.html#a7183f24b962abed6d650fee50fdeaa46" target="_top" xlink:title="Opens a JFileChooser to select the output PNG file and handles file name conflicts.">
<polygon fill="white" stroke="#666666" points="413,-94 205,-94 205,-62 413,-62 413,-94"/>
<text text-anchor="start" x="213" y="-80.5" font-family="Helvetica,sans-Serif" font-size="10.00">fr.softsf.canscan.service.</text>
<text text-anchor="middle" x="309" y="-68.5" font-family="Helvetica,sans-Serif" font-size="10.00">GenerateAndSaveService.chooseOutputFile</text>
</a>
</g>
</g>
<!-- Node1&#45;&gt;Node3 -->
<g id="edge2_Node000001_Node000003" class="edge">
<title>Node1&#45;&gt;Node3</title>
<g id="a_edge2_Node000001_Node000003"><a xlink:title=" ">
<path fill="none" stroke="#63b8ff" d="M169.3,-78C177.17,-78 185.24,-78 193.33,-78"/>
<polygon fill="#63b8ff" stroke="#63b8ff" points="193.25,-81.5 203.25,-78 193.25,-74.5 193.25,-81.5"/>
</a>
</g>
</g>
<!-- Node6 -->
<g id="Node000006" class="node">
<title>Node6</title>
<g id="a_Node000006"><a xlink:href="classfr_1_1softsf_1_1canscan_1_1service_1_1_generate_and_save_service.html#a823b1c588d50ad7a5d260b29bcb066a1" target="_top" xlink:title="Executes QR code generation asynchronously using a SwingWorker.">
<polygon fill="white" stroke="#666666" points="392,-44 226,-44 226,0 392,0 392,-44"/>
<text text-anchor="start" x="234" y="-30.5" font-family="Helvetica,sans-Serif" font-size="10.00">fr.softsf.canscan.service.</text>
<text text-anchor="start" x="234" y="-18.5" font-family="Helvetica,sans-Serif" font-size="10.00">GenerateAndSaveService.execute</text>
<text text-anchor="middle" x="309" y="-6.5" font-family="Helvetica,sans-Serif" font-size="10.00">QrGeneration</text>
</a>
</g>
</g>
<!-- Node1&#45;&gt;Node6 -->
<g id="edge5_Node000001_Node000006" class="edge">
<title>Node1&#45;&gt;Node6</title>
<g id="a_edge5_Node000001_Node000006"><a xlink:title=" ">
<path fill="none" stroke="#63b8ff" d="M169.3,-56.91C184.17,-53.17 199.74,-49.25 214.85,-45.45"/>
<polygon fill="#63b8ff" stroke="#63b8ff" points="215.44,-48.91 224.28,-43.07 213.73,-42.12 215.44,-48.91"/>
</a>
</g>
</g>
<!-- Node4 -->
<g id="Node000004" class="node">
<title>Node4</title>
<g id="a_Node000004"><a xlink:href="classfr_1_1softsf_1_1canscan_1_1service_1_1_generate_and_save_service.html#a723bdc3c23de4858c0a30864298fdacd" target="_top" xlink:title="Ensures the selected file has a &quot;.png&quot; extension.">
<polygon fill="white" stroke="#666666" points="632.25,-131 449,-131 449,-87 632.25,-87 632.25,-131"/>
<text text-anchor="start" x="457" y="-117.5" font-family="Helvetica,sans-Serif" font-size="10.00">fr.softsf.canscan.service.</text>
<text text-anchor="start" x="457" y="-105.5" font-family="Helvetica,sans-Serif" font-size="10.00">GenerateAndSaveService.getSelected</text>
<text text-anchor="middle" x="540.62" y="-93.5" font-family="Helvetica,sans-Serif" font-size="10.00">PngFile</text>
</a>
</g>
</g>
<!-- Node3&#45;&gt;Node4 -->
<g id="edge3_Node000003_Node000004" class="edge">
<title>Node3&#45;&gt;Node4</title>
<g id="a_edge3_Node000003_Node000004"><a xlink:title=" ">
<path fill="none" stroke="#63b8ff" d="M413.39,-91.96C421.4,-93.04 429.49,-94.13 437.49,-95.21"/>
<polygon fill="#63b8ff" stroke="#63b8ff" points="436.85,-98.66 447.23,-96.53 437.79,-91.72 436.85,-98.66"/>
</a>
</g>
</g>
<!-- Node5 -->
<g id="Node000005" class="node">
<title>Node5</title>
<g id="a_Node000005"><a xlink:href="classfr_1_1softsf_1_1canscan_1_1service_1_1_generate_and_save_service.html#aeced3cbaf2f2c3a709ed5096aa543526" target="_top" xlink:title="Resolves potential file name conflicts by checking if the specified file already exists.">
<polygon fill="white" stroke="#666666" points="622.12,-69 459.12,-69 459.12,-25 622.12,-25 622.12,-69"/>
<text text-anchor="start" x="467.12" y="-55.5" font-family="Helvetica,sans-Serif" font-size="10.00">fr.softsf.canscan.service.</text>
<text text-anchor="start" x="467.12" y="-43.5" font-family="Helvetica,sans-Serif" font-size="10.00">GenerateAndSaveService.resolve</text>
<text text-anchor="middle" x="540.62" y="-31.5" font-family="Helvetica,sans-Serif" font-size="10.00">FileNameConflict</text>
</a>
</g>
</g>
<!-- Node3&#45;&gt;Node5 -->
<g id="edge4_Node000003_Node000005" class="edge">
<title>Node3&#45;&gt;Node5</title>
<g id="a_edge4_Node000003_Node000005"><a xlink:title=" ">
<path fill="none" stroke="#63b8ff" d="M413.39,-64.04C424.82,-62.5 436.4,-60.94 447.67,-59.41"/>
<polygon fill="#63b8ff" stroke="#63b8ff" points="447.89,-62.92 457.33,-58.11 446.95,-55.98 447.89,-62.92"/>
</a>
</g>
</g>
</g>
</svg>

<g id="navigator" transform="translate(0 0)" fill="#404254">
  <rect fill="#f2f5e9" fill-opacity="0.5" stroke="#606060" stroke-width=".5" x="0" y="0" width="60" height="60"/>
  <use id="zoomplus" xlink:href="#zoomPlus" x="17" y="9" onmousedown="handleZoom(evt,'in')"/>
  <use id="zoomminus" xlink:href="#zoomMin" x="42" y="9" onmousedown="handleZoom(evt,'out')"/>
  <use id="reset" xlink:href="#resetDef" x="30" y="36" onmousedown="handleReset()"/>
   <use id="arrowup" xlink:href="#arrowUp" x="0" y="0" onmousedown="handlePan(0,-1)"/>
  <use id="arrowright" xlink:href="#arrowRight" x="0" y="0" onmousedown="handlePan(1,0)"/>
  <use id="arrowdown" xlink:href="#arrowDown" x="0" y="0" onmousedown="handlePan(0,1)"/>
  <use id="arrowleft" xlink:href="#arrowLeft" x="0" y="0" onmousedown="handlePan(-1,0)"/>
</g>
<svg viewBox="0 0 15 15" width="100%" height="30px" preserveAspectRatio="xMaxYMin meet">
 <g id="arrow_out" transform="scale(0.3 0.3)">
  <a xlink:href="classfr_1_1softsf_1_1canscan_1_1service_1_1_generate_and_save_service_a479ebf9d697747efbd2cd14695ef83b1_cgraph_org.svg" target="_base">
   <rect id="button" ry="5" rx="5" y="6" x="6" height="38" width="38"
        fill="#f2f5e9" fill-opacity="0.5" stroke="#606060" stroke-width="1.0"/>
   <path id="arrow"
     d="M 11.500037,31.436501 C 11.940474,20.09759 22.043105,11.32322 32.158766,21.979434 L 37.068811,17.246167 C 37.068811,17.246167 37.088388,32 37.088388,32 L 22.160133,31.978069 C 22.160133,31.978069 26.997745,27.140456 26.997745,27.140456 C 18.528582,18.264221 13.291696,25.230495 11.500037,31.436501 z"
     style="fill:#404040;"/>
  </a>
 </g>
</svg>

<style type='text/css'>
<![CDATA[
[data-mouse-over-selected='false'] { opacity: 0.7; }
[data-mouse-over-selected='true']  { opacity: 1.0; }
]]>
</style>
<script type="application/ecmascript"><![CDATA[
document.addEventListener('DOMContentLoaded', (event) => {
  highlightEdges();
  highlightAdjacentNodes();
});
]]></script>
</svg>
