<?xml version="1.0" encoding="UTF-8" standalone="no"?>
<!DOCTYPE svg PUBLIC "-//W3C//DTD SVG 1.1//EN"
 "http://www.w3.org/Graphics/SVG/1.1/DTD/svg11.dtd">
<!-- Generated by graphviz version 12.2.1 (20241206.2353)
 -->
<!-- Title: fr.softsf.canscan.CanScan.CanScan Pages: 1 -->
<svg width="1218pt" height="400pt"
 viewBox="0.00 0.00 1217.75 400.00" xmlns="http://www.w3.org/2000/svg" xmlns:xlink="http://www.w3.org/1999/xlink">
<g id="graph0" class="graph" transform="scale(1 1) rotate(0) translate(4 396)">
<title>fr.softsf.canscan.CanScan.CanScan</title>
<!-- Node1 -->
<g id="Node000001" class="node">
<title>Node1</title>
<g id="a_Node000001"><a xlink:title="Initializes the CanScan GUI.">
<polygon fill="#999999" stroke="#666666" points="136,-168 0,-168 0,-136 136,-136 136,-168"/>
<text text-anchor="start" x="8" y="-154.5" font-family="Helvetica,sans-Serif" font-size="10.00">fr.softsf.canscan.CanScan.</text>
<text text-anchor="middle" x="68" y="-142.5" font-family="Helvetica,sans-Serif" font-size="10.00">CanScan</text>
</a>
</g>
</g>
<!-- Node2 -->
<g id="Node000002" class="node">
<title>Node2</title>
<g id="a_Node000002"><a xlink:href="classfr_1_1softsf_1_1canscan_1_1_can_scan.html#a070115929fdc69b249d21866a00a47cc" target="_top" xlink:title="Assigns component names for identification.">
<polygon fill="white" stroke="#666666" points="343.25,-281 172,-281 172,-249 343.25,-249 343.25,-281"/>
<text text-anchor="start" x="180" y="-267.5" font-family="Helvetica,sans-Serif" font-size="10.00">fr.softsf.canscan.CanScan.initialize</text>
<text text-anchor="middle" x="257.62" y="-255.5" font-family="Helvetica,sans-Serif" font-size="10.00">ComponentNames</text>
</a>
</g>
</g>
<!-- Node1&#45;&gt;Node2 -->
<g id="edge1_Node000001_Node000002" class="edge">
<title>Node1&#45;&gt;Node2</title>
<g id="a_edge1_Node000001_Node000002"><a xlink:title=" ">
<path fill="none" stroke="#63b8ff" d="M85.55,-168.34C104.89,-186.67 138.52,-216.29 172,-235 178.07,-238.39 184.6,-241.51 191.24,-244.36"/>
<polygon fill="#63b8ff" stroke="#63b8ff" points="189.73,-247.52 200.31,-248.02 192.35,-241.03 189.73,-247.52"/>
</a>
</g>
</g>
<!-- Node3 -->
<g id="Node000003" class="node">
<title>Node3</title>
<g id="a_Node000003"><a xlink:href="classfr_1_1softsf_1_1canscan_1_1_can_scan.html#a14263ca931024d56cd9bed4af4b74c25" target="_top" xlink:title="Builds the main panel with header, QR preview overlay, and spacer.">
<polygon fill="white" stroke="#666666" points="550.5,-354 379.25,-354 379.25,-322 550.5,-322 550.5,-354"/>
<text text-anchor="start" x="387.25" y="-340.5" font-family="Helvetica,sans-Serif" font-size="10.00">fr.softsf.canscan.CanScan.initialize</text>
<text text-anchor="middle" x="464.88" y="-328.5" font-family="Helvetica,sans-Serif" font-size="10.00">MainPanel</text>
</a>
</g>
</g>
<!-- Node1&#45;&gt;Node3 -->
<g id="edge2_Node000001_Node000003" class="edge">
<title>Node1&#45;&gt;Node3</title>
<g id="a_edge2_Node000001_Node000003"><a xlink:title=" ">
<path fill="none" stroke="#63b8ff" d="M97.97,-168.33C118.19,-179.15 146.1,-192.98 172,-202 245.62,-227.64 281.92,-191.86 343.25,-240 371.71,-262.34 351.58,-289.7 379.25,-313 380.22,-313.81 381.21,-314.6 382.22,-315.36"/>
<polygon fill="#63b8ff" stroke="#63b8ff" points="380.32,-318.3 390.63,-320.74 384.09,-312.4 380.32,-318.3"/>
</a>
</g>
</g>
<!-- Node11 -->
<g id="Node000011" class="node">
<title>Node11</title>
<g id="a_Node000011"><a xlink:href="classfr_1_1softsf_1_1canscan_1_1_can_scan.html#afb8d451dc5d6d9c7b6700e4b688c98a3" target="_top" xlink:title="Builds the north panel containing mode selection, card panels, common fields, and the generate button...">
<polygon fill="white" stroke="#666666" points="343.25,-193 172,-193 172,-161 343.25,-161 343.25,-193"/>
<text text-anchor="start" x="180" y="-179.5" font-family="Helvetica,sans-Serif" font-size="10.00">fr.softsf.canscan.CanScan.initialize</text>
<text text-anchor="middle" x="257.62" y="-167.5" font-family="Helvetica,sans-Serif" font-size="10.00">NorthPanel</text>
</a>
</g>
</g>
<!-- Node1&#45;&gt;Node11 -->
<g id="edge11_Node000001_Node000011" class="edge">
<title>Node1&#45;&gt;Node11</title>
<g id="a_edge11_Node000001_Node000011"><a xlink:title=" ">
<path fill="none" stroke="#63b8ff" d="M136.47,-160.99C144.26,-162.03 152.3,-163.1 160.37,-164.17"/>
<polygon fill="#63b8ff" stroke="#63b8ff" points="159.9,-167.64 170.27,-165.49 160.82,-160.7 159.9,-167.64"/>
</a>
</g>
</g>
<!-- Node25 -->
<g id="Node000025" class="node">
<title>Node25</title>
<g id="a_Node000025"><a xlink:href="classfr_1_1softsf_1_1canscan_1_1_can_scan.html#a4928478365bc812571ac037662cc5f6b" target="_top" xlink:title="Wraps the main panel in a scrollable container.">
<polygon fill="white" stroke="#666666" points="343.25,-143 172,-143 172,-111 343.25,-111 343.25,-143"/>
<text text-anchor="start" x="180" y="-129.5" font-family="Helvetica,sans-Serif" font-size="10.00">fr.softsf.canscan.CanScan.initialize</text>
<text text-anchor="middle" x="257.62" y="-117.5" font-family="Helvetica,sans-Serif" font-size="10.00">ScrollPane</text>
</a>
</g>
</g>
<!-- Node1&#45;&gt;Node25 -->
<g id="edge27_Node000001_Node000025" class="edge">
<title>Node1&#45;&gt;Node25</title>
<g id="a_edge27_Node000001_Node000025"><a xlink:title=" ">
<path fill="none" stroke="#63b8ff" d="M136.47,-143.01C144.26,-141.97 152.3,-140.9 160.37,-139.83"/>
<polygon fill="#63b8ff" stroke="#63b8ff" points="160.82,-143.3 170.27,-138.51 159.9,-136.36 160.82,-143.3"/>
</a>
</g>
</g>
<!-- Node26 -->
<g id="Node000026" class="node">
<title>Node26</title>
<g id="a_Node000026"><a xlink:href="classfr_1_1softsf_1_1canscan_1_1_can_scan.html#a358629f85831dc6cd4978c8854d88561" target="_top" xlink:title="Configures sliders for logo margin and ratio.">
<polygon fill="white" stroke="#666666" points="343.25,-93 172,-93 172,-61 343.25,-61 343.25,-93"/>
<text text-anchor="start" x="180" y="-79.5" font-family="Helvetica,sans-Serif" font-size="10.00">fr.softsf.canscan.CanScan.initialize</text>
<text text-anchor="middle" x="257.62" y="-67.5" font-family="Helvetica,sans-Serif" font-size="10.00">Sliders</text>
</a>
</g>
</g>
<!-- Node1&#45;&gt;Node26 -->
<g id="edge28_Node000001_Node000026" class="edge">
<title>Node1&#45;&gt;Node26</title>
<g id="a_edge28_Node000001_Node000026"><a xlink:title=" ">
<path fill="none" stroke="#63b8ff" d="M99.51,-135.55C119.7,-125.07 146.98,-111.69 172,-102 176.42,-100.29 181.01,-98.62 185.66,-97.02"/>
<polygon fill="#63b8ff" stroke="#63b8ff" points="186.74,-100.35 195.13,-93.88 184.54,-93.71 186.74,-100.35"/>
</a>
</g>
</g>
<!-- Node27 -->
<g id="Node000027" class="node">
<title>Node27</title>
<g id="a_Node000027"><a xlink:href="classfr_1_1softsf_1_1canscan_1_1_can_scan.html#a0a52159db640660477196e337ec62a9b" target="_top" xlink:title="Finalizes window layout and appearance.">
<polygon fill="white" stroke="#666666" points="343.25,-32 172,-32 172,0 343.25,0 343.25,-32"/>
<text text-anchor="start" x="180" y="-18.5" font-family="Helvetica,sans-Serif" font-size="10.00">fr.softsf.canscan.CanScan.initialize</text>
<text text-anchor="middle" x="257.62" y="-6.5" font-family="Helvetica,sans-Serif" font-size="10.00">Window</text>
</a>
</g>
</g>
<!-- Node1&#45;&gt;Node27 -->
<g id="edge29_Node000001_Node000027" class="edge">
<title>Node1&#45;&gt;Node27</title>
<g id="a_edge29_Node000001_Node000027"><a xlink:title=" ">
<path fill="none" stroke="#63b8ff" d="M82.5,-135.55C100.88,-114 135.67,-76.14 172,-52 180.31,-46.48 189.6,-41.51 198.91,-37.15"/>
<polygon fill="#63b8ff" stroke="#63b8ff" points="200.27,-40.37 207.98,-33.11 197.42,-33.98 200.27,-40.37"/>
</a>
</g>
</g>
<!-- Node4 -->
<g id="Node000004" class="node">
<title>Node4</title>
<g id="a_Node000004"><a xlink:href="classfr_1_1softsf_1_1canscan_1_1_can_scan.html#ad470e3c0750cf142dc611b1aeeda3a97" target="_top" xlink:title="Attaches automatic QR code preview updates to all input fields and controls.">
<polygon fill="white" stroke="#666666" points="779.5,-392 586.5,-392 586.5,-360 779.5,-360 779.5,-392"/>
<text text-anchor="start" x="594.5" y="-378.5" font-family="Helvetica,sans-Serif" font-size="10.00">fr.softsf.canscan.CanScan.automatic</text>
<text text-anchor="middle" x="683" y="-366.5" font-family="Helvetica,sans-Serif" font-size="10.00">QRCodeRenderingForFieldsAndControls</text>
</a>
</g>
</g>
<!-- Node3&#45;&gt;Node4 -->
<g id="edge3_Node000003_Node000004" class="edge">
<title>Node3&#45;&gt;Node4</title>
<g id="a_edge3_Node000003_Node000004"><a xlink:title=" ">
<path fill="none" stroke="#63b8ff" d="M550.98,-352.96C559.62,-354.48 568.46,-356.04 577.28,-357.59"/>
<polygon fill="#63b8ff" stroke="#63b8ff" points="576.46,-361 586.92,-359.28 577.67,-354.1 576.46,-361"/>
</a>
</g>
</g>
<!-- Node6 -->
<g id="Node000006" class="node">
<title>Node6</title>
<g id="a_Node000006"><a xlink:href="classfr_1_1softsf_1_1canscan_1_1_can_scan.html#a180290bc488e2346592ded98ccc4b1f3" target="_top" xlink:title="Collects current input and visual settings into a WholeFields for QR code generation.">
<polygon fill="white" stroke="#666666" points="981.88,-228 832.38,-228 832.38,-196 981.88,-196 981.88,-228"/>
<text text-anchor="start" x="840.38" y="-214.5" font-family="Helvetica,sans-Serif" font-size="10.00">fr.softsf.canscan.CanScan.get</text>
<text text-anchor="middle" x="907.12" y="-202.5" font-family="Helvetica,sans-Serif" font-size="10.00">QrInput</text>
</a>
</g>
</g>
<!-- Node3&#45;&gt;Node6 -->
<g id="edge10_Node000003_Node000006" class="edge">
<title>Node3&#45;&gt;Node6</title>
<g id="a_edge10_Node000003_Node000006"><a xlink:title=" ">
<path fill="none" stroke="#63b8ff" d="M550.76,-344.42C615.64,-346.24 706.1,-342.01 779.5,-313 821.42,-296.43 860.5,-261 883.85,-236.84"/>
<polygon fill="#63b8ff" stroke="#63b8ff" points="886.36,-239.28 890.68,-229.6 881.27,-234.47 886.36,-239.28"/>
</a>
</g>
</g>
<!-- Node5 -->
<g id="Node000005" class="node">
<title>Node5</title>
<g id="a_Node000005"><a xlink:href="enumfr_1_1softsf_1_1canscan_1_1ui_1_1_ui_components_configuration.html#aa700d9f2a270f6e54fcb53111855fa44" target="_top" xlink:title="Creates simple DocumentListener that executes action on any document change.">
<polygon fill="white" stroke="#666666" points="998.75,-392 815.5,-392 815.5,-360 998.75,-360 998.75,-392"/>
<text text-anchor="start" x="823.5" y="-378.5" font-family="Helvetica,sans-Serif" font-size="10.00">fr.softsf.canscan.ui.UiComponents</text>
<text text-anchor="middle" x="907.12" y="-366.5" font-family="Helvetica,sans-Serif" font-size="10.00">Configuration.createDocumentListener</text>
</a>
</g>
</g>
<!-- Node4&#45;&gt;Node5 -->
<g id="edge4_Node000004_Node000005" class="edge">
<title>Node4&#45;&gt;Node5</title>
<g id="a_edge4_Node000004_Node000005"><a xlink:title=" ">
<path fill="none" stroke="#63b8ff" d="M779.81,-376C787.79,-376 795.88,-376 803.91,-376"/>
<polygon fill="#63b8ff" stroke="#63b8ff" points="803.68,-379.5 813.68,-376 803.68,-372.5 803.68,-379.5"/>
</a>
</g>
</g>
<!-- Node4&#45;&gt;Node6 -->
<g id="edge5_Node000004_Node000006" class="edge">
<title>Node4&#45;&gt;Node6</title>
<g id="a_edge5_Node000004_Node000006"><a xlink:title=" ">
<path fill="none" stroke="#63b8ff" d="M751.68,-359.52C761.38,-355.81 770.95,-351.35 779.5,-346 825.78,-317.05 866.59,-267.2 888.69,-237.15"/>
<polygon fill="#63b8ff" stroke="#63b8ff" points="891.29,-239.52 894.3,-229.37 885.61,-235.43 891.29,-239.52"/>
</a>
</g>
</g>
<!-- Node7 -->
<g id="Node000007" class="node">
<title>Node7</title>
<g id="a_Node000007"><a xlink:href="classfr_1_1softsf_1_1canscan_1_1_can_scan.html#a381368b99c4a0857c6abe6349b2c6d27" target="_top" xlink:title="Calculates the available height for QR code rendering.">
<polygon fill="white" stroke="#666666" points="1209.75,-103 1034.75,-103 1034.75,-71 1209.75,-71 1209.75,-103"/>
<text text-anchor="start" x="1042.75" y="-89.5" font-family="Helvetica,sans-Serif" font-size="10.00">fr.softsf.canscan.CanScan.calculate</text>
<text text-anchor="middle" x="1122.25" y="-77.5" font-family="Helvetica,sans-Serif" font-size="10.00">AvailableQrCodeLabelHeight</text>
</a>
</g>
</g>
<!-- Node6&#45;&gt;Node7 -->
<g id="edge6_Node000006_Node000007" class="edge">
<title>Node6&#45;&gt;Node7</title>
<g id="a_edge6_Node000006_Node000007"><a xlink:title=" ">
<path fill="none" stroke="#63b8ff" d="M953.57,-195.67C968.56,-189.33 984.92,-181.33 998.75,-172 1017.25,-159.52 1016.95,-150.46 1034.75,-137 1048.35,-126.71 1064.26,-116.95 1078.7,-108.83"/>
<polygon fill="#63b8ff" stroke="#63b8ff" points="1080.02,-112.1 1087.09,-104.21 1076.64,-105.97 1080.02,-112.1"/>
</a>
</g>
</g>
<!-- Node8 -->
<g id="Node000008" class="node">
<title>Node8</title>
<g id="a_Node000008"><a xlink:href="classfr_1_1softsf_1_1canscan_1_1_can_scan.html#a4e67b1b5c764e72414a5c0f387810f5c" target="_top" xlink:title="Validates and returns the current QR code margin from the margin slider.">
<polygon fill="white" stroke="#666666" points="1207.12,-278 1037.38,-278 1037.38,-246 1207.12,-246 1207.12,-278"/>
<text text-anchor="start" x="1045.38" y="-264.5" font-family="Helvetica,sans-Serif" font-size="10.00">fr.softsf.canscan.CanScan.validate</text>
<text text-anchor="middle" x="1122.25" y="-252.5" font-family="Helvetica,sans-Serif" font-size="10.00">AndGetMargin</text>
</a>
</g>
</g>
<!-- Node6&#45;&gt;Node8 -->
<g id="edge7_Node000006_Node000008" class="edge">
<title>Node6&#45;&gt;Node8</title>
<g id="a_edge7_Node000006_Node000008"><a xlink:title=" ">
<path fill="none" stroke="#63b8ff" d="M978.21,-228.44C997.96,-233.08 1019.62,-238.16 1039.97,-242.93"/>
<polygon fill="#63b8ff" stroke="#63b8ff" points="1039.12,-246.33 1049.65,-245.2 1040.72,-239.51 1039.12,-246.33"/>
</a>
</g>
</g>
<!-- Node9 -->
<g id="Node000009" class="node">
<title>Node9</title>
<g id="a_Node000009"><a xlink:href="classfr_1_1softsf_1_1canscan_1_1_can_scan.html#a9e8188875168199cde065113ae2a393d" target="_top" xlink:title="Validates and returns the current image&#45;to&#45;QR ratio from the ratio slider.">
<polygon fill="white" stroke="#666666" points="1207.12,-228 1037.38,-228 1037.38,-196 1207.12,-196 1207.12,-228"/>
<text text-anchor="start" x="1045.38" y="-214.5" font-family="Helvetica,sans-Serif" font-size="10.00">fr.softsf.canscan.CanScan.validate</text>
<text text-anchor="middle" x="1122.25" y="-202.5" font-family="Helvetica,sans-Serif" font-size="10.00">AndGetRatio</text>
</a>
</g>
</g>
<!-- Node6&#45;&gt;Node9 -->
<g id="edge8_Node000006_Node000009" class="edge">
<title>Node6&#45;&gt;Node9</title>
<g id="a_edge8_Node000006_Node000009"><a xlink:title=" ">
<path fill="none" stroke="#63b8ff" d="M982.37,-212C996.44,-212 1011.34,-212 1025.96,-212"/>
<polygon fill="#63b8ff" stroke="#63b8ff" points="1025.55,-215.5 1035.55,-212 1025.55,-208.5 1025.55,-215.5"/>
</a>
</g>
</g>
<!-- Node10 -->
<g id="Node000010" class="node">
<title>Node10</title>
<g id="a_Node000010"><a xlink:href="classfr_1_1softsf_1_1canscan_1_1_can_scan.html#a6d139bb8d0a3c7081096c8956189b684" target="_top" xlink:title="Validates and returns the QR code size from the corresponding text field.">
<polygon fill="white" stroke="#666666" points="1207.12,-178 1037.38,-178 1037.38,-146 1207.12,-146 1207.12,-178"/>
<text text-anchor="start" x="1045.38" y="-164.5" font-family="Helvetica,sans-Serif" font-size="10.00">fr.softsf.canscan.CanScan.validate</text>
<text text-anchor="middle" x="1122.25" y="-152.5" font-family="Helvetica,sans-Serif" font-size="10.00">AndGetSize</text>
</a>
</g>
</g>
<!-- Node6&#45;&gt;Node10 -->
<g id="edge9_Node000006_Node000010" class="edge">
<title>Node6&#45;&gt;Node10</title>
<g id="a_edge9_Node000006_Node000010"><a xlink:title=" ">
<path fill="none" stroke="#63b8ff" d="M978.21,-195.56C997.96,-190.92 1019.62,-185.84 1039.97,-181.07"/>
<polygon fill="#63b8ff" stroke="#63b8ff" points="1040.72,-184.49 1049.65,-178.8 1039.12,-177.67 1040.72,-184.49"/>
</a>
</g>
</g>
<!-- Node12 -->
<g id="Node000012" class="node">
<title>Node12</title>
<g id="a_Node000012"><a xlink:href="classfr_1_1softsf_1_1canscan_1_1_can_scan.html#ab2e018ca62c7497c29e84f42ae870daa" target="_top" xlink:title="Adds MECARD and Free card panels to the north panel.">
<polygon fill="white" stroke="#666666" points="540.75,-304 389,-304 389,-272 540.75,-272 540.75,-304"/>
<text text-anchor="start" x="397" y="-290.5" font-family="Helvetica,sans-Serif" font-size="10.00">fr.softsf.canscan.CanScan.add</text>
<text text-anchor="middle" x="464.88" y="-278.5" font-family="Helvetica,sans-Serif" font-size="10.00">NorthPanelCardPanels</text>
</a>
</g>
</g>
<!-- Node11&#45;&gt;Node12 -->
<g id="edge12_Node000011_Node000012" class="edge">
<title>Node11&#45;&gt;Node12</title>
<g id="a_edge12_Node000011_Node000012"><a xlink:title=" ">
<path fill="none" stroke="#63b8ff" d="M320.35,-193.39C328.51,-197.09 336.41,-201.58 343.25,-207 366.44,-225.38 355.58,-245.25 379.25,-263 380.77,-264.14 382.33,-265.22 383.95,-266.26"/>
<polygon fill="#63b8ff" stroke="#63b8ff" points="381.82,-269.08 392.26,-270.93 385.26,-262.98 381.82,-269.08"/>
</a>
</g>
</g>
<!-- Node15 -->
<g id="Node000015" class="node">
<title>Node15</title>
<g id="a_Node000015"><a xlink:href="classfr_1_1softsf_1_1canscan_1_1_can_scan.html#a94ab4df98de0d05977e6a65ab75f89f0" target="_top" xlink:title="Adds common input fields to the north panel.">
<polygon fill="white" stroke="#666666" points="540.75,-254 389,-254 389,-222 540.75,-222 540.75,-254"/>
<text text-anchor="start" x="397" y="-240.5" font-family="Helvetica,sans-Serif" font-size="10.00">fr.softsf.canscan.CanScan.add</text>
<text text-anchor="middle" x="464.88" y="-228.5" font-family="Helvetica,sans-Serif" font-size="10.00">NorthPanelCommonFields</text>
</a>
</g>
</g>
<!-- Node11&#45;&gt;Node15 -->
<g id="edge15_Node000011_Node000015" class="edge">
<title>Node11&#45;&gt;Node15</title>
<g id="a_edge15_Node000011_Node000015"><a xlink:title=" ">
<path fill="none" stroke="#63b8ff" d="M313.56,-193.43C334.16,-199.58 357.78,-206.62 379.25,-213 385.12,-214.74 391.23,-216.55 397.35,-218.37"/>
<polygon fill="#63b8ff" stroke="#63b8ff" points="396.3,-221.71 406.88,-221.19 398.29,-214.99 396.3,-221.71"/>
</a>
</g>
</g>
<!-- Node17 -->
<g id="Node000017" class="node">
<title>Node17</title>
<g id="a_Node000017"><a xlink:href="classfr_1_1softsf_1_1canscan_1_1_can_scan.html#a9f205dfdb266d5d7f8f8899b69742663" target="_top" xlink:title="Adds the generate button to the north panel.">
<polygon fill="white" stroke="#666666" points="540.75,-204 389,-204 389,-172 540.75,-172 540.75,-204"/>
<text text-anchor="start" x="397" y="-190.5" font-family="Helvetica,sans-Serif" font-size="10.00">fr.softsf.canscan.CanScan.add</text>
<text text-anchor="middle" x="464.88" y="-178.5" font-family="Helvetica,sans-Serif" font-size="10.00">NorthPanelGenerateButton</text>
</a>
</g>
</g>
<!-- Node11&#45;&gt;Node17 -->
<g id="edge18_Node000011_Node000017" class="edge">
<title>Node11&#45;&gt;Node17</title>
<g id="a_edge18_Node000011_Node000017"><a xlink:title=" ">
<path fill="none" stroke="#63b8ff" d="M343.59,-181.55C354.84,-182.16 366.38,-182.77 377.65,-183.38"/>
<polygon fill="#63b8ff" stroke="#63b8ff" points="377.12,-186.86 387.3,-183.9 377.5,-179.87 377.12,-186.86"/>
</a>
</g>
</g>
<!-- Node18 -->
<g id="Node000018" class="node">
<title>Node18</title>
<g id="a_Node000018"><a xlink:href="classfr_1_1softsf_1_1canscan_1_1_can_scan.html#aa469763b92dd7cbc6dfdb9aaa0116b33" target="_top" xlink:title="Adds mode selection controls (MECARD/Free) to the north panel.">
<polygon fill="white" stroke="#666666" points="540.75,-154 389,-154 389,-122 540.75,-122 540.75,-154"/>
<text text-anchor="start" x="397" y="-140.5" font-family="Helvetica,sans-Serif" font-size="10.00">fr.softsf.canscan.CanScan.add</text>
<text text-anchor="middle" x="464.88" y="-128.5" font-family="Helvetica,sans-Serif" font-size="10.00">NorthPanelModeSelection</text>
</a>
</g>
</g>
<!-- Node11&#45;&gt;Node18 -->
<g id="edge19_Node000011_Node000018" class="edge">
<title>Node11&#45;&gt;Node18</title>
<g id="a_edge19_Node000011_Node000018"><a xlink:title=" ">
<path fill="none" stroke="#63b8ff" d="M343.59,-160.86C354.84,-158.72 366.38,-156.53 377.65,-154.38"/>
<polygon fill="#63b8ff" stroke="#63b8ff" points="378.15,-157.85 387.32,-152.55 376.84,-150.97 378.15,-157.85"/>
</a>
</g>
</g>
<!-- Node23 -->
<g id="Node000023" class="node">
<title>Node23</title>
<g id="a_Node000023"><a xlink:href="classfr_1_1softsf_1_1canscan_1_1_can_scan.html#ada8edc3d5abda489ce9f75a0613cfc71" target="_top" xlink:title="Creates the base north panel with layout, maximum width, and padding applied.">
<polygon fill="white" stroke="#666666" points="539.62,-104 390.12,-104 390.12,-72 539.62,-72 539.62,-104"/>
<text text-anchor="start" x="398.12" y="-90.5" font-family="Helvetica,sans-Serif" font-size="10.00">fr.softsf.canscan.CanScan.get</text>
<text text-anchor="middle" x="464.88" y="-78.5" font-family="Helvetica,sans-Serif" font-size="10.00">NorthJPanel</text>
</a>
</g>
</g>
<!-- Node11&#45;&gt;Node23 -->
<g id="edge25_Node000011_Node000023" class="edge">
<title>Node11&#45;&gt;Node23</title>
<g id="a_edge25_Node000011_Node000023"><a xlink:title=" ">
<path fill="none" stroke="#63b8ff" d="M326.58,-160.55C332.4,-158.07 338.05,-155.24 343.25,-152 363.28,-139.54 359.22,-125.46 379.25,-113 381.28,-111.74 383.38,-110.53 385.53,-109.39"/>
<polygon fill="#63b8ff" stroke="#63b8ff" points="387.02,-112.56 394.55,-105.1 384.02,-106.23 387.02,-112.56"/>
</a>
</g>
</g>
<!-- Node24 -->
<g id="Node000024" class="node">
<title>Node24</title>
<g id="a_Node000024"><a xlink:href="classfr_1_1softsf_1_1canscan_1_1_can_scan.html#aeb5550da33925e95999aae23f525f7c5" target="_top" xlink:title="Creates default GridBagConstraints for consistent layout configuration.">
<polygon fill="white" stroke="#666666" points="543.75,-54 386,-54 386,-22 543.75,-22 543.75,-54"/>
<text text-anchor="start" x="394" y="-40.5" font-family="Helvetica,sans-Serif" font-size="10.00">fr.softsf.canscan.CanScan.north</text>
<text text-anchor="middle" x="464.88" y="-28.5" font-family="Helvetica,sans-Serif" font-size="10.00">PanelGridBagConstraints</text>
</a>
</g>
</g>
<!-- Node11&#45;&gt;Node24 -->
<g id="edge26_Node000011_Node000024" class="edge">
<title>Node11&#45;&gt;Node24</title>
<g id="a_edge26_Node000011_Node000024"><a xlink:title=" ">
<path fill="none" stroke="#63b8ff" d="M331.27,-160.64C335.57,-158.16 339.62,-155.29 343.25,-152 374.85,-123.33 347.65,-91.67 379.25,-63 380.16,-62.18 381.09,-61.38 382.05,-60.61"/>
<polygon fill="#63b8ff" stroke="#63b8ff" points="383.68,-63.73 389.97,-55.21 379.74,-57.95 383.68,-63.73"/>
</a>
</g>
</g>
<!-- Node13 -->
<g id="Node000013" class="node">
<title>Node13</title>
<g id="a_Node000013"><a xlink:href="classfr_1_1softsf_1_1canscan_1_1_can_scan.html#a38d65dd319daee1c3288690c17e43ca5" target="_top" xlink:title="Populates the FREE panel with a multiline text area for arbitrary text or URLs.">
<polygon fill="white" stroke="#666666" points="769.75,-304 596.25,-304 596.25,-284 769.75,-284 769.75,-304"/>
<text text-anchor="middle" x="683" y="-290.5" font-family="Helvetica,sans-Serif" font-size="10.00">fr.softsf.canscan.CanScan.freeCard</text>
</a>
</g>
</g>
<!-- Node12&#45;&gt;Node13 -->
<g id="edge13_Node000012_Node000013" class="edge">
<title>Node12&#45;&gt;Node13</title>
<g id="a_edge13_Node000012_Node000013"><a xlink:title=" ">
<path fill="none" stroke="#63b8ff" d="M541.16,-290.09C555.24,-290.48 570.13,-290.89 584.76,-291.3"/>
<polygon fill="#63b8ff" stroke="#63b8ff" points="584.27,-294.79 594.37,-291.57 584.47,-287.79 584.27,-294.79"/>
</a>
</g>
</g>
<!-- Node14 -->
<g id="Node000014" class="node">
<title>Node14</title>
<g id="a_Node000014"><a xlink:href="classfr_1_1softsf_1_1canscan_1_1_can_scan.html#aed7e3048974882318a6519d8d36e8ec0" target="_top" xlink:title="Populates the MECARD panel with structured contact fields.">
<polygon fill="white" stroke="#666666" points="767.12,-266 598.88,-266 598.88,-246 767.12,-246 767.12,-266"/>
<text text-anchor="middle" x="683" y="-252.5" font-family="Helvetica,sans-Serif" font-size="10.00">fr.softsf.canscan.CanScan.mecard</text>
</a>
</g>
</g>
<!-- Node12&#45;&gt;Node14 -->
<g id="edge14_Node000012_Node000014" class="edge">
<title>Node12&#45;&gt;Node14</title>
<g id="a_edge14_Node000012_Node000014"><a xlink:title=" ">
<path fill="none" stroke="#63b8ff" d="M541.16,-276.85C560.21,-274.03 580.75,-270.99 600.1,-268.13"/>
<polygon fill="#63b8ff" stroke="#63b8ff" points="600.46,-271.61 609.84,-266.68 599.44,-264.69 600.46,-271.61"/>
</a>
</g>
</g>
<!-- Node16 -->
<g id="Node000016" class="node">
<title>Node16</title>
<g id="a_Node000016"><a xlink:href="classfr_1_1softsf_1_1canscan_1_1_can_scan.html#a17b0a72ab305f98f86591411b6a352f2" target="_top" xlink:title="Creates the color selection panel for QR code and background colors.">
<polygon fill="white" stroke="#666666" points="761.5,-228 604.5,-228 604.5,-196 761.5,-196 761.5,-228"/>
<text text-anchor="start" x="612.5" y="-214.5" font-family="Helvetica,sans-Serif" font-size="10.00">fr.softsf.canscan.CanScan.color</text>
<text text-anchor="middle" x="683" y="-202.5" font-family="Helvetica,sans-Serif" font-size="10.00">Panel</text>
</a>
</g>
</g>
<!-- Node15&#45;&gt;Node16 -->
<g id="edge16_Node000015_Node000016" class="edge">
<title>Node15&#45;&gt;Node16</title>
<g id="a_edge16_Node000015_Node000016"><a xlink:title=" ">
<path fill="none" stroke="#63b8ff" d="M541.16,-228.94C557.85,-226.94 575.69,-224.79 592.87,-222.72"/>
<polygon fill="#63b8ff" stroke="#63b8ff" points="593.04,-226.23 602.55,-221.56 592.2,-219.28 593.04,-226.23"/>
</a>
</g>
</g>
<!-- Node16&#45;&gt;Node6 -->
<g id="edge17_Node000016_Node000006" class="edge">
<title>Node16&#45;&gt;Node6</title>
<g id="a_edge17_Node000016_Node000006"><a xlink:title=" ">
<path fill="none" stroke="#63b8ff" d="M761.69,-212C780.83,-212 801.42,-212 820.9,-212"/>
<polygon fill="#63b8ff" stroke="#63b8ff" points="820.7,-215.5 830.7,-212 820.7,-208.5 820.7,-215.5"/>
</a>
</g>
</g>
<!-- Node19 -->
<g id="Node000019" class="node">
<title>Node19</title>
<g id="a_Node000019"><a xlink:href="classfr_1_1softsf_1_1canscan_1_1_can_scan.html#a381579d3adc53b1122b38e7fda5c0235" target="_top" xlink:title="Configures the update button for version checking.">
<polygon fill="white" stroke="#666666" points="770.88,-178 595.12,-178 595.12,-146 770.88,-146 770.88,-178"/>
<text text-anchor="start" x="603.12" y="-164.5" font-family="Helvetica,sans-Serif" font-size="10.00">fr.softsf.canscan.CanScan.configure</text>
<text text-anchor="middle" x="683" y="-152.5" font-family="Helvetica,sans-Serif" font-size="10.00">UpdateButton</text>
</a>
</g>
</g>
<!-- Node18&#45;&gt;Node19 -->
<g id="edge20_Node000018_Node000019" class="edge">
<title>Node18&#45;&gt;Node19</title>
<g id="a_edge20_Node000018_Node000019"><a xlink:title=" ">
<path fill="none" stroke="#63b8ff" d="M541.16,-146.36C554.81,-147.88 569.23,-149.48 583.43,-151.05"/>
<polygon fill="#63b8ff" stroke="#63b8ff" points="582.92,-154.52 593.25,-152.14 583.7,-147.56 582.92,-154.52"/>
</a>
</g>
</g>
<!-- Node20 -->
<g id="Node000020" class="node">
<title>Node20</title>
<g id="a_Node000020"><a xlink:href="classfr_1_1softsf_1_1canscan_1_1_can_scan.html#a428c742b098fa27d4c8984c1030c238d" target="_top" xlink:title="Switches the application between MECARD and FREE modes.">
<polygon fill="white" stroke="#666666" points="777.25,-128 588.75,-128 588.75,-108 777.25,-108 777.25,-128"/>
<text text-anchor="middle" x="683" y="-114.5" font-family="Helvetica,sans-Serif" font-size="10.00">fr.softsf.canscan.CanScan.switchMode</text>
</a>
</g>
</g>
<!-- Node18&#45;&gt;Node20 -->
<g id="edge21_Node000018_Node000020" class="edge">
<title>Node18&#45;&gt;Node20</title>
<g id="a_edge21_Node000018_Node000020"><a xlink:title=" ">
<path fill="none" stroke="#63b8ff" d="M541.16,-131.03C552.82,-129.95 565.04,-128.82 577.21,-127.7"/>
<polygon fill="#63b8ff" stroke="#63b8ff" points="577.2,-131.21 586.84,-126.81 576.56,-124.24 577.2,-131.21"/>
</a>
</g>
</g>
<!-- Node20&#45;&gt;Node6 -->
<g id="edge22_Node000020_Node000006" class="edge">
<title>Node20&#45;&gt;Node6</title>
<g id="a_edge22_Node000020_Node000006"><a xlink:title=" ">
<path fill="none" stroke="#63b8ff" d="M758.46,-128.39C765.77,-130.71 772.92,-133.54 779.5,-137 799.25,-147.38 797,-159.52 815.5,-172 826.2,-179.22 838.41,-185.64 850.32,-191.11"/>
<polygon fill="#63b8ff" stroke="#63b8ff" points="848.73,-194.23 859.29,-195.06 851.55,-187.83 848.73,-194.23"/>
</a>
</g>
</g>
<!-- Node21 -->
<g id="Node000021" class="node">
<title>Node21</title>
<g id="a_Node000021"><a xlink:href="enumfr_1_1softsf_1_1canscan_1_1model_1_1_mode.html#a16a898a11ca939056bd7b275f11ea54c" target="_top" xlink:title="Returns the mode label.">
<polygon fill="white" stroke="#666666" points="968,-163 846.25,-163 846.25,-131 968,-131 968,-163"/>
<text text-anchor="start" x="854.25" y="-149.5" font-family="Helvetica,sans-Serif" font-size="10.00">fr.softsf.canscan.model.</text>
<text text-anchor="middle" x="907.12" y="-137.5" font-family="Helvetica,sans-Serif" font-size="10.00">Mode.text</text>
</a>
</g>
</g>
<!-- Node20&#45;&gt;Node21 -->
<g id="edge23_Node000020_Node000021" class="edge">
<title>Node20&#45;&gt;Node21</title>
<g id="a_edge23_Node000020_Node000021"><a xlink:title=" ">
<path fill="none" stroke="#63b8ff" d="M764.19,-128.47C787.26,-131.48 812.26,-134.75 834.76,-137.68"/>
<polygon fill="#63b8ff" stroke="#63b8ff" points="834.05,-141.12 844.42,-138.94 834.96,-134.18 834.05,-141.12"/>
</a>
</g>
</g>
<!-- Node22 -->
<g id="Node000022" class="node">
<title>Node22</title>
<g id="a_Node000022"><a xlink:href="classfr_1_1softsf_1_1canscan_1_1_can_scan.html#a11fd9295c4843e6e68f9d1e4a710b906" target="_top" xlink:title="Updates the generate button state based on input validation.">
<polygon fill="white" stroke="#666666" points="989.75,-113 824.5,-113 824.5,-81 989.75,-81 989.75,-113"/>
<text text-anchor="start" x="832.5" y="-99.5" font-family="Helvetica,sans-Serif" font-size="10.00">fr.softsf.canscan.CanScan.update</text>
<text text-anchor="middle" x="907.12" y="-87.5" font-family="Helvetica,sans-Serif" font-size="10.00">GenerateButtonState</text>
</a>
</g>
</g>
<!-- Node20&#45;&gt;Node22 -->
<g id="edge24_Node000020_Node000022" class="edge">
<title>Node20&#45;&gt;Node22</title>
<g id="a_edge24_Node000020_Node000022"><a xlink:title=" ">
<path fill="none" stroke="#63b8ff" d="M777.56,-109.15C789.33,-108.04 801.37,-106.9 813.13,-105.79"/>
<polygon fill="#63b8ff" stroke="#63b8ff" points="813.17,-109.3 822.8,-104.88 812.51,-102.33 813.17,-109.3"/>
</a>
</g>
</g>
<!-- Node28 -->
<g id="Node000028" class="node">
<title>Node28</title>
<g id="a_Node000028"><a xlink:href="classfr_1_1softsf_1_1canscan_1_1_can_scan.html#a0fe215984734bb1337dd49ca30238b78" target="_top" xlink:title="Sets the loader size so it matches the QR code label height and remains centered.">
<polygon fill="white" stroke="#666666" points="981.88,-32 832.38,-32 832.38,0 981.88,0 981.88,-32"/>
<text text-anchor="start" x="840.38" y="-18.5" font-family="Helvetica,sans-Serif" font-size="10.00">fr.softsf.canscan.CanScan.set</text>
<text text-anchor="middle" x="907.12" y="-6.5" font-family="Helvetica,sans-Serif" font-size="10.00">LoaderSize</text>
</a>
</g>
</g>
<!-- Node27&#45;&gt;Node28 -->
<g id="edge30_Node000027_Node000028" class="edge">
<title>Node27&#45;&gt;Node28</title>
<g id="a_edge30_Node000027_Node000028"><a xlink:title=" ">
<path fill="none" stroke="#63b8ff" d="M343.63,-13.62C355.59,-13.36 367.73,-13.14 379.25,-13 534.85,-11.07 716.32,-13.03 820.56,-14.56"/>
<polygon fill="#63b8ff" stroke="#63b8ff" points="820.39,-18.06 830.44,-14.71 820.5,-11.06 820.39,-18.06"/>
</a>
</g>
</g>
<!-- Node28&#45;&gt;Node7 -->
<g id="edge31_Node000028_Node000007" class="edge">
<title>Node28&#45;&gt;Node7</title>
<g id="a_edge31_Node000028_Node000007"><a xlink:title=" ">
<path fill="none" stroke="#63b8ff" d="M957.56,-32.47C988.49,-42.77 1028.54,-56.12 1061.29,-67.02"/>
<polygon fill="#63b8ff" stroke="#63b8ff" points="1060.06,-70.3 1070.65,-70.14 1062.27,-63.66 1060.06,-70.3"/>
</a>
</g>
</g>
</g>
</svg>
