<?xml version="1.0" encoding="UTF-8" standalone="no"?>
<!DOCTYPE svg PUBLIC "-//W3C//DTD SVG 1.1//EN"
 "http://www.w3.org/Graphics/SVG/1.1/DTD/svg11.dtd">
<!-- Generated by graphviz version 12.2.1 (20241206.2353)
 -->
<!-- Title: fr.softsf.canscan.CanScan.initializeMainPanel Pages: 1 -->
<svg width="844pt" height="295pt"
 viewBox="0.00 0.00 843.75 295.00" xmlns="http://www.w3.org/2000/svg" xmlns:xlink="http://www.w3.org/1999/xlink">
<g id="graph0" class="graph" transform="scale(1 1) rotate(0) translate(4 291)">
<title>fr.softsf.canscan.CanScan.initializeMainPanel</title>
<!-- Node1 -->
<g id="Node000001" class="node">
<title>Node1</title>
<g id="a_Node000001"><a xlink:title="Builds the main panel with header, QR preview overlay, and bottom spacer.">
<polygon fill="#999999" stroke="#666666" points="171.25,-207 0,-207 0,-175 171.25,-175 171.25,-207"/>
<text text-anchor="start" x="8" y="-193.5" font-family="Helvetica,sans-Serif" font-size="10.00">fr.softsf.canscan.CanScan.initialize</text>
<text text-anchor="middle" x="85.62" y="-181.5" font-family="Helvetica,sans-Serif" font-size="10.00">MainPanel</text>
</a>
</g>
</g>
<!-- Node2 -->
<g id="Node000002" class="node">
<title>Node2</title>
<g id="a_Node000002"><a xlink:href="classfr_1_1softsf_1_1canscan_1_1_can_scan.html#ad470e3c0750cf142dc611b1aeeda3a97" target="_top" xlink:title="Attaches automatic QR preview updates and input validation to all fields and controls.">
<polygon fill="white" stroke="#666666" points="400.25,-230 207.25,-230 207.25,-198 400.25,-198 400.25,-230"/>
<text text-anchor="start" x="215.25" y="-216.5" font-family="Helvetica,sans-Serif" font-size="10.00">fr.softsf.canscan.CanScan.automatic</text>
<text text-anchor="middle" x="303.75" y="-204.5" font-family="Helvetica,sans-Serif" font-size="10.00">QRCodeRenderingForFieldsAndControls</text>
</a>
</g>
</g>
<!-- Node1&#45;&gt;Node2 -->
<g id="edge1_Node000001_Node000002" class="edge">
<title>Node1&#45;&gt;Node2</title>
<g id="a_edge1_Node000001_Node000002"><a xlink:title=" ">
<path fill="none" stroke="#63b8ff" d="M171.73,-200.06C179.6,-200.89 187.64,-201.75 195.67,-202.6"/>
<polygon fill="#63b8ff" stroke="#63b8ff" points="195.18,-206.07 205.5,-203.65 195.92,-199.11 195.18,-206.07"/>
</a>
</g>
</g>
<!-- Node5 -->
<g id="Node000005" class="node">
<title>Node5</title>
<g id="a_Node000005"><a xlink:href="classfr_1_1softsf_1_1canscan_1_1_can_scan.html#a180290bc488e2346592ded98ccc4b1f3" target="_top" xlink:title="Collects current input and visual settings into a WholeFields for QR code generation.">
<polygon fill="white" stroke="#666666" points="601.12,-182 451.62,-182 451.62,-150 601.12,-150 601.12,-182"/>
<text text-anchor="start" x="459.62" y="-168.5" font-family="Helvetica,sans-Serif" font-size="10.00">fr.softsf.canscan.CanScan.get</text>
<text text-anchor="middle" x="526.38" y="-156.5" font-family="Helvetica,sans-Serif" font-size="10.00">QrInput</text>
</a>
</g>
</g>
<!-- Node1&#45;&gt;Node5 -->
<g id="edge11_Node000001_Node000005" class="edge">
<title>Node1&#45;&gt;Node5</title>
<g id="a_edge11_Node000001_Node000005"><a xlink:title=" ">
<path fill="none" stroke="#63b8ff" d="M171.74,-186.15C249.17,-181.74 362.86,-175.26 440.29,-170.85"/>
<polygon fill="#63b8ff" stroke="#63b8ff" points="440.14,-174.36 449.93,-170.3 439.74,-167.37 440.14,-174.36"/>
</a>
</g>
</g>
<!-- Node3 -->
<g id="Node000003" class="node">
<title>Node3</title>
<g id="a_Node000003"><a xlink:href="enumfr_1_1softsf_1_1canscan_1_1ui_1_1_ui_components_configuration.html#afe8da76131acc9dd19a15d7f22ca9ef1" target="_top" xlink:title="Attaches a DocumentListener to a JTextField that:">
<polygon fill="white" stroke="#666666" points="616.5,-287 436.25,-287 436.25,-243 616.5,-243 616.5,-287"/>
<text text-anchor="start" x="444.25" y="-273.5" font-family="Helvetica,sans-Serif" font-size="10.00">fr.softsf.canscan.ui.UiComponents</text>
<text text-anchor="start" x="444.25" y="-261.5" font-family="Helvetica,sans-Serif" font-size="10.00">Configuration.attachLimitedDocument</text>
<text text-anchor="middle" x="526.38" y="-249.5" font-family="Helvetica,sans-Serif" font-size="10.00">Listener</text>
</a>
</g>
</g>
<!-- Node2&#45;&gt;Node3 -->
<g id="edge2_Node000002_Node000003" class="edge">
<title>Node2&#45;&gt;Node3</title>
<g id="a_edge2_Node000002_Node000003"><a xlink:title=" ">
<path fill="none" stroke="#63b8ff" d="M376.08,-230.49C391.77,-234.12 408.68,-238.02 425.28,-241.86"/>
<polygon fill="#63b8ff" stroke="#63b8ff" points="424.11,-245.18 434.65,-244.03 425.69,-238.36 424.11,-245.18"/>
</a>
</g>
</g>
<!-- Node4 -->
<g id="Node000004" class="node">
<title>Node4</title>
<g id="a_Node000004"><a xlink:href="enumfr_1_1softsf_1_1canscan_1_1ui_1_1_ui_components_configuration.html#aa700d9f2a270f6e54fcb53111855fa44" target="_top" xlink:title="Creates a simple DocumentListener that executes the given action on any change to the document.">
<polygon fill="white" stroke="#666666" points="835.75,-282 652.5,-282 652.5,-250 835.75,-250 835.75,-282"/>
<text text-anchor="start" x="660.5" y="-268.5" font-family="Helvetica,sans-Serif" font-size="10.00">fr.softsf.canscan.ui.UiComponents</text>
<text text-anchor="middle" x="744.12" y="-256.5" font-family="Helvetica,sans-Serif" font-size="10.00">Configuration.createDocumentListener</text>
</a>
</g>
</g>
<!-- Node2&#45;&gt;Node4 -->
<g id="edge4_Node000002_Node000004" class="edge">
<title>Node2&#45;&gt;Node4</title>
<g id="a_edge4_Node000002_Node000004"><a xlink:title=" ">
<path fill="none" stroke="#63b8ff" d="M400.41,-215.6C462.35,-217.75 544.57,-222.7 616.5,-234 627.66,-235.75 649.34,-240.99 671.64,-246.74"/>
<polygon fill="#63b8ff" stroke="#63b8ff" points="670.57,-250.08 681.13,-249.21 672.33,-243.3 670.57,-250.08"/>
</a>
</g>
</g>
<!-- Node2&#45;&gt;Node5 -->
<g id="edge5_Node000002_Node000005" class="edge">
<title>Node2&#45;&gt;Node5</title>
<g id="a_edge5_Node000002_Node000005"><a xlink:title=" ">
<path fill="none" stroke="#63b8ff" d="M380.37,-197.55C399.64,-193.35 420.49,-188.82 440.21,-184.53"/>
<polygon fill="#63b8ff" stroke="#63b8ff" points="440.84,-187.97 449.87,-182.43 439.35,-181.13 440.84,-187.97"/>
</a>
</g>
</g>
<!-- Node3&#45;&gt;Node4 -->
<g id="edge3_Node000003_Node000004" class="edge">
<title>Node3&#45;&gt;Node4</title>
<g id="a_edge3_Node000003_Node000004"><a xlink:title=" ">
<path fill="none" stroke="#63b8ff" d="M617,-265.42C624.78,-265.45 632.69,-265.49 640.56,-265.52"/>
<polygon fill="#63b8ff" stroke="#63b8ff" points="640.51,-269.02 650.53,-265.57 640.55,-262.02 640.51,-269.02"/>
</a>
</g>
</g>
<!-- Node6 -->
<g id="Node000006" class="node">
<title>Node6</title>
<g id="a_Node000006"><a xlink:href="classfr_1_1softsf_1_1canscan_1_1_can_scan.html#a381368b99c4a0857c6abe6349b2c6d27" target="_top" xlink:title="Calculates the available height for QR code rendering.">
<polygon fill="white" stroke="#666666" points="831.62,-232 656.62,-232 656.62,-200 831.62,-200 831.62,-232"/>
<text text-anchor="start" x="664.62" y="-218.5" font-family="Helvetica,sans-Serif" font-size="10.00">fr.softsf.canscan.CanScan.calculate</text>
<text text-anchor="middle" x="744.12" y="-206.5" font-family="Helvetica,sans-Serif" font-size="10.00">AvailableQrCodeLabelHeight</text>
</a>
</g>
</g>
<!-- Node5&#45;&gt;Node6 -->
<g id="edge6_Node000005_Node000006" class="edge">
<title>Node5&#45;&gt;Node6</title>
<g id="a_edge6_Node000005_Node000006"><a xlink:title=" ">
<path fill="none" stroke="#63b8ff" d="M598.32,-182.44C618.41,-187.1 640.45,-192.2 661.13,-197"/>
<polygon fill="#63b8ff" stroke="#63b8ff" points="660.13,-200.36 670.66,-199.21 661.71,-193.54 660.13,-200.36"/>
</a>
</g>
</g>
<!-- Node7 -->
<g id="Node000007" class="node">
<title>Node7</title>
<g id="a_Node000007"><a xlink:href="classfr_1_1softsf_1_1canscan_1_1_can_scan.html#a4e67b1b5c764e72414a5c0f387810f5c" target="_top" xlink:title="Validates and returns the current QR code margin from the margin slider.">
<polygon fill="white" stroke="#666666" points="829,-182 659.25,-182 659.25,-150 829,-150 829,-182"/>
<text text-anchor="start" x="667.25" y="-168.5" font-family="Helvetica,sans-Serif" font-size="10.00">fr.softsf.canscan.CanScan.validate</text>
<text text-anchor="middle" x="744.12" y="-156.5" font-family="Helvetica,sans-Serif" font-size="10.00">AndGetMargin</text>
</a>
</g>
</g>
<!-- Node5&#45;&gt;Node7 -->
<g id="edge7_Node000005_Node000007" class="edge">
<title>Node5&#45;&gt;Node7</title>
<g id="a_edge7_Node000005_Node000007"><a xlink:title=" ">
<path fill="none" stroke="#63b8ff" d="M601.62,-166C616.53,-166 632.39,-166 647.9,-166"/>
<polygon fill="#63b8ff" stroke="#63b8ff" points="647.6,-169.5 657.6,-166 647.6,-162.5 647.6,-169.5"/>
</a>
</g>
</g>
<!-- Node8 -->
<g id="Node000008" class="node">
<title>Node8</title>
<g id="a_Node000008"><a xlink:href="classfr_1_1softsf_1_1canscan_1_1_can_scan.html#a8a2b238ac4af96d8710b3e5d7d051f77" target="_top" xlink:title="Validates and returns the current meet UID from the meet title field.">
<polygon fill="white" stroke="#666666" points="829,-132 659.25,-132 659.25,-100 829,-100 829,-132"/>
<text text-anchor="start" x="667.25" y="-118.5" font-family="Helvetica,sans-Serif" font-size="10.00">fr.softsf.canscan.CanScan.validate</text>
<text text-anchor="middle" x="744.12" y="-106.5" font-family="Helvetica,sans-Serif" font-size="10.00">AndGetMeetUID</text>
</a>
</g>
</g>
<!-- Node5&#45;&gt;Node8 -->
<g id="edge8_Node000005_Node000008" class="edge">
<title>Node5&#45;&gt;Node8</title>
<g id="a_edge8_Node000005_Node000008"><a xlink:title=" ">
<path fill="none" stroke="#63b8ff" d="M598.32,-149.56C618.41,-144.9 640.45,-139.8 661.13,-135"/>
<polygon fill="#63b8ff" stroke="#63b8ff" points="661.71,-138.46 670.66,-132.79 660.13,-131.64 661.71,-138.46"/>
</a>
</g>
</g>
<!-- Node9 -->
<g id="Node000009" class="node">
<title>Node9</title>
<g id="a_Node000009"><a xlink:href="classfr_1_1softsf_1_1canscan_1_1_can_scan.html#a9e8188875168199cde065113ae2a393d" target="_top" xlink:title="Validates and returns the current image&#45;to&#45;QR ratio from the ratio slider.">
<polygon fill="white" stroke="#666666" points="829,-82 659.25,-82 659.25,-50 829,-50 829,-82"/>
<text text-anchor="start" x="667.25" y="-68.5" font-family="Helvetica,sans-Serif" font-size="10.00">fr.softsf.canscan.CanScan.validate</text>
<text text-anchor="middle" x="744.12" y="-56.5" font-family="Helvetica,sans-Serif" font-size="10.00">AndGetRatio</text>
</a>
</g>
</g>
<!-- Node5&#45;&gt;Node9 -->
<g id="edge9_Node000005_Node000009" class="edge">
<title>Node5&#45;&gt;Node9</title>
<g id="a_edge9_Node000005_Node000009"><a xlink:title=" ">
<path fill="none" stroke="#63b8ff" d="M550.34,-149.62C574.7,-132.89 614.78,-107.15 652.5,-91 656.52,-89.28 660.69,-87.64 664.94,-86.1"/>
<polygon fill="#63b8ff" stroke="#63b8ff" points="665.86,-89.48 674.18,-82.92 663.58,-82.86 665.86,-89.48"/>
</a>
</g>
</g>
<!-- Node10 -->
<g id="Node000010" class="node">
<title>Node10</title>
<g id="a_Node000010"><a xlink:href="classfr_1_1softsf_1_1canscan_1_1_can_scan.html#a6d139bb8d0a3c7081096c8956189b684" target="_top" xlink:title="Validates and returns the QR code size from the corresponding text field.">
<polygon fill="white" stroke="#666666" points="829,-32 659.25,-32 659.25,0 829,0 829,-32"/>
<text text-anchor="start" x="667.25" y="-18.5" font-family="Helvetica,sans-Serif" font-size="10.00">fr.softsf.canscan.CanScan.validate</text>
<text text-anchor="middle" x="744.12" y="-6.5" font-family="Helvetica,sans-Serif" font-size="10.00">AndGetSize</text>
</a>
</g>
</g>
<!-- Node5&#45;&gt;Node10 -->
<g id="edge10_Node000005_Node000010" class="edge">
<title>Node5&#45;&gt;Node10</title>
<g id="a_edge10_Node000005_Node000010"><a xlink:title=" ">
<path fill="none" stroke="#63b8ff" d="M539.25,-149.52C559.45,-122.7 603.14,-69.73 652.5,-41 654.97,-39.56 657.52,-38.21 660.14,-36.92"/>
<polygon fill="#63b8ff" stroke="#63b8ff" points="661.38,-40.2 669.11,-32.96 658.55,-33.8 661.38,-40.2"/>
</a>
</g>
</g>
</g>
</svg>
