<?xml version="1.0" encoding="UTF-8" standalone="no"?>
<!DOCTYPE svg PUBLIC "-//W3C//DTD SVG 1.1//EN"
 "http://www.w3.org/Graphics/SVG/1.1/DTD/svg11.dtd">
<!-- Generated by graphviz version 12.2.1 (20241206.2353)
 -->
<!-- Title: fr.softsf.canscan.NativeImageConfigSimulator.runE2ESimulation Pages: 1 -->
<svg width="867pt" height="406pt"
 viewBox="0.00 0.00 867.00 406.00" xmlns="http://www.w3.org/2000/svg" xmlns:xlink="http://www.w3.org/1999/xlink">
<g id="graph0" class="graph" transform="scale(1 1) rotate(0) translate(4 402)">
<title>fr.softsf.canscan.NativeImageConfigSimulator.runE2ESimulation</title>
<!-- Node1 -->
<g id="Node000001" class="node">
<title>Node1</title>
<g id="a_Node000001"><a xlink:title="Runs the full end&#45;to&#45;end UI simulation for Native Image configuration using a Robot.">
<polygon fill="#999999" stroke="#666666" points="193.75,-212 0,-212 0,-180 193.75,-180 193.75,-212"/>
<text text-anchor="start" x="8" y="-198.5" font-family="Helvetica,sans-Serif" font-size="10.00">fr.softsf.canscan.Native</text>
<text text-anchor="middle" x="96.88" y="-186.5" font-family="Helvetica,sans-Serif" font-size="10.00">ImageConfigSimulator.runE2ESimulation</text>
</a>
</g>
</g>
<!-- Node2 -->
<g id="Node000002" class="node">
<title>Node2</title>
<g id="a_Node000002"><a xlink:href="classfr_1_1softsf_1_1canscan_1_1_native_image_config_simulator.html#acbf2b92c5c36da7ad4329966d92f1a1b" target="_top" xlink:title="Simulates clicking a browse button to open a JFileChooser, performs a right&#45;click inside it,...">
<polygon fill="white" stroke="#666666" points="420.5,-336 241,-336 241,-292 420.5,-292 420.5,-336"/>
<text text-anchor="start" x="249" y="-322.5" font-family="Helvetica,sans-Serif" font-size="10.00">fr.softsf.canscan.Native</text>
<text text-anchor="start" x="249" y="-310.5" font-family="Helvetica,sans-Serif" font-size="10.00">ImageConfigSimulator.browseFolders</text>
<text text-anchor="middle" x="330.75" y="-298.5" font-family="Helvetica,sans-Serif" font-size="10.00">Simulation</text>
</a>
</g>
</g>
<!-- Node1&#45;&gt;Node2 -->
<g id="edge1_Node000001_Node000002" class="edge">
<title>Node1&#45;&gt;Node2</title>
<g id="a_edge1_Node000001_Node000002"><a xlink:title=" ">
<path fill="none" stroke="#63b8ff" d="M118.7,-212.45C143.8,-231.61 187.85,-263.18 229.75,-283 232.89,-284.49 236.13,-285.93 239.42,-287.31"/>
<polygon fill="#63b8ff" stroke="#63b8ff" points="238.09,-290.55 248.68,-291.01 240.69,-284.05 238.09,-290.55"/>
</a>
</g>
</g>
<!-- Node4 -->
<g id="Node000004" class="node">
<title>Node4</title>
<g id="a_Node000004"><a xlink:href="classfr_1_1softsf_1_1canscan_1_1_native_image_config_simulator.html#a3ce8b70d660baabe5ed741e64dfd0af3" target="_top" xlink:title="Simulates selecting a color via JColorChooser, confirms the dialog with Enter, and verifies the selec...">
<polygon fill="white" stroke="#666666" points="431.75,-212 229.75,-212 229.75,-180 431.75,-180 431.75,-212"/>
<text text-anchor="start" x="237.75" y="-198.5" font-family="Helvetica,sans-Serif" font-size="10.00">fr.softsf.canscan.Native</text>
<text text-anchor="middle" x="330.75" y="-186.5" font-family="Helvetica,sans-Serif" font-size="10.00">ImageConfigSimulator.chooseModuleColor</text>
</a>
</g>
</g>
<!-- Node1&#45;&gt;Node4 -->
<g id="edge3_Node000001_Node000004" class="edge">
<title>Node1&#45;&gt;Node4</title>
<g id="a_edge3_Node000001_Node000004"><a xlink:title=" ">
<path fill="none" stroke="#63b8ff" d="M194.2,-196C202.15,-196 210.22,-196 218.27,-196"/>
<polygon fill="#63b8ff" stroke="#63b8ff" points="218.1,-199.5 228.1,-196 218.1,-192.5 218.1,-199.5"/>
</a>
</g>
</g>
<!-- Node6 -->
<g id="Node000006" class="node">
<title>Node6</title>
<g id="a_Node000006"><a xlink:href="classfr_1_1softsf_1_1canscan_1_1_native_image_config_simulator.html#ad18c2e9f57e07032b9a48a10e02e61f6" target="_top" xlink:title="Searches for a component of the specified type and name within the given container hierarchy.">
<polygon fill="white" stroke="#666666" points="421.62,-32 239.88,-32 239.88,0 421.62,0 421.62,-32"/>
<text text-anchor="start" x="247.88" y="-18.5" font-family="Helvetica,sans-Serif" font-size="10.00">fr.softsf.canscan.Native</text>
<text text-anchor="middle" x="330.75" y="-6.5" font-family="Helvetica,sans-Serif" font-size="10.00">ImageConfigSimulator.findComponent</text>
</a>
</g>
</g>
<!-- Node1&#45;&gt;Node6 -->
<g id="edge6_Node000001_Node000006" class="edge">
<title>Node1&#45;&gt;Node6</title>
<g id="a_edge6_Node000001_Node000006"><a xlink:title=" ">
<path fill="none" stroke="#63b8ff" d="M110.04,-179.61C131.51,-151.65 178.71,-94.31 229.75,-59 242.13,-50.43 256.5,-43.03 270.41,-36.9"/>
<polygon fill="#63b8ff" stroke="#63b8ff" points="271.67,-40.17 279.52,-33.05 268.95,-33.72 271.67,-40.17"/>
</a>
</g>
</g>
<!-- Node7 -->
<g id="Node000007" class="node">
<title>Node7</title>
<g id="a_Node000007"><a xlink:href="classfr_1_1softsf_1_1canscan_1_1_native_image_config_simulator.html#a38fd2d97bfc693365a8dc700273ada47" target="_top" xlink:title="Simulates selecting the free data mode and entering an oversized payload into the input field.">
<polygon fill="white" stroke="#666666" points="407.38,-398 254.12,-398 254.12,-354 407.38,-354 407.38,-398"/>
<text text-anchor="start" x="262.12" y="-384.5" font-family="Helvetica,sans-Serif" font-size="10.00">fr.softsf.canscan.Native</text>
<text text-anchor="start" x="262.12" y="-372.5" font-family="Helvetica,sans-Serif" font-size="10.00">ImageConfigSimulator.freeData</text>
<text text-anchor="middle" x="330.75" y="-360.5" font-family="Helvetica,sans-Serif" font-size="10.00">TooBig</text>
</a>
</g>
</g>
<!-- Node1&#45;&gt;Node7 -->
<g id="edge8_Node000001_Node000007" class="edge">
<title>Node1&#45;&gt;Node7</title>
<g id="a_edge8_Node000001_Node000007"><a xlink:title=" ">
<path fill="none" stroke="#63b8ff" d="M107.73,-212.06C127.23,-242.51 173.74,-308.83 229.75,-345 234.03,-347.76 238.57,-350.3 243.27,-352.61"/>
<polygon fill="#63b8ff" stroke="#63b8ff" points="241.82,-355.8 252.37,-356.72 244.7,-349.42 241.82,-355.8"/>
</a>
</g>
</g>
<!-- Node10 -->
<g id="Node000010" class="node">
<title>Node10</title>
<g id="a_Node000010"><a xlink:href="classfr_1_1softsf_1_1canscan_1_1_native_image_config_simulator.html#ae2840980d77f2806ab5f1bd471186ed3" target="_top" xlink:title="Simulates typing &quot;Test&quot; into a JTextField and verifies the input using a Robot.">
<polygon fill="white" stroke="#666666" points="414.88,-112 246.62,-112 246.62,-68 414.88,-68 414.88,-112"/>
<text text-anchor="start" x="254.62" y="-98.5" font-family="Helvetica,sans-Serif" font-size="10.00">fr.softsf.canscan.Native</text>
<text text-anchor="start" x="254.62" y="-86.5" font-family="Helvetica,sans-Serif" font-size="10.00">ImageConfigSimulator.nameTyping</text>
<text text-anchor="middle" x="330.75" y="-74.5" font-family="Helvetica,sans-Serif" font-size="10.00">Simulation</text>
</a>
</g>
</g>
<!-- Node1&#45;&gt;Node10 -->
<g id="edge14_Node000001_Node000010" class="edge">
<title>Node1&#45;&gt;Node10</title>
<g id="a_edge14_Node000001_Node000010"><a xlink:title=" ">
<path fill="none" stroke="#63b8ff" d="M122.8,-179.65C148.71,-163.18 190.84,-137.86 229.75,-121 233.36,-119.44 237.08,-117.91 240.86,-116.44"/>
<polygon fill="#63b8ff" stroke="#63b8ff" points="242.07,-119.72 250.21,-112.94 239.62,-113.16 242.07,-119.72"/>
</a>
</g>
</g>
<!-- Node13 -->
<g id="Node000013" class="node">
<title>Node13</title>
<g id="a_Node000013"><a xlink:href="classfr_1_1softsf_1_1canscan_1_1_native_image_config_simulator.html#a9e920788e82b3b113a566174265607af" target="_top" xlink:title="Simulates hovering over a JSlider to verify its tooltip matches the current slider value.">
<polygon fill="white" stroke="#666666" points="410.38,-274 251.12,-274 251.12,-230 410.38,-230 410.38,-274"/>
<text text-anchor="start" x="259.12" y="-260.5" font-family="Helvetica,sans-Serif" font-size="10.00">fr.softsf.canscan.Native</text>
<text text-anchor="start" x="259.12" y="-248.5" font-family="Helvetica,sans-Serif" font-size="10.00">ImageConfigSimulator.ratioSlider</text>
<text text-anchor="middle" x="330.75" y="-236.5" font-family="Helvetica,sans-Serif" font-size="10.00">TooltipSimulation</text>
</a>
</g>
</g>
<!-- Node1&#45;&gt;Node13 -->
<g id="edge18_Node000001_Node000013" class="edge">
<title>Node1&#45;&gt;Node13</title>
<g id="a_edge18_Node000001_Node000013"><a xlink:title=" ">
<path fill="none" stroke="#63b8ff" d="M166.19,-212.5C189.24,-218.07 215.34,-224.37 239.8,-230.28"/>
<polygon fill="#63b8ff" stroke="#63b8ff" points="238.9,-233.66 249.44,-232.61 240.54,-226.86 238.9,-233.66"/>
</a>
</g>
</g>
<!-- Node14 -->
<g id="Node000014" class="node">
<title>Node14</title>
<g id="a_Node000014"><a xlink:href="classfr_1_1softsf_1_1canscan_1_1_native_image_config_simulator.html#a346e85bc50a5fd264ba680c0c5a3d51a" target="_top" xlink:title="Simulates activating the meeting mode and selecting a start time through the TimePicker.">
<polygon fill="white" stroke="#666666" points="428.38,-162 233.12,-162 233.12,-130 428.38,-130 428.38,-162"/>
<text text-anchor="start" x="241.12" y="-148.5" font-family="Helvetica,sans-Serif" font-size="10.00">fr.softsf.canscan.Native</text>
<text text-anchor="middle" x="330.75" y="-136.5" font-family="Helvetica,sans-Serif" font-size="10.00">ImageConfigSimulator.selectABeginTime</text>
</a>
</g>
</g>
<!-- Node1&#45;&gt;Node14 -->
<g id="edge20_Node000001_Node000014" class="edge">
<title>Node1&#45;&gt;Node14</title>
<g id="a_edge20_Node000001_Node000014"><a xlink:title=" ">
<path fill="none" stroke="#63b8ff" d="M174.12,-179.56C195.91,-174.86 219.84,-169.7 242.25,-164.87"/>
<polygon fill="#63b8ff" stroke="#63b8ff" points="242.94,-168.3 251.98,-162.77 241.47,-161.46 242.94,-168.3"/>
</a>
</g>
</g>
<!-- Node3 -->
<g id="Node000003" class="node">
<title>Node3</title>
<g id="a_Node000003"><a xlink:href="classfr_1_1softsf_1_1canscan_1_1_native_image_config_simulator.html#aaadd03094f00bbe2258c6e9742be224d" target="_top" xlink:title="Compares two strings and prints the test result with a label.">
<polygon fill="white" stroke="#666666" points="640.5,-268 467.75,-268 467.75,-236 640.5,-236 640.5,-268"/>
<text text-anchor="start" x="475.75" y="-254.5" font-family="Helvetica,sans-Serif" font-size="10.00">fr.softsf.canscan.Native</text>
<text text-anchor="middle" x="554.12" y="-242.5" font-family="Helvetica,sans-Serif" font-size="10.00">ImageConfigSimulator.assertEquals</text>
</a>
</g>
</g>
<!-- Node2&#45;&gt;Node3 -->
<g id="edge2_Node000002_Node000003" class="edge">
<title>Node2&#45;&gt;Node3</title>
<g id="a_edge2_Node000002_Node000003"><a xlink:title=" ">
<path fill="none" stroke="#63b8ff" d="M411.98,-291.53C435.38,-284.98 460.74,-277.87 483.43,-271.52"/>
<polygon fill="#63b8ff" stroke="#63b8ff" points="484.19,-274.94 492.87,-268.87 482.3,-268.2 484.19,-274.94"/>
</a>
</g>
</g>
<!-- Node4&#45;&gt;Node3 -->
<g id="edge4_Node000004_Node000003" class="edge">
<title>Node4&#45;&gt;Node3</title>
<g id="a_edge4_Node000004_Node000003"><a xlink:title=" ">
<path fill="none" stroke="#63b8ff" d="M397.92,-212.49C409.21,-215.32 420.82,-218.24 431.75,-221 446.68,-224.77 462.64,-228.83 477.91,-232.73"/>
<polygon fill="#63b8ff" stroke="#63b8ff" points="476.87,-236.07 487.42,-235.15 478.6,-229.29 476.87,-236.07"/>
</a>
</g>
</g>
<!-- Node5 -->
<g id="Node000005" class="node">
<title>Node5</title>
<g id="a_Node000005"><a xlink:href="classfr_1_1softsf_1_1canscan_1_1_native_image_config_simulator.html#ab4d4463dc9177237a8de0a7b6713e7cf" target="_top" xlink:title="Simulates pressing the Enter key using the provided Robot, followed by a short delay.">
<polygon fill="white" stroke="#666666" points="849.25,-224 686.25,-224 686.25,-192 849.25,-192 849.25,-224"/>
<text text-anchor="start" x="694.25" y="-210.5" font-family="Helvetica,sans-Serif" font-size="10.00">fr.softsf.canscan.Native</text>
<text text-anchor="middle" x="767.75" y="-198.5" font-family="Helvetica,sans-Serif" font-size="10.00">ImageConfigSimulator.pressEnter</text>
</a>
</g>
</g>
<!-- Node4&#45;&gt;Node5 -->
<g id="edge5_Node000004_Node000005" class="edge">
<title>Node4&#45;&gt;Node5</title>
<g id="a_edge5_Node000004_Node000005"><a xlink:title=" ">
<path fill="none" stroke="#63b8ff" d="M432.09,-198.77C505.21,-200.79 603.51,-203.5 674.63,-205.46"/>
<polygon fill="#63b8ff" stroke="#63b8ff" points="674.2,-208.95 684.3,-205.73 674.4,-201.95 674.2,-208.95"/>
</a>
</g>
</g>
<!-- Node6&#45;&gt;Node6 -->
<g id="edge7_Node000006_Node000006" class="edge">
<title>Node6&#45;&gt;Node6</title>
<g id="a_edge7_Node000006_Node000006"><a xlink:title=" ">
<path fill="none" stroke="#63b8ff" d="M290.87,-32.44C283.43,-41.58 296.72,-50 330.75,-50 349.63,-50 362.12,-47.41 368.24,-43.54"/>
<polygon fill="#63b8ff" stroke="#63b8ff" points="371.63,-44.44 370.31,-33.92 364.78,-42.96 371.63,-44.44"/>
</a>
</g>
</g>
<!-- Node7&#45;&gt;Node3 -->
<g id="edge9_Node000007_Node000003" class="edge">
<title>Node7&#45;&gt;Node3</title>
<g id="a_edge9_Node000007_Node000003"><a xlink:title=" ">
<path fill="none" stroke="#63b8ff" d="M407.86,-356.47C416.16,-353.16 424.3,-349.36 431.75,-345 450.75,-333.9 450.65,-324.85 467.75,-311 483.63,-298.13 502.21,-285.08 517.97,-274.54"/>
<polygon fill="#63b8ff" stroke="#63b8ff" points="519.69,-277.59 526.1,-269.16 515.83,-271.76 519.69,-277.59"/>
</a>
</g>
</g>
<!-- Node8 -->
<g id="Node000008" class="node">
<title>Node8</title>
<g id="a_Node000008"><a xlink:href="classfr_1_1softsf_1_1canscan_1_1_native_image_config_simulator.html#a4795cbc2d8717311fd26b8589a618616" target="_top" xlink:title="Confirms and closes a visible JOptionPane by pressing Enter, then returns the dialog title.">
<polygon fill="white" stroke="#666666" points="630.75,-364 477.5,-364 477.5,-320 630.75,-320 630.75,-364"/>
<text text-anchor="start" x="485.5" y="-350.5" font-family="Helvetica,sans-Serif" font-size="10.00">fr.softsf.canscan.Native</text>
<text text-anchor="start" x="485.5" y="-338.5" font-family="Helvetica,sans-Serif" font-size="10.00">ImageConfigSimulator.intercept</text>
<text text-anchor="middle" x="554.12" y="-326.5" font-family="Helvetica,sans-Serif" font-size="10.00">AndValideDialog</text>
</a>
</g>
</g>
<!-- Node7&#45;&gt;Node8 -->
<g id="edge10_Node000007_Node000008" class="edge">
<title>Node7&#45;&gt;Node8</title>
<g id="a_edge10_Node000007_Node000008"><a xlink:title=" ">
<path fill="none" stroke="#63b8ff" d="M407.62,-364.35C426.46,-361.45 446.79,-358.33 466.11,-355.36"/>
<polygon fill="#63b8ff" stroke="#63b8ff" points="466.5,-358.85 475.85,-353.87 465.44,-351.93 466.5,-358.85"/>
</a>
</g>
</g>
<!-- Node8&#45;&gt;Node5 -->
<g id="edge13_Node000008_Node000005" class="edge">
<title>Node8&#45;&gt;Node5</title>
<g id="a_edge13_Node000008_Node000005"><a xlink:title=" ">
<path fill="none" stroke="#63b8ff" d="M590.55,-319.57C629.62,-294.83 692.14,-255.24 731.25,-230.48"/>
<polygon fill="#63b8ff" stroke="#63b8ff" points="733.04,-233.49 739.62,-225.18 729.3,-227.57 733.04,-233.49"/>
</a>
</g>
</g>
<!-- Node9 -->
<g id="Node000009" class="node">
<title>Node9</title>
<g id="a_Node000009"><a xlink:href="classfr_1_1softsf_1_1canscan_1_1_native_image_config_simulator.html#ac80dbcb1d031bb72c93cf21315c09f27" target="_top" xlink:title="Recursively searches the given container and its descendants for a JOptionPane instance.">
<polygon fill="white" stroke="#666666" points="859,-358 676.5,-358 676.5,-326 859,-326 859,-358"/>
<text text-anchor="start" x="684.5" y="-344.5" font-family="Helvetica,sans-Serif" font-size="10.00">fr.softsf.canscan.Native</text>
<text text-anchor="middle" x="767.75" y="-332.5" font-family="Helvetica,sans-Serif" font-size="10.00">ImageConfigSimulator.findOptionPane</text>
</a>
</g>
</g>
<!-- Node8&#45;&gt;Node9 -->
<g id="edge11_Node000008_Node000009" class="edge">
<title>Node8&#45;&gt;Node9</title>
<g id="a_edge11_Node000008_Node000009"><a xlink:title=" ">
<path fill="none" stroke="#63b8ff" d="M631.23,-342C642.16,-342 653.55,-342 664.88,-342"/>
<polygon fill="#63b8ff" stroke="#63b8ff" points="664.66,-345.5 674.66,-342 664.66,-338.5 664.66,-345.5"/>
</a>
</g>
</g>
<!-- Node9&#45;&gt;Node9 -->
<g id="edge12_Node000009_Node000009" class="edge">
<title>Node9&#45;&gt;Node9</title>
<g id="a_edge12_Node000009_Node000009"><a xlink:title=" ">
<path fill="none" stroke="#63b8ff" d="M729.61,-358.44C722.49,-367.58 735.21,-376 767.75,-376 785.8,-376 797.75,-373.41 803.6,-369.54"/>
<polygon fill="#63b8ff" stroke="#63b8ff" points="806.99,-370.43 805.58,-359.93 800.14,-369.01 806.99,-370.43"/>
</a>
</g>
</g>
<!-- Node10&#45;&gt;Node3 -->
<g id="edge15_Node000010_Node000003" class="edge">
<title>Node10&#45;&gt;Node3</title>
<g id="a_edge15_Node000010_Node000003"><a xlink:title=" ">
<path fill="none" stroke="#63b8ff" d="M415.13,-112.07C420.92,-114.74 426.52,-117.71 431.75,-121 455.13,-135.73 504.79,-193.45 532.81,-227.16"/>
<polygon fill="#63b8ff" stroke="#63b8ff" points="530.06,-229.33 539.13,-234.81 535.45,-224.87 530.06,-229.33"/>
</a>
</g>
</g>
<!-- Node11 -->
<g id="Node000011" class="node">
<title>Node11</title>
<g id="a_Node000011"><a xlink:href="classfr_1_1softsf_1_1canscan_1_1_native_image_config_simulator.html#acc5424a9d2c1d44c93a045868f58a5ff" target="_top" xlink:title="Simulates typing a full string using the Robot class.">
<polygon fill="white" stroke="#666666" points="634.12,-92 474.12,-92 474.12,-60 634.12,-60 634.12,-92"/>
<text text-anchor="start" x="482.12" y="-78.5" font-family="Helvetica,sans-Serif" font-size="10.00">fr.softsf.canscan.Native</text>
<text text-anchor="middle" x="554.12" y="-66.5" font-family="Helvetica,sans-Serif" font-size="10.00">ImageConfigSimulator.typeString</text>
</a>
</g>
</g>
<!-- Node10&#45;&gt;Node11 -->
<g id="edge16_Node000010_Node000011" class="edge">
<title>Node10&#45;&gt;Node11</title>
<g id="a_edge16_Node000010_Node000011"><a xlink:title=" ">
<path fill="none" stroke="#63b8ff" d="M415.13,-84.73C430.61,-83.75 446.86,-82.72 462.54,-81.73"/>
<polygon fill="#63b8ff" stroke="#63b8ff" points="462.58,-85.23 472.34,-81.11 462.14,-78.25 462.58,-85.23"/>
</a>
</g>
</g>
<!-- Node12 -->
<g id="Node000012" class="node">
<title>Node12</title>
<g id="a_Node000012"><a xlink:href="classfr_1_1softsf_1_1canscan_1_1_native_image_config_simulator.html#a4c1895b6327fef325b1b0c8047bcfcb7" target="_top" xlink:title="Simulates typing a single character using the Robot class.">
<polygon fill="white" stroke="#666666" points="845.5,-92 690,-92 690,-60 845.5,-60 845.5,-92"/>
<text text-anchor="start" x="698" y="-78.5" font-family="Helvetica,sans-Serif" font-size="10.00">fr.softsf.canscan.Native</text>
<text text-anchor="middle" x="767.75" y="-66.5" font-family="Helvetica,sans-Serif" font-size="10.00">ImageConfigSimulator.typeChar</text>
</a>
</g>
</g>
<!-- Node11&#45;&gt;Node12 -->
<g id="edge17_Node000011_Node000012" class="edge">
<title>Node11&#45;&gt;Node12</title>
<g id="a_edge17_Node000011_Node000012"><a xlink:title=" ">
<path fill="none" stroke="#63b8ff" d="M634.53,-76C648.78,-76 663.71,-76 678.21,-76"/>
<polygon fill="#63b8ff" stroke="#63b8ff" points="678.2,-79.5 688.2,-76 678.2,-72.5 678.2,-79.5"/>
</a>
</g>
</g>
<!-- Node13&#45;&gt;Node3 -->
<g id="edge19_Node000013_Node000003" class="edge">
<title>Node13&#45;&gt;Node3</title>
<g id="a_edge19_Node000013_Node000003"><a xlink:title=" ">
<path fill="none" stroke="#63b8ff" d="M410.73,-252C425.38,-252 440.83,-252 455.94,-252"/>
<polygon fill="#63b8ff" stroke="#63b8ff" points="455.9,-255.5 465.9,-252 455.9,-248.5 455.9,-255.5"/>
</a>
</g>
</g>
<!-- Node14&#45;&gt;Node3 -->
<g id="edge21_Node000014_Node000003" class="edge">
<title>Node14&#45;&gt;Node3</title>
<g id="a_edge21_Node000014_Node000003"><a xlink:title=" ">
<path fill="none" stroke="#63b8ff" d="M409.09,-162.48C416.87,-164.98 424.55,-167.81 431.75,-171 465.75,-186.05 500.66,-210.47 524.26,-228.57"/>
<polygon fill="#63b8ff" stroke="#63b8ff" points="522.11,-231.33 532.15,-234.72 526.42,-225.81 522.11,-231.33"/>
</a>
</g>
</g>
<!-- Node14&#45;&gt;Node5 -->
<g id="edge23_Node000014_Node000005" class="edge">
<title>Node14&#45;&gt;Node5</title>
<g id="a_edge23_Node000014_Node000005"><a xlink:title=" ">
<path fill="none" stroke="#63b8ff" d="M428.83,-159.84C502.28,-170.3 602.47,-184.59 674.66,-194.87"/>
<polygon fill="#63b8ff" stroke="#63b8ff" points="674.11,-198.33 684.5,-196.28 675.1,-191.4 674.11,-198.33"/>
</a>
</g>
</g>
<!-- Node15 -->
<g id="Node000015" class="node">
<title>Node15</title>
<g id="a_Node000015"><a xlink:href="classfr_1_1softsf_1_1canscan_1_1_native_image_config_simulator.html#a408544bcaf9c2fb999521466aa9d2233" target="_top" xlink:title="Simulates pressing the Down arrow key using the provided Robot, followed by a short delay.">
<polygon fill="white" stroke="#666666" points="636.75,-142 471.5,-142 471.5,-110 636.75,-110 636.75,-142"/>
<text text-anchor="start" x="479.5" y="-128.5" font-family="Helvetica,sans-Serif" font-size="10.00">fr.softsf.canscan.Native</text>
<text text-anchor="middle" x="554.12" y="-116.5" font-family="Helvetica,sans-Serif" font-size="10.00">ImageConfigSimulator.pressDown</text>
</a>
</g>
</g>
<!-- Node14&#45;&gt;Node15 -->
<g id="edge22_Node000014_Node000015" class="edge">
<title>Node14&#45;&gt;Node15</title>
<g id="a_edge22_Node000014_Node000015"><a xlink:title=" ">
<path fill="none" stroke="#63b8ff" d="M428.85,-137.23C439.26,-136.29 449.83,-135.33 460.19,-134.4"/>
<polygon fill="#63b8ff" stroke="#63b8ff" points="460.17,-137.91 469.82,-133.53 459.54,-130.94 460.17,-137.91"/>
</a>
</g>
</g>
</g>
</svg>
