<?xml version="1.0" encoding="UTF-8" standalone="no"?>
<!DOCTYPE svg PUBLIC "-//W3C//DTD SVG 1.1//EN"
 "http://www.w3.org/Graphics/SVG/1.1/DTD/svg11.dtd">
<!-- Generated by graphviz version 12.2.1 (20241206.2353)
 -->
<!-- Title: fr.softsf.canscan.ui.DynamicQrCodeResize.updateQrCodeResize Pages: 1 -->
<svg width="848pt" height="238pt"
 viewBox="0.00 0.00 848.25 238.00" xmlns="http://www.w3.org/2000/svg" xmlns:xlink="http://www.w3.org/1999/xlink">
<g id="graph0" class="graph" transform="scale(1 1) rotate(0) translate(4 234)">
<title>fr.softsf.canscan.ui.DynamicQrCodeResize.updateQrCodeResize</title>
<!-- Node1 -->
<g id="Node000001" class="node">
<title>Node1</title>
<g id="a_Node000001"><a xlink:title="Updates the current QR input and schedules a debounced resize operation.">
<polygon fill="#999999" stroke="#666666" points="177.25,-162 0,-162 0,-130 177.25,-130 177.25,-162"/>
<text text-anchor="start" x="8" y="-148.5" font-family="Helvetica,sans-Serif" font-size="10.00">fr.softsf.canscan.ui.Dynamic</text>
<text text-anchor="middle" x="88.62" y="-136.5" font-family="Helvetica,sans-Serif" font-size="10.00">QrCodeResize.updateQrCodeResize</text>
</a>
</g>
</g>
<!-- Node2 -->
<g id="Node000002" class="node">
<title>Node2</title>
<g id="a_Node000002"><a xlink:href="classfr_1_1softsf_1_1canscan_1_1service_1_1_abstract_dynamic_qr_code_worker.html#a200fada62fe7977e60f65130dbf11276" target="_top" xlink:title="Executes the unified workflow: cancel previous worker, stop debounce, clear resources,...">
<polygon fill="white" stroke="#666666" points="394.25,-168 213.25,-168 213.25,-124 394.25,-124 394.25,-168"/>
<text text-anchor="start" x="221.25" y="-154.5" font-family="Helvetica,sans-Serif" font-size="10.00">fr.softsf.canscan.service.</text>
<text text-anchor="start" x="221.25" y="-142.5" font-family="Helvetica,sans-Serif" font-size="10.00">AbstractDynamicQrCodeWorker.reset</text>
<text text-anchor="middle" x="303.75" y="-130.5" font-family="Helvetica,sans-Serif" font-size="10.00">AndStartWorker</text>
</a>
</g>
</g>
<!-- Node1&#45;&gt;Node2 -->
<g id="edge1_Node000001_Node000002" class="edge">
<title>Node1&#45;&gt;Node2</title>
<g id="a_edge1_Node000001_Node000002"><a xlink:title=" ">
<path fill="none" stroke="#63b8ff" d="M177.54,-146C185.49,-146 193.58,-146 201.63,-146"/>
<polygon fill="#63b8ff" stroke="#63b8ff" points="201.46,-149.5 211.46,-146 201.46,-142.5 201.46,-149.5"/>
</a>
</g>
</g>
<!-- Node3 -->
<g id="Node000003" class="node">
<title>Node3</title>
<g id="a_Node000003"><a xlink:href="classfr_1_1softsf_1_1canscan_1_1service_1_1_abstract_dynamic_qr_code_worker.html#a7cc26d48e6fdf5032aa4495a4dea06c7" target="_top" xlink:title="Creates and returns a new SwingWorker for the current operation.">
<polygon fill="white" stroke="#666666" points="616.5,-199 430.25,-199 430.25,-155 616.5,-155 616.5,-199"/>
<text text-anchor="start" x="438.25" y="-185.5" font-family="Helvetica,sans-Serif" font-size="10.00">fr.softsf.canscan.service.</text>
<text text-anchor="start" x="438.25" y="-173.5" font-family="Helvetica,sans-Serif" font-size="10.00">AbstractDynamicQrCodeWorker.create</text>
<text text-anchor="middle" x="523.38" y="-161.5" font-family="Helvetica,sans-Serif" font-size="10.00">Worker</text>
</a>
</g>
</g>
<!-- Node2&#45;&gt;Node3 -->
<g id="edge2_Node000002_Node000003" class="edge">
<title>Node2&#45;&gt;Node3</title>
<g id="a_edge2_Node000002_Node000003"><a xlink:title=" ">
<path fill="none" stroke="#63b8ff" d="M394.52,-158.79C402.48,-159.92 410.58,-161.08 418.64,-162.22"/>
<polygon fill="#63b8ff" stroke="#63b8ff" points="418.1,-165.68 428.5,-163.63 419.09,-158.75 418.1,-165.68"/>
</a>
</g>
</g>
<!-- Node4 -->
<g id="Node000004" class="node">
<title>Node4</title>
<g id="a_Node000004"><a xlink:href="classfr_1_1softsf_1_1canscan_1_1service_1_1_abstract_dynamic_qr_code_worker.html#ab96e38d883cf01ec5565f6391e20c9ac" target="_top" xlink:title="Resets the current worker and associated resources.">
<polygon fill="white" stroke="#666666" points="613.88,-137 432.88,-137 432.88,-93 613.88,-93 613.88,-137"/>
<text text-anchor="start" x="440.88" y="-123.5" font-family="Helvetica,sans-Serif" font-size="10.00">fr.softsf.canscan.service.</text>
<text text-anchor="start" x="440.88" y="-111.5" font-family="Helvetica,sans-Serif" font-size="10.00">AbstractDynamicQrCodeWorker.reset</text>
<text text-anchor="middle" x="523.38" y="-99.5" font-family="Helvetica,sans-Serif" font-size="10.00">Worker</text>
</a>
</g>
</g>
<!-- Node2&#45;&gt;Node4 -->
<g id="edge3_Node000002_Node000004" class="edge">
<title>Node2&#45;&gt;Node4</title>
<g id="a_edge3_Node000002_Node000004"><a xlink:title=" ">
<path fill="none" stroke="#63b8ff" d="M394.52,-133.21C403.33,-131.96 412.31,-130.68 421.22,-129.41"/>
<polygon fill="#63b8ff" stroke="#63b8ff" points="421.55,-132.9 430.96,-128.02 420.57,-125.97 421.55,-132.9"/>
</a>
</g>
</g>
<!-- Node5 -->
<g id="Node000005" class="node">
<title>Node5</title>
<g id="a_Node000005"><a xlink:href="classfr_1_1softsf_1_1canscan_1_1service_1_1_abstract_dynamic_qr_code_worker.html#a827422a0dbc6c5ece6981cdecccbd287" target="_top" xlink:title="Cancels the current SwingWorker and clears its reference safely.">
<polygon fill="white" stroke="#666666" points="840.25,-230 652.5,-230 652.5,-186 840.25,-186 840.25,-230"/>
<text text-anchor="start" x="660.5" y="-216.5" font-family="Helvetica,sans-Serif" font-size="10.00">fr.softsf.canscan.service.</text>
<text text-anchor="start" x="660.5" y="-204.5" font-family="Helvetica,sans-Serif" font-size="10.00">AbstractDynamicQrCodeWorker.cancel</text>
<text text-anchor="middle" x="746.38" y="-192.5" font-family="Helvetica,sans-Serif" font-size="10.00">Worker</text>
</a>
</g>
</g>
<!-- Node4&#45;&gt;Node5 -->
<g id="edge4_Node000004_Node000005" class="edge">
<title>Node4&#45;&gt;Node5</title>
<g id="a_edge4_Node000004_Node000005"><a xlink:title=" ">
<path fill="none" stroke="#63b8ff" d="M599.37,-137.46C605.29,-140.07 611.07,-142.91 616.5,-146 634.85,-156.45 634.14,-166.57 652.5,-177 654.81,-178.31 657.18,-179.58 659.6,-180.8"/>
<polygon fill="#63b8ff" stroke="#63b8ff" points="657.86,-183.85 668.4,-184.93 660.83,-177.51 657.86,-183.85"/>
</a>
</g>
</g>
<!-- Node6 -->
<g id="Node000006" class="node">
<title>Node6</title>
<g id="a_Node000006"><a xlink:href="classfr_1_1softsf_1_1canscan_1_1service_1_1_abstract_dynamic_qr_code_worker.html#a49e1caf8da3d33dde4b1d7e351aecd19" target="_top" xlink:title="Clears any allocated data, icons, or buffers before starting a new task.">
<polygon fill="white" stroke="#666666" points="836.5,-168 656.25,-168 656.25,-124 836.5,-124 836.5,-168"/>
<text text-anchor="start" x="664.25" y="-154.5" font-family="Helvetica,sans-Serif" font-size="10.00">fr.softsf.canscan.service.</text>
<text text-anchor="start" x="664.25" y="-142.5" font-family="Helvetica,sans-Serif" font-size="10.00">AbstractDynamicQrCodeWorker.clear</text>
<text text-anchor="middle" x="746.38" y="-130.5" font-family="Helvetica,sans-Serif" font-size="10.00">Resources</text>
</a>
</g>
</g>
<!-- Node4&#45;&gt;Node6 -->
<g id="edge5_Node000004_Node000006" class="edge">
<title>Node4&#45;&gt;Node6</title>
<g id="a_edge5_Node000004_Node000006"><a xlink:title=" ">
<path fill="none" stroke="#63b8ff" d="M614.26,-127.61C624.25,-129.01 634.47,-130.44 644.58,-131.86"/>
<polygon fill="#63b8ff" stroke="#63b8ff" points="644.04,-135.32 654.42,-133.24 645.01,-128.39 644.04,-135.32"/>
</a>
</g>
</g>
<!-- Node7 -->
<g id="Node000007" class="node">
<title>Node7</title>
<g id="a_Node000007"><a xlink:href="classfr_1_1softsf_1_1canscan_1_1service_1_1_abstract_dynamic_qr_code_worker.html#a5ebccb20366b1496129ad831a399c8d0" target="_top" xlink:title="Stops and clears the debounce timer.">
<polygon fill="white" stroke="#666666" points="835.38,-106 657.38,-106 657.38,-62 835.38,-62 835.38,-106"/>
<text text-anchor="start" x="665.38" y="-92.5" font-family="Helvetica,sans-Serif" font-size="10.00">fr.softsf.canscan.service.</text>
<text text-anchor="start" x="665.38" y="-80.5" font-family="Helvetica,sans-Serif" font-size="10.00">AbstractDynamicQrCodeWorker.stop</text>
<text text-anchor="middle" x="746.38" y="-68.5" font-family="Helvetica,sans-Serif" font-size="10.00">DebounceTimer</text>
</a>
</g>
</g>
<!-- Node4&#45;&gt;Node7 -->
<g id="edge6_Node000004_Node000007" class="edge">
<title>Node4&#45;&gt;Node7</title>
<g id="a_edge6_Node000004_Node000007"><a xlink:title=" ">
<path fill="none" stroke="#63b8ff" d="M614.26,-102.39C624.62,-100.94 635.23,-99.45 645.7,-97.98"/>
<polygon fill="#63b8ff" stroke="#63b8ff" points="646.08,-101.46 655.5,-96.61 645.11,-94.53 646.08,-101.46"/>
</a>
</g>
</g>
<!-- Node8 -->
<g id="Node000008" class="node">
<title>Node8</title>
<g id="a_Node000008"><a xlink:href="classfr_1_1softsf_1_1canscan_1_1service_1_1_abstract_dynamic_qr_code_worker.html#a99151891dd8d4592131c224c1de25ad9" target="_top" xlink:title="Stops the loader&#39;s wait indicator.">
<polygon fill="white" stroke="#666666" points="835.38,-44 657.38,-44 657.38,0 835.38,0 835.38,-44"/>
<text text-anchor="start" x="665.38" y="-30.5" font-family="Helvetica,sans-Serif" font-size="10.00">fr.softsf.canscan.service.</text>
<text text-anchor="start" x="665.38" y="-18.5" font-family="Helvetica,sans-Serif" font-size="10.00">AbstractDynamicQrCodeWorker.stop</text>
<text text-anchor="middle" x="746.38" y="-6.5" font-family="Helvetica,sans-Serif" font-size="10.00">Loader</text>
</a>
</g>
</g>
<!-- Node4&#45;&gt;Node8 -->
<g id="edge7_Node000004_Node000008" class="edge">
<title>Node4&#45;&gt;Node8</title>
<g id="a_edge7_Node000004_Node000008"><a xlink:title=" ">
<path fill="none" stroke="#63b8ff" d="M567.04,-92.65C591.67,-80.18 623.43,-64.83 652.5,-53 656.35,-51.43 660.31,-49.89 664.32,-48.36"/>
<polygon fill="#63b8ff" stroke="#63b8ff" points="665.45,-51.68 673.62,-44.93 663.03,-45.11 665.45,-51.68"/>
</a>
</g>
</g>
</g>
</svg>
