<?xml version="1.0" encoding="UTF-8" standalone="no"?>
<!DOCTYPE svg PUBLIC "-//W3C//DTD SVG 1.1//EN"
 "http://www.w3.org/Graphics/SVG/1.1/DTD/svg11.dtd">
<!-- Generated by graphviz version 12.2.1 (20241206.2353)
 -->
<!-- Title: fr.softsf.canscan.NativeImageConfigSimulator.runE2ESimulation Pages: 1 -->
<svg width="867pt" height="356pt"
 viewBox="0.00 0.00 867.00 356.00" xmlns="http://www.w3.org/2000/svg" xmlns:xlink="http://www.w3.org/1999/xlink">
<g id="graph0" class="graph" transform="scale(1 1) rotate(0) translate(4 352)">
<title>fr.softsf.canscan.NativeImageConfigSimulator.runE2ESimulation</title>
<!-- Node1 -->
<g id="Node000001" class="node">
<title>Node1</title>
<g id="a_Node000001"><a xlink:title="Runs the full end&#45;to&#45;end UI simulation for Native Image configuration using a Robot.">
<polygon fill="#999999" stroke="#666666" points="193.75,-199 0,-199 0,-167 193.75,-167 193.75,-199"/>
<text text-anchor="start" x="8" y="-185.5" font-family="Helvetica,sans-Serif" font-size="10.00">fr.softsf.canscan.Native</text>
<text text-anchor="middle" x="96.88" y="-173.5" font-family="Helvetica,sans-Serif" font-size="10.00">ImageConfigSimulator.runE2ESimulation</text>
</a>
</g>
</g>
<!-- Node2 -->
<g id="Node000002" class="node">
<title>Node2</title>
<g id="a_Node000002"><a xlink:href="classfr_1_1softsf_1_1canscan_1_1_native_image_config_simulator.html#acbf2b92c5c36da7ad4329966d92f1a1b" target="_top" xlink:title="Simulates clicking a browse button to open a JFileChooser, performs a right&#45;click inside it,...">
<polygon fill="white" stroke="#666666" points="420.5,-298 241,-298 241,-254 420.5,-254 420.5,-298"/>
<text text-anchor="start" x="249" y="-284.5" font-family="Helvetica,sans-Serif" font-size="10.00">fr.softsf.canscan.Native</text>
<text text-anchor="start" x="249" y="-272.5" font-family="Helvetica,sans-Serif" font-size="10.00">ImageConfigSimulator.browseFolders</text>
<text text-anchor="middle" x="330.75" y="-260.5" font-family="Helvetica,sans-Serif" font-size="10.00">Simulation</text>
</a>
</g>
</g>
<!-- Node1&#45;&gt;Node2 -->
<g id="edge1_Node000001_Node000002" class="edge">
<title>Node1&#45;&gt;Node2</title>
<g id="a_edge1_Node000001_Node000002"><a xlink:title=" ">
<path fill="none" stroke="#63b8ff" d="M129.58,-199.43C155.96,-212.73 194.72,-231.41 229.75,-245 234.04,-246.66 238.46,-248.3 242.94,-249.9"/>
<polygon fill="#63b8ff" stroke="#63b8ff" points="241.45,-253.09 252.04,-253.07 243.75,-246.48 241.45,-253.09"/>
</a>
</g>
</g>
<!-- Node4 -->
<g id="Node000004" class="node">
<title>Node4</title>
<g id="a_Node000004"><a xlink:href="classfr_1_1softsf_1_1canscan_1_1_native_image_config_simulator.html#a3ce8b70d660baabe5ed741e64dfd0af3" target="_top" xlink:title="Simulates selecting a color via JColorChooser, confirms the dialog with Enter, and verifies the selec...">
<polygon fill="white" stroke="#666666" points="431.75,-348 229.75,-348 229.75,-316 431.75,-316 431.75,-348"/>
<text text-anchor="start" x="237.75" y="-334.5" font-family="Helvetica,sans-Serif" font-size="10.00">fr.softsf.canscan.Native</text>
<text text-anchor="middle" x="330.75" y="-322.5" font-family="Helvetica,sans-Serif" font-size="10.00">ImageConfigSimulator.chooseModuleColor</text>
</a>
</g>
</g>
<!-- Node1&#45;&gt;Node4 -->
<g id="edge3_Node000001_Node000004" class="edge">
<title>Node1&#45;&gt;Node4</title>
<g id="a_edge3_Node000001_Node000004"><a xlink:title=" ">
<path fill="none" stroke="#63b8ff" d="M110.56,-199.46C132.08,-226.22 178.45,-278.99 229.75,-307 232.45,-308.48 235.25,-309.87 238.1,-311.18"/>
<polygon fill="#63b8ff" stroke="#63b8ff" points="236.72,-314.39 247.29,-315 239.4,-307.93 236.72,-314.39"/>
</a>
</g>
</g>
<!-- Node6 -->
<g id="Node000006" class="node">
<title>Node6</title>
<g id="a_Node000006"><a xlink:href="classfr_1_1softsf_1_1canscan_1_1_native_image_config_simulator.html#ad18c2e9f57e07032b9a48a10e02e61f6" target="_top" xlink:title="Searches for a component of the specified type and name within the given container hierarchy.">
<polygon fill="white" stroke="#666666" points="421.62,-32 239.88,-32 239.88,0 421.62,0 421.62,-32"/>
<text text-anchor="start" x="247.88" y="-18.5" font-family="Helvetica,sans-Serif" font-size="10.00">fr.softsf.canscan.Native</text>
<text text-anchor="middle" x="330.75" y="-6.5" font-family="Helvetica,sans-Serif" font-size="10.00">ImageConfigSimulator.findComponent</text>
</a>
</g>
</g>
<!-- Node1&#45;&gt;Node6 -->
<g id="edge6_Node000001_Node000006" class="edge">
<title>Node1&#45;&gt;Node6</title>
<g id="a_edge6_Node000001_Node000006"><a xlink:title=" ">
<path fill="none" stroke="#63b8ff" d="M111.83,-166.62C134.42,-140.89 181.39,-90.71 229.75,-59 242.72,-50.49 257.65,-43.02 271.96,-36.8"/>
<polygon fill="#63b8ff" stroke="#63b8ff" points="272.96,-40.17 280.83,-33.07 270.25,-33.72 272.96,-40.17"/>
</a>
</g>
</g>
<!-- Node7 -->
<g id="Node000007" class="node">
<title>Node7</title>
<g id="a_Node000007"><a xlink:href="classfr_1_1softsf_1_1canscan_1_1_native_image_config_simulator.html#a38fd2d97bfc693365a8dc700273ada47" target="_top" xlink:title="Simulates selecting the free data mode and entering an oversized payload into the input field.">
<polygon fill="white" stroke="#666666" points="407.38,-174 254.12,-174 254.12,-130 407.38,-130 407.38,-174"/>
<text text-anchor="start" x="262.12" y="-160.5" font-family="Helvetica,sans-Serif" font-size="10.00">fr.softsf.canscan.Native</text>
<text text-anchor="start" x="262.12" y="-148.5" font-family="Helvetica,sans-Serif" font-size="10.00">ImageConfigSimulator.freeData</text>
<text text-anchor="middle" x="330.75" y="-136.5" font-family="Helvetica,sans-Serif" font-size="10.00">TooBig</text>
</a>
</g>
</g>
<!-- Node1&#45;&gt;Node7 -->
<g id="edge8_Node000001_Node000007" class="edge">
<title>Node1&#45;&gt;Node7</title>
<g id="a_edge8_Node000001_Node000007"><a xlink:title=" ">
<path fill="none" stroke="#63b8ff" d="M194.2,-170.12C210.22,-167.98 226.75,-165.77 242.53,-163.66"/>
<polygon fill="#63b8ff" stroke="#63b8ff" points="242.92,-167.14 252.37,-162.35 241.99,-160.2 242.92,-167.14"/>
</a>
</g>
</g>
<!-- Node10 -->
<g id="Node000010" class="node">
<title>Node10</title>
<g id="a_Node000010"><a xlink:href="classfr_1_1softsf_1_1canscan_1_1_native_image_config_simulator.html#ae2840980d77f2806ab5f1bd471186ed3" target="_top" xlink:title="Simulates typing &quot;Test&quot; into a JTextField and verifies the input using a Robot.">
<polygon fill="white" stroke="#666666" points="414.88,-112 246.62,-112 246.62,-68 414.88,-68 414.88,-112"/>
<text text-anchor="start" x="254.62" y="-98.5" font-family="Helvetica,sans-Serif" font-size="10.00">fr.softsf.canscan.Native</text>
<text text-anchor="start" x="254.62" y="-86.5" font-family="Helvetica,sans-Serif" font-size="10.00">ImageConfigSimulator.nameTyping</text>
<text text-anchor="middle" x="330.75" y="-74.5" font-family="Helvetica,sans-Serif" font-size="10.00">Simulation</text>
</a>
</g>
</g>
<!-- Node1&#45;&gt;Node10 -->
<g id="edge14_Node000001_Node000010" class="edge">
<title>Node1&#45;&gt;Node10</title>
<g id="a_edge14_Node000001_Node000010"><a xlink:title=" ">
<path fill="none" stroke="#63b8ff" d="M129.58,-166.57C155.96,-153.27 194.72,-134.59 229.75,-121 234.04,-119.34 238.46,-117.7 242.94,-116.1"/>
<polygon fill="#63b8ff" stroke="#63b8ff" points="243.75,-119.52 252.04,-112.93 241.45,-112.91 243.75,-119.52"/>
</a>
</g>
</g>
<!-- Node13 -->
<g id="Node000013" class="node">
<title>Node13</title>
<g id="a_Node000013"><a xlink:href="classfr_1_1softsf_1_1canscan_1_1_native_image_config_simulator.html#a9e920788e82b3b113a566174265607af" target="_top" xlink:title="Simulates hovering over a JSlider to verify its tooltip matches the current slider value.">
<polygon fill="white" stroke="#666666" points="410.38,-236 251.12,-236 251.12,-192 410.38,-192 410.38,-236"/>
<text text-anchor="start" x="259.12" y="-222.5" font-family="Helvetica,sans-Serif" font-size="10.00">fr.softsf.canscan.Native</text>
<text text-anchor="start" x="259.12" y="-210.5" font-family="Helvetica,sans-Serif" font-size="10.00">ImageConfigSimulator.ratioSlider</text>
<text text-anchor="middle" x="330.75" y="-198.5" font-family="Helvetica,sans-Serif" font-size="10.00">TooltipSimulation</text>
</a>
</g>
</g>
<!-- Node1&#45;&gt;Node13 -->
<g id="edge18_Node000001_Node000013" class="edge">
<title>Node1&#45;&gt;Node13</title>
<g id="a_edge18_Node000001_Node000013"><a xlink:title=" ">
<path fill="none" stroke="#63b8ff" d="M194.2,-195.88C209.17,-197.88 224.59,-199.94 239.42,-201.92"/>
<polygon fill="#63b8ff" stroke="#63b8ff" points="238.76,-205.37 249.13,-203.22 239.69,-198.43 238.76,-205.37"/>
</a>
</g>
</g>
<!-- Node3 -->
<g id="Node000003" class="node">
<title>Node3</title>
<g id="a_Node000003"><a xlink:href="classfr_1_1softsf_1_1canscan_1_1_native_image_config_simulator.html#aaadd03094f00bbe2258c6e9742be224d" target="_top" xlink:title="Compares two strings and prints the test result with a label.">
<polygon fill="white" stroke="#666666" points="640.5,-230 467.75,-230 467.75,-198 640.5,-198 640.5,-230"/>
<text text-anchor="start" x="475.75" y="-216.5" font-family="Helvetica,sans-Serif" font-size="10.00">fr.softsf.canscan.Native</text>
<text text-anchor="middle" x="554.12" y="-204.5" font-family="Helvetica,sans-Serif" font-size="10.00">ImageConfigSimulator.assertEquals</text>
</a>
</g>
</g>
<!-- Node2&#45;&gt;Node3 -->
<g id="edge2_Node000002_Node000003" class="edge">
<title>Node2&#45;&gt;Node3</title>
<g id="a_edge2_Node000002_Node000003"><a xlink:title=" ">
<path fill="none" stroke="#63b8ff" d="M411.98,-253.53C435.38,-246.98 460.74,-239.87 483.43,-233.52"/>
<polygon fill="#63b8ff" stroke="#63b8ff" points="484.19,-236.94 492.87,-230.87 482.3,-230.2 484.19,-236.94"/>
</a>
</g>
</g>
<!-- Node4&#45;&gt;Node3 -->
<g id="edge4_Node000004_Node000003" class="edge">
<title>Node4&#45;&gt;Node3</title>
<g id="a_edge4_Node000004_Node000003"><a xlink:title=" ">
<path fill="none" stroke="#63b8ff" d="M410.63,-315.55C417.91,-313.06 425.06,-310.23 431.75,-307 436.85,-304.54 489.14,-263.99 523.4,-237.26"/>
<polygon fill="#63b8ff" stroke="#63b8ff" points="525.19,-240.3 530.92,-231.39 520.88,-234.78 525.19,-240.3"/>
</a>
</g>
</g>
<!-- Node5 -->
<g id="Node000005" class="node">
<title>Node5</title>
<g id="a_Node000005"><a xlink:href="classfr_1_1softsf_1_1canscan_1_1_native_image_config_simulator.html#ab4d4463dc9177237a8de0a7b6713e7cf" target="_top" xlink:title="Simulates pressing the Enter key using the provided Robot, followed by a short delay.">
<polygon fill="white" stroke="#666666" points="849.25,-258 686.25,-258 686.25,-226 849.25,-226 849.25,-258"/>
<text text-anchor="start" x="694.25" y="-244.5" font-family="Helvetica,sans-Serif" font-size="10.00">fr.softsf.canscan.Native</text>
<text text-anchor="middle" x="767.75" y="-232.5" font-family="Helvetica,sans-Serif" font-size="10.00">ImageConfigSimulator.pressEnter</text>
</a>
</g>
</g>
<!-- Node4&#45;&gt;Node5 -->
<g id="edge5_Node000004_Node000005" class="edge">
<title>Node4&#45;&gt;Node5</title>
<g id="a_edge5_Node000004_Node000005"><a xlink:title=" ">
<path fill="none" stroke="#63b8ff" d="M411.28,-315.54C486.09,-300.07 598,-276.91 676.2,-260.73"/>
<polygon fill="#63b8ff" stroke="#63b8ff" points="676.44,-264.26 685.53,-258.81 675.02,-257.4 676.44,-264.26"/>
</a>
</g>
</g>
<!-- Node6&#45;&gt;Node6 -->
<g id="edge7_Node000006_Node000006" class="edge">
<title>Node6&#45;&gt;Node6</title>
<g id="a_edge7_Node000006_Node000006"><a xlink:title=" ">
<path fill="none" stroke="#63b8ff" d="M290.87,-32.44C283.43,-41.58 296.72,-50 330.75,-50 349.63,-50 362.12,-47.41 368.24,-43.54"/>
<polygon fill="#63b8ff" stroke="#63b8ff" points="371.63,-44.44 370.31,-33.92 364.78,-42.96 371.63,-44.44"/>
</a>
</g>
</g>
<!-- Node7&#45;&gt;Node3 -->
<g id="edge9_Node000007_Node000003" class="edge">
<title>Node7&#45;&gt;Node3</title>
<g id="a_edge9_Node000007_Node000003"><a xlink:title=" ">
<path fill="none" stroke="#63b8ff" d="M407.62,-173.25C432.26,-180.15 459.46,-187.77 483.61,-194.53"/>
<polygon fill="#63b8ff" stroke="#63b8ff" points="482.45,-197.84 493.02,-197.17 484.33,-191.1 482.45,-197.84"/>
</a>
</g>
</g>
<!-- Node8 -->
<g id="Node000008" class="node">
<title>Node8</title>
<g id="a_Node000008"><a xlink:href="classfr_1_1softsf_1_1canscan_1_1_native_image_config_simulator.html#a4795cbc2d8717311fd26b8589a618616" target="_top" xlink:title="Confirms and closes a visible JOptionPane by pressing Enter, then returns the dialog title.">
<polygon fill="white" stroke="#666666" points="630.75,-177 477.5,-177 477.5,-133 630.75,-133 630.75,-177"/>
<text text-anchor="start" x="485.5" y="-163.5" font-family="Helvetica,sans-Serif" font-size="10.00">fr.softsf.canscan.Native</text>
<text text-anchor="start" x="485.5" y="-151.5" font-family="Helvetica,sans-Serif" font-size="10.00">ImageConfigSimulator.intercept</text>
<text text-anchor="middle" x="554.12" y="-139.5" font-family="Helvetica,sans-Serif" font-size="10.00">AndValideDialog</text>
</a>
</g>
</g>
<!-- Node7&#45;&gt;Node8 -->
<g id="edge10_Node000007_Node000008" class="edge">
<title>Node7&#45;&gt;Node8</title>
<g id="a_edge10_Node000007_Node000008"><a xlink:title=" ">
<path fill="none" stroke="#63b8ff" d="M407.62,-153.03C426.37,-153.28 446.6,-153.56 465.84,-153.82"/>
<polygon fill="#63b8ff" stroke="#63b8ff" points="465.79,-157.32 475.84,-153.95 465.88,-150.32 465.79,-157.32"/>
</a>
</g>
</g>
<!-- Node8&#45;&gt;Node5 -->
<g id="edge13_Node000008_Node000005" class="edge">
<title>Node8&#45;&gt;Node5</title>
<g id="a_edge13_Node000008_Node000005"><a xlink:title=" ">
<path fill="none" stroke="#63b8ff" d="M611.67,-177.35C621.3,-181.2 631.2,-185.2 640.5,-189 666.07,-199.46 694.44,-211.34 717.8,-221.2"/>
<polygon fill="#63b8ff" stroke="#63b8ff" points="716.18,-224.32 726.75,-224.99 718.91,-217.87 716.18,-224.32"/>
</a>
</g>
</g>
<!-- Node9 -->
<g id="Node000009" class="node">
<title>Node9</title>
<g id="a_Node000009"><a xlink:href="classfr_1_1softsf_1_1canscan_1_1_native_image_config_simulator.html#ac80dbcb1d031bb72c93cf21315c09f27" target="_top" xlink:title="Recursively searches the given container and its descendants for a JOptionPane instance.">
<polygon fill="white" stroke="#666666" points="859,-171 676.5,-171 676.5,-139 859,-139 859,-171"/>
<text text-anchor="start" x="684.5" y="-157.5" font-family="Helvetica,sans-Serif" font-size="10.00">fr.softsf.canscan.Native</text>
<text text-anchor="middle" x="767.75" y="-145.5" font-family="Helvetica,sans-Serif" font-size="10.00">ImageConfigSimulator.findOptionPane</text>
</a>
</g>
</g>
<!-- Node8&#45;&gt;Node9 -->
<g id="edge11_Node000008_Node000009" class="edge">
<title>Node8&#45;&gt;Node9</title>
<g id="a_edge11_Node000008_Node000009"><a xlink:title=" ">
<path fill="none" stroke="#63b8ff" d="M631.23,-155C642.16,-155 653.55,-155 664.88,-155"/>
<polygon fill="#63b8ff" stroke="#63b8ff" points="664.66,-158.5 674.66,-155 664.66,-151.5 664.66,-158.5"/>
</a>
</g>
</g>
<!-- Node9&#45;&gt;Node9 -->
<g id="edge12_Node000009_Node000009" class="edge">
<title>Node9&#45;&gt;Node9</title>
<g id="a_edge12_Node000009_Node000009"><a xlink:title=" ">
<path fill="none" stroke="#63b8ff" d="M729.61,-171.44C722.49,-180.58 735.21,-189 767.75,-189 785.8,-189 797.75,-186.41 803.6,-182.54"/>
<polygon fill="#63b8ff" stroke="#63b8ff" points="806.99,-183.43 805.58,-172.93 800.14,-182.01 806.99,-183.43"/>
</a>
</g>
</g>
<!-- Node10&#45;&gt;Node3 -->
<g id="edge15_Node000010_Node000003" class="edge">
<title>Node10&#45;&gt;Node3</title>
<g id="a_edge15_Node000010_Node000003"><a xlink:title=" ">
<path fill="none" stroke="#63b8ff" d="M415.13,-110.19C421.05,-113.29 426.67,-116.87 431.75,-121 457.37,-141.84 442.3,-164.95 467.75,-186 470.43,-188.21 473.29,-190.26 476.28,-192.14"/>
<polygon fill="#63b8ff" stroke="#63b8ff" points="474.42,-195.11 484.87,-196.89 477.81,-188.99 474.42,-195.11"/>
</a>
</g>
</g>
<!-- Node11 -->
<g id="Node000011" class="node">
<title>Node11</title>
<g id="a_Node000011"><a xlink:href="classfr_1_1softsf_1_1canscan_1_1_native_image_config_simulator.html#acc5424a9d2c1d44c93a045868f58a5ff" target="_top" xlink:title="Simulates typing a full string using the Robot class.">
<polygon fill="white" stroke="#666666" points="634.12,-106 474.12,-106 474.12,-74 634.12,-74 634.12,-106"/>
<text text-anchor="start" x="482.12" y="-92.5" font-family="Helvetica,sans-Serif" font-size="10.00">fr.softsf.canscan.Native</text>
<text text-anchor="middle" x="554.12" y="-80.5" font-family="Helvetica,sans-Serif" font-size="10.00">ImageConfigSimulator.typeString</text>
</a>
</g>
</g>
<!-- Node10&#45;&gt;Node11 -->
<g id="edge16_Node000010_Node000011" class="edge">
<title>Node10&#45;&gt;Node11</title>
<g id="a_edge16_Node000010_Node000011"><a xlink:title=" ">
<path fill="none" stroke="#63b8ff" d="M415.13,-90C430.61,-90 446.86,-90 462.54,-90"/>
<polygon fill="#63b8ff" stroke="#63b8ff" points="462.34,-93.5 472.34,-90 462.34,-86.5 462.34,-93.5"/>
</a>
</g>
</g>
<!-- Node12 -->
<g id="Node000012" class="node">
<title>Node12</title>
<g id="a_Node000012"><a xlink:href="classfr_1_1softsf_1_1canscan_1_1_native_image_config_simulator.html#a4c1895b6327fef325b1b0c8047bcfcb7" target="_top" xlink:title="Simulates typing a single character using the Robot class.">
<polygon fill="white" stroke="#666666" points="845.5,-106 690,-106 690,-74 845.5,-74 845.5,-106"/>
<text text-anchor="start" x="698" y="-92.5" font-family="Helvetica,sans-Serif" font-size="10.00">fr.softsf.canscan.Native</text>
<text text-anchor="middle" x="767.75" y="-80.5" font-family="Helvetica,sans-Serif" font-size="10.00">ImageConfigSimulator.typeChar</text>
</a>
</g>
</g>
<!-- Node11&#45;&gt;Node12 -->
<g id="edge17_Node000011_Node000012" class="edge">
<title>Node11&#45;&gt;Node12</title>
<g id="a_edge17_Node000011_Node000012"><a xlink:title=" ">
<path fill="none" stroke="#63b8ff" d="M634.53,-90C648.78,-90 663.71,-90 678.21,-90"/>
<polygon fill="#63b8ff" stroke="#63b8ff" points="678.2,-93.5 688.2,-90 678.2,-86.5 678.2,-93.5"/>
</a>
</g>
</g>
<!-- Node13&#45;&gt;Node3 -->
<g id="edge19_Node000013_Node000003" class="edge">
<title>Node13&#45;&gt;Node3</title>
<g id="a_edge19_Node000013_Node000003"><a xlink:title=" ">
<path fill="none" stroke="#63b8ff" d="M410.73,-214C425.38,-214 440.83,-214 455.94,-214"/>
<polygon fill="#63b8ff" stroke="#63b8ff" points="455.9,-217.5 465.9,-214 455.9,-210.5 455.9,-217.5"/>
</a>
</g>
</g>
</g>
</svg>
