<?xml version="1.0" encoding="UTF-8" standalone="no"?>
<!DOCTYPE svg PUBLIC "-//W3C//DTD SVG 1.1//EN"
 "http://www.w3.org/Graphics/SVG/1.1/DTD/svg11.dtd">
<!-- Generated by graphviz version 12.2.1 (20241206.2353)
 -->
<!-- Title: fr.softsf.canscan.CanScan.handlePreviewWorkerCompletion Pages: 1 -->
<svg width="1180pt" height="228pt"
 viewBox="0.00 0.00 1179.50 228.00" xmlns="http://www.w3.org/2000/svg" xmlns:xlink="http://www.w3.org/1999/xlink">
<g id="graph0" class="graph" transform="scale(1 1) rotate(0) translate(4 224)">
<title>fr.softsf.canscan.CanScan.handlePreviewWorkerCompletion</title>
<!-- Node1 -->
<g id="Node000001" class="node">
<title>Node1</title>
<g id="a_Node000001"><a xlink:title="Handles preview worker completion: checks cancellation, flushes result, updates UI,...">
<polygon fill="#999999" stroke="#666666" points="164.5,-126 0,-126 0,-94 164.5,-94 164.5,-126"/>
<text text-anchor="start" x="8" y="-112.5" font-family="Helvetica,sans-Serif" font-size="10.00">fr.softsf.canscan.CanScan.handle</text>
<text text-anchor="middle" x="82.25" y="-100.5" font-family="Helvetica,sans-Serif" font-size="10.00">PreviewWorkerCompletion</text>
</a>
</g>
</g>
<!-- Node2 -->
<g id="Node000002" class="node">
<title>Node2</title>
<g id="a_Node000002"><a xlink:href="classfr_1_1softsf_1_1canscan_1_1_can_scan.html#a4a59af6963394f55f423ff281a4232ba" target="_top" xlink:title="Schedules a debounced QR code resize operation based on available vertical space.">
<polygon fill="white" stroke="#666666" points="365.75,-126 200.5,-126 200.5,-94 365.75,-94 365.75,-126"/>
<text text-anchor="start" x="208.5" y="-112.5" font-family="Helvetica,sans-Serif" font-size="10.00">fr.softsf.canscan.CanScan.update</text>
<text text-anchor="middle" x="283.12" y="-100.5" font-family="Helvetica,sans-Serif" font-size="10.00">QrCodeSize</text>
</a>
</g>
</g>
<!-- Node1&#45;&gt;Node2 -->
<g id="edge1_Node000001_Node000002" class="edge">
<title>Node1&#45;&gt;Node2</title>
<g id="a_edge1_Node000001_Node000002"><a xlink:title=" ">
<path fill="none" stroke="#63b8ff" d="M164.71,-110C172.66,-110 180.77,-110 188.82,-110"/>
<polygon fill="#63b8ff" stroke="#63b8ff" points="188.63,-113.5 198.63,-110 188.63,-106.5 188.63,-113.5"/>
</a>
</g>
</g>
<!-- Node3 -->
<g id="Node000003" class="node">
<title>Node3</title>
<g id="a_Node000003"><a xlink:href="classfr_1_1softsf_1_1canscan_1_1_can_scan.html#ab8d47730e193662fdf6af6ad7a53d79a" target="_top" xlink:title="Handles the actual QR code resize logic after debounce delay.">
<polygon fill="white" stroke="#666666" points="566.25,-126 401.75,-126 401.75,-94 566.25,-94 566.25,-126"/>
<text text-anchor="start" x="409.75" y="-112.5" font-family="Helvetica,sans-Serif" font-size="10.00">fr.softsf.canscan.CanScan.handle</text>
<text text-anchor="middle" x="484" y="-100.5" font-family="Helvetica,sans-Serif" font-size="10.00">Resize</text>
</a>
</g>
</g>
<!-- Node2&#45;&gt;Node3 -->
<g id="edge2_Node000002_Node000003" class="edge">
<title>Node2&#45;&gt;Node3</title>
<g id="a_edge2_Node000002_Node000003"><a xlink:title=" ">
<path fill="none" stroke="#63b8ff" d="M366.16,-110C374.09,-110 382.17,-110 390.19,-110"/>
<polygon fill="#63b8ff" stroke="#63b8ff" points="389.96,-113.5 399.96,-110 389.96,-106.5 389.96,-113.5"/>
</a>
</g>
</g>
<!-- Node4 -->
<g id="Node000004" class="node">
<title>Node4</title>
<g id="a_Node000004"><a xlink:href="classfr_1_1softsf_1_1canscan_1_1_can_scan.html#adfbb5c9cf5fa4e297933cd0fce90162c" target="_top" xlink:title="Builds a QrInput from the current field values.">
<polygon fill="white" stroke="#666666" points="764.5,-220 608.25,-220 608.25,-188 764.5,-188 764.5,-220"/>
<text text-anchor="start" x="616.25" y="-206.5" font-family="Helvetica,sans-Serif" font-size="10.00">fr.softsf.canscan.CanScan.build</text>
<text text-anchor="middle" x="686.38" y="-194.5" font-family="Helvetica,sans-Serif" font-size="10.00">QrInput</text>
</a>
</g>
</g>
<!-- Node3&#45;&gt;Node4 -->
<g id="edge3_Node000003_Node000004" class="edge">
<title>Node3&#45;&gt;Node4</title>
<g id="a_edge3_Node000003_Node000004"><a xlink:title=" ">
<path fill="none" stroke="#63b8ff" d="M508.8,-126.31C531.87,-141.56 568.27,-164.15 602.25,-179 605.99,-180.64 609.87,-182.2 613.82,-183.7"/>
<polygon fill="#63b8ff" stroke="#63b8ff" points="612.36,-186.9 622.96,-186.99 614.73,-180.31 612.36,-186.9"/>
</a>
</g>
</g>
<!-- Node5 -->
<g id="Node000005" class="node">
<title>Node5</title>
<g id="a_Node000005"><a xlink:href="classfr_1_1softsf_1_1canscan_1_1_can_scan.html#ae299b57aba96ad890bab5bdfaae06f98" target="_top" xlink:title="Cancels any ongoing resize worker if active and waits for its proper termination.">
<polygon fill="white" stroke="#666666" points="971,-123 806.5,-123 806.5,-91 971,-91 971,-123"/>
<text text-anchor="start" x="814.5" y="-109.5" font-family="Helvetica,sans-Serif" font-size="10.00">fr.softsf.canscan.CanScan.cancel</text>
<text text-anchor="middle" x="888.75" y="-97.5" font-family="Helvetica,sans-Serif" font-size="10.00">PreviousResizeWorker</text>
</a>
</g>
</g>
<!-- Node3&#45;&gt;Node5 -->
<g id="edge4_Node000003_Node000005" class="edge">
<title>Node3&#45;&gt;Node5</title>
<g id="a_edge4_Node000003_Node000005"><a xlink:title=" ">
<path fill="none" stroke="#63b8ff" d="M566.5,-109.39C632.58,-108.9 725.74,-108.21 794.74,-107.69"/>
<polygon fill="#63b8ff" stroke="#63b8ff" points="794.54,-111.19 804.51,-107.62 794.48,-104.19 794.54,-111.19"/>
</a>
</g>
</g>
<!-- Node6 -->
<g id="Node000006" class="node">
<title>Node6</title>
<g id="a_Node000006"><a xlink:href="classfr_1_1softsf_1_1canscan_1_1_can_scan.html#aa520a5f04c8429a7d24c96e9ecab3351" target="_top" xlink:title="Determines whether the QR data is invalid or null and handles cleanup if needed.">
<polygon fill="white" stroke="#666666" points="758.12,-170 614.62,-170 614.62,-138 758.12,-138 758.12,-170"/>
<text text-anchor="start" x="622.62" y="-156.5" font-family="Helvetica,sans-Serif" font-size="10.00">fr.softsf.canscan.CanScan.is</text>
<text text-anchor="middle" x="686.38" y="-144.5" font-family="Helvetica,sans-Serif" font-size="10.00">InvalidQrData</text>
</a>
</g>
</g>
<!-- Node3&#45;&gt;Node6 -->
<g id="edge5_Node000003_Node000006" class="edge">
<title>Node3&#45;&gt;Node6</title>
<g id="a_edge5_Node000003_Node000006"><a xlink:title=" ">
<path fill="none" stroke="#63b8ff" d="M559.9,-126.45C574.07,-129.56 588.97,-132.83 603.34,-135.99"/>
<polygon fill="#63b8ff" stroke="#63b8ff" points="602.22,-139.32 612.74,-138.05 603.72,-132.49 602.22,-139.32"/>
</a>
</g>
</g>
<!-- Node8 -->
<g id="Node000008" class="node">
<title>Node8</title>
<g id="a_Node000008"><a xlink:href="classfr_1_1softsf_1_1canscan_1_1_can_scan.html#a3a59f2d5eae9195b29a42c70f52c0dac" target="_top" xlink:title="Manages the lifecycle of the resize worker by cancelling any existing worker, creating a new SwingWor...">
<polygon fill="white" stroke="#666666" points="768.62,-82 604.12,-82 604.12,-50 768.62,-50 768.62,-82"/>
<text text-anchor="start" x="612.12" y="-68.5" font-family="Helvetica,sans-Serif" font-size="10.00">fr.softsf.canscan.CanScan.launch</text>
<text text-anchor="middle" x="686.38" y="-56.5" font-family="Helvetica,sans-Serif" font-size="10.00">ResizeWorker</text>
</a>
</g>
</g>
<!-- Node3&#45;&gt;Node8 -->
<g id="edge7_Node000003_Node000008" class="edge">
<title>Node3&#45;&gt;Node8</title>
<g id="a_edge7_Node000003_Node000008"><a xlink:title=" ">
<path fill="none" stroke="#63b8ff" d="M559.9,-93.55C572.75,-90.73 586.2,-87.78 599.31,-84.9"/>
<polygon fill="#63b8ff" stroke="#63b8ff" points="599.74,-88.39 608.76,-82.82 598.24,-81.55 599.74,-88.39"/>
</a>
</g>
</g>
<!-- Node12 -->
<g id="Node000012" class="node">
<title>Node12</title>
<g id="a_Node000012"><a xlink:href="classfr_1_1softsf_1_1canscan_1_1_can_scan.html#a81ea88dd5138cbfcddf59be7837611f9" target="_top" xlink:title="Clears previous QR code visuals and starts wait icon animation.">
<polygon fill="white" stroke="#666666" points="770.5,-32 602.25,-32 602.25,0 770.5,0 770.5,-32"/>
<text text-anchor="start" x="610.25" y="-18.5" font-family="Helvetica,sans-Serif" font-size="10.00">fr.softsf.canscan.CanScan.prepare</text>
<text text-anchor="middle" x="686.38" y="-6.5" font-family="Helvetica,sans-Serif" font-size="10.00">ForResize</text>
</a>
</g>
</g>
<!-- Node3&#45;&gt;Node12 -->
<g id="edge12_Node000003_Node000012" class="edge">
<title>Node3&#45;&gt;Node12</title>
<g id="a_edge12_Node000003_Node000012"><a xlink:title=" ">
<path fill="none" stroke="#63b8ff" d="M508.8,-93.69C531.87,-78.44 568.27,-55.85 602.25,-41 605.99,-39.36 609.87,-37.8 613.82,-36.3"/>
<polygon fill="#63b8ff" stroke="#63b8ff" points="614.73,-39.69 622.96,-33.01 612.36,-33.1 614.73,-39.69"/>
</a>
</g>
</g>
<!-- Node7 -->
<g id="Node000007" class="node">
<title>Node7</title>
<g id="a_Node000007"><a xlink:href="classfr_1_1softsf_1_1canscan_1_1_can_scan.html#a4815606aa036969bcf5313568220d396" target="_top" xlink:title="Releases the currently stored QR code image to free native memory.">
<polygon fill="white" stroke="#666666" points="965,-173 812.5,-173 812.5,-141 965,-141 965,-173"/>
<text text-anchor="start" x="820.5" y="-159.5" font-family="Helvetica,sans-Serif" font-size="10.00">fr.softsf.canscan.CanScan.free</text>
<text text-anchor="middle" x="888.75" y="-147.5" font-family="Helvetica,sans-Serif" font-size="10.00">QrOriginal</text>
</a>
</g>
</g>
<!-- Node6&#45;&gt;Node7 -->
<g id="edge6_Node000006_Node000007" class="edge">
<title>Node6&#45;&gt;Node7</title>
<g id="a_edge6_Node000006_Node000007"><a xlink:title=" ">
<path fill="none" stroke="#63b8ff" d="M758.58,-155.07C772.25,-155.27 786.71,-155.49 800.81,-155.7"/>
<polygon fill="#63b8ff" stroke="#63b8ff" points="800.45,-159.19 810.51,-155.84 800.56,-152.19 800.45,-159.19"/>
</a>
</g>
</g>
<!-- Node8&#45;&gt;Node5 -->
<g id="edge8_Node000008_Node000005" class="edge">
<title>Node8&#45;&gt;Node5</title>
<g id="a_edge8_Node000008_Node000005"><a xlink:title=" ">
<path fill="none" stroke="#63b8ff" d="M768.01,-82.5C777.31,-84.4 786.85,-86.35 796.28,-88.28"/>
<polygon fill="#63b8ff" stroke="#63b8ff" points="795.3,-91.66 805.8,-90.23 796.7,-84.8 795.3,-91.66"/>
</a>
</g>
</g>
<!-- Node9 -->
<g id="Node000009" class="node">
<title>Node9</title>
<g id="a_Node000009"><a xlink:href="classfr_1_1softsf_1_1canscan_1_1_can_scan.html#aa6e81c2bc494d739a728f4572163b781" target="_top" xlink:title="Creates a background task to resize the QR code image to the specified height.">
<polygon fill="white" stroke="#666666" points="970.25,-73 807.25,-73 807.25,-41 970.25,-41 970.25,-73"/>
<text text-anchor="start" x="815.25" y="-59.5" font-family="Helvetica,sans-Serif" font-size="10.00">fr.softsf.canscan.CanScan.create</text>
<text text-anchor="middle" x="888.75" y="-47.5" font-family="Helvetica,sans-Serif" font-size="10.00">ResizeWorker</text>
</a>
</g>
</g>
<!-- Node8&#45;&gt;Node9 -->
<g id="edge9_Node000008_Node000009" class="edge">
<title>Node8&#45;&gt;Node9</title>
<g id="a_edge9_Node000008_Node000009"><a xlink:title=" ">
<path fill="none" stroke="#63b8ff" d="M768.88,-62.34C777.71,-61.94 786.75,-61.54 795.7,-61.13"/>
<polygon fill="#63b8ff" stroke="#63b8ff" points="795.63,-64.64 805.46,-60.7 795.31,-57.65 795.63,-64.64"/>
</a>
</g>
</g>
<!-- Node10 -->
<g id="Node000010" class="node">
<title>Node10</title>
<g id="a_Node000010"><a xlink:href="classfr_1_1softsf_1_1canscan_1_1_can_scan.html#a1ff2f05476d5b6127e69c1645fd53704" target="_top" xlink:title="Handles resize worker completion: checks cancellation, disposes obsolete icons, updates UI,...">
<polygon fill="white" stroke="#666666" points="1171.5,-98 1007,-98 1007,-66 1171.5,-66 1171.5,-98"/>
<text text-anchor="start" x="1015" y="-84.5" font-family="Helvetica,sans-Serif" font-size="10.00">fr.softsf.canscan.CanScan.handle</text>
<text text-anchor="middle" x="1089.25" y="-72.5" font-family="Helvetica,sans-Serif" font-size="10.00">ResizeWorkerCompletion</text>
</a>
</g>
</g>
<!-- Node9&#45;&gt;Node10 -->
<g id="edge10_Node000009_Node000010" class="edge">
<title>Node9&#45;&gt;Node10</title>
<g id="a_edge10_Node000009_Node000010"><a xlink:title=" ">
<path fill="none" stroke="#63b8ff" d="M970.49,-67.17C978.68,-68.2 987.04,-69.25 995.35,-70.3"/>
<polygon fill="#63b8ff" stroke="#63b8ff" points="994.76,-73.75 1005.12,-71.53 995.63,-66.81 994.76,-73.75"/>
</a>
</g>
</g>
<!-- Node11 -->
<g id="Node000011" class="node">
<title>Node11</title>
<g id="a_Node000011"><a xlink:href="classfr_1_1softsf_1_1canscan_1_1_can_scan.html#a9ecdcaf8fb8d45df31f2bdf3101243df" target="_top" xlink:title="Performs the image resizing operation on a background thread.">
<polygon fill="white" stroke="#666666" points="1170.38,-48 1008.12,-48 1008.12,-16 1170.38,-16 1170.38,-48"/>
<text text-anchor="start" x="1016.12" y="-34.5" font-family="Helvetica,sans-Serif" font-size="10.00">fr.softsf.canscan.CanScan.resize</text>
<text text-anchor="middle" x="1089.25" y="-22.5" font-family="Helvetica,sans-Serif" font-size="10.00">ImageInBackground</text>
</a>
</g>
</g>
<!-- Node9&#45;&gt;Node11 -->
<g id="edge11_Node000009_Node000011" class="edge">
<title>Node9&#45;&gt;Node11</title>
<g id="a_edge11_Node000009_Node000011"><a xlink:title=" ">
<path fill="none" stroke="#63b8ff" d="M970.49,-46.83C979.07,-45.75 987.84,-44.65 996.54,-43.55"/>
<polygon fill="#63b8ff" stroke="#63b8ff" points="996.92,-47.03 1006.4,-42.31 996.05,-40.09 996.92,-47.03"/>
</a>
</g>
</g>
</g>
</svg>
