<?xml version="1.0" encoding="UTF-8" standalone="no"?>
<!DOCTYPE svg PUBLIC "-//W3C//DTD SVG 1.1//EN"
 "http://www.w3.org/Graphics/SVG/1.1/DTD/svg11.dtd">
<!-- Generated by graphviz version 12.2.1 (20241206.2353)
 -->
<!-- Title: fr.softsf.canscan.CanScan.getManifestKeys Pages: 1 -->
<svg width="1352pt" height="366pt"
 viewBox="0.00 0.00 1352.25 366.00" xmlns="http://www.w3.org/2000/svg" xmlns:xlink="http://www.w3.org/1999/xlink">
<g id="graph0" class="graph" transform="scale(1 1) rotate(0) translate(4 362)">
<title>fr.softsf.canscan.CanScan.getManifestKeys</title>
<!-- Node1 -->
<g id="Node000001" class="node">
<title>Node1</title>
<g id="a_Node000001"><a xlink:title="Loads application metadata from the version.properties file.">
<polygon fill="#999999" stroke="#666666" points="149.5,-251 0,-251 0,-219 149.5,-219 149.5,-251"/>
<text text-anchor="start" x="8" y="-237.5" font-family="Helvetica,sans-Serif" font-size="10.00">fr.softsf.canscan.CanScan.get</text>
<text text-anchor="middle" x="74.75" y="-225.5" font-family="Helvetica,sans-Serif" font-size="10.00">ManifestKeys</text>
</a>
</g>
</g>
<!-- Node2 -->
<g id="Node000002" class="node">
<title>Node2</title>
<g id="a_Node000002"><a xlink:href="classfr_1_1softsf_1_1canscan_1_1_can_scan.html#a102bcbc6cda608b642e870ba3fde6344" target="_top" xlink:title="Initializes the CanScan GUI.">
<polygon fill="white" stroke="#666666" points="321.5,-220 185.5,-220 185.5,-188 321.5,-188 321.5,-220"/>
<text text-anchor="start" x="193.5" y="-206.5" font-family="Helvetica,sans-Serif" font-size="10.00">fr.softsf.canscan.CanScan.</text>
<text text-anchor="middle" x="253.5" y="-194.5" font-family="Helvetica,sans-Serif" font-size="10.00">CanScan</text>
</a>
</g>
</g>
<!-- Node1&#45;&gt;Node2 -->
<g id="edge1_Node000001_Node000002" class="edge">
<title>Node1&#45;&gt;Node2</title>
<g id="a_edge1_Node000001_Node000002"><a xlink:title=" ">
<path fill="none" stroke="#63b8ff" d="M149.94,-221.99C157.9,-220.59 166.02,-219.17 174.03,-217.76"/>
<polygon fill="#63b8ff" stroke="#63b8ff" points="174.52,-221.23 183.76,-216.06 173.31,-214.34 174.52,-221.23"/>
</a>
</g>
</g>
<!-- Node2&#45;&gt;Node2 -->
<g id="edge2_Node000002_Node000002" class="edge">
<title>Node2&#45;&gt;Node2</title>
<g id="a_edge2_Node000002_Node000002"><a xlink:title=" ">
<path fill="none" stroke="#63b8ff" d="M221.59,-220.44C215.63,-229.58 226.27,-238 253.5,-238 268.39,-238 278.32,-235.48 283.29,-231.71"/>
<polygon fill="#63b8ff" stroke="#63b8ff" points="286.72,-232.41 285.13,-221.93 279.84,-231.11 286.72,-232.41"/>
</a>
</g>
</g>
<!-- Node3 -->
<g id="Node000003" class="node">
<title>Node3</title>
<g id="a_Node000003"><a xlink:href="classfr_1_1softsf_1_1canscan_1_1_can_scan.html#a2732ecdc4490a717352975e68fce494c" target="_top" xlink:title="Adds a labeled component row to a panel using GridBagLayout.">
<polygon fill="white" stroke="#666666" points="754,-264 582,-264 582,-244 754,-244 754,-264"/>
<text text-anchor="middle" x="668" y="-250.5" font-family="Helvetica,sans-Serif" font-size="10.00">fr.softsf.canscan.CanScan.addRow</text>
</a>
</g>
</g>
<!-- Node2&#45;&gt;Node3 -->
<g id="edge3_Node000002_Node000003" class="edge">
<title>Node2&#45;&gt;Node3</title>
<g id="a_edge3_Node000002_Node000003"><a xlink:title=" ">
<path fill="none" stroke="#63b8ff" d="M270.12,-220.42C288.85,-238.79 322.16,-267.5 357.5,-279 449.19,-308.84 563.84,-284.78 624.61,-267.57"/>
<polygon fill="#63b8ff" stroke="#63b8ff" points="625.24,-271.03 633.86,-264.87 623.28,-264.31 625.24,-271.03"/>
</a>
</g>
</g>
<!-- Node4 -->
<g id="Node000004" class="node">
<title>Node4</title>
<g id="a_Node000004"><a xlink:href="classfr_1_1softsf_1_1canscan_1_1_can_scan.html#ad77dc63cc1aac70e3833d39005d42f25" target="_top" xlink:title="Constructs the application window title using metadata from the version properties.">
<polygon fill="white" stroke="#666666" points="529.88,-358 373.62,-358 373.62,-326 529.88,-326 529.88,-358"/>
<text text-anchor="start" x="381.62" y="-344.5" font-family="Helvetica,sans-Serif" font-size="10.00">fr.softsf.canscan.CanScan.build</text>
<text text-anchor="middle" x="451.75" y="-332.5" font-family="Helvetica,sans-Serif" font-size="10.00">Title</text>
</a>
</g>
</g>
<!-- Node2&#45;&gt;Node4 -->
<g id="edge4_Node000002_Node000004" class="edge">
<title>Node2&#45;&gt;Node4</title>
<g id="a_edge4_Node000002_Node000004"><a xlink:title=" ">
<path fill="none" stroke="#63b8ff" d="M265.9,-220.35C283.12,-243.89 317.99,-287.22 357.5,-312 362.95,-315.42 368.82,-318.48 374.87,-321.21"/>
<polygon fill="#63b8ff" stroke="#63b8ff" points="373.2,-324.31 383.78,-324.93 375.9,-317.85 373.2,-324.31"/>
</a>
</g>
</g>
<!-- Node5 -->
<g id="Node000005" class="node">
<title>Node5</title>
<g id="a_Node000005"><a xlink:href="classfr_1_1softsf_1_1canscan_1_1_can_scan.html#a2d26dcd1ae708eae46dba8952351aa1a" target="_top" xlink:title="Builds and returns a QrInput object containing all current user inputs and settings.">
<polygon fill="white" stroke="#666666" points="1133.25,-129 983.75,-129 983.75,-97 1133.25,-97 1133.25,-129"/>
<text text-anchor="start" x="991.75" y="-115.5" font-family="Helvetica,sans-Serif" font-size="10.00">fr.softsf.canscan.CanScan.get</text>
<text text-anchor="middle" x="1058.5" y="-103.5" font-family="Helvetica,sans-Serif" font-size="10.00">QrInput</text>
</a>
</g>
</g>
<!-- Node2&#45;&gt;Node5 -->
<g id="edge6_Node000002_Node000005" class="edge">
<title>Node2&#45;&gt;Node5</title>
<g id="a_edge6_Node000002_Node000005"><a xlink:title=" ">
<path fill="none" stroke="#63b8ff" d="M314.61,-187.55C328.59,-184.25 343.49,-181.13 357.5,-179 617.38,-139.4 688.11,-182.11 947.75,-141 961.62,-138.8 976.29,-135.65 990.24,-132.25"/>
<polygon fill="#63b8ff" stroke="#63b8ff" points="990.93,-135.69 999.77,-129.86 989.22,-128.9 990.93,-135.69"/>
</a>
</g>
</g>
<!-- Node10 -->
<g id="Node000010" class="node">
<title>Node10</title>
<g id="a_Node000010"><a xlink:href="classfr_1_1softsf_1_1canscan_1_1_can_scan.html#addd7b7d7f9cc810756dbbb66218414d4" target="_top" xlink:title="Initializes the FREE mode input panel with a multiline text area for arbitrary text or URLs.">
<polygon fill="white" stroke="#666666" points="526.12,-270 377.38,-270 377.38,-238 526.12,-238 526.12,-270"/>
<text text-anchor="start" x="385.38" y="-256.5" font-family="Helvetica,sans-Serif" font-size="10.00">fr.softsf.canscan.CanScan.init</text>
<text text-anchor="middle" x="451.75" y="-244.5" font-family="Helvetica,sans-Serif" font-size="10.00">FreeCard</text>
</a>
</g>
</g>
<!-- Node2&#45;&gt;Node10 -->
<g id="edge11_Node000002_Node000010" class="edge">
<title>Node2&#45;&gt;Node10</title>
<g id="a_edge11_Node000002_Node000010"><a xlink:title=" ">
<path fill="none" stroke="#63b8ff" d="M319.03,-220.44C336.97,-225.01 356.61,-230.02 375.13,-234.73"/>
<polygon fill="#63b8ff" stroke="#63b8ff" points="374.16,-238.1 384.71,-237.18 375.89,-231.31 374.16,-238.1"/>
</a>
</g>
</g>
<!-- Node11 -->
<g id="Node000011" class="node">
<title>Node11</title>
<g id="a_Node000011"><a xlink:href="classfr_1_1softsf_1_1canscan_1_1_can_scan.html#a4047170747f52f54ee69ddbc834c5373" target="_top" xlink:title="Sets up automatic QR code preview updates for all input fields and controls.">
<polygon fill="white" stroke="#666666" points="537.38,-132 366.12,-132 366.12,-100 537.38,-100 537.38,-132"/>
<text text-anchor="start" x="374.12" y="-118.5" font-family="Helvetica,sans-Serif" font-size="10.00">fr.softsf.canscan.CanScan.initialize</text>
<text text-anchor="middle" x="451.75" y="-106.5" font-family="Helvetica,sans-Serif" font-size="10.00">AutomaticQRCodeRendering</text>
</a>
</g>
</g>
<!-- Node2&#45;&gt;Node11 -->
<g id="edge13_Node000002_Node000011" class="edge">
<title>Node2&#45;&gt;Node11</title>
<g id="a_edge13_Node000002_Node000011"><a xlink:title=" ">
<path fill="none" stroke="#63b8ff" d="M280,-187.72C300.4,-175.18 330.05,-158 357.5,-146 365.5,-142.5 374.04,-139.2 382.58,-136.16"/>
<polygon fill="#63b8ff" stroke="#63b8ff" points="383.61,-139.51 391.93,-132.94 381.34,-132.89 383.61,-139.51"/>
</a>
</g>
</g>
<!-- Node16 -->
<g id="Node000016" class="node">
<title>Node16</title>
<g id="a_Node000016"><a xlink:href="classfr_1_1softsf_1_1canscan_1_1_can_scan.html#ab78c47588f2cb82b4395a1268b3c4ca4" target="_top" xlink:title="Initializes the MECARD input panel with labeled text fields for structured contact information.">
<polygon fill="white" stroke="#666666" points="526.12,-220 377.38,-220 377.38,-188 526.12,-188 526.12,-220"/>
<text text-anchor="start" x="385.38" y="-206.5" font-family="Helvetica,sans-Serif" font-size="10.00">fr.softsf.canscan.CanScan.init</text>
<text text-anchor="middle" x="451.75" y="-194.5" font-family="Helvetica,sans-Serif" font-size="10.00">Mecard</text>
</a>
</g>
</g>
<!-- Node2&#45;&gt;Node16 -->
<g id="edge19_Node000002_Node000016" class="edge">
<title>Node2&#45;&gt;Node16</title>
<g id="a_edge19_Node000002_Node000016"><a xlink:title=" ">
<path fill="none" stroke="#63b8ff" d="M321.76,-204C336,-204 351.2,-204 365.99,-204"/>
<polygon fill="#63b8ff" stroke="#63b8ff" points="365.68,-207.5 375.68,-204 365.68,-200.5 365.68,-207.5"/>
</a>
</g>
</g>
<!-- Node17 -->
<g id="Node000017" class="node">
<title>Node17</title>
<g id="a_Node000017"><a xlink:href="classfr_1_1softsf_1_1canscan_1_1_can_scan.html#abbe4fb71ad979d6affed0b2c9629b832" target="_top" xlink:title="Updates the tooltip of the ratio slider to reflect its current value as a percentage.">
<polygon fill="white" stroke="#666666" points="526.5,-82 377,-82 377,-50 526.5,-50 526.5,-82"/>
<text text-anchor="start" x="385" y="-68.5" font-family="Helvetica,sans-Serif" font-size="10.00">fr.softsf.canscan.CanScan.set</text>
<text text-anchor="middle" x="451.75" y="-56.5" font-family="Helvetica,sans-Serif" font-size="10.00">RatioSliderTooltipValue</text>
</a>
</g>
</g>
<!-- Node2&#45;&gt;Node17 -->
<g id="edge21_Node000002_Node000017" class="edge">
<title>Node2&#45;&gt;Node17</title>
<g id="a_edge21_Node000002_Node000017"><a xlink:title=" ">
<path fill="none" stroke="#63b8ff" d="M264.73,-187.84C281.2,-163.15 316.01,-116.26 357.5,-91 360.41,-89.23 363.45,-87.58 366.58,-86.04"/>
<polygon fill="#63b8ff" stroke="#63b8ff" points="367.69,-89.38 375.43,-82.14 364.87,-82.97 367.69,-89.38"/>
</a>
</g>
</g>
<!-- Node18 -->
<g id="Node000018" class="node">
<title>Node18</title>
<g id="a_Node000018"><a xlink:href="classfr_1_1softsf_1_1canscan_1_1_can_scan.html#a428c742b098fa27d4c8984c1030c238d" target="_top" xlink:title="Switches the application between MECARD and FREE QR code modes.">
<polygon fill="white" stroke="#666666" points="546,-32 357.5,-32 357.5,-12 546,-12 546,-32"/>
<text text-anchor="middle" x="451.75" y="-18.5" font-family="Helvetica,sans-Serif" font-size="10.00">fr.softsf.canscan.CanScan.switchMode</text>
</a>
</g>
</g>
<!-- Node2&#45;&gt;Node18 -->
<g id="edge22_Node000002_Node000018" class="edge">
<title>Node2&#45;&gt;Node18</title>
<g id="a_edge22_Node000002_Node000018"><a xlink:title=" ">
<path fill="none" stroke="#63b8ff" d="M259.83,-187.73C271.65,-154.4 303.36,-78.36 357.5,-41 359.34,-39.73 361.24,-38.55 363.19,-37.44"/>
<polygon fill="#63b8ff" stroke="#63b8ff" points="364.54,-40.68 372,-33.15 361.47,-34.38 364.54,-40.68"/>
</a>
</g>
</g>
<!-- Node4&#45;&gt;Node1 -->
<g id="edge5_Node000004_Node000001" class="edge">
<title>Node4&#45;&gt;Node1</title>
<g id="a_edge5_Node000004_Node000001"><a xlink:title=" ">
<path fill="none" stroke="#63b8ff" d="M393.22,-325.58C326.2,-306.46 215.57,-274.89 144.19,-254.53"/>
<polygon fill="#63b8ff" stroke="#63b8ff" points="145.55,-251.28 134.98,-251.9 143.63,-258.01 145.55,-251.28"/>
</a>
</g>
</g>
<!-- Node6 -->
<g id="Node000006" class="node">
<title>Node6</title>
<g id="a_Node000006"><a xlink:href="classfr_1_1softsf_1_1canscan_1_1_can_scan.html#a22606ca129489c778fbbe17cb8b70697" target="_top" xlink:title="Calculates the available height for QR code rendering.">
<polygon fill="white" stroke="#666666" points="1344.25,-204 1169.25,-204 1169.25,-172 1344.25,-172 1344.25,-204"/>
<text text-anchor="start" x="1177.25" y="-190.5" font-family="Helvetica,sans-Serif" font-size="10.00">fr.softsf.canscan.CanScan.calculate</text>
<text text-anchor="middle" x="1256.75" y="-178.5" font-family="Helvetica,sans-Serif" font-size="10.00">AvailableQrHeight</text>
</a>
</g>
</g>
<!-- Node5&#45;&gt;Node6 -->
<g id="edge7_Node000005_Node000006" class="edge">
<title>Node5&#45;&gt;Node6</title>
<g id="a_edge7_Node000005_Node000006"><a xlink:title=" ">
<path fill="none" stroke="#63b8ff" d="M1092.11,-129.38C1113.67,-139.82 1142.74,-153.19 1169.25,-163 1174.12,-164.8 1179.19,-166.56 1184.32,-168.25"/>
<polygon fill="#63b8ff" stroke="#63b8ff" points="1182.86,-171.46 1193.45,-171.17 1184.99,-164.79 1182.86,-171.46"/>
</a>
</g>
</g>
<!-- Node7 -->
<g id="Node000007" class="node">
<title>Node7</title>
<g id="a_Node000007"><a xlink:href="classfr_1_1softsf_1_1canscan_1_1_can_scan.html#a4e67b1b5c764e72414a5c0f387810f5c" target="_top" xlink:title="Validates and returns the current QR code margin from the margin slider.">
<polygon fill="white" stroke="#666666" points="1341.62,-154 1171.88,-154 1171.88,-122 1341.62,-122 1341.62,-154"/>
<text text-anchor="start" x="1179.88" y="-140.5" font-family="Helvetica,sans-Serif" font-size="10.00">fr.softsf.canscan.CanScan.validate</text>
<text text-anchor="middle" x="1256.75" y="-128.5" font-family="Helvetica,sans-Serif" font-size="10.00">AndGetMargin</text>
</a>
</g>
</g>
<!-- Node5&#45;&gt;Node7 -->
<g id="edge8_Node000005_Node000007" class="edge">
<title>Node5&#45;&gt;Node7</title>
<g id="a_edge8_Node000005_Node000007"><a xlink:title=" ">
<path fill="none" stroke="#63b8ff" d="M1133.69,-122.45C1142.39,-123.56 1151.36,-124.7 1160.3,-125.84"/>
<polygon fill="#63b8ff" stroke="#63b8ff" points="1159.72,-129.3 1170.08,-127.09 1160.6,-122.35 1159.72,-129.3"/>
</a>
</g>
</g>
<!-- Node8 -->
<g id="Node000008" class="node">
<title>Node8</title>
<g id="a_Node000008"><a xlink:href="classfr_1_1softsf_1_1canscan_1_1_can_scan.html#a9e8188875168199cde065113ae2a393d" target="_top" xlink:title="Validates and returns the current image&#45;to&#45;QR ratio from the ratio slider.">
<polygon fill="white" stroke="#666666" points="1341.62,-104 1171.88,-104 1171.88,-72 1341.62,-72 1341.62,-104"/>
<text text-anchor="start" x="1179.88" y="-90.5" font-family="Helvetica,sans-Serif" font-size="10.00">fr.softsf.canscan.CanScan.validate</text>
<text text-anchor="middle" x="1256.75" y="-78.5" font-family="Helvetica,sans-Serif" font-size="10.00">AndGetRatio</text>
</a>
</g>
</g>
<!-- Node5&#45;&gt;Node8 -->
<g id="edge9_Node000005_Node000008" class="edge">
<title>Node5&#45;&gt;Node8</title>
<g id="a_edge9_Node000005_Node000008"><a xlink:title=" ">
<path fill="none" stroke="#63b8ff" d="M1133.69,-103.55C1142.39,-102.44 1151.36,-101.3 1160.3,-100.16"/>
<polygon fill="#63b8ff" stroke="#63b8ff" points="1160.6,-103.65 1170.08,-98.91 1159.72,-96.7 1160.6,-103.65"/>
</a>
</g>
</g>
<!-- Node9 -->
<g id="Node000009" class="node">
<title>Node9</title>
<g id="a_Node000009"><a xlink:href="classfr_1_1softsf_1_1canscan_1_1_can_scan.html#a6d139bb8d0a3c7081096c8956189b684" target="_top" xlink:title="Validates and returns the QR code size from the corresponding text field.">
<polygon fill="white" stroke="#666666" points="1341.62,-54 1171.88,-54 1171.88,-22 1341.62,-22 1341.62,-54"/>
<text text-anchor="start" x="1179.88" y="-40.5" font-family="Helvetica,sans-Serif" font-size="10.00">fr.softsf.canscan.CanScan.validate</text>
<text text-anchor="middle" x="1256.75" y="-28.5" font-family="Helvetica,sans-Serif" font-size="10.00">AndGetSize</text>
</a>
</g>
</g>
<!-- Node5&#45;&gt;Node9 -->
<g id="edge10_Node000005_Node000009" class="edge">
<title>Node5&#45;&gt;Node9</title>
<g id="a_edge10_Node000005_Node000009"><a xlink:title=" ">
<path fill="none" stroke="#63b8ff" d="M1092.11,-96.62C1113.67,-86.18 1142.74,-72.81 1169.25,-63 1174.12,-61.2 1179.19,-59.44 1184.32,-57.75"/>
<polygon fill="#63b8ff" stroke="#63b8ff" points="1184.99,-61.21 1193.45,-54.83 1182.86,-54.54 1184.99,-61.21"/>
</a>
</g>
</g>
<!-- Node10&#45;&gt;Node3 -->
<g id="edge12_Node000010_Node000003" class="edge">
<title>Node10&#45;&gt;Node3</title>
<g id="a_edge12_Node000010_Node000003"><a xlink:title=" ">
<path fill="none" stroke="#63b8ff" d="M526.48,-254C540.66,-254 555.71,-254 570.48,-254"/>
<polygon fill="#63b8ff" stroke="#63b8ff" points="570.2,-257.5 580.2,-254 570.2,-250.5 570.2,-257.5"/>
</a>
</g>
</g>
<!-- Node12 -->
<g id="Node000012" class="node">
<title>Node12</title>
<g id="a_Node000012"><a xlink:href="classfr_1_1softsf_1_1canscan_1_1_can_scan.html#a9856545d05ef553c8dfddd95a850a360" target="_top" xlink:title="Creates a minimal DocumentListener that executes the given action on any document change.">
<polygon fill="white" stroke="#666666" points="750.25,-132 585.75,-132 585.75,-100 750.25,-100 750.25,-132"/>
<text text-anchor="start" x="593.75" y="-118.5" font-family="Helvetica,sans-Serif" font-size="10.00">fr.softsf.canscan.CanScan.simple</text>
<text text-anchor="middle" x="668" y="-106.5" font-family="Helvetica,sans-Serif" font-size="10.00">DocumentListener</text>
</a>
</g>
</g>
<!-- Node11&#45;&gt;Node12 -->
<g id="edge14_Node000011_Node000012" class="edge">
<title>Node11&#45;&gt;Node12</title>
<g id="a_edge14_Node000011_Node000012"><a xlink:title=" ">
<path fill="none" stroke="#63b8ff" d="M537.73,-116C549.6,-116 561.84,-116 573.85,-116"/>
<polygon fill="#63b8ff" stroke="#63b8ff" points="573.75,-119.5 583.75,-116 573.75,-112.5 573.75,-119.5"/>
</a>
</g>
</g>
<!-- Node13 -->
<g id="Node000013" class="node">
<title>Node13</title>
<g id="a_Node000013"><a xlink:href="classfr_1_1softsf_1_1canscan_1_1_can_scan.html#a9ac2e28615c970404a4408245e62a6fc" target="_top" xlink:title="Schedules a debounced QR code preview update based on the current input and settings.">
<polygon fill="white" stroke="#666666" points="750.62,-82 585.38,-82 585.38,-50 750.62,-50 750.62,-82"/>
<text text-anchor="start" x="593.38" y="-68.5" font-family="Helvetica,sans-Serif" font-size="10.00">fr.softsf.canscan.CanScan.update</text>
<text text-anchor="middle" x="668" y="-56.5" font-family="Helvetica,sans-Serif" font-size="10.00">PreviewQRCode</text>
</a>
</g>
</g>
<!-- Node11&#45;&gt;Node13 -->
<g id="edge15_Node000011_Node000013" class="edge">
<title>Node11&#45;&gt;Node13</title>
<g id="a_edge15_Node000011_Node000013"><a xlink:title=" ">
<path fill="none" stroke="#63b8ff" d="M523.2,-99.56C543.06,-94.92 564.84,-89.84 585.3,-85.07"/>
<polygon fill="#63b8ff" stroke="#63b8ff" points="586.09,-88.48 595.03,-82.79 584.5,-81.66 586.09,-88.48"/>
</a>
</g>
</g>
<!-- Node14 -->
<g id="Node000014" class="node">
<title>Node14</title>
<g id="a_Node000014"><a xlink:href="classfr_1_1softsf_1_1canscan_1_1_can_scan.html#aba5b2671745886284c444b8e3bec80e2" target="_top" xlink:title="Frees the QR code image and its label icon to release memory.">
<polygon fill="white" stroke="#666666" points="945.12,-132 792.62,-132 792.62,-100 945.12,-100 945.12,-132"/>
<text text-anchor="start" x="800.62" y="-118.5" font-family="Helvetica,sans-Serif" font-size="10.00">fr.softsf.canscan.CanScan.free</text>
<text text-anchor="middle" x="868.88" y="-106.5" font-family="Helvetica,sans-Serif" font-size="10.00">QrOriginalAndQrCodeLabel</text>
</a>
</g>
</g>
<!-- Node13&#45;&gt;Node14 -->
<g id="edge16_Node000013_Node000014" class="edge">
<title>Node13&#45;&gt;Node14</title>
<g id="a_edge16_Node000013_Node000014"><a xlink:title=" ">
<path fill="none" stroke="#63b8ff" d="M734.39,-82.44C752.66,-87.03 772.67,-92.06 791.51,-96.8"/>
<polygon fill="#63b8ff" stroke="#63b8ff" points="790.42,-100.14 800.97,-99.18 792.13,-93.35 790.42,-100.14"/>
</a>
</g>
</g>
<!-- Node15 -->
<g id="Node000015" class="node">
<title>Node15</title>
<g id="a_Node000015"><a xlink:href="classfr_1_1softsf_1_1canscan_1_1_can_scan.html#a42d6a5e11bc8f147bed036366316564f" target="_top" xlink:title="Clears the current QR code display and starts a background worker to generate a new preview.">
<polygon fill="white" stroke="#666666" points="947.75,-82 790,-82 790,-50 947.75,-50 947.75,-82"/>
<text text-anchor="start" x="798" y="-68.5" font-family="Helvetica,sans-Serif" font-size="10.00">fr.softsf.canscan.CanScan.reset</text>
<text text-anchor="middle" x="868.88" y="-56.5" font-family="Helvetica,sans-Serif" font-size="10.00">AndStartPreviewWorker</text>
</a>
</g>
</g>
<!-- Node13&#45;&gt;Node15 -->
<g id="edge17_Node000013_Node000015" class="edge">
<title>Node13&#45;&gt;Node15</title>
<g id="a_edge17_Node000013_Node000015"><a xlink:title=" ">
<path fill="none" stroke="#63b8ff" d="M751.04,-66C759.99,-66 769.14,-66 778.18,-66"/>
<polygon fill="#63b8ff" stroke="#63b8ff" points="778.03,-69.5 788.03,-66 778.03,-62.5 778.03,-69.5"/>
</a>
</g>
</g>
<!-- Node15&#45;&gt;Node5 -->
<g id="edge18_Node000015_Node000005" class="edge">
<title>Node15&#45;&gt;Node5</title>
<g id="a_edge18_Node000015_Node000005"><a xlink:title=" ">
<path fill="none" stroke="#63b8ff" d="M935.5,-82.44C950.21,-86.12 965.94,-90.06 981.05,-93.85"/>
<polygon fill="#63b8ff" stroke="#63b8ff" points="979.9,-97.17 990.45,-96.2 981.6,-90.38 979.9,-97.17"/>
</a>
</g>
</g>
<!-- Node16&#45;&gt;Node3 -->
<g id="edge20_Node000016_Node000003" class="edge">
<title>Node16&#45;&gt;Node3</title>
<g id="a_edge20_Node000016_Node000003"><a xlink:title=" ">
<path fill="none" stroke="#63b8ff" d="M523.2,-220.44C551.69,-227.09 584.12,-234.66 610.97,-240.92"/>
<polygon fill="#63b8ff" stroke="#63b8ff" points="610.09,-244.31 620.63,-243.18 611.68,-237.5 610.09,-244.31"/>
</a>
</g>
</g>
<!-- Node18&#45;&gt;Node13 -->
<g id="edge24_Node000018_Node000013" class="edge">
<title>Node18&#45;&gt;Node13</title>
<g id="a_edge24_Node000018_Node000013"><a xlink:title=" ">
<path fill="none" stroke="#63b8ff" d="M504.06,-32.43C517.69,-35.21 532.4,-38.21 546,-41 555.88,-43.03 566.2,-45.15 576.49,-47.27"/>
<polygon fill="#63b8ff" stroke="#63b8ff" points="575.62,-50.66 586.12,-49.26 577.03,-43.81 575.62,-50.66"/>
</a>
</g>
</g>
<!-- Node19 -->
<g id="Node000019" class="node">
<title>Node19</title>
<g id="a_Node000019"><a xlink:href="enumfr_1_1softsf_1_1canscan_1_1model_1_1_mode.html#a16a898a11ca939056bd7b275f11ea54c" target="_top" xlink:title="Returns the name of the mode as a string.">
<polygon fill="white" stroke="#666666" points="728.88,-32 607.12,-32 607.12,0 728.88,0 728.88,-32"/>
<text text-anchor="start" x="615.12" y="-18.5" font-family="Helvetica,sans-Serif" font-size="10.00">fr.softsf.canscan.model.</text>
<text text-anchor="middle" x="668" y="-6.5" font-family="Helvetica,sans-Serif" font-size="10.00">Mode.text</text>
</a>
</g>
</g>
<!-- Node18&#45;&gt;Node19 -->
<g id="edge23_Node000018_Node000019" class="edge">
<title>Node18&#45;&gt;Node19</title>
<g id="a_edge23_Node000018_Node000019"><a xlink:title=" ">
<path fill="none" stroke="#63b8ff" d="M546.41,-19.38C562.9,-18.92 579.83,-18.44 595.58,-18"/>
<polygon fill="#63b8ff" stroke="#63b8ff" points="595.42,-21.51 605.32,-17.73 595.22,-14.51 595.42,-21.51"/>
</a>
</g>
</g>
</g>
</svg>
