<?xml version="1.0" encoding="UTF-8" standalone="no"?>
<!DOCTYPE svg PUBLIC "-//W3C//DTD SVG 1.1//EN"
 "http://www.w3.org/Graphics/SVG/1.1/DTD/svg11.dtd">
<!-- Generated by graphviz version 12.2.1 (20241206.2353)
 -->
<!-- Title: fr.softsf.canscan.ui.QrCodeResize.resetAndStartResizeWorker Pages: 1 -->
<!--zoomable 115 -->

<svg id="main" version="1.1" xmlns="http://www.w3.org/2000/svg" xmlns:xlink="http://www.w3.org/1999/xlink" xml:space="preserve" onload="init(evt)">

<style type="text/css"><![CDATA[
.node, .edge {opacity: 0.7;}
.node.selected, .edge.selected {opacity: 1;}
.edge:hover path { stroke: red; }
.edge:hover polygon { stroke: red; fill: red; }
]]></style>

<defs>
  <circle id="rim" cx="0" cy="0" r="7"/>
  <circle id="rim2" cx="0" cy="0" r="3.5"/>
  <g id="zoomPlus">
    <use xlink:href="#rim" fill="#404040"><set attributeName="fill" to="#808080" begin="zoomplus.mouseover" end="zoomplus.mouseout"/></use>
    <path d="M-4,0h8M0,-4v8" fill="none" stroke="white" stroke-width="1.5" pointer-events="none"/>
  </g>
  <g id="zoomMin">
    <use xlink:href="#rim" fill="#404040"><set attributeName="fill" to="#808080" begin="zoomminus.mouseover" end="zoomminus.mouseout"/></use>
    <path d="M-4,0h8" fill="none" stroke="white" stroke-width="1.5" pointer-events="none"/>
  </g>
  <g id="arrowUp" transform="translate(30 24)">
    <use xlink:href="#rim"/>
    <path pointer-events="none" fill="none" stroke="white" stroke-width="1.5" d="M0,-3.0v7 M-2.5,-0.5L0,-3.0L2.5,-0.5"/>
  </g>
  <g id="arrowRight" transform="rotate(90) translate(36 -43)">
    <use xlink:href="#rim"/>
    <path pointer-events="none" fill="none" stroke="white" stroke-width="1.5" d="M0,-3.0v7 M-2.5,-0.5L0,-3.0L2.5,-0.5"/>
  </g>
  <g id="arrowDown" transform="rotate(180) translate(-30 -48)">
    <use xlink:href="#rim"/>
    <path pointer-events="none" fill="none" stroke="white" stroke-width="1.5" d="M0,-3.0v7 M-2.5,-0.5L0,-3.0L2.5,-0.5"/>
  </g>
  <g id="arrowLeft" transform="rotate(270) translate(-36 17)">
    <use xlink:href="#rim"/>
    <path pointer-events="none" fill="none" stroke="white" stroke-width="1.5" d="M0,-3.0v7 M-2.5,-0.5L0,-3.0L2.5,-0.5"/>
  </g>
  <g id="resetDef">
    <use xlink:href="#rim2" fill="#404040"><set attributeName="fill" to="#808080" begin="reset.mouseover" end="reset.mouseout"/></use>
  </g>
</defs>
<script type="application/ecmascript">
var viewWidth = 793;
var viewHeight = 115;
var sectionId = 'dynsection-4';
</script>
<script type="application/ecmascript" xlink:href="svg.min.js"/>
<svg id="graph" class="graph">
<g id="viewport">
<title>fr.softsf.canscan.ui.QrCodeResize.resetAndStartResizeWorker</title>
<!-- Node1 -->
<g id="Node000001" class="node">
<title>Node1</title>
<g id="a_Node000001"><a xlink:title="Cancels any pending task, clears the current icon, starts the wait animation, and launches a new resi...">
<polygon fill="#999999" stroke="#666666" points="171.25,-82 0,-82 0,-50 171.25,-50 171.25,-82"/>
<text text-anchor="start" x="8" y="-68.5" font-family="Helvetica,sans-Serif" font-size="10.00">fr.softsf.canscan.ui.QrCode</text>
<text text-anchor="middle" x="85.62" y="-56.5" font-family="Helvetica,sans-Serif" font-size="10.00">Resize.resetAndStartResizeWorker</text>
</a>
</g>
</g>
<!-- Node2 -->
<g id="Node000002" class="node">
<title>Node2</title>
<g id="a_Node000002"><a xlink:href="classfr_1_1softsf_1_1canscan_1_1ui_1_1_qr_code_resize.html#a8d6601bb69287724be51e8ffac0fc369" target="_top" xlink:title="Cancels any active resize worker and waits for proper termination.">
<polygon fill="white" stroke="#666666" points="385.25,-107 207.25,-107 207.25,-75 385.25,-75 385.25,-107"/>
<text text-anchor="start" x="215.25" y="-93.5" font-family="Helvetica,sans-Serif" font-size="10.00">fr.softsf.canscan.ui.QrCode</text>
<text text-anchor="middle" x="296.25" y="-81.5" font-family="Helvetica,sans-Serif" font-size="10.00">Resize.cancelPreviousResizeWorker</text>
</a>
</g>
</g>
<!-- Node1&#45;&gt;Node2 -->
<g id="edge1_Node000001_Node000002" class="edge">
<title>Node1&#45;&gt;Node2</title>
<g id="a_edge1_Node000001_Node000002"><a xlink:title=" ">
<path fill="none" stroke="#63b8ff" d="M171.48,-76.17C179.46,-77.12 187.59,-78.1 195.68,-79.07"/>
<polygon fill="#63b8ff" stroke="#63b8ff" points="195.23,-82.54 205.57,-80.25 196.06,-75.59 195.23,-82.54"/>
</a>
</g>
</g>
<!-- Node3 -->
<g id="Node000003" class="node">
<title>Node3</title>
<g id="a_Node000003"><a xlink:href="classfr_1_1softsf_1_1canscan_1_1ui_1_1_qr_code_resize.html#aadf6afa51d8b8667ff70777b0202d4af" target="_top" xlink:title="Launches a background worker that resizes the QR code image to the specified height.">
<polygon fill="white" stroke="#666666" points="366.12,-57 226.38,-57 226.38,-25 366.12,-25 366.12,-57"/>
<text text-anchor="start" x="234.38" y="-43.5" font-family="Helvetica,sans-Serif" font-size="10.00">fr.softsf.canscan.ui.QrCode</text>
<text text-anchor="middle" x="296.25" y="-31.5" font-family="Helvetica,sans-Serif" font-size="10.00">Resize.launchResizeWorker</text>
</a>
</g>
</g>
<!-- Node1&#45;&gt;Node3 -->
<g id="edge2_Node000001_Node000003" class="edge">
<title>Node1&#45;&gt;Node3</title>
<g id="a_edge2_Node000001_Node000003"><a xlink:title=" ">
<path fill="none" stroke="#63b8ff" d="M171.48,-55.83C185.81,-54.11 200.65,-52.34 214.86,-50.63"/>
<polygon fill="#63b8ff" stroke="#63b8ff" points="215.09,-54.13 224.6,-49.47 214.26,-47.18 215.09,-54.13"/>
</a>
</g>
</g>
<!-- Node4 -->
<g id="Node000004" class="node">
<title>Node4</title>
<g id="a_Node000004"><a xlink:href="classfr_1_1softsf_1_1canscan_1_1ui_1_1_qr_code_resize.html#a2141e795770aa1577397e33f990d356c" target="_top" xlink:title="Creates a SwingWorker to perform image resizing off the EDT and update the UI when the task completes...">
<polygon fill="white" stroke="#666666" points="559.5,-57 421.25,-57 421.25,-25 559.5,-25 559.5,-57"/>
<text text-anchor="start" x="429.25" y="-43.5" font-family="Helvetica,sans-Serif" font-size="10.00">fr.softsf.canscan.ui.QrCode</text>
<text text-anchor="middle" x="490.38" y="-31.5" font-family="Helvetica,sans-Serif" font-size="10.00">Resize.createResizeWorker</text>
</a>
</g>
</g>
<!-- Node3&#45;&gt;Node4 -->
<g id="edge3_Node000003_Node000004" class="edge">
<title>Node3&#45;&gt;Node4</title>
<g id="a_edge3_Node000003_Node000004"><a xlink:title=" ">
<path fill="none" stroke="#63b8ff" d="M366.61,-41C380.52,-41 395.24,-41 409.47,-41"/>
<polygon fill="#63b8ff" stroke="#63b8ff" points="409.25,-44.5 419.25,-41 409.25,-37.5 409.25,-44.5"/>
</a>
</g>
</g>
<!-- Node5 -->
<g id="Node000005" class="node">
<title>Node5</title>
<g id="a_Node000005"><a xlink:href="classfr_1_1softsf_1_1canscan_1_1ui_1_1_qr_code_resize.html#affac6f7db21e00ef84b3d804823c6b51" target="_top" xlink:title="Handles resize worker completion, ensuring that cancellation and stale worker checks are performed be...">
<polygon fill="white" stroke="#666666" points="784.75,-82 595.5,-82 595.5,-50 784.75,-50 784.75,-82"/>
<text text-anchor="start" x="603.5" y="-68.5" font-family="Helvetica,sans-Serif" font-size="10.00">fr.softsf.canscan.ui.QrCode</text>
<text text-anchor="middle" x="690.12" y="-56.5" font-family="Helvetica,sans-Serif" font-size="10.00">Resize.handleResizeWorkerCompletion</text>
</a>
</g>
</g>
<!-- Node4&#45;&gt;Node5 -->
<g id="edge4_Node000004_Node000005" class="edge">
<title>Node4&#45;&gt;Node5</title>
<g id="a_edge4_Node000004_Node000005"><a xlink:title=" ">
<path fill="none" stroke="#63b8ff" d="M559.98,-49.67C567.72,-50.65 575.72,-51.66 583.79,-52.68"/>
<polygon fill="#63b8ff" stroke="#63b8ff" points="583.34,-56.15 593.7,-53.94 584.22,-49.21 583.34,-56.15"/>
</a>
</g>
</g>
<!-- Node6 -->
<g id="Node000006" class="node">
<title>Node6</title>
<g id="a_Node000006"><a xlink:href="classfr_1_1softsf_1_1canscan_1_1ui_1_1_qr_code_resize.html#a9d652d45dd8f6c5a1715e7c19f27fad5" target="_top" xlink:title="Performs image resizing logic off the EDT.">
<polygon fill="white" stroke="#666666" points="771.62,-32 608.62,-32 608.62,0 771.62,0 771.62,-32"/>
<text text-anchor="start" x="616.62" y="-18.5" font-family="Helvetica,sans-Serif" font-size="10.00">fr.softsf.canscan.ui.QrCode</text>
<text text-anchor="middle" x="690.12" y="-6.5" font-family="Helvetica,sans-Serif" font-size="10.00">Resize.resizeImageInBackground</text>
</a>
</g>
</g>
<!-- Node4&#45;&gt;Node6 -->
<g id="edge5_Node000004_Node000006" class="edge">
<title>Node4&#45;&gt;Node6</title>
<g id="a_edge5_Node000004_Node000006"><a xlink:title=" ">
<path fill="none" stroke="#63b8ff" d="M559.98,-32.33C571.94,-30.81 584.55,-29.22 597.02,-27.64"/>
<polygon fill="#63b8ff" stroke="#63b8ff" points="597.42,-31.12 606.9,-26.39 596.54,-24.18 597.42,-31.12"/>
</a>
</g>
</g>
</g>
</svg>

<g id="navigator" transform="translate(0 0)" fill="#404254">
  <rect fill="#f2f5e9" fill-opacity="0.5" stroke="#606060" stroke-width=".5" x="0" y="0" width="60" height="60"/>
  <use id="zoomplus" xlink:href="#zoomPlus" x="17" y="9" onmousedown="handleZoom(evt,'in')"/>
  <use id="zoomminus" xlink:href="#zoomMin" x="42" y="9" onmousedown="handleZoom(evt,'out')"/>
  <use id="reset" xlink:href="#resetDef" x="30" y="36" onmousedown="handleReset()"/>
   <use id="arrowup" xlink:href="#arrowUp" x="0" y="0" onmousedown="handlePan(0,-1)"/>
  <use id="arrowright" xlink:href="#arrowRight" x="0" y="0" onmousedown="handlePan(1,0)"/>
  <use id="arrowdown" xlink:href="#arrowDown" x="0" y="0" onmousedown="handlePan(0,1)"/>
  <use id="arrowleft" xlink:href="#arrowLeft" x="0" y="0" onmousedown="handlePan(-1,0)"/>
</g>
<svg viewBox="0 0 15 15" width="100%" height="30px" preserveAspectRatio="xMaxYMin meet">
 <g id="arrow_out" transform="scale(0.3 0.3)">
  <a xlink:href="classfr_1_1softsf_1_1canscan_1_1ui_1_1_qr_code_resize_a1093d8b446a9a20cb0d3a8275283a345_cgraph_org.svg" target="_base">
   <rect id="button" ry="5" rx="5" y="6" x="6" height="38" width="38"
        fill="#f2f5e9" fill-opacity="0.5" stroke="#606060" stroke-width="1.0"/>
   <path id="arrow"
     d="M 11.500037,31.436501 C 11.940474,20.09759 22.043105,11.32322 32.158766,21.979434 L 37.068811,17.246167 C 37.068811,17.246167 37.088388,32 37.088388,32 L 22.160133,31.978069 C 22.160133,31.978069 26.997745,27.140456 26.997745,27.140456 C 18.528582,18.264221 13.291696,25.230495 11.500037,31.436501 z"
     style="fill:#404040;"/>
  </a>
 </g>
</svg>

<style type='text/css'>
<![CDATA[
[data-mouse-over-selected='false'] { opacity: 0.7; }
[data-mouse-over-selected='true']  { opacity: 1.0; }
]]>
</style>
<script type="application/ecmascript"><![CDATA[
document.addEventListener('DOMContentLoaded', (event) => {
  highlightEdges();
  highlightAdjacentNodes();
});
]]></script>
</svg>
