<?xml version="1.0" encoding="UTF-8" standalone="no"?>
<!DOCTYPE svg PUBLIC "-//W3C//DTD SVG 1.1//EN"
 "http://www.w3.org/Graphics/SVG/1.1/DTD/svg11.dtd">
<!-- Generated by graphviz version 12.2.1 (20241206.2353)
 -->
<!-- Title: fr.softsf.canscan.CanScan.drawFinderPatterns Pages: 1 -->
<svg width="779pt" height="175pt"
 viewBox="0.00 0.00 778.50 174.58" xmlns="http://www.w3.org/2000/svg" xmlns:xlink="http://www.w3.org/1999/xlink">
<g id="graph0" class="graph" transform="scale(1 1) rotate(0) translate(4 170.58)">
<title>fr.softsf.canscan.CanScan.drawFinderPatterns</title>
<!-- Node1 -->
<g id="Node000001" class="node">
<title>Node1</title>
<g id="a_Node000001"><a xlink:title="Renders the three QR code finder patterns at the corners using the specified style.">
<polygon fill="#999999" stroke="#666666" points="157,-125 0,-125 0,-93 157,-93 157,-125"/>
<text text-anchor="start" x="8" y="-111.5" font-family="Helvetica,sans-Serif" font-size="10.00">fr.softsf.canscan.CanScan.draw</text>
<text text-anchor="middle" x="78.5" y="-99.5" font-family="Helvetica,sans-Serif" font-size="10.00">FinderPatterns</text>
</a>
</g>
</g>
<!-- Node2 -->
<g id="Node000002" class="node">
<title>Node2</title>
<g id="a_Node000002"><a xlink:href="enumfr_1_1softsf_1_1canscan_1_1util_1_1_checker.html#a38aa8db97b16480c728481f1835da11f" target="_top" xlink:title="Checks if the given object is null in a static context and displays an error dialog if so.">
<polygon fill="white" stroke="#666666" points="560.25,-150 386,-150 386,-118 560.25,-118 560.25,-150"/>
<text text-anchor="start" x="394" y="-136.5" font-family="Helvetica,sans-Serif" font-size="10.00">fr.softsf.canscan.util.Checker.check</text>
<text text-anchor="middle" x="473.12" y="-124.5" font-family="Helvetica,sans-Serif" font-size="10.00">StaticNPE</text>
</a>
</g>
</g>
<!-- Node1&#45;&gt;Node2 -->
<g id="edge1_Node000001_Node000002" class="edge">
<title>Node1&#45;&gt;Node2</title>
<g id="a_edge1_Node000001_Node000002"><a xlink:title=" ">
<path fill="none" stroke="#63b8ff" d="M107.78,-125.42C130.09,-137.38 162.45,-152.57 193,-159 261.07,-173.33 340.16,-163.86 396.74,-152.7"/>
<polygon fill="#63b8ff" stroke="#63b8ff" points="397.17,-156.18 406.26,-150.75 395.76,-149.32 397.17,-156.18"/>
</a>
</g>
</g>
<!-- Node4 -->
<g id="Node000004" class="node">
<title>Node4</title>
<g id="a_Node000004"><a xlink:href="classfr_1_1softsf_1_1canscan_1_1_can_scan.html#ad07293248fd94f28e8840a4127591c74" target="_top" xlink:title="Draws a QR code finder pattern with rounded corners at the specified pixel coordinates.">
<polygon fill="white" stroke="#666666" points="350,-150 193,-150 193,-118 350,-118 350,-150"/>
<text text-anchor="start" x="201" y="-136.5" font-family="Helvetica,sans-Serif" font-size="10.00">fr.softsf.canscan.CanScan.draw</text>
<text text-anchor="middle" x="271.5" y="-124.5" font-family="Helvetica,sans-Serif" font-size="10.00">RoundedFinderPatternAtPixel</text>
</a>
</g>
</g>
<!-- Node1&#45;&gt;Node4 -->
<g id="edge3_Node000001_Node000004" class="edge">
<title>Node1&#45;&gt;Node4</title>
<g id="a_edge3_Node000001_Node000004"><a xlink:title=" ">
<path fill="none" stroke="#63b8ff" d="M157.46,-119.2C165.39,-120.24 173.47,-121.3 181.5,-122.35"/>
<polygon fill="#63b8ff" stroke="#63b8ff" points="180.92,-125.8 191.29,-123.63 181.82,-118.86 180.92,-125.8"/>
</a>
</g>
</g>
<!-- Node5 -->
<g id="Node000005" class="node">
<title>Node5</title>
<g id="a_Node000005"><a xlink:href="classfr_1_1softsf_1_1canscan_1_1_can_scan.html#a52d47c63db292c6e4c9170ff3f110372" target="_top" xlink:title="Draws a standard square QR code finder pattern at the specified pixel coordinates.">
<polygon fill="white" stroke="#666666" points="350,-100 193,-100 193,-68 350,-68 350,-100"/>
<text text-anchor="start" x="201" y="-86.5" font-family="Helvetica,sans-Serif" font-size="10.00">fr.softsf.canscan.CanScan.draw</text>
<text text-anchor="middle" x="271.5" y="-74.5" font-family="Helvetica,sans-Serif" font-size="10.00">SquareFinderPatternAtPixel</text>
</a>
</g>
</g>
<!-- Node1&#45;&gt;Node5 -->
<g id="edge5_Node000001_Node000005" class="edge">
<title>Node1&#45;&gt;Node5</title>
<g id="a_edge5_Node000001_Node000005"><a xlink:title=" ">
<path fill="none" stroke="#63b8ff" d="M157.46,-98.8C165.39,-97.76 173.47,-96.7 181.5,-95.65"/>
<polygon fill="#63b8ff" stroke="#63b8ff" points="181.82,-99.14 191.29,-94.37 180.92,-92.2 181.82,-99.14"/>
</a>
</g>
</g>
<!-- Node6 -->
<g id="Node000006" class="node">
<title>Node6</title>
<g id="a_Node000006"><a xlink:href="classfr_1_1softsf_1_1canscan_1_1_can_scan.html#abb6acfc2fa4bf839236f0daee33746f7" target="_top" xlink:title="Configuration parameters used to generate a QR code.">
<polygon fill="white" stroke="#666666" points="339.5,-32 203.5,-32 203.5,0 339.5,0 339.5,-32"/>
<text text-anchor="start" x="211.5" y="-18.5" font-family="Helvetica,sans-Serif" font-size="10.00">fr.softsf.canscan.CanScan.</text>
<text text-anchor="middle" x="271.5" y="-6.5" font-family="Helvetica,sans-Serif" font-size="10.00">QrConfig</text>
</a>
</g>
</g>
<!-- Node1&#45;&gt;Node6 -->
<g id="edge7_Node000001_Node000006" class="edge">
<title>Node1&#45;&gt;Node6</title>
<g id="a_edge7_Node000001_Node000006"><a xlink:title=" ">
<path fill="none" stroke="#63b8ff" d="M113.21,-92.59C144.75,-77.23 192.05,-54.2 226.55,-37.4"/>
<polygon fill="#63b8ff" stroke="#63b8ff" points="227.99,-40.59 235.45,-33.07 224.93,-34.3 227.99,-40.59"/>
</a>
</g>
</g>
<!-- Node3 -->
<g id="Node000003" class="node">
<title>Node3</title>
<g id="a_Node000003"><a xlink:href="enumfr_1_1softsf_1_1canscan_1_1util_1_1_checker.html#af3fc9dd2a33f4d12c5db8cf2aeea17d7" target="_top" xlink:title="Validates that the given object is non&#45;null and, if a String, not blank.">
<polygon fill="white" stroke="#666666" points="770.5,-150 596.25,-150 596.25,-118 770.5,-118 770.5,-150"/>
<text text-anchor="start" x="604.25" y="-136.5" font-family="Helvetica,sans-Serif" font-size="10.00">fr.softsf.canscan.util.Checker.check</text>
<text text-anchor="middle" x="683.38" y="-124.5" font-family="Helvetica,sans-Serif" font-size="10.00">NullOrBlankInternal</text>
</a>
</g>
</g>
<!-- Node2&#45;&gt;Node3 -->
<g id="edge2_Node000002_Node000003" class="edge">
<title>Node2&#45;&gt;Node3</title>
<g id="a_edge2_Node000002_Node000003"><a xlink:title=" ">
<path fill="none" stroke="#63b8ff" d="M560.63,-134C568.53,-134 576.57,-134 584.56,-134"/>
<polygon fill="#63b8ff" stroke="#63b8ff" points="584.29,-137.5 594.29,-134 584.29,-130.5 584.29,-137.5"/>
</a>
</g>
</g>
<!-- Node4&#45;&gt;Node2 -->
<g id="edge4_Node000004_Node000002" class="edge">
<title>Node4&#45;&gt;Node2</title>
<g id="a_edge4_Node000004_Node000002"><a xlink:title=" ">
<path fill="none" stroke="#63b8ff" d="M350.25,-134C358.14,-134 366.22,-134 374.28,-134"/>
<polygon fill="#63b8ff" stroke="#63b8ff" points="374.14,-137.5 384.14,-134 374.14,-130.5 374.14,-137.5"/>
</a>
</g>
</g>
<!-- Node5&#45;&gt;Node2 -->
<g id="edge6_Node000005_Node000002" class="edge">
<title>Node5&#45;&gt;Node2</title>
<g id="a_edge6_Node000005_Node000002"><a xlink:title=" ">
<path fill="none" stroke="#63b8ff" d="M338.14,-100.44C356.48,-105.03 376.56,-110.06 395.47,-114.8"/>
<polygon fill="#63b8ff" stroke="#63b8ff" points="394.43,-118.15 404.98,-117.18 396.13,-111.36 394.43,-118.15"/>
</a>
</g>
</g>
<!-- Node6&#45;&gt;Node6 -->
<g id="edge8_Node000006_Node000006" class="edge">
<title>Node6&#45;&gt;Node6</title>
<g id="a_edge8_Node000006_Node000006"><a xlink:title=" ">
<path fill="none" stroke="#63b8ff" d="M237.04,-32.44C230.61,-41.58 242.1,-50 271.5,-50 287.58,-50 298.3,-47.48 303.66,-43.71"/>
<polygon fill="#63b8ff" stroke="#63b8ff" points="307.09,-44.42 305.65,-33.93 300.23,-43.03 307.09,-44.42"/>
</a>
</g>
</g>
</g>
</svg>
