<?xml version="1.0" encoding="UTF-8" standalone="no"?>
<!DOCTYPE svg PUBLIC "-//W3C//DTD SVG 1.1//EN"
 "http://www.w3.org/Graphics/SVG/1.1/DTD/svg11.dtd">
<!-- Generated by graphviz version 12.2.1 (20241206.2353)
 -->
<!-- Title: fr.softsf.canscan.ui.QrCodeBufferedImage.generateQrCodeImage Pages: 1 -->
<!--zoomable 377 -->

<svg id="main" version="1.1" xmlns="http://www.w3.org/2000/svg" xmlns:xlink="http://www.w3.org/1999/xlink" xml:space="preserve" onload="init(evt)">

<style type="text/css"><![CDATA[
.node, .edge {opacity: 0.7;}
.node.selected, .edge.selected {opacity: 1;}
.edge:hover path { stroke: red; }
.edge:hover polygon { stroke: red; fill: red; }
]]></style>

<defs>
  <circle id="rim" cx="0" cy="0" r="7"/>
  <circle id="rim2" cx="0" cy="0" r="3.5"/>
  <g id="zoomPlus">
    <use xlink:href="#rim" fill="#404040"><set attributeName="fill" to="#808080" begin="zoomplus.mouseover" end="zoomplus.mouseout"/></use>
    <path d="M-4,0h8M0,-4v8" fill="none" stroke="white" stroke-width="1.5" pointer-events="none"/>
  </g>
  <g id="zoomMin">
    <use xlink:href="#rim" fill="#404040"><set attributeName="fill" to="#808080" begin="zoomminus.mouseover" end="zoomminus.mouseout"/></use>
    <path d="M-4,0h8" fill="none" stroke="white" stroke-width="1.5" pointer-events="none"/>
  </g>
  <g id="arrowUp" transform="translate(30 24)">
    <use xlink:href="#rim"/>
    <path pointer-events="none" fill="none" stroke="white" stroke-width="1.5" d="M0,-3.0v7 M-2.5,-0.5L0,-3.0L2.5,-0.5"/>
  </g>
  <g id="arrowRight" transform="rotate(90) translate(36 -43)">
    <use xlink:href="#rim"/>
    <path pointer-events="none" fill="none" stroke="white" stroke-width="1.5" d="M0,-3.0v7 M-2.5,-0.5L0,-3.0L2.5,-0.5"/>
  </g>
  <g id="arrowDown" transform="rotate(180) translate(-30 -48)">
    <use xlink:href="#rim"/>
    <path pointer-events="none" fill="none" stroke="white" stroke-width="1.5" d="M0,-3.0v7 M-2.5,-0.5L0,-3.0L2.5,-0.5"/>
  </g>
  <g id="arrowLeft" transform="rotate(270) translate(-36 17)">
    <use xlink:href="#rim"/>
    <path pointer-events="none" fill="none" stroke="white" stroke-width="1.5" d="M0,-3.0v7 M-2.5,-0.5L0,-3.0L2.5,-0.5"/>
  </g>
  <g id="resetDef">
    <use xlink:href="#rim2" fill="#404040"><set attributeName="fill" to="#808080" begin="reset.mouseover" end="reset.mouseout"/></use>
  </g>
</defs>
<script type="application/ecmascript">
var viewWidth = 1038;
var viewHeight = 377;
var sectionId = 'dynsection-3';
</script>
<script type="application/ecmascript" xlink:href="svg.min.js"/>
<svg id="graph" class="graph">
<g id="viewport">
<title>fr.softsf.canscan.ui.QrCodeBufferedImage.generateQrCodeImage</title>
<!-- Node1 -->
<g id="Node000001" class="node">
<title>Node1</title>
<g id="a_Node000001"><a xlink:title="Generates a QR code image with optional logo and custom styling.">
<polygon fill="#999999" stroke="#666666" points="180.25,-191.94 0,-191.94 0,-159.94 180.25,-159.94 180.25,-191.94"/>
<text text-anchor="start" x="8" y="-178.44" font-family="Helvetica,sans-Serif" font-size="10.00">fr.softsf.canscan.ui.QrCode</text>
<text text-anchor="middle" x="90.12" y="-166.44" font-family="Helvetica,sans-Serif" font-size="10.00">BufferedImage.generateQrCodeImage</text>
</a>
</g>
</g>
<!-- Node2 -->
<g id="Node000002" class="node">
<title>Node2</title>
<g id="a_Node000002"><a xlink:href="classfr_1_1softsf_1_1canscan_1_1ui_1_1_qr_code_buffered_image.html#a98136934121352ab51521256225c1e74" target="_top" xlink:title="Creates a QR code matrix for the given text.">
<polygon fill="white" stroke="#666666" points="368,-363.94 231.25,-363.94 231.25,-331.94 368,-331.94 368,-363.94"/>
<text text-anchor="start" x="239.25" y="-350.44" font-family="Helvetica,sans-Serif" font-size="10.00">fr.softsf.canscan.ui.QrCode</text>
<text text-anchor="middle" x="299.62" y="-338.44" font-family="Helvetica,sans-Serif" font-size="10.00">BufferedImage.createMatrix</text>
</a>
</g>
</g>
<!-- Node1&#45;&gt;Node2 -->
<g id="edge1_Node000001_Node000002" class="edge">
<title>Node1&#45;&gt;Node2</title>
<g id="a_edge1_Node000001_Node000002"><a xlink:title=" ">
<path fill="none" stroke="#63b8ff" d="M100.58,-192.3C118.96,-222.62 162.43,-287.67 216.25,-322.94 218.13,-324.17 220.06,-325.34 222.05,-326.46"/>
<polygon fill="#63b8ff" stroke="#63b8ff" points="220.47,-329.58 230.98,-330.91 223.59,-323.31 220.47,-329.58"/>
</a>
</g>
</g>
<!-- Node3 -->
<g id="Node000003" class="node">
<title>Node3</title>
<g id="a_Node000003"><a xlink:href="classfr_1_1softsf_1_1canscan_1_1ui_1_1_qr_code_buffered_image.html#a33d289417f231479f6c1b5554737401c" target="_top" xlink:title="Renders the three QR code finder patterns at the corners using the specified style.">
<polygon fill="white" stroke="#666666" points="383,-313.94 216.25,-313.94 216.25,-281.94 383,-281.94 383,-313.94"/>
<text text-anchor="start" x="224.25" y="-300.44" font-family="Helvetica,sans-Serif" font-size="10.00">fr.softsf.canscan.ui.QrCode</text>
<text text-anchor="middle" x="299.62" y="-288.44" font-family="Helvetica,sans-Serif" font-size="10.00">BufferedImage.drawFinderPatterns</text>
</a>
</g>
</g>
<!-- Node1&#45;&gt;Node3 -->
<g id="edge2_Node000001_Node000003" class="edge">
<title>Node1&#45;&gt;Node3</title>
<g id="a_edge2_Node000001_Node000003"><a xlink:title=" ">
<path fill="none" stroke="#63b8ff" d="M107.94,-192.3C130.74,-213.64 173.52,-250.86 216.25,-272.94 219.11,-274.42 222.08,-275.83 225.11,-277.17"/>
<polygon fill="#63b8ff" stroke="#63b8ff" points="223.62,-280.34 234.2,-280.88 226.26,-273.86 223.62,-280.34"/>
</a>
</g>
</g>
<!-- Node6 -->
<g id="Node000006" class="node">
<title>Node6</title>
<g id="a_Node000006"><a xlink:href="classfr_1_1softsf_1_1canscan_1_1ui_1_1_qr_code_buffered_image.html#a7b57fa714bbbc6001476ed03fb148fdc" target="_top" xlink:title="Draws the logo at the center of the QR code if a valid logo file is provided.">
<polygon fill="white" stroke="#666666" points="381.5,-263.94 217.75,-263.94 217.75,-231.94 381.5,-231.94 381.5,-263.94"/>
<text text-anchor="start" x="225.75" y="-250.44" font-family="Helvetica,sans-Serif" font-size="10.00">fr.softsf.canscan.ui.QrCode</text>
<text text-anchor="middle" x="299.62" y="-238.44" font-family="Helvetica,sans-Serif" font-size="10.00">BufferedImage.drawLogoIfPresent</text>
</a>
</g>
</g>
<!-- Node1&#45;&gt;Node6 -->
<g id="edge5_Node000001_Node000006" class="edge">
<title>Node1&#45;&gt;Node6</title>
<g id="a_edge5_Node000001_Node000006"><a xlink:title=" ">
<path fill="none" stroke="#63b8ff" d="M132.88,-192.4C157.08,-201.74 188.23,-213.44 216.25,-222.94 221.29,-224.65 226.53,-226.37 231.8,-228.06"/>
<polygon fill="#63b8ff" stroke="#63b8ff" points="230.6,-231.35 241.19,-231.03 232.71,-224.68 230.6,-231.35"/>
</a>
</g>
</g>
<!-- Node7 -->
<g id="Node000007" class="node">
<title>Node7</title>
<g id="a_Node000007"><a xlink:href="classfr_1_1softsf_1_1canscan_1_1ui_1_1_qr_code_buffered_image.html#a49b886b33f2f5405f38207544a06a5f8" target="_top" xlink:title="Renders all QR code modules onto the provided graphics context.">
<polygon fill="white" stroke="#666666" points="369.5,-213.94 229.75,-213.94 229.75,-181.94 369.5,-181.94 369.5,-213.94"/>
<text text-anchor="start" x="237.75" y="-200.44" font-family="Helvetica,sans-Serif" font-size="10.00">fr.softsf.canscan.ui.QrCode</text>
<text text-anchor="middle" x="299.62" y="-188.44" font-family="Helvetica,sans-Serif" font-size="10.00">BufferedImage.drawModules</text>
</a>
</g>
</g>
<!-- Node1&#45;&gt;Node7 -->
<g id="edge6_Node000001_Node000007" class="edge">
<title>Node1&#45;&gt;Node7</title>
<g id="a_edge6_Node000001_Node000007"><a xlink:title=" ">
<path fill="none" stroke="#63b8ff" d="M180.63,-185.43C193.14,-186.76 205.94,-188.12 218.27,-189.42"/>
<polygon fill="#63b8ff" stroke="#63b8ff" points="217.62,-192.87 227.93,-190.45 218.36,-185.91 217.62,-192.87"/>
</a>
</g>
</g>
<!-- Node14 -->
<g id="Node000014" class="node">
<title>Node14</title>
<g id="a_Node000014"><a xlink:href="classfr_1_1softsf_1_1canscan_1_1ui_1_1_qr_code_buffered_image.html#a9a9498240266cd1874ce471cdd24368f" target="_top" xlink:title="Estimates the memory required to create a BufferedImage.">
<polygon fill="white" stroke="#666666" points="615.75,-121.94 419,-121.94 419,-89.94 615.75,-89.94 615.75,-121.94"/>
<text text-anchor="start" x="427" y="-108.44" font-family="Helvetica,sans-Serif" font-size="10.00">fr.softsf.canscan.ui.QrCode</text>
<text text-anchor="middle" x="517.38" y="-96.44" font-family="Helvetica,sans-Serif" font-size="10.00">BufferedImage.estimateImageMemoryMB</text>
</a>
</g>
</g>
<!-- Node1&#45;&gt;Node14 -->
<g id="edge13_Node000001_Node000014" class="edge">
<title>Node1&#45;&gt;Node14</title>
<g id="a_edge13_Node000001_Node000014"><a xlink:title=" ">
<path fill="none" stroke="#63b8ff" d="M180.5,-165.14C238.41,-157.71 315.38,-147.03 383,-134.94 399.65,-131.97 417.38,-128.4 434.3,-124.8"/>
<polygon fill="#63b8ff" stroke="#63b8ff" points="434.76,-128.28 443.8,-122.75 433.28,-121.43 434.76,-128.28"/>
</a>
</g>
</g>
<!-- Node15 -->
<g id="Node000015" class="node">
<title>Node15</title>
<g id="a_Node000015"><a xlink:href="classfr_1_1softsf_1_1canscan_1_1ui_1_1_qr_code_buffered_image.html#abfa8048716b96d926a9348483a69898d" target="_top" xlink:title="Fills the entire QR code area with the specified background color.">
<polygon fill="white" stroke="#666666" points="371.38,-125.94 227.88,-125.94 227.88,-93.94 371.38,-93.94 371.38,-125.94"/>
<text text-anchor="start" x="235.88" y="-112.44" font-family="Helvetica,sans-Serif" font-size="10.00">fr.softsf.canscan.ui.QrCode</text>
<text text-anchor="middle" x="299.62" y="-100.44" font-family="Helvetica,sans-Serif" font-size="10.00">BufferedImage.fillBackground</text>
</a>
</g>
</g>
<!-- Node1&#45;&gt;Node15 -->
<g id="edge14_Node000001_Node000015" class="edge">
<title>Node1&#45;&gt;Node15</title>
<g id="a_edge14_Node000001_Node000015"><a xlink:title=" ">
<path fill="none" stroke="#63b8ff" d="M142.95,-159.46C171.28,-150.45 206.57,-139.22 236.39,-129.74"/>
<polygon fill="#63b8ff" stroke="#63b8ff" points="237.19,-133.16 245.66,-126.79 235.07,-126.49 237.19,-133.16"/>
</a>
</g>
</g>
<!-- Node16 -->
<g id="Node000016" class="node">
<title>Node16</title>
<g id="a_Node000016"><a xlink:href="classfr_1_1softsf_1_1canscan_1_1ui_1_1_qr_code_buffered_image.html#a64887707a74d89b80bc1de3e2a826314" target="_top" xlink:title="Gets the available memory in the JVM with safety margin for image generation.">
<polygon fill="white" stroke="#666666" points="610.12,-49.94 424.62,-49.94 424.62,-17.94 610.12,-17.94 610.12,-49.94"/>
<text text-anchor="start" x="432.62" y="-36.44" font-family="Helvetica,sans-Serif" font-size="10.00">fr.softsf.canscan.ui.QrCode</text>
<text text-anchor="middle" x="517.38" y="-24.44" font-family="Helvetica,sans-Serif" font-size="10.00">BufferedImage.getAvailableMemoryMB</text>
</a>
</g>
</g>
<!-- Node1&#45;&gt;Node16 -->
<g id="edge15_Node000001_Node000016" class="edge">
<title>Node1&#45;&gt;Node16</title>
<g id="a_edge15_Node000001_Node000016"><a xlink:title=" ">
<path fill="none" stroke="#63b8ff" d="M98.27,-159.92C114,-126.89 155.17,-51.9 216.25,-22.94 290.7,12.35 387.58,-0.12 450.85,-14.83"/>
<polygon fill="#63b8ff" stroke="#63b8ff" points="449.85,-18.19 460.39,-17.14 451.5,-11.39 449.85,-18.19"/>
</a>
</g>
</g>
<!-- Node17 -->
<g id="Node000017" class="node">
<title>Node17</title>
<g id="a_Node000017"><a xlink:href="classfr_1_1softsf_1_1canscan_1_1ui_1_1_qr_code_buffered_image.html#a6a52b83afbff300934e8cfe7d454cac1" target="_top" xlink:title="Validates that sufficient memory is available to generate a square image of the given size.">
<polygon fill="white" stroke="#666666" points="382.25,-75.94 217,-75.94 217,-31.94 382.25,-31.94 382.25,-75.94"/>
<text text-anchor="start" x="225" y="-62.44" font-family="Helvetica,sans-Serif" font-size="10.00">fr.softsf.canscan.ui.QrCode</text>
<text text-anchor="start" x="225" y="-50.44" font-family="Helvetica,sans-Serif" font-size="10.00">BufferedImage.validateMemoryFor</text>
<text text-anchor="middle" x="299.62" y="-38.44" font-family="Helvetica,sans-Serif" font-size="10.00">ImageSize</text>
</a>
</g>
</g>
<!-- Node1&#45;&gt;Node17 -->
<g id="edge16_Node000001_Node000017" class="edge">
<title>Node1&#45;&gt;Node17</title>
<g id="a_edge16_Node000001_Node000017"><a xlink:title=" ">
<path fill="none" stroke="#63b8ff" d="M109.98,-159.72C133.57,-140.02 175.82,-106.74 216.25,-84.94 218.72,-83.61 221.26,-82.31 223.85,-81.04"/>
<polygon fill="#63b8ff" stroke="#63b8ff" points="225.04,-84.35 232.64,-76.97 222.1,-78 225.04,-84.35"/>
</a>
</g>
</g>
<!-- Node4 -->
<g id="Node000004" class="node">
<title>Node4</title>
<g id="a_Node000004"><a xlink:href="classfr_1_1softsf_1_1canscan_1_1ui_1_1_qr_code_buffered_image.html#ae787416583ad529236a223551032e887" target="_top" xlink:title="Draws a QR code finder pattern with rounded corners at the specified pixel coordinates.">
<polygon fill="white" stroke="#666666" points="601.88,-368.94 432.88,-368.94 432.88,-324.94 601.88,-324.94 601.88,-368.94"/>
<text text-anchor="start" x="440.88" y="-355.44" font-family="Helvetica,sans-Serif" font-size="10.00">fr.softsf.canscan.ui.QrCode</text>
<text text-anchor="start" x="440.88" y="-343.44" font-family="Helvetica,sans-Serif" font-size="10.00">BufferedImage.drawRoundedFinder</text>
<text text-anchor="middle" x="517.38" y="-331.44" font-family="Helvetica,sans-Serif" font-size="10.00">PatternAtPixel</text>
</a>
</g>
</g>
<!-- Node3&#45;&gt;Node4 -->
<g id="edge3_Node000003_Node000004" class="edge">
<title>Node3&#45;&gt;Node4</title>
<g id="a_edge3_Node000003_Node000004"><a xlink:title=" ">
<path fill="none" stroke="#63b8ff" d="M373.07,-314.4C388.58,-317.92 405.2,-321.69 421.42,-325.38"/>
<polygon fill="#63b8ff" stroke="#63b8ff" points="420.57,-328.77 431.09,-327.57 422.12,-321.95 420.57,-328.77"/>
</a>
</g>
</g>
<!-- Node5 -->
<g id="Node000005" class="node">
<title>Node5</title>
<g id="a_Node000005"><a xlink:href="classfr_1_1softsf_1_1canscan_1_1ui_1_1_qr_code_buffered_image.html#ad408b9a718a53adbf8891606715a7bba" target="_top" xlink:title="Draws a standard square QR code finder pattern at the specified pixel coordinates.">
<polygon fill="white" stroke="#666666" points="613.5,-306.94 421.25,-306.94 421.25,-262.94 613.5,-262.94 613.5,-306.94"/>
<text text-anchor="start" x="429.25" y="-293.44" font-family="Helvetica,sans-Serif" font-size="10.00">fr.softsf.canscan.ui.QrCode</text>
<text text-anchor="start" x="429.25" y="-281.44" font-family="Helvetica,sans-Serif" font-size="10.00">BufferedImage.drawSquareFinderPattern</text>
<text text-anchor="middle" x="517.38" y="-269.44" font-family="Helvetica,sans-Serif" font-size="10.00">AtPixel</text>
</a>
</g>
</g>
<!-- Node3&#45;&gt;Node5 -->
<g id="edge4_Node000003_Node000005" class="edge">
<title>Node3&#45;&gt;Node5</title>
<g id="a_edge4_Node000003_Node000005"><a xlink:title=" ">
<path fill="none" stroke="#63b8ff" d="M383.42,-292.95C391.93,-292.44 400.66,-291.91 409.39,-291.39"/>
<polygon fill="#63b8ff" stroke="#63b8ff" points="409.55,-294.89 419.32,-290.79 409.13,-287.9 409.55,-294.89"/>
</a>
</g>
</g>
<!-- Node8 -->
<g id="Node000008" class="node">
<title>Node8</title>
<g id="a_Node000008"><a xlink:href="classfr_1_1softsf_1_1canscan_1_1ui_1_1_qr_code_buffered_image.html#a7515cc2fe4bc454921afb18d2f6cf5ee" target="_top" xlink:title="Draws a single QR code module at the specified coordinates with configured size and shape.">
<polygon fill="white" stroke="#666666" points="585.75,-232.94 449,-232.94 449,-200.94 585.75,-200.94 585.75,-232.94"/>
<text text-anchor="start" x="457" y="-219.44" font-family="Helvetica,sans-Serif" font-size="10.00">fr.softsf.canscan.ui.QrCode</text>
<text text-anchor="middle" x="517.38" y="-207.44" font-family="Helvetica,sans-Serif" font-size="10.00">BufferedImage.drawModule</text>
</a>
</g>
</g>
<!-- Node7&#45;&gt;Node8 -->
<g id="edge7_Node000007_Node000008" class="edge">
<title>Node7&#45;&gt;Node8</title>
<g id="a_edge7_Node000007_Node000008"><a xlink:title=" ">
<path fill="none" stroke="#63b8ff" d="M369.78,-204.03C391.3,-205.93 415.18,-208.03 437.32,-209.98"/>
<polygon fill="#63b8ff" stroke="#63b8ff" points="436.94,-213.46 447.21,-210.85 437.55,-206.49 436.94,-213.46"/>
</a>
</g>
</g>
<!-- Node9 -->
<g id="Node000009" class="node">
<title>Node9</title>
<g id="a_Node000009"><a xlink:href="classfr_1_1softsf_1_1canscan_1_1ui_1_1_qr_code_buffered_image.html#a1e86fe28f725b960843bc242bb77f286" target="_top" xlink:title="Determines whether a QR code module should be skipped during rendering.">
<polygon fill="white" stroke="#666666" points="598.12,-182.94 436.62,-182.94 436.62,-150.94 598.12,-150.94 598.12,-182.94"/>
<text text-anchor="start" x="444.62" y="-169.44" font-family="Helvetica,sans-Serif" font-size="10.00">fr.softsf.canscan.ui.QrCode</text>
<text text-anchor="middle" x="517.38" y="-157.44" font-family="Helvetica,sans-Serif" font-size="10.00">BufferedImage.shouldSkipModule</text>
</a>
</g>
</g>
<!-- Node7&#45;&gt;Node9 -->
<g id="edge8_Node000007_Node000009" class="edge">
<title>Node7&#45;&gt;Node9</title>
<g id="a_edge8_Node000007_Node000009"><a xlink:title=" ">
<path fill="none" stroke="#63b8ff" d="M369.78,-188.01C387.42,-185.47 406.65,-182.71 425.21,-180.04"/>
<polygon fill="#63b8ff" stroke="#63b8ff" points="425.44,-183.54 434.84,-178.66 424.45,-176.62 425.44,-183.54"/>
</a>
</g>
</g>
<!-- Node10 -->
<g id="Node000010" class="node">
<title>Node10</title>
<g id="a_Node000010"><a xlink:href="classfr_1_1softsf_1_1canscan_1_1ui_1_1_qr_code_buffered_image.html#a4bc72b6a6cf4ca35f82d4cd2899c7818" target="_top" xlink:title="Determines whether the given coordinates fall within any of the three QR code position patterns.">
<polygon fill="white" stroke="#666666" points="816.25,-182.94 651.75,-182.94 651.75,-150.94 816.25,-150.94 816.25,-182.94"/>
<text text-anchor="start" x="659.75" y="-169.44" font-family="Helvetica,sans-Serif" font-size="10.00">fr.softsf.canscan.ui.QrCode</text>
<text text-anchor="middle" x="734" y="-157.44" font-family="Helvetica,sans-Serif" font-size="10.00">BufferedImage.isInPositionPattern</text>
</a>
</g>
</g>
<!-- Node9&#45;&gt;Node10 -->
<g id="edge9_Node000009_Node000010" class="edge">
<title>Node9&#45;&gt;Node10</title>
<g id="a_edge9_Node000009_Node000010"><a xlink:title=" ">
<path fill="none" stroke="#63b8ff" d="M598.6,-166.94C612.09,-166.94 626.19,-166.94 639.96,-166.94"/>
<polygon fill="#63b8ff" stroke="#63b8ff" points="639.93,-170.44 649.93,-166.94 639.93,-163.44 639.93,-170.44"/>
</a>
</g>
</g>
<!-- Node11 -->
<g id="Node000011" class="node">
<title>Node11</title>
<g id="a_Node000011"><a xlink:href="classfr_1_1softsf_1_1canscan_1_1ui_1_1_qr_code_buffered_image.html#acdbacde2b4cabcb6003fbf7ac3699852" target="_top" xlink:title="Checks if coordinates are within the bottom&#45;left position pattern.">
<polygon fill="white" stroke="#666666" points="1029.5,-232.94 852.25,-232.94 852.25,-200.94 1029.5,-200.94 1029.5,-232.94"/>
<text text-anchor="start" x="860.25" y="-219.44" font-family="Helvetica,sans-Serif" font-size="10.00">fr.softsf.canscan.ui.QrCode</text>
<text text-anchor="middle" x="940.88" y="-207.44" font-family="Helvetica,sans-Serif" font-size="10.00">BufferedImage.isInBottomLeftPattern</text>
</a>
</g>
</g>
<!-- Node10&#45;&gt;Node11 -->
<g id="edge10_Node000010_Node000011" class="edge">
<title>Node10&#45;&gt;Node11</title>
<g id="a_edge10_Node000010_Node000011"><a xlink:title=" ">
<path fill="none" stroke="#63b8ff" d="M802.37,-183.38C821.27,-188 841.99,-193.05 861.47,-197.81"/>
<polygon fill="#63b8ff" stroke="#63b8ff" points="860.45,-201.16 871,-200.13 862.11,-194.36 860.45,-201.16"/>
</a>
</g>
</g>
<!-- Node12 -->
<g id="Node000012" class="node">
<title>Node12</title>
<g id="a_Node000012"><a xlink:href="classfr_1_1softsf_1_1canscan_1_1ui_1_1_qr_code_buffered_image.html#a3951aad146f1247d0b23eae74de9e5dd" target="_top" xlink:title="Checks if coordinates are within the top&#45;left position pattern.">
<polygon fill="white" stroke="#666666" points="1021.62,-182.94 860.12,-182.94 860.12,-150.94 1021.62,-150.94 1021.62,-182.94"/>
<text text-anchor="start" x="868.12" y="-169.44" font-family="Helvetica,sans-Serif" font-size="10.00">fr.softsf.canscan.ui.QrCode</text>
<text text-anchor="middle" x="940.88" y="-157.44" font-family="Helvetica,sans-Serif" font-size="10.00">BufferedImage.isInTopLeftPattern</text>
</a>
</g>
</g>
<!-- Node10&#45;&gt;Node12 -->
<g id="edge11_Node000010_Node000012" class="edge">
<title>Node10&#45;&gt;Node12</title>
<g id="a_edge11_Node000010_Node000012"><a xlink:title=" ">
<path fill="none" stroke="#63b8ff" d="M816.56,-166.94C827.05,-166.94 837.84,-166.94 848.48,-166.94"/>
<polygon fill="#63b8ff" stroke="#63b8ff" points="848.42,-170.44 858.42,-166.94 848.42,-163.44 848.42,-170.44"/>
</a>
</g>
</g>
<!-- Node13 -->
<g id="Node000013" class="node">
<title>Node13</title>
<g id="a_Node000013"><a xlink:href="classfr_1_1softsf_1_1canscan_1_1ui_1_1_qr_code_buffered_image.html#ad31e256d4159e4a6a791b995c9629863" target="_top" xlink:title="Checks if coordinates are within the top&#45;right position pattern.">
<polygon fill="white" stroke="#666666" points="1025,-132.94 856.75,-132.94 856.75,-100.94 1025,-100.94 1025,-132.94"/>
<text text-anchor="start" x="864.75" y="-119.44" font-family="Helvetica,sans-Serif" font-size="10.00">fr.softsf.canscan.ui.QrCode</text>
<text text-anchor="middle" x="940.88" y="-107.44" font-family="Helvetica,sans-Serif" font-size="10.00">BufferedImage.isInTopRightPattern</text>
</a>
</g>
</g>
<!-- Node10&#45;&gt;Node13 -->
<g id="edge12_Node000010_Node000013" class="edge">
<title>Node10&#45;&gt;Node13</title>
<g id="a_edge12_Node000010_Node000013"><a xlink:title=" ">
<path fill="none" stroke="#63b8ff" d="M802.37,-150.5C821.27,-145.89 841.99,-140.83 861.47,-136.08"/>
<polygon fill="#63b8ff" stroke="#63b8ff" points="862.11,-139.52 871,-133.75 860.45,-132.72 862.11,-139.52"/>
</a>
</g>
</g>
<!-- Node17&#45;&gt;Node14 -->
<g id="edge17_Node000017_Node000014" class="edge">
<title>Node17&#45;&gt;Node14</title>
<g id="a_edge17_Node000017_Node000014"><a xlink:title=" ">
<path fill="none" stroke="#63b8ff" d="M382.5,-73.68C400.47,-78.01 419.46,-82.58 437.31,-86.89"/>
<polygon fill="#63b8ff" stroke="#63b8ff" points="436.25,-90.23 446.79,-89.17 437.89,-83.42 436.25,-90.23"/>
</a>
</g>
</g>
<!-- Node17&#45;&gt;Node16 -->
<g id="edge18_Node000017_Node000016" class="edge">
<title>Node17&#45;&gt;Node16</title>
<g id="a_edge18_Node000017_Node000016"><a xlink:title=" ">
<path fill="none" stroke="#63b8ff" d="M382.5,-46.35C392.57,-45.42 402.95,-44.46 413.28,-43.5"/>
<polygon fill="#63b8ff" stroke="#63b8ff" points="413.31,-47.01 422.95,-42.6 412.67,-40.04 413.31,-47.01"/>
</a>
</g>
</g>
</g>
</svg>

<g id="navigator" transform="translate(0 0)" fill="#404254">
  <rect fill="#f2f5e9" fill-opacity="0.5" stroke="#606060" stroke-width=".5" x="0" y="0" width="60" height="60"/>
  <use id="zoomplus" xlink:href="#zoomPlus" x="17" y="9" onmousedown="handleZoom(evt,'in')"/>
  <use id="zoomminus" xlink:href="#zoomMin" x="42" y="9" onmousedown="handleZoom(evt,'out')"/>
  <use id="reset" xlink:href="#resetDef" x="30" y="36" onmousedown="handleReset()"/>
   <use id="arrowup" xlink:href="#arrowUp" x="0" y="0" onmousedown="handlePan(0,-1)"/>
  <use id="arrowright" xlink:href="#arrowRight" x="0" y="0" onmousedown="handlePan(1,0)"/>
  <use id="arrowdown" xlink:href="#arrowDown" x="0" y="0" onmousedown="handlePan(0,1)"/>
  <use id="arrowleft" xlink:href="#arrowLeft" x="0" y="0" onmousedown="handlePan(-1,0)"/>
</g>
<svg viewBox="0 0 15 15" width="100%" height="30px" preserveAspectRatio="xMaxYMin meet">
 <g id="arrow_out" transform="scale(0.3 0.3)">
  <a xlink:href="classfr_1_1softsf_1_1canscan_1_1ui_1_1_qr_code_buffered_image_adf946250e00ee2415c34aedf0e2c4e9b_cgraph_org.svg" target="_base">
   <rect id="button" ry="5" rx="5" y="6" x="6" height="38" width="38"
        fill="#f2f5e9" fill-opacity="0.5" stroke="#606060" stroke-width="1.0"/>
   <path id="arrow"
     d="M 11.500037,31.436501 C 11.940474,20.09759 22.043105,11.32322 32.158766,21.979434 L 37.068811,17.246167 C 37.068811,17.246167 37.088388,32 37.088388,32 L 22.160133,31.978069 C 22.160133,31.978069 26.997745,27.140456 26.997745,27.140456 C 18.528582,18.264221 13.291696,25.230495 11.500037,31.436501 z"
     style="fill:#404040;"/>
  </a>
 </g>
</svg>

<style type='text/css'>
<![CDATA[
[data-mouse-over-selected='false'] { opacity: 0.7; }
[data-mouse-over-selected='true']  { opacity: 1.0; }
]]>
</style>
<script type="application/ecmascript"><![CDATA[
document.addEventListener('DOMContentLoaded', (event) => {
  highlightEdges();
  highlightAdjacentNodes();
});
]]></script>
</svg>
