<?xml version="1.0" encoding="UTF-8" standalone="no"?>
<!DOCTYPE svg PUBLIC "-//W3C//DTD SVG 1.1//EN"
 "http://www.w3.org/Graphics/SVG/1.1/DTD/svg11.dtd">
<!-- Generated by graphviz version 12.2.1 (20241206.2353)
 -->
<!-- Title: fr.softsf.canscan.NativeImageConfigSimulator.main Pages: 1 -->
<svg width="1040pt" height="356pt"
 viewBox="0.00 0.00 1039.75 356.00" xmlns="http://www.w3.org/2000/svg" xmlns:xlink="http://www.w3.org/1999/xlink">
<g id="graph0" class="graph" transform="scale(1 1) rotate(0) translate(4 352)">
<title>fr.softsf.canscan.NativeImageConfigSimulator.main</title>
<!-- Node1 -->
<g id="Node000001" class="node">
<title>Node1</title>
<g id="a_Node000001"><a xlink:title="Launches the Native Image configuration UI and runs the end&#45;to&#45;end simulation in a background thread.">
<polygon fill="#999999" stroke="#666666" points="136.75,-199 0,-199 0,-167 136.75,-167 136.75,-199"/>
<text text-anchor="start" x="8" y="-185.5" font-family="Helvetica,sans-Serif" font-size="10.00">fr.softsf.canscan.Native</text>
<text text-anchor="middle" x="68.38" y="-173.5" font-family="Helvetica,sans-Serif" font-size="10.00">ImageConfigSimulator.main</text>
</a>
</g>
</g>
<!-- Node2 -->
<g id="Node000002" class="node">
<title>Node2</title>
<g id="a_Node000002"><a xlink:href="classfr_1_1softsf_1_1canscan_1_1_native_image_config_simulator.html#a2a0b386576bdaa60bf8af058bc26310d" target="_top" xlink:title="Runs the full end&#45;to&#45;end UI simulation for Native Image configuration using a Robot.">
<polygon fill="white" stroke="#666666" points="366.5,-199 172.75,-199 172.75,-167 366.5,-167 366.5,-199"/>
<text text-anchor="start" x="180.75" y="-185.5" font-family="Helvetica,sans-Serif" font-size="10.00">fr.softsf.canscan.Native</text>
<text text-anchor="middle" x="269.62" y="-173.5" font-family="Helvetica,sans-Serif" font-size="10.00">ImageConfigSimulator.runE2ESimulation</text>
</a>
</g>
</g>
<!-- Node1&#45;&gt;Node2 -->
<g id="edge1_Node000001_Node000002" class="edge">
<title>Node1&#45;&gt;Node2</title>
<g id="a_edge1_Node000001_Node000002"><a xlink:title=" ">
<path fill="none" stroke="#63b8ff" d="M137.11,-183C144.85,-183 152.89,-183 160.99,-183"/>
<polygon fill="#63b8ff" stroke="#63b8ff" points="160.96,-186.5 170.96,-183 160.96,-179.5 160.96,-186.5"/>
</a>
</g>
</g>
<!-- Node3 -->
<g id="Node000003" class="node">
<title>Node3</title>
<g id="a_Node000003"><a xlink:href="classfr_1_1softsf_1_1canscan_1_1_native_image_config_simulator.html#acbf2b92c5c36da7ad4329966d92f1a1b" target="_top" xlink:title="Simulates clicking a browse button to open a JFileChooser, performs a right&#45;click inside it,...">
<polygon fill="white" stroke="#666666" points="593.25,-298 413.75,-298 413.75,-254 593.25,-254 593.25,-298"/>
<text text-anchor="start" x="421.75" y="-284.5" font-family="Helvetica,sans-Serif" font-size="10.00">fr.softsf.canscan.Native</text>
<text text-anchor="start" x="421.75" y="-272.5" font-family="Helvetica,sans-Serif" font-size="10.00">ImageConfigSimulator.browseFolders</text>
<text text-anchor="middle" x="503.5" y="-260.5" font-family="Helvetica,sans-Serif" font-size="10.00">Simulation</text>
</a>
</g>
</g>
<!-- Node2&#45;&gt;Node3 -->
<g id="edge2_Node000002_Node000003" class="edge">
<title>Node2&#45;&gt;Node3</title>
<g id="a_edge2_Node000002_Node000003"><a xlink:title=" ">
<path fill="none" stroke="#63b8ff" d="M302.33,-199.43C328.71,-212.73 367.47,-231.41 402.5,-245 406.79,-246.66 411.21,-248.3 415.69,-249.9"/>
<polygon fill="#63b8ff" stroke="#63b8ff" points="414.2,-253.09 424.79,-253.07 416.5,-246.48 414.2,-253.09"/>
</a>
</g>
</g>
<!-- Node5 -->
<g id="Node000005" class="node">
<title>Node5</title>
<g id="a_Node000005"><a xlink:href="classfr_1_1softsf_1_1canscan_1_1_native_image_config_simulator.html#a3ce8b70d660baabe5ed741e64dfd0af3" target="_top" xlink:title="Simulates selecting a color via JColorChooser, confirms the dialog with Enter, and verifies the selec...">
<polygon fill="white" stroke="#666666" points="604.5,-348 402.5,-348 402.5,-316 604.5,-316 604.5,-348"/>
<text text-anchor="start" x="410.5" y="-334.5" font-family="Helvetica,sans-Serif" font-size="10.00">fr.softsf.canscan.Native</text>
<text text-anchor="middle" x="503.5" y="-322.5" font-family="Helvetica,sans-Serif" font-size="10.00">ImageConfigSimulator.chooseModuleColor</text>
</a>
</g>
</g>
<!-- Node2&#45;&gt;Node5 -->
<g id="edge4_Node000002_Node000005" class="edge">
<title>Node2&#45;&gt;Node5</title>
<g id="a_edge4_Node000002_Node000005"><a xlink:title=" ">
<path fill="none" stroke="#63b8ff" d="M283.31,-199.46C304.83,-226.22 351.2,-278.99 402.5,-307 405.2,-308.48 408,-309.87 410.85,-311.18"/>
<polygon fill="#63b8ff" stroke="#63b8ff" points="409.47,-314.39 420.04,-315 412.15,-307.93 409.47,-314.39"/>
</a>
</g>
</g>
<!-- Node7 -->
<g id="Node000007" class="node">
<title>Node7</title>
<g id="a_Node000007"><a xlink:href="classfr_1_1softsf_1_1canscan_1_1_native_image_config_simulator.html#ad18c2e9f57e07032b9a48a10e02e61f6" target="_top" xlink:title="Searches for a component of the specified type and name within the given container hierarchy.">
<polygon fill="white" stroke="#666666" points="594.38,-32 412.62,-32 412.62,0 594.38,0 594.38,-32"/>
<text text-anchor="start" x="420.62" y="-18.5" font-family="Helvetica,sans-Serif" font-size="10.00">fr.softsf.canscan.Native</text>
<text text-anchor="middle" x="503.5" y="-6.5" font-family="Helvetica,sans-Serif" font-size="10.00">ImageConfigSimulator.findComponent</text>
</a>
</g>
</g>
<!-- Node2&#45;&gt;Node7 -->
<g id="edge7_Node000002_Node000007" class="edge">
<title>Node2&#45;&gt;Node7</title>
<g id="a_edge7_Node000002_Node000007"><a xlink:title=" ">
<path fill="none" stroke="#63b8ff" d="M284.58,-166.62C307.17,-140.89 354.14,-90.71 402.5,-59 415.47,-50.49 430.4,-43.02 444.71,-36.8"/>
<polygon fill="#63b8ff" stroke="#63b8ff" points="445.71,-40.17 453.58,-33.07 443,-33.72 445.71,-40.17"/>
</a>
</g>
</g>
<!-- Node8 -->
<g id="Node000008" class="node">
<title>Node8</title>
<g id="a_Node000008"><a xlink:href="classfr_1_1softsf_1_1canscan_1_1_native_image_config_simulator.html#a38fd2d97bfc693365a8dc700273ada47" target="_top" xlink:title="Simulates selecting the free data mode and entering an oversized payload into the input field.">
<polygon fill="white" stroke="#666666" points="580.12,-174 426.88,-174 426.88,-130 580.12,-130 580.12,-174"/>
<text text-anchor="start" x="434.88" y="-160.5" font-family="Helvetica,sans-Serif" font-size="10.00">fr.softsf.canscan.Native</text>
<text text-anchor="start" x="434.88" y="-148.5" font-family="Helvetica,sans-Serif" font-size="10.00">ImageConfigSimulator.freeData</text>
<text text-anchor="middle" x="503.5" y="-136.5" font-family="Helvetica,sans-Serif" font-size="10.00">TooBig</text>
</a>
</g>
</g>
<!-- Node2&#45;&gt;Node8 -->
<g id="edge9_Node000002_Node000008" class="edge">
<title>Node2&#45;&gt;Node8</title>
<g id="a_edge9_Node000002_Node000008"><a xlink:title=" ">
<path fill="none" stroke="#63b8ff" d="M366.95,-170.12C382.97,-167.98 399.5,-165.77 415.28,-163.66"/>
<polygon fill="#63b8ff" stroke="#63b8ff" points="415.67,-167.14 425.12,-162.35 414.74,-160.2 415.67,-167.14"/>
</a>
</g>
</g>
<!-- Node11 -->
<g id="Node000011" class="node">
<title>Node11</title>
<g id="a_Node000011"><a xlink:href="classfr_1_1softsf_1_1canscan_1_1_native_image_config_simulator.html#ae2840980d77f2806ab5f1bd471186ed3" target="_top" xlink:title="Simulates typing &quot;Test&quot; into a JTextField and verifies the input using a Robot.">
<polygon fill="white" stroke="#666666" points="587.62,-112 419.38,-112 419.38,-68 587.62,-68 587.62,-112"/>
<text text-anchor="start" x="427.38" y="-98.5" font-family="Helvetica,sans-Serif" font-size="10.00">fr.softsf.canscan.Native</text>
<text text-anchor="start" x="427.38" y="-86.5" font-family="Helvetica,sans-Serif" font-size="10.00">ImageConfigSimulator.nameTyping</text>
<text text-anchor="middle" x="503.5" y="-74.5" font-family="Helvetica,sans-Serif" font-size="10.00">Simulation</text>
</a>
</g>
</g>
<!-- Node2&#45;&gt;Node11 -->
<g id="edge15_Node000002_Node000011" class="edge">
<title>Node2&#45;&gt;Node11</title>
<g id="a_edge15_Node000002_Node000011"><a xlink:title=" ">
<path fill="none" stroke="#63b8ff" d="M302.33,-166.57C328.71,-153.27 367.47,-134.59 402.5,-121 406.79,-119.34 411.21,-117.7 415.69,-116.1"/>
<polygon fill="#63b8ff" stroke="#63b8ff" points="416.5,-119.52 424.79,-112.93 414.2,-112.91 416.5,-119.52"/>
</a>
</g>
</g>
<!-- Node14 -->
<g id="Node000014" class="node">
<title>Node14</title>
<g id="a_Node000014"><a xlink:href="classfr_1_1softsf_1_1canscan_1_1_native_image_config_simulator.html#a9e920788e82b3b113a566174265607af" target="_top" xlink:title="Simulates hovering over a JSlider to verify its tooltip matches the current slider value.">
<polygon fill="white" stroke="#666666" points="583.12,-236 423.88,-236 423.88,-192 583.12,-192 583.12,-236"/>
<text text-anchor="start" x="431.88" y="-222.5" font-family="Helvetica,sans-Serif" font-size="10.00">fr.softsf.canscan.Native</text>
<text text-anchor="start" x="431.88" y="-210.5" font-family="Helvetica,sans-Serif" font-size="10.00">ImageConfigSimulator.ratioSlider</text>
<text text-anchor="middle" x="503.5" y="-198.5" font-family="Helvetica,sans-Serif" font-size="10.00">TooltipSimulation</text>
</a>
</g>
</g>
<!-- Node2&#45;&gt;Node14 -->
<g id="edge19_Node000002_Node000014" class="edge">
<title>Node2&#45;&gt;Node14</title>
<g id="a_edge19_Node000002_Node000014"><a xlink:title=" ">
<path fill="none" stroke="#63b8ff" d="M366.95,-195.88C381.92,-197.88 397.34,-199.94 412.17,-201.92"/>
<polygon fill="#63b8ff" stroke="#63b8ff" points="411.51,-205.37 421.88,-203.22 412.44,-198.43 411.51,-205.37"/>
</a>
</g>
</g>
<!-- Node4 -->
<g id="Node000004" class="node">
<title>Node4</title>
<g id="a_Node000004"><a xlink:href="classfr_1_1softsf_1_1canscan_1_1_native_image_config_simulator.html#aaadd03094f00bbe2258c6e9742be224d" target="_top" xlink:title="Compares two strings and prints the test result with a label.">
<polygon fill="white" stroke="#666666" points="813.25,-230 640.5,-230 640.5,-198 813.25,-198 813.25,-230"/>
<text text-anchor="start" x="648.5" y="-216.5" font-family="Helvetica,sans-Serif" font-size="10.00">fr.softsf.canscan.Native</text>
<text text-anchor="middle" x="726.88" y="-204.5" font-family="Helvetica,sans-Serif" font-size="10.00">ImageConfigSimulator.assertEquals</text>
</a>
</g>
</g>
<!-- Node3&#45;&gt;Node4 -->
<g id="edge3_Node000003_Node000004" class="edge">
<title>Node3&#45;&gt;Node4</title>
<g id="a_edge3_Node000003_Node000004"><a xlink:title=" ">
<path fill="none" stroke="#63b8ff" d="M584.73,-253.53C608.13,-246.98 633.49,-239.87 656.18,-233.52"/>
<polygon fill="#63b8ff" stroke="#63b8ff" points="656.94,-236.94 665.62,-230.87 655.05,-230.2 656.94,-236.94"/>
</a>
</g>
</g>
<!-- Node5&#45;&gt;Node4 -->
<g id="edge5_Node000005_Node000004" class="edge">
<title>Node5&#45;&gt;Node4</title>
<g id="a_edge5_Node000005_Node000004"><a xlink:title=" ">
<path fill="none" stroke="#63b8ff" d="M583.38,-315.55C590.66,-313.06 597.81,-310.23 604.5,-307 609.6,-304.54 661.89,-263.99 696.15,-237.26"/>
<polygon fill="#63b8ff" stroke="#63b8ff" points="697.94,-240.3 703.67,-231.39 693.63,-234.78 697.94,-240.3"/>
</a>
</g>
</g>
<!-- Node6 -->
<g id="Node000006" class="node">
<title>Node6</title>
<g id="a_Node000006"><a xlink:href="classfr_1_1softsf_1_1canscan_1_1_native_image_config_simulator.html#ab4d4463dc9177237a8de0a7b6713e7cf" target="_top" xlink:title="Simulates pressing the Enter key using the provided Robot, followed by a short delay.">
<polygon fill="white" stroke="#666666" points="1022,-258 859,-258 859,-226 1022,-226 1022,-258"/>
<text text-anchor="start" x="867" y="-244.5" font-family="Helvetica,sans-Serif" font-size="10.00">fr.softsf.canscan.Native</text>
<text text-anchor="middle" x="940.5" y="-232.5" font-family="Helvetica,sans-Serif" font-size="10.00">ImageConfigSimulator.pressEnter</text>
</a>
</g>
</g>
<!-- Node5&#45;&gt;Node6 -->
<g id="edge6_Node000005_Node000006" class="edge">
<title>Node5&#45;&gt;Node6</title>
<g id="a_edge6_Node000005_Node000006"><a xlink:title=" ">
<path fill="none" stroke="#63b8ff" d="M584.03,-315.54C658.84,-300.07 770.75,-276.91 848.95,-260.73"/>
<polygon fill="#63b8ff" stroke="#63b8ff" points="849.19,-264.26 858.28,-258.81 847.77,-257.4 849.19,-264.26"/>
</a>
</g>
</g>
<!-- Node7&#45;&gt;Node7 -->
<g id="edge8_Node000007_Node000007" class="edge">
<title>Node7&#45;&gt;Node7</title>
<g id="a_edge8_Node000007_Node000007"><a xlink:title=" ">
<path fill="none" stroke="#63b8ff" d="M463.62,-32.44C456.18,-41.58 469.47,-50 503.5,-50 522.38,-50 534.87,-47.41 540.99,-43.54"/>
<polygon fill="#63b8ff" stroke="#63b8ff" points="544.38,-44.44 543.06,-33.92 537.53,-42.96 544.38,-44.44"/>
</a>
</g>
</g>
<!-- Node8&#45;&gt;Node4 -->
<g id="edge10_Node000008_Node000004" class="edge">
<title>Node8&#45;&gt;Node4</title>
<g id="a_edge10_Node000008_Node000004"><a xlink:title=" ">
<path fill="none" stroke="#63b8ff" d="M580.37,-173.25C605.01,-180.15 632.21,-187.77 656.36,-194.53"/>
<polygon fill="#63b8ff" stroke="#63b8ff" points="655.2,-197.84 665.77,-197.17 657.08,-191.1 655.2,-197.84"/>
</a>
</g>
</g>
<!-- Node9 -->
<g id="Node000009" class="node">
<title>Node9</title>
<g id="a_Node000009"><a xlink:href="classfr_1_1softsf_1_1canscan_1_1_native_image_config_simulator.html#a4795cbc2d8717311fd26b8589a618616" target="_top" xlink:title="Confirms and closes a visible JOptionPane by pressing Enter, then returns the dialog title.">
<polygon fill="white" stroke="#666666" points="803.5,-177 650.25,-177 650.25,-133 803.5,-133 803.5,-177"/>
<text text-anchor="start" x="658.25" y="-163.5" font-family="Helvetica,sans-Serif" font-size="10.00">fr.softsf.canscan.Native</text>
<text text-anchor="start" x="658.25" y="-151.5" font-family="Helvetica,sans-Serif" font-size="10.00">ImageConfigSimulator.intercept</text>
<text text-anchor="middle" x="726.88" y="-139.5" font-family="Helvetica,sans-Serif" font-size="10.00">AndValideDialog</text>
</a>
</g>
</g>
<!-- Node8&#45;&gt;Node9 -->
<g id="edge11_Node000008_Node000009" class="edge">
<title>Node8&#45;&gt;Node9</title>
<g id="a_edge11_Node000008_Node000009"><a xlink:title=" ">
<path fill="none" stroke="#63b8ff" d="M580.37,-153.03C599.12,-153.28 619.35,-153.56 638.59,-153.82"/>
<polygon fill="#63b8ff" stroke="#63b8ff" points="638.54,-157.32 648.59,-153.95 638.63,-150.32 638.54,-157.32"/>
</a>
</g>
</g>
<!-- Node9&#45;&gt;Node6 -->
<g id="edge14_Node000009_Node000006" class="edge">
<title>Node9&#45;&gt;Node6</title>
<g id="a_edge14_Node000009_Node000006"><a xlink:title=" ">
<path fill="none" stroke="#63b8ff" d="M784.42,-177.35C794.05,-181.2 803.95,-185.2 813.25,-189 838.82,-199.46 867.19,-211.34 890.55,-221.2"/>
<polygon fill="#63b8ff" stroke="#63b8ff" points="888.93,-224.32 899.5,-224.99 891.66,-217.87 888.93,-224.32"/>
</a>
</g>
</g>
<!-- Node10 -->
<g id="Node000010" class="node">
<title>Node10</title>
<g id="a_Node000010"><a xlink:href="classfr_1_1softsf_1_1canscan_1_1_native_image_config_simulator.html#ac80dbcb1d031bb72c93cf21315c09f27" target="_top" xlink:title="Recursively searches the given container and its descendants for a JOptionPane instance.">
<polygon fill="white" stroke="#666666" points="1031.75,-171 849.25,-171 849.25,-139 1031.75,-139 1031.75,-171"/>
<text text-anchor="start" x="857.25" y="-157.5" font-family="Helvetica,sans-Serif" font-size="10.00">fr.softsf.canscan.Native</text>
<text text-anchor="middle" x="940.5" y="-145.5" font-family="Helvetica,sans-Serif" font-size="10.00">ImageConfigSimulator.findOptionPane</text>
</a>
</g>
</g>
<!-- Node9&#45;&gt;Node10 -->
<g id="edge12_Node000009_Node000010" class="edge">
<title>Node9&#45;&gt;Node10</title>
<g id="a_edge12_Node000009_Node000010"><a xlink:title=" ">
<path fill="none" stroke="#63b8ff" d="M803.98,-155C814.91,-155 826.3,-155 837.63,-155"/>
<polygon fill="#63b8ff" stroke="#63b8ff" points="837.41,-158.5 847.41,-155 837.41,-151.5 837.41,-158.5"/>
</a>
</g>
</g>
<!-- Node10&#45;&gt;Node10 -->
<g id="edge13_Node000010_Node000010" class="edge">
<title>Node10&#45;&gt;Node10</title>
<g id="a_edge13_Node000010_Node000010"><a xlink:title=" ">
<path fill="none" stroke="#63b8ff" d="M902.36,-171.44C895.24,-180.58 907.96,-189 940.5,-189 958.55,-189 970.5,-186.41 976.35,-182.54"/>
<polygon fill="#63b8ff" stroke="#63b8ff" points="979.74,-183.43 978.33,-172.93 972.89,-182.01 979.74,-183.43"/>
</a>
</g>
</g>
<!-- Node11&#45;&gt;Node4 -->
<g id="edge16_Node000011_Node000004" class="edge">
<title>Node11&#45;&gt;Node4</title>
<g id="a_edge16_Node000011_Node000004"><a xlink:title=" ">
<path fill="none" stroke="#63b8ff" d="M587.88,-110.19C593.8,-113.29 599.42,-116.87 604.5,-121 630.12,-141.84 615.05,-164.95 640.5,-186 643.18,-188.21 646.04,-190.26 649.03,-192.14"/>
<polygon fill="#63b8ff" stroke="#63b8ff" points="647.17,-195.11 657.62,-196.89 650.56,-188.99 647.17,-195.11"/>
</a>
</g>
</g>
<!-- Node12 -->
<g id="Node000012" class="node">
<title>Node12</title>
<g id="a_Node000012"><a xlink:href="classfr_1_1softsf_1_1canscan_1_1_native_image_config_simulator.html#acc5424a9d2c1d44c93a045868f58a5ff" target="_top" xlink:title="Simulates typing a full string using the Robot class.">
<polygon fill="white" stroke="#666666" points="806.88,-106 646.88,-106 646.88,-74 806.88,-74 806.88,-106"/>
<text text-anchor="start" x="654.88" y="-92.5" font-family="Helvetica,sans-Serif" font-size="10.00">fr.softsf.canscan.Native</text>
<text text-anchor="middle" x="726.88" y="-80.5" font-family="Helvetica,sans-Serif" font-size="10.00">ImageConfigSimulator.typeString</text>
</a>
</g>
</g>
<!-- Node11&#45;&gt;Node12 -->
<g id="edge17_Node000011_Node000012" class="edge">
<title>Node11&#45;&gt;Node12</title>
<g id="a_edge17_Node000011_Node000012"><a xlink:title=" ">
<path fill="none" stroke="#63b8ff" d="M587.88,-90C603.36,-90 619.61,-90 635.29,-90"/>
<polygon fill="#63b8ff" stroke="#63b8ff" points="635.09,-93.5 645.09,-90 635.09,-86.5 635.09,-93.5"/>
</a>
</g>
</g>
<!-- Node13 -->
<g id="Node000013" class="node">
<title>Node13</title>
<g id="a_Node000013"><a xlink:href="classfr_1_1softsf_1_1canscan_1_1_native_image_config_simulator.html#a4c1895b6327fef325b1b0c8047bcfcb7" target="_top" xlink:title="Simulates typing a single character using the Robot class.">
<polygon fill="white" stroke="#666666" points="1018.25,-106 862.75,-106 862.75,-74 1018.25,-74 1018.25,-106"/>
<text text-anchor="start" x="870.75" y="-92.5" font-family="Helvetica,sans-Serif" font-size="10.00">fr.softsf.canscan.Native</text>
<text text-anchor="middle" x="940.5" y="-80.5" font-family="Helvetica,sans-Serif" font-size="10.00">ImageConfigSimulator.typeChar</text>
</a>
</g>
</g>
<!-- Node12&#45;&gt;Node13 -->
<g id="edge18_Node000012_Node000013" class="edge">
<title>Node12&#45;&gt;Node13</title>
<g id="a_edge18_Node000012_Node000013"><a xlink:title=" ">
<path fill="none" stroke="#63b8ff" d="M807.28,-90C821.53,-90 836.46,-90 850.96,-90"/>
<polygon fill="#63b8ff" stroke="#63b8ff" points="850.95,-93.5 860.95,-90 850.95,-86.5 850.95,-93.5"/>
</a>
</g>
</g>
<!-- Node14&#45;&gt;Node4 -->
<g id="edge20_Node000014_Node000004" class="edge">
<title>Node14&#45;&gt;Node4</title>
<g id="a_edge20_Node000014_Node000004"><a xlink:title=" ">
<path fill="none" stroke="#63b8ff" d="M583.48,-214C598.13,-214 613.58,-214 628.69,-214"/>
<polygon fill="#63b8ff" stroke="#63b8ff" points="628.65,-217.5 638.65,-214 628.65,-210.5 628.65,-217.5"/>
</a>
</g>
</g>
</g>
</svg>
