<?xml version="1.0" encoding="UTF-8" standalone="no"?>
<!DOCTYPE svg PUBLIC "-//W3C//DTD SVG 1.1//EN"
 "http://www.w3.org/Graphics/SVG/1.1/DTD/svg11.dtd">
<!-- Generated by graphviz version 12.2.1 (20241206.2353)
 -->
<!-- Title: fr.softsf.canscan.CanScan.handleResize Pages: 1 -->
<svg width="778pt" height="228pt"
 viewBox="0.00 0.00 777.75 228.00" xmlns="http://www.w3.org/2000/svg" xmlns:xlink="http://www.w3.org/1999/xlink">
<g id="graph0" class="graph" transform="scale(1 1) rotate(0) translate(4 224)">
<title>fr.softsf.canscan.CanScan.handleResize</title>
<!-- Node1 -->
<g id="Node000001" class="node">
<title>Node1</title>
<g id="a_Node000001"><a xlink:title="Handles the actual QR code resize logic after debounce delay.">
<polygon fill="#999999" stroke="#666666" points="164.5,-126 0,-126 0,-94 164.5,-94 164.5,-126"/>
<text text-anchor="start" x="8" y="-112.5" font-family="Helvetica,sans-Serif" font-size="10.00">fr.softsf.canscan.CanScan.handle</text>
<text text-anchor="middle" x="82.25" y="-100.5" font-family="Helvetica,sans-Serif" font-size="10.00">Resize</text>
</a>
</g>
</g>
<!-- Node2 -->
<g id="Node000002" class="node">
<title>Node2</title>
<g id="a_Node000002"><a xlink:href="classfr_1_1softsf_1_1canscan_1_1_can_scan.html#adfbb5c9cf5fa4e297933cd0fce90162c" target="_top" xlink:title="Builds a QrInput from the current field values.">
<polygon fill="white" stroke="#666666" points="362.75,-220 206.5,-220 206.5,-188 362.75,-188 362.75,-220"/>
<text text-anchor="start" x="214.5" y="-206.5" font-family="Helvetica,sans-Serif" font-size="10.00">fr.softsf.canscan.CanScan.build</text>
<text text-anchor="middle" x="284.62" y="-194.5" font-family="Helvetica,sans-Serif" font-size="10.00">QrInput</text>
</a>
</g>
</g>
<!-- Node1&#45;&gt;Node2 -->
<g id="edge1_Node000001_Node000002" class="edge">
<title>Node1&#45;&gt;Node2</title>
<g id="a_edge1_Node000001_Node000002"><a xlink:title=" ">
<path fill="none" stroke="#63b8ff" d="M107.05,-126.31C130.12,-141.56 166.52,-164.15 200.5,-179 204.24,-180.64 208.12,-182.2 212.07,-183.7"/>
<polygon fill="#63b8ff" stroke="#63b8ff" points="210.61,-186.9 221.21,-186.99 212.98,-180.31 210.61,-186.9"/>
</a>
</g>
</g>
<!-- Node3 -->
<g id="Node000003" class="node">
<title>Node3</title>
<g id="a_Node000003"><a xlink:href="classfr_1_1softsf_1_1canscan_1_1_can_scan.html#ae299b57aba96ad890bab5bdfaae06f98" target="_top" xlink:title="Cancels any ongoing resize worker if active and waits for its proper termination.">
<polygon fill="white" stroke="#666666" points="569.25,-123 404.75,-123 404.75,-91 569.25,-91 569.25,-123"/>
<text text-anchor="start" x="412.75" y="-109.5" font-family="Helvetica,sans-Serif" font-size="10.00">fr.softsf.canscan.CanScan.cancel</text>
<text text-anchor="middle" x="487" y="-97.5" font-family="Helvetica,sans-Serif" font-size="10.00">PreviousResizeWorker</text>
</a>
</g>
</g>
<!-- Node1&#45;&gt;Node3 -->
<g id="edge2_Node000001_Node000003" class="edge">
<title>Node1&#45;&gt;Node3</title>
<g id="a_edge2_Node000001_Node000003"><a xlink:title=" ">
<path fill="none" stroke="#63b8ff" d="M164.75,-109.39C230.83,-108.9 323.99,-108.21 392.99,-107.69"/>
<polygon fill="#63b8ff" stroke="#63b8ff" points="392.79,-111.19 402.76,-107.62 392.73,-104.19 392.79,-111.19"/>
</a>
</g>
</g>
<!-- Node4 -->
<g id="Node000004" class="node">
<title>Node4</title>
<g id="a_Node000004"><a xlink:href="classfr_1_1softsf_1_1canscan_1_1_can_scan.html#aa520a5f04c8429a7d24c96e9ecab3351" target="_top" xlink:title="Determines whether the QR data is invalid or null and handles cleanup if needed.">
<polygon fill="white" stroke="#666666" points="356.38,-170 212.88,-170 212.88,-138 356.38,-138 356.38,-170"/>
<text text-anchor="start" x="220.88" y="-156.5" font-family="Helvetica,sans-Serif" font-size="10.00">fr.softsf.canscan.CanScan.is</text>
<text text-anchor="middle" x="284.62" y="-144.5" font-family="Helvetica,sans-Serif" font-size="10.00">InvalidQrData</text>
</a>
</g>
</g>
<!-- Node1&#45;&gt;Node4 -->
<g id="edge3_Node000001_Node000004" class="edge">
<title>Node1&#45;&gt;Node4</title>
<g id="a_edge3_Node000001_Node000004"><a xlink:title=" ">
<path fill="none" stroke="#63b8ff" d="M158.15,-126.45C172.32,-129.56 187.22,-132.83 201.59,-135.99"/>
<polygon fill="#63b8ff" stroke="#63b8ff" points="200.47,-139.32 210.99,-138.05 201.97,-132.49 200.47,-139.32"/>
</a>
</g>
</g>
<!-- Node6 -->
<g id="Node000006" class="node">
<title>Node6</title>
<g id="a_Node000006"><a xlink:href="classfr_1_1softsf_1_1canscan_1_1_can_scan.html#a3a59f2d5eae9195b29a42c70f52c0dac" target="_top" xlink:title="Manages the lifecycle of the resize worker by cancelling any existing worker, creating a new SwingWor...">
<polygon fill="white" stroke="#666666" points="366.88,-82 202.38,-82 202.38,-50 366.88,-50 366.88,-82"/>
<text text-anchor="start" x="210.38" y="-68.5" font-family="Helvetica,sans-Serif" font-size="10.00">fr.softsf.canscan.CanScan.launch</text>
<text text-anchor="middle" x="284.62" y="-56.5" font-family="Helvetica,sans-Serif" font-size="10.00">ResizeWorker</text>
</a>
</g>
</g>
<!-- Node1&#45;&gt;Node6 -->
<g id="edge5_Node000001_Node000006" class="edge">
<title>Node1&#45;&gt;Node6</title>
<g id="a_edge5_Node000001_Node000006"><a xlink:title=" ">
<path fill="none" stroke="#63b8ff" d="M158.15,-93.55C171,-90.73 184.45,-87.78 197.56,-84.9"/>
<polygon fill="#63b8ff" stroke="#63b8ff" points="197.99,-88.39 207.01,-82.82 196.49,-81.55 197.99,-88.39"/>
</a>
</g>
</g>
<!-- Node10 -->
<g id="Node000010" class="node">
<title>Node10</title>
<g id="a_Node000010"><a xlink:href="classfr_1_1softsf_1_1canscan_1_1_can_scan.html#a81ea88dd5138cbfcddf59be7837611f9" target="_top" xlink:title="Clears previous QR code visuals and starts wait icon animation.">
<polygon fill="white" stroke="#666666" points="368.75,-32 200.5,-32 200.5,0 368.75,0 368.75,-32"/>
<text text-anchor="start" x="208.5" y="-18.5" font-family="Helvetica,sans-Serif" font-size="10.00">fr.softsf.canscan.CanScan.prepare</text>
<text text-anchor="middle" x="284.62" y="-6.5" font-family="Helvetica,sans-Serif" font-size="10.00">ForResize</text>
</a>
</g>
</g>
<!-- Node1&#45;&gt;Node10 -->
<g id="edge10_Node000001_Node000010" class="edge">
<title>Node1&#45;&gt;Node10</title>
<g id="a_edge10_Node000001_Node000010"><a xlink:title=" ">
<path fill="none" stroke="#63b8ff" d="M107.05,-93.69C130.12,-78.44 166.52,-55.85 200.5,-41 204.24,-39.36 208.12,-37.8 212.07,-36.3"/>
<polygon fill="#63b8ff" stroke="#63b8ff" points="212.98,-39.69 221.21,-33.01 210.61,-33.1 212.98,-39.69"/>
</a>
</g>
</g>
<!-- Node5 -->
<g id="Node000005" class="node">
<title>Node5</title>
<g id="a_Node000005"><a xlink:href="classfr_1_1softsf_1_1canscan_1_1_can_scan.html#a4815606aa036969bcf5313568220d396" target="_top" xlink:title="Releases the currently stored QR code image to free native memory.">
<polygon fill="white" stroke="#666666" points="563.25,-173 410.75,-173 410.75,-141 563.25,-141 563.25,-173"/>
<text text-anchor="start" x="418.75" y="-159.5" font-family="Helvetica,sans-Serif" font-size="10.00">fr.softsf.canscan.CanScan.free</text>
<text text-anchor="middle" x="487" y="-147.5" font-family="Helvetica,sans-Serif" font-size="10.00">QrOriginal</text>
</a>
</g>
</g>
<!-- Node4&#45;&gt;Node5 -->
<g id="edge4_Node000004_Node000005" class="edge">
<title>Node4&#45;&gt;Node5</title>
<g id="a_edge4_Node000004_Node000005"><a xlink:title=" ">
<path fill="none" stroke="#63b8ff" d="M356.83,-155.07C370.5,-155.27 384.96,-155.49 399.06,-155.7"/>
<polygon fill="#63b8ff" stroke="#63b8ff" points="398.7,-159.19 408.76,-155.84 398.81,-152.19 398.7,-159.19"/>
</a>
</g>
</g>
<!-- Node6&#45;&gt;Node3 -->
<g id="edge6_Node000006_Node000003" class="edge">
<title>Node6&#45;&gt;Node3</title>
<g id="a_edge6_Node000006_Node000003"><a xlink:title=" ">
<path fill="none" stroke="#63b8ff" d="M366.26,-82.5C375.56,-84.4 385.1,-86.35 394.53,-88.28"/>
<polygon fill="#63b8ff" stroke="#63b8ff" points="393.55,-91.66 404.05,-90.23 394.95,-84.8 393.55,-91.66"/>
</a>
</g>
</g>
<!-- Node7 -->
<g id="Node000007" class="node">
<title>Node7</title>
<g id="a_Node000007"><a xlink:href="classfr_1_1softsf_1_1canscan_1_1_can_scan.html#aa6e81c2bc494d739a728f4572163b781" target="_top" xlink:title="Creates a background task to resize the QR code image to the specified height.">
<polygon fill="white" stroke="#666666" points="568.5,-73 405.5,-73 405.5,-41 568.5,-41 568.5,-73"/>
<text text-anchor="start" x="413.5" y="-59.5" font-family="Helvetica,sans-Serif" font-size="10.00">fr.softsf.canscan.CanScan.create</text>
<text text-anchor="middle" x="487" y="-47.5" font-family="Helvetica,sans-Serif" font-size="10.00">ResizeWorker</text>
</a>
</g>
</g>
<!-- Node6&#45;&gt;Node7 -->
<g id="edge7_Node000006_Node000007" class="edge">
<title>Node6&#45;&gt;Node7</title>
<g id="a_edge7_Node000006_Node000007"><a xlink:title=" ">
<path fill="none" stroke="#63b8ff" d="M367.13,-62.34C375.96,-61.94 385,-61.54 393.95,-61.13"/>
<polygon fill="#63b8ff" stroke="#63b8ff" points="393.88,-64.64 403.71,-60.7 393.56,-57.65 393.88,-64.64"/>
</a>
</g>
</g>
<!-- Node8 -->
<g id="Node000008" class="node">
<title>Node8</title>
<g id="a_Node000008"><a xlink:href="classfr_1_1softsf_1_1canscan_1_1_can_scan.html#a1ff2f05476d5b6127e69c1645fd53704" target="_top" xlink:title="Handles resize worker completion: checks cancellation, disposes obsolete icons, updates UI,...">
<polygon fill="white" stroke="#666666" points="769.75,-98 605.25,-98 605.25,-66 769.75,-66 769.75,-98"/>
<text text-anchor="start" x="613.25" y="-84.5" font-family="Helvetica,sans-Serif" font-size="10.00">fr.softsf.canscan.CanScan.handle</text>
<text text-anchor="middle" x="687.5" y="-72.5" font-family="Helvetica,sans-Serif" font-size="10.00">ResizeWorkerCompletion</text>
</a>
</g>
</g>
<!-- Node7&#45;&gt;Node8 -->
<g id="edge8_Node000007_Node000008" class="edge">
<title>Node7&#45;&gt;Node8</title>
<g id="a_edge8_Node000007_Node000008"><a xlink:title=" ">
<path fill="none" stroke="#63b8ff" d="M568.74,-67.17C576.93,-68.2 585.29,-69.25 593.6,-70.3"/>
<polygon fill="#63b8ff" stroke="#63b8ff" points="593.01,-73.75 603.37,-71.53 593.88,-66.81 593.01,-73.75"/>
</a>
</g>
</g>
<!-- Node9 -->
<g id="Node000009" class="node">
<title>Node9</title>
<g id="a_Node000009"><a xlink:href="classfr_1_1softsf_1_1canscan_1_1_can_scan.html#a9ecdcaf8fb8d45df31f2bdf3101243df" target="_top" xlink:title="Performs the image resizing operation on a background thread.">
<polygon fill="white" stroke="#666666" points="768.62,-48 606.38,-48 606.38,-16 768.62,-16 768.62,-48"/>
<text text-anchor="start" x="614.38" y="-34.5" font-family="Helvetica,sans-Serif" font-size="10.00">fr.softsf.canscan.CanScan.resize</text>
<text text-anchor="middle" x="687.5" y="-22.5" font-family="Helvetica,sans-Serif" font-size="10.00">ImageInBackground</text>
</a>
</g>
</g>
<!-- Node7&#45;&gt;Node9 -->
<g id="edge9_Node000007_Node000009" class="edge">
<title>Node7&#45;&gt;Node9</title>
<g id="a_edge9_Node000007_Node000009"><a xlink:title=" ">
<path fill="none" stroke="#63b8ff" d="M568.74,-46.83C577.32,-45.75 586.09,-44.65 594.79,-43.55"/>
<polygon fill="#63b8ff" stroke="#63b8ff" points="595.17,-47.03 604.65,-42.31 594.3,-40.09 595.17,-47.03"/>
</a>
</g>
</g>
</g>
</svg>
