<?xml version="1.0" encoding="UTF-8" standalone="no"?>
<!DOCTYPE svg PUBLIC "-//W3C//DTD SVG 1.1//EN"
 "http://www.w3.org/Graphics/SVG/1.1/DTD/svg11.dtd">
<!-- Generated by graphviz version 12.2.1 (20241206.2353)
 -->
<!-- Title: fr.softsf.canscan.CanScan.generateQrCode Pages: 1 -->
<svg width="1227pt" height="982pt"
 viewBox="0.00 0.00 1226.75 982.00" xmlns="http://www.w3.org/2000/svg" xmlns:xlink="http://www.w3.org/1999/xlink">
<g id="graph0" class="graph" transform="scale(1 1) rotate(0) translate(4 978)">
<title>fr.softsf.canscan.CanScan.generateQrCode</title>
<!-- Node1 -->
<g id="Node000001" class="node">
<title>Node1</title>
<g id="a_Node000001"><a xlink:title="Generates and saves a QR code as a PNG file using the current input and configuration.">
<polygon fill="#999999" stroke="#666666" points="173.5,-207 0,-207 0,-175 173.5,-175 173.5,-207"/>
<text text-anchor="start" x="8" y="-193.5" font-family="Helvetica,sans-Serif" font-size="10.00">fr.softsf.canscan.CanScan.generate</text>
<text text-anchor="middle" x="86.75" y="-181.5" font-family="Helvetica,sans-Serif" font-size="10.00">QrCode</text>
</a>
</g>
</g>
<!-- Node2 -->
<g id="Node000002" class="node">
<title>Node2</title>
<g id="a_Node000002"><a xlink:href="classfr_1_1softsf_1_1canscan_1_1_can_scan.html#adfbb5c9cf5fa4e297933cd0fce90162c" target="_top" xlink:title="Builds a QrInput from the current field values.">
<polygon fill="white" stroke="#666666" points="374.38,-547 218.12,-547 218.12,-515 374.38,-515 374.38,-547"/>
<text text-anchor="start" x="226.12" y="-533.5" font-family="Helvetica,sans-Serif" font-size="10.00">fr.softsf.canscan.CanScan.build</text>
<text text-anchor="middle" x="296.25" y="-521.5" font-family="Helvetica,sans-Serif" font-size="10.00">QrInput</text>
</a>
</g>
</g>
<!-- Node1&#45;&gt;Node2 -->
<g id="edge1_Node000001_Node000002" class="edge">
<title>Node1&#45;&gt;Node2</title>
<g id="a_edge1_Node000001_Node000002"><a xlink:title=" ">
<path fill="none" stroke="#63b8ff" d="M89.08,-207.16C94.21,-258.8 117.3,-421.33 209.5,-506 210.27,-506.71 211.07,-507.4 211.88,-508.07"/>
<polygon fill="#63b8ff" stroke="#63b8ff" points="209.72,-510.84 219.93,-513.68 213.73,-505.09 209.72,-510.84"/>
</a>
</g>
</g>
<!-- Node3 -->
<g id="Node000003" class="node">
<title>Node3</title>
<g id="a_Node000003"><a xlink:href="classfr_1_1softsf_1_1canscan_1_1_can_scan.html#a0f6d45dd57c73833a7d5c968541914ae" target="_top" xlink:title="Generates a QR code image with optional logo and custom styling.">
<polygon fill="white" stroke="#666666" points="383,-497 209.5,-497 209.5,-465 383,-465 383,-497"/>
<text text-anchor="start" x="217.5" y="-483.5" font-family="Helvetica,sans-Serif" font-size="10.00">fr.softsf.canscan.CanScan.generate</text>
<text text-anchor="middle" x="296.25" y="-471.5" font-family="Helvetica,sans-Serif" font-size="10.00">QrCodeImage</text>
</a>
</g>
</g>
<!-- Node1&#45;&gt;Node3 -->
<g id="edge2_Node000001_Node000003" class="edge">
<title>Node1&#45;&gt;Node3</title>
<g id="a_edge2_Node000001_Node000003"><a xlink:title=" ">
<path fill="none" stroke="#63b8ff" d="M99.5,-207.42C134.03,-255.67 235.34,-397.27 277.02,-455.52"/>
<polygon fill="#63b8ff" stroke="#63b8ff" points="274.08,-457.43 282.75,-463.53 279.77,-453.36 274.08,-457.43"/>
</a>
</g>
</g>
<!-- Node10 -->
<g id="Node000010" class="node">
<title>Node10</title>
<g id="a_Node000010"><a xlink:href="classfr_1_1softsf_1_1canscan_1_1_can_scan.html#abb6acfc2fa4bf839236f0daee33746f7" target="_top" xlink:title="Configuration parameters used to generate a QR code.">
<polygon fill="white" stroke="#666666" points="1199.62,-507 1063.62,-507 1063.62,-475 1199.62,-475 1199.62,-507"/>
<text text-anchor="start" x="1071.62" y="-493.5" font-family="Helvetica,sans-Serif" font-size="10.00">fr.softsf.canscan.CanScan.</text>
<text text-anchor="middle" x="1131.62" y="-481.5" font-family="Helvetica,sans-Serif" font-size="10.00">QrConfig</text>
</a>
</g>
</g>
<!-- Node1&#45;&gt;Node10 -->
<g id="edge43_Node000001_Node000010" class="edge">
<title>Node1&#45;&gt;Node10</title>
<g id="a_edge43_Node000001_Node000010"><a xlink:title=" ">
<path fill="none" stroke="#63b8ff" d="M119.62,-207.45C143.64,-219 177.78,-233.67 209.5,-241 336.8,-270.43 372.21,-260 502.88,-260 502.88,-260 502.88,-260 712.5,-260 772.65,-260 961.75,-293.39 1008.5,-324 1062.38,-359.28 1100.7,-427.06 1118.82,-464.51"/>
<polygon fill="#63b8ff" stroke="#63b8ff" points="1115.52,-465.73 1122.94,-473.28 1121.85,-462.75 1115.52,-465.73"/>
</a>
</g>
</g>
<!-- Node24 -->
<g id="Node000024" class="node">
<title>Node24</title>
<g id="a_Node000024"><a xlink:href="classfr_1_1softsf_1_1canscan_1_1_can_scan.html#a2178e144ac357d7e144a2f20c83681bf" target="_top" xlink:title="Returns the selected file from the chooser, ensuring it has a .png extension.">
<polygon fill="white" stroke="#666666" points="371,-232 221.5,-232 221.5,-200 371,-200 371,-232"/>
<text text-anchor="start" x="229.5" y="-218.5" font-family="Helvetica,sans-Serif" font-size="10.00">fr.softsf.canscan.CanScan.get</text>
<text text-anchor="middle" x="296.25" y="-206.5" font-family="Helvetica,sans-Serif" font-size="10.00">SelectedPngFile</text>
</a>
</g>
</g>
<!-- Node1&#45;&gt;Node24 -->
<g id="edge41_Node000001_Node000024" class="edge">
<title>Node1&#45;&gt;Node24</title>
<g id="a_edge41_Node000001_Node000024"><a xlink:title=" ">
<path fill="none" stroke="#63b8ff" d="M173.95,-201.39C185.84,-202.82 198.06,-204.29 209.94,-205.72"/>
<polygon fill="#63b8ff" stroke="#63b8ff" points="209.36,-209.18 219.71,-206.9 210.2,-202.23 209.36,-209.18"/>
</a>
</g>
</g>
<!-- Node25 -->
<g id="Node000025" class="node">
<title>Node25</title>
<g id="a_Node000025"><a xlink:href="classfr_1_1softsf_1_1canscan_1_1_can_scan.html#ac0d49f57301a8c8f59043863bc967e8e" target="_top" xlink:title="Validates and updates the QR code margin from the corresponding text field.">
<polygon fill="white" stroke="#666666" points="378.88,-182 213.62,-182 213.62,-150 378.88,-150 378.88,-182"/>
<text text-anchor="start" x="221.62" y="-168.5" font-family="Helvetica,sans-Serif" font-size="10.00">fr.softsf.canscan.CanScan.margin</text>
<text text-anchor="middle" x="296.25" y="-156.5" font-family="Helvetica,sans-Serif" font-size="10.00">FieldCheck</text>
</a>
</g>
</g>
<!-- Node1&#45;&gt;Node25 -->
<g id="edge42_Node000001_Node000025" class="edge">
<title>Node1&#45;&gt;Node25</title>
<g id="a_edge42_Node000001_Node000025"><a xlink:title=" ">
<path fill="none" stroke="#63b8ff" d="M173.95,-180.61C183.21,-179.5 192.66,-178.36 202,-177.23"/>
<polygon fill="#63b8ff" stroke="#63b8ff" points="202.3,-180.72 211.81,-176.05 201.47,-173.77 202.3,-180.72"/>
</a>
</g>
</g>
<!-- Node26 -->
<g id="Node000026" class="node">
<title>Node26</title>
<g id="a_Node000026"><a xlink:href="classfr_1_1softsf_1_1canscan_1_1_can_scan.html#a5201d7140d65530451d641d58e0d6f24" target="_top" xlink:title="Validates and updates the image ratio from the corresponding text field.">
<polygon fill="white" stroke="#666666" points="373.62,-132 218.88,-132 218.88,-100 373.62,-100 373.62,-132"/>
<text text-anchor="start" x="226.88" y="-118.5" font-family="Helvetica,sans-Serif" font-size="10.00">fr.softsf.canscan.CanScan.ratio</text>
<text text-anchor="middle" x="296.25" y="-106.5" font-family="Helvetica,sans-Serif" font-size="10.00">FieldCheck</text>
</a>
</g>
</g>
<!-- Node1&#45;&gt;Node26 -->
<g id="edge44_Node000001_Node000026" class="edge">
<title>Node1&#45;&gt;Node26</title>
<g id="a_edge44_Node000001_Node000026"><a xlink:title=" ">
<path fill="none" stroke="#63b8ff" d="M124.93,-174.53C148.84,-164.24 180.71,-151.08 209.5,-141 214.54,-139.24 219.78,-137.49 225.06,-135.8"/>
<polygon fill="#63b8ff" stroke="#63b8ff" points="226,-139.17 234.5,-132.85 223.91,-132.49 226,-139.17"/>
</a>
</g>
</g>
<!-- Node27 -->
<g id="Node000027" class="node">
<title>Node27</title>
<g id="a_Node000027"><a xlink:href="classfr_1_1softsf_1_1canscan_1_1_can_scan.html#a450a5742a56de389ea303ec3977017c8" target="_top" xlink:title="Resolves file name conflicts by asking the user to overwrite or automatically renaming.">
<polygon fill="white" stroke="#666666" points="380,-82 212.5,-82 212.5,-50 380,-50 380,-82"/>
<text text-anchor="start" x="220.5" y="-68.5" font-family="Helvetica,sans-Serif" font-size="10.00">fr.softsf.canscan.CanScan.resolve</text>
<text text-anchor="middle" x="296.25" y="-56.5" font-family="Helvetica,sans-Serif" font-size="10.00">FileNameConflict</text>
</a>
</g>
</g>
<!-- Node1&#45;&gt;Node27 -->
<g id="edge45_Node000001_Node000027" class="edge">
<title>Node1&#45;&gt;Node27</title>
<g id="a_edge45_Node000001_Node000027"><a xlink:title=" ">
<path fill="none" stroke="#63b8ff" d="M103.14,-174.76C124.87,-152.75 166.68,-113.6 209.5,-91 212.33,-89.51 215.26,-88.09 218.25,-86.75"/>
<polygon fill="#63b8ff" stroke="#63b8ff" points="219.32,-90.1 227.24,-83.06 216.66,-83.62 219.32,-90.1"/>
</a>
</g>
</g>
<!-- Node28 -->
<g id="Node000028" class="node">
<title>Node28</title>
<g id="a_Node000028"><a xlink:href="classfr_1_1softsf_1_1canscan_1_1_can_scan.html#abc5fbb875d687a36fa7e5ebec1cffab3" target="_top" xlink:title="Validates and returns the QR code size from the corresponding text field.">
<polygon fill="white" stroke="#666666" points="373.25,-32 219.25,-32 219.25,0 373.25,0 373.25,-32"/>
<text text-anchor="start" x="227.25" y="-18.5" font-family="Helvetica,sans-Serif" font-size="10.00">fr.softsf.canscan.CanScan.size</text>
<text text-anchor="middle" x="296.25" y="-6.5" font-family="Helvetica,sans-Serif" font-size="10.00">FieldCheck</text>
</a>
</g>
</g>
<!-- Node1&#45;&gt;Node28 -->
<g id="edge46_Node000001_Node000028" class="edge">
<title>Node1&#45;&gt;Node28</title>
<g id="a_edge46_Node000001_Node000028"><a xlink:title=" ">
<path fill="none" stroke="#63b8ff" d="M96.44,-174.73C113.76,-143.88 155.58,-76.82 209.5,-41 211.34,-39.78 213.24,-38.61 215.19,-37.51"/>
<polygon fill="#63b8ff" stroke="#63b8ff" points="216.58,-40.73 223.93,-33.1 213.43,-34.47 216.58,-40.73"/>
</a>
</g>
</g>
<!-- Node4 -->
<g id="Node000004" class="node">
<title>Node4</title>
<g id="a_Node000004"><a xlink:href="enumfr_1_1softsf_1_1canscan_1_1util_1_1_checker.html#a38aa8db97b16480c728481f1835da11f" target="_top" xlink:title="Checks if the given object is null in a static context and displays an error dialog if so.">
<polygon fill="white" stroke="#666666" points="1008.5,-807 834.25,-807 834.25,-775 1008.5,-775 1008.5,-807"/>
<text text-anchor="start" x="842.25" y="-793.5" font-family="Helvetica,sans-Serif" font-size="10.00">fr.softsf.canscan.util.Checker.check</text>
<text text-anchor="middle" x="921.38" y="-781.5" font-family="Helvetica,sans-Serif" font-size="10.00">StaticNPE</text>
</a>
</g>
</g>
<!-- Node3&#45;&gt;Node4 -->
<g id="edge3_Node000003_Node000004" class="edge">
<title>Node3&#45;&gt;Node4</title>
<g id="a_edge3_Node000003_Node000004"><a xlink:title=" ">
<path fill="none" stroke="#63b8ff" d="M373.53,-497.23C377.02,-499.76 380.22,-502.66 383,-506 433.19,-566.24 363.28,-801.84 419,-857 538.94,-975.73 637.22,-926.52 798.25,-876 836.11,-864.12 872.51,-835.89 895.56,-815.21"/>
<polygon fill="#63b8ff" stroke="#63b8ff" points="897.91,-817.81 902.9,-808.46 893.17,-812.66 897.91,-817.81"/>
</a>
</g>
</g>
<!-- Node6 -->
<g id="Node000006" class="node">
<title>Node6</title>
<g id="a_Node000006"><a xlink:href="classfr_1_1softsf_1_1canscan_1_1_can_scan.html#a82526318e704277d2a8270264552db6c" target="_top" xlink:title="Creates a QR code matrix for the given text.">
<polygon fill="white" stroke="#666666" points="585.38,-848 422.38,-848 422.38,-816 585.38,-816 585.38,-848"/>
<text text-anchor="start" x="430.38" y="-834.5" font-family="Helvetica,sans-Serif" font-size="10.00">fr.softsf.canscan.CanScan.create</text>
<text text-anchor="middle" x="503.88" y="-822.5" font-family="Helvetica,sans-Serif" font-size="10.00">Matrix</text>
</a>
</g>
</g>
<!-- Node3&#45;&gt;Node6 -->
<g id="edge5_Node000003_Node000006" class="edge">
<title>Node3&#45;&gt;Node6</title>
<g id="a_edge5_Node000003_Node000006"><a xlink:title=" ">
<path fill="none" stroke="#63b8ff" d="M373.4,-497.34C376.92,-499.84 380.16,-502.71 383,-506 460.04,-595.35 359.22,-667.29 419,-769 428.78,-785.64 444.84,-799.31 460.31,-809.6"/>
<polygon fill="#63b8ff" stroke="#63b8ff" points="458.19,-812.4 468.51,-814.77 461.92,-806.48 458.19,-812.4"/>
</a>
</g>
</g>
<!-- Node7 -->
<g id="Node000007" class="node">
<title>Node7</title>
<g id="a_Node000007"><a xlink:href="classfr_1_1softsf_1_1canscan_1_1_can_scan.html#a57411c1dc563d6c8a1fdec872ad66877" target="_top" xlink:title="Renders the three QR code finder patterns at the corners using the specified style.">
<polygon fill="white" stroke="#666666" points="582.38,-760 425.38,-760 425.38,-728 582.38,-728 582.38,-760"/>
<text text-anchor="start" x="433.38" y="-746.5" font-family="Helvetica,sans-Serif" font-size="10.00">fr.softsf.canscan.CanScan.draw</text>
<text text-anchor="middle" x="503.88" y="-734.5" font-family="Helvetica,sans-Serif" font-size="10.00">FinderPatterns</text>
</a>
</g>
</g>
<!-- Node3&#45;&gt;Node7 -->
<g id="edge7_Node000003_Node000007" class="edge">
<title>Node3&#45;&gt;Node7</title>
<g id="a_edge7_Node000003_Node000007"><a xlink:title=" ">
<path fill="none" stroke="#63b8ff" d="M371.95,-497.47C375.94,-499.93 379.67,-502.76 383,-506 420.47,-542.46 396.3,-570.9 419,-618 436.93,-655.2 464.45,-694.2 483.03,-718.78"/>
<polygon fill="#63b8ff" stroke="#63b8ff" points="480.14,-720.76 489,-726.57 485.69,-716.5 480.14,-720.76"/>
</a>
</g>
</g>
<!-- Node3&#45;&gt;Node10 -->
<g id="edge37_Node000003_Node000010" class="edge">
<title>Node3&#45;&gt;Node10</title>
<g id="a_edge37_Node000003_Node000010"><a xlink:title=" ">
<path fill="none" stroke="#63b8ff" d="M304.8,-464.64C320.69,-432.38 360.94,-361.11 419,-331 568.73,-253.34 634.46,-276.72 798.25,-317 918.43,-346.55 1043.31,-428.09 1099.71,-468.17"/>
<polygon fill="#63b8ff" stroke="#63b8ff" points="1097.4,-470.82 1107.57,-473.8 1101.48,-465.13 1097.4,-470.82"/>
</a>
</g>
</g>
<!-- Node11 -->
<g id="Node000011" class="node">
<title>Node11</title>
<g id="a_Node000011"><a xlink:href="classfr_1_1softsf_1_1canscan_1_1_can_scan.html#ada7babf06b5adade313f5236f040a383" target="_top" xlink:title="Draws the logo at the center of the QR code if a valid logo file is provided.">
<polygon fill="white" stroke="#666666" points="790,-672 633,-672 633,-640 790,-640 790,-672"/>
<text text-anchor="start" x="641" y="-658.5" font-family="Helvetica,sans-Serif" font-size="10.00">fr.softsf.canscan.CanScan.draw</text>
<text text-anchor="middle" x="711.5" y="-646.5" font-family="Helvetica,sans-Serif" font-size="10.00">LogoIfPresent</text>
</a>
</g>
</g>
<!-- Node3&#45;&gt;Node11 -->
<g id="edge15_Node000003_Node000011" class="edge">
<title>Node3&#45;&gt;Node11</title>
<g id="a_edge15_Node000003_Node000011"><a xlink:title=" ">
<path fill="none" stroke="#63b8ff" d="M362.81,-497.43C369.76,-499.96 376.62,-502.81 383,-506 400.89,-514.94 401.78,-522.82 419,-533 505.38,-584.08 531.58,-588.73 624.75,-626 633.08,-629.33 641.94,-632.66 650.68,-635.83"/>
<polygon fill="#63b8ff" stroke="#63b8ff" points="649.23,-639.03 659.82,-639.09 651.58,-632.44 649.23,-639.03"/>
</a>
</g>
</g>
<!-- Node12 -->
<g id="Node000012" class="node">
<title>Node12</title>
<g id="a_Node000012"><a xlink:href="classfr_1_1softsf_1_1canscan_1_1_can_scan.html#a9bec7e01bac5ab7e6ef38f704d903f7f" target="_top" xlink:title="Renders all QR code modules onto the provided graphics context.">
<polygon fill="white" stroke="#666666" points="582.38,-524 425.38,-524 425.38,-492 582.38,-492 582.38,-524"/>
<text text-anchor="start" x="433.38" y="-510.5" font-family="Helvetica,sans-Serif" font-size="10.00">fr.softsf.canscan.CanScan.draw</text>
<text text-anchor="middle" x="503.88" y="-498.5" font-family="Helvetica,sans-Serif" font-size="10.00">Modules</text>
</a>
</g>
</g>
<!-- Node3&#45;&gt;Node12 -->
<g id="edge18_Node000003_Node000012" class="edge">
<title>Node3&#45;&gt;Node12</title>
<g id="a_edge18_Node000003_Node000012"><a xlink:title=" ">
<path fill="none" stroke="#63b8ff" d="M383.26,-492.29C393.34,-493.62 403.63,-494.97 413.75,-496.3"/>
<polygon fill="#63b8ff" stroke="#63b8ff" points="413.2,-499.76 423.57,-497.59 414.11,-492.81 413.2,-499.76"/>
</a>
</g>
</g>
<!-- Node20 -->
<g id="Node000020" class="node">
<title>Node20</title>
<g id="a_Node000020"><a xlink:href="classfr_1_1softsf_1_1canscan_1_1_can_scan.html#a070e10a2c703a908c63b30821cdcb4b1" target="_top" xlink:title="Estimates the memory required to create a BufferedImage.">
<polygon fill="white" stroke="#666666" points="798.25,-358 624.75,-358 624.75,-326 798.25,-326 798.25,-358"/>
<text text-anchor="start" x="632.75" y="-344.5" font-family="Helvetica,sans-Serif" font-size="10.00">fr.softsf.canscan.CanScan.estimate</text>
<text text-anchor="middle" x="711.5" y="-332.5" font-family="Helvetica,sans-Serif" font-size="10.00">ImageMemoryMB</text>
</a>
</g>
</g>
<!-- Node3&#45;&gt;Node20 -->
<g id="edge33_Node000003_Node000020" class="edge">
<title>Node3&#45;&gt;Node20</title>
<g id="a_edge33_Node000003_Node000020"><a xlink:title=" ">
<path fill="none" stroke="#63b8ff" d="M308.86,-464.59C328.27,-438.62 370.07,-388.8 419,-367 479.68,-339.97 554.44,-334.03 613.05,-334.69"/>
<polygon fill="#63b8ff" stroke="#63b8ff" points="612.98,-338.19 623.04,-334.88 613.11,-331.19 612.98,-338.19"/>
</a>
</g>
</g>
<!-- Node21 -->
<g id="Node000021" class="node">
<title>Node21</title>
<g id="a_Node000021"><a xlink:href="classfr_1_1softsf_1_1canscan_1_1_can_scan.html#a81256a8e00a35676330af2e8542acf51" target="_top" xlink:title="Fills the entire QR code area with the specified background color.">
<polygon fill="white" stroke="#666666" points="576.75,-974 431,-974 431,-942 576.75,-942 576.75,-974"/>
<text text-anchor="start" x="439" y="-960.5" font-family="Helvetica,sans-Serif" font-size="10.00">fr.softsf.canscan.CanScan.fill</text>
<text text-anchor="middle" x="503.88" y="-948.5" font-family="Helvetica,sans-Serif" font-size="10.00">Background</text>
</a>
</g>
</g>
<!-- Node3&#45;&gt;Node21 -->
<g id="edge34_Node000003_Node000021" class="edge">
<title>Node3&#45;&gt;Node21</title>
<g id="a_edge34_Node000003_Node000021"><a xlink:title=" ">
<path fill="none" stroke="#63b8ff" d="M373.97,-497.45C377.3,-499.93 380.35,-502.76 383,-506 442.63,-578.82 361.58,-853.43 419,-928 420.99,-930.58 423.22,-932.95 425.64,-935.11"/>
<polygon fill="#63b8ff" stroke="#63b8ff" points="423.19,-937.64 433.3,-940.79 427.36,-932.02 423.19,-937.64"/>
</a>
</g>
</g>
<!-- Node22 -->
<g id="Node000022" class="node">
<title>Node22</title>
<g id="a_Node000022"><a xlink:href="classfr_1_1softsf_1_1canscan_1_1_can_scan.html#a734f691ae3eeecc255c1e43c4f9edb8c" target="_top" xlink:title="Gets the available memory in the JVM.">
<polygon fill="white" stroke="#666666" points="786.25,-408 636.75,-408 636.75,-376 786.25,-376 786.25,-408"/>
<text text-anchor="start" x="644.75" y="-394.5" font-family="Helvetica,sans-Serif" font-size="10.00">fr.softsf.canscan.CanScan.get</text>
<text text-anchor="middle" x="711.5" y="-382.5" font-family="Helvetica,sans-Serif" font-size="10.00">AvailableMemoryMB</text>
</a>
</g>
</g>
<!-- Node3&#45;&gt;Node22 -->
<g id="edge36_Node000003_Node000022" class="edge">
<title>Node3&#45;&gt;Node22</title>
<g id="a_edge36_Node000003_Node000022"><a xlink:title=" ">
<path fill="none" stroke="#63b8ff" d="M373.53,-464.57C444.85,-449.21 551.18,-426.31 625.26,-410.36"/>
<polygon fill="#63b8ff" stroke="#63b8ff" points="625.89,-413.8 634.93,-408.28 624.41,-406.96 625.89,-413.8"/>
</a>
</g>
</g>
<!-- Node23 -->
<g id="Node000023" class="node">
<title>Node23</title>
<g id="a_Node000023"><a xlink:href="classfr_1_1softsf_1_1canscan_1_1_can_scan.html#a8919d8945854ca9cd798a20e9f076bff" target="_top" xlink:title="Validates that sufficient memory is available to generate a square image of the given size.">
<polygon fill="white" stroke="#666666" points="588.75,-408 419,-408 419,-376 588.75,-376 588.75,-408"/>
<text text-anchor="start" x="427" y="-394.5" font-family="Helvetica,sans-Serif" font-size="10.00">fr.softsf.canscan.CanScan.validate</text>
<text text-anchor="middle" x="503.88" y="-382.5" font-family="Helvetica,sans-Serif" font-size="10.00">MemoryForImageSize</text>
</a>
</g>
</g>
<!-- Node3&#45;&gt;Node23 -->
<g id="edge38_Node000003_Node000023" class="edge">
<title>Node3&#45;&gt;Node23</title>
<g id="a_edge38_Node000003_Node000023"><a xlink:title=" ">
<path fill="none" stroke="#63b8ff" d="M334.96,-464.68C368.63,-450.11 418.11,-428.69 454.64,-412.88"/>
<polygon fill="#63b8ff" stroke="#63b8ff" points="455.88,-416.16 463.66,-408.97 453.1,-409.73 455.88,-416.16"/>
</a>
</g>
</g>
<!-- Node5 -->
<g id="Node000005" class="node">
<title>Node5</title>
<g id="a_Node000005"><a xlink:href="enumfr_1_1softsf_1_1canscan_1_1util_1_1_checker.html#af3fc9dd2a33f4d12c5db8cf2aeea17d7" target="_top" xlink:title="Validates that the given object is non&#45;null and, if a String, not blank.">
<polygon fill="white" stroke="#666666" points="1218.75,-832 1044.5,-832 1044.5,-800 1218.75,-800 1218.75,-832"/>
<text text-anchor="start" x="1052.5" y="-818.5" font-family="Helvetica,sans-Serif" font-size="10.00">fr.softsf.canscan.util.Checker.check</text>
<text text-anchor="middle" x="1131.62" y="-806.5" font-family="Helvetica,sans-Serif" font-size="10.00">NullOrBlankInternal</text>
</a>
</g>
</g>
<!-- Node4&#45;&gt;Node5 -->
<g id="edge4_Node000004_Node000005" class="edge">
<title>Node4&#45;&gt;Node5</title>
<g id="a_edge4_Node000004_Node000005"><a xlink:title=" ">
<path fill="none" stroke="#63b8ff" d="M1008.88,-801.39C1016.78,-802.33 1024.82,-803.3 1032.81,-804.26"/>
<polygon fill="#63b8ff" stroke="#63b8ff" points="1032.2,-807.71 1042.55,-805.43 1033.04,-800.76 1032.2,-807.71"/>
</a>
</g>
</g>
<!-- Node6&#45;&gt;Node4 -->
<g id="edge6_Node000006_Node000004" class="edge">
<title>Node6&#45;&gt;Node4</title>
<g id="a_edge6_Node000006_Node000004"><a xlink:title=" ">
<path fill="none" stroke="#63b8ff" d="M564.53,-848.44C624.48,-862.32 719.08,-877.02 798.25,-857 831.37,-848.62 865.25,-829.29 888.9,-813.7"/>
<polygon fill="#63b8ff" stroke="#63b8ff" points="890.8,-816.64 897.13,-808.14 886.88,-810.84 890.8,-816.64"/>
</a>
</g>
</g>
<!-- Node7&#45;&gt;Node4 -->
<g id="edge8_Node000007_Node000004" class="edge">
<title>Node7&#45;&gt;Node4</title>
<g id="a_edge8_Node000007_Node000004"><a xlink:title=" ">
<path fill="none" stroke="#63b8ff" d="M576.23,-760.48C592.13,-763.71 608.96,-766.78 624.75,-769 690.44,-778.25 764.94,-783.77 822.71,-786.96"/>
<polygon fill="#63b8ff" stroke="#63b8ff" points="822.35,-790.44 832.52,-787.49 822.72,-783.45 822.35,-790.44"/>
</a>
</g>
</g>
<!-- Node8 -->
<g id="Node000008" class="node">
<title>Node8</title>
<g id="a_Node000008"><a xlink:href="classfr_1_1softsf_1_1canscan_1_1_can_scan.html#ad07293248fd94f28e8840a4127591c74" target="_top" xlink:title="Draws a QR code finder pattern with rounded corners at the specified pixel coordinates.">
<polygon fill="white" stroke="#666666" points="790,-760 633,-760 633,-728 790,-728 790,-760"/>
<text text-anchor="start" x="641" y="-746.5" font-family="Helvetica,sans-Serif" font-size="10.00">fr.softsf.canscan.CanScan.draw</text>
<text text-anchor="middle" x="711.5" y="-734.5" font-family="Helvetica,sans-Serif" font-size="10.00">RoundedFinderPatternAtPixel</text>
</a>
</g>
</g>
<!-- Node7&#45;&gt;Node8 -->
<g id="edge9_Node000007_Node000008" class="edge">
<title>Node7&#45;&gt;Node8</title>
<g id="a_edge9_Node000007_Node000008"><a xlink:title=" ">
<path fill="none" stroke="#63b8ff" d="M582.61,-744C595.28,-744 608.49,-744 621.4,-744"/>
<polygon fill="#63b8ff" stroke="#63b8ff" points="621.14,-747.5 631.14,-744 621.14,-740.5 621.14,-747.5"/>
</a>
</g>
</g>
<!-- Node9 -->
<g id="Node000009" class="node">
<title>Node9</title>
<g id="a_Node000009"><a xlink:href="classfr_1_1softsf_1_1canscan_1_1_can_scan.html#a52d47c63db292c6e4c9170ff3f110372" target="_top" xlink:title="Draws a standard square QR code finder pattern at the specified pixel coordinates.">
<polygon fill="white" stroke="#666666" points="790,-848 633,-848 633,-816 790,-816 790,-848"/>
<text text-anchor="start" x="641" y="-834.5" font-family="Helvetica,sans-Serif" font-size="10.00">fr.softsf.canscan.CanScan.draw</text>
<text text-anchor="middle" x="711.5" y="-822.5" font-family="Helvetica,sans-Serif" font-size="10.00">SquareFinderPatternAtPixel</text>
</a>
</g>
</g>
<!-- Node7&#45;&gt;Node9 -->
<g id="edge11_Node000007_Node000009" class="edge">
<title>Node7&#45;&gt;Node9</title>
<g id="a_edge11_Node000007_Node000009"><a xlink:title=" ">
<path fill="none" stroke="#63b8ff" d="M536.23,-760.39C560.15,-772.59 594.11,-789.28 624.75,-802 632.74,-805.32 641.24,-808.59 649.67,-811.69"/>
<polygon fill="#63b8ff" stroke="#63b8ff" points="648.24,-814.89 658.84,-814.99 650.61,-808.31 648.24,-814.89"/>
</a>
</g>
</g>
<!-- Node7&#45;&gt;Node10 -->
<g id="edge13_Node000007_Node000010" class="edge">
<title>Node7&#45;&gt;Node10</title>
<g id="a_edge13_Node000007_Node000010"><a xlink:title=" ">
<path fill="none" stroke="#63b8ff" d="M582.84,-727.65C666.2,-710.1 787.89,-684.3 798.25,-681 895.11,-650.19 921.6,-643.72 1008.5,-591 1044.86,-568.94 1082.01,-536.88 1105.63,-515.05"/>
<polygon fill="#63b8ff" stroke="#63b8ff" points="1107.98,-517.65 1112.89,-508.26 1103.2,-512.54 1107.98,-517.65"/>
</a>
</g>
</g>
<!-- Node8&#45;&gt;Node4 -->
<g id="edge10_Node000008_Node000004" class="edge">
<title>Node8&#45;&gt;Node4</title>
<g id="a_edge10_Node000008_Node000004"><a xlink:title=" ">
<path fill="none" stroke="#63b8ff" d="M785.2,-760.44C801.82,-764.2 819.61,-768.22 836.65,-772.07"/>
<polygon fill="#63b8ff" stroke="#63b8ff" points="835.71,-775.45 846.24,-774.24 837.25,-768.62 835.71,-775.45"/>
</a>
</g>
</g>
<!-- Node9&#45;&gt;Node4 -->
<g id="edge12_Node000009_Node000004" class="edge">
<title>Node9&#45;&gt;Node4</title>
<g id="a_edge12_Node000009_Node000004"><a xlink:title=" ">
<path fill="none" stroke="#63b8ff" d="M790.5,-816.62C801.93,-814.36 813.82,-812.02 825.55,-809.7"/>
<polygon fill="#63b8ff" stroke="#63b8ff" points="826.11,-813.16 835.24,-807.79 824.75,-806.29 826.11,-813.16"/>
</a>
</g>
</g>
<!-- Node10&#45;&gt;Node10 -->
<g id="edge14_Node000010_Node000010" class="edge">
<title>Node10&#45;&gt;Node10</title>
<g id="a_edge14_Node000010_Node000010"><a xlink:title=" ">
<path fill="none" stroke="#63b8ff" d="M1094.09,-507.44C1087.08,-516.58 1099.59,-525 1131.62,-525 1149.39,-525 1161.15,-522.41 1166.91,-518.54"/>
<polygon fill="#63b8ff" stroke="#63b8ff" points="1170.3,-519.42 1168.86,-508.93 1163.44,-518.03 1170.3,-519.42"/>
</a>
</g>
</g>
<!-- Node11&#45;&gt;Node4 -->
<g id="edge16_Node000011_Node000004" class="edge">
<title>Node11&#45;&gt;Node4</title>
<g id="a_edge16_Node000011_Node000004"><a xlink:title=" ">
<path fill="none" stroke="#63b8ff" d="M738.76,-672.44C756.55,-684.24 780.04,-701.15 798.25,-719 817.04,-737.42 812.53,-751.15 834.25,-766 836.03,-767.22 837.88,-768.38 839.77,-769.48"/>
<polygon fill="#63b8ff" stroke="#63b8ff" points="837.73,-772.37 848.22,-773.86 840.95,-766.16 837.73,-772.37"/>
</a>
</g>
</g>
<!-- Node11&#45;&gt;Node10 -->
<g id="edge17_Node000011_Node000010" class="edge">
<title>Node11&#45;&gt;Node10</title>
<g id="a_edge17_Node000011_Node000010"><a xlink:title=" ">
<path fill="none" stroke="#63b8ff" d="M758.96,-639.51C817.53,-618.52 921.1,-580.68 1008.5,-545 1033.79,-534.68 1061.68,-522.41 1084.41,-512.19"/>
<polygon fill="#63b8ff" stroke="#63b8ff" points="1085.74,-515.43 1093.41,-508.12 1082.85,-509.05 1085.74,-515.43"/>
</a>
</g>
</g>
<!-- Node12&#45;&gt;Node4 -->
<g id="edge19_Node000012_Node000004" class="edge">
<title>Node12&#45;&gt;Node4</title>
<g id="a_edge19_Node000012_Node000004"><a xlink:title=" ">
<path fill="none" stroke="#63b8ff" d="M581.99,-524.45C584.34,-525.85 586.6,-527.36 588.75,-529 614.69,-548.8 598.51,-573.59 624.75,-593 688.21,-639.95 741.19,-576.45 798.25,-631 843.14,-673.91 790.82,-721.61 834.25,-766 834.74,-766.5 835.25,-767 835.76,-767.48"/>
<polygon fill="#63b8ff" stroke="#63b8ff" points="833.53,-770.18 843.57,-773.57 837.83,-764.66 833.53,-770.18"/>
</a>
</g>
</g>
<!-- Node12&#45;&gt;Node10 -->
<g id="edge25_Node000012_Node000010" class="edge">
<title>Node12&#45;&gt;Node10</title>
<g id="a_edge25_Node000012_Node000010"><a xlink:title=" ">
<path fill="none" stroke="#63b8ff" d="M582.71,-491.91C596.67,-489.35 611.11,-486.92 624.75,-485 793.84,-461.17 838.61,-448.79 1008.5,-466 1022.74,-467.44 1037.78,-469.81 1052.24,-472.52"/>
<polygon fill="#63b8ff" stroke="#63b8ff" points="1051.2,-475.89 1061.69,-474.37 1052.54,-469.02 1051.2,-475.89"/>
</a>
</g>
</g>
<!-- Node13 -->
<g id="Node000013" class="node">
<title>Node13</title>
<g id="a_Node000013"><a xlink:href="classfr_1_1softsf_1_1canscan_1_1_can_scan.html#a27947dca81e478496f857b5a1b1fece1" target="_top" xlink:title="Draws a single QR code module at the specified coordinates with configured size and shape.">
<polygon fill="white" stroke="#666666" points="790,-584 633,-584 633,-552 790,-552 790,-584"/>
<text text-anchor="start" x="641" y="-570.5" font-family="Helvetica,sans-Serif" font-size="10.00">fr.softsf.canscan.CanScan.draw</text>
<text text-anchor="middle" x="711.5" y="-558.5" font-family="Helvetica,sans-Serif" font-size="10.00">Module</text>
</a>
</g>
</g>
<!-- Node12&#45;&gt;Node13 -->
<g id="edge20_Node000012_Node000013" class="edge">
<title>Node12&#45;&gt;Node13</title>
<g id="a_edge20_Node000012_Node000013"><a xlink:title=" ">
<path fill="none" stroke="#63b8ff" d="M561.28,-524.47C581.32,-530.33 604.04,-536.96 624.75,-543 630.85,-544.78 637.2,-546.63 643.56,-548.49"/>
<polygon fill="#63b8ff" stroke="#63b8ff" points="642.19,-551.73 652.77,-551.17 644.15,-545.01 642.19,-551.73"/>
</a>
</g>
</g>
<!-- Node14 -->
<g id="Node000014" class="node">
<title>Node14</title>
<g id="a_Node000014"><a xlink:href="classfr_1_1softsf_1_1canscan_1_1_can_scan.html#a484c9ff5ae69812c69d4318735f32130" target="_top" xlink:title="Encapsulates contextual data for module rendering decisions.">
<polygon fill="white" stroke="#666666" points="989.38,-507 853.38,-507 853.38,-475 989.38,-475 989.38,-507"/>
<text text-anchor="start" x="861.38" y="-493.5" font-family="Helvetica,sans-Serif" font-size="10.00">fr.softsf.canscan.CanScan.</text>
<text text-anchor="middle" x="921.38" y="-481.5" font-family="Helvetica,sans-Serif" font-size="10.00">ModuleContext</text>
</a>
</g>
</g>
<!-- Node12&#45;&gt;Node14 -->
<g id="edge23_Node000012_Node000014" class="edge">
<title>Node12&#45;&gt;Node14</title>
<g id="a_edge23_Node000012_Node000014"><a xlink:title=" ">
<path fill="none" stroke="#63b8ff" d="M582.77,-496.9C596.72,-495.3 611.15,-493.89 624.75,-493 698.24,-488.17 782.23,-488.13 841.86,-489.02"/>
<polygon fill="#63b8ff" stroke="#63b8ff" points="841.51,-492.52 851.56,-489.18 841.62,-485.52 841.51,-492.52"/>
</a>
</g>
</g>
<!-- Node15 -->
<g id="Node000015" class="node">
<title>Node15</title>
<g id="a_Node000015"><a xlink:href="classfr_1_1softsf_1_1canscan_1_1_can_scan.html#ad9893ec413ee4e8987dc7719d1bd9596" target="_top" xlink:title="Determines whether a QR code module should be skipped during rendering.">
<polygon fill="white" stroke="#666666" points="793.75,-534 629.25,-534 629.25,-502 793.75,-502 793.75,-534"/>
<text text-anchor="start" x="637.25" y="-520.5" font-family="Helvetica,sans-Serif" font-size="10.00">fr.softsf.canscan.CanScan.should</text>
<text text-anchor="middle" x="711.5" y="-508.5" font-family="Helvetica,sans-Serif" font-size="10.00">SkipModule</text>
</a>
</g>
</g>
<!-- Node12&#45;&gt;Node15 -->
<g id="edge26_Node000012_Node000015" class="edge">
<title>Node12&#45;&gt;Node15</title>
<g id="a_edge26_Node000012_Node000015"><a xlink:title=" ">
<path fill="none" stroke="#63b8ff" d="M582.61,-511.78C594.08,-512.34 605.98,-512.92 617.71,-513.49"/>
<polygon fill="#63b8ff" stroke="#63b8ff" points="617.21,-516.97 627.37,-513.96 617.55,-509.98 617.21,-516.97"/>
</a>
</g>
</g>
<!-- Node13&#45;&gt;Node4 -->
<g id="edge21_Node000013_Node000004" class="edge">
<title>Node13&#45;&gt;Node4</title>
<g id="a_edge21_Node000013_Node000004"><a xlink:title=" ">
<path fill="none" stroke="#63b8ff" d="M781.25,-584.46C787.61,-588.1 793.45,-592.56 798.25,-598 848.75,-655.27 782.22,-710.11 834.25,-766 834.73,-766.52 835.22,-767.02 835.72,-767.52"/>
<polygon fill="#63b8ff" stroke="#63b8ff" points="833.42,-770.16 843.4,-773.73 837.83,-764.72 833.42,-770.16"/>
</a>
</g>
</g>
<!-- Node13&#45;&gt;Node10 -->
<g id="edge22_Node000013_Node000010" class="edge">
<title>Node13&#45;&gt;Node10</title>
<g id="a_edge22_Node000013_Node000010"><a xlink:title=" ">
<path fill="none" stroke="#63b8ff" d="M790.2,-554.96C849.97,-544.79 934.56,-530.06 1008.5,-516 1022.65,-513.31 1037.69,-510.33 1052.21,-507.39"/>
<polygon fill="#63b8ff" stroke="#63b8ff" points="1052.6,-510.88 1061.7,-505.46 1051.2,-504.02 1052.6,-510.88"/>
</a>
</g>
</g>
<!-- Node14&#45;&gt;Node10 -->
<g id="edge24_Node000014_Node000010" class="edge">
<title>Node14&#45;&gt;Node10</title>
<g id="a_edge24_Node000014_Node000010"><a xlink:title=" ">
<path fill="none" stroke="#63b8ff" d="M989.7,-491C1009.46,-491 1031.25,-491 1051.67,-491"/>
<polygon fill="#63b8ff" stroke="#63b8ff" points="1051.66,-494.5 1061.66,-491 1051.66,-487.5 1051.66,-494.5"/>
</a>
</g>
</g>
<!-- Node15&#45;&gt;Node4 -->
<g id="edge27_Node000015_Node000004" class="edge">
<title>Node15&#45;&gt;Node4</title>
<g id="a_edge27_Node000015_Node000004"><a xlink:title=" ">
<path fill="none" stroke="#63b8ff" d="M788.56,-534.42C792.1,-536.9 795.38,-539.75 798.25,-543 864.72,-618.24 767.74,-690.8 834.25,-766 834.61,-766.41 834.98,-766.81 835.35,-767.21"/>
<polygon fill="#63b8ff" stroke="#63b8ff" points="832.97,-769.77 842.84,-773.62 837.52,-764.45 832.97,-769.77"/>
</a>
</g>
</g>
<!-- Node15&#45;&gt;Node14 -->
<g id="edge32_Node000015_Node000014" class="edge">
<title>Node15&#45;&gt;Node14</title>
<g id="a_edge32_Node000015_Node000014"><a xlink:title=" ">
<path fill="none" stroke="#63b8ff" d="M794.06,-507.41C809.8,-505.36 826.27,-503.22 841.91,-501.19"/>
<polygon fill="#63b8ff" stroke="#63b8ff" points="842.16,-504.69 851.63,-499.93 841.26,-497.75 842.16,-504.69"/>
</a>
</g>
</g>
<!-- Node16 -->
<g id="Node000016" class="node">
<title>Node16</title>
<g id="a_Node000016"><a xlink:href="classfr_1_1softsf_1_1canscan_1_1_can_scan.html#a940bd22cc9e8523e3f60bf19efb91129" target="_top" xlink:title="Determines whether the given coordinates fall within any of the three QR code position patterns.">
<polygon fill="white" stroke="#666666" points="993.12,-757 849.62,-757 849.62,-725 993.12,-725 993.12,-757"/>
<text text-anchor="start" x="857.62" y="-743.5" font-family="Helvetica,sans-Serif" font-size="10.00">fr.softsf.canscan.CanScan.is</text>
<text text-anchor="middle" x="921.38" y="-731.5" font-family="Helvetica,sans-Serif" font-size="10.00">InPositionPattern</text>
</a>
</g>
</g>
<!-- Node15&#45;&gt;Node16 -->
<g id="edge28_Node000015_Node000016" class="edge">
<title>Node15&#45;&gt;Node16</title>
<g id="a_edge28_Node000015_Node000016"><a xlink:title=" ">
<path fill="none" stroke="#63b8ff" d="M784.23,-534.37C789.19,-536.85 793.93,-539.71 798.25,-543 857.55,-588.17 894.83,-671.13 911.01,-713.91"/>
<polygon fill="#63b8ff" stroke="#63b8ff" points="907.68,-715 914.41,-723.18 914.25,-712.59 907.68,-715"/>
</a>
</g>
</g>
<!-- Node17 -->
<g id="Node000017" class="node">
<title>Node17</title>
<g id="a_Node000017"><a xlink:href="classfr_1_1softsf_1_1canscan_1_1_can_scan.html#abf3dc1201aa081507d7a0229e3c798e4" target="_top" xlink:title="Checks if coordinates are within the bottom&#45;left position pattern.">
<polygon fill="white" stroke="#666666" points="1203.38,-682 1059.88,-682 1059.88,-650 1203.38,-650 1203.38,-682"/>
<text text-anchor="start" x="1067.88" y="-668.5" font-family="Helvetica,sans-Serif" font-size="10.00">fr.softsf.canscan.CanScan.is</text>
<text text-anchor="middle" x="1131.62" y="-656.5" font-family="Helvetica,sans-Serif" font-size="10.00">InBottomLeftPattern</text>
</a>
</g>
</g>
<!-- Node16&#45;&gt;Node17 -->
<g id="edge29_Node000016_Node000017" class="edge">
<title>Node16&#45;&gt;Node17</title>
<g id="a_edge29_Node000016_Node000017"><a xlink:title=" ">
<path fill="none" stroke="#63b8ff" d="M973.95,-724.66C985.47,-720.56 997.52,-715.92 1008.5,-711 1025.2,-703.52 1027.6,-698.04 1044.5,-691 1048.59,-689.3 1052.83,-687.66 1057.14,-686.11"/>
<polygon fill="#63b8ff" stroke="#63b8ff" points="1058.2,-689.44 1066.52,-682.88 1055.93,-682.82 1058.2,-689.44"/>
</a>
</g>
</g>
<!-- Node18 -->
<g id="Node000018" class="node">
<title>Node18</title>
<g id="a_Node000018"><a xlink:href="classfr_1_1softsf_1_1canscan_1_1_can_scan.html#a169bc46f13cb9990c8629fdd13abf182" target="_top" xlink:title="Checks if coordinates are within the top&#45;left position pattern.">
<polygon fill="white" stroke="#666666" points="1203.38,-782 1059.88,-782 1059.88,-750 1203.38,-750 1203.38,-782"/>
<text text-anchor="start" x="1067.88" y="-768.5" font-family="Helvetica,sans-Serif" font-size="10.00">fr.softsf.canscan.CanScan.is</text>
<text text-anchor="middle" x="1131.62" y="-756.5" font-family="Helvetica,sans-Serif" font-size="10.00">InTopLeftPattern</text>
</a>
</g>
</g>
<!-- Node16&#45;&gt;Node18 -->
<g id="edge30_Node000016_Node000018" class="edge">
<title>Node16&#45;&gt;Node18</title>
<g id="a_edge30_Node000016_Node000018"><a xlink:title=" ">
<path fill="none" stroke="#63b8ff" d="M993.46,-749.53C1011.04,-751.64 1030.02,-753.92 1048.09,-756.09"/>
<polygon fill="#63b8ff" stroke="#63b8ff" points="1047.66,-759.57 1058,-757.28 1048.49,-752.61 1047.66,-759.57"/>
</a>
</g>
</g>
<!-- Node19 -->
<g id="Node000019" class="node">
<title>Node19</title>
<g id="a_Node000019"><a xlink:href="classfr_1_1softsf_1_1canscan_1_1_can_scan.html#a12dfb700fa0b93fec09bf799ef2a917f" target="_top" xlink:title="Checks if coordinates are within the top&#45;right position pattern.">
<polygon fill="white" stroke="#666666" points="1203.38,-732 1059.88,-732 1059.88,-700 1203.38,-700 1203.38,-732"/>
<text text-anchor="start" x="1067.88" y="-718.5" font-family="Helvetica,sans-Serif" font-size="10.00">fr.softsf.canscan.CanScan.is</text>
<text text-anchor="middle" x="1131.62" y="-706.5" font-family="Helvetica,sans-Serif" font-size="10.00">InTopRightPattern</text>
</a>
</g>
</g>
<!-- Node16&#45;&gt;Node19 -->
<g id="edge31_Node000016_Node000019" class="edge">
<title>Node16&#45;&gt;Node19</title>
<g id="a_edge31_Node000016_Node000019"><a xlink:title=" ">
<path fill="none" stroke="#63b8ff" d="M993.46,-732.47C1011.04,-730.36 1030.02,-728.08 1048.09,-725.91"/>
<polygon fill="#63b8ff" stroke="#63b8ff" points="1048.49,-729.39 1058,-724.72 1047.66,-722.43 1048.49,-729.39"/>
</a>
</g>
</g>
<!-- Node21&#45;&gt;Node4 -->
<g id="edge35_Node000021_Node000004" class="edge">
<title>Node21&#45;&gt;Node4</title>
<g id="a_edge35_Node000021_Node000004"><a xlink:title=" ">
<path fill="none" stroke="#63b8ff" d="M577.09,-964.73C639.11,-967.32 729.18,-963.29 798.25,-928 847.41,-902.89 885.96,-849.02 905.75,-816.82"/>
<polygon fill="#63b8ff" stroke="#63b8ff" points="908.61,-818.87 910.73,-808.49 902.6,-815.27 908.61,-818.87"/>
</a>
</g>
</g>
<!-- Node23&#45;&gt;Node20 -->
<g id="edge39_Node000023_Node000020" class="edge">
<title>Node23&#45;&gt;Node20</title>
<g id="a_edge39_Node000023_Node000020"><a xlink:title=" ">
<path fill="none" stroke="#63b8ff" d="M572.49,-375.56C591.46,-370.95 612.25,-365.89 631.81,-361.13"/>
<polygon fill="#63b8ff" stroke="#63b8ff" points="632.48,-364.57 641.37,-358.81 630.83,-357.77 632.48,-364.57"/>
</a>
</g>
</g>
<!-- Node23&#45;&gt;Node22 -->
<g id="edge40_Node000023_Node000022" class="edge">
<title>Node23&#45;&gt;Node22</title>
<g id="a_edge40_Node000023_Node000022"><a xlink:title=" ">
<path fill="none" stroke="#63b8ff" d="M589.1,-392C600.95,-392 613.15,-392 625.02,-392"/>
<polygon fill="#63b8ff" stroke="#63b8ff" points="624.77,-395.5 634.77,-392 624.77,-388.5 624.77,-395.5"/>
</a>
</g>
</g>
</g>
</svg>
