<?xml version="1.0" encoding="UTF-8" standalone="no"?>
<!DOCTYPE svg PUBLIC "-//W3C//DTD SVG 1.1//EN"
 "http://www.w3.org/Graphics/SVG/1.1/DTD/svg11.dtd">
<!-- Generated by graphviz version 12.2.1 (20241206.2353)
 -->
<!-- Title: fr.softsf.canscan.CanScan.addNorthPanelModeSelection Pages: 1 -->
<svg width="797pt" height="290pt"
 viewBox="0.00 0.00 796.50 290.00" xmlns="http://www.w3.org/2000/svg" xmlns:xlink="http://www.w3.org/1999/xlink">
<g id="graph0" class="graph" transform="scale(1 1) rotate(0) translate(4 286)">
<title>fr.softsf.canscan.CanScan.addNorthPanelModeSelection</title>
<!-- Node1 -->
<g id="Node000001" class="node">
<title>Node1</title>
<g id="a_Node000001"><a xlink:title="Adds mode selection controls (MECARD/MEET/FREE) to the north panel.">
<polygon fill="#999999" stroke="#666666" points="151.75,-141 0,-141 0,-109 151.75,-109 151.75,-141"/>
<text text-anchor="start" x="8" y="-127.5" font-family="Helvetica,sans-Serif" font-size="10.00">fr.softsf.canscan.CanScan.add</text>
<text text-anchor="middle" x="75.88" y="-115.5" font-family="Helvetica,sans-Serif" font-size="10.00">NorthPanelModeSelection</text>
</a>
</g>
</g>
<!-- Node2 -->
<g id="Node000002" class="node">
<title>Node2</title>
<g id="a_Node000002"><a xlink:href="classfr_1_1softsf_1_1canscan_1_1_can_scan.html#a381579d3adc53b1122b38e7fda5c0235" target="_top" xlink:title="Configures the update button for version checking.">
<polygon fill="white" stroke="#666666" points="369.88,-163 194.12,-163 194.12,-131 369.88,-131 369.88,-163"/>
<text text-anchor="start" x="202.12" y="-149.5" font-family="Helvetica,sans-Serif" font-size="10.00">fr.softsf.canscan.CanScan.configure</text>
<text text-anchor="middle" x="282" y="-137.5" font-family="Helvetica,sans-Serif" font-size="10.00">UpdateButton</text>
</a>
</g>
</g>
<!-- Node1&#45;&gt;Node2 -->
<g id="edge1_Node000001_Node000002" class="edge">
<title>Node1&#45;&gt;Node2</title>
<g id="a_edge1_Node000001_Node000002"><a xlink:title=" ">
<path fill="none" stroke="#63b8ff" d="M152.01,-133.1C162.03,-134.18 172.42,-135.3 182.76,-136.41"/>
<polygon fill="#63b8ff" stroke="#63b8ff" points="182.12,-139.86 192.43,-137.45 182.87,-132.9 182.12,-139.86"/>
</a>
</g>
</g>
<!-- Node3 -->
<g id="Node000003" class="node">
<title>Node3</title>
<g id="a_Node000003"><a xlink:href="classfr_1_1softsf_1_1canscan_1_1_can_scan.html#a428c742b098fa27d4c8984c1030c238d" target="_top" xlink:title="Switches between MECARD, MEET, and FREE modes, updating the panel and QR preview.">
<polygon fill="white" stroke="#666666" points="376.25,-113 187.75,-113 187.75,-93 376.25,-93 376.25,-113"/>
<text text-anchor="middle" x="282" y="-99.5" font-family="Helvetica,sans-Serif" font-size="10.00">fr.softsf.canscan.CanScan.switchMode</text>
</a>
</g>
</g>
<!-- Node1&#45;&gt;Node3 -->
<g id="edge2_Node000001_Node000003" class="edge">
<title>Node1&#45;&gt;Node3</title>
<g id="a_edge2_Node000001_Node000003"><a xlink:title=" ">
<path fill="none" stroke="#63b8ff" d="M152.01,-116.9C159.82,-116.06 167.85,-115.2 175.9,-114.33"/>
<polygon fill="#63b8ff" stroke="#63b8ff" points="176.21,-117.81 185.78,-113.26 175.46,-110.85 176.21,-117.81"/>
</a>
</g>
</g>
<!-- Node4 -->
<g id="Node000004" class="node">
<title>Node4</title>
<g id="a_Node000004"><a xlink:href="classfr_1_1softsf_1_1canscan_1_1_can_scan.html#a180290bc488e2346592ded98ccc4b1f3" target="_top" xlink:title="Collects current input and visual settings into a WholeFields for QR code generation.">
<polygon fill="white" stroke="#666666" points="569.62,-175 420.12,-175 420.12,-143 569.62,-143 569.62,-175"/>
<text text-anchor="start" x="428.12" y="-161.5" font-family="Helvetica,sans-Serif" font-size="10.00">fr.softsf.canscan.CanScan.get</text>
<text text-anchor="middle" x="494.88" y="-149.5" font-family="Helvetica,sans-Serif" font-size="10.00">QrInput</text>
</a>
</g>
</g>
<!-- Node3&#45;&gt;Node4 -->
<g id="edge3_Node000003_Node000004" class="edge">
<title>Node3&#45;&gt;Node4</title>
<g id="a_edge3_Node000003_Node000004"><a xlink:title=" ">
<path fill="none" stroke="#63b8ff" d="M338.94,-113.41C351.28,-115.99 364.25,-118.9 376.25,-122 395.39,-126.95 416.03,-133.14 434.6,-139.04"/>
<polygon fill="#63b8ff" stroke="#63b8ff" points="433.53,-142.37 444.12,-142.1 435.67,-135.7 433.53,-142.37"/>
</a>
</g>
</g>
<!-- Node10 -->
<g id="Node000010" class="node">
<title>Node10</title>
<g id="a_Node000010"><a xlink:href="enumfr_1_1softsf_1_1canscan_1_1model_1_1_mode.html#a16a898a11ca939056bd7b275f11ea54c" target="_top" xlink:title="Returns the mode label.">
<polygon fill="white" stroke="#666666" points="555.75,-119 434,-119 434,-87 555.75,-87 555.75,-119"/>
<text text-anchor="start" x="442" y="-105.5" font-family="Helvetica,sans-Serif" font-size="10.00">fr.softsf.canscan.model.</text>
<text text-anchor="middle" x="494.88" y="-93.5" font-family="Helvetica,sans-Serif" font-size="10.00">Mode.text</text>
</a>
</g>
</g>
<!-- Node3&#45;&gt;Node10 -->
<g id="edge9_Node000003_Node000010" class="edge">
<title>Node3&#45;&gt;Node10</title>
<g id="a_edge9_Node000003_Node000010"><a xlink:title=" ">
<path fill="none" stroke="#63b8ff" d="M376.72,-103C392,-103 407.61,-103 422.24,-103"/>
<polygon fill="#63b8ff" stroke="#63b8ff" points="422.23,-106.5 432.23,-103 422.23,-99.5 422.23,-106.5"/>
</a>
</g>
</g>
<!-- Node11 -->
<g id="Node000011" class="node">
<title>Node11</title>
<g id="a_Node000011"><a xlink:href="classfr_1_1softsf_1_1canscan_1_1_can_scan.html#a11fd9295c4843e6e68f9d1e4a710b906" target="_top" xlink:title="Enables or disables the &quot;Generate&quot; button based on required fields for the current mode.">
<polygon fill="white" stroke="#666666" points="577.5,-57 412.25,-57 412.25,-25 577.5,-25 577.5,-57"/>
<text text-anchor="start" x="420.25" y="-43.5" font-family="Helvetica,sans-Serif" font-size="10.00">fr.softsf.canscan.CanScan.update</text>
<text text-anchor="middle" x="494.88" y="-31.5" font-family="Helvetica,sans-Serif" font-size="10.00">GenerateButtonState</text>
</a>
</g>
</g>
<!-- Node3&#45;&gt;Node11 -->
<g id="edge10_Node000003_Node000011" class="edge">
<title>Node3&#45;&gt;Node11</title>
<g id="a_edge10_Node000003_Node000011"><a xlink:title=" ">
<path fill="none" stroke="#63b8ff" d="M318.3,-92.62C347.83,-83.94 390.82,-71.3 426.86,-60.7"/>
<polygon fill="#63b8ff" stroke="#63b8ff" points="427.74,-64.09 436.35,-57.91 425.77,-57.38 427.74,-64.09"/>
</a>
</g>
</g>
<!-- Node5 -->
<g id="Node000005" class="node">
<title>Node5</title>
<g id="a_Node000005"><a xlink:href="classfr_1_1softsf_1_1canscan_1_1_can_scan.html#a381368b99c4a0857c6abe6349b2c6d27" target="_top" xlink:title="Calculates the available height for QR code rendering.">
<polygon fill="white" stroke="#666666" points="788.5,-282 613.5,-282 613.5,-250 788.5,-250 788.5,-282"/>
<text text-anchor="start" x="621.5" y="-268.5" font-family="Helvetica,sans-Serif" font-size="10.00">fr.softsf.canscan.CanScan.calculate</text>
<text text-anchor="middle" x="701" y="-256.5" font-family="Helvetica,sans-Serif" font-size="10.00">AvailableQrCodeLabelHeight</text>
</a>
</g>
</g>
<!-- Node4&#45;&gt;Node5 -->
<g id="edge4_Node000004_Node000005" class="edge">
<title>Node4&#45;&gt;Node5</title>
<g id="a_edge4_Node000004_Node000005"><a xlink:title=" ">
<path fill="none" stroke="#63b8ff" d="M515.03,-175.35C537.35,-193.66 575.98,-223.1 613.5,-241 616.82,-242.58 620.25,-244.08 623.76,-245.51"/>
<polygon fill="#63b8ff" stroke="#63b8ff" points="622.43,-248.75 633.02,-249.01 624.9,-242.2 622.43,-248.75"/>
</a>
</g>
</g>
<!-- Node6 -->
<g id="Node000006" class="node">
<title>Node6</title>
<g id="a_Node000006"><a xlink:href="classfr_1_1softsf_1_1canscan_1_1_can_scan.html#a4e67b1b5c764e72414a5c0f387810f5c" target="_top" xlink:title="Validates and returns the current QR code margin from the margin slider.">
<polygon fill="white" stroke="#666666" points="785.88,-232 616.12,-232 616.12,-200 785.88,-200 785.88,-232"/>
<text text-anchor="start" x="624.12" y="-218.5" font-family="Helvetica,sans-Serif" font-size="10.00">fr.softsf.canscan.CanScan.validate</text>
<text text-anchor="middle" x="701" y="-206.5" font-family="Helvetica,sans-Serif" font-size="10.00">AndGetMargin</text>
</a>
</g>
</g>
<!-- Node4&#45;&gt;Node6 -->
<g id="edge5_Node000004_Node000006" class="edge">
<title>Node4&#45;&gt;Node6</title>
<g id="a_edge5_Node000004_Node000006"><a xlink:title=" ">
<path fill="none" stroke="#63b8ff" d="M554.92,-175.49C578.4,-182.04 605.61,-189.64 630.07,-196.47"/>
<polygon fill="#63b8ff" stroke="#63b8ff" points="629.06,-199.82 639.63,-199.14 630.94,-193.08 629.06,-199.82"/>
</a>
</g>
</g>
<!-- Node7 -->
<g id="Node000007" class="node">
<title>Node7</title>
<g id="a_Node000007"><a xlink:href="classfr_1_1softsf_1_1canscan_1_1_can_scan.html#a8a2b238ac4af96d8710b3e5d7d051f77" target="_top" xlink:title="Validates and returns the current meet UID from the meet title field.">
<polygon fill="white" stroke="#666666" points="785.88,-182 616.12,-182 616.12,-150 785.88,-150 785.88,-182"/>
<text text-anchor="start" x="624.12" y="-168.5" font-family="Helvetica,sans-Serif" font-size="10.00">fr.softsf.canscan.CanScan.validate</text>
<text text-anchor="middle" x="701" y="-156.5" font-family="Helvetica,sans-Serif" font-size="10.00">AndGetMeetUID</text>
</a>
</g>
</g>
<!-- Node4&#45;&gt;Node7 -->
<g id="edge6_Node000004_Node000007" class="edge">
<title>Node4&#45;&gt;Node7</title>
<g id="a_edge6_Node000004_Node000007"><a xlink:title=" ">
<path fill="none" stroke="#63b8ff" d="M569.86,-161.54C581.18,-161.93 593.01,-162.33 604.72,-162.73"/>
<polygon fill="#63b8ff" stroke="#63b8ff" points="604.26,-166.22 614.37,-163.06 604.5,-159.22 604.26,-166.22"/>
</a>
</g>
</g>
<!-- Node8 -->
<g id="Node000008" class="node">
<title>Node8</title>
<g id="a_Node000008"><a xlink:href="classfr_1_1softsf_1_1canscan_1_1_can_scan.html#a9e8188875168199cde065113ae2a393d" target="_top" xlink:title="Validates and returns the current image&#45;to&#45;QR ratio from the ratio slider.">
<polygon fill="white" stroke="#666666" points="785.88,-132 616.12,-132 616.12,-100 785.88,-100 785.88,-132"/>
<text text-anchor="start" x="624.12" y="-118.5" font-family="Helvetica,sans-Serif" font-size="10.00">fr.softsf.canscan.CanScan.validate</text>
<text text-anchor="middle" x="701" y="-106.5" font-family="Helvetica,sans-Serif" font-size="10.00">AndGetRatio</text>
</a>
</g>
</g>
<!-- Node4&#45;&gt;Node8 -->
<g id="edge7_Node000004_Node000008" class="edge">
<title>Node4&#45;&gt;Node8</title>
<g id="a_edge7_Node000004_Node000008"><a xlink:title=" ">
<path fill="none" stroke="#63b8ff" d="M569.86,-143.42C583.18,-140.61 597.2,-137.66 610.9,-134.77"/>
<polygon fill="#63b8ff" stroke="#63b8ff" points="611.25,-138.27 620.32,-132.79 609.81,-131.42 611.25,-138.27"/>
</a>
</g>
</g>
<!-- Node9 -->
<g id="Node000009" class="node">
<title>Node9</title>
<g id="a_Node000009"><a xlink:href="classfr_1_1softsf_1_1canscan_1_1_can_scan.html#a6d139bb8d0a3c7081096c8956189b684" target="_top" xlink:title="Validates and returns the QR code size from the corresponding text field.">
<polygon fill="white" stroke="#666666" points="785.88,-82 616.12,-82 616.12,-50 785.88,-50 785.88,-82"/>
<text text-anchor="start" x="624.12" y="-68.5" font-family="Helvetica,sans-Serif" font-size="10.00">fr.softsf.canscan.CanScan.validate</text>
<text text-anchor="middle" x="701" y="-56.5" font-family="Helvetica,sans-Serif" font-size="10.00">AndGetSize</text>
</a>
</g>
</g>
<!-- Node4&#45;&gt;Node9 -->
<g id="edge8_Node000004_Node000009" class="edge">
<title>Node4&#45;&gt;Node9</title>
<g id="a_edge8_Node000004_Node000009"><a xlink:title=" ">
<path fill="none" stroke="#63b8ff" d="M549.34,-142.55C559.09,-138.5 568.88,-133.66 577.5,-128 596.68,-115.41 593.82,-102.8 613.5,-91 615.68,-89.69 617.93,-88.45 620.23,-87.27"/>
<polygon fill="#63b8ff" stroke="#63b8ff" points="621.63,-90.48 629.25,-83.12 618.71,-84.12 621.63,-90.48"/>
</a>
</g>
</g>
<!-- Node12 -->
<g id="Node000012" class="node">
<title>Node12</title>
<g id="a_Node000012"><a xlink:href="classfr_1_1softsf_1_1canscan_1_1_can_scan.html#a3ce6e8b8bd62f20e8e8b9a744976c695" target="_top" xlink:title="Determines whether the &quot;Generate&quot; button should be disabled for the current mode.">
<polygon fill="white" stroke="#666666" points="783.25,-32 618.75,-32 618.75,0 783.25,0 783.25,-32"/>
<text text-anchor="start" x="626.75" y="-18.5" font-family="Helvetica,sans-Serif" font-size="10.00">fr.softsf.canscan.CanScan.should</text>
<text text-anchor="middle" x="701" y="-6.5" font-family="Helvetica,sans-Serif" font-size="10.00">DisableGenerateButton</text>
</a>
</g>
</g>
<!-- Node11&#45;&gt;Node12 -->
<g id="edge11_Node000011_Node000012" class="edge">
<title>Node11&#45;&gt;Node12</title>
<g id="a_edge11_Node000011_Node000012"><a xlink:title=" ">
<path fill="none" stroke="#63b8ff" d="M577.72,-30.98C587.37,-29.79 597.27,-28.58 607.05,-27.38"/>
<polygon fill="#63b8ff" stroke="#63b8ff" points="607.46,-30.86 616.96,-26.17 606.61,-23.91 607.46,-30.86"/>
</a>
</g>
</g>
</g>
</svg>
