<?xml version="1.0" encoding="UTF-8" standalone="no"?>
<!DOCTYPE svg PUBLIC "-//W3C//DTD SVG 1.1//EN"
 "http://www.w3.org/Graphics/SVG/1.1/DTD/svg11.dtd">
<!-- Generated by graphviz version 12.2.1 (20241206.2353)
 -->
<!-- Title: fr.softsf.canscan.CanScan.main Pages: 1 -->
<svg width="1416pt" height="451pt"
 viewBox="0.00 0.00 1416.00 451.00" xmlns="http://www.w3.org/2000/svg" xmlns:xlink="http://www.w3.org/1999/xlink">
<g id="graph0" class="graph" transform="scale(1 1) rotate(0) translate(4 447)">
<title>fr.softsf.canscan.CanScan.main</title>
<!-- Node1 -->
<g id="Node000001" class="node">
<title>Node1</title>
<g id="a_Node000001"><a xlink:title="Application entry point.">
<polygon fill="#999999" stroke="#666666" points="157,-180 0,-180 0,-160 157,-160 157,-180"/>
<text text-anchor="middle" x="78.5" y="-166.5" font-family="Helvetica,sans-Serif" font-size="10.00">fr.softsf.canscan.CanScan.main</text>
</a>
</g>
</g>
<!-- Node2 -->
<g id="Node000002" class="node">
<title>Node2</title>
<g id="a_Node000002"><a xlink:href="classfr_1_1softsf_1_1canscan_1_1_can_scan.html#a102bcbc6cda608b642e870ba3fde6344" target="_top" xlink:title="Constructs the CanScan GUI, setting up layout, panels, inputs, and QR preview.">
<polygon fill="white" stroke="#666666" points="329,-186 193,-186 193,-154 329,-154 329,-186"/>
<text text-anchor="start" x="201" y="-172.5" font-family="Helvetica,sans-Serif" font-size="10.00">fr.softsf.canscan.CanScan.</text>
<text text-anchor="middle" x="261" y="-160.5" font-family="Helvetica,sans-Serif" font-size="10.00">CanScan</text>
</a>
</g>
</g>
<!-- Node1&#45;&gt;Node2 -->
<g id="edge1_Node000001_Node000002" class="edge">
<title>Node1&#45;&gt;Node2</title>
<g id="a_edge1_Node000001_Node000002"><a xlink:title=" ">
<path fill="none" stroke="#63b8ff" d="M157.36,-170C165.24,-170 173.26,-170 181.15,-170"/>
<polygon fill="#63b8ff" stroke="#63b8ff" points="181.09,-173.5 191.09,-170 181.09,-166.5 181.09,-173.5"/>
</a>
</g>
</g>
<!-- Node3 -->
<g id="Node000003" class="node">
<title>Node3</title>
<g id="a_Node000003"><a xlink:href="classfr_1_1softsf_1_1canscan_1_1_can_scan.html#a070115929fdc69b249d21866a00a47cc" target="_top" xlink:title="Assigns stable component names for testing and native&#45;image configuration.">
<polygon fill="white" stroke="#666666" points="536.25,-299 365,-299 365,-267 536.25,-267 536.25,-299"/>
<text text-anchor="start" x="373" y="-285.5" font-family="Helvetica,sans-Serif" font-size="10.00">fr.softsf.canscan.CanScan.initialize</text>
<text text-anchor="middle" x="450.62" y="-273.5" font-family="Helvetica,sans-Serif" font-size="10.00">ComponentNames</text>
</a>
</g>
</g>
<!-- Node2&#45;&gt;Node3 -->
<g id="edge2_Node000002_Node000003" class="edge">
<title>Node2&#45;&gt;Node3</title>
<g id="a_edge2_Node000002_Node000003"><a xlink:title=" ">
<path fill="none" stroke="#63b8ff" d="M278.55,-186.34C297.89,-204.67 331.52,-234.29 365,-253 371.07,-256.39 377.6,-259.51 384.24,-262.36"/>
<polygon fill="#63b8ff" stroke="#63b8ff" points="382.73,-265.52 393.31,-266.02 385.35,-259.03 382.73,-265.52"/>
</a>
</g>
</g>
<!-- Node4 -->
<g id="Node000004" class="node">
<title>Node4</title>
<g id="a_Node000004"><a xlink:href="classfr_1_1softsf_1_1canscan_1_1_can_scan.html#a14263ca931024d56cd9bed4af4b74c25" target="_top" xlink:title="Builds the main panel with header, QR preview overlay, and bottom spacer.">
<polygon fill="white" stroke="#666666" points="743.5,-372 572.25,-372 572.25,-340 743.5,-340 743.5,-372"/>
<text text-anchor="start" x="580.25" y="-358.5" font-family="Helvetica,sans-Serif" font-size="10.00">fr.softsf.canscan.CanScan.initialize</text>
<text text-anchor="middle" x="657.88" y="-346.5" font-family="Helvetica,sans-Serif" font-size="10.00">MainPanel</text>
</a>
</g>
</g>
<!-- Node2&#45;&gt;Node4 -->
<g id="edge3_Node000002_Node000004" class="edge">
<title>Node2&#45;&gt;Node4</title>
<g id="a_edge3_Node000002_Node000004"><a xlink:title=" ">
<path fill="none" stroke="#63b8ff" d="M290.97,-186.33C311.19,-197.15 339.1,-210.98 365,-220 438.62,-245.64 474.92,-209.86 536.25,-258 564.71,-280.34 544.58,-307.7 572.25,-331 573.22,-331.81 574.21,-332.6 575.22,-333.36"/>
<polygon fill="#63b8ff" stroke="#63b8ff" points="573.32,-336.3 583.63,-338.74 577.09,-330.4 573.32,-336.3"/>
</a>
</g>
</g>
<!-- Node14 -->
<g id="Node000014" class="node">
<title>Node14</title>
<g id="a_Node000014"><a xlink:href="classfr_1_1softsf_1_1canscan_1_1_can_scan.html#afb8d451dc5d6d9c7b6700e4b688c98a3" target="_top" xlink:title="Builds the north panel with mode selection, card panels, common fields, and generate button.">
<polygon fill="white" stroke="#666666" points="536.25,-211 365,-211 365,-179 536.25,-179 536.25,-211"/>
<text text-anchor="start" x="373" y="-197.5" font-family="Helvetica,sans-Serif" font-size="10.00">fr.softsf.canscan.CanScan.initialize</text>
<text text-anchor="middle" x="450.62" y="-185.5" font-family="Helvetica,sans-Serif" font-size="10.00">NorthPanel</text>
</a>
</g>
</g>
<!-- Node2&#45;&gt;Node14 -->
<g id="edge15_Node000002_Node000014" class="edge">
<title>Node2&#45;&gt;Node14</title>
<g id="a_edge15_Node000002_Node000014"><a xlink:title=" ">
<path fill="none" stroke="#63b8ff" d="M329.47,-178.99C337.26,-180.03 345.3,-181.1 353.37,-182.17"/>
<polygon fill="#63b8ff" stroke="#63b8ff" points="352.9,-185.64 363.27,-183.49 353.82,-178.7 352.9,-185.64"/>
</a>
</g>
</g>
<!-- Node30 -->
<g id="Node000030" class="node">
<title>Node30</title>
<g id="a_Node000030"><a xlink:href="classfr_1_1softsf_1_1canscan_1_1_can_scan.html#a4928478365bc812571ac037662cc5f6b" target="_top" xlink:title="Wraps the main panel in a scrollable container.">
<polygon fill="white" stroke="#666666" points="536.25,-161 365,-161 365,-129 536.25,-129 536.25,-161"/>
<text text-anchor="start" x="373" y="-147.5" font-family="Helvetica,sans-Serif" font-size="10.00">fr.softsf.canscan.CanScan.initialize</text>
<text text-anchor="middle" x="450.62" y="-135.5" font-family="Helvetica,sans-Serif" font-size="10.00">ScrollPane</text>
</a>
</g>
</g>
<!-- Node2&#45;&gt;Node30 -->
<g id="edge33_Node000002_Node000030" class="edge">
<title>Node2&#45;&gt;Node30</title>
<g id="a_edge33_Node000002_Node000030"><a xlink:title=" ">
<path fill="none" stroke="#63b8ff" d="M329.47,-161.01C337.26,-159.97 345.3,-158.9 353.37,-157.83"/>
<polygon fill="#63b8ff" stroke="#63b8ff" points="353.82,-161.3 363.27,-156.51 352.9,-154.36 353.82,-161.3"/>
</a>
</g>
</g>
<!-- Node31 -->
<g id="Node000031" class="node">
<title>Node31</title>
<g id="a_Node000031"><a xlink:href="classfr_1_1softsf_1_1canscan_1_1_can_scan.html#a358629f85831dc6cd4978c8854d88561" target="_top" xlink:title="Configures sliders for logo margin and ratio.">
<polygon fill="white" stroke="#666666" points="536.25,-111 365,-111 365,-79 536.25,-79 536.25,-111"/>
<text text-anchor="start" x="373" y="-97.5" font-family="Helvetica,sans-Serif" font-size="10.00">fr.softsf.canscan.CanScan.initialize</text>
<text text-anchor="middle" x="450.62" y="-85.5" font-family="Helvetica,sans-Serif" font-size="10.00">Sliders</text>
</a>
</g>
</g>
<!-- Node2&#45;&gt;Node31 -->
<g id="edge34_Node000002_Node000031" class="edge">
<title>Node2&#45;&gt;Node31</title>
<g id="a_edge34_Node000002_Node000031"><a xlink:title=" ">
<path fill="none" stroke="#63b8ff" d="M292.51,-153.55C312.7,-143.07 339.98,-129.69 365,-120 369.42,-118.29 374.01,-116.62 378.66,-115.02"/>
<polygon fill="#63b8ff" stroke="#63b8ff" points="379.74,-118.35 388.13,-111.88 377.54,-111.71 379.74,-118.35"/>
</a>
</g>
</g>
<!-- Node32 -->
<g id="Node000032" class="node">
<title>Node32</title>
<g id="a_Node000032"><a xlink:href="classfr_1_1softsf_1_1canscan_1_1_can_scan.html#a0a52159db640660477196e337ec62a9b" target="_top" xlink:title="Finalizes window layout: packs components, adjusts size for QR display and loader,...">
<polygon fill="white" stroke="#666666" points="536.25,-50 365,-50 365,-18 536.25,-18 536.25,-50"/>
<text text-anchor="start" x="373" y="-36.5" font-family="Helvetica,sans-Serif" font-size="10.00">fr.softsf.canscan.CanScan.initialize</text>
<text text-anchor="middle" x="450.62" y="-24.5" font-family="Helvetica,sans-Serif" font-size="10.00">Window</text>
</a>
</g>
</g>
<!-- Node2&#45;&gt;Node32 -->
<g id="edge35_Node000002_Node000032" class="edge">
<title>Node2&#45;&gt;Node32</title>
<g id="a_edge35_Node000002_Node000032"><a xlink:title=" ">
<path fill="none" stroke="#63b8ff" d="M275.5,-153.55C293.88,-132 328.67,-94.14 365,-70 373.31,-64.48 382.6,-59.51 391.91,-55.15"/>
<polygon fill="#63b8ff" stroke="#63b8ff" points="393.27,-58.37 400.98,-51.11 390.42,-51.98 393.27,-58.37"/>
</a>
</g>
</g>
<!-- Node5 -->
<g id="Node000005" class="node">
<title>Node5</title>
<g id="a_Node000005"><a xlink:href="classfr_1_1softsf_1_1canscan_1_1_can_scan.html#ad470e3c0750cf142dc611b1aeeda3a97" target="_top" xlink:title="Attaches automatic QR preview updates and input validation to all fields and controls.">
<polygon fill="white" stroke="#666666" points="972.5,-392 779.5,-392 779.5,-360 972.5,-360 972.5,-392"/>
<text text-anchor="start" x="787.5" y="-378.5" font-family="Helvetica,sans-Serif" font-size="10.00">fr.softsf.canscan.CanScan.automatic</text>
<text text-anchor="middle" x="876" y="-366.5" font-family="Helvetica,sans-Serif" font-size="10.00">QRCodeRenderingForFieldsAndControls</text>
</a>
</g>
</g>
<!-- Node4&#45;&gt;Node5 -->
<g id="edge4_Node000004_Node000005" class="edge">
<title>Node4&#45;&gt;Node5</title>
<g id="a_edge4_Node000004_Node000005"><a xlink:title=" ">
<path fill="none" stroke="#63b8ff" d="M743.98,-363.88C751.85,-364.6 759.89,-365.35 767.92,-366.09"/>
<polygon fill="#63b8ff" stroke="#63b8ff" points="767.46,-369.56 777.74,-367 768.11,-362.59 767.46,-369.56"/>
</a>
</g>
</g>
<!-- Node8 -->
<g id="Node000008" class="node">
<title>Node8</title>
<g id="a_Node000008"><a xlink:href="classfr_1_1softsf_1_1canscan_1_1_can_scan.html#a180290bc488e2346592ded98ccc4b1f3" target="_top" xlink:title="Collects current input and visual settings into a WholeFields for QR code generation.">
<polygon fill="white" stroke="#666666" points="1173.38,-304 1023.88,-304 1023.88,-272 1173.38,-272 1173.38,-304"/>
<text text-anchor="start" x="1031.88" y="-290.5" font-family="Helvetica,sans-Serif" font-size="10.00">fr.softsf.canscan.CanScan.get</text>
<text text-anchor="middle" x="1098.62" y="-278.5" font-family="Helvetica,sans-Serif" font-size="10.00">QrInput</text>
</a>
</g>
</g>
<!-- Node4&#45;&gt;Node8 -->
<g id="edge14_Node000004_Node000008" class="edge">
<title>Node4&#45;&gt;Node8</title>
<g id="a_edge14_Node000004_Node000008"><a xlink:title=" ">
<path fill="none" stroke="#63b8ff" d="M743.95,-345.76C807.15,-337.81 895.41,-325.97 972.5,-313 985.47,-310.82 999.16,-308.3 1012.53,-305.73"/>
<polygon fill="#63b8ff" stroke="#63b8ff" points="1013.03,-309.19 1022.17,-303.84 1011.69,-302.32 1013.03,-309.19"/>
</a>
</g>
</g>
<!-- Node6 -->
<g id="Node000006" class="node">
<title>Node6</title>
<g id="a_Node000006"><a xlink:href="enumfr_1_1softsf_1_1canscan_1_1ui_1_1_ui_components_configuration.html#afe8da76131acc9dd19a15d7f22ca9ef1" target="_top" xlink:title="Attaches a DocumentListener to a JTextField that:">
<polygon fill="white" stroke="#666666" points="1188.75,-443 1008.5,-443 1008.5,-399 1188.75,-399 1188.75,-443"/>
<text text-anchor="start" x="1016.5" y="-429.5" font-family="Helvetica,sans-Serif" font-size="10.00">fr.softsf.canscan.ui.UiComponents</text>
<text text-anchor="start" x="1016.5" y="-417.5" font-family="Helvetica,sans-Serif" font-size="10.00">Configuration.attachLimitedDocument</text>
<text text-anchor="middle" x="1098.62" y="-405.5" font-family="Helvetica,sans-Serif" font-size="10.00">Listener</text>
</a>
</g>
</g>
<!-- Node5&#45;&gt;Node6 -->
<g id="edge5_Node000005_Node000006" class="edge">
<title>Node5&#45;&gt;Node6</title>
<g id="a_edge5_Node000005_Node000006"><a xlink:title=" ">
<path fill="none" stroke="#63b8ff" d="M957.59,-392.44C970.47,-395.07 983.94,-397.81 997.22,-400.52"/>
<polygon fill="#63b8ff" stroke="#63b8ff" points="996.33,-403.91 1006.83,-402.48 997.73,-397.05 996.33,-403.91"/>
</a>
</g>
</g>
<!-- Node7 -->
<g id="Node000007" class="node">
<title>Node7</title>
<g id="a_Node000007"><a xlink:href="enumfr_1_1softsf_1_1canscan_1_1ui_1_1_ui_components_configuration.html#aa700d9f2a270f6e54fcb53111855fa44" target="_top" xlink:title="Creates a simple DocumentListener that executes the given action on any change to the document.">
<polygon fill="white" stroke="#666666" points="1408,-428 1224.75,-428 1224.75,-396 1408,-396 1408,-428"/>
<text text-anchor="start" x="1232.75" y="-414.5" font-family="Helvetica,sans-Serif" font-size="10.00">fr.softsf.canscan.ui.UiComponents</text>
<text text-anchor="middle" x="1316.38" y="-402.5" font-family="Helvetica,sans-Serif" font-size="10.00">Configuration.createDocumentListener</text>
</a>
</g>
</g>
<!-- Node5&#45;&gt;Node7 -->
<g id="edge7_Node000005_Node000007" class="edge">
<title>Node5&#45;&gt;Node7</title>
<g id="a_edge7_Node000005_Node000007"><a xlink:title=" ">
<path fill="none" stroke="#63b8ff" d="M972.75,-377.15C1034.55,-378.67 1116.58,-382.14 1188.75,-390 1198.34,-391.04 1208.3,-392.36 1218.24,-393.83"/>
<polygon fill="#63b8ff" stroke="#63b8ff" points="1217.51,-397.26 1227.92,-395.32 1218.57,-390.34 1217.51,-397.26"/>
</a>
</g>
</g>
<!-- Node5&#45;&gt;Node8 -->
<g id="edge8_Node000005_Node000008" class="edge">
<title>Node5&#45;&gt;Node8</title>
<g id="a_edge8_Node000005_Node000008"><a xlink:title=" ">
<path fill="none" stroke="#63b8ff" d="M933.73,-359.51C946.58,-355.41 960.1,-350.8 972.5,-346 1000.51,-335.16 1031.11,-321.02 1055.04,-309.41"/>
<polygon fill="#63b8ff" stroke="#63b8ff" points="1056.39,-312.65 1063.84,-305.11 1053.32,-306.36 1056.39,-312.65"/>
</a>
</g>
</g>
<!-- Node6&#45;&gt;Node7 -->
<g id="edge6_Node000006_Node000007" class="edge">
<title>Node6&#45;&gt;Node7</title>
<g id="a_edge6_Node000006_Node000007"><a xlink:title=" ">
<path fill="none" stroke="#63b8ff" d="M1189.25,-417.26C1197.03,-416.94 1204.94,-416.61 1212.81,-416.28"/>
<polygon fill="#63b8ff" stroke="#63b8ff" points="1212.94,-419.78 1222.78,-415.86 1212.64,-412.78 1212.94,-419.78"/>
</a>
</g>
</g>
<!-- Node9 -->
<g id="Node000009" class="node">
<title>Node9</title>
<g id="a_Node000009"><a xlink:href="classfr_1_1softsf_1_1canscan_1_1_can_scan.html#a381368b99c4a0857c6abe6349b2c6d27" target="_top" xlink:title="Calculates the available height for QR code rendering.">
<polygon fill="white" stroke="#666666" points="1403.88,-35 1228.88,-35 1228.88,-3 1403.88,-3 1403.88,-35"/>
<text text-anchor="start" x="1236.88" y="-21.5" font-family="Helvetica,sans-Serif" font-size="10.00">fr.softsf.canscan.CanScan.calculate</text>
<text text-anchor="middle" x="1316.38" y="-9.5" font-family="Helvetica,sans-Serif" font-size="10.00">AvailableQrCodeLabelHeight</text>
</a>
</g>
</g>
<!-- Node8&#45;&gt;Node9 -->
<g id="edge9_Node000008_Node000009" class="edge">
<title>Node8&#45;&gt;Node9</title>
<g id="a_edge9_Node000008_Node000009"><a xlink:title=" ">
<path fill="none" stroke="#63b8ff" d="M1112.23,-271.73C1130.85,-247.11 1165.98,-198.45 1188.75,-153 1209.91,-110.77 1191.57,-86.62 1224.75,-53 1229.36,-48.33 1234.68,-44.29 1240.38,-40.8"/>
<polygon fill="#63b8ff" stroke="#63b8ff" points="1241.82,-44 1248.94,-36.15 1238.48,-37.84 1241.82,-44"/>
</a>
</g>
</g>
<!-- Node10 -->
<g id="Node000010" class="node">
<title>Node10</title>
<g id="a_Node000010"><a xlink:href="classfr_1_1softsf_1_1canscan_1_1_can_scan.html#a4e67b1b5c764e72414a5c0f387810f5c" target="_top" xlink:title="Validates and returns the current QR code margin from the margin slider.">
<polygon fill="white" stroke="#666666" points="1401.25,-323 1231.5,-323 1231.5,-291 1401.25,-291 1401.25,-323"/>
<text text-anchor="start" x="1239.5" y="-309.5" font-family="Helvetica,sans-Serif" font-size="10.00">fr.softsf.canscan.CanScan.validate</text>
<text text-anchor="middle" x="1316.38" y="-297.5" font-family="Helvetica,sans-Serif" font-size="10.00">AndGetMargin</text>
</a>
</g>
</g>
<!-- Node8&#45;&gt;Node10 -->
<g id="edge10_Node000008_Node000010" class="edge">
<title>Node8&#45;&gt;Node10</title>
<g id="a_edge10_Node000008_Node000010"><a xlink:title=" ">
<path fill="none" stroke="#63b8ff" d="M1173.87,-294.54C1188.78,-295.85 1204.64,-297.25 1220.15,-298.61"/>
<polygon fill="#63b8ff" stroke="#63b8ff" points="1219.59,-302.08 1229.85,-299.47 1220.2,-295.1 1219.59,-302.08"/>
</a>
</g>
</g>
<!-- Node11 -->
<g id="Node000011" class="node">
<title>Node11</title>
<g id="a_Node000011"><a xlink:href="classfr_1_1softsf_1_1canscan_1_1_can_scan.html#a8a2b238ac4af96d8710b3e5d7d051f77" target="_top" xlink:title="Validates and returns the current meet UID from the meet title field.">
<polygon fill="white" stroke="#666666" points="1401.25,-273 1231.5,-273 1231.5,-241 1401.25,-241 1401.25,-273"/>
<text text-anchor="start" x="1239.5" y="-259.5" font-family="Helvetica,sans-Serif" font-size="10.00">fr.softsf.canscan.CanScan.validate</text>
<text text-anchor="middle" x="1316.38" y="-247.5" font-family="Helvetica,sans-Serif" font-size="10.00">AndGetMeetUID</text>
</a>
</g>
</g>
<!-- Node8&#45;&gt;Node11 -->
<g id="edge11_Node000008_Node000011" class="edge">
<title>Node8&#45;&gt;Node11</title>
<g id="a_edge11_Node000008_Node000011"><a xlink:title=" ">
<path fill="none" stroke="#63b8ff" d="M1173.87,-277.33C1188.78,-275.19 1204.64,-272.91 1220.15,-270.68"/>
<polygon fill="#63b8ff" stroke="#63b8ff" points="1220.46,-274.17 1229.86,-269.29 1219.47,-267.24 1220.46,-274.17"/>
</a>
</g>
</g>
<!-- Node12 -->
<g id="Node000012" class="node">
<title>Node12</title>
<g id="a_Node000012"><a xlink:href="classfr_1_1softsf_1_1canscan_1_1_can_scan.html#a9e8188875168199cde065113ae2a393d" target="_top" xlink:title="Validates and returns the current image&#45;to&#45;QR ratio from the ratio slider.">
<polygon fill="white" stroke="#666666" points="1401.25,-223 1231.5,-223 1231.5,-191 1401.25,-191 1401.25,-223"/>
<text text-anchor="start" x="1239.5" y="-209.5" font-family="Helvetica,sans-Serif" font-size="10.00">fr.softsf.canscan.CanScan.validate</text>
<text text-anchor="middle" x="1316.38" y="-197.5" font-family="Helvetica,sans-Serif" font-size="10.00">AndGetRatio</text>
</a>
</g>
</g>
<!-- Node8&#45;&gt;Node12 -->
<g id="edge12_Node000008_Node000012" class="edge">
<title>Node8&#45;&gt;Node12</title>
<g id="a_edge12_Node000008_Node000012"><a xlink:title=" ">
<path fill="none" stroke="#63b8ff" d="M1132.78,-271.5C1157.68,-259.52 1192.83,-243.47 1224.75,-232 1229.77,-230.2 1234.98,-228.45 1240.25,-226.77"/>
<polygon fill="#63b8ff" stroke="#63b8ff" points="1241.15,-230.15 1249.68,-223.86 1239.09,-223.46 1241.15,-230.15"/>
</a>
</g>
</g>
<!-- Node13 -->
<g id="Node000013" class="node">
<title>Node13</title>
<g id="a_Node000013"><a xlink:href="classfr_1_1softsf_1_1canscan_1_1_can_scan.html#a6d139bb8d0a3c7081096c8956189b684" target="_top" xlink:title="Validates and returns the QR code size from the corresponding text field.">
<polygon fill="white" stroke="#666666" points="1401.25,-373 1231.5,-373 1231.5,-341 1401.25,-341 1401.25,-373"/>
<text text-anchor="start" x="1239.5" y="-359.5" font-family="Helvetica,sans-Serif" font-size="10.00">fr.softsf.canscan.CanScan.validate</text>
<text text-anchor="middle" x="1316.38" y="-347.5" font-family="Helvetica,sans-Serif" font-size="10.00">AndGetSize</text>
</a>
</g>
</g>
<!-- Node8&#45;&gt;Node13 -->
<g id="edge13_Node000008_Node000013" class="edge">
<title>Node8&#45;&gt;Node13</title>
<g id="a_edge13_Node000008_Node000013"><a xlink:title=" ">
<path fill="none" stroke="#63b8ff" d="M1143.97,-304.43C1167.78,-313.04 1197.72,-323.53 1224.75,-332 1230.59,-333.83 1236.66,-335.66 1242.78,-337.45"/>
<polygon fill="#63b8ff" stroke="#63b8ff" points="1241.75,-340.8 1252.33,-340.21 1243.69,-334.07 1241.75,-340.8"/>
</a>
</g>
</g>
<!-- Node15 -->
<g id="Node000015" class="node">
<title>Node15</title>
<g id="a_Node000015"><a xlink:href="classfr_1_1softsf_1_1canscan_1_1_can_scan.html#ab2e018ca62c7497c29e84f42ae870daa" target="_top" xlink:title="Adds MECARD MEET FREE card panels to the north panel.">
<polygon fill="white" stroke="#666666" points="733.75,-222 582,-222 582,-190 733.75,-190 733.75,-222"/>
<text text-anchor="start" x="590" y="-208.5" font-family="Helvetica,sans-Serif" font-size="10.00">fr.softsf.canscan.CanScan.add</text>
<text text-anchor="middle" x="657.88" y="-196.5" font-family="Helvetica,sans-Serif" font-size="10.00">NorthPanelCardPanels</text>
</a>
</g>
</g>
<!-- Node14&#45;&gt;Node15 -->
<g id="edge16_Node000014_Node000015" class="edge">
<title>Node14&#45;&gt;Node15</title>
<g id="a_edge16_Node000014_Node000015"><a xlink:title=" ">
<path fill="none" stroke="#63b8ff" d="M536.59,-199.55C547.84,-200.16 559.38,-200.77 570.65,-201.38"/>
<polygon fill="#63b8ff" stroke="#63b8ff" points="570.12,-204.86 580.3,-201.9 570.5,-197.87 570.12,-204.86"/>
</a>
</g>
</g>
<!-- Node19 -->
<g id="Node000019" class="node">
<title>Node19</title>
<g id="a_Node000019"><a xlink:href="classfr_1_1softsf_1_1canscan_1_1_can_scan.html#a94ab4df98de0d05977e6a65ab75f89f0" target="_top" xlink:title="Adds common input fields to the north panel.">
<polygon fill="white" stroke="#666666" points="733.75,-322 582,-322 582,-290 733.75,-290 733.75,-322"/>
<text text-anchor="start" x="590" y="-308.5" font-family="Helvetica,sans-Serif" font-size="10.00">fr.softsf.canscan.CanScan.add</text>
<text text-anchor="middle" x="657.88" y="-296.5" font-family="Helvetica,sans-Serif" font-size="10.00">NorthPanelCommonFields</text>
</a>
</g>
</g>
<!-- Node14&#45;&gt;Node19 -->
<g id="edge20_Node000014_Node000019" class="edge">
<title>Node14&#45;&gt;Node19</title>
<g id="a_edge20_Node000014_Node000019"><a xlink:title=" ">
<path fill="none" stroke="#63b8ff" d="M513.35,-211.39C521.51,-215.09 529.41,-219.58 536.25,-225 559.44,-243.38 548.58,-263.25 572.25,-281 573.77,-282.14 575.33,-283.22 576.95,-284.26"/>
<polygon fill="#63b8ff" stroke="#63b8ff" points="574.82,-287.08 585.26,-288.93 578.26,-280.98 574.82,-287.08"/>
</a>
</g>
</g>
<!-- Node21 -->
<g id="Node000021" class="node">
<title>Node21</title>
<g id="a_Node000021"><a xlink:href="classfr_1_1softsf_1_1canscan_1_1_can_scan.html#a9f205dfdb266d5d7f8f8899b69742663" target="_top" xlink:title="Adds the generate button to the north panel.">
<polygon fill="white" stroke="#666666" points="733.75,-172 582,-172 582,-140 733.75,-140 733.75,-172"/>
<text text-anchor="start" x="590" y="-158.5" font-family="Helvetica,sans-Serif" font-size="10.00">fr.softsf.canscan.CanScan.add</text>
<text text-anchor="middle" x="657.88" y="-146.5" font-family="Helvetica,sans-Serif" font-size="10.00">NorthPanelGenerateButton</text>
</a>
</g>
</g>
<!-- Node14&#45;&gt;Node21 -->
<g id="edge23_Node000014_Node000021" class="edge">
<title>Node14&#45;&gt;Node21</title>
<g id="a_edge23_Node000014_Node000021"><a xlink:title=" ">
<path fill="none" stroke="#63b8ff" d="M536.59,-178.86C547.84,-176.72 559.38,-174.53 570.65,-172.38"/>
<polygon fill="#63b8ff" stroke="#63b8ff" points="571.15,-175.85 580.32,-170.55 569.84,-168.97 571.15,-175.85"/>
</a>
</g>
</g>
<!-- Node22 -->
<g id="Node000022" class="node">
<title>Node22</title>
<g id="a_Node000022"><a xlink:href="classfr_1_1softsf_1_1canscan_1_1_can_scan.html#aa469763b92dd7cbc6dfdb9aaa0116b33" target="_top" xlink:title="Adds mode selection controls (MECARD/MEET/FREE) to the north panel.">
<polygon fill="white" stroke="#666666" points="733.75,-122 582,-122 582,-90 733.75,-90 733.75,-122"/>
<text text-anchor="start" x="590" y="-108.5" font-family="Helvetica,sans-Serif" font-size="10.00">fr.softsf.canscan.CanScan.add</text>
<text text-anchor="middle" x="657.88" y="-96.5" font-family="Helvetica,sans-Serif" font-size="10.00">NorthPanelModeSelection</text>
</a>
</g>
</g>
<!-- Node14&#45;&gt;Node22 -->
<g id="edge24_Node000014_Node000022" class="edge">
<title>Node14&#45;&gt;Node22</title>
<g id="a_edge24_Node000014_Node000022"><a xlink:title=" ">
<path fill="none" stroke="#63b8ff" d="M519.58,-178.55C525.4,-176.07 531.05,-173.24 536.25,-170 556.28,-157.54 552.22,-143.46 572.25,-131 574.28,-129.74 576.38,-128.53 578.53,-127.39"/>
<polygon fill="#63b8ff" stroke="#63b8ff" points="580.02,-130.56 587.55,-123.1 577.02,-124.23 580.02,-130.56"/>
</a>
</g>
</g>
<!-- Node28 -->
<g id="Node000028" class="node">
<title>Node28</title>
<g id="a_Node000028"><a xlink:href="classfr_1_1softsf_1_1canscan_1_1_can_scan.html#ada8edc3d5abda489ce9f75a0613cfc71" target="_top" xlink:title="Creates the base north panel with layout, maximum width, and padding applied.">
<polygon fill="white" stroke="#666666" points="732.62,-72 583.12,-72 583.12,-40 732.62,-40 732.62,-72"/>
<text text-anchor="start" x="591.12" y="-58.5" font-family="Helvetica,sans-Serif" font-size="10.00">fr.softsf.canscan.CanScan.get</text>
<text text-anchor="middle" x="657.88" y="-46.5" font-family="Helvetica,sans-Serif" font-size="10.00">NorthJPanel</text>
</a>
</g>
</g>
<!-- Node14&#45;&gt;Node28 -->
<g id="edge31_Node000014_Node000028" class="edge">
<title>Node14&#45;&gt;Node28</title>
<g id="a_edge31_Node000014_Node000028"><a xlink:title=" ">
<path fill="none" stroke="#63b8ff" d="M524.27,-178.64C528.57,-176.16 532.62,-173.29 536.25,-170 567.85,-141.33 540.65,-109.67 572.25,-81 573.16,-80.18 574.09,-79.38 575.05,-78.61"/>
<polygon fill="#63b8ff" stroke="#63b8ff" points="576.68,-81.73 582.97,-73.21 572.74,-75.95 576.68,-81.73"/>
</a>
</g>
</g>
<!-- Node29 -->
<g id="Node000029" class="node">
<title>Node29</title>
<g id="a_Node000029"><a xlink:href="classfr_1_1softsf_1_1canscan_1_1_can_scan.html#aeb5550da33925e95999aae23f525f7c5" target="_top" xlink:title="Creates default GridBagConstraints for consistent layout configuration.">
<polygon fill="white" stroke="#666666" points="736.75,-272 579,-272 579,-240 736.75,-240 736.75,-272"/>
<text text-anchor="start" x="587" y="-258.5" font-family="Helvetica,sans-Serif" font-size="10.00">fr.softsf.canscan.CanScan.north</text>
<text text-anchor="middle" x="657.88" y="-246.5" font-family="Helvetica,sans-Serif" font-size="10.00">PanelGridBagConstraints</text>
</a>
</g>
</g>
<!-- Node14&#45;&gt;Node29 -->
<g id="edge32_Node000014_Node000029" class="edge">
<title>Node14&#45;&gt;Node29</title>
<g id="a_edge32_Node000014_Node000029"><a xlink:title=" ">
<path fill="none" stroke="#63b8ff" d="M506.56,-211.43C527.16,-217.58 550.78,-224.62 572.25,-231 578.12,-232.74 584.23,-234.55 590.35,-236.37"/>
<polygon fill="#63b8ff" stroke="#63b8ff" points="589.3,-239.71 599.88,-239.19 591.29,-232.99 589.3,-239.71"/>
</a>
</g>
</g>
<!-- Node16 -->
<g id="Node000016" class="node">
<title>Node16</title>
<g id="a_Node000016"><a xlink:href="classfr_1_1softsf_1_1canscan_1_1_can_scan.html#a38d65dd319daee1c3288690c17e43ca5" target="_top" xlink:title="Populates the FREE panel with a multiline text area.">
<polygon fill="white" stroke="#666666" points="962.75,-216 789.25,-216 789.25,-196 962.75,-196 962.75,-216"/>
<text text-anchor="middle" x="876" y="-202.5" font-family="Helvetica,sans-Serif" font-size="10.00">fr.softsf.canscan.CanScan.freeCard</text>
</a>
</g>
</g>
<!-- Node15&#45;&gt;Node16 -->
<g id="edge17_Node000015_Node000016" class="edge">
<title>Node15&#45;&gt;Node16</title>
<g id="a_edge17_Node000015_Node000016"><a xlink:title=" ">
<path fill="none" stroke="#63b8ff" d="M734.16,-206C748.24,-206 763.13,-206 777.76,-206"/>
<polygon fill="#63b8ff" stroke="#63b8ff" points="777.37,-209.5 787.37,-206 777.37,-202.5 777.37,-209.5"/>
</a>
</g>
</g>
<!-- Node17 -->
<g id="Node000017" class="node">
<title>Node17</title>
<g id="a_Node000017"><a xlink:href="classfr_1_1softsf_1_1canscan_1_1_can_scan.html#aed7e3048974882318a6519d8d36e8ec0" target="_top" xlink:title="Populates the MECARD panel with contact fields.">
<polygon fill="white" stroke="#666666" points="960.12,-178 791.88,-178 791.88,-158 960.12,-158 960.12,-178"/>
<text text-anchor="middle" x="876" y="-164.5" font-family="Helvetica,sans-Serif" font-size="10.00">fr.softsf.canscan.CanScan.mecard</text>
</a>
</g>
</g>
<!-- Node15&#45;&gt;Node17 -->
<g id="edge18_Node000015_Node000017" class="edge">
<title>Node15&#45;&gt;Node17</title>
<g id="a_edge18_Node000015_Node000017"><a xlink:title=" ">
<path fill="none" stroke="#63b8ff" d="M734.16,-192.76C756.88,-188.77 781.73,-184.4 804.15,-180.46"/>
<polygon fill="#63b8ff" stroke="#63b8ff" points="804.55,-183.94 813.8,-178.76 803.34,-177.05 804.55,-183.94"/>
</a>
</g>
</g>
<!-- Node18 -->
<g id="Node000018" class="node">
<title>Node18</title>
<g id="a_Node000018"><a xlink:href="classfr_1_1softsf_1_1canscan_1_1_can_scan.html#aa211e37381e1a96b368390e86cddb879" target="_top" xlink:title="Populates the MEET panel with meet fields.">
<polygon fill="white" stroke="#666666" points="965.38,-254 786.62,-254 786.62,-234 965.38,-234 965.38,-254"/>
<text text-anchor="middle" x="876" y="-240.5" font-family="Helvetica,sans-Serif" font-size="10.00">fr.softsf.canscan.CanScan.meetCard</text>
</a>
</g>
</g>
<!-- Node15&#45;&gt;Node18 -->
<g id="edge19_Node000015_Node000018" class="edge">
<title>Node15&#45;&gt;Node18</title>
<g id="a_edge19_Node000015_Node000018"><a xlink:title=" ">
<path fill="none" stroke="#63b8ff" d="M734.16,-219.24C756.88,-223.23 781.73,-227.6 804.15,-231.54"/>
<polygon fill="#63b8ff" stroke="#63b8ff" points="803.34,-234.95 813.8,-233.24 804.55,-228.06 803.34,-234.95"/>
</a>
</g>
</g>
<!-- Node20 -->
<g id="Node000020" class="node">
<title>Node20</title>
<g id="a_Node000020"><a xlink:href="classfr_1_1softsf_1_1canscan_1_1_can_scan.html#a17b0a72ab305f98f86591411b6a352f2" target="_top" xlink:title="Creates the color selection panel for QR code and background colors.">
<polygon fill="white" stroke="#666666" points="954.5,-304 797.5,-304 797.5,-272 954.5,-272 954.5,-304"/>
<text text-anchor="start" x="805.5" y="-290.5" font-family="Helvetica,sans-Serif" font-size="10.00">fr.softsf.canscan.CanScan.color</text>
<text text-anchor="middle" x="876" y="-278.5" font-family="Helvetica,sans-Serif" font-size="10.00">Panel</text>
</a>
</g>
</g>
<!-- Node19&#45;&gt;Node20 -->
<g id="edge21_Node000019_Node000020" class="edge">
<title>Node19&#45;&gt;Node20</title>
<g id="a_edge21_Node000019_Node000020"><a xlink:title=" ">
<path fill="none" stroke="#63b8ff" d="M734.16,-299.73C750.85,-298.34 768.69,-296.85 785.87,-295.42"/>
<polygon fill="#63b8ff" stroke="#63b8ff" points="785.87,-298.94 795.54,-294.62 785.29,-291.96 785.87,-298.94"/>
</a>
</g>
</g>
<!-- Node20&#45;&gt;Node8 -->
<g id="edge22_Node000020_Node000008" class="edge">
<title>Node20&#45;&gt;Node8</title>
<g id="a_edge22_Node000020_Node000008"><a xlink:title=" ">
<path fill="none" stroke="#63b8ff" d="M954.78,-288C973.36,-288 993.3,-288 1012.2,-288"/>
<polygon fill="#63b8ff" stroke="#63b8ff" points="1011.99,-291.5 1021.99,-288 1011.99,-284.5 1011.99,-291.5"/>
</a>
</g>
</g>
<!-- Node23 -->
<g id="Node000023" class="node">
<title>Node23</title>
<g id="a_Node000023"><a xlink:href="classfr_1_1softsf_1_1canscan_1_1_can_scan.html#a381579d3adc53b1122b38e7fda5c0235" target="_top" xlink:title="Configures the update button for version checking.">
<polygon fill="white" stroke="#666666" points="963.88,-140 788.12,-140 788.12,-108 963.88,-108 963.88,-140"/>
<text text-anchor="start" x="796.12" y="-126.5" font-family="Helvetica,sans-Serif" font-size="10.00">fr.softsf.canscan.CanScan.configure</text>
<text text-anchor="middle" x="876" y="-114.5" font-family="Helvetica,sans-Serif" font-size="10.00">UpdateButton</text>
</a>
</g>
</g>
<!-- Node22&#45;&gt;Node23 -->
<g id="edge25_Node000022_Node000023" class="edge">
<title>Node22&#45;&gt;Node23</title>
<g id="a_edge25_Node000022_Node000023"><a xlink:title=" ">
<path fill="none" stroke="#63b8ff" d="M734.16,-112.27C747.81,-113.41 762.23,-114.61 776.43,-115.79"/>
<polygon fill="#63b8ff" stroke="#63b8ff" points="775.99,-119.27 786.25,-116.61 776.57,-112.29 775.99,-119.27"/>
</a>
</g>
</g>
<!-- Node24 -->
<g id="Node000024" class="node">
<title>Node24</title>
<g id="a_Node000024"><a xlink:href="classfr_1_1softsf_1_1canscan_1_1_can_scan.html#a428c742b098fa27d4c8984c1030c238d" target="_top" xlink:title="Switches between MECARD, MEET, and FREE modes, updating the panel and QR preview.">
<polygon fill="white" stroke="#666666" points="970.25,-90 781.75,-90 781.75,-70 970.25,-70 970.25,-90"/>
<text text-anchor="middle" x="876" y="-76.5" font-family="Helvetica,sans-Serif" font-size="10.00">fr.softsf.canscan.CanScan.switchMode</text>
</a>
</g>
</g>
<!-- Node22&#45;&gt;Node24 -->
<g id="edge26_Node000022_Node000024" class="edge">
<title>Node22&#45;&gt;Node24</title>
<g id="a_edge26_Node000022_Node000024"><a xlink:title=" ">
<path fill="none" stroke="#63b8ff" d="M734.16,-96.94C747.81,-95.3 762.23,-93.57 776.43,-91.86"/>
<polygon fill="#63b8ff" stroke="#63b8ff" points="776.74,-95.35 786.25,-90.68 775.91,-88.4 776.74,-95.35"/>
</a>
</g>
</g>
<!-- Node24&#45;&gt;Node8 -->
<g id="edge27_Node000024_Node000008" class="edge">
<title>Node24&#45;&gt;Node8</title>
<g id="a_edge27_Node000024_Node000008"><a xlink:title=" ">
<path fill="none" stroke="#63b8ff" d="M956.17,-90.46C961.93,-92.79 967.45,-95.61 972.5,-99 973,-99.34 1046.38,-210.4 1080.52,-262.1"/>
<polygon fill="#63b8ff" stroke="#63b8ff" points="1077.53,-263.91 1085.96,-270.33 1083.37,-260.06 1077.53,-263.91"/>
</a>
</g>
</g>
<!-- Node25 -->
<g id="Node000025" class="node">
<title>Node25</title>
<g id="a_Node000025"><a xlink:href="enumfr_1_1softsf_1_1canscan_1_1model_1_1_mode.html#a16a898a11ca939056bd7b275f11ea54c" target="_top" xlink:title="Returns the mode label.">
<polygon fill="white" stroke="#666666" points="1159.5,-144 1037.75,-144 1037.75,-112 1159.5,-112 1159.5,-144"/>
<text text-anchor="start" x="1045.75" y="-130.5" font-family="Helvetica,sans-Serif" font-size="10.00">fr.softsf.canscan.model.</text>
<text text-anchor="middle" x="1098.62" y="-118.5" font-family="Helvetica,sans-Serif" font-size="10.00">Mode.text</text>
</a>
</g>
</g>
<!-- Node24&#45;&gt;Node25 -->
<g id="edge28_Node000024_Node000025" class="edge">
<title>Node24&#45;&gt;Node25</title>
<g id="a_edge28_Node000024_Node000025"><a xlink:title=" ">
<path fill="none" stroke="#63b8ff" d="M931.1,-90.46C944.64,-93.16 959.11,-96.12 972.5,-99 990.01,-102.77 1008.85,-107.03 1026.47,-111.1"/>
<polygon fill="#63b8ff" stroke="#63b8ff" points="1025.24,-114.41 1035.78,-113.26 1026.83,-107.59 1025.24,-114.41"/>
</a>
</g>
</g>
<!-- Node26 -->
<g id="Node000026" class="node">
<title>Node26</title>
<g id="a_Node000026"><a xlink:href="classfr_1_1softsf_1_1canscan_1_1_can_scan.html#a11fd9295c4843e6e68f9d1e4a710b906" target="_top" xlink:title="Enables or disables the &quot;Generate&quot; button based on required fields for the current mode.">
<polygon fill="white" stroke="#666666" points="1181.25,-94 1016,-94 1016,-62 1181.25,-62 1181.25,-94"/>
<text text-anchor="start" x="1024" y="-80.5" font-family="Helvetica,sans-Serif" font-size="10.00">fr.softsf.canscan.CanScan.update</text>
<text text-anchor="middle" x="1098.62" y="-68.5" font-family="Helvetica,sans-Serif" font-size="10.00">GenerateButtonState</text>
</a>
</g>
</g>
<!-- Node24&#45;&gt;Node26 -->
<g id="edge29_Node000024_Node000026" class="edge">
<title>Node24&#45;&gt;Node26</title>
<g id="a_edge29_Node000024_Node000026"><a xlink:title=" ">
<path fill="none" stroke="#63b8ff" d="M970.56,-79.15C981.84,-79.05 993.35,-78.95 1004.62,-78.84"/>
<polygon fill="#63b8ff" stroke="#63b8ff" points="1004.3,-82.35 1014.27,-78.76 1004.24,-75.35 1004.3,-82.35"/>
</a>
</g>
</g>
<!-- Node27 -->
<g id="Node000027" class="node">
<title>Node27</title>
<g id="a_Node000027"><a xlink:href="classfr_1_1softsf_1_1canscan_1_1_can_scan.html#a3ce6e8b8bd62f20e8e8b9a744976c695" target="_top" xlink:title="Determines whether the &quot;Generate&quot; button should be disabled for the current mode.">
<polygon fill="white" stroke="#666666" points="1398.62,-94 1234.12,-94 1234.12,-62 1398.62,-62 1398.62,-94"/>
<text text-anchor="start" x="1242.12" y="-80.5" font-family="Helvetica,sans-Serif" font-size="10.00">fr.softsf.canscan.CanScan.should</text>
<text text-anchor="middle" x="1316.38" y="-68.5" font-family="Helvetica,sans-Serif" font-size="10.00">DisableGenerateButton</text>
</a>
</g>
</g>
<!-- Node26&#45;&gt;Node27 -->
<g id="edge30_Node000026_Node000027" class="edge">
<title>Node26&#45;&gt;Node27</title>
<g id="a_edge30_Node000026_Node000027"><a xlink:title=" ">
<path fill="none" stroke="#63b8ff" d="M1181.5,-78C1194.91,-78 1208.89,-78 1222.54,-78"/>
<polygon fill="#63b8ff" stroke="#63b8ff" points="1222.4,-81.5 1232.4,-78 1222.4,-74.5 1222.4,-81.5"/>
</a>
</g>
</g>
<!-- Node33 -->
<g id="Node000033" class="node">
<title>Node33</title>
<g id="a_Node000033"><a xlink:href="classfr_1_1softsf_1_1canscan_1_1_can_scan.html#a0fe215984734bb1337dd49ca30238b78" target="_top" xlink:title="Sets the loader size so it matches the QR code label height and remains centered.">
<polygon fill="white" stroke="#666666" points="1173.38,-32 1023.88,-32 1023.88,0 1173.38,0 1173.38,-32"/>
<text text-anchor="start" x="1031.88" y="-18.5" font-family="Helvetica,sans-Serif" font-size="10.00">fr.softsf.canscan.CanScan.set</text>
<text text-anchor="middle" x="1098.62" y="-6.5" font-family="Helvetica,sans-Serif" font-size="10.00">LoaderSize</text>
</a>
</g>
</g>
<!-- Node32&#45;&gt;Node33 -->
<g id="edge36_Node000032_Node000033" class="edge">
<title>Node32&#45;&gt;Node33</title>
<g id="a_edge36_Node000032_Node000033"><a xlink:title=" ">
<path fill="none" stroke="#63b8ff" d="M536.74,-31.63C660.5,-28.18 888.81,-21.82 1012.55,-18.37"/>
<polygon fill="#63b8ff" stroke="#63b8ff" points="1012.41,-21.88 1022.31,-18.1 1012.22,-14.88 1012.41,-21.88"/>
</a>
</g>
</g>
<!-- Node33&#45;&gt;Node9 -->
<g id="edge37_Node000033_Node000009" class="edge">
<title>Node33&#45;&gt;Node9</title>
<g id="a_edge37_Node000033_Node000009"><a xlink:title=" ">
<path fill="none" stroke="#63b8ff" d="M1173.87,-17.03C1187.96,-17.23 1202.89,-17.44 1217.57,-17.64"/>
<polygon fill="#63b8ff" stroke="#63b8ff" points="1217.17,-21.13 1227.22,-17.77 1217.27,-14.14 1217.17,-21.13"/>
</a>
</g>
</g>
</g>
</svg>
