<?xml version="1.0" encoding="UTF-8" standalone="no"?>
<!DOCTYPE svg PUBLIC "-//W3C//DTD SVG 1.1//EN"
 "http://www.w3.org/Graphics/SVG/1.1/DTD/svg11.dtd">
<!-- Generated by graphviz version 12.2.1 (20241206.2353)
 -->
<!-- Title: fr.softsf.canscan.CanScan.initializeTitle Pages: 1 -->
<!--zoomable 535 -->

<svg id="main" version="1.1" xmlns="http://www.w3.org/2000/svg" xmlns:xlink="http://www.w3.org/1999/xlink" xml:space="preserve" onload="init(evt)">

<style type="text/css"><![CDATA[
.node, .edge {opacity: 0.7;}
.node.selected, .edge.selected {opacity: 1;}
.edge:hover path { stroke: red; }
.edge:hover polygon { stroke: red; fill: red; }
]]></style>

<defs>
  <circle id="rim" cx="0" cy="0" r="7"/>
  <circle id="rim2" cx="0" cy="0" r="3.5"/>
  <g id="zoomPlus">
    <use xlink:href="#rim" fill="#404040"><set attributeName="fill" to="#808080" begin="zoomplus.mouseover" end="zoomplus.mouseout"/></use>
    <path d="M-4,0h8M0,-4v8" fill="none" stroke="white" stroke-width="1.5" pointer-events="none"/>
  </g>
  <g id="zoomMin">
    <use xlink:href="#rim" fill="#404040"><set attributeName="fill" to="#808080" begin="zoomminus.mouseover" end="zoomminus.mouseout"/></use>
    <path d="M-4,0h8" fill="none" stroke="white" stroke-width="1.5" pointer-events="none"/>
  </g>
  <g id="arrowUp" transform="translate(30 24)">
    <use xlink:href="#rim"/>
    <path pointer-events="none" fill="none" stroke="white" stroke-width="1.5" d="M0,-3.0v7 M-2.5,-0.5L0,-3.0L2.5,-0.5"/>
  </g>
  <g id="arrowRight" transform="rotate(90) translate(36 -43)">
    <use xlink:href="#rim"/>
    <path pointer-events="none" fill="none" stroke="white" stroke-width="1.5" d="M0,-3.0v7 M-2.5,-0.5L0,-3.0L2.5,-0.5"/>
  </g>
  <g id="arrowDown" transform="rotate(180) translate(-30 -48)">
    <use xlink:href="#rim"/>
    <path pointer-events="none" fill="none" stroke="white" stroke-width="1.5" d="M0,-3.0v7 M-2.5,-0.5L0,-3.0L2.5,-0.5"/>
  </g>
  <g id="arrowLeft" transform="rotate(270) translate(-36 17)">
    <use xlink:href="#rim"/>
    <path pointer-events="none" fill="none" stroke="white" stroke-width="1.5" d="M0,-3.0v7 M-2.5,-0.5L0,-3.0L2.5,-0.5"/>
  </g>
  <g id="resetDef">
    <use xlink:href="#rim2" fill="#404040"><set attributeName="fill" to="#808080" begin="reset.mouseover" end="reset.mouseout"/></use>
  </g>
</defs>
<script type="application/ecmascript">
var viewWidth = 1599;
var viewHeight = 535;
var sectionId = 'dynsection-16';
</script>
<script type="application/ecmascript" xlink:href="svg.min.js"/>
<svg id="graph" class="graph">
<g id="viewport">
<title>fr.softsf.canscan.CanScan.initializeTitle</title>
<!-- Node1 -->
<g id="Node000001" class="node">
<title>Node1</title>
<g id="a_Node000001"><a xlink:title="Constructs the application window title using metadata from the version properties.">
<polygon fill="#999999" stroke="#666666" points="171.25,-173 0,-173 0,-141 171.25,-141 171.25,-173"/>
<text text-anchor="start" x="8" y="-159.5" font-family="Helvetica,sans-Serif" font-size="10.00">fr.softsf.canscan.CanScan.initialize</text>
<text text-anchor="middle" x="85.62" y="-147.5" font-family="Helvetica,sans-Serif" font-size="10.00">Title</text>
</a>
</g>
</g>
<!-- Node2 -->
<g id="Node000002" class="node">
<title>Node2</title>
<g id="a_Node000002"><a xlink:href="classfr_1_1softsf_1_1canscan_1_1_can_scan.html#aefe4d08d96fdc7b2097daf4033bbbb9c" target="_top" xlink:title="Loads application metadata from the version.properties file.">
<polygon fill="white" stroke="#666666" points="356.75,-195 207.25,-195 207.25,-163 356.75,-163 356.75,-195"/>
<text text-anchor="start" x="215.25" y="-181.5" font-family="Helvetica,sans-Serif" font-size="10.00">fr.softsf.canscan.CanScan.get</text>
<text text-anchor="middle" x="282" y="-169.5" font-family="Helvetica,sans-Serif" font-size="10.00">ManifestKeys</text>
</a>
</g>
</g>
<!-- Node1&#45;&gt;Node2 -->
<g id="edge1_Node000001_Node000002" class="edge">
<title>Node1&#45;&gt;Node2</title>
<g id="a_edge1_Node000001_Node000002"><a xlink:title=" ">
<path fill="none" stroke="#63b8ff" d="M171.6,-166.62C179.58,-167.52 187.68,-168.44 195.67,-169.34"/>
<polygon fill="#63b8ff" stroke="#63b8ff" points="195.03,-172.79 205.36,-170.44 195.82,-165.84 195.03,-172.79"/>
</a>
</g>
</g>
<!-- Node3 -->
<g id="Node000003" class="node">
<title>Node3</title>
<g id="a_Node000003"><a xlink:href="classfr_1_1softsf_1_1canscan_1_1_can_scan.html#a102bcbc6cda608b642e870ba3fde6344" target="_top" xlink:title="Initializes the CanScan GUI.">
<polygon fill="white" stroke="#666666" points="528.75,-173 392.75,-173 392.75,-141 528.75,-141 528.75,-173"/>
<text text-anchor="start" x="400.75" y="-159.5" font-family="Helvetica,sans-Serif" font-size="10.00">fr.softsf.canscan.CanScan.</text>
<text text-anchor="middle" x="460.75" y="-147.5" font-family="Helvetica,sans-Serif" font-size="10.00">CanScan</text>
</a>
</g>
</g>
<!-- Node2&#45;&gt;Node3 -->
<g id="edge2_Node000002_Node000003" class="edge">
<title>Node2&#45;&gt;Node3</title>
<g id="a_edge2_Node000002_Node000003"><a xlink:title=" ">
<path fill="none" stroke="#63b8ff" d="M357.19,-169.77C365.15,-168.77 373.27,-167.76 381.28,-166.77"/>
<polygon fill="#63b8ff" stroke="#63b8ff" points="381.51,-170.27 391,-165.56 380.65,-163.32 381.51,-170.27"/>
</a>
</g>
</g>
<!-- Node3&#45;&gt;Node1 -->
<g id="edge39_Node000003_Node000001" class="edge">
<title>Node3&#45;&gt;Node1</title>
<g id="a_edge39_Node000003_Node000001"><a xlink:title=" ">
<path fill="none" stroke="#63b8ff" d="M392.44,-154.76C380.55,-154.44 368.29,-154.17 356.75,-154 290.31,-153.03 273.69,-153.17 207.25,-154 199.33,-154.1 191.12,-154.23 182.87,-154.39"/>
<polygon fill="#63b8ff" stroke="#63b8ff" points="183.07,-150.89 173.15,-154.59 183.22,-157.89 183.07,-150.89"/>
</a>
</g>
</g>
<!-- Node4 -->
<g id="Node000004" class="node">
<title>Node4</title>
<g id="a_Node000004"><a xlink:href="classfr_1_1softsf_1_1canscan_1_1_can_scan.html#a070115929fdc69b249d21866a00a47cc" target="_top" xlink:title="Assigns component names for identification.">
<polygon fill="white" stroke="#666666" points="736,-286 564.75,-286 564.75,-254 736,-254 736,-286"/>
<text text-anchor="start" x="572.75" y="-272.5" font-family="Helvetica,sans-Serif" font-size="10.00">fr.softsf.canscan.CanScan.initialize</text>
<text text-anchor="middle" x="650.38" y="-260.5" font-family="Helvetica,sans-Serif" font-size="10.00">ComponentNames</text>
</a>
</g>
</g>
<!-- Node3&#45;&gt;Node4 -->
<g id="edge3_Node000003_Node000004" class="edge">
<title>Node3&#45;&gt;Node4</title>
<g id="a_edge3_Node000003_Node000004"><a xlink:title=" ">
<path fill="none" stroke="#63b8ff" d="M478.3,-173.34C497.64,-191.67 531.27,-221.29 564.75,-240 570.82,-243.39 577.35,-246.51 583.99,-249.36"/>
<polygon fill="#63b8ff" stroke="#63b8ff" points="582.48,-252.52 593.06,-253.02 585.1,-246.03 582.48,-252.52"/>
</a>
</g>
</g>
<!-- Node5 -->
<g id="Node000005" class="node">
<title>Node5</title>
<g id="a_Node000005"><a xlink:href="classfr_1_1softsf_1_1canscan_1_1_can_scan.html#a14263ca931024d56cd9bed4af4b74c25" target="_top" xlink:title="Initializes and assembles the main application panel.">
<polygon fill="white" stroke="#666666" points="943.25,-461 772,-461 772,-429 943.25,-429 943.25,-461"/>
<text text-anchor="start" x="780" y="-447.5" font-family="Helvetica,sans-Serif" font-size="10.00">fr.softsf.canscan.CanScan.initialize</text>
<text text-anchor="middle" x="857.62" y="-435.5" font-family="Helvetica,sans-Serif" font-size="10.00">MainPanel</text>
</a>
</g>
</g>
<!-- Node3&#45;&gt;Node5 -->
<g id="edge4_Node000003_Node000005" class="edge">
<title>Node3&#45;&gt;Node5</title>
<g id="a_edge4_Node000003_Node000005"><a xlink:title=" ">
<path fill="none" stroke="#63b8ff" d="M490.72,-173.33C510.94,-184.15 538.85,-197.98 564.75,-207 638.37,-232.64 673.99,-197.75 736,-245 763.2,-265.73 754.76,-283.47 772,-313 794.03,-350.73 821.7,-393.03 839.28,-419.35"/>
<polygon fill="#63b8ff" stroke="#63b8ff" points="836.17,-420.99 844.64,-427.35 841.98,-417.09 836.17,-420.99"/>
</a>
</g>
</g>
<!-- Node14 -->
<g id="Node000014" class="node">
<title>Node14</title>
<g id="a_Node000014"><a xlink:href="classfr_1_1softsf_1_1canscan_1_1_can_scan.html#afb8d451dc5d6d9c7b6700e4b688c98a3" target="_top" xlink:title="Builds the north panel containing mode selection, card panels, common fields, and the generate button...">
<polygon fill="white" stroke="#666666" points="736,-198 564.75,-198 564.75,-166 736,-166 736,-198"/>
<text text-anchor="start" x="572.75" y="-184.5" font-family="Helvetica,sans-Serif" font-size="10.00">fr.softsf.canscan.CanScan.initialize</text>
<text text-anchor="middle" x="650.38" y="-172.5" font-family="Helvetica,sans-Serif" font-size="10.00">NorthPanel</text>
</a>
</g>
</g>
<!-- Node3&#45;&gt;Node14 -->
<g id="edge14_Node000003_Node000014" class="edge">
<title>Node3&#45;&gt;Node14</title>
<g id="a_edge14_Node000003_Node000014"><a xlink:title=" ">
<path fill="none" stroke="#63b8ff" d="M529.22,-165.99C537.01,-167.03 545.05,-168.1 553.12,-169.17"/>
<polygon fill="#63b8ff" stroke="#63b8ff" points="552.65,-172.64 563.02,-170.49 553.57,-165.7 552.65,-172.64"/>
</a>
</g>
</g>
<!-- Node29 -->
<g id="Node000029" class="node">
<title>Node29</title>
<g id="a_Node000029"><a xlink:href="classfr_1_1softsf_1_1canscan_1_1_can_scan.html#a4928478365bc812571ac037662cc5f6b" target="_top" xlink:title="Wraps the main panel in a scrollable container.">
<polygon fill="white" stroke="#666666" points="736,-148 564.75,-148 564.75,-116 736,-116 736,-148"/>
<text text-anchor="start" x="572.75" y="-134.5" font-family="Helvetica,sans-Serif" font-size="10.00">fr.softsf.canscan.CanScan.initialize</text>
<text text-anchor="middle" x="650.38" y="-122.5" font-family="Helvetica,sans-Serif" font-size="10.00">ScrollPane</text>
</a>
</g>
</g>
<!-- Node3&#45;&gt;Node29 -->
<g id="edge36_Node000003_Node000029" class="edge">
<title>Node3&#45;&gt;Node29</title>
<g id="a_edge36_Node000003_Node000029"><a xlink:title=" ">
<path fill="none" stroke="#63b8ff" d="M529.22,-148.01C537.01,-146.97 545.05,-145.9 553.12,-144.83"/>
<polygon fill="#63b8ff" stroke="#63b8ff" points="553.57,-148.3 563.02,-143.51 552.65,-141.36 553.57,-148.3"/>
</a>
</g>
</g>
<!-- Node30 -->
<g id="Node000030" class="node">
<title>Node30</title>
<g id="a_Node000030"><a xlink:href="classfr_1_1softsf_1_1canscan_1_1_can_scan.html#a358629f85831dc6cd4978c8854d88561" target="_top" xlink:title="Configures sliders for logo margin and ratio.">
<polygon fill="white" stroke="#666666" points="736,-93 564.75,-93 564.75,-61 736,-61 736,-93"/>
<text text-anchor="start" x="572.75" y="-79.5" font-family="Helvetica,sans-Serif" font-size="10.00">fr.softsf.canscan.CanScan.initialize</text>
<text text-anchor="middle" x="650.38" y="-67.5" font-family="Helvetica,sans-Serif" font-size="10.00">Sliders</text>
</a>
</g>
</g>
<!-- Node3&#45;&gt;Node30 -->
<g id="edge37_Node000003_Node000030" class="edge">
<title>Node3&#45;&gt;Node30</title>
<g id="a_edge37_Node000003_Node000030"><a xlink:title=" ">
<path fill="none" stroke="#63b8ff" d="M493.34,-140.53C513.51,-130.3 540.36,-117.21 564.75,-107 572.74,-103.66 581.24,-100.35 589.67,-97.23"/>
<polygon fill="#63b8ff" stroke="#63b8ff" points="590.62,-100.6 598.82,-93.89 588.23,-94.03 590.62,-100.6"/>
</a>
</g>
</g>
<!-- Node32 -->
<g id="Node000032" class="node">
<title>Node32</title>
<g id="a_Node000032"><a xlink:href="classfr_1_1softsf_1_1canscan_1_1_can_scan.html#a0a52159db640660477196e337ec62a9b" target="_top" xlink:title="Finalizes window layout and appearance.">
<polygon fill="white" stroke="#666666" points="736,-32 564.75,-32 564.75,0 736,0 736,-32"/>
<text text-anchor="start" x="572.75" y="-18.5" font-family="Helvetica,sans-Serif" font-size="10.00">fr.softsf.canscan.CanScan.initialize</text>
<text text-anchor="middle" x="650.38" y="-6.5" font-family="Helvetica,sans-Serif" font-size="10.00">Window</text>
</a>
</g>
</g>
<!-- Node3&#45;&gt;Node32 -->
<g id="edge40_Node000003_Node000032" class="edge">
<title>Node3&#45;&gt;Node32</title>
<g id="a_edge40_Node000003_Node000032"><a xlink:title=" ">
<path fill="none" stroke="#63b8ff" d="M474.15,-140.83C492.07,-118.37 527.2,-77.61 564.75,-52 572.9,-46.44 582.04,-41.47 591.22,-37.13"/>
<polygon fill="#63b8ff" stroke="#63b8ff" points="592.48,-40.4 600.17,-33.11 589.61,-34.01 592.48,-40.4"/>
</a>
</g>
</g>
<!-- Node6 -->
<g id="Node000006" class="node">
<title>Node6</title>
<g id="a_Node000006"><a xlink:href="classfr_1_1softsf_1_1canscan_1_1_can_scan.html#ad470e3c0750cf142dc611b1aeeda3a97" target="_top" xlink:title="Sets up automatic QR code preview updates for all input fields and controls.">
<polygon fill="white" stroke="#666666" points="1172.25,-527 979.25,-527 979.25,-495 1172.25,-495 1172.25,-527"/>
<text text-anchor="start" x="987.25" y="-513.5" font-family="Helvetica,sans-Serif" font-size="10.00">fr.softsf.canscan.CanScan.automatic</text>
<text text-anchor="middle" x="1075.75" y="-501.5" font-family="Helvetica,sans-Serif" font-size="10.00">QRCodeRenderingForFieldsAndControls</text>
</a>
</g>
</g>
<!-- Node5&#45;&gt;Node6 -->
<g id="edge5_Node000005_Node000006" class="edge">
<title>Node5&#45;&gt;Node6</title>
<g id="a_edge5_Node000005_Node000006"><a xlink:title=" ">
<path fill="none" stroke="#63b8ff" d="M912.6,-461.48C942.24,-470.54 979.19,-481.82 1010.33,-491.33"/>
<polygon fill="#63b8ff" stroke="#63b8ff" points="1009.05,-494.6 1019.64,-494.17 1011.09,-487.9 1009.05,-494.6"/>
</a>
</g>
</g>
<!-- Node7 -->
<g id="Node000007" class="node">
<title>Node7</title>
<g id="a_Node000007"><a xlink:href="classfr_1_1softsf_1_1canscan_1_1_can_scan.html#a2d26dcd1ae708eae46dba8952351aa1a" target="_top" xlink:title="Builds and returns a QrInput object containing all current user inputs and settings.">
<polygon fill="white" stroke="#666666" points="1369,-377 1219.5,-377 1219.5,-345 1369,-345 1369,-377"/>
<text text-anchor="start" x="1227.5" y="-363.5" font-family="Helvetica,sans-Serif" font-size="10.00">fr.softsf.canscan.CanScan.get</text>
<text text-anchor="middle" x="1294.25" y="-351.5" font-family="Helvetica,sans-Serif" font-size="10.00">QrInput</text>
</a>
</g>
</g>
<!-- Node5&#45;&gt;Node7 -->
<g id="edge13_Node000005_Node000007" class="edge">
<title>Node5&#45;&gt;Node7</title>
<g id="a_edge13_Node000005_Node000007"><a xlink:title=" ">
<path fill="none" stroke="#63b8ff" d="M943.67,-460.07C1008.03,-468.1 1097.75,-472 1172.25,-448 1210.3,-435.74 1246.49,-406.59 1269.21,-385.41"/>
<polygon fill="#63b8ff" stroke="#63b8ff" points="1271.62,-387.94 1276.43,-378.49 1266.78,-382.88 1271.62,-387.94"/>
</a>
</g>
</g>
<!-- Node13 -->
<g id="Node000013" class="node">
<title>Node13</title>
<g id="a_Node000013"><a xlink:href="classfr_1_1softsf_1_1canscan_1_1_can_scan.html#a2680fca620b01b32419c021f63a5e047" target="_top" xlink:title="Creates the overlay panel containing the loader and the QR code label.">
<polygon fill="white" stroke="#666666" points="1164.75,-439 986.75,-439 986.75,-407 1164.75,-407 1164.75,-439"/>
<text text-anchor="start" x="994.75" y="-425.5" font-family="Helvetica,sans-Serif" font-size="10.00">fr.softsf.canscan.CanScan.create</text>
<text text-anchor="middle" x="1075.75" y="-413.5" font-family="Helvetica,sans-Serif" font-size="10.00">QrCodeLabelAndLoaderOverlayPanel</text>
</a>
</g>
</g>
<!-- Node5&#45;&gt;Node13 -->
<g id="edge12_Node000005_Node000013" class="edge">
<title>Node5&#45;&gt;Node13</title>
<g id="a_edge12_Node000005_Node000013"><a xlink:title=" ">
<path fill="none" stroke="#63b8ff" d="M943.73,-436.34C954.06,-435.29 964.67,-434.21 975.18,-433.14"/>
<polygon fill="#63b8ff" stroke="#63b8ff" points="975.42,-436.63 985.02,-432.13 974.71,-429.67 975.42,-436.63"/>
</a>
</g>
</g>
<!-- Node6&#45;&gt;Node7 -->
<g id="edge6_Node000006_Node000007" class="edge">
<title>Node6&#45;&gt;Node7</title>
<g id="a_edge6_Node000006_Node000007"><a xlink:title=" ">
<path fill="none" stroke="#63b8ff" d="M1143.52,-494.55C1153.5,-490.82 1163.4,-486.34 1172.25,-481 1213.95,-455.85 1252.04,-413.43 1273.94,-386.35"/>
<polygon fill="#63b8ff" stroke="#63b8ff" points="1276.57,-388.66 1280.04,-378.65 1271.09,-384.31 1276.57,-388.66"/>
</a>
</g>
</g>
<!-- Node12 -->
<g id="Node000012" class="node">
<title>Node12</title>
<g id="a_Node000012"><a xlink:href="classfr_1_1softsf_1_1canscan_1_1_can_scan.html#a9856545d05ef553c8dfddd95a850a360" target="_top" xlink:title="Creates a minimal DocumentListener that executes the given action on any document change.">
<polygon fill="white" stroke="#666666" points="1376.5,-527 1212,-527 1212,-495 1376.5,-495 1376.5,-527"/>
<text text-anchor="start" x="1220" y="-513.5" font-family="Helvetica,sans-Serif" font-size="10.00">fr.softsf.canscan.CanScan.simple</text>
<text text-anchor="middle" x="1294.25" y="-501.5" font-family="Helvetica,sans-Serif" font-size="10.00">DocumentListener</text>
</a>
</g>
</g>
<!-- Node6&#45;&gt;Node12 -->
<g id="edge11_Node000006_Node000012" class="edge">
<title>Node6&#45;&gt;Node12</title>
<g id="a_edge11_Node000006_Node000012"><a xlink:title=" ">
<path fill="none" stroke="#63b8ff" d="M1172.66,-511C1181.8,-511 1191.07,-511 1200.18,-511"/>
<polygon fill="#63b8ff" stroke="#63b8ff" points="1200.12,-514.5 1210.12,-511 1200.12,-507.5 1200.12,-514.5"/>
</a>
</g>
</g>
<!-- Node8 -->
<g id="Node000008" class="node">
<title>Node8</title>
<g id="a_Node000008"><a xlink:href="classfr_1_1softsf_1_1canscan_1_1_can_scan.html#a381368b99c4a0857c6abe6349b2c6d27" target="_top" xlink:title="Calculates the available height for QR code rendering.">
<polygon fill="white" stroke="#666666" points="1591.25,-183 1416.25,-183 1416.25,-151 1591.25,-151 1591.25,-183"/>
<text text-anchor="start" x="1424.25" y="-169.5" font-family="Helvetica,sans-Serif" font-size="10.00">fr.softsf.canscan.CanScan.calculate</text>
<text text-anchor="middle" x="1503.75" y="-157.5" font-family="Helvetica,sans-Serif" font-size="10.00">AvailableQrCodeLabelHeight</text>
</a>
</g>
</g>
<!-- Node7&#45;&gt;Node8 -->
<g id="edge7_Node000007_Node000008" class="edge">
<title>Node7&#45;&gt;Node8</title>
<g id="a_edge7_Node000007_Node000008"><a xlink:title=" ">
<path fill="none" stroke="#63b8ff" d="M1365.24,-344.64C1370.53,-342.15 1375.61,-339.29 1380.25,-336 1402.59,-320.17 1400.2,-308.19 1416.25,-286 1439.67,-253.63 1466.77,-216.38 1484.31,-192.3"/>
<polygon fill="#63b8ff" stroke="#63b8ff" points="1487.02,-194.52 1490.08,-184.37 1481.37,-190.4 1487.02,-194.52"/>
</a>
</g>
</g>
<!-- Node9 -->
<g id="Node000009" class="node">
<title>Node9</title>
<g id="a_Node000009"><a xlink:href="classfr_1_1softsf_1_1canscan_1_1_can_scan.html#a4e67b1b5c764e72414a5c0f387810f5c" target="_top" xlink:title="Validates and returns the current QR code margin from the margin slider.">
<polygon fill="white" stroke="#666666" points="1588.62,-427 1418.88,-427 1418.88,-395 1588.62,-395 1588.62,-427"/>
<text text-anchor="start" x="1426.88" y="-413.5" font-family="Helvetica,sans-Serif" font-size="10.00">fr.softsf.canscan.CanScan.validate</text>
<text text-anchor="middle" x="1503.75" y="-401.5" font-family="Helvetica,sans-Serif" font-size="10.00">AndGetMargin</text>
</a>
</g>
</g>
<!-- Node7&#45;&gt;Node9 -->
<g id="edge8_Node000007_Node000009" class="edge">
<title>Node7&#45;&gt;Node9</title>
<g id="a_edge8_Node000007_Node000009"><a xlink:title=" ">
<path fill="none" stroke="#63b8ff" d="M1363.48,-377.44C1382.63,-382.05 1403.61,-387.11 1423.34,-391.87"/>
<polygon fill="#63b8ff" stroke="#63b8ff" points="1422.47,-395.25 1433.01,-394.19 1424.11,-388.45 1422.47,-395.25"/>
</a>
</g>
</g>
<!-- Node10 -->
<g id="Node000010" class="node">
<title>Node10</title>
<g id="a_Node000010"><a xlink:href="classfr_1_1softsf_1_1canscan_1_1_can_scan.html#a9e8188875168199cde065113ae2a393d" target="_top" xlink:title="Validates and returns the current image&#45;to&#45;QR ratio from the ratio slider.">
<polygon fill="white" stroke="#666666" points="1588.62,-377 1418.88,-377 1418.88,-345 1588.62,-345 1588.62,-377"/>
<text text-anchor="start" x="1426.88" y="-363.5" font-family="Helvetica,sans-Serif" font-size="10.00">fr.softsf.canscan.CanScan.validate</text>
<text text-anchor="middle" x="1503.75" y="-351.5" font-family="Helvetica,sans-Serif" font-size="10.00">AndGetRatio</text>
</a>
</g>
</g>
<!-- Node7&#45;&gt;Node10 -->
<g id="edge9_Node000007_Node000010" class="edge">
<title>Node7&#45;&gt;Node10</title>
<g id="a_edge9_Node000007_Node000010"><a xlink:title=" ">
<path fill="none" stroke="#63b8ff" d="M1369.28,-361C1381.62,-361 1394.56,-361 1407.34,-361"/>
<polygon fill="#63b8ff" stroke="#63b8ff" points="1406.98,-364.5 1416.98,-361 1406.98,-357.5 1406.98,-364.5"/>
</a>
</g>
</g>
<!-- Node11 -->
<g id="Node000011" class="node">
<title>Node11</title>
<g id="a_Node000011"><a xlink:href="classfr_1_1softsf_1_1canscan_1_1_can_scan.html#a6d139bb8d0a3c7081096c8956189b684" target="_top" xlink:title="Validates and returns the QR code size from the corresponding text field.">
<polygon fill="white" stroke="#666666" points="1588.62,-327 1418.88,-327 1418.88,-295 1588.62,-295 1588.62,-327"/>
<text text-anchor="start" x="1426.88" y="-313.5" font-family="Helvetica,sans-Serif" font-size="10.00">fr.softsf.canscan.CanScan.validate</text>
<text text-anchor="middle" x="1503.75" y="-301.5" font-family="Helvetica,sans-Serif" font-size="10.00">AndGetSize</text>
</a>
</g>
</g>
<!-- Node7&#45;&gt;Node11 -->
<g id="edge10_Node000007_Node000011" class="edge">
<title>Node7&#45;&gt;Node11</title>
<g id="a_edge10_Node000007_Node000011"><a xlink:title=" ">
<path fill="none" stroke="#63b8ff" d="M1363.48,-344.56C1382.63,-339.95 1403.61,-334.89 1423.34,-330.13"/>
<polygon fill="#63b8ff" stroke="#63b8ff" points="1424.11,-333.55 1433.01,-327.81 1422.47,-326.75 1424.11,-333.55"/>
</a>
</g>
</g>
<!-- Node15 -->
<g id="Node000015" class="node">
<title>Node15</title>
<g id="a_Node000015"><a xlink:href="classfr_1_1softsf_1_1canscan_1_1_can_scan.html#ab2e018ca62c7497c29e84f42ae870daa" target="_top" xlink:title="Adds MECARD and Free card panels to the north panel.">
<polygon fill="white" stroke="#666666" points="933.5,-104 781.75,-104 781.75,-72 933.5,-72 933.5,-104"/>
<text text-anchor="start" x="789.75" y="-90.5" font-family="Helvetica,sans-Serif" font-size="10.00">fr.softsf.canscan.CanScan.add</text>
<text text-anchor="middle" x="857.62" y="-78.5" font-family="Helvetica,sans-Serif" font-size="10.00">NorthPanelCardPanels</text>
</a>
</g>
</g>
<!-- Node14&#45;&gt;Node15 -->
<g id="edge15_Node000014_Node000015" class="edge">
<title>Node14&#45;&gt;Node15</title>
<g id="a_edge15_Node000014_Node000015"><a xlink:title=" ">
<path fill="none" stroke="#63b8ff" d="M719.98,-165.69C725.6,-163.18 731.02,-160.3 736,-157 757.05,-143.02 750.95,-126.98 772,-113 773.87,-111.76 775.8,-110.58 777.77,-109.46"/>
<polygon fill="#63b8ff" stroke="#63b8ff" points="779.3,-112.61 786.67,-104.99 776.16,-106.35 779.3,-112.61"/>
</a>
</g>
</g>
<!-- Node19 -->
<g id="Node000019" class="node">
<title>Node19</title>
<g id="a_Node000019"><a xlink:href="classfr_1_1softsf_1_1canscan_1_1_can_scan.html#a94ab4df98de0d05977e6a65ab75f89f0" target="_top" xlink:title="Adds common input fields to the north panel.">
<polygon fill="white" stroke="#666666" points="933.5,-304 781.75,-304 781.75,-272 933.5,-272 933.5,-304"/>
<text text-anchor="start" x="789.75" y="-290.5" font-family="Helvetica,sans-Serif" font-size="10.00">fr.softsf.canscan.CanScan.add</text>
<text text-anchor="middle" x="857.62" y="-278.5" font-family="Helvetica,sans-Serif" font-size="10.00">NorthPanelCommonFields</text>
</a>
</g>
</g>
<!-- Node14&#45;&gt;Node19 -->
<g id="edge20_Node000014_Node000019" class="edge">
<title>Node14&#45;&gt;Node19</title>
<g id="a_edge20_Node000014_Node000019"><a xlink:title=" ">
<path fill="none" stroke="#63b8ff" d="M712.44,-198.47C720.79,-202.17 728.92,-206.63 736,-212 758.11,-228.76 749.45,-246.84 772,-263 773.58,-264.13 775.22,-265.22 776.9,-266.25"/>
<polygon fill="#63b8ff" stroke="#63b8ff" points="775.12,-269.27 785.58,-270.94 778.44,-263.11 775.12,-269.27"/>
</a>
</g>
</g>
<!-- Node21 -->
<g id="Node000021" class="node">
<title>Node21</title>
<g id="a_Node000021"><a xlink:href="classfr_1_1softsf_1_1canscan_1_1_can_scan.html#a9f205dfdb266d5d7f8f8899b69742663" target="_top" xlink:title="Adds the generate button to the north panel.">
<polygon fill="white" stroke="#666666" points="933.5,-254 781.75,-254 781.75,-222 933.5,-222 933.5,-254"/>
<text text-anchor="start" x="789.75" y="-240.5" font-family="Helvetica,sans-Serif" font-size="10.00">fr.softsf.canscan.CanScan.add</text>
<text text-anchor="middle" x="857.62" y="-228.5" font-family="Helvetica,sans-Serif" font-size="10.00">NorthPanelGenerateButton</text>
</a>
</g>
</g>
<!-- Node14&#45;&gt;Node21 -->
<g id="edge25_Node000014_Node000021" class="edge">
<title>Node14&#45;&gt;Node21</title>
<g id="a_edge25_Node000014_Node000021"><a xlink:title=" ">
<path fill="none" stroke="#63b8ff" d="M711.85,-198.5C734.92,-204.79 761.43,-212.03 785.41,-218.57"/>
<polygon fill="#63b8ff" stroke="#63b8ff" points="784.2,-221.87 794.77,-221.12 786.04,-215.12 784.2,-221.87"/>
</a>
</g>
</g>
<!-- Node22 -->
<g id="Node000022" class="node">
<title>Node22</title>
<g id="a_Node000022"><a xlink:href="classfr_1_1softsf_1_1canscan_1_1_can_scan.html#aa469763b92dd7cbc6dfdb9aaa0116b33" target="_top" xlink:title="Adds mode selection controls (MECARD/Free) to the north panel.">
<polygon fill="white" stroke="#666666" points="933.5,-204 781.75,-204 781.75,-172 933.5,-172 933.5,-204"/>
<text text-anchor="start" x="789.75" y="-190.5" font-family="Helvetica,sans-Serif" font-size="10.00">fr.softsf.canscan.CanScan.add</text>
<text text-anchor="middle" x="857.62" y="-178.5" font-family="Helvetica,sans-Serif" font-size="10.00">NorthPanelModeSelection</text>
</a>
</g>
</g>
<!-- Node14&#45;&gt;Node22 -->
<g id="edge26_Node000014_Node000022" class="edge">
<title>Node14&#45;&gt;Node22</title>
<g id="a_edge26_Node000014_Node000022"><a xlink:title=" ">
<path fill="none" stroke="#63b8ff" d="M736.34,-184.48C747.59,-184.81 759.13,-185.15 770.4,-185.48"/>
<polygon fill="#63b8ff" stroke="#63b8ff" points="769.95,-188.97 780.05,-185.76 770.15,-181.97 769.95,-188.97"/>
</a>
</g>
</g>
<!-- Node28 -->
<g id="Node000028" class="node">
<title>Node28</title>
<g id="a_Node000028"><a xlink:href="classfr_1_1softsf_1_1canscan_1_1_can_scan.html#aeb5550da33925e95999aae23f525f7c5" target="_top" xlink:title="Creates default GridBagConstraints for consistent layout configuration.">
<polygon fill="white" stroke="#666666" points="936.5,-154 778.75,-154 778.75,-122 936.5,-122 936.5,-154"/>
<text text-anchor="start" x="786.75" y="-140.5" font-family="Helvetica,sans-Serif" font-size="10.00">fr.softsf.canscan.CanScan.north</text>
<text text-anchor="middle" x="857.62" y="-128.5" font-family="Helvetica,sans-Serif" font-size="10.00">PanelGridBagConstraints</text>
</a>
</g>
</g>
<!-- Node14&#45;&gt;Node28 -->
<g id="edge35_Node000014_Node000028" class="edge">
<title>Node14&#45;&gt;Node28</title>
<g id="a_edge35_Node000014_Node000028"><a xlink:title=" ">
<path fill="none" stroke="#63b8ff" d="M728.09,-165.55C741.26,-162.73 755.03,-159.78 768.47,-156.9"/>
<polygon fill="#63b8ff" stroke="#63b8ff" points="769.13,-160.34 778.18,-154.82 767.67,-153.49 769.13,-160.34"/>
</a>
</g>
</g>
<!-- Node16 -->
<g id="Node000016" class="node">
<title>Node16</title>
<g id="a_Node000016"><a xlink:href="classfr_1_1softsf_1_1canscan_1_1_can_scan.html#a38d65dd319daee1c3288690c17e43ca5" target="_top" xlink:title="Initializes the FREE mode input panel with a multiline text area for arbitrary text or URLs.">
<polygon fill="white" stroke="#666666" points="1162.5,-51 989,-51 989,-31 1162.5,-31 1162.5,-51"/>
<text text-anchor="middle" x="1075.75" y="-37.5" font-family="Helvetica,sans-Serif" font-size="10.00">fr.softsf.canscan.CanScan.freeCard</text>
</a>
</g>
</g>
<!-- Node15&#45;&gt;Node16 -->
<g id="edge16_Node000015_Node000016" class="edge">
<title>Node15&#45;&gt;Node16</title>
<g id="a_edge16_Node000015_Node000016"><a xlink:title=" ">
<path fill="none" stroke="#63b8ff" d="M927.75,-71.56C944.58,-67.66 962.54,-63.6 979.25,-60 988.98,-57.9 999.28,-55.77 1009.37,-53.72"/>
<polygon fill="#63b8ff" stroke="#63b8ff" points="1010.05,-57.15 1019.16,-51.75 1008.67,-50.29 1010.05,-57.15"/>
</a>
</g>
</g>
<!-- Node18 -->
<g id="Node000018" class="node">
<title>Node18</title>
<g id="a_Node000018"><a xlink:href="classfr_1_1softsf_1_1canscan_1_1_can_scan.html#aed7e3048974882318a6519d8d36e8ec0" target="_top" xlink:title="Initializes the MECARD input panel with labeled text fields for structured contact information.">
<polygon fill="white" stroke="#666666" points="1159.88,-89 991.62,-89 991.62,-69 1159.88,-69 1159.88,-89"/>
<text text-anchor="middle" x="1075.75" y="-75.5" font-family="Helvetica,sans-Serif" font-size="10.00">fr.softsf.canscan.CanScan.mecard</text>
</a>
</g>
</g>
<!-- Node15&#45;&gt;Node18 -->
<g id="edge18_Node000015_Node000018" class="edge">
<title>Node15&#45;&gt;Node18</title>
<g id="a_edge18_Node000015_Node000018"><a xlink:title=" ">
<path fill="none" stroke="#63b8ff" d="M933.91,-84.86C948.81,-84.24 964.63,-83.59 980.08,-82.94"/>
<polygon fill="#63b8ff" stroke="#63b8ff" points="979.89,-86.45 989.73,-82.54 979.59,-79.46 979.89,-86.45"/>
</a>
</g>
</g>
<!-- Node17 -->
<g id="Node000017" class="node">
<title>Node17</title>
<g id="a_Node000017"><a xlink:href="classfr_1_1softsf_1_1canscan_1_1_can_scan.html#a2732ecdc4490a717352975e68fce494c" target="_top" xlink:title="Adds a labeled component row to a panel using GridBagLayout.">
<polygon fill="white" stroke="#666666" points="1380.25,-110 1208.25,-110 1208.25,-90 1380.25,-90 1380.25,-110"/>
<text text-anchor="middle" x="1294.25" y="-96.5" font-family="Helvetica,sans-Serif" font-size="10.00">fr.softsf.canscan.CanScan.addRow</text>
</a>
</g>
</g>
<!-- Node16&#45;&gt;Node17 -->
<g id="edge17_Node000016_Node000017" class="edge">
<title>Node16&#45;&gt;Node17</title>
<g id="a_edge17_Node000016_Node000017"><a xlink:title=" ">
<path fill="none" stroke="#63b8ff" d="M1135.34,-51.47C1147.6,-54 1160.4,-56.87 1172.25,-60 1200.14,-67.35 1231,-77.59 1254.57,-85.87"/>
<polygon fill="#63b8ff" stroke="#63b8ff" points="1253.16,-89.08 1263.76,-89.13 1255.5,-82.48 1253.16,-89.08"/>
</a>
</g>
</g>
<!-- Node18&#45;&gt;Node17 -->
<g id="edge19_Node000018_Node000017" class="edge">
<title>Node18&#45;&gt;Node17</title>
<g id="a_edge19_Node000018_Node000017"><a xlink:title=" ">
<path fill="none" stroke="#63b8ff" d="M1160.14,-87.09C1172.18,-88.26 1184.66,-89.47 1196.92,-90.66"/>
<polygon fill="#63b8ff" stroke="#63b8ff" points="1196.31,-94.11 1206.6,-91.6 1196.99,-87.15 1196.31,-94.11"/>
</a>
</g>
</g>
<!-- Node19&#45;&gt;Node17 -->
<g id="edge21_Node000019_Node000017" class="edge">
<title>Node19&#45;&gt;Node17</title>
<g id="a_edge21_Node000019_Node000017"><a xlink:title=" ">
<path fill="none" stroke="#63b8ff" d="M934,-286.49C1013.51,-283.73 1132.68,-275.95 1172.25,-254 1228.08,-223.03 1267.11,-154.64 1283.94,-120.39"/>
<polygon fill="#63b8ff" stroke="#63b8ff" points="1287.01,-122.08 1288.15,-111.55 1280.69,-119.08 1287.01,-122.08"/>
</a>
</g>
</g>
<!-- Node20 -->
<g id="Node000020" class="node">
<title>Node20</title>
<g id="a_Node000020"><a xlink:href="classfr_1_1softsf_1_1canscan_1_1_can_scan.html#a17b0a72ab305f98f86591411b6a352f2" target="_top" xlink:title="Creates the color selection panel for QR code and background colors.">
<polygon fill="white" stroke="#666666" points="1154.25,-371 997.25,-371 997.25,-339 1154.25,-339 1154.25,-371"/>
<text text-anchor="start" x="1005.25" y="-357.5" font-family="Helvetica,sans-Serif" font-size="10.00">fr.softsf.canscan.CanScan.color</text>
<text text-anchor="middle" x="1075.75" y="-345.5" font-family="Helvetica,sans-Serif" font-size="10.00">Panel</text>
</a>
</g>
</g>
<!-- Node19&#45;&gt;Node20 -->
<g id="edge22_Node000019_Node000020" class="edge">
<title>Node19&#45;&gt;Node20</title>
<g id="a_edge22_Node000019_Node000020"><a xlink:title=" ">
<path fill="none" stroke="#63b8ff" d="M903.03,-304.4C925.7,-312.54 953.79,-322.25 979.25,-330 985.39,-331.87 991.79,-333.73 998.22,-335.54"/>
<polygon fill="#63b8ff" stroke="#63b8ff" points="997.03,-338.84 1007.6,-338.13 998.89,-332.09 997.03,-338.84"/>
</a>
</g>
</g>
<!-- Node20&#45;&gt;Node7 -->
<g id="edge24_Node000020_Node000007" class="edge">
<title>Node20&#45;&gt;Node7</title>
<g id="a_edge24_Node000020_Node000007"><a xlink:title=" ">
<path fill="none" stroke="#63b8ff" d="M1154.61,-357.16C1171.91,-357.64 1190.34,-358.15 1207.92,-358.64"/>
<polygon fill="#63b8ff" stroke="#63b8ff" points="1207.73,-362.13 1217.82,-358.91 1207.93,-355.13 1207.73,-362.13"/>
</a>
</g>
</g>
<!-- Node20&#45;&gt;Node20 -->
<g id="edge23_Node000020_Node000020" class="edge">
<title>Node20&#45;&gt;Node20</title>
<g id="a_edge23_Node000020_Node000020"><a xlink:title=" ">
<path fill="none" stroke="#63b8ff" d="M1036.81,-371.44C1029.54,-380.58 1042.52,-389 1075.75,-389 1094.18,-389 1106.38,-386.41 1112.36,-382.54"/>
<polygon fill="#63b8ff" stroke="#63b8ff" points="1115.75,-383.43 1114.38,-372.92 1108.9,-381.99 1115.75,-383.43"/>
</a>
</g>
</g>
<!-- Node22&#45;&gt;Node17 -->
<g id="edge27_Node000022_Node000017" class="edge">
<title>Node22&#45;&gt;Node17</title>
<g id="a_edge27_Node000022_Node000017"><a xlink:title=" ">
<path fill="none" stroke="#63b8ff" d="M923.32,-171.52C930.19,-169 936.95,-166.16 943.25,-163 961.12,-154.02 960.67,-143.4 979.25,-136 1048.62,-108.39 1132.97,-99.96 1196.76,-98.12"/>
<polygon fill="#63b8ff" stroke="#63b8ff" points="1196.6,-101.62 1206.51,-97.89 1196.43,-94.63 1196.6,-101.62"/>
</a>
</g>
</g>
<!-- Node23 -->
<g id="Node000023" class="node">
<title>Node23</title>
<g id="a_Node000023"><a xlink:href="classfr_1_1softsf_1_1canscan_1_1_can_scan.html#a381579d3adc53b1122b38e7fda5c0235" target="_top" xlink:title="Configures the update button for version checking.">
<polygon fill="white" stroke="#666666" points="1163.62,-245 987.88,-245 987.88,-213 1163.62,-213 1163.62,-245"/>
<text text-anchor="start" x="995.88" y="-231.5" font-family="Helvetica,sans-Serif" font-size="10.00">fr.softsf.canscan.CanScan.configure</text>
<text text-anchor="middle" x="1075.75" y="-219.5" font-family="Helvetica,sans-Serif" font-size="10.00">UpdateButton</text>
</a>
</g>
</g>
<!-- Node22&#45;&gt;Node23 -->
<g id="edge28_Node000022_Node000023" class="edge">
<title>Node22&#45;&gt;Node23</title>
<g id="a_edge28_Node000022_Node000023"><a xlink:title=" ">
<path fill="none" stroke="#63b8ff" d="M933.91,-202.28C947.79,-204.92 962.47,-207.7 976.91,-210.44"/>
<polygon fill="#63b8ff" stroke="#63b8ff" points="975.92,-213.81 986.39,-212.24 977.22,-206.94 975.92,-213.81"/>
</a>
</g>
</g>
<!-- Node24 -->
<g id="Node000024" class="node">
<title>Node24</title>
<g id="a_Node000024"><a xlink:href="classfr_1_1softsf_1_1canscan_1_1_can_scan.html#a5d8f82f2666e6632015dbc4a8ff2b58e" target="_top" xlink:title="Creates the radio button panel for mode selection.">
<polygon fill="white" stroke="#666666" points="1154.25,-177 997.25,-177 997.25,-145 1154.25,-145 1154.25,-177"/>
<text text-anchor="start" x="1005.25" y="-163.5" font-family="Helvetica,sans-Serif" font-size="10.00">fr.softsf.canscan.CanScan.radio</text>
<text text-anchor="middle" x="1075.75" y="-151.5" font-family="Helvetica,sans-Serif" font-size="10.00">ButtonsPanel</text>
</a>
</g>
</g>
<!-- Node22&#45;&gt;Node24 -->
<g id="edge29_Node000022_Node000024" class="edge">
<title>Node22&#45;&gt;Node24</title>
<g id="a_edge29_Node000022_Node000024"><a xlink:title=" ">
<path fill="none" stroke="#63b8ff" d="M933.91,-178.59C950.6,-176.51 968.44,-174.28 985.62,-172.13"/>
<polygon fill="#63b8ff" stroke="#63b8ff" points="985.81,-175.64 995.3,-170.93 984.94,-168.69 985.81,-175.64"/>
</a>
</g>
</g>
<!-- Node25 -->
<g id="Node000025" class="node">
<title>Node25</title>
<g id="a_Node000025"><a xlink:href="classfr_1_1softsf_1_1canscan_1_1_can_scan.html#a428c742b098fa27d4c8984c1030c238d" target="_top" xlink:title="Switches the application between MECARD and FREE QR code modes.">
<polygon fill="white" stroke="#666666" points="1170,-321 981.5,-321 981.5,-301 1170,-301 1170,-321"/>
<text text-anchor="middle" x="1075.75" y="-307.5" font-family="Helvetica,sans-Serif" font-size="10.00">fr.softsf.canscan.CanScan.switchMode</text>
</a>
</g>
</g>
<!-- Node22&#45;&gt;Node25 -->
<g id="edge31_Node000022_Node000025" class="edge">
<title>Node22&#45;&gt;Node25</title>
<g id="a_edge31_Node000022_Node000025"><a xlink:title=" ">
<path fill="none" stroke="#63b8ff" d="M927.11,-204.5C932.75,-206.96 938.22,-209.78 943.25,-213 963.68,-226.06 960.61,-238.49 979.25,-254 998.78,-270.26 1023.48,-284.87 1042.86,-295.22"/>
<polygon fill="#63b8ff" stroke="#63b8ff" points="1041.19,-298.3 1051.67,-299.82 1044.43,-292.09 1041.19,-298.3"/>
</a>
</g>
</g>
<!-- Node24&#45;&gt;Node24 -->
<g id="edge30_Node000024_Node000024" class="edge">
<title>Node24&#45;&gt;Node24</title>
<g id="a_edge30_Node000024_Node000024"><a xlink:title=" ">
<path fill="none" stroke="#63b8ff" d="M1036.81,-177.44C1029.54,-186.58 1042.52,-195 1075.75,-195 1094.18,-195 1106.38,-192.41 1112.36,-188.54"/>
<polygon fill="#63b8ff" stroke="#63b8ff" points="1115.75,-189.43 1114.38,-178.92 1108.9,-187.99 1115.75,-189.43"/>
</a>
</g>
</g>
<!-- Node25&#45;&gt;Node7 -->
<g id="edge32_Node000025_Node000007" class="edge">
<title>Node25&#45;&gt;Node7</title>
<g id="a_edge32_Node000025_Node000007"><a xlink:title=" ">
<path fill="none" stroke="#63b8ff" d="M1132.16,-321.49C1145.33,-324.13 1159.31,-327.06 1172.25,-330 1188.06,-333.59 1204.95,-337.73 1220.94,-341.79"/>
<polygon fill="#63b8ff" stroke="#63b8ff" points="1219.83,-345.12 1230.38,-344.2 1221.56,-338.34 1219.83,-345.12"/>
</a>
</g>
</g>
<!-- Node26 -->
<g id="Node000026" class="node">
<title>Node26</title>
<g id="a_Node000026"><a xlink:href="enumfr_1_1softsf_1_1canscan_1_1model_1_1_mode.html#a16a898a11ca939056bd7b275f11ea54c" target="_top" xlink:title="Returns the mode label.">
<polygon fill="white" stroke="#666666" points="1355.12,-277 1233.38,-277 1233.38,-245 1355.12,-245 1355.12,-277"/>
<text text-anchor="start" x="1241.38" y="-263.5" font-family="Helvetica,sans-Serif" font-size="10.00">fr.softsf.canscan.model.</text>
<text text-anchor="middle" x="1294.25" y="-251.5" font-family="Helvetica,sans-Serif" font-size="10.00">Mode.text</text>
</a>
</g>
</g>
<!-- Node25&#45;&gt;Node26 -->
<g id="edge33_Node000025_Node000026" class="edge">
<title>Node25&#45;&gt;Node26</title>
<g id="a_edge33_Node000025_Node000026"><a xlink:title=" ">
<path fill="none" stroke="#63b8ff" d="M1122.14,-300.52C1151.1,-293.83 1189.25,-285.02 1222.18,-277.41"/>
<polygon fill="#63b8ff" stroke="#63b8ff" points="1222.7,-280.89 1231.65,-275.23 1221.12,-274.07 1222.7,-280.89"/>
</a>
</g>
</g>
<!-- Node27 -->
<g id="Node000027" class="node">
<title>Node27</title>
<g id="a_Node000027"><a xlink:href="classfr_1_1softsf_1_1canscan_1_1_can_scan.html#a11fd9295c4843e6e68f9d1e4a710b906" target="_top" xlink:title="Validates the current input fields and toggles the state of the generate button.">
<polygon fill="white" stroke="#666666" points="1376.88,-327 1211.62,-327 1211.62,-295 1376.88,-295 1376.88,-327"/>
<text text-anchor="start" x="1219.62" y="-313.5" font-family="Helvetica,sans-Serif" font-size="10.00">fr.softsf.canscan.CanScan.update</text>
<text text-anchor="middle" x="1294.25" y="-301.5" font-family="Helvetica,sans-Serif" font-size="10.00">GenerateButtonState</text>
</a>
</g>
</g>
<!-- Node25&#45;&gt;Node27 -->
<g id="edge34_Node000025_Node000027" class="edge">
<title>Node25&#45;&gt;Node27</title>
<g id="a_edge34_Node000025_Node000027"><a xlink:title=" ">
<path fill="none" stroke="#63b8ff" d="M1170.45,-311C1180.23,-311 1190.16,-311 1199.93,-311"/>
<polygon fill="#63b8ff" stroke="#63b8ff" points="1199.79,-314.5 1209.79,-311 1199.79,-307.5 1199.79,-314.5"/>
</a>
</g>
</g>
<!-- Node31 -->
<g id="Node000031" class="node">
<title>Node31</title>
<g id="a_Node000031"><a xlink:href="classfr_1_1softsf_1_1canscan_1_1_can_scan.html#abbe4fb71ad979d6affed0b2c9629b832" target="_top" xlink:title="Updates the tooltip of the ratio slider to reflect its current value as a percentage.">
<polygon fill="white" stroke="#666666" points="932.38,-54 782.88,-54 782.88,-22 932.38,-22 932.38,-54"/>
<text text-anchor="start" x="790.88" y="-40.5" font-family="Helvetica,sans-Serif" font-size="10.00">fr.softsf.canscan.CanScan.set</text>
<text text-anchor="middle" x="857.62" y="-28.5" font-family="Helvetica,sans-Serif" font-size="10.00">RatioSliderTooltipValue</text>
</a>
</g>
</g>
<!-- Node30&#45;&gt;Node31 -->
<g id="edge38_Node000030_Node000031" class="edge">
<title>Node30&#45;&gt;Node31</title>
<g id="a_edge38_Node000030_Node000031"><a xlink:title=" ">
<path fill="none" stroke="#63b8ff" d="M736.34,-60.86C747.96,-58.65 759.88,-56.38 771.5,-54.17"/>
<polygon fill="#63b8ff" stroke="#63b8ff" points="771.87,-57.67 781.04,-52.36 770.57,-50.79 771.87,-57.67"/>
</a>
</g>
</g>
<!-- Node33 -->
<g id="Node000033" class="node">
<title>Node33</title>
<g id="a_Node000033"><a xlink:href="classfr_1_1softsf_1_1canscan_1_1_can_scan.html#a0fe215984734bb1337dd49ca30238b78" target="_top" xlink:title="Sets the loader size so it matches the QR code label height and remains centered.">
<polygon fill="white" stroke="#666666" points="1369,-37 1219.5,-37 1219.5,-5 1369,-5 1369,-37"/>
<text text-anchor="start" x="1227.5" y="-23.5" font-family="Helvetica,sans-Serif" font-size="10.00">fr.softsf.canscan.CanScan.set</text>
<text text-anchor="middle" x="1294.25" y="-11.5" font-family="Helvetica,sans-Serif" font-size="10.00">LoaderSize</text>
</a>
</g>
</g>
<!-- Node32&#45;&gt;Node33 -->
<g id="edge41_Node000032_Node000033" class="edge">
<title>Node32&#45;&gt;Node33</title>
<g id="a_edge41_Node000032_Node000033"><a xlink:title=" ">
<path fill="none" stroke="#63b8ff" d="M736.38,-13.62C748.34,-13.36 760.48,-13.14 772,-13 925.52,-11.09 1104.47,-15.23 1207.73,-18.23"/>
<polygon fill="#63b8ff" stroke="#63b8ff" points="1207.41,-21.72 1217.5,-18.52 1207.61,-14.73 1207.41,-21.72"/>
</a>
</g>
</g>
<!-- Node33&#45;&gt;Node8 -->
<g id="edge42_Node000033_Node000008" class="edge">
<title>Node33&#45;&gt;Node8</title>
<g id="a_edge42_Node000033_Node000008"><a xlink:title=" ">
<path fill="none" stroke="#63b8ff" d="M1318.65,-37.46C1355.72,-63.55 1428.05,-114.44 1470.17,-144.08"/>
<polygon fill="#63b8ff" stroke="#63b8ff" points="1468.01,-146.83 1478.2,-149.72 1472.03,-141.11 1468.01,-146.83"/>
</a>
</g>
</g>
</g>
</svg>

<g id="navigator" transform="translate(0 0)" fill="#404254">
  <rect fill="#f2f5e9" fill-opacity="0.5" stroke="#606060" stroke-width=".5" x="0" y="0" width="60" height="60"/>
  <use id="zoomplus" xlink:href="#zoomPlus" x="17" y="9" onmousedown="handleZoom(evt,'in')"/>
  <use id="zoomminus" xlink:href="#zoomMin" x="42" y="9" onmousedown="handleZoom(evt,'out')"/>
  <use id="reset" xlink:href="#resetDef" x="30" y="36" onmousedown="handleReset()"/>
   <use id="arrowup" xlink:href="#arrowUp" x="0" y="0" onmousedown="handlePan(0,-1)"/>
  <use id="arrowright" xlink:href="#arrowRight" x="0" y="0" onmousedown="handlePan(1,0)"/>
  <use id="arrowdown" xlink:href="#arrowDown" x="0" y="0" onmousedown="handlePan(0,1)"/>
  <use id="arrowleft" xlink:href="#arrowLeft" x="0" y="0" onmousedown="handlePan(-1,0)"/>
</g>
<svg viewBox="0 0 15 15" width="100%" height="30px" preserveAspectRatio="xMaxYMin meet">
 <g id="arrow_out" transform="scale(0.3 0.3)">
  <a xlink:href="classfr_1_1softsf_1_1canscan_1_1_can_scan_ae9d7eee5ec656c89834bed84a588334f_cgraph_org.svg" target="_base">
   <rect id="button" ry="5" rx="5" y="6" x="6" height="38" width="38"
        fill="#f2f5e9" fill-opacity="0.5" stroke="#606060" stroke-width="1.0"/>
   <path id="arrow"
     d="M 11.500037,31.436501 C 11.940474,20.09759 22.043105,11.32322 32.158766,21.979434 L 37.068811,17.246167 C 37.068811,17.246167 37.088388,32 37.088388,32 L 22.160133,31.978069 C 22.160133,31.978069 26.997745,27.140456 26.997745,27.140456 C 18.528582,18.264221 13.291696,25.230495 11.500037,31.436501 z"
     style="fill:#404040;"/>
  </a>
 </g>
</svg>

<style type='text/css'>
<![CDATA[
[data-mouse-over-selected='false'] { opacity: 0.7; }
[data-mouse-over-selected='true']  { opacity: 1.0; }
]]>
</style>
<script type="application/ecmascript"><![CDATA[
document.addEventListener('DOMContentLoaded', (event) => {
  highlightEdges();
  highlightAdjacentNodes();
});
]]></script>
</svg>
