<?xml version="1.0" encoding="UTF-8" standalone="no"?>
<!DOCTYPE svg PUBLIC "-//W3C//DTD SVG 1.1//EN"
 "http://www.w3.org/Graphics/SVG/1.1/DTD/svg11.dtd">
<!-- Generated by graphviz version 12.2.1 (20241206.2353)
 -->
<!-- Title: fr.softsf.canscan.ui.FlatLafTimePicker.FlatLafTimePicker Pages: 1 -->
<!--zoomable 90 -->

<svg id="main" version="1.1" xmlns="http://www.w3.org/2000/svg" xmlns:xlink="http://www.w3.org/1999/xlink" xml:space="preserve" onload="init(evt)">

<style type="text/css"><![CDATA[
.node, .edge {opacity: 0.7;}
.node.selected, .edge.selected {opacity: 1;}
.edge:hover path { stroke: red; }
.edge:hover polygon { stroke: red; fill: red; }
]]></style>

<defs>
  <circle id="rim" cx="0" cy="0" r="7"/>
  <circle id="rim2" cx="0" cy="0" r="3.5"/>
  <g id="zoomPlus">
    <use xlink:href="#rim" fill="#404040"><set attributeName="fill" to="#808080" begin="zoomplus.mouseover" end="zoomplus.mouseout"/></use>
    <path d="M-4,0h8M0,-4v8" fill="none" stroke="white" stroke-width="1.5" pointer-events="none"/>
  </g>
  <g id="zoomMin">
    <use xlink:href="#rim" fill="#404040"><set attributeName="fill" to="#808080" begin="zoomminus.mouseover" end="zoomminus.mouseout"/></use>
    <path d="M-4,0h8" fill="none" stroke="white" stroke-width="1.5" pointer-events="none"/>
  </g>
  <g id="arrowUp" transform="translate(30 24)">
    <use xlink:href="#rim"/>
    <path pointer-events="none" fill="none" stroke="white" stroke-width="1.5" d="M0,-3.0v7 M-2.5,-0.5L0,-3.0L2.5,-0.5"/>
  </g>
  <g id="arrowRight" transform="rotate(90) translate(36 -43)">
    <use xlink:href="#rim"/>
    <path pointer-events="none" fill="none" stroke="white" stroke-width="1.5" d="M0,-3.0v7 M-2.5,-0.5L0,-3.0L2.5,-0.5"/>
  </g>
  <g id="arrowDown" transform="rotate(180) translate(-30 -48)">
    <use xlink:href="#rim"/>
    <path pointer-events="none" fill="none" stroke="white" stroke-width="1.5" d="M0,-3.0v7 M-2.5,-0.5L0,-3.0L2.5,-0.5"/>
  </g>
  <g id="arrowLeft" transform="rotate(270) translate(-36 17)">
    <use xlink:href="#rim"/>
    <path pointer-events="none" fill="none" stroke="white" stroke-width="1.5" d="M0,-3.0v7 M-2.5,-0.5L0,-3.0L2.5,-0.5"/>
  </g>
  <g id="resetDef">
    <use xlink:href="#rim2" fill="#404040"><set attributeName="fill" to="#808080" begin="reset.mouseover" end="reset.mouseout"/></use>
  </g>
</defs>
<script type="application/ecmascript">
var viewWidth = 825;
var viewHeight = 90;
var sectionId = 'dynsection-2';
</script>
<script type="application/ecmascript" xlink:href="svg.min.js"/>
<svg id="graph" class="graph">
<g id="viewport">
<title>fr.softsf.canscan.ui.FlatLafTimePicker.FlatLafTimePicker</title>
<!-- Node1 -->
<g id="Node000001" class="node">
<title>Node1</title>
<g id="a_Node000001"><a xlink:title="Creates a new FlatLafTimePicker with styling applied and listener installed.">
<polygon fill="#999999" stroke="#666666" points="161.5,-63 0,-63 0,-31 161.5,-31 161.5,-63"/>
<text text-anchor="start" x="8" y="-49.5" font-family="Helvetica,sans-Serif" font-size="10.00">fr.softsf.canscan.ui.Flat</text>
<text text-anchor="middle" x="80.75" y="-37.5" font-family="Helvetica,sans-Serif" font-size="10.00">LafTimePicker.FlatLafTimePicker</text>
</a>
</g>
</g>
<!-- Node2 -->
<g id="Node000002" class="node">
<title>Node2</title>
<g id="a_Node000002"><a xlink:href="interfacefr_1_1softsf_1_1canscan_1_1ui_1_1_i_flat_laf_styled_for_l_good_date_picker.html#a5fdca55f301a7bc8db1f4dbf6caaa635" target="_top" xlink:title="Applies FlatLaf styling to the internal JTextField.">
<polygon fill="white" stroke="#666666" points="615.75,-82 410.75,-82 410.75,-50 615.75,-50 615.75,-82"/>
<text text-anchor="start" x="418.75" y="-68.5" font-family="Helvetica,sans-Serif" font-size="10.00">fr.softsf.canscan.ui.IFlat</text>
<text text-anchor="middle" x="513.25" y="-56.5" font-family="Helvetica,sans-Serif" font-size="10.00">LafStyledForLGoodDatePicker.applyTheme</text>
</a>
</g>
</g>
<!-- Node1&#45;&gt;Node2 -->
<g id="edge1_Node000001_Node000002" class="edge">
<title>Node1&#45;&gt;Node2</title>
<g id="a_edge1_Node000001_Node000002"><a xlink:title=" ">
<path fill="none" stroke="#63b8ff" d="M161.76,-51.26C173.74,-51.86 185.94,-52.46 197.5,-53 264.35,-56.11 339.2,-59.22 399.14,-61.62"/>
<polygon fill="#63b8ff" stroke="#63b8ff" points="398.89,-65.11 409.02,-62.01 399.17,-58.11 398.89,-65.11"/>
</a>
</g>
</g>
<!-- Node4 -->
<g id="Node000004" class="node">
<title>Node4</title>
<g id="a_Node000004"><a xlink:href="interfacefr_1_1softsf_1_1canscan_1_1ui_1_1_i_flat_laf_styled_for_l_good_date_picker.html#a6dc0ecfec2349d410dc78f6f8feca211" target="_top" xlink:title="Installs a property change listener on the internal text field.">
<polygon fill="white" stroke="#666666" points="374.75,-44 197.5,-44 197.5,0 374.75,0 374.75,-44"/>
<text text-anchor="start" x="205.5" y="-30.5" font-family="Helvetica,sans-Serif" font-size="10.00">fr.softsf.canscan.ui.IFlat</text>
<text text-anchor="start" x="205.5" y="-18.5" font-family="Helvetica,sans-Serif" font-size="10.00">LafStyledForLGoodDatePicker.install</text>
<text text-anchor="middle" x="286.12" y="-6.5" font-family="Helvetica,sans-Serif" font-size="10.00">ThemeListener</text>
</a>
</g>
</g>
<!-- Node1&#45;&gt;Node4 -->
<g id="edge3_Node000001_Node000004" class="edge">
<title>Node1&#45;&gt;Node4</title>
<g id="a_edge3_Node000001_Node000004"><a xlink:title=" ">
<path fill="none" stroke="#63b8ff" d="M161.84,-37.16C169.69,-36.19 177.73,-35.2 185.75,-34.22"/>
<polygon fill="#63b8ff" stroke="#63b8ff" points="186.05,-37.7 195.55,-33.01 185.2,-30.76 186.05,-37.7"/>
</a>
</g>
</g>
<!-- Node3 -->
<g id="Node000003" class="node">
<title>Node3</title>
<g id="a_Node000003"><a xlink:href="interfacefr_1_1softsf_1_1canscan_1_1ui_1_1_i_flat_laf_styled_for_l_good_date_picker.html#aefd53a813e3651ae14f3ef740410bade" target="_top" xlink:title="Returns the internal JTextField used by the LGoodDatePicker.">
<polygon fill="white" stroke="#666666" points="817,-66 651.75,-66 651.75,-22 817,-22 817,-66"/>
<text text-anchor="start" x="659.75" y="-52.5" font-family="Helvetica,sans-Serif" font-size="10.00">fr.softsf.canscan.ui.IFlat</text>
<text text-anchor="start" x="659.75" y="-40.5" font-family="Helvetica,sans-Serif" font-size="10.00">LafStyledForLGoodDatePicker.get</text>
<text text-anchor="middle" x="734.38" y="-28.5" font-family="Helvetica,sans-Serif" font-size="10.00">InternalTextField</text>
</a>
</g>
</g>
<!-- Node2&#45;&gt;Node3 -->
<g id="edge2_Node000002_Node000003" class="edge">
<title>Node2&#45;&gt;Node3</title>
<g id="a_edge2_Node000002_Node000003"><a xlink:title=" ">
<path fill="none" stroke="#63b8ff" d="M616.11,-55.77C624.17,-54.96 632.27,-54.15 640.26,-53.35"/>
<polygon fill="#63b8ff" stroke="#63b8ff" points="640.35,-56.86 649.95,-52.38 639.65,-49.89 640.35,-56.86"/>
</a>
</g>
</g>
<!-- Node4&#45;&gt;Node2 -->
<g id="edge4_Node000004_Node000002" class="edge">
<title>Node4&#45;&gt;Node2</title>
<g id="a_edge4_Node000004_Node000002"><a xlink:title=" ">
<path fill="none" stroke="#63b8ff" d="M375.13,-39.2C388.85,-41.88 403.08,-44.66 416.96,-47.38"/>
<polygon fill="#63b8ff" stroke="#63b8ff" points="416.02,-50.76 426.51,-49.24 417.36,-43.89 416.02,-50.76"/>
</a>
</g>
</g>
<!-- Node4&#45;&gt;Node3 -->
<g id="edge5_Node000004_Node000003" class="edge">
<title>Node4&#45;&gt;Node3</title>
<g id="a_edge5_Node000004_Node000003"><a xlink:title=" ">
<path fill="none" stroke="#63b8ff" d="M375.02,-26.33C451.5,-30.1 562.01,-35.55 640.04,-39.4"/>
<polygon fill="#63b8ff" stroke="#63b8ff" points="639.64,-42.88 649.8,-39.88 639.99,-35.89 639.64,-42.88"/>
</a>
</g>
</g>
</g>
</svg>

<g id="navigator" transform="translate(0 0)" fill="#404254">
  <rect fill="#f2f5e9" fill-opacity="0.5" stroke="#606060" stroke-width=".5" x="0" y="0" width="60" height="60"/>
  <use id="zoomplus" xlink:href="#zoomPlus" x="17" y="9" onmousedown="handleZoom(evt,'in')"/>
  <use id="zoomminus" xlink:href="#zoomMin" x="42" y="9" onmousedown="handleZoom(evt,'out')"/>
  <use id="reset" xlink:href="#resetDef" x="30" y="36" onmousedown="handleReset()"/>
   <use id="arrowup" xlink:href="#arrowUp" x="0" y="0" onmousedown="handlePan(0,-1)"/>
  <use id="arrowright" xlink:href="#arrowRight" x="0" y="0" onmousedown="handlePan(1,0)"/>
  <use id="arrowdown" xlink:href="#arrowDown" x="0" y="0" onmousedown="handlePan(0,1)"/>
  <use id="arrowleft" xlink:href="#arrowLeft" x="0" y="0" onmousedown="handlePan(-1,0)"/>
</g>
<svg viewBox="0 0 15 15" width="100%" height="30px" preserveAspectRatio="xMaxYMin meet">
 <g id="arrow_out" transform="scale(0.3 0.3)">
  <a xlink:href="classfr_1_1softsf_1_1canscan_1_1ui_1_1_flat_laf_time_picker_aa13ef01ca76ec4d440427c652f5786e2_cgraph_org.svg" target="_base">
   <rect id="button" ry="5" rx="5" y="6" x="6" height="38" width="38"
        fill="#f2f5e9" fill-opacity="0.5" stroke="#606060" stroke-width="1.0"/>
   <path id="arrow"
     d="M 11.500037,31.436501 C 11.940474,20.09759 22.043105,11.32322 32.158766,21.979434 L 37.068811,17.246167 C 37.068811,17.246167 37.088388,32 37.088388,32 L 22.160133,31.978069 C 22.160133,31.978069 26.997745,27.140456 26.997745,27.140456 C 18.528582,18.264221 13.291696,25.230495 11.500037,31.436501 z"
     style="fill:#404040;"/>
  </a>
 </g>
</svg>

<style type='text/css'>
<![CDATA[
[data-mouse-over-selected='false'] { opacity: 0.7; }
[data-mouse-over-selected='true']  { opacity: 1.0; }
]]>
</style>
<script type="application/ecmascript"><![CDATA[
document.addEventListener('DOMContentLoaded', (event) => {
  highlightEdges();
  highlightAdjacentNodes();
});
]]></script>
</svg>
