<?xml version="1.0" encoding="UTF-8" standalone="no"?>
<!DOCTYPE svg PUBLIC "-//W3C//DTD SVG 1.1//EN"
 "http://www.w3.org/Graphics/SVG/1.1/DTD/svg11.dtd">
<!-- Generated by graphviz version 12.2.1 (20241206.2353)
 -->
<!-- Title: fr.softsf.canscan.CanScan.CanScan Pages: 1 -->
<svg width="1207pt" height="568pt"
 viewBox="0.00 0.00 1206.50 568.00" xmlns="http://www.w3.org/2000/svg" xmlns:xlink="http://www.w3.org/1999/xlink">
<g id="graph0" class="graph" transform="scale(1 1) rotate(0) translate(4 564)">
<title>fr.softsf.canscan.CanScan.CanScan</title>
<!-- Node1 -->
<g id="Node000001" class="node">
<title>Node1</title>
<g id="a_Node000001"><a xlink:title="Initializes the CanScan GUI.">
<polygon fill="#999999" stroke="#666666" points="136,-241 0,-241 0,-209 136,-209 136,-241"/>
<text text-anchor="start" x="8" y="-227.5" font-family="Helvetica,sans-Serif" font-size="10.00">fr.softsf.canscan.CanScan.</text>
<text text-anchor="middle" x="68" y="-215.5" font-family="Helvetica,sans-Serif" font-size="10.00">CanScan</text>
</a>
</g>
</g>
<!-- Node2 -->
<g id="Node000002" class="node">
<title>Node2</title>
<g id="a_Node000002"><a xlink:href="classfr_1_1softsf_1_1canscan_1_1_can_scan.html#a070115929fdc69b249d21866a00a47cc" target="_top" xlink:title="Assigns component names for identification.">
<polygon fill="white" stroke="#666666" points="343.25,-404 172,-404 172,-372 343.25,-372 343.25,-404"/>
<text text-anchor="start" x="180" y="-390.5" font-family="Helvetica,sans-Serif" font-size="10.00">fr.softsf.canscan.CanScan.initialize</text>
<text text-anchor="middle" x="257.62" y="-378.5" font-family="Helvetica,sans-Serif" font-size="10.00">ComponentNames</text>
</a>
</g>
</g>
<!-- Node1&#45;&gt;Node2 -->
<g id="edge1_Node000001_Node000002" class="edge">
<title>Node1&#45;&gt;Node2</title>
<g id="a_edge1_Node000001_Node000002"><a xlink:title=" ">
<path fill="none" stroke="#63b8ff" d="M76.71,-241.31C91.23,-270.24 125.39,-330.53 172,-363 173.6,-364.11 175.25,-365.18 176.94,-366.2"/>
<polygon fill="#63b8ff" stroke="#63b8ff" points="175.19,-369.23 185.67,-370.82 178.47,-363.05 175.19,-369.23"/>
</a>
</g>
</g>
<!-- Node3 -->
<g id="Node000003" class="node">
<title>Node3</title>
<g id="a_Node000003"><a xlink:href="classfr_1_1softsf_1_1canscan_1_1_can_scan.html#a14263ca931024d56cd9bed4af4b74c25" target="_top" xlink:title="Initializes and assembles the main application panel.">
<polygon fill="white" stroke="#666666" points="550.5,-455 379.25,-455 379.25,-423 550.5,-423 550.5,-455"/>
<text text-anchor="start" x="387.25" y="-441.5" font-family="Helvetica,sans-Serif" font-size="10.00">fr.softsf.canscan.CanScan.initialize</text>
<text text-anchor="middle" x="464.88" y="-429.5" font-family="Helvetica,sans-Serif" font-size="10.00">MainPanel</text>
</a>
</g>
</g>
<!-- Node1&#45;&gt;Node3 -->
<g id="edge2_Node000001_Node000003" class="edge">
<title>Node1&#45;&gt;Node3</title>
<g id="a_edge2_Node000001_Node000003"><a xlink:title=" ">
<path fill="none" stroke="#63b8ff" d="M97.97,-241.33C118.19,-252.15 146.1,-265.98 172,-275 245.62,-300.64 280.95,-266.14 343.25,-313 369.95,-333.09 357.05,-354.03 379.25,-379 392.23,-393.6 409.41,-406.6 424.89,-416.74"/>
<polygon fill="#63b8ff" stroke="#63b8ff" points="422.66,-419.47 432.98,-421.86 426.4,-413.55 422.66,-419.47"/>
</a>
</g>
</g>
<!-- Node12 -->
<g id="Node000012" class="node">
<title>Node12</title>
<g id="a_Node000012"><a xlink:href="classfr_1_1softsf_1_1canscan_1_1_can_scan.html#afb8d451dc5d6d9c7b6700e4b688c98a3" target="_top" xlink:title="Builds the north panel containing mode selection, card panels, common fields, and the generate button...">
<polygon fill="white" stroke="#666666" points="343.25,-266 172,-266 172,-234 343.25,-234 343.25,-266"/>
<text text-anchor="start" x="180" y="-252.5" font-family="Helvetica,sans-Serif" font-size="10.00">fr.softsf.canscan.CanScan.initialize</text>
<text text-anchor="middle" x="257.62" y="-240.5" font-family="Helvetica,sans-Serif" font-size="10.00">NorthPanel</text>
</a>
</g>
</g>
<!-- Node1&#45;&gt;Node12 -->
<g id="edge12_Node000001_Node000012" class="edge">
<title>Node1&#45;&gt;Node12</title>
<g id="a_edge12_Node000001_Node000012"><a xlink:title=" ">
<path fill="none" stroke="#63b8ff" d="M136.47,-233.99C144.26,-235.03 152.3,-236.1 160.37,-237.17"/>
<polygon fill="#63b8ff" stroke="#63b8ff" points="159.9,-240.64 170.27,-238.49 160.82,-233.7 159.9,-240.64"/>
</a>
</g>
</g>
<!-- Node27 -->
<g id="Node000027" class="node">
<title>Node27</title>
<g id="a_Node000027"><a xlink:href="classfr_1_1softsf_1_1canscan_1_1_can_scan.html#a4928478365bc812571ac037662cc5f6b" target="_top" xlink:title="Wraps the main panel in a scrollable container.">
<polygon fill="white" stroke="#666666" points="343.25,-216 172,-216 172,-184 343.25,-184 343.25,-216"/>
<text text-anchor="start" x="180" y="-202.5" font-family="Helvetica,sans-Serif" font-size="10.00">fr.softsf.canscan.CanScan.initialize</text>
<text text-anchor="middle" x="257.62" y="-190.5" font-family="Helvetica,sans-Serif" font-size="10.00">ScrollPane</text>
</a>
</g>
</g>
<!-- Node1&#45;&gt;Node27 -->
<g id="edge34_Node000001_Node000027" class="edge">
<title>Node1&#45;&gt;Node27</title>
<g id="a_edge34_Node000001_Node000027"><a xlink:title=" ">
<path fill="none" stroke="#63b8ff" d="M136.47,-216.01C144.26,-214.97 152.3,-213.9 160.37,-212.83"/>
<polygon fill="#63b8ff" stroke="#63b8ff" points="160.82,-216.3 170.27,-211.51 159.9,-209.36 160.82,-216.3"/>
</a>
</g>
</g>
<!-- Node28 -->
<g id="Node000028" class="node">
<title>Node28</title>
<g id="a_Node000028"><a xlink:href="classfr_1_1softsf_1_1canscan_1_1_can_scan.html#a358629f85831dc6cd4978c8854d88561" target="_top" xlink:title="Configures sliders for logo margin and ratio.">
<polygon fill="white" stroke="#666666" points="343.25,-166 172,-166 172,-134 343.25,-134 343.25,-166"/>
<text text-anchor="start" x="180" y="-152.5" font-family="Helvetica,sans-Serif" font-size="10.00">fr.softsf.canscan.CanScan.initialize</text>
<text text-anchor="middle" x="257.62" y="-140.5" font-family="Helvetica,sans-Serif" font-size="10.00">Sliders</text>
</a>
</g>
</g>
<!-- Node1&#45;&gt;Node28 -->
<g id="edge35_Node000001_Node000028" class="edge">
<title>Node1&#45;&gt;Node28</title>
<g id="a_edge35_Node000001_Node000028"><a xlink:title=" ">
<path fill="none" stroke="#63b8ff" d="M99.51,-208.55C119.7,-198.07 146.98,-184.69 172,-175 176.42,-173.29 181.01,-171.62 185.66,-170.02"/>
<polygon fill="#63b8ff" stroke="#63b8ff" points="186.74,-173.35 195.13,-166.88 184.54,-166.71 186.74,-173.35"/>
</a>
</g>
</g>
<!-- Node30 -->
<g id="Node000030" class="node">
<title>Node30</title>
<g id="a_Node000030"><a xlink:href="classfr_1_1softsf_1_1canscan_1_1_can_scan.html#ae9d7eee5ec656c89834bed84a588334f" target="_top" xlink:title="Constructs the application window title using metadata from the version properties.">
<polygon fill="white" stroke="#666666" points="343.25,-115 172,-115 172,-83 343.25,-83 343.25,-115"/>
<text text-anchor="start" x="180" y="-101.5" font-family="Helvetica,sans-Serif" font-size="10.00">fr.softsf.canscan.CanScan.initialize</text>
<text text-anchor="middle" x="257.62" y="-89.5" font-family="Helvetica,sans-Serif" font-size="10.00">Title</text>
</a>
</g>
</g>
<!-- Node1&#45;&gt;Node30 -->
<g id="edge37_Node000001_Node000030" class="edge">
<title>Node1&#45;&gt;Node30</title>
<g id="a_edge37_Node000001_Node000030"><a xlink:title=" ">
<path fill="none" stroke="#63b8ff" d="M81.53,-208.73C99.33,-186.67 134.04,-147.47 172,-125 175.11,-123.16 178.36,-121.44 181.7,-119.83"/>
<polygon fill="#63b8ff" stroke="#63b8ff" points="182.8,-123.17 190.55,-115.94 179.99,-116.76 182.8,-123.17"/>
</a>
</g>
</g>
<!-- Node32 -->
<g id="Node000032" class="node">
<title>Node32</title>
<g id="a_Node000032"><a xlink:href="classfr_1_1softsf_1_1canscan_1_1_can_scan.html#a0a52159db640660477196e337ec62a9b" target="_top" xlink:title="Finalizes window layout and appearance.">
<polygon fill="white" stroke="#666666" points="343.25,-354 172,-354 172,-322 343.25,-322 343.25,-354"/>
<text text-anchor="start" x="180" y="-340.5" font-family="Helvetica,sans-Serif" font-size="10.00">fr.softsf.canscan.CanScan.initialize</text>
<text text-anchor="middle" x="257.62" y="-328.5" font-family="Helvetica,sans-Serif" font-size="10.00">Window</text>
</a>
</g>
</g>
<!-- Node1&#45;&gt;Node32 -->
<g id="edge40_Node000001_Node000032" class="edge">
<title>Node1&#45;&gt;Node32</title>
<g id="a_edge40_Node000001_Node000032"><a xlink:title=" ">
<path fill="none" stroke="#63b8ff" d="M85.55,-241.34C104.89,-259.67 138.52,-289.29 172,-308 178.07,-311.39 184.6,-314.51 191.24,-317.36"/>
<polygon fill="#63b8ff" stroke="#63b8ff" points="189.73,-320.52 200.31,-321.02 192.35,-314.03 189.73,-320.52"/>
</a>
</g>
</g>
<!-- Node4 -->
<g id="Node000004" class="node">
<title>Node4</title>
<g id="a_Node000004"><a xlink:href="classfr_1_1softsf_1_1canscan_1_1_can_scan.html#ad470e3c0750cf142dc611b1aeeda3a97" target="_top" xlink:title="Sets up automatic QR code preview updates for all input fields and controls.">
<polygon fill="white" stroke="#666666" points="779.5,-477 586.5,-477 586.5,-445 779.5,-445 779.5,-477"/>
<text text-anchor="start" x="594.5" y="-463.5" font-family="Helvetica,sans-Serif" font-size="10.00">fr.softsf.canscan.CanScan.automatic</text>
<text text-anchor="middle" x="683" y="-451.5" font-family="Helvetica,sans-Serif" font-size="10.00">QRCodeRenderingForFieldsAndControls</text>
</a>
</g>
</g>
<!-- Node3&#45;&gt;Node4 -->
<g id="edge3_Node000003_Node000004" class="edge">
<title>Node3&#45;&gt;Node4</title>
<g id="a_edge3_Node000003_Node000004"><a xlink:title=" ">
<path fill="none" stroke="#63b8ff" d="M550.98,-447.66C558.85,-448.46 566.89,-449.28 574.92,-450.1"/>
<polygon fill="#63b8ff" stroke="#63b8ff" points="574.44,-453.57 584.75,-451.1 575.15,-446.61 574.44,-453.57"/>
</a>
</g>
</g>
<!-- Node5 -->
<g id="Node000005" class="node">
<title>Node5</title>
<g id="a_Node000005"><a xlink:href="classfr_1_1softsf_1_1canscan_1_1_can_scan.html#a2d26dcd1ae708eae46dba8952351aa1a" target="_top" xlink:title="Builds and returns a QrInput object containing all current user inputs and settings.">
<polygon fill="white" stroke="#666666" points="976.25,-430 826.75,-430 826.75,-398 976.25,-398 976.25,-430"/>
<text text-anchor="start" x="834.75" y="-416.5" font-family="Helvetica,sans-Serif" font-size="10.00">fr.softsf.canscan.CanScan.get</text>
<text text-anchor="middle" x="901.5" y="-404.5" font-family="Helvetica,sans-Serif" font-size="10.00">QrInput</text>
</a>
</g>
</g>
<!-- Node3&#45;&gt;Node5 -->
<g id="edge11_Node000003_Node000005" class="edge">
<title>Node3&#45;&gt;Node5</title>
<g id="a_edge11_Node000003_Node000005"><a xlink:title=" ">
<path fill="none" stroke="#63b8ff" d="M550.97,-434.11C627.24,-429.72 738.58,-423.31 814.99,-418.92"/>
<polygon fill="#63b8ff" stroke="#63b8ff" points="815.18,-422.41 824.96,-418.35 814.77,-415.43 815.18,-422.41"/>
</a>
</g>
</g>
<!-- Node11 -->
<g id="Node000011" class="node">
<title>Node11</title>
<g id="a_Node000011"><a xlink:href="classfr_1_1softsf_1_1canscan_1_1_can_scan.html#a2680fca620b01b32419c021f63a5e047" target="_top" xlink:title="Creates the overlay panel containing the loader and the QR code label.">
<polygon fill="white" stroke="#666666" points="772,-527 594,-527 594,-495 772,-495 772,-527"/>
<text text-anchor="start" x="602" y="-513.5" font-family="Helvetica,sans-Serif" font-size="10.00">fr.softsf.canscan.CanScan.create</text>
<text text-anchor="middle" x="683" y="-501.5" font-family="Helvetica,sans-Serif" font-size="10.00">QrCodeLabelAndLoaderOverlayPanel</text>
</a>
</g>
</g>
<!-- Node3&#45;&gt;Node11 -->
<g id="edge10_Node000003_Node000011" class="edge">
<title>Node3&#45;&gt;Node11</title>
<g id="a_edge10_Node000003_Node000011"><a xlink:title=" ">
<path fill="none" stroke="#63b8ff" d="M504.58,-455.4C528.04,-465 558.71,-476.98 586.5,-486 592.26,-487.87 598.24,-489.7 604.28,-491.46"/>
<polygon fill="#63b8ff" stroke="#63b8ff" points="603.15,-494.78 613.73,-494.15 605.07,-488.04 603.15,-494.78"/>
</a>
</g>
</g>
<!-- Node4&#45;&gt;Node5 -->
<g id="edge4_Node000004_Node000005" class="edge">
<title>Node4&#45;&gt;Node5</title>
<g id="a_edge4_Node000004_Node000005"><a xlink:title=" ">
<path fill="none" stroke="#63b8ff" d="M759.72,-444.56C777.59,-440.68 796.77,-436.52 815.04,-432.55"/>
<polygon fill="#63b8ff" stroke="#63b8ff" points="815.77,-435.98 824.8,-430.43 814.29,-429.13 815.77,-435.98"/>
</a>
</g>
</g>
<!-- Node10 -->
<g id="Node000010" class="node">
<title>Node10</title>
<g id="a_Node000010"><a xlink:href="classfr_1_1softsf_1_1canscan_1_1_can_scan.html#a9856545d05ef553c8dfddd95a850a360" target="_top" xlink:title="Creates a minimal DocumentListener that executes the given action on any document change.">
<polygon fill="white" stroke="#666666" points="983.75,-480 819.25,-480 819.25,-448 983.75,-448 983.75,-480"/>
<text text-anchor="start" x="827.25" y="-466.5" font-family="Helvetica,sans-Serif" font-size="10.00">fr.softsf.canscan.CanScan.simple</text>
<text text-anchor="middle" x="901.5" y="-454.5" font-family="Helvetica,sans-Serif" font-size="10.00">DocumentListener</text>
</a>
</g>
</g>
<!-- Node4&#45;&gt;Node10 -->
<g id="edge9_Node000004_Node000010" class="edge">
<title>Node4&#45;&gt;Node10</title>
<g id="a_edge9_Node000004_Node000010"><a xlink:title=" ">
<path fill="none" stroke="#63b8ff" d="M779.91,-462.33C789.05,-462.46 798.32,-462.58 807.43,-462.71"/>
<polygon fill="#63b8ff" stroke="#63b8ff" points="807.32,-466.21 817.37,-462.85 807.42,-459.21 807.32,-466.21"/>
</a>
</g>
</g>
<!-- Node6 -->
<g id="Node000006" class="node">
<title>Node6</title>
<g id="a_Node000006"><a xlink:href="classfr_1_1softsf_1_1canscan_1_1_can_scan.html#a381368b99c4a0857c6abe6349b2c6d27" target="_top" xlink:title="Calculates the available height for QR code rendering.">
<polygon fill="white" stroke="#666666" points="1198.5,-550 1023.5,-550 1023.5,-518 1198.5,-518 1198.5,-550"/>
<text text-anchor="start" x="1031.5" y="-536.5" font-family="Helvetica,sans-Serif" font-size="10.00">fr.softsf.canscan.CanScan.calculate</text>
<text text-anchor="middle" x="1111" y="-524.5" font-family="Helvetica,sans-Serif" font-size="10.00">AvailableQrCodeLabelHeight</text>
</a>
</g>
</g>
<!-- Node5&#45;&gt;Node6 -->
<g id="edge5_Node000005_Node000006" class="edge">
<title>Node5&#45;&gt;Node6</title>
<g id="a_edge5_Node000005_Node000006"><a xlink:title=" ">
<path fill="none" stroke="#63b8ff" d="M972.49,-430.36C977.78,-432.85 982.86,-435.71 987.5,-439 1009.84,-454.83 1002.79,-471.08 1023.5,-489 1034,-498.09 1046.65,-505.97 1059,-512.49"/>
<polygon fill="#63b8ff" stroke="#63b8ff" points="1057.39,-515.59 1067.9,-516.96 1060.53,-509.34 1057.39,-515.59"/>
</a>
</g>
</g>
<!-- Node7 -->
<g id="Node000007" class="node">
<title>Node7</title>
<g id="a_Node000007"><a xlink:href="classfr_1_1softsf_1_1canscan_1_1_can_scan.html#a4e67b1b5c764e72414a5c0f387810f5c" target="_top" xlink:title="Validates and returns the current QR code margin from the margin slider.">
<polygon fill="white" stroke="#666666" points="1195.88,-480 1026.12,-480 1026.12,-448 1195.88,-448 1195.88,-480"/>
<text text-anchor="start" x="1034.12" y="-466.5" font-family="Helvetica,sans-Serif" font-size="10.00">fr.softsf.canscan.CanScan.validate</text>
<text text-anchor="middle" x="1111" y="-454.5" font-family="Helvetica,sans-Serif" font-size="10.00">AndGetMargin</text>
</a>
</g>
</g>
<!-- Node5&#45;&gt;Node7 -->
<g id="edge6_Node000005_Node000007" class="edge">
<title>Node5&#45;&gt;Node7</title>
<g id="a_edge6_Node000005_Node000007"><a xlink:title=" ">
<path fill="none" stroke="#63b8ff" d="M970.73,-430.44C989.88,-435.05 1010.86,-440.11 1030.59,-444.87"/>
<polygon fill="#63b8ff" stroke="#63b8ff" points="1029.72,-448.25 1040.26,-447.19 1031.36,-441.45 1029.72,-448.25"/>
</a>
</g>
</g>
<!-- Node8 -->
<g id="Node000008" class="node">
<title>Node8</title>
<g id="a_Node000008"><a xlink:href="classfr_1_1softsf_1_1canscan_1_1_can_scan.html#a9e8188875168199cde065113ae2a393d" target="_top" xlink:title="Validates and returns the current image&#45;to&#45;QR ratio from the ratio slider.">
<polygon fill="white" stroke="#666666" points="1195.88,-430 1026.12,-430 1026.12,-398 1195.88,-398 1195.88,-430"/>
<text text-anchor="start" x="1034.12" y="-416.5" font-family="Helvetica,sans-Serif" font-size="10.00">fr.softsf.canscan.CanScan.validate</text>
<text text-anchor="middle" x="1111" y="-404.5" font-family="Helvetica,sans-Serif" font-size="10.00">AndGetRatio</text>
</a>
</g>
</g>
<!-- Node5&#45;&gt;Node8 -->
<g id="edge7_Node000005_Node000008" class="edge">
<title>Node5&#45;&gt;Node8</title>
<g id="a_edge7_Node000005_Node000008"><a xlink:title=" ">
<path fill="none" stroke="#63b8ff" d="M976.53,-414C988.87,-414 1001.81,-414 1014.59,-414"/>
<polygon fill="#63b8ff" stroke="#63b8ff" points="1014.23,-417.5 1024.23,-414 1014.23,-410.5 1014.23,-417.5"/>
</a>
</g>
</g>
<!-- Node9 -->
<g id="Node000009" class="node">
<title>Node9</title>
<g id="a_Node000009"><a xlink:href="classfr_1_1softsf_1_1canscan_1_1_can_scan.html#a6d139bb8d0a3c7081096c8956189b684" target="_top" xlink:title="Validates and returns the QR code size from the corresponding text field.">
<polygon fill="white" stroke="#666666" points="1195.88,-380 1026.12,-380 1026.12,-348 1195.88,-348 1195.88,-380"/>
<text text-anchor="start" x="1034.12" y="-366.5" font-family="Helvetica,sans-Serif" font-size="10.00">fr.softsf.canscan.CanScan.validate</text>
<text text-anchor="middle" x="1111" y="-354.5" font-family="Helvetica,sans-Serif" font-size="10.00">AndGetSize</text>
</a>
</g>
</g>
<!-- Node5&#45;&gt;Node9 -->
<g id="edge8_Node000005_Node000009" class="edge">
<title>Node5&#45;&gt;Node9</title>
<g id="a_edge8_Node000005_Node000009"><a xlink:title=" ">
<path fill="none" stroke="#63b8ff" d="M970.73,-397.56C989.88,-392.95 1010.86,-387.89 1030.59,-383.13"/>
<polygon fill="#63b8ff" stroke="#63b8ff" points="1031.36,-386.55 1040.26,-380.81 1029.72,-379.75 1031.36,-386.55"/>
</a>
</g>
</g>
<!-- Node13 -->
<g id="Node000013" class="node">
<title>Node13</title>
<g id="a_Node000013"><a xlink:href="classfr_1_1softsf_1_1canscan_1_1_can_scan.html#ab2e018ca62c7497c29e84f42ae870daa" target="_top" xlink:title="Adds MECARD and Free card panels to the north panel.">
<polygon fill="white" stroke="#666666" points="540.75,-267 389,-267 389,-235 540.75,-235 540.75,-267"/>
<text text-anchor="start" x="397" y="-253.5" font-family="Helvetica,sans-Serif" font-size="10.00">fr.softsf.canscan.CanScan.add</text>
<text text-anchor="middle" x="464.88" y="-241.5" font-family="Helvetica,sans-Serif" font-size="10.00">NorthPanelCardPanels</text>
</a>
</g>
</g>
<!-- Node12&#45;&gt;Node13 -->
<g id="edge13_Node000012_Node000013" class="edge">
<title>Node12&#45;&gt;Node13</title>
<g id="a_edge13_Node000012_Node000013"><a xlink:title=" ">
<path fill="none" stroke="#63b8ff" d="M343.59,-250.41C354.72,-250.47 366.14,-250.52 377.3,-250.58"/>
<polygon fill="#63b8ff" stroke="#63b8ff" points="377.28,-254.08 387.29,-250.63 377.31,-247.08 377.28,-254.08"/>
</a>
</g>
</g>
<!-- Node17 -->
<g id="Node000017" class="node">
<title>Node17</title>
<g id="a_Node000017"><a xlink:href="classfr_1_1softsf_1_1canscan_1_1_can_scan.html#a94ab4df98de0d05977e6a65ab75f89f0" target="_top" xlink:title="Adds common input fields to the north panel.">
<polygon fill="white" stroke="#666666" points="540.75,-320 389,-320 389,-288 540.75,-288 540.75,-320"/>
<text text-anchor="start" x="397" y="-306.5" font-family="Helvetica,sans-Serif" font-size="10.00">fr.softsf.canscan.CanScan.add</text>
<text text-anchor="middle" x="464.88" y="-294.5" font-family="Helvetica,sans-Serif" font-size="10.00">NorthPanelCommonFields</text>
</a>
</g>
</g>
<!-- Node12&#45;&gt;Node17 -->
<g id="edge18_Node000012_Node000017" class="edge">
<title>Node12&#45;&gt;Node17</title>
<g id="a_edge18_Node000012_Node000017"><a xlink:title=" ">
<path fill="none" stroke="#63b8ff" d="M321.32,-266.5C343.1,-272.23 367.73,-278.7 390.31,-284.65"/>
<polygon fill="#63b8ff" stroke="#63b8ff" points="389.18,-287.97 399.74,-287.13 390.96,-281.2 389.18,-287.97"/>
</a>
</g>
</g>
<!-- Node19 -->
<g id="Node000019" class="node">
<title>Node19</title>
<g id="a_Node000019"><a xlink:href="classfr_1_1softsf_1_1canscan_1_1_can_scan.html#a9f205dfdb266d5d7f8f8899b69742663" target="_top" xlink:title="Adds the generate button to the north panel.">
<polygon fill="white" stroke="#666666" points="540.75,-167 389,-167 389,-135 540.75,-135 540.75,-167"/>
<text text-anchor="start" x="397" y="-153.5" font-family="Helvetica,sans-Serif" font-size="10.00">fr.softsf.canscan.CanScan.add</text>
<text text-anchor="middle" x="464.88" y="-141.5" font-family="Helvetica,sans-Serif" font-size="10.00">NorthPanelGenerateButton</text>
</a>
</g>
</g>
<!-- Node12&#45;&gt;Node19 -->
<g id="edge23_Node000012_Node000019" class="edge">
<title>Node12&#45;&gt;Node19</title>
<g id="a_edge23_Node000012_Node000019"><a xlink:title=" ">
<path fill="none" stroke="#63b8ff" d="M328.27,-233.57C333.55,-231.1 338.61,-228.26 343.25,-225 365.37,-209.47 357.13,-191.53 379.25,-176 380.84,-174.88 382.49,-173.81 384.18,-172.79"/>
<polygon fill="#63b8ff" stroke="#63b8ff" points="385.71,-175.94 392.89,-168.14 382.42,-169.76 385.71,-175.94"/>
</a>
</g>
</g>
<!-- Node20 -->
<g id="Node000020" class="node">
<title>Node20</title>
<g id="a_Node000020"><a xlink:href="classfr_1_1softsf_1_1canscan_1_1_can_scan.html#aa469763b92dd7cbc6dfdb9aaa0116b33" target="_top" xlink:title="Adds mode selection controls (MECARD/Free) to the north panel.">
<polygon fill="white" stroke="#666666" points="540.75,-217 389,-217 389,-185 540.75,-185 540.75,-217"/>
<text text-anchor="start" x="397" y="-203.5" font-family="Helvetica,sans-Serif" font-size="10.00">fr.softsf.canscan.CanScan.add</text>
<text text-anchor="middle" x="464.88" y="-191.5" font-family="Helvetica,sans-Serif" font-size="10.00">NorthPanelModeSelection</text>
</a>
</g>
</g>
<!-- Node12&#45;&gt;Node20 -->
<g id="edge24_Node000012_Node000020" class="edge">
<title>Node12&#45;&gt;Node20</title>
<g id="a_edge24_Node000012_Node000020"><a xlink:title=" ">
<path fill="none" stroke="#63b8ff" d="M327.54,-233.55C345.56,-229.24 365.15,-224.57 383.7,-220.14"/>
<polygon fill="#63b8ff" stroke="#63b8ff" points="384.41,-223.57 393.32,-217.84 382.78,-216.76 384.41,-223.57"/>
</a>
</g>
</g>
<!-- Node26 -->
<g id="Node000026" class="node">
<title>Node26</title>
<g id="a_Node000026"><a xlink:href="classfr_1_1softsf_1_1canscan_1_1_can_scan.html#aeb5550da33925e95999aae23f525f7c5" target="_top" xlink:title="Creates default GridBagConstraints for consistent layout configuration.">
<polygon fill="white" stroke="#666666" points="543.75,-370 386,-370 386,-338 543.75,-338 543.75,-370"/>
<text text-anchor="start" x="394" y="-356.5" font-family="Helvetica,sans-Serif" font-size="10.00">fr.softsf.canscan.CanScan.north</text>
<text text-anchor="middle" x="464.88" y="-344.5" font-family="Helvetica,sans-Serif" font-size="10.00">PanelGridBagConstraints</text>
</a>
</g>
</g>
<!-- Node12&#45;&gt;Node26 -->
<g id="edge33_Node000012_Node000026" class="edge">
<title>Node12&#45;&gt;Node26</title>
<g id="a_edge33_Node000012_Node000026"><a xlink:title=" ">
<path fill="none" stroke="#63b8ff" d="M319.16,-266.4C327.68,-270.12 335.99,-274.61 343.25,-280 364.94,-296.11 357.13,-313.47 379.25,-329 380.84,-330.12 382.49,-331.19 384.18,-332.21"/>
<polygon fill="#63b8ff" stroke="#63b8ff" points="382.42,-335.24 392.89,-336.86 385.71,-329.06 382.42,-335.24"/>
</a>
</g>
</g>
<!-- Node14 -->
<g id="Node000014" class="node">
<title>Node14</title>
<g id="a_Node000014"><a xlink:href="classfr_1_1softsf_1_1canscan_1_1_can_scan.html#a38d65dd319daee1c3288690c17e43ca5" target="_top" xlink:title="Initializes the FREE mode input panel with a multiline text area for arbitrary text or URLs.">
<polygon fill="white" stroke="#666666" points="769.75,-283 596.25,-283 596.25,-263 769.75,-263 769.75,-283"/>
<text text-anchor="middle" x="683" y="-269.5" font-family="Helvetica,sans-Serif" font-size="10.00">fr.softsf.canscan.CanScan.freeCard</text>
</a>
</g>
</g>
<!-- Node13&#45;&gt;Node14 -->
<g id="edge14_Node000013_Node000014" class="edge">
<title>Node13&#45;&gt;Node14</title>
<g id="a_edge14_Node000013_Node000014"><a xlink:title=" ">
<path fill="none" stroke="#63b8ff" d="M541.16,-258.66C555.24,-260.1 570.13,-261.61 584.76,-263.1"/>
<polygon fill="#63b8ff" stroke="#63b8ff" points="584.07,-266.55 594.37,-264.08 584.78,-259.59 584.07,-266.55"/>
</a>
</g>
</g>
<!-- Node16 -->
<g id="Node000016" class="node">
<title>Node16</title>
<g id="a_Node000016"><a xlink:href="classfr_1_1softsf_1_1canscan_1_1_can_scan.html#aed7e3048974882318a6519d8d36e8ec0" target="_top" xlink:title="Initializes the MECARD input panel with labeled text fields for structured contact information.">
<polygon fill="white" stroke="#666666" points="767.12,-245 598.88,-245 598.88,-225 767.12,-225 767.12,-245"/>
<text text-anchor="middle" x="683" y="-231.5" font-family="Helvetica,sans-Serif" font-size="10.00">fr.softsf.canscan.CanScan.mecard</text>
</a>
</g>
</g>
<!-- Node13&#45;&gt;Node16 -->
<g id="edge16_Node000013_Node000016" class="edge">
<title>Node13&#45;&gt;Node16</title>
<g id="a_edge16_Node000013_Node000016"><a xlink:title=" ">
<path fill="none" stroke="#63b8ff" d="M541.16,-245.43C556.06,-244.32 571.88,-243.15 587.33,-242.01"/>
<polygon fill="#63b8ff" stroke="#63b8ff" points="587.27,-245.52 596.98,-241.29 586.75,-238.54 587.27,-245.52"/>
</a>
</g>
</g>
<!-- Node15 -->
<g id="Node000015" class="node">
<title>Node15</title>
<g id="a_Node000015"><a xlink:href="classfr_1_1softsf_1_1canscan_1_1_can_scan.html#a2732ecdc4490a717352975e68fce494c" target="_top" xlink:title="Adds a labeled component row to a panel using GridBagLayout.">
<polygon fill="white" stroke="#666666" points="987.5,-264 815.5,-264 815.5,-244 987.5,-244 987.5,-264"/>
<text text-anchor="middle" x="901.5" y="-250.5" font-family="Helvetica,sans-Serif" font-size="10.00">fr.softsf.canscan.CanScan.addRow</text>
</a>
</g>
</g>
<!-- Node14&#45;&gt;Node15 -->
<g id="edge15_Node000014_Node000015" class="edge">
<title>Node14&#45;&gt;Node15</title>
<g id="a_edge15_Node000014_Node000015"><a xlink:title=" ">
<path fill="none" stroke="#63b8ff" d="M770.19,-265.44C781.33,-264.46 792.8,-263.45 804.1,-262.46"/>
<polygon fill="#63b8ff" stroke="#63b8ff" points="804.15,-265.97 813.81,-261.61 803.54,-259 804.15,-265.97"/>
</a>
</g>
</g>
<!-- Node16&#45;&gt;Node15 -->
<g id="edge17_Node000016_Node000015" class="edge">
<title>Node16&#45;&gt;Node15</title>
<g id="a_edge17_Node000016_Node000015"><a xlink:title=" ">
<path fill="none" stroke="#63b8ff" d="M767.39,-242.32C779.43,-243.38 791.91,-244.47 804.17,-245.55"/>
<polygon fill="#63b8ff" stroke="#63b8ff" points="803.58,-249.01 813.85,-246.4 804.19,-242.03 803.58,-249.01"/>
</a>
</g>
</g>
<!-- Node17&#45;&gt;Node15 -->
<g id="edge19_Node000017_Node000015" class="edge">
<title>Node17&#45;&gt;Node15</title>
<g id="a_edge19_Node000017_Node000015"><a xlink:title=" ">
<path fill="none" stroke="#63b8ff" d="M541.23,-306.7C605.13,-307.66 698.96,-305.93 779.5,-292 808.53,-286.98 840.27,-276.82 863.96,-268.28"/>
<polygon fill="#63b8ff" stroke="#63b8ff" points="864.97,-271.63 873.14,-264.89 862.55,-265.06 864.97,-271.63"/>
</a>
</g>
</g>
<!-- Node18 -->
<g id="Node000018" class="node">
<title>Node18</title>
<g id="a_Node000018"><a xlink:href="classfr_1_1softsf_1_1canscan_1_1_can_scan.html#a17b0a72ab305f98f86591411b6a352f2" target="_top" xlink:title="Creates the color selection panel for QR code and background colors.">
<polygon fill="white" stroke="#666666" points="761.5,-371 604.5,-371 604.5,-339 761.5,-339 761.5,-371"/>
<text text-anchor="start" x="612.5" y="-357.5" font-family="Helvetica,sans-Serif" font-size="10.00">fr.softsf.canscan.CanScan.color</text>
<text text-anchor="middle" x="683" y="-345.5" font-family="Helvetica,sans-Serif" font-size="10.00">Panel</text>
</a>
</g>
</g>
<!-- Node17&#45;&gt;Node18 -->
<g id="edge20_Node000017_Node000018" class="edge">
<title>Node17&#45;&gt;Node18</title>
<g id="a_edge20_Node000017_Node000018"><a xlink:title=" ">
<path fill="none" stroke="#63b8ff" d="M535.75,-320.49C556.65,-325.42 579.73,-330.87 601.27,-335.95"/>
<polygon fill="#63b8ff" stroke="#63b8ff" points="600.36,-339.33 610.9,-338.22 601.97,-332.52 600.36,-339.33"/>
</a>
</g>
</g>
<!-- Node18&#45;&gt;Node5 -->
<g id="edge22_Node000018_Node000005" class="edge">
<title>Node18&#45;&gt;Node5</title>
<g id="a_edge22_Node000018_Node000005"><a xlink:title=" ">
<path fill="none" stroke="#63b8ff" d="M744.31,-371.43C770.71,-378.63 801.87,-387.12 829.39,-394.62"/>
<polygon fill="#63b8ff" stroke="#63b8ff" points="828.11,-397.9 838.68,-397.15 829.95,-391.15 828.11,-397.9"/>
</a>
</g>
</g>
<!-- Node18&#45;&gt;Node18 -->
<g id="edge21_Node000018_Node000018" class="edge">
<title>Node18&#45;&gt;Node18</title>
<g id="a_edge21_Node000018_Node000018"><a xlink:title=" ">
<path fill="none" stroke="#63b8ff" d="M644.06,-371.44C636.79,-380.58 649.77,-389 683,-389 701.43,-389 713.63,-386.41 719.61,-382.54"/>
<polygon fill="#63b8ff" stroke="#63b8ff" points="723,-383.43 721.63,-372.92 716.15,-381.99 723,-383.43"/>
</a>
</g>
</g>
<!-- Node20&#45;&gt;Node15 -->
<g id="edge25_Node000020_Node000015" class="edge">
<title>Node20&#45;&gt;Node15</title>
<g id="a_edge25_Node000020_Node000015"><a xlink:title=" ">
<path fill="none" stroke="#63b8ff" d="M540.93,-199.22C604.85,-198.98 698.86,-201.66 779.5,-216 808.32,-221.13 839.84,-231.18 863.48,-239.65"/>
<polygon fill="#63b8ff" stroke="#63b8ff" points="862.06,-242.86 872.66,-243.02 864.47,-236.29 862.06,-242.86"/>
</a>
</g>
</g>
<!-- Node21 -->
<g id="Node000021" class="node">
<title>Node21</title>
<g id="a_Node000021"><a xlink:href="classfr_1_1softsf_1_1canscan_1_1_can_scan.html#a381579d3adc53b1122b38e7fda5c0235" target="_top" xlink:title="Configures the update button for version checking.">
<polygon fill="white" stroke="#666666" points="770.88,-101 595.12,-101 595.12,-69 770.88,-69 770.88,-101"/>
<text text-anchor="start" x="603.12" y="-87.5" font-family="Helvetica,sans-Serif" font-size="10.00">fr.softsf.canscan.CanScan.configure</text>
<text text-anchor="middle" x="683" y="-75.5" font-family="Helvetica,sans-Serif" font-size="10.00">UpdateButton</text>
</a>
</g>
</g>
<!-- Node20&#45;&gt;Node21 -->
<g id="edge26_Node000020_Node000021" class="edge">
<title>Node20&#45;&gt;Node21</title>
<g id="a_edge26_Node000020_Node000021"><a xlink:title=" ">
<path fill="none" stroke="#63b8ff" d="M537.28,-184.59C541.98,-182.12 546.45,-179.27 550.5,-176 576.49,-155.01 560.18,-130.58 586.5,-110 587.81,-108.98 589.15,-108 590.53,-107.05"/>
<polygon fill="#63b8ff" stroke="#63b8ff" points="591.94,-110.29 598.76,-102.18 588.37,-104.27 591.94,-110.29"/>
</a>
</g>
</g>
<!-- Node22 -->
<g id="Node000022" class="node">
<title>Node22</title>
<g id="a_Node000022"><a xlink:href="classfr_1_1softsf_1_1canscan_1_1_can_scan.html#a5d8f82f2666e6632015dbc4a8ff2b58e" target="_top" xlink:title="Creates the radio button panel for mode selection.">
<polygon fill="white" stroke="#666666" points="761.5,-151 604.5,-151 604.5,-119 761.5,-119 761.5,-151"/>
<text text-anchor="start" x="612.5" y="-137.5" font-family="Helvetica,sans-Serif" font-size="10.00">fr.softsf.canscan.CanScan.radio</text>
<text text-anchor="middle" x="683" y="-125.5" font-family="Helvetica,sans-Serif" font-size="10.00">ButtonsPanel</text>
</a>
</g>
</g>
<!-- Node20&#45;&gt;Node22 -->
<g id="edge27_Node000020_Node000022" class="edge">
<title>Node20&#45;&gt;Node22</title>
<g id="a_edge27_Node000020_Node000022"><a xlink:title=" ">
<path fill="none" stroke="#63b8ff" d="M521.9,-184.58C531.45,-181.74 541.26,-178.8 550.5,-176 572.91,-169.2 597.43,-161.6 619.15,-154.81"/>
<polygon fill="#63b8ff" stroke="#63b8ff" points="619.96,-158.22 628.46,-151.89 617.87,-151.54 619.96,-158.22"/>
</a>
</g>
</g>
<!-- Node23 -->
<g id="Node000023" class="node">
<title>Node23</title>
<g id="a_Node000023"><a xlink:href="classfr_1_1softsf_1_1canscan_1_1_can_scan.html#a428c742b098fa27d4c8984c1030c238d" target="_top" xlink:title="Switches the application between MECARD and FREE QR code modes.">
<polygon fill="white" stroke="#666666" points="777.25,-51 588.75,-51 588.75,-31 777.25,-31 777.25,-51"/>
<text text-anchor="middle" x="683" y="-37.5" font-family="Helvetica,sans-Serif" font-size="10.00">fr.softsf.canscan.CanScan.switchMode</text>
</a>
</g>
</g>
<!-- Node20&#45;&gt;Node23 -->
<g id="edge29_Node000020_Node000023" class="edge">
<title>Node20&#45;&gt;Node23</title>
<g id="a_edge29_Node000020_Node000023"><a xlink:title=" ">
<path fill="none" stroke="#63b8ff" d="M539.24,-184.74C543.32,-182.23 547.12,-179.34 550.5,-176 588.93,-138.09 546.39,-96.12 586.5,-60 587.44,-59.15 588.41,-58.34 589.4,-57.55"/>
<polygon fill="#63b8ff" stroke="#63b8ff" points="591.2,-60.56 597.67,-52.17 587.38,-54.69 591.2,-60.56"/>
</a>
</g>
</g>
<!-- Node22&#45;&gt;Node22 -->
<g id="edge28_Node000022_Node000022" class="edge">
<title>Node22&#45;&gt;Node22</title>
<g id="a_edge28_Node000022_Node000022"><a xlink:title=" ">
<path fill="none" stroke="#63b8ff" d="M644.06,-151.44C636.79,-160.58 649.77,-169 683,-169 701.43,-169 713.63,-166.41 719.61,-162.54"/>
<polygon fill="#63b8ff" stroke="#63b8ff" points="723,-163.43 721.63,-152.92 716.15,-161.99 723,-163.43"/>
</a>
</g>
</g>
<!-- Node23&#45;&gt;Node5 -->
<g id="edge30_Node000023_Node000005" class="edge">
<title>Node23&#45;&gt;Node5</title>
<g id="a_edge30_Node000023_Node000005"><a xlink:title=" ">
<path fill="none" stroke="#63b8ff" d="M768.47,-51.29C772.48,-53.73 776.2,-56.6 779.5,-60 846.4,-128.86 782.13,-182.98 815.5,-273 831.6,-316.44 861.39,-361.4 881.08,-388.54"/>
<polygon fill="#63b8ff" stroke="#63b8ff" points="878.18,-390.5 886.93,-396.48 883.81,-386.35 878.18,-390.5"/>
</a>
</g>
</g>
<!-- Node24 -->
<g id="Node000024" class="node">
<title>Node24</title>
<g id="a_Node000024"><a xlink:href="enumfr_1_1softsf_1_1canscan_1_1model_1_1_mode.html#a16a898a11ca939056bd7b275f11ea54c" target="_top" xlink:title="Returns the mode label.">
<polygon fill="white" stroke="#666666" points="962.38,-32 840.62,-32 840.62,0 962.38,0 962.38,-32"/>
<text text-anchor="start" x="848.62" y="-18.5" font-family="Helvetica,sans-Serif" font-size="10.00">fr.softsf.canscan.model.</text>
<text text-anchor="middle" x="901.5" y="-6.5" font-family="Helvetica,sans-Serif" font-size="10.00">Mode.text</text>
</a>
</g>
</g>
<!-- Node23&#45;&gt;Node24 -->
<g id="edge31_Node000023_Node000024" class="edge">
<title>Node23&#45;&gt;Node24</title>
<g id="a_edge31_Node000023_Node000024"><a xlink:title=" ">
<path fill="none" stroke="#63b8ff" d="M774.87,-30.51C793.01,-28.41 811.8,-26.24 829.16,-24.24"/>
<polygon fill="#63b8ff" stroke="#63b8ff" points="829.31,-27.74 838.84,-23.12 828.5,-20.79 829.31,-27.74"/>
</a>
</g>
</g>
<!-- Node25 -->
<g id="Node000025" class="node">
<title>Node25</title>
<g id="a_Node000025"><a xlink:href="classfr_1_1softsf_1_1canscan_1_1_can_scan.html#a11fd9295c4843e6e68f9d1e4a710b906" target="_top" xlink:title="Validates the current input fields and toggles the state of the generate button.">
<polygon fill="white" stroke="#666666" points="984.12,-82 818.88,-82 818.88,-50 984.12,-50 984.12,-82"/>
<text text-anchor="start" x="826.88" y="-68.5" font-family="Helvetica,sans-Serif" font-size="10.00">fr.softsf.canscan.CanScan.update</text>
<text text-anchor="middle" x="901.5" y="-56.5" font-family="Helvetica,sans-Serif" font-size="10.00">GenerateButtonState</text>
</a>
</g>
</g>
<!-- Node23&#45;&gt;Node25 -->
<g id="edge32_Node000023_Node000025" class="edge">
<title>Node23&#45;&gt;Node25</title>
<g id="a_edge32_Node000023_Node000025"><a xlink:title=" ">
<path fill="none" stroke="#63b8ff" d="M774.87,-51.49C785.61,-52.73 796.58,-54 807.35,-55.24"/>
<polygon fill="#63b8ff" stroke="#63b8ff" points="806.63,-58.68 816.97,-56.35 807.44,-51.73 806.63,-58.68"/>
</a>
</g>
</g>
<!-- Node29 -->
<g id="Node000029" class="node">
<title>Node29</title>
<g id="a_Node000029"><a xlink:href="classfr_1_1softsf_1_1canscan_1_1_can_scan.html#abbe4fb71ad979d6affed0b2c9629b832" target="_top" xlink:title="Updates the tooltip of the ratio slider to reflect its current value as a percentage.">
<polygon fill="white" stroke="#666666" points="539.62,-117 390.12,-117 390.12,-85 539.62,-85 539.62,-117"/>
<text text-anchor="start" x="398.12" y="-103.5" font-family="Helvetica,sans-Serif" font-size="10.00">fr.softsf.canscan.CanScan.set</text>
<text text-anchor="middle" x="464.88" y="-91.5" font-family="Helvetica,sans-Serif" font-size="10.00">RatioSliderTooltipValue</text>
</a>
</g>
</g>
<!-- Node28&#45;&gt;Node29 -->
<g id="edge36_Node000028_Node000029" class="edge">
<title>Node28&#45;&gt;Node29</title>
<g id="a_edge36_Node000028_Node000029"><a xlink:title=" ">
<path fill="none" stroke="#63b8ff" d="M327.54,-133.55C345.56,-129.24 365.15,-124.57 383.7,-120.14"/>
<polygon fill="#63b8ff" stroke="#63b8ff" points="384.41,-123.57 393.32,-117.84 382.78,-116.76 384.41,-123.57"/>
</a>
</g>
</g>
<!-- Node31 -->
<g id="Node000031" class="node">
<title>Node31</title>
<g id="a_Node000031"><a xlink:href="classfr_1_1softsf_1_1canscan_1_1_can_scan.html#aefe4d08d96fdc7b2097daf4033bbbb9c" target="_top" xlink:title="Loads application metadata from the version.properties file.">
<polygon fill="white" stroke="#666666" points="539.62,-67 390.12,-67 390.12,-35 539.62,-35 539.62,-67"/>
<text text-anchor="start" x="398.12" y="-53.5" font-family="Helvetica,sans-Serif" font-size="10.00">fr.softsf.canscan.CanScan.get</text>
<text text-anchor="middle" x="464.88" y="-41.5" font-family="Helvetica,sans-Serif" font-size="10.00">ManifestKeys</text>
</a>
</g>
</g>
<!-- Node30&#45;&gt;Node31 -->
<g id="edge38_Node000030_Node000031" class="edge">
<title>Node30&#45;&gt;Node31</title>
<g id="a_edge38_Node000030_Node000031"><a xlink:title=" ">
<path fill="none" stroke="#63b8ff" d="M328.97,-82.55C346.19,-78.52 364.76,-74.18 382.44,-70.04"/>
<polygon fill="#63b8ff" stroke="#63b8ff" points="383.2,-73.46 392.14,-67.77 381.61,-66.64 383.2,-73.46"/>
</a>
</g>
</g>
<!-- Node31&#45;&gt;Node1 -->
<g id="edge39_Node000031_Node000001" class="edge">
<title>Node31&#45;&gt;Node1</title>
<g id="a_edge39_Node000031_Node000001"><a xlink:title=" ">
<path fill="none" stroke="#63b8ff" d="M389.74,-39.95C327.42,-34.43 238.18,-35.63 172,-74 123.69,-102.01 93.13,-162.85 78.74,-198.16"/>
<polygon fill="#63b8ff" stroke="#63b8ff" points="75.57,-196.65 75.19,-207.24 82.09,-199.21 75.57,-196.65"/>
</a>
</g>
</g>
<!-- Node33 -->
<g id="Node000033" class="node">
<title>Node33</title>
<g id="a_Node000033"><a xlink:href="classfr_1_1softsf_1_1canscan_1_1_can_scan.html#a0fe215984734bb1337dd49ca30238b78" target="_top" xlink:title="Sets the loader size so it matches the QR code label height and remains centered.">
<polygon fill="white" stroke="#666666" points="976.25,-560 826.75,-560 826.75,-528 976.25,-528 976.25,-560"/>
<text text-anchor="start" x="834.75" y="-546.5" font-family="Helvetica,sans-Serif" font-size="10.00">fr.softsf.canscan.CanScan.set</text>
<text text-anchor="middle" x="901.5" y="-534.5" font-family="Helvetica,sans-Serif" font-size="10.00">LoaderSize</text>
</a>
</g>
</g>
<!-- Node32&#45;&gt;Node33 -->
<g id="edge41_Node000032_Node000033" class="edge">
<title>Node32&#45;&gt;Node33</title>
<g id="a_edge41_Node000032_Node000033"><a xlink:title=" ">
<path fill="none" stroke="#63b8ff" d="M331.83,-354.42C335.95,-356.9 339.8,-359.74 343.25,-363 377.86,-395.76 345.42,-430.44 379.25,-464 448.48,-532.67 490.56,-518.55 586.5,-536 663.05,-549.92 751.81,-550.81 815.39,-548.87"/>
<polygon fill="#63b8ff" stroke="#63b8ff" points="815.18,-552.38 825.05,-548.54 814.94,-545.38 815.18,-552.38"/>
</a>
</g>
</g>
<!-- Node33&#45;&gt;Node6 -->
<g id="edge42_Node000033_Node000006" class="edge">
<title>Node33&#45;&gt;Node6</title>
<g id="a_edge42_Node000033_Node000006"><a xlink:title=" ">
<path fill="none" stroke="#63b8ff" d="M976.53,-540.43C988,-539.88 999.99,-539.3 1011.89,-538.73"/>
<polygon fill="#63b8ff" stroke="#63b8ff" points="1011.91,-542.23 1021.73,-538.25 1011.58,-535.24 1011.91,-542.23"/>
</a>
</g>
</g>
</g>
</svg>
