<?xml version="1.0" encoding="UTF-8" standalone="no"?>
<!DOCTYPE svg PUBLIC "-//W3C//DTD SVG 1.1//EN"
 "http://www.w3.org/Graphics/SVG/1.1/DTD/svg11.dtd">
<!-- Generated by graphviz version 12.2.1 (20241206.2353)
 -->
<!-- Title: fr.softsf.canscan.CanScan.addNorthPanelCommonFields Pages: 1 -->
<svg width="744pt" height="190pt"
 viewBox="0.00 0.00 744.00 190.00" xmlns="http://www.w3.org/2000/svg" xmlns:xlink="http://www.w3.org/1999/xlink">
<g id="graph0" class="graph" transform="scale(1 1) rotate(0) translate(4 186)">
<title>fr.softsf.canscan.CanScan.addNorthPanelCommonFields</title>
<!-- Node1 -->
<g id="Node000001" class="node">
<title>Node1</title>
<g id="a_Node000001"><a xlink:title="Adds common input fields to the north panel.">
<polygon fill="#999999" stroke="#666666" points="151.75,-107 0,-107 0,-75 151.75,-75 151.75,-107"/>
<text text-anchor="start" x="8" y="-93.5" font-family="Helvetica,sans-Serif" font-size="10.00">fr.softsf.canscan.CanScan.add</text>
<text text-anchor="middle" x="75.88" y="-81.5" font-family="Helvetica,sans-Serif" font-size="10.00">NorthPanelCommonFields</text>
</a>
</g>
</g>
<!-- Node2 -->
<g id="Node000002" class="node">
<title>Node2</title>
<g id="a_Node000002"><a xlink:href="classfr_1_1softsf_1_1canscan_1_1_can_scan.html#a17b0a72ab305f98f86591411b6a352f2" target="_top" xlink:title="Creates the color selection panel for QR code and background colors.">
<polygon fill="white" stroke="#666666" points="344.75,-107 187.75,-107 187.75,-75 344.75,-75 344.75,-107"/>
<text text-anchor="start" x="195.75" y="-93.5" font-family="Helvetica,sans-Serif" font-size="10.00">fr.softsf.canscan.CanScan.color</text>
<text text-anchor="middle" x="266.25" y="-81.5" font-family="Helvetica,sans-Serif" font-size="10.00">Panel</text>
</a>
</g>
</g>
<!-- Node1&#45;&gt;Node2 -->
<g id="edge1_Node000001_Node000002" class="edge">
<title>Node1&#45;&gt;Node2</title>
<g id="a_edge1_Node000001_Node000002"><a xlink:title=" ">
<path fill="none" stroke="#63b8ff" d="M152.14,-91C160.01,-91 168.06,-91 176.07,-91"/>
<polygon fill="#63b8ff" stroke="#63b8ff" points="175.82,-94.5 185.82,-91 175.82,-87.5 175.82,-94.5"/>
</a>
</g>
</g>
<!-- Node3 -->
<g id="Node000003" class="node">
<title>Node3</title>
<g id="a_Node000003"><a xlink:href="classfr_1_1softsf_1_1canscan_1_1_can_scan.html#a180290bc488e2346592ded98ccc4b1f3" target="_top" xlink:title="Collects current input and visual settings into a WholeFields for QR code generation.">
<polygon fill="white" stroke="#666666" points="530.25,-107 380.75,-107 380.75,-75 530.25,-75 530.25,-107"/>
<text text-anchor="start" x="388.75" y="-93.5" font-family="Helvetica,sans-Serif" font-size="10.00">fr.softsf.canscan.CanScan.get</text>
<text text-anchor="middle" x="455.5" y="-81.5" font-family="Helvetica,sans-Serif" font-size="10.00">QrInput</text>
</a>
</g>
</g>
<!-- Node2&#45;&gt;Node3 -->
<g id="edge2_Node000002_Node000003" class="edge">
<title>Node2&#45;&gt;Node3</title>
<g id="a_edge2_Node000002_Node000003"><a xlink:title=" ">
<path fill="none" stroke="#63b8ff" d="M345.03,-91C352.87,-91 360.85,-91 368.76,-91"/>
<polygon fill="#63b8ff" stroke="#63b8ff" points="368.75,-94.5 378.75,-91 368.75,-87.5 368.75,-94.5"/>
</a>
</g>
</g>
<!-- Node4 -->
<g id="Node000004" class="node">
<title>Node4</title>
<g id="a_Node000004"><a xlink:href="classfr_1_1softsf_1_1canscan_1_1_can_scan.html#a4e67b1b5c764e72414a5c0f387810f5c" target="_top" xlink:title="Validates and returns the current QR code margin from the margin slider.">
<polygon fill="white" stroke="#666666" points="736,-182 566.25,-182 566.25,-150 736,-150 736,-182"/>
<text text-anchor="start" x="574.25" y="-168.5" font-family="Helvetica,sans-Serif" font-size="10.00">fr.softsf.canscan.CanScan.validate</text>
<text text-anchor="middle" x="651.12" y="-156.5" font-family="Helvetica,sans-Serif" font-size="10.00">AndGetMargin</text>
</a>
</g>
</g>
<!-- Node3&#45;&gt;Node4 -->
<g id="edge3_Node000003_Node000004" class="edge">
<title>Node3&#45;&gt;Node4</title>
<g id="a_edge3_Node000003_Node000004"><a xlink:title=" ">
<path fill="none" stroke="#63b8ff" d="M489.14,-107.3C510.71,-117.72 539.78,-131.08 566.25,-141 570.86,-142.73 575.64,-144.42 580.48,-146.05"/>
<polygon fill="#63b8ff" stroke="#63b8ff" points="579.09,-149.28 589.69,-149.06 581.27,-142.63 579.09,-149.28"/>
</a>
</g>
</g>
<!-- Node5 -->
<g id="Node000005" class="node">
<title>Node5</title>
<g id="a_Node000005"><a xlink:href="classfr_1_1softsf_1_1canscan_1_1_can_scan.html#a8a2b238ac4af96d8710b3e5d7d051f77" target="_top" xlink:title="Validates and returns the current meet UID from the meet title field.">
<polygon fill="white" stroke="#666666" points="736,-132 566.25,-132 566.25,-100 736,-100 736,-132"/>
<text text-anchor="start" x="574.25" y="-118.5" font-family="Helvetica,sans-Serif" font-size="10.00">fr.softsf.canscan.CanScan.validate</text>
<text text-anchor="middle" x="651.12" y="-106.5" font-family="Helvetica,sans-Serif" font-size="10.00">AndGetMeetUID</text>
</a>
</g>
</g>
<!-- Node3&#45;&gt;Node5 -->
<g id="edge4_Node000003_Node000005" class="edge">
<title>Node3&#45;&gt;Node5</title>
<g id="a_edge4_Node000003_Node000005"><a xlink:title=" ">
<path fill="none" stroke="#63b8ff" d="M530.53,-100.56C538.37,-101.57 546.41,-102.61 554.45,-103.65"/>
<polygon fill="#63b8ff" stroke="#63b8ff" points="553.92,-107.11 564.28,-104.92 554.82,-100.16 553.92,-107.11"/>
</a>
</g>
</g>
<!-- Node6 -->
<g id="Node000006" class="node">
<title>Node6</title>
<g id="a_Node000006"><a xlink:href="classfr_1_1softsf_1_1canscan_1_1_can_scan.html#a9e8188875168199cde065113ae2a393d" target="_top" xlink:title="Validates and returns the current image&#45;to&#45;QR ratio from the ratio slider.">
<polygon fill="white" stroke="#666666" points="736,-82 566.25,-82 566.25,-50 736,-50 736,-82"/>
<text text-anchor="start" x="574.25" y="-68.5" font-family="Helvetica,sans-Serif" font-size="10.00">fr.softsf.canscan.CanScan.validate</text>
<text text-anchor="middle" x="651.12" y="-56.5" font-family="Helvetica,sans-Serif" font-size="10.00">AndGetRatio</text>
</a>
</g>
</g>
<!-- Node3&#45;&gt;Node6 -->
<g id="edge5_Node000003_Node000006" class="edge">
<title>Node3&#45;&gt;Node6</title>
<g id="a_edge5_Node000003_Node000006"><a xlink:title=" ">
<path fill="none" stroke="#63b8ff" d="M530.53,-81.44C538.37,-80.43 546.41,-79.39 554.45,-78.35"/>
<polygon fill="#63b8ff" stroke="#63b8ff" points="554.82,-81.84 564.28,-77.08 553.92,-74.89 554.82,-81.84"/>
</a>
</g>
</g>
<!-- Node7 -->
<g id="Node000007" class="node">
<title>Node7</title>
<g id="a_Node000007"><a xlink:href="classfr_1_1softsf_1_1canscan_1_1_can_scan.html#a6d139bb8d0a3c7081096c8956189b684" target="_top" xlink:title="Validates and returns the QR code size from the corresponding text field.">
<polygon fill="white" stroke="#666666" points="736,-32 566.25,-32 566.25,0 736,0 736,-32"/>
<text text-anchor="start" x="574.25" y="-18.5" font-family="Helvetica,sans-Serif" font-size="10.00">fr.softsf.canscan.CanScan.validate</text>
<text text-anchor="middle" x="651.12" y="-6.5" font-family="Helvetica,sans-Serif" font-size="10.00">AndGetSize</text>
</a>
</g>
</g>
<!-- Node3&#45;&gt;Node7 -->
<g id="edge6_Node000003_Node000007" class="edge">
<title>Node3&#45;&gt;Node7</title>
<g id="a_edge6_Node000003_Node000007"><a xlink:title=" ">
<path fill="none" stroke="#63b8ff" d="M489.14,-74.7C510.71,-64.28 539.78,-50.92 566.25,-41 570.86,-39.27 575.64,-37.58 580.48,-35.95"/>
<polygon fill="#63b8ff" stroke="#63b8ff" points="581.27,-39.37 589.69,-32.94 579.09,-32.72 581.27,-39.37"/>
</a>
</g>
</g>
</g>
</svg>
