<?xml version="1.0" encoding="UTF-8" standalone="no"?>
<!DOCTYPE svg PUBLIC "-//W3C//DTD SVG 1.1//EN"
 "http://www.w3.org/Graphics/SVG/1.1/DTD/svg11.dtd">
<!-- Generated by graphviz version 12.2.1 (20241206.2353)
 -->
<!-- Title: fr.softsf.canscan.CanScan.dispose Pages: 1 -->
<svg width="785pt" height="165pt"
 viewBox="0.00 0.00 784.50 165.00" xmlns="http://www.w3.org/2000/svg" xmlns:xlink="http://www.w3.org/1999/xlink">
<g id="graph0" class="graph" transform="scale(1 1) rotate(0) translate(4 161)">
<title>fr.softsf.canscan.CanScan.dispose</title>
<!-- Node1 -->
<g id="Node000001" class="node">
<title>Node1</title>
<g id="a_Node000001"><a xlink:title="Overrides dispose() to ensure explicit resource cleanup before window disposal.">
<polygon fill="#999999" stroke="#666666" points="169.75,-76 0,-76 0,-56 169.75,-56 169.75,-76"/>
<text text-anchor="middle" x="84.88" y="-62.5" font-family="Helvetica,sans-Serif" font-size="10.00">fr.softsf.canscan.CanScan.dispose</text>
</a>
</g>
</g>
<!-- Node2 -->
<g id="Node000002" class="node">
<title>Node2</title>
<g id="a_Node000002"><a xlink:href="classfr_1_1softsf_1_1canscan_1_1_can_scan.html#ab3bf57de8d7f86f063fd3e6ba9d576fe" target="_top" xlink:title="Releases all runtime resources associated with the QR code preview and generation workflow.">
<polygon fill="white" stroke="#666666" points="375.5,-82 205.75,-82 205.75,-50 375.5,-50 375.5,-82"/>
<text text-anchor="start" x="213.75" y="-68.5" font-family="Helvetica,sans-Serif" font-size="10.00">fr.softsf.canscan.CanScan.cleanup</text>
<text text-anchor="middle" x="290.62" y="-56.5" font-family="Helvetica,sans-Serif" font-size="10.00">Resources</text>
</a>
</g>
</g>
<!-- Node1&#45;&gt;Node2 -->
<g id="edge1_Node000001_Node000002" class="edge">
<title>Node1&#45;&gt;Node2</title>
<g id="a_edge1_Node000001_Node000002"><a xlink:title=" ">
<path fill="none" stroke="#63b8ff" d="M170.22,-66C178.02,-66 185.95,-66 193.84,-66"/>
<polygon fill="#63b8ff" stroke="#63b8ff" points="193.83,-69.5 203.83,-66 193.83,-62.5 193.83,-69.5"/>
</a>
</g>
</g>
<!-- Node3 -->
<g id="Node000003" class="node">
<title>Node3</title>
<g id="a_Node000003"><a xlink:href="classfr_1_1softsf_1_1canscan_1_1_can_scan.html#a0b2e07f16a3c9b537016b04215b4d595" target="_top" xlink:title="Cancels all active background workers and ensures proper cleanup.">
<polygon fill="white" stroke="#666666" points="576,-132 411.5,-132 411.5,-100 576,-100 576,-132"/>
<text text-anchor="start" x="419.5" y="-118.5" font-family="Helvetica,sans-Serif" font-size="10.00">fr.softsf.canscan.CanScan.cancel</text>
<text text-anchor="middle" x="493.75" y="-106.5" font-family="Helvetica,sans-Serif" font-size="10.00">AllWorkers</text>
</a>
</g>
</g>
<!-- Node2&#45;&gt;Node3 -->
<g id="edge2_Node000002_Node000003" class="edge">
<title>Node2&#45;&gt;Node3</title>
<g id="a_edge2_Node000002_Node000003"><a xlink:title=" ">
<path fill="none" stroke="#63b8ff" d="M357.76,-82.44C376.23,-87.03 396.47,-92.06 415.52,-96.8"/>
<polygon fill="#63b8ff" stroke="#63b8ff" points="414.56,-100.17 425.11,-99.18 416.25,-93.37 414.56,-100.17"/>
</a>
</g>
</g>
<!-- Node6 -->
<g id="Node000006" class="node">
<title>Node6</title>
<g id="a_Node000006"><a xlink:href="classfr_1_1softsf_1_1canscan_1_1_can_scan.html#a4815606aa036969bcf5313568220d396" target="_top" xlink:title="Releases the currently stored QR code image to free native memory.">
<polygon fill="white" stroke="#666666" points="570,-82 417.5,-82 417.5,-50 570,-50 570,-82"/>
<text text-anchor="start" x="425.5" y="-68.5" font-family="Helvetica,sans-Serif" font-size="10.00">fr.softsf.canscan.CanScan.free</text>
<text text-anchor="middle" x="493.75" y="-56.5" font-family="Helvetica,sans-Serif" font-size="10.00">QrOriginal</text>
</a>
</g>
</g>
<!-- Node2&#45;&gt;Node6 -->
<g id="edge5_Node000002_Node000006" class="edge">
<title>Node2&#45;&gt;Node6</title>
<g id="a_edge5_Node000002_Node000006"><a xlink:title=" ">
<path fill="none" stroke="#63b8ff" d="M375.75,-66C385.77,-66 396,-66 406.05,-66"/>
<polygon fill="#63b8ff" stroke="#63b8ff" points="405.77,-69.5 415.77,-66 405.77,-62.5 405.77,-69.5"/>
</a>
</g>
</g>
<!-- Node7 -->
<g id="Node000007" class="node">
<title>Node7</title>
<g id="a_Node000007"><a xlink:href="classfr_1_1softsf_1_1canscan_1_1_can_scan.html#a61ffd3b70feaa6414de075f723a24b62" target="_top" xlink:title="Stops and clears all active Swing timers used in the QR code workflow.">
<polygon fill="white" stroke="#666666" points="571.12,-32 416.38,-32 416.38,0 571.12,0 571.12,-32"/>
<text text-anchor="start" x="424.38" y="-18.5" font-family="Helvetica,sans-Serif" font-size="10.00">fr.softsf.canscan.CanScan.stop</text>
<text text-anchor="middle" x="493.75" y="-6.5" font-family="Helvetica,sans-Serif" font-size="10.00">AllTimers</text>
</a>
</g>
</g>
<!-- Node2&#45;&gt;Node7 -->
<g id="edge6_Node000002_Node000007" class="edge">
<title>Node2&#45;&gt;Node7</title>
<g id="a_edge6_Node000002_Node000007"><a xlink:title=" ">
<path fill="none" stroke="#63b8ff" d="M357.76,-49.56C376.23,-44.97 396.47,-39.94 415.52,-35.2"/>
<polygon fill="#63b8ff" stroke="#63b8ff" points="416.25,-38.63 425.11,-32.82 414.56,-31.83 416.25,-38.63"/>
</a>
</g>
</g>
<!-- Node4 -->
<g id="Node000004" class="node">
<title>Node4</title>
<g id="a_Node000004"><a xlink:href="classfr_1_1softsf_1_1canscan_1_1_can_scan.html#ab7aac2c23dad07b50ad8a83dfb98aa4d" target="_top" xlink:title="Cancels and flushes any active preview worker to ensure clean restart.">
<polygon fill="white" stroke="#666666" points="776.5,-157 612,-157 612,-125 776.5,-125 776.5,-157"/>
<text text-anchor="start" x="620" y="-143.5" font-family="Helvetica,sans-Serif" font-size="10.00">fr.softsf.canscan.CanScan.cancel</text>
<text text-anchor="middle" x="694.25" y="-131.5" font-family="Helvetica,sans-Serif" font-size="10.00">ActivePreviewWorker</text>
</a>
</g>
</g>
<!-- Node3&#45;&gt;Node4 -->
<g id="edge3_Node000003_Node000004" class="edge">
<title>Node3&#45;&gt;Node4</title>
<g id="a_edge3_Node000003_Node000004"><a xlink:title=" ">
<path fill="none" stroke="#63b8ff" d="M576.35,-126.28C584.27,-127.27 592.35,-128.29 600.37,-129.3"/>
<polygon fill="#63b8ff" stroke="#63b8ff" points="599.79,-132.76 610.15,-130.53 600.66,-125.81 599.79,-132.76"/>
</a>
</g>
</g>
<!-- Node5 -->
<g id="Node000005" class="node">
<title>Node5</title>
<g id="a_Node000005"><a xlink:href="classfr_1_1softsf_1_1canscan_1_1_can_scan.html#ae299b57aba96ad890bab5bdfaae06f98" target="_top" xlink:title="Cancels any ongoing resize worker if active and waits for its proper termination.">
<polygon fill="white" stroke="#666666" points="776.5,-107 612,-107 612,-75 776.5,-75 776.5,-107"/>
<text text-anchor="start" x="620" y="-93.5" font-family="Helvetica,sans-Serif" font-size="10.00">fr.softsf.canscan.CanScan.cancel</text>
<text text-anchor="middle" x="694.25" y="-81.5" font-family="Helvetica,sans-Serif" font-size="10.00">PreviousResizeWorker</text>
</a>
</g>
</g>
<!-- Node3&#45;&gt;Node5 -->
<g id="edge4_Node000003_Node000005" class="edge">
<title>Node3&#45;&gt;Node5</title>
<g id="a_edge4_Node000003_Node000005"><a xlink:title=" ">
<path fill="none" stroke="#63b8ff" d="M576.35,-105.72C584.27,-104.73 592.35,-103.71 600.37,-102.7"/>
<polygon fill="#63b8ff" stroke="#63b8ff" points="600.66,-106.19 610.15,-101.47 599.79,-99.24 600.66,-106.19"/>
</a>
</g>
</g>
</g>
</svg>
