<?xml version="1.0" encoding="UTF-8" standalone="no"?>
<!DOCTYPE svg PUBLIC "-//W3C//DTD SVG 1.1//EN"
 "http://www.w3.org/Graphics/SVG/1.1/DTD/svg11.dtd">
<!-- Generated by graphviz version 12.2.1 (20241206.2353)
 -->
<!-- Title: fr.softsf.canscan.ui.FlatLafTimePicker Pages: 1 -->
<svg width="224pt" height="324pt"
 viewBox="0.00 0.00 224.12 324.00" xmlns="http://www.w3.org/2000/svg" xmlns:xlink="http://www.w3.org/1999/xlink">
<g id="graph0" class="graph" transform="scale(1 1) rotate(0) translate(4 320)">
<title>fr.softsf.canscan.ui.FlatLafTimePicker</title>
<!-- Node1 -->
<g id="Node000001" class="node">
<title>Node1</title>
<g id="a_Node000001"><a xlink:title="TimePicker component with FlatLaf styling applied and maintained.">
<polygon fill="#999999" stroke="none" points="165.5,-148 8,-148 8,0 165.5,0 165.5,-148"/>
<text text-anchor="start" x="35" y="-134.5" font-family="Helvetica,sans-Serif" font-size="10.00">fr.softsf.canscan.ui.Flat</text>
<text text-anchor="start" x="55.25" y="-122.5" font-family="Helvetica,sans-Serif" font-size="10.00">LafTimePicker</text>
<text text-anchor="start" x="13.5" y="-106.5" font-family="Helvetica,sans-Serif" font-size="10.00">&#45;</text>
<text text-anchor="start" x="22" y="-106.5" font-family="Helvetica,sans-Serif" font-size="10.00">static final String</text>
<text text-anchor="start" x="22" y="-94.5" font-family="Helvetica,sans-Serif" font-size="10.00"> TEXT_FIELD_BACKGROUND</text>
<text text-anchor="start" x="12" y="-78.5" font-family="Helvetica,sans-Serif" font-size="10.00">+</text>
<text text-anchor="start" x="22" y="-78.5" font-family="Helvetica,sans-Serif" font-size="10.00">FlatLafTimePicker()</text>
<text text-anchor="start" x="12" y="-62.5" font-family="Helvetica,sans-Serif" font-size="10.00">+</text>
<text text-anchor="start" x="22" y="-62.5" font-family="Helvetica,sans-Serif" font-size="10.00">JTextField getInternalText</text>
<text text-anchor="start" x="22" y="-50.5" font-family="Helvetica,sans-Serif" font-size="10.00">Field()</text>
<text text-anchor="start" x="12" y="-34.5" font-family="Helvetica,sans-Serif" font-size="10.00">+</text>
<text text-anchor="start" x="22" y="-34.5" font-family="Helvetica,sans-Serif" font-size="10.00">Dimension getPreferredSize()</text>
<text text-anchor="start" x="13.5" y="-18.5" font-family="Helvetica,sans-Serif" font-size="10.00">&#45;</text>
<text text-anchor="start" x="22" y="-18.5" font-family="Helvetica,sans-Serif" font-size="10.00">static TimePickerSettings</text>
<text text-anchor="start" x="22" y="-6.5" font-family="Helvetica,sans-Serif" font-size="10.00"> createSettings()</text>
<polygon fill="#666666" stroke="#666666" points="8,-118 8,-118 165.5,-118 165.5,-118 8,-118"/>
<polygon fill="#666666" stroke="#666666" points="8,-90 8,-90 20,-90 20,-90 8,-90"/>
<polygon fill="#666666" stroke="#666666" points="20,-90 20,-90 165.5,-90 165.5,-90 20,-90"/>
<polygon fill="none" stroke="#666666" points="8,0 8,-148 165.5,-148 165.5,0 8,0"/>
</a>
</g>
</g>
<!-- Node2 -->
<g id="Node000002" class="node">
<title>Node2</title>
<g id="a_Node000002"><a xlink:title=" ">
<polygon fill="white" stroke="none" points="57.5,-276 0,-276 0,-224 57.5,-224 57.5,-276"/>
<text text-anchor="start" x="4" y="-262.5" font-family="Helvetica,sans-Serif" font-size="10.00">TimePicker</text>
<text text-anchor="start" x="27.25" y="-246.5" font-family="Helvetica,sans-Serif" font-size="10.00"> </text>
<text text-anchor="start" x="27.25" y="-230.5" font-family="Helvetica,sans-Serif" font-size="10.00"> </text>
<polygon fill="#666666" stroke="#666666" points="0,-258 0,-258 57.5,-258 57.5,-258 0,-258"/>
<polygon fill="#666666" stroke="#666666" points="0,-242 0,-242 57.5,-242 57.5,-242 0,-242"/>
<polygon fill="none" stroke="#666666" points="0,-224 0,-276 57.5,-276 57.5,-224 0,-224"/>
</a>
</g>
</g>
<!-- Node2&#45;&gt;Node1 -->
<g id="edge1_Node000001_Node000002" class="edge">
<title>Node2&#45;&gt;Node1</title>
<g id="a_edge1_Node000001_Node000002"><a xlink:title=" ">
<path fill="none" stroke="#63b8ff" d="M40.66,-213.26C46.98,-194.31 54.98,-170.32 62.53,-147.66"/>
<polygon fill="none" stroke="#63b8ff" points="37.38,-212.04 37.54,-222.63 44.02,-214.25 37.38,-212.04"/>
</a>
</g>
</g>
<!-- Node3 -->
<g id="Node000003" class="node">
<title>Node3</title>
<g id="a_Node000003"><a xlink:href="interfacefr_1_1softsf_1_1canscan_1_1ui_1_1_i_flat_laf_styled_for_l_good_date_picker.html" target="_top" xlink:title="Utility interface to apply FlatLaf styling to LGoodDatePicker components.">
<polygon fill="white" stroke="none" points="216.12,-316 75.38,-316 75.38,-184 216.12,-184 216.12,-316"/>
<text text-anchor="start" x="79.38" y="-302.5" font-family="Helvetica,sans-Serif" font-size="10.00">fr.softsf.canscan.ui.IFlat</text>
<text text-anchor="start" x="79.38" y="-290.5" font-family="Helvetica,sans-Serif" font-size="10.00">LafStyledForLGoodDatePicker</text>
<text text-anchor="start" x="80.25" y="-274.5" font-family="Helvetica,sans-Serif" font-size="10.00">+</text>
<text text-anchor="start" x="91.12" y="-274.5" font-family="Helvetica,sans-Serif" font-size="10.00">int TEXT_FIELD_HEIGHT</text>
<text text-anchor="start" x="80.25" y="-258.5" font-family="Helvetica,sans-Serif" font-size="10.00">+</text>
<text text-anchor="start" x="91.12" y="-258.5" font-family="Helvetica,sans-Serif" font-size="10.00">default void applyTheme()</text>
<text text-anchor="start" x="80.25" y="-242.5" font-family="Helvetica,sans-Serif" font-size="10.00">+</text>
<text text-anchor="start" x="91.12" y="-242.5" font-family="Helvetica,sans-Serif" font-size="10.00">default Dimension compute</text>
<text text-anchor="start" x="91.12" y="-230.5" font-family="Helvetica,sans-Serif" font-size="10.00">PreferredSize(Dimension</text>
<text text-anchor="start" x="91.12" y="-218.5" font-family="Helvetica,sans-Serif" font-size="10.00"> original)</text>
<text text-anchor="start" x="80.25" y="-202.5" font-family="Helvetica,sans-Serif" font-size="10.00">+</text>
<text text-anchor="start" x="91.12" y="-202.5" font-family="Helvetica,sans-Serif" font-size="10.00">JTextField getInternalText</text>
<text text-anchor="start" x="91.12" y="-190.5" font-family="Helvetica,sans-Serif" font-size="10.00">Field()</text>
<polygon fill="#666666" stroke="#666666" points="75.38,-286 75.38,-286 216.12,-286 216.12,-286 75.38,-286"/>
<polygon fill="#666666" stroke="#666666" points="75.38,-270 75.38,-270 89.12,-270 89.12,-270 75.38,-270"/>
<polygon fill="#666666" stroke="#666666" points="89.12,-270 89.12,-270 216.12,-270 216.12,-270 89.12,-270"/>
<polygon fill="none" stroke="#666666" points="75.38,-184 75.38,-316 216.12,-316 216.12,-184 75.38,-184"/>
</a>
</g>
</g>
<!-- Node3&#45;&gt;Node1 -->
<g id="edge2_Node000001_Node000003" class="edge">
<title>Node3&#45;&gt;Node1</title>
<g id="a_edge2_Node000001_Node000003"><a xlink:title=" ">
<path fill="none" stroke="#63b8ff" d="M120.15,-173.49C117.25,-164.95 114.3,-156.26 111.42,-147.75"/>
<polygon fill="none" stroke="#63b8ff" points="116.77,-174.43 123.29,-182.78 123.4,-172.18 116.77,-174.43"/>
</a>
</g>
</g>
</g>
</svg>
