<?xml version="1.0" encoding="UTF-8" standalone="no"?>
<!DOCTYPE svg PUBLIC "-//W3C//DTD SVG 1.1//EN"
 "http://www.w3.org/Graphics/SVG/1.1/DTD/svg11.dtd">
<!-- Generated by graphviz version 12.2.1 (20241206.2353)
 -->
<!-- Title: fr.softsf.canscan.NativeImageConfigSimulator.main Pages: 1 -->
<!--zoomable 406 -->

<svg id="main" version="1.1" xmlns="http://www.w3.org/2000/svg" xmlns:xlink="http://www.w3.org/1999/xlink" xml:space="preserve" onload="init(evt)">

<style type="text/css"><![CDATA[
.node, .edge {opacity: 0.7;}
.node.selected, .edge.selected {opacity: 1;}
.edge:hover path { stroke: red; }
.edge:hover polygon { stroke: red; fill: red; }
]]></style>

<defs>
  <circle id="rim" cx="0" cy="0" r="7"/>
  <circle id="rim2" cx="0" cy="0" r="3.5"/>
  <g id="zoomPlus">
    <use xlink:href="#rim" fill="#404040"><set attributeName="fill" to="#808080" begin="zoomplus.mouseover" end="zoomplus.mouseout"/></use>
    <path d="M-4,0h8M0,-4v8" fill="none" stroke="white" stroke-width="1.5" pointer-events="none"/>
  </g>
  <g id="zoomMin">
    <use xlink:href="#rim" fill="#404040"><set attributeName="fill" to="#808080" begin="zoomminus.mouseover" end="zoomminus.mouseout"/></use>
    <path d="M-4,0h8" fill="none" stroke="white" stroke-width="1.5" pointer-events="none"/>
  </g>
  <g id="arrowUp" transform="translate(30 24)">
    <use xlink:href="#rim"/>
    <path pointer-events="none" fill="none" stroke="white" stroke-width="1.5" d="M0,-3.0v7 M-2.5,-0.5L0,-3.0L2.5,-0.5"/>
  </g>
  <g id="arrowRight" transform="rotate(90) translate(36 -43)">
    <use xlink:href="#rim"/>
    <path pointer-events="none" fill="none" stroke="white" stroke-width="1.5" d="M0,-3.0v7 M-2.5,-0.5L0,-3.0L2.5,-0.5"/>
  </g>
  <g id="arrowDown" transform="rotate(180) translate(-30 -48)">
    <use xlink:href="#rim"/>
    <path pointer-events="none" fill="none" stroke="white" stroke-width="1.5" d="M0,-3.0v7 M-2.5,-0.5L0,-3.0L2.5,-0.5"/>
  </g>
  <g id="arrowLeft" transform="rotate(270) translate(-36 17)">
    <use xlink:href="#rim"/>
    <path pointer-events="none" fill="none" stroke="white" stroke-width="1.5" d="M0,-3.0v7 M-2.5,-0.5L0,-3.0L2.5,-0.5"/>
  </g>
  <g id="resetDef">
    <use xlink:href="#rim2" fill="#404040"><set attributeName="fill" to="#808080" begin="reset.mouseover" end="reset.mouseout"/></use>
  </g>
</defs>
<script type="application/ecmascript">
var viewWidth = 1040;
var viewHeight = 406;
var sectionId = 'dynsection-8';
</script>
<script type="application/ecmascript" xlink:href="svg.min.js"/>
<svg id="graph" class="graph">
<g id="viewport">
<title>fr.softsf.canscan.NativeImageConfigSimulator.main</title>
<!-- Node1 -->
<g id="Node000001" class="node">
<title>Node1</title>
<g id="a_Node000001"><a xlink:title="Launches the Native Image configuration UI and runs the end&#45;to&#45;end simulation in a background thread.">
<polygon fill="#999999" stroke="#666666" points="136.75,-212 0,-212 0,-180 136.75,-180 136.75,-212"/>
<text text-anchor="start" x="8" y="-198.5" font-family="Helvetica,sans-Serif" font-size="10.00">fr.softsf.canscan.Native</text>
<text text-anchor="middle" x="68.38" y="-186.5" font-family="Helvetica,sans-Serif" font-size="10.00">ImageConfigSimulator.main</text>
</a>
</g>
</g>
<!-- Node2 -->
<g id="Node000002" class="node">
<title>Node2</title>
<g id="a_Node000002"><a xlink:href="classfr_1_1softsf_1_1canscan_1_1_native_image_config_simulator.html#a2a0b386576bdaa60bf8af058bc26310d" target="_top" xlink:title="Runs the full end&#45;to&#45;end UI simulation for Native Image configuration using a Robot.">
<polygon fill="white" stroke="#666666" points="366.5,-212 172.75,-212 172.75,-180 366.5,-180 366.5,-212"/>
<text text-anchor="start" x="180.75" y="-198.5" font-family="Helvetica,sans-Serif" font-size="10.00">fr.softsf.canscan.Native</text>
<text text-anchor="middle" x="269.62" y="-186.5" font-family="Helvetica,sans-Serif" font-size="10.00">ImageConfigSimulator.runE2ESimulation</text>
</a>
</g>
</g>
<!-- Node1&#45;&gt;Node2 -->
<g id="edge1_Node000001_Node000002" class="edge">
<title>Node1&#45;&gt;Node2</title>
<g id="a_edge1_Node000001_Node000002"><a xlink:title=" ">
<path fill="none" stroke="#63b8ff" d="M137.11,-196C144.85,-196 152.89,-196 160.99,-196"/>
<polygon fill="#63b8ff" stroke="#63b8ff" points="160.96,-199.5 170.96,-196 160.96,-192.5 160.96,-199.5"/>
</a>
</g>
</g>
<!-- Node3 -->
<g id="Node000003" class="node">
<title>Node3</title>
<g id="a_Node000003"><a xlink:href="classfr_1_1softsf_1_1canscan_1_1_native_image_config_simulator.html#acbf2b92c5c36da7ad4329966d92f1a1b" target="_top" xlink:title="Simulates clicking a browse button to open a JFileChooser, performs a right&#45;click inside it,...">
<polygon fill="white" stroke="#666666" points="593.25,-336 413.75,-336 413.75,-292 593.25,-292 593.25,-336"/>
<text text-anchor="start" x="421.75" y="-322.5" font-family="Helvetica,sans-Serif" font-size="10.00">fr.softsf.canscan.Native</text>
<text text-anchor="start" x="421.75" y="-310.5" font-family="Helvetica,sans-Serif" font-size="10.00">ImageConfigSimulator.browseFolders</text>
<text text-anchor="middle" x="503.5" y="-298.5" font-family="Helvetica,sans-Serif" font-size="10.00">Simulation</text>
</a>
</g>
</g>
<!-- Node2&#45;&gt;Node3 -->
<g id="edge2_Node000002_Node000003" class="edge">
<title>Node2&#45;&gt;Node3</title>
<g id="a_edge2_Node000002_Node000003"><a xlink:title=" ">
<path fill="none" stroke="#63b8ff" d="M291.45,-212.45C316.55,-231.61 360.6,-263.18 402.5,-283 405.64,-284.49 408.88,-285.93 412.17,-287.31"/>
<polygon fill="#63b8ff" stroke="#63b8ff" points="410.84,-290.55 421.43,-291.01 413.44,-284.05 410.84,-290.55"/>
</a>
</g>
</g>
<!-- Node5 -->
<g id="Node000005" class="node">
<title>Node5</title>
<g id="a_Node000005"><a xlink:href="classfr_1_1softsf_1_1canscan_1_1_native_image_config_simulator.html#a3ce8b70d660baabe5ed741e64dfd0af3" target="_top" xlink:title="Simulates selecting a color via JColorChooser, confirms the dialog with Enter, and verifies the selec...">
<polygon fill="white" stroke="#666666" points="604.5,-212 402.5,-212 402.5,-180 604.5,-180 604.5,-212"/>
<text text-anchor="start" x="410.5" y="-198.5" font-family="Helvetica,sans-Serif" font-size="10.00">fr.softsf.canscan.Native</text>
<text text-anchor="middle" x="503.5" y="-186.5" font-family="Helvetica,sans-Serif" font-size="10.00">ImageConfigSimulator.chooseModuleColor</text>
</a>
</g>
</g>
<!-- Node2&#45;&gt;Node5 -->
<g id="edge4_Node000002_Node000005" class="edge">
<title>Node2&#45;&gt;Node5</title>
<g id="a_edge4_Node000002_Node000005"><a xlink:title=" ">
<path fill="none" stroke="#63b8ff" d="M366.95,-196C374.9,-196 382.97,-196 391.02,-196"/>
<polygon fill="#63b8ff" stroke="#63b8ff" points="390.85,-199.5 400.85,-196 390.85,-192.5 390.85,-199.5"/>
</a>
</g>
</g>
<!-- Node7 -->
<g id="Node000007" class="node">
<title>Node7</title>
<g id="a_Node000007"><a xlink:href="classfr_1_1softsf_1_1canscan_1_1_native_image_config_simulator.html#ad18c2e9f57e07032b9a48a10e02e61f6" target="_top" xlink:title="Searches for a component of the specified type and name within the given container hierarchy.">
<polygon fill="white" stroke="#666666" points="594.38,-32 412.62,-32 412.62,0 594.38,0 594.38,-32"/>
<text text-anchor="start" x="420.62" y="-18.5" font-family="Helvetica,sans-Serif" font-size="10.00">fr.softsf.canscan.Native</text>
<text text-anchor="middle" x="503.5" y="-6.5" font-family="Helvetica,sans-Serif" font-size="10.00">ImageConfigSimulator.findComponent</text>
</a>
</g>
</g>
<!-- Node2&#45;&gt;Node7 -->
<g id="edge7_Node000002_Node000007" class="edge">
<title>Node2&#45;&gt;Node7</title>
<g id="a_edge7_Node000002_Node000007"><a xlink:title=" ">
<path fill="none" stroke="#63b8ff" d="M282.79,-179.61C304.26,-151.65 351.46,-94.31 402.5,-59 414.88,-50.43 429.25,-43.03 443.16,-36.9"/>
<polygon fill="#63b8ff" stroke="#63b8ff" points="444.42,-40.17 452.27,-33.05 441.7,-33.72 444.42,-40.17"/>
</a>
</g>
</g>
<!-- Node8 -->
<g id="Node000008" class="node">
<title>Node8</title>
<g id="a_Node000008"><a xlink:href="classfr_1_1softsf_1_1canscan_1_1_native_image_config_simulator.html#a38fd2d97bfc693365a8dc700273ada47" target="_top" xlink:title="Simulates selecting the free data mode and entering an oversized payload into the input field.">
<polygon fill="white" stroke="#666666" points="580.12,-398 426.88,-398 426.88,-354 580.12,-354 580.12,-398"/>
<text text-anchor="start" x="434.88" y="-384.5" font-family="Helvetica,sans-Serif" font-size="10.00">fr.softsf.canscan.Native</text>
<text text-anchor="start" x="434.88" y="-372.5" font-family="Helvetica,sans-Serif" font-size="10.00">ImageConfigSimulator.freeData</text>
<text text-anchor="middle" x="503.5" y="-360.5" font-family="Helvetica,sans-Serif" font-size="10.00">TooBig</text>
</a>
</g>
</g>
<!-- Node2&#45;&gt;Node8 -->
<g id="edge9_Node000002_Node000008" class="edge">
<title>Node2&#45;&gt;Node8</title>
<g id="a_edge9_Node000002_Node000008"><a xlink:title=" ">
<path fill="none" stroke="#63b8ff" d="M280.48,-212.06C299.98,-242.51 346.49,-308.83 402.5,-345 406.78,-347.76 411.32,-350.3 416.02,-352.61"/>
<polygon fill="#63b8ff" stroke="#63b8ff" points="414.57,-355.8 425.12,-356.72 417.45,-349.42 414.57,-355.8"/>
</a>
</g>
</g>
<!-- Node11 -->
<g id="Node000011" class="node">
<title>Node11</title>
<g id="a_Node000011"><a xlink:href="classfr_1_1softsf_1_1canscan_1_1_native_image_config_simulator.html#ae2840980d77f2806ab5f1bd471186ed3" target="_top" xlink:title="Simulates typing &quot;Test&quot; into a JTextField and verifies the input using a Robot.">
<polygon fill="white" stroke="#666666" points="587.62,-112 419.38,-112 419.38,-68 587.62,-68 587.62,-112"/>
<text text-anchor="start" x="427.38" y="-98.5" font-family="Helvetica,sans-Serif" font-size="10.00">fr.softsf.canscan.Native</text>
<text text-anchor="start" x="427.38" y="-86.5" font-family="Helvetica,sans-Serif" font-size="10.00">ImageConfigSimulator.nameTyping</text>
<text text-anchor="middle" x="503.5" y="-74.5" font-family="Helvetica,sans-Serif" font-size="10.00">Simulation</text>
</a>
</g>
</g>
<!-- Node2&#45;&gt;Node11 -->
<g id="edge15_Node000002_Node000011" class="edge">
<title>Node2&#45;&gt;Node11</title>
<g id="a_edge15_Node000002_Node000011"><a xlink:title=" ">
<path fill="none" stroke="#63b8ff" d="M295.55,-179.65C321.46,-163.18 363.59,-137.86 402.5,-121 406.11,-119.44 409.83,-117.91 413.61,-116.44"/>
<polygon fill="#63b8ff" stroke="#63b8ff" points="414.82,-119.72 422.96,-112.94 412.37,-113.16 414.82,-119.72"/>
</a>
</g>
</g>
<!-- Node14 -->
<g id="Node000014" class="node">
<title>Node14</title>
<g id="a_Node000014"><a xlink:href="classfr_1_1softsf_1_1canscan_1_1_native_image_config_simulator.html#a9e920788e82b3b113a566174265607af" target="_top" xlink:title="Simulates hovering over a JSlider to verify its tooltip matches the current slider value.">
<polygon fill="white" stroke="#666666" points="583.12,-274 423.88,-274 423.88,-230 583.12,-230 583.12,-274"/>
<text text-anchor="start" x="431.88" y="-260.5" font-family="Helvetica,sans-Serif" font-size="10.00">fr.softsf.canscan.Native</text>
<text text-anchor="start" x="431.88" y="-248.5" font-family="Helvetica,sans-Serif" font-size="10.00">ImageConfigSimulator.ratioSlider</text>
<text text-anchor="middle" x="503.5" y="-236.5" font-family="Helvetica,sans-Serif" font-size="10.00">TooltipSimulation</text>
</a>
</g>
</g>
<!-- Node2&#45;&gt;Node14 -->
<g id="edge19_Node000002_Node000014" class="edge">
<title>Node2&#45;&gt;Node14</title>
<g id="a_edge19_Node000002_Node000014"><a xlink:title=" ">
<path fill="none" stroke="#63b8ff" d="M338.94,-212.5C361.99,-218.07 388.09,-224.37 412.55,-230.28"/>
<polygon fill="#63b8ff" stroke="#63b8ff" points="411.65,-233.66 422.19,-232.61 413.29,-226.86 411.65,-233.66"/>
</a>
</g>
</g>
<!-- Node15 -->
<g id="Node000015" class="node">
<title>Node15</title>
<g id="a_Node000015"><a xlink:href="classfr_1_1softsf_1_1canscan_1_1_native_image_config_simulator.html#a346e85bc50a5fd264ba680c0c5a3d51a" target="_top" xlink:title="Simulates activating the meeting mode and selecting a start time through the TimePicker.">
<polygon fill="white" stroke="#666666" points="601.12,-162 405.88,-162 405.88,-130 601.12,-130 601.12,-162"/>
<text text-anchor="start" x="413.88" y="-148.5" font-family="Helvetica,sans-Serif" font-size="10.00">fr.softsf.canscan.Native</text>
<text text-anchor="middle" x="503.5" y="-136.5" font-family="Helvetica,sans-Serif" font-size="10.00">ImageConfigSimulator.selectABeginTime</text>
</a>
</g>
</g>
<!-- Node2&#45;&gt;Node15 -->
<g id="edge21_Node000002_Node000015" class="edge">
<title>Node2&#45;&gt;Node15</title>
<g id="a_edge21_Node000002_Node000015"><a xlink:title=" ">
<path fill="none" stroke="#63b8ff" d="M346.87,-179.56C368.66,-174.86 392.59,-169.7 415,-164.87"/>
<polygon fill="#63b8ff" stroke="#63b8ff" points="415.69,-168.3 424.73,-162.77 414.22,-161.46 415.69,-168.3"/>
</a>
</g>
</g>
<!-- Node4 -->
<g id="Node000004" class="node">
<title>Node4</title>
<g id="a_Node000004"><a xlink:href="classfr_1_1softsf_1_1canscan_1_1_native_image_config_simulator.html#aaadd03094f00bbe2258c6e9742be224d" target="_top" xlink:title="Compares two strings and prints the test result with a label.">
<polygon fill="white" stroke="#666666" points="813.25,-268 640.5,-268 640.5,-236 813.25,-236 813.25,-268"/>
<text text-anchor="start" x="648.5" y="-254.5" font-family="Helvetica,sans-Serif" font-size="10.00">fr.softsf.canscan.Native</text>
<text text-anchor="middle" x="726.88" y="-242.5" font-family="Helvetica,sans-Serif" font-size="10.00">ImageConfigSimulator.assertEquals</text>
</a>
</g>
</g>
<!-- Node3&#45;&gt;Node4 -->
<g id="edge3_Node000003_Node000004" class="edge">
<title>Node3&#45;&gt;Node4</title>
<g id="a_edge3_Node000003_Node000004"><a xlink:title=" ">
<path fill="none" stroke="#63b8ff" d="M584.73,-291.53C608.13,-284.98 633.49,-277.87 656.18,-271.52"/>
<polygon fill="#63b8ff" stroke="#63b8ff" points="656.94,-274.94 665.62,-268.87 655.05,-268.2 656.94,-274.94"/>
</a>
</g>
</g>
<!-- Node5&#45;&gt;Node4 -->
<g id="edge5_Node000005_Node000004" class="edge">
<title>Node5&#45;&gt;Node4</title>
<g id="a_edge5_Node000005_Node000004"><a xlink:title=" ">
<path fill="none" stroke="#63b8ff" d="M570.67,-212.49C581.96,-215.32 593.57,-218.24 604.5,-221 619.43,-224.77 635.39,-228.83 650.66,-232.73"/>
<polygon fill="#63b8ff" stroke="#63b8ff" points="649.62,-236.07 660.17,-235.15 651.35,-229.29 649.62,-236.07"/>
</a>
</g>
</g>
<!-- Node6 -->
<g id="Node000006" class="node">
<title>Node6</title>
<g id="a_Node000006"><a xlink:href="classfr_1_1softsf_1_1canscan_1_1_native_image_config_simulator.html#ab4d4463dc9177237a8de0a7b6713e7cf" target="_top" xlink:title="Simulates pressing the Enter key using the provided Robot, followed by a short delay.">
<polygon fill="white" stroke="#666666" points="1022,-224 859,-224 859,-192 1022,-192 1022,-224"/>
<text text-anchor="start" x="867" y="-210.5" font-family="Helvetica,sans-Serif" font-size="10.00">fr.softsf.canscan.Native</text>
<text text-anchor="middle" x="940.5" y="-198.5" font-family="Helvetica,sans-Serif" font-size="10.00">ImageConfigSimulator.pressEnter</text>
</a>
</g>
</g>
<!-- Node5&#45;&gt;Node6 -->
<g id="edge6_Node000005_Node000006" class="edge">
<title>Node5&#45;&gt;Node6</title>
<g id="a_edge6_Node000005_Node000006"><a xlink:title=" ">
<path fill="none" stroke="#63b8ff" d="M604.84,-198.77C677.96,-200.79 776.26,-203.5 847.38,-205.46"/>
<polygon fill="#63b8ff" stroke="#63b8ff" points="846.95,-208.95 857.05,-205.73 847.15,-201.95 846.95,-208.95"/>
</a>
</g>
</g>
<!-- Node7&#45;&gt;Node7 -->
<g id="edge8_Node000007_Node000007" class="edge">
<title>Node7&#45;&gt;Node7</title>
<g id="a_edge8_Node000007_Node000007"><a xlink:title=" ">
<path fill="none" stroke="#63b8ff" d="M463.62,-32.44C456.18,-41.58 469.47,-50 503.5,-50 522.38,-50 534.87,-47.41 540.99,-43.54"/>
<polygon fill="#63b8ff" stroke="#63b8ff" points="544.38,-44.44 543.06,-33.92 537.53,-42.96 544.38,-44.44"/>
</a>
</g>
</g>
<!-- Node8&#45;&gt;Node4 -->
<g id="edge10_Node000008_Node000004" class="edge">
<title>Node8&#45;&gt;Node4</title>
<g id="a_edge10_Node000008_Node000004"><a xlink:title=" ">
<path fill="none" stroke="#63b8ff" d="M580.61,-356.47C588.91,-353.16 597.05,-349.36 604.5,-345 623.5,-333.9 623.4,-324.85 640.5,-311 656.38,-298.13 674.96,-285.08 690.72,-274.54"/>
<polygon fill="#63b8ff" stroke="#63b8ff" points="692.44,-277.59 698.85,-269.16 688.58,-271.76 692.44,-277.59"/>
</a>
</g>
</g>
<!-- Node9 -->
<g id="Node000009" class="node">
<title>Node9</title>
<g id="a_Node000009"><a xlink:href="classfr_1_1softsf_1_1canscan_1_1_native_image_config_simulator.html#a4795cbc2d8717311fd26b8589a618616" target="_top" xlink:title="Confirms and closes a visible JOptionPane by pressing Enter, then returns the dialog title.">
<polygon fill="white" stroke="#666666" points="803.5,-364 650.25,-364 650.25,-320 803.5,-320 803.5,-364"/>
<text text-anchor="start" x="658.25" y="-350.5" font-family="Helvetica,sans-Serif" font-size="10.00">fr.softsf.canscan.Native</text>
<text text-anchor="start" x="658.25" y="-338.5" font-family="Helvetica,sans-Serif" font-size="10.00">ImageConfigSimulator.intercept</text>
<text text-anchor="middle" x="726.88" y="-326.5" font-family="Helvetica,sans-Serif" font-size="10.00">AndValideDialog</text>
</a>
</g>
</g>
<!-- Node8&#45;&gt;Node9 -->
<g id="edge11_Node000008_Node000009" class="edge">
<title>Node8&#45;&gt;Node9</title>
<g id="a_edge11_Node000008_Node000009"><a xlink:title=" ">
<path fill="none" stroke="#63b8ff" d="M580.37,-364.35C599.21,-361.45 619.54,-358.33 638.86,-355.36"/>
<polygon fill="#63b8ff" stroke="#63b8ff" points="639.25,-358.85 648.6,-353.87 638.19,-351.93 639.25,-358.85"/>
</a>
</g>
</g>
<!-- Node9&#45;&gt;Node6 -->
<g id="edge14_Node000009_Node000006" class="edge">
<title>Node9&#45;&gt;Node6</title>
<g id="a_edge14_Node000009_Node000006"><a xlink:title=" ">
<path fill="none" stroke="#63b8ff" d="M763.3,-319.57C802.37,-294.83 864.89,-255.24 904,-230.48"/>
<polygon fill="#63b8ff" stroke="#63b8ff" points="905.79,-233.49 912.37,-225.18 902.05,-227.57 905.79,-233.49"/>
</a>
</g>
</g>
<!-- Node10 -->
<g id="Node000010" class="node">
<title>Node10</title>
<g id="a_Node000010"><a xlink:href="classfr_1_1softsf_1_1canscan_1_1_native_image_config_simulator.html#ac80dbcb1d031bb72c93cf21315c09f27" target="_top" xlink:title="Recursively searches the given container and its descendants for a JOptionPane instance.">
<polygon fill="white" stroke="#666666" points="1031.75,-358 849.25,-358 849.25,-326 1031.75,-326 1031.75,-358"/>
<text text-anchor="start" x="857.25" y="-344.5" font-family="Helvetica,sans-Serif" font-size="10.00">fr.softsf.canscan.Native</text>
<text text-anchor="middle" x="940.5" y="-332.5" font-family="Helvetica,sans-Serif" font-size="10.00">ImageConfigSimulator.findOptionPane</text>
</a>
</g>
</g>
<!-- Node9&#45;&gt;Node10 -->
<g id="edge12_Node000009_Node000010" class="edge">
<title>Node9&#45;&gt;Node10</title>
<g id="a_edge12_Node000009_Node000010"><a xlink:title=" ">
<path fill="none" stroke="#63b8ff" d="M803.98,-342C814.91,-342 826.3,-342 837.63,-342"/>
<polygon fill="#63b8ff" stroke="#63b8ff" points="837.41,-345.5 847.41,-342 837.41,-338.5 837.41,-345.5"/>
</a>
</g>
</g>
<!-- Node10&#45;&gt;Node10 -->
<g id="edge13_Node000010_Node000010" class="edge">
<title>Node10&#45;&gt;Node10</title>
<g id="a_edge13_Node000010_Node000010"><a xlink:title=" ">
<path fill="none" stroke="#63b8ff" d="M902.36,-358.44C895.24,-367.58 907.96,-376 940.5,-376 958.55,-376 970.5,-373.41 976.35,-369.54"/>
<polygon fill="#63b8ff" stroke="#63b8ff" points="979.74,-370.43 978.33,-359.93 972.89,-369.01 979.74,-370.43"/>
</a>
</g>
</g>
<!-- Node11&#45;&gt;Node4 -->
<g id="edge16_Node000011_Node000004" class="edge">
<title>Node11&#45;&gt;Node4</title>
<g id="a_edge16_Node000011_Node000004"><a xlink:title=" ">
<path fill="none" stroke="#63b8ff" d="M587.88,-112.07C593.67,-114.74 599.27,-117.71 604.5,-121 627.88,-135.73 677.54,-193.45 705.56,-227.16"/>
<polygon fill="#63b8ff" stroke="#63b8ff" points="702.81,-229.33 711.88,-234.81 708.2,-224.87 702.81,-229.33"/>
</a>
</g>
</g>
<!-- Node12 -->
<g id="Node000012" class="node">
<title>Node12</title>
<g id="a_Node000012"><a xlink:href="classfr_1_1softsf_1_1canscan_1_1_native_image_config_simulator.html#acc5424a9d2c1d44c93a045868f58a5ff" target="_top" xlink:title="Simulates typing a full string using the Robot class.">
<polygon fill="white" stroke="#666666" points="806.88,-92 646.88,-92 646.88,-60 806.88,-60 806.88,-92"/>
<text text-anchor="start" x="654.88" y="-78.5" font-family="Helvetica,sans-Serif" font-size="10.00">fr.softsf.canscan.Native</text>
<text text-anchor="middle" x="726.88" y="-66.5" font-family="Helvetica,sans-Serif" font-size="10.00">ImageConfigSimulator.typeString</text>
</a>
</g>
</g>
<!-- Node11&#45;&gt;Node12 -->
<g id="edge17_Node000011_Node000012" class="edge">
<title>Node11&#45;&gt;Node12</title>
<g id="a_edge17_Node000011_Node000012"><a xlink:title=" ">
<path fill="none" stroke="#63b8ff" d="M587.88,-84.73C603.36,-83.75 619.61,-82.72 635.29,-81.73"/>
<polygon fill="#63b8ff" stroke="#63b8ff" points="635.33,-85.23 645.09,-81.11 634.89,-78.25 635.33,-85.23"/>
</a>
</g>
</g>
<!-- Node13 -->
<g id="Node000013" class="node">
<title>Node13</title>
<g id="a_Node000013"><a xlink:href="classfr_1_1softsf_1_1canscan_1_1_native_image_config_simulator.html#a4c1895b6327fef325b1b0c8047bcfcb7" target="_top" xlink:title="Simulates typing a single character using the Robot class.">
<polygon fill="white" stroke="#666666" points="1018.25,-92 862.75,-92 862.75,-60 1018.25,-60 1018.25,-92"/>
<text text-anchor="start" x="870.75" y="-78.5" font-family="Helvetica,sans-Serif" font-size="10.00">fr.softsf.canscan.Native</text>
<text text-anchor="middle" x="940.5" y="-66.5" font-family="Helvetica,sans-Serif" font-size="10.00">ImageConfigSimulator.typeChar</text>
</a>
</g>
</g>
<!-- Node12&#45;&gt;Node13 -->
<g id="edge18_Node000012_Node000013" class="edge">
<title>Node12&#45;&gt;Node13</title>
<g id="a_edge18_Node000012_Node000013"><a xlink:title=" ">
<path fill="none" stroke="#63b8ff" d="M807.28,-76C821.53,-76 836.46,-76 850.96,-76"/>
<polygon fill="#63b8ff" stroke="#63b8ff" points="850.95,-79.5 860.95,-76 850.95,-72.5 850.95,-79.5"/>
</a>
</g>
</g>
<!-- Node14&#45;&gt;Node4 -->
<g id="edge20_Node000014_Node000004" class="edge">
<title>Node14&#45;&gt;Node4</title>
<g id="a_edge20_Node000014_Node000004"><a xlink:title=" ">
<path fill="none" stroke="#63b8ff" d="M583.48,-252C598.13,-252 613.58,-252 628.69,-252"/>
<polygon fill="#63b8ff" stroke="#63b8ff" points="628.65,-255.5 638.65,-252 628.65,-248.5 628.65,-255.5"/>
</a>
</g>
</g>
<!-- Node15&#45;&gt;Node4 -->
<g id="edge22_Node000015_Node000004" class="edge">
<title>Node15&#45;&gt;Node4</title>
<g id="a_edge22_Node000015_Node000004"><a xlink:title=" ">
<path fill="none" stroke="#63b8ff" d="M581.84,-162.48C589.62,-164.98 597.3,-167.81 604.5,-171 638.5,-186.05 673.41,-210.47 697.01,-228.57"/>
<polygon fill="#63b8ff" stroke="#63b8ff" points="694.86,-231.33 704.9,-234.72 699.17,-225.81 694.86,-231.33"/>
</a>
</g>
</g>
<!-- Node15&#45;&gt;Node6 -->
<g id="edge24_Node000015_Node000006" class="edge">
<title>Node15&#45;&gt;Node6</title>
<g id="a_edge24_Node000015_Node000006"><a xlink:title=" ">
<path fill="none" stroke="#63b8ff" d="M601.58,-159.84C675.03,-170.3 775.22,-184.59 847.41,-194.87"/>
<polygon fill="#63b8ff" stroke="#63b8ff" points="846.86,-198.33 857.25,-196.28 847.85,-191.4 846.86,-198.33"/>
</a>
</g>
</g>
<!-- Node16 -->
<g id="Node000016" class="node">
<title>Node16</title>
<g id="a_Node000016"><a xlink:href="classfr_1_1softsf_1_1canscan_1_1_native_image_config_simulator.html#a408544bcaf9c2fb999521466aa9d2233" target="_top" xlink:title="Simulates pressing the Down arrow key using the provided Robot, followed by a short delay.">
<polygon fill="white" stroke="#666666" points="809.5,-142 644.25,-142 644.25,-110 809.5,-110 809.5,-142"/>
<text text-anchor="start" x="652.25" y="-128.5" font-family="Helvetica,sans-Serif" font-size="10.00">fr.softsf.canscan.Native</text>
<text text-anchor="middle" x="726.88" y="-116.5" font-family="Helvetica,sans-Serif" font-size="10.00">ImageConfigSimulator.pressDown</text>
</a>
</g>
</g>
<!-- Node15&#45;&gt;Node16 -->
<g id="edge23_Node000015_Node000016" class="edge">
<title>Node15&#45;&gt;Node16</title>
<g id="a_edge23_Node000015_Node000016"><a xlink:title=" ">
<path fill="none" stroke="#63b8ff" d="M601.6,-137.23C612.01,-136.29 622.58,-135.33 632.94,-134.4"/>
<polygon fill="#63b8ff" stroke="#63b8ff" points="632.92,-137.91 642.57,-133.53 632.29,-130.94 632.92,-137.91"/>
</a>
</g>
</g>
</g>
</svg>

<g id="navigator" transform="translate(0 0)" fill="#404254">
  <rect fill="#f2f5e9" fill-opacity="0.5" stroke="#606060" stroke-width=".5" x="0" y="0" width="60" height="60"/>
  <use id="zoomplus" xlink:href="#zoomPlus" x="17" y="9" onmousedown="handleZoom(evt,'in')"/>
  <use id="zoomminus" xlink:href="#zoomMin" x="42" y="9" onmousedown="handleZoom(evt,'out')"/>
  <use id="reset" xlink:href="#resetDef" x="30" y="36" onmousedown="handleReset()"/>
   <use id="arrowup" xlink:href="#arrowUp" x="0" y="0" onmousedown="handlePan(0,-1)"/>
  <use id="arrowright" xlink:href="#arrowRight" x="0" y="0" onmousedown="handlePan(1,0)"/>
  <use id="arrowdown" xlink:href="#arrowDown" x="0" y="0" onmousedown="handlePan(0,1)"/>
  <use id="arrowleft" xlink:href="#arrowLeft" x="0" y="0" onmousedown="handlePan(-1,0)"/>
</g>
<svg viewBox="0 0 15 15" width="100%" height="30px" preserveAspectRatio="xMaxYMin meet">
 <g id="arrow_out" transform="scale(0.3 0.3)">
  <a xlink:href="classfr_1_1softsf_1_1canscan_1_1_native_image_config_simulator_ab8c7880da3362ba3c790d51a0918e774_cgraph_org.svg" target="_base">
   <rect id="button" ry="5" rx="5" y="6" x="6" height="38" width="38"
        fill="#f2f5e9" fill-opacity="0.5" stroke="#606060" stroke-width="1.0"/>
   <path id="arrow"
     d="M 11.500037,31.436501 C 11.940474,20.09759 22.043105,11.32322 32.158766,21.979434 L 37.068811,17.246167 C 37.068811,17.246167 37.088388,32 37.088388,32 L 22.160133,31.978069 C 22.160133,31.978069 26.997745,27.140456 26.997745,27.140456 C 18.528582,18.264221 13.291696,25.230495 11.500037,31.436501 z"
     style="fill:#404040;"/>
  </a>
 </g>
</svg>

<style type='text/css'>
<![CDATA[
[data-mouse-over-selected='false'] { opacity: 0.7; }
[data-mouse-over-selected='true']  { opacity: 1.0; }
]]>
</style>
<script type="application/ecmascript"><![CDATA[
document.addEventListener('DOMContentLoaded', (event) => {
  highlightEdges();
  highlightAdjacentNodes();
});
]]></script>
</svg>
