<?xml version="1.0" encoding="UTF-8" standalone="no"?>
<!DOCTYPE svg PUBLIC "-//W3C//DTD SVG 1.1//EN"
 "http://www.w3.org/Graphics/SVG/1.1/DTD/svg11.dtd">
<!-- Generated by graphviz version 12.2.1 (20241206.2353)
 -->
<!-- Title: fr.softsf.canscan.ui.QrCodeColor.chooseColor Pages: 1 -->
<svg width="670pt" height="90pt"
 viewBox="0.00 0.00 669.75 90.00" xmlns="http://www.w3.org/2000/svg" xmlns:xlink="http://www.w3.org/1999/xlink">
<g id="graph0" class="graph" transform="scale(1 1) rotate(0) translate(4 86)">
<title>fr.softsf.canscan.ui.QrCodeColor.chooseColor</title>
<!-- Node1 -->
<g id="Node000001" class="node">
<title>Node1</title>
<g id="a_Node000001"><a xlink:title="Opens a color chooser dialog and updates the button with the selected color.">
<polygon fill="#999999" stroke="#666666" points="136.75,-57 0,-57 0,-25 136.75,-25 136.75,-57"/>
<text text-anchor="start" x="8" y="-43.5" font-family="Helvetica,sans-Serif" font-size="10.00">fr.softsf.canscan.ui.QrCode</text>
<text text-anchor="middle" x="68.38" y="-31.5" font-family="Helvetica,sans-Serif" font-size="10.00">Color.chooseColor</text>
</a>
</g>
</g>
<!-- Node2 -->
<g id="Node000002" class="node">
<title>Node2</title>
<g id="a_Node000002"><a xlink:href="classfr_1_1softsf_1_1canscan_1_1ui_1_1_qr_code_color.html#a57b7c1d957a1be01fa4be2f095baac42" target="_top" xlink:title="Updates a button&#39;s icon and text to reflect a new color.">
<polygon fill="white" stroke="#666666" points="316.25,-57 172.75,-57 172.75,-25 316.25,-25 316.25,-57"/>
<text text-anchor="start" x="180.75" y="-43.5" font-family="Helvetica,sans-Serif" font-size="10.00">fr.softsf.canscan.ui.QrCode</text>
<text text-anchor="middle" x="244.5" y="-31.5" font-family="Helvetica,sans-Serif" font-size="10.00">Color.updateButtonWithColor</text>
</a>
</g>
</g>
<!-- Node1&#45;&gt;Node2 -->
<g id="edge1_Node000001_Node000002" class="edge">
<title>Node1&#45;&gt;Node2</title>
<g id="a_edge1_Node000001_Node000002"><a xlink:title=" ">
<path fill="none" stroke="#63b8ff" d="M137.19,-41C145.05,-41 153.12,-41 161.14,-41"/>
<polygon fill="#63b8ff" stroke="#63b8ff" points="160.9,-44.5 170.9,-41 160.9,-37.5 160.9,-44.5"/>
</a>
</g>
</g>
<!-- Node3 -->
<g id="Node000003" class="node">
<title>Node3</title>
<g id="a_Node000003"><a xlink:href="classfr_1_1softsf_1_1canscan_1_1ui_1_1_qr_code_color.html#a6e471a263428b03ae94124805629228e" target="_top" xlink:title="Converts a Color object to its hexadecimal RGB string representation.">
<polygon fill="white" stroke="#666666" points="489,-82 352.25,-82 352.25,-50 489,-50 489,-82"/>
<text text-anchor="start" x="360.25" y="-68.5" font-family="Helvetica,sans-Serif" font-size="10.00">fr.softsf.canscan.ui.QrCode</text>
<text text-anchor="middle" x="420.62" y="-56.5" font-family="Helvetica,sans-Serif" font-size="10.00">Color.colorToHex</text>
</a>
</g>
</g>
<!-- Node2&#45;&gt;Node3 -->
<g id="edge2_Node000002_Node000003" class="edge">
<title>Node2&#45;&gt;Node3</title>
<g id="a_edge2_Node000002_Node000003"><a xlink:title=" ">
<path fill="none" stroke="#63b8ff" d="M316.57,-51.2C324.5,-52.34 332.61,-53.51 340.63,-54.66"/>
<polygon fill="#63b8ff" stroke="#63b8ff" points="339.98,-58.1 350.37,-56.06 340.97,-51.17 339.98,-58.1"/>
</a>
</g>
</g>
<!-- Node4 -->
<g id="Node000004" class="node">
<title>Node4</title>
<g id="a_Node000004"><a xlink:href="classfr_1_1softsf_1_1canscan_1_1ui_1_1_qr_code_color.html#a77f0fa64996390a23753e06964d5bdb3" target="_top" xlink:title="Creates a square icon filled with the specified color and a visible border.">
<polygon fill="white" stroke="#666666" points="489,-32 352.25,-32 352.25,0 489,0 489,-32"/>
<text text-anchor="start" x="360.25" y="-18.5" font-family="Helvetica,sans-Serif" font-size="10.00">fr.softsf.canscan.ui.QrCode</text>
<text text-anchor="middle" x="420.62" y="-6.5" font-family="Helvetica,sans-Serif" font-size="10.00">Color.createColorIcon</text>
</a>
</g>
</g>
<!-- Node2&#45;&gt;Node4 -->
<g id="edge3_Node000002_Node000004" class="edge">
<title>Node2&#45;&gt;Node4</title>
<g id="a_edge3_Node000002_Node000004"><a xlink:title=" ">
<path fill="none" stroke="#63b8ff" d="M316.57,-30.8C324.5,-29.66 332.61,-28.49 340.63,-27.34"/>
<polygon fill="#63b8ff" stroke="#63b8ff" points="340.97,-30.83 350.37,-25.94 339.98,-23.9 340.97,-30.83"/>
</a>
</g>
</g>
<!-- Node5 -->
<g id="Node000005" class="node">
<title>Node5</title>
<g id="a_Node000005"><a xlink:href="classfr_1_1softsf_1_1canscan_1_1ui_1_1_qr_code_color.html#a90b951053218f84d455569a3a29a4b52" target="_top" xlink:title="Disposes the current icon of a button to free memory.">
<polygon fill="white" stroke="#666666" points="661.75,-32 525,-32 525,0 661.75,0 661.75,-32"/>
<text text-anchor="start" x="533" y="-18.5" font-family="Helvetica,sans-Serif" font-size="10.00">fr.softsf.canscan.ui.QrCode</text>
<text text-anchor="middle" x="593.38" y="-6.5" font-family="Helvetica,sans-Serif" font-size="10.00">Color.disposeButtonIcon</text>
</a>
</g>
</g>
<!-- Node4&#45;&gt;Node5 -->
<g id="edge4_Node000004_Node000005" class="edge">
<title>Node4&#45;&gt;Node5</title>
<g id="a_edge4_Node000004_Node000005"><a xlink:title=" ">
<path fill="none" stroke="#63b8ff" d="M489.11,-16C497.03,-16 505.16,-16 513.23,-16"/>
<polygon fill="#63b8ff" stroke="#63b8ff" points="513.03,-19.5 523.03,-16 513.03,-12.5 513.03,-19.5"/>
</a>
</g>
</g>
</g>
</svg>
