<?xml version="1.0" encoding="UTF-8" standalone="no"?>
<!DOCTYPE svg PUBLIC "-//W3C//DTD SVG 1.1//EN"
 "http://www.w3.org/Graphics/SVG/1.1/DTD/svg11.dtd">
<!-- Generated by graphviz version 12.2.1 (20241206.2353)
 -->
<!-- Title: fr.softsf.canscan.ui.FlatLafTimePicker.FlatLafTimePicker Pages: 1 -->
<svg width="612pt" height="96pt"
 viewBox="0.00 0.00 611.75 96.00" xmlns="http://www.w3.org/2000/svg" xmlns:xlink="http://www.w3.org/1999/xlink">
<g id="graph0" class="graph" transform="scale(1 1) rotate(0) translate(4 92)">
<title>fr.softsf.canscan.ui.FlatLafTimePicker.FlatLafTimePicker</title>
<!-- Node1 -->
<g id="Node000001" class="node">
<title>Node1</title>
<g id="a_Node000001"><a xlink:title="Creates a new FlatLafTimePicker with FlatLaf styling applied.">
<polygon fill="#999999" stroke="#666666" points="161.5,-57 0,-57 0,-25 161.5,-25 161.5,-57"/>
<text text-anchor="start" x="8" y="-43.5" font-family="Helvetica,sans-Serif" font-size="10.00">fr.softsf.canscan.ui.Flat</text>
<text text-anchor="middle" x="80.75" y="-31.5" font-family="Helvetica,sans-Serif" font-size="10.00">LafTimePicker.FlatLafTimePicker</text>
</a>
</g>
</g>
<!-- Node2 -->
<g id="Node000002" class="node">
<title>Node2</title>
<g id="a_Node000002"><a xlink:href="interfacefr_1_1softsf_1_1canscan_1_1ui_1_1_i_flat_laf_styled_for_l_good_date_picker.html#a5fdca55f301a7bc8db1f4dbf6caaa635" target="_top" xlink:title="Applies FlatLaf styling to the internal text field.">
<polygon fill="white" stroke="#666666" points="402.5,-82 197.5,-82 197.5,-50 402.5,-50 402.5,-82"/>
<text text-anchor="start" x="205.5" y="-68.5" font-family="Helvetica,sans-Serif" font-size="10.00">fr.softsf.canscan.ui.IFlat</text>
<text text-anchor="middle" x="300" y="-56.5" font-family="Helvetica,sans-Serif" font-size="10.00">LafStyledForLGoodDatePicker.applyTheme</text>
</a>
</g>
</g>
<!-- Node1&#45;&gt;Node2 -->
<g id="edge1_Node000001_Node000002" class="edge">
<title>Node1&#45;&gt;Node2</title>
<g id="a_edge1_Node000001_Node000002"><a xlink:title=" ">
<path fill="none" stroke="#63b8ff" d="M161.72,-50.2C169.53,-51.1 177.56,-52.03 185.62,-52.95"/>
<polygon fill="#63b8ff" stroke="#63b8ff" points="185.18,-56.43 195.51,-54.09 185.98,-49.47 185.18,-56.43"/>
</a>
</g>
</g>
<!-- Node4 -->
<g id="Node000004" class="node">
<title>Node4</title>
<g id="a_Node000004"><a xlink:href="classfr_1_1softsf_1_1canscan_1_1ui_1_1_flat_laf_time_picker.html#a2c70cbf92e4711bb65583b9a07da4f36" target="_top" xlink:title="Configures TimePickerSettings with FlatLaf colors and borders.">
<polygon fill="white" stroke="#666666" points="372.5,-32 227.5,-32 227.5,0 372.5,0 372.5,-32"/>
<text text-anchor="start" x="235.5" y="-18.5" font-family="Helvetica,sans-Serif" font-size="10.00">fr.softsf.canscan.ui.Flat</text>
<text text-anchor="middle" x="300" y="-6.5" font-family="Helvetica,sans-Serif" font-size="10.00">LafTimePicker.createSettings</text>
</a>
</g>
</g>
<!-- Node1&#45;&gt;Node4 -->
<g id="edge3_Node000001_Node000004" class="edge">
<title>Node1&#45;&gt;Node4</title>
<g id="a_edge3_Node000001_Node000004"><a xlink:title=" ">
<path fill="none" stroke="#63b8ff" d="M161.72,-31.8C179.37,-29.77 198.11,-27.61 215.88,-25.57"/>
<polygon fill="#63b8ff" stroke="#63b8ff" points="216.06,-29.07 225.6,-24.45 215.26,-22.11 216.06,-29.07"/>
</a>
</g>
</g>
<!-- Node3 -->
<g id="Node000003" class="node">
<title>Node3</title>
<g id="a_Node000003"><a xlink:href="interfacefr_1_1softsf_1_1canscan_1_1ui_1_1_i_flat_laf_styled_for_l_good_date_picker.html#aefd53a813e3651ae14f3ef740410bade" target="_top" xlink:title="Returns the internal JTextField of the picker.">
<polygon fill="white" stroke="#666666" points="603.75,-88 438.5,-88 438.5,-44 603.75,-44 603.75,-88"/>
<text text-anchor="start" x="446.5" y="-74.5" font-family="Helvetica,sans-Serif" font-size="10.00">fr.softsf.canscan.ui.IFlat</text>
<text text-anchor="start" x="446.5" y="-62.5" font-family="Helvetica,sans-Serif" font-size="10.00">LafStyledForLGoodDatePicker.get</text>
<text text-anchor="middle" x="521.12" y="-50.5" font-family="Helvetica,sans-Serif" font-size="10.00">InternalTextField</text>
</a>
</g>
</g>
<!-- Node2&#45;&gt;Node3 -->
<g id="edge2_Node000002_Node000003" class="edge">
<title>Node2&#45;&gt;Node3</title>
<g id="a_edge2_Node000002_Node000003"><a xlink:title=" ">
<path fill="none" stroke="#63b8ff" d="M402.86,-66C410.82,-66 418.84,-66 426.74,-66"/>
<polygon fill="#63b8ff" stroke="#63b8ff" points="426.7,-69.5 436.7,-66 426.7,-62.5 426.7,-69.5"/>
</a>
</g>
</g>
</g>
</svg>
