<?xml version="1.0" encoding="UTF-8" standalone="no"?>
<!DOCTYPE svg PUBLIC "-//W3C//DTD SVG 1.1//EN"
 "http://www.w3.org/Graphics/SVG/1.1/DTD/svg11.dtd">
<!-- Generated by graphviz version 12.2.1 (20241206.2353)
 -->
<!-- Title: fr.softsf.canscan.ui.FlatLafDatePicker.FlatLafDatePicker Pages: 1 -->
<svg width="610pt" height="96pt"
 viewBox="0.00 0.00 610.25 96.00" xmlns="http://www.w3.org/2000/svg" xmlns:xlink="http://www.w3.org/1999/xlink">
<g id="graph0" class="graph" transform="scale(1 1) rotate(0) translate(4 92)">
<title>fr.softsf.canscan.ui.FlatLafDatePicker.FlatLafDatePicker</title>
<!-- Node1 -->
<g id="Node000001" class="node">
<title>Node1</title>
<g id="a_Node000001"><a xlink:title="Creates a new FlatLafDatePicker with FlatLaf styling applied.">
<polygon fill="#999999" stroke="#666666" points="160,-57 0,-57 0,-25 160,-25 160,-57"/>
<text text-anchor="start" x="8" y="-43.5" font-family="Helvetica,sans-Serif" font-size="10.00">fr.softsf.canscan.ui.Flat</text>
<text text-anchor="middle" x="80" y="-31.5" font-family="Helvetica,sans-Serif" font-size="10.00">LafDatePicker.FlatLafDatePicker</text>
</a>
</g>
</g>
<!-- Node2 -->
<g id="Node000002" class="node">
<title>Node2</title>
<g id="a_Node000002"><a xlink:href="interfacefr_1_1softsf_1_1canscan_1_1ui_1_1_i_flat_laf_styled_for_l_good_date_picker.html#a5fdca55f301a7bc8db1f4dbf6caaa635" target="_top" xlink:title="Applies FlatLaf styling to the internal text field.">
<polygon fill="white" stroke="#666666" points="401,-82 196,-82 196,-50 401,-50 401,-82"/>
<text text-anchor="start" x="204" y="-68.5" font-family="Helvetica,sans-Serif" font-size="10.00">fr.softsf.canscan.ui.IFlat</text>
<text text-anchor="middle" x="298.5" y="-56.5" font-family="Helvetica,sans-Serif" font-size="10.00">LafStyledForLGoodDatePicker.applyTheme</text>
</a>
</g>
</g>
<!-- Node1&#45;&gt;Node2 -->
<g id="edge1_Node000001_Node000002" class="edge">
<title>Node1&#45;&gt;Node2</title>
<g id="a_edge1_Node000001_Node000002"><a xlink:title=" ">
<path fill="none" stroke="#63b8ff" d="M160.39,-50.17C168.18,-51.07 176.19,-51.99 184.23,-52.92"/>
<polygon fill="#63b8ff" stroke="#63b8ff" points="183.77,-56.39 194.11,-54.06 184.58,-49.44 183.77,-56.39"/>
</a>
</g>
</g>
<!-- Node4 -->
<g id="Node000004" class="node">
<title>Node4</title>
<g id="a_Node000004"><a xlink:href="classfr_1_1softsf_1_1canscan_1_1ui_1_1_flat_laf_date_picker.html#a6e1bdfa099ae7bb158935c8b50410e56" target="_top" xlink:title="Configures DatePickerSettings with FlatLaf colors and borders.">
<polygon fill="white" stroke="#666666" points="370.62,-32 226.38,-32 226.38,0 370.62,0 370.62,-32"/>
<text text-anchor="start" x="234.38" y="-18.5" font-family="Helvetica,sans-Serif" font-size="10.00">fr.softsf.canscan.ui.Flat</text>
<text text-anchor="middle" x="298.5" y="-6.5" font-family="Helvetica,sans-Serif" font-size="10.00">LafDatePicker.createSettings</text>
</a>
</g>
</g>
<!-- Node1&#45;&gt;Node4 -->
<g id="edge3_Node000001_Node000004" class="edge">
<title>Node1&#45;&gt;Node4</title>
<g id="a_edge3_Node000001_Node000004"><a xlink:title=" ">
<path fill="none" stroke="#63b8ff" d="M160.39,-31.83C178.09,-29.79 196.91,-27.62 214.75,-25.56"/>
<polygon fill="#63b8ff" stroke="#63b8ff" points="214.97,-29.05 224.5,-24.43 214.17,-22.1 214.97,-29.05"/>
</a>
</g>
</g>
<!-- Node3 -->
<g id="Node000003" class="node">
<title>Node3</title>
<g id="a_Node000003"><a xlink:href="interfacefr_1_1softsf_1_1canscan_1_1ui_1_1_i_flat_laf_styled_for_l_good_date_picker.html#aefd53a813e3651ae14f3ef740410bade" target="_top" xlink:title="Returns the internal JTextField of the picker.">
<polygon fill="white" stroke="#666666" points="602.25,-88 437,-88 437,-44 602.25,-44 602.25,-88"/>
<text text-anchor="start" x="445" y="-74.5" font-family="Helvetica,sans-Serif" font-size="10.00">fr.softsf.canscan.ui.IFlat</text>
<text text-anchor="start" x="445" y="-62.5" font-family="Helvetica,sans-Serif" font-size="10.00">LafStyledForLGoodDatePicker.get</text>
<text text-anchor="middle" x="519.62" y="-50.5" font-family="Helvetica,sans-Serif" font-size="10.00">InternalTextField</text>
</a>
</g>
</g>
<!-- Node2&#45;&gt;Node3 -->
<g id="edge2_Node000002_Node000003" class="edge">
<title>Node2&#45;&gt;Node3</title>
<g id="a_edge2_Node000002_Node000003"><a xlink:title=" ">
<path fill="none" stroke="#63b8ff" d="M401.36,-66C409.32,-66 417.34,-66 425.24,-66"/>
<polygon fill="#63b8ff" stroke="#63b8ff" points="425.2,-69.5 435.2,-66 425.2,-62.5 425.2,-69.5"/>
</a>
</g>
</g>
</g>
</svg>
