<?xml version="1.0" encoding="UTF-8" standalone="no"?>
<!DOCTYPE svg PUBLIC "-//W3C//DTD SVG 1.1//EN"
 "http://www.w3.org/Graphics/SVG/1.1/DTD/svg11.dtd">
<!-- Generated by graphviz version 12.2.1 (20241206.2353)
 -->
<!-- Title: fr.softsf.canscan.ui.QrCodeResize.resetAndStartResizeWorker Pages: 1 -->
<svg width="793pt" height="115pt"
 viewBox="0.00 0.00 792.75 115.00" xmlns="http://www.w3.org/2000/svg" xmlns:xlink="http://www.w3.org/1999/xlink">
<g id="graph0" class="graph" transform="scale(1 1) rotate(0) translate(4 111)">
<title>fr.softsf.canscan.ui.QrCodeResize.resetAndStartResizeWorker</title>
<!-- Node1 -->
<g id="Node000001" class="node">
<title>Node1</title>
<g id="a_Node000001"><a xlink:title="Cancels any pending task, clears the current icon, starts the wait animation, and launches a new resi...">
<polygon fill="#999999" stroke="#666666" points="171.25,-82 0,-82 0,-50 171.25,-50 171.25,-82"/>
<text text-anchor="start" x="8" y="-68.5" font-family="Helvetica,sans-Serif" font-size="10.00">fr.softsf.canscan.ui.QrCode</text>
<text text-anchor="middle" x="85.62" y="-56.5" font-family="Helvetica,sans-Serif" font-size="10.00">Resize.resetAndStartResizeWorker</text>
</a>
</g>
</g>
<!-- Node2 -->
<g id="Node000002" class="node">
<title>Node2</title>
<g id="a_Node000002"><a xlink:href="classfr_1_1softsf_1_1canscan_1_1ui_1_1_qr_code_resize.html#a8d6601bb69287724be51e8ffac0fc369" target="_top" xlink:title="Cancels any active resize worker and waits for proper termination.">
<polygon fill="white" stroke="#666666" points="385.25,-107 207.25,-107 207.25,-75 385.25,-75 385.25,-107"/>
<text text-anchor="start" x="215.25" y="-93.5" font-family="Helvetica,sans-Serif" font-size="10.00">fr.softsf.canscan.ui.QrCode</text>
<text text-anchor="middle" x="296.25" y="-81.5" font-family="Helvetica,sans-Serif" font-size="10.00">Resize.cancelPreviousResizeWorker</text>
</a>
</g>
</g>
<!-- Node1&#45;&gt;Node2 -->
<g id="edge1_Node000001_Node000002" class="edge">
<title>Node1&#45;&gt;Node2</title>
<g id="a_edge1_Node000001_Node000002"><a xlink:title=" ">
<path fill="none" stroke="#63b8ff" d="M171.48,-76.17C179.46,-77.12 187.59,-78.1 195.68,-79.07"/>
<polygon fill="#63b8ff" stroke="#63b8ff" points="195.23,-82.54 205.57,-80.25 196.06,-75.59 195.23,-82.54"/>
</a>
</g>
</g>
<!-- Node3 -->
<g id="Node000003" class="node">
<title>Node3</title>
<g id="a_Node000003"><a xlink:href="classfr_1_1softsf_1_1canscan_1_1ui_1_1_qr_code_resize.html#aadf6afa51d8b8667ff70777b0202d4af" target="_top" xlink:title="Launches a background worker that resizes the QR code image to the specified height.">
<polygon fill="white" stroke="#666666" points="366.12,-57 226.38,-57 226.38,-25 366.12,-25 366.12,-57"/>
<text text-anchor="start" x="234.38" y="-43.5" font-family="Helvetica,sans-Serif" font-size="10.00">fr.softsf.canscan.ui.QrCode</text>
<text text-anchor="middle" x="296.25" y="-31.5" font-family="Helvetica,sans-Serif" font-size="10.00">Resize.launchResizeWorker</text>
</a>
</g>
</g>
<!-- Node1&#45;&gt;Node3 -->
<g id="edge2_Node000001_Node000003" class="edge">
<title>Node1&#45;&gt;Node3</title>
<g id="a_edge2_Node000001_Node000003"><a xlink:title=" ">
<path fill="none" stroke="#63b8ff" d="M171.48,-55.83C185.81,-54.11 200.65,-52.34 214.86,-50.63"/>
<polygon fill="#63b8ff" stroke="#63b8ff" points="215.09,-54.13 224.6,-49.47 214.26,-47.18 215.09,-54.13"/>
</a>
</g>
</g>
<!-- Node4 -->
<g id="Node000004" class="node">
<title>Node4</title>
<g id="a_Node000004"><a xlink:href="classfr_1_1softsf_1_1canscan_1_1ui_1_1_qr_code_resize.html#a2141e795770aa1577397e33f990d356c" target="_top" xlink:title="Creates a SwingWorker to perform image resizing off the EDT and update the UI when the task completes...">
<polygon fill="white" stroke="#666666" points="559.5,-57 421.25,-57 421.25,-25 559.5,-25 559.5,-57"/>
<text text-anchor="start" x="429.25" y="-43.5" font-family="Helvetica,sans-Serif" font-size="10.00">fr.softsf.canscan.ui.QrCode</text>
<text text-anchor="middle" x="490.38" y="-31.5" font-family="Helvetica,sans-Serif" font-size="10.00">Resize.createResizeWorker</text>
</a>
</g>
</g>
<!-- Node3&#45;&gt;Node4 -->
<g id="edge3_Node000003_Node000004" class="edge">
<title>Node3&#45;&gt;Node4</title>
<g id="a_edge3_Node000003_Node000004"><a xlink:title=" ">
<path fill="none" stroke="#63b8ff" d="M366.61,-41C380.52,-41 395.24,-41 409.47,-41"/>
<polygon fill="#63b8ff" stroke="#63b8ff" points="409.25,-44.5 419.25,-41 409.25,-37.5 409.25,-44.5"/>
</a>
</g>
</g>
<!-- Node5 -->
<g id="Node000005" class="node">
<title>Node5</title>
<g id="a_Node000005"><a xlink:href="classfr_1_1softsf_1_1canscan_1_1ui_1_1_qr_code_resize.html#affac6f7db21e00ef84b3d804823c6b51" target="_top" xlink:title="Handles resize worker completion, ensuring that cancellation and stale worker checks are performed be...">
<polygon fill="white" stroke="#666666" points="784.75,-82 595.5,-82 595.5,-50 784.75,-50 784.75,-82"/>
<text text-anchor="start" x="603.5" y="-68.5" font-family="Helvetica,sans-Serif" font-size="10.00">fr.softsf.canscan.ui.QrCode</text>
<text text-anchor="middle" x="690.12" y="-56.5" font-family="Helvetica,sans-Serif" font-size="10.00">Resize.handleResizeWorkerCompletion</text>
</a>
</g>
</g>
<!-- Node4&#45;&gt;Node5 -->
<g id="edge4_Node000004_Node000005" class="edge">
<title>Node4&#45;&gt;Node5</title>
<g id="a_edge4_Node000004_Node000005"><a xlink:title=" ">
<path fill="none" stroke="#63b8ff" d="M559.98,-49.67C567.72,-50.65 575.72,-51.66 583.79,-52.68"/>
<polygon fill="#63b8ff" stroke="#63b8ff" points="583.34,-56.15 593.7,-53.94 584.22,-49.21 583.34,-56.15"/>
</a>
</g>
</g>
<!-- Node6 -->
<g id="Node000006" class="node">
<title>Node6</title>
<g id="a_Node000006"><a xlink:href="classfr_1_1softsf_1_1canscan_1_1ui_1_1_qr_code_resize.html#a9d652d45dd8f6c5a1715e7c19f27fad5" target="_top" xlink:title="Performs image resizing logic off the EDT.">
<polygon fill="white" stroke="#666666" points="771.62,-32 608.62,-32 608.62,0 771.62,0 771.62,-32"/>
<text text-anchor="start" x="616.62" y="-18.5" font-family="Helvetica,sans-Serif" font-size="10.00">fr.softsf.canscan.ui.QrCode</text>
<text text-anchor="middle" x="690.12" y="-6.5" font-family="Helvetica,sans-Serif" font-size="10.00">Resize.resizeImageInBackground</text>
</a>
</g>
</g>
<!-- Node4&#45;&gt;Node6 -->
<g id="edge5_Node000004_Node000006" class="edge">
<title>Node4&#45;&gt;Node6</title>
<g id="a_edge5_Node000004_Node000006"><a xlink:title=" ">
<path fill="none" stroke="#63b8ff" d="M559.98,-32.33C571.94,-30.81 584.55,-29.22 597.02,-27.64"/>
<polygon fill="#63b8ff" stroke="#63b8ff" points="597.42,-31.12 606.9,-26.39 596.54,-24.18 597.42,-31.12"/>
</a>
</g>
</g>
</g>
</svg>
