<?xml version="1.0" encoding="UTF-8" standalone="no"?>
<!DOCTYPE svg PUBLIC "-//W3C//DTD SVG 1.1//EN"
 "http://www.w3.org/Graphics/SVG/1.1/DTD/svg11.dtd">
<!-- Generated by graphviz version 12.2.1 (20241206.2353)
 -->
<!-- Title: fr.softsf.canscan.service.AbstractQrCodeWorker&lt; T &gt; Pages: 1 -->
<!--zoomable 780 -->

<svg id="main" version="1.1" xmlns="http://www.w3.org/2000/svg" xmlns:xlink="http://www.w3.org/1999/xlink" xml:space="preserve" onload="init(evt)">

<style type="text/css"><![CDATA[
.node, .edge {opacity: 0.7;}
.node.selected, .edge.selected {opacity: 1;}
.edge:hover path { stroke: red; }
.edge:hover polygon { stroke: red; fill: red; }
]]></style>

<defs>
  <circle id="rim" cx="0" cy="0" r="7"/>
  <circle id="rim2" cx="0" cy="0" r="3.5"/>
  <g id="zoomPlus">
    <use xlink:href="#rim" fill="#404040"><set attributeName="fill" to="#808080" begin="zoomplus.mouseover" end="zoomplus.mouseout"/></use>
    <path d="M-4,0h8M0,-4v8" fill="none" stroke="white" stroke-width="1.5" pointer-events="none"/>
  </g>
  <g id="zoomMin">
    <use xlink:href="#rim" fill="#404040"><set attributeName="fill" to="#808080" begin="zoomminus.mouseover" end="zoomminus.mouseout"/></use>
    <path d="M-4,0h8" fill="none" stroke="white" stroke-width="1.5" pointer-events="none"/>
  </g>
  <g id="arrowUp" transform="translate(30 24)">
    <use xlink:href="#rim"/>
    <path pointer-events="none" fill="none" stroke="white" stroke-width="1.5" d="M0,-3.0v7 M-2.5,-0.5L0,-3.0L2.5,-0.5"/>
  </g>
  <g id="arrowRight" transform="rotate(90) translate(36 -43)">
    <use xlink:href="#rim"/>
    <path pointer-events="none" fill="none" stroke="white" stroke-width="1.5" d="M0,-3.0v7 M-2.5,-0.5L0,-3.0L2.5,-0.5"/>
  </g>
  <g id="arrowDown" transform="rotate(180) translate(-30 -48)">
    <use xlink:href="#rim"/>
    <path pointer-events="none" fill="none" stroke="white" stroke-width="1.5" d="M0,-3.0v7 M-2.5,-0.5L0,-3.0L2.5,-0.5"/>
  </g>
  <g id="arrowLeft" transform="rotate(270) translate(-36 17)">
    <use xlink:href="#rim"/>
    <path pointer-events="none" fill="none" stroke="white" stroke-width="1.5" d="M0,-3.0v7 M-2.5,-0.5L0,-3.0L2.5,-0.5"/>
  </g>
  <g id="resetDef">
    <use xlink:href="#rim2" fill="#404040"><set attributeName="fill" to="#808080" begin="reset.mouseover" end="reset.mouseout"/></use>
  </g>
</defs>
<script type="application/ecmascript">
var viewWidth = 742;
var viewHeight = 780;
var sectionId = 'dynsection-0';
</script>
<script type="application/ecmascript" xlink:href="svg.min.js"/>
<svg id="graph" class="graph">
<g id="viewport">
<title>fr.softsf.canscan.service.AbstractQrCodeWorker&lt; T &gt;</title>
<!-- Node1 -->
<g id="Node000001" class="node">
<title>Node1</title>
<g id="a_Node000001"><a xlink:title="Base class managing asynchronous QR code tasks with a unified workflow.">
<polygon fill="#999999" stroke="none" points="450.75,-772 294,-772 294,-416 450.75,-416 450.75,-772"/>
<text text-anchor="start" x="310.12" y="-758.5" font-family="Helvetica,sans-Serif" font-size="10.00">fr.softsf.canscan.service.</text>
<text text-anchor="start" x="310.12" y="-746.5" font-family="Helvetica,sans-Serif" font-size="10.00">AbstractQrCodeWorker&lt; T &gt;</text>
<text text-anchor="start" x="298.38" y="-730.5" font-family="Helvetica,sans-Serif" font-size="10.00">#</text>
<text text-anchor="start" x="308" y="-730.5" font-family="Helvetica,sans-Serif" font-size="10.00">Timer debounceTimer</text>
<text text-anchor="start" x="298.38" y="-714.5" font-family="Helvetica,sans-Serif" font-size="10.00">#</text>
<text text-anchor="start" x="308" y="-714.5" font-family="Helvetica,sans-Serif" font-size="10.00">final Loader loader</text>
<text text-anchor="start" x="298.38" y="-698.5" font-family="Helvetica,sans-Serif" font-size="10.00">#</text>
<text text-anchor="start" x="308" y="-698.5" font-family="Helvetica,sans-Serif" font-size="10.00">QrInput qrInput</text>
<text text-anchor="start" x="298.38" y="-682.5" font-family="Helvetica,sans-Serif" font-size="10.00">#</text>
<text text-anchor="start" x="308" y="-682.5" font-family="Helvetica,sans-Serif" font-size="10.00">SwingWorker&lt; T, Void</text>
<text text-anchor="start" x="308" y="-670.5" font-family="Helvetica,sans-Serif" font-size="10.00"> &gt; worker</text>
<text text-anchor="start" x="298" y="-654.5" font-family="Helvetica,sans-Serif" font-size="10.00">+</text>
<text text-anchor="start" x="308" y="-654.5" font-family="Helvetica,sans-Serif" font-size="10.00">void disposeAllResources</text>
<text text-anchor="start" x="308" y="-642.5" font-family="Helvetica,sans-Serif" font-size="10.00">OnExit()</text>
<text text-anchor="start" x="298.38" y="-626.5" font-family="Helvetica,sans-Serif" font-size="10.00">#</text>
<text text-anchor="start" x="308" y="-626.5" font-family="Helvetica,sans-Serif" font-size="10.00">AbstractQrCodeWorker</text>
<text text-anchor="start" x="308" y="-614.5" font-family="Helvetica,sans-Serif" font-size="10.00">(Loader loader)</text>
<text text-anchor="start" x="298.38" y="-598.5" font-family="Helvetica,sans-Serif" font-size="10.00">#</text>
<text text-anchor="start" x="308" y="-598.5" font-family="Helvetica,sans-Serif" font-size="10.00">void cancelWorker()</text>
<text text-anchor="start" x="298.38" y="-582.5" font-family="Helvetica,sans-Serif" font-size="10.00">#</text>
<text text-anchor="start" x="308" y="-582.5" font-family="Helvetica,sans-Serif" font-size="10.00">abstract void clearResources()</text>
<text text-anchor="start" x="298.38" y="-566.5" font-family="Helvetica,sans-Serif" font-size="10.00">#</text>
<text text-anchor="start" x="308" y="-566.5" font-family="Helvetica,sans-Serif" font-size="10.00">abstract SwingWorker</text>
<text text-anchor="start" x="308" y="-554.5" font-family="Helvetica,sans-Serif" font-size="10.00">&lt; T, Void &gt; createWorker()</text>
<text text-anchor="start" x="298.38" y="-538.5" font-family="Helvetica,sans-Serif" font-size="10.00">#</text>
<text text-anchor="start" x="308" y="-538.5" font-family="Helvetica,sans-Serif" font-size="10.00">void onWorkerFailure</text>
<text text-anchor="start" x="308" y="-526.5" font-family="Helvetica,sans-Serif" font-size="10.00">(Exception ex)</text>
<text text-anchor="start" x="298.38" y="-510.5" font-family="Helvetica,sans-Serif" font-size="10.00">#</text>
<text text-anchor="start" x="308" y="-510.5" font-family="Helvetica,sans-Serif" font-size="10.00">abstract void onWorkerSuccess</text>
<text text-anchor="start" x="308" y="-498.5" font-family="Helvetica,sans-Serif" font-size="10.00">(T result)</text>
<text text-anchor="start" x="298.38" y="-482.5" font-family="Helvetica,sans-Serif" font-size="10.00">#</text>
<text text-anchor="start" x="308" y="-482.5" font-family="Helvetica,sans-Serif" font-size="10.00">void resetAndStartWorker</text>
<text text-anchor="start" x="308" y="-470.5" font-family="Helvetica,sans-Serif" font-size="10.00">(int delayMs)</text>
<text text-anchor="start" x="298.38" y="-454.5" font-family="Helvetica,sans-Serif" font-size="10.00">#</text>
<text text-anchor="start" x="308" y="-454.5" font-family="Helvetica,sans-Serif" font-size="10.00">void stopDebounceTimer()</text>
<text text-anchor="start" x="298.38" y="-438.5" font-family="Helvetica,sans-Serif" font-size="10.00">#</text>
<text text-anchor="start" x="308" y="-438.5" font-family="Helvetica,sans-Serif" font-size="10.00">void stopLoaderIfPresent()</text>
<text text-anchor="start" x="299.5" y="-422.5" font-family="Helvetica,sans-Serif" font-size="10.00">&#45;</text>
<text text-anchor="start" x="308" y="-422.5" font-family="Helvetica,sans-Serif" font-size="10.00">void resetWorker()</text>
<polygon fill="#666666" stroke="#666666" points="294,-742 294,-742 450.75,-742 450.75,-742 294,-742"/>
<polygon fill="#666666" stroke="#666666" points="294,-666 294,-666 306,-666 306,-666 294,-666"/>
<polygon fill="#666666" stroke="#666666" points="306,-666 306,-666 450.75,-666 450.75,-666 306,-666"/>
<polygon fill="none" stroke="#666666" points="294,-416 294,-772 450.75,-772 450.75,-416 294,-416"/>
</a>
</g>
</g>
<!-- Node2 -->
<g id="Node000002" class="node">
<title>Node2</title>
<g id="a_Node000002"><a xlink:href="classfr_1_1softsf_1_1canscan_1_1ui_1_1_qr_code_preview.html" target="_top" xlink:title="Asynchronously generates and displays a QR code preview in a Swing UI.">
<polygon fill="white" stroke="none" points="174.75,-340 0,-340 0,-28 174.75,-28 174.75,-340"/>
<text text-anchor="start" x="27" y="-326.5" font-family="Helvetica,sans-Serif" font-size="10.00">fr.softsf.canscan.ui.QrCode</text>
<text text-anchor="start" x="29.25" y="-314.5" font-family="Helvetica,sans-Serif" font-size="10.00">Preview&lt; BufferedImage &gt;</text>
<text text-anchor="start" x="5.5" y="-298.5" font-family="Helvetica,sans-Serif" font-size="10.00">&#45;</text>
<text text-anchor="start" x="14" y="-298.5" font-family="Helvetica,sans-Serif" font-size="10.00">final QrCodeBufferedImage</text>
<text text-anchor="start" x="14" y="-286.5" font-family="Helvetica,sans-Serif" font-size="10.00"> qrCodeBufferedImage</text>
<text text-anchor="start" x="5.5" y="-270.5" font-family="Helvetica,sans-Serif" font-size="10.00">&#45;</text>
<text text-anchor="start" x="14" y="-270.5" font-family="Helvetica,sans-Serif" font-size="10.00">final JLabel qrCodeLabel</text>
<text text-anchor="start" x="5.5" y="-254.5" font-family="Helvetica,sans-Serif" font-size="10.00">&#45;</text>
<text text-anchor="start" x="14" y="-254.5" font-family="Helvetica,sans-Serif" font-size="10.00">final QrCodeResize</text>
<text text-anchor="start" x="14" y="-242.5" font-family="Helvetica,sans-Serif" font-size="10.00"> qrCodeResize</text>
<text text-anchor="start" x="5.5" y="-226.5" font-family="Helvetica,sans-Serif" font-size="10.00">&#45;</text>
<text text-anchor="start" x="14" y="-226.5" font-family="Helvetica,sans-Serif" font-size="10.00">static final int PREVIEW</text>
<text text-anchor="start" x="14" y="-214.5" font-family="Helvetica,sans-Serif" font-size="10.00">_DEBOUNCE_DELAY_MS</text>
<text text-anchor="start" x="4" y="-198.5" font-family="Helvetica,sans-Serif" font-size="10.00">+</text>
<text text-anchor="start" x="14" y="-198.5" font-family="Helvetica,sans-Serif" font-size="10.00">QrCodePreview(QrCodeBuffered</text>
<text text-anchor="start" x="14" y="-186.5" font-family="Helvetica,sans-Serif" font-size="10.00">Image qrCodeBufferedImage,</text>
<text text-anchor="start" x="14" y="-174.5" font-family="Helvetica,sans-Serif" font-size="10.00"> QrCodeResize qrCodeResize,</text>
<text text-anchor="start" x="14" y="-162.5" font-family="Helvetica,sans-Serif" font-size="10.00"> JLabel qrCodeLabel, Loader loader)</text>
<text text-anchor="start" x="4" y="-146.5" font-family="Helvetica,sans-Serif" font-size="10.00">+</text>
<text text-anchor="start" x="14" y="-146.5" font-family="Helvetica,sans-Serif" font-size="10.00">void updateQrCodePreview</text>
<text text-anchor="start" x="14" y="-134.5" font-family="Helvetica,sans-Serif" font-size="10.00">(QrInput qrInput)</text>
<text text-anchor="start" x="4.38" y="-118.5" font-family="Helvetica,sans-Serif" font-size="10.00">#</text>
<text text-anchor="start" x="14" y="-118.5" font-family="Helvetica,sans-Serif" font-size="10.00">void clearResources()</text>
<text text-anchor="start" x="4.38" y="-102.5" font-family="Helvetica,sans-Serif" font-size="10.00">#</text>
<text text-anchor="start" x="14" y="-102.5" font-family="Helvetica,sans-Serif" font-size="10.00">SwingWorker&lt; BufferedImage,</text>
<text text-anchor="start" x="14" y="-90.5" font-family="Helvetica,sans-Serif" font-size="10.00"> Void &gt; createWorker()</text>
<text text-anchor="start" x="4.38" y="-74.5" font-family="Helvetica,sans-Serif" font-size="10.00">#</text>
<text text-anchor="start" x="14" y="-74.5" font-family="Helvetica,sans-Serif" font-size="10.00">void onWorkerSuccess</text>
<text text-anchor="start" x="14" y="-62.5" font-family="Helvetica,sans-Serif" font-size="10.00">(BufferedImage img)</text>
<text text-anchor="start" x="5.5" y="-46.5" font-family="Helvetica,sans-Serif" font-size="10.00">&#45;</text>
<text text-anchor="start" x="14" y="-46.5" font-family="Helvetica,sans-Serif" font-size="10.00">BufferedImage buildPreview</text>
<text text-anchor="start" x="14" y="-34.5" font-family="Helvetica,sans-Serif" font-size="10.00">Image()</text>
<polygon fill="#666666" stroke="#666666" points="0,-310 0,-310 174.75,-310 174.75,-310 0,-310"/>
<polygon fill="#666666" stroke="#666666" points="0,-210 0,-210 12,-210 12,-210 0,-210"/>
<polygon fill="#666666" stroke="#666666" points="12,-210 12,-210 174.75,-210 174.75,-210 12,-210"/>
<polygon fill="none" stroke="#666666" points="0,-28 0,-340 174.75,-340 174.75,-28 0,-28"/>
</a>
</g>
</g>
<!-- Node1&#45;&gt;Node2 -->
<g id="edge1_Node000001_Node000002" class="edge">
<title>Node1&#45;&gt;Node2</title>
<g id="a_edge1_Node000001_Node000002"><a xlink:title=" ">
<path fill="none" stroke="#63b8ff" d="M286.89,-499.66C253.01,-460.45 214.93,-413.46 184.38,-368 178.26,-358.9 172.22,-349.37 166.33,-339.64"/>
<polygon fill="none" stroke="#63b8ff" points="283.86,-501.51 293.06,-506.76 289.14,-496.92 283.86,-501.51"/>
</a>
</g>
</g>
<!-- Node3 -->
<g id="Node000003" class="node">
<title>Node3</title>
<g id="a_Node000003"><a xlink:href="classfr_1_1softsf_1_1canscan_1_1ui_1_1_qr_code_resize.html" target="_top" xlink:title="Asynchronously resizes a generated QR code image for display in a Swing UI.">
<polygon fill="white" stroke="none" points="367.75,-314 193,-314 193,-54 367.75,-54 367.75,-314"/>
<text text-anchor="start" x="220" y="-300.5" font-family="Helvetica,sans-Serif" font-size="10.00">fr.softsf.canscan.ui.QrCode</text>
<text text-anchor="start" x="233.12" y="-288.5" font-family="Helvetica,sans-Serif" font-size="10.00">Resize&lt; ImageIcon &gt;</text>
<text text-anchor="start" x="198.5" y="-272.5" font-family="Helvetica,sans-Serif" font-size="10.00">&#45;</text>
<text text-anchor="start" x="207" y="-272.5" font-family="Helvetica,sans-Serif" font-size="10.00">final QrCodeBufferedImage</text>
<text text-anchor="start" x="207" y="-260.5" font-family="Helvetica,sans-Serif" font-size="10.00"> qrCodeBufferedImage</text>
<text text-anchor="start" x="198.5" y="-244.5" font-family="Helvetica,sans-Serif" font-size="10.00">&#45;</text>
<text text-anchor="start" x="207" y="-244.5" font-family="Helvetica,sans-Serif" font-size="10.00">final JLabel qrCodeLabel</text>
<text text-anchor="start" x="198.5" y="-228.5" font-family="Helvetica,sans-Serif" font-size="10.00">&#45;</text>
<text text-anchor="start" x="207" y="-228.5" font-family="Helvetica,sans-Serif" font-size="10.00">static final int DEFAULT_SIZE</text>
<text text-anchor="start" x="198.5" y="-212.5" font-family="Helvetica,sans-Serif" font-size="10.00">&#45;</text>
<text text-anchor="start" x="207" y="-212.5" font-family="Helvetica,sans-Serif" font-size="10.00">static final int RESIZE</text>
<text text-anchor="start" x="207" y="-200.5" font-family="Helvetica,sans-Serif" font-size="10.00">_DEBOUNCE_DELAY_MS</text>
<text text-anchor="start" x="197" y="-184.5" font-family="Helvetica,sans-Serif" font-size="10.00">+</text>
<text text-anchor="start" x="207" y="-184.5" font-family="Helvetica,sans-Serif" font-size="10.00">QrCodeResize(QrCodeBuffered</text>
<text text-anchor="start" x="207" y="-172.5" font-family="Helvetica,sans-Serif" font-size="10.00">Image qrCodeBufferedImage,</text>
<text text-anchor="start" x="207" y="-160.5" font-family="Helvetica,sans-Serif" font-size="10.00"> JLabel qrCodeLabel, Loader loader)</text>
<text text-anchor="start" x="197" y="-144.5" font-family="Helvetica,sans-Serif" font-size="10.00">+</text>
<text text-anchor="start" x="207" y="-144.5" font-family="Helvetica,sans-Serif" font-size="10.00">void updateQrCodeResize</text>
<text text-anchor="start" x="207" y="-132.5" font-family="Helvetica,sans-Serif" font-size="10.00">(QrInput qrInput)</text>
<text text-anchor="start" x="197.38" y="-116.5" font-family="Helvetica,sans-Serif" font-size="10.00">#</text>
<text text-anchor="start" x="207" y="-116.5" font-family="Helvetica,sans-Serif" font-size="10.00">void clearResources()</text>
<text text-anchor="start" x="197.38" y="-100.5" font-family="Helvetica,sans-Serif" font-size="10.00">#</text>
<text text-anchor="start" x="207" y="-100.5" font-family="Helvetica,sans-Serif" font-size="10.00">SwingWorker&lt; ImageIcon,</text>
<text text-anchor="start" x="207" y="-88.5" font-family="Helvetica,sans-Serif" font-size="10.00"> Void &gt; createWorker()</text>
<text text-anchor="start" x="197.38" y="-72.5" font-family="Helvetica,sans-Serif" font-size="10.00">#</text>
<text text-anchor="start" x="207" y="-72.5" font-family="Helvetica,sans-Serif" font-size="10.00">void onWorkerSuccess</text>
<text text-anchor="start" x="207" y="-60.5" font-family="Helvetica,sans-Serif" font-size="10.00">(ImageIcon result)</text>
<polygon fill="#666666" stroke="#666666" points="193,-284 193,-284 367.75,-284 367.75,-284 193,-284"/>
<polygon fill="#666666" stroke="#666666" points="193,-196 193,-196 205,-196 205,-196 193,-196"/>
<polygon fill="#666666" stroke="#666666" points="205,-196 205,-196 367.75,-196 367.75,-196 205,-196"/>
<polygon fill="none" stroke="#666666" points="193,-54 193,-314 367.75,-314 367.75,-54 193,-54"/>
</a>
</g>
</g>
<!-- Node1&#45;&gt;Node3 -->
<g id="edge2_Node000001_Node000003" class="edge">
<title>Node1&#45;&gt;Node3</title>
<g id="a_edge2_Node000001_Node000003"><a xlink:title=" ">
<path fill="none" stroke="#63b8ff" d="M330.03,-405.23C323.08,-374.37 316,-343.01 309.46,-314"/>
<polygon fill="none" stroke="#63b8ff" points="326.54,-405.66 332.16,-414.65 333.37,-404.12 326.54,-405.66"/>
</a>
</g>
</g>
<!-- Node4 -->
<g id="Node000004" class="node">
<title>Node4</title>
<g id="a_Node000004"><a xlink:href="classfr_1_1softsf_1_1canscan_1_1service_1_1_abstract_qr_code_worker.html" target="_top" xlink:title=" ">
<polygon fill="white" stroke="none" points="542.75,-368 386,-368 386,0 542.75,0 542.75,-368"/>
<text text-anchor="start" x="391.25" y="-354.5" font-family="Helvetica,sans-Serif" font-size="10.00">fr.softsf.canscan.service.</text>
<text text-anchor="start" x="391.25" y="-342.5" font-family="Helvetica,sans-Serif" font-size="10.00">AbstractQrCodeWorker&lt; Buffered</text>
<text text-anchor="start" x="446.38" y="-330.5" font-family="Helvetica,sans-Serif" font-size="10.00">Image &gt;</text>
<text text-anchor="start" x="390.38" y="-314.5" font-family="Helvetica,sans-Serif" font-size="10.00">#</text>
<text text-anchor="start" x="400" y="-314.5" font-family="Helvetica,sans-Serif" font-size="10.00">Timer debounceTimer</text>
<text text-anchor="start" x="390.38" y="-298.5" font-family="Helvetica,sans-Serif" font-size="10.00">#</text>
<text text-anchor="start" x="400" y="-298.5" font-family="Helvetica,sans-Serif" font-size="10.00">final Loader loader</text>
<text text-anchor="start" x="390.38" y="-282.5" font-family="Helvetica,sans-Serif" font-size="10.00">#</text>
<text text-anchor="start" x="400" y="-282.5" font-family="Helvetica,sans-Serif" font-size="10.00">QrInput qrInput</text>
<text text-anchor="start" x="390.38" y="-266.5" font-family="Helvetica,sans-Serif" font-size="10.00">#</text>
<text text-anchor="start" x="400" y="-266.5" font-family="Helvetica,sans-Serif" font-size="10.00">SwingWorker&lt; T, Void</text>
<text text-anchor="start" x="400" y="-254.5" font-family="Helvetica,sans-Serif" font-size="10.00"> &gt; worker</text>
<text text-anchor="start" x="390" y="-238.5" font-family="Helvetica,sans-Serif" font-size="10.00">+</text>
<text text-anchor="start" x="400" y="-238.5" font-family="Helvetica,sans-Serif" font-size="10.00">void disposeAllResources</text>
<text text-anchor="start" x="400" y="-226.5" font-family="Helvetica,sans-Serif" font-size="10.00">OnExit()</text>
<text text-anchor="start" x="390.38" y="-210.5" font-family="Helvetica,sans-Serif" font-size="10.00">#</text>
<text text-anchor="start" x="400" y="-210.5" font-family="Helvetica,sans-Serif" font-size="10.00">AbstractQrCodeWorker</text>
<text text-anchor="start" x="400" y="-198.5" font-family="Helvetica,sans-Serif" font-size="10.00">(Loader loader)</text>
<text text-anchor="start" x="390.38" y="-182.5" font-family="Helvetica,sans-Serif" font-size="10.00">#</text>
<text text-anchor="start" x="400" y="-182.5" font-family="Helvetica,sans-Serif" font-size="10.00">void cancelWorker()</text>
<text text-anchor="start" x="390.38" y="-166.5" font-family="Helvetica,sans-Serif" font-size="10.00">#</text>
<text text-anchor="start" x="400" y="-166.5" font-family="Helvetica,sans-Serif" font-size="10.00">abstract void clearResources()</text>
<text text-anchor="start" x="390.38" y="-150.5" font-family="Helvetica,sans-Serif" font-size="10.00">#</text>
<text text-anchor="start" x="400" y="-150.5" font-family="Helvetica,sans-Serif" font-size="10.00">abstract SwingWorker</text>
<text text-anchor="start" x="400" y="-138.5" font-family="Helvetica,sans-Serif" font-size="10.00">&lt; T, Void &gt; createWorker()</text>
<text text-anchor="start" x="390.38" y="-122.5" font-family="Helvetica,sans-Serif" font-size="10.00">#</text>
<text text-anchor="start" x="400" y="-122.5" font-family="Helvetica,sans-Serif" font-size="10.00">void onWorkerFailure</text>
<text text-anchor="start" x="400" y="-110.5" font-family="Helvetica,sans-Serif" font-size="10.00">(Exception ex)</text>
<text text-anchor="start" x="390.38" y="-94.5" font-family="Helvetica,sans-Serif" font-size="10.00">#</text>
<text text-anchor="start" x="400" y="-94.5" font-family="Helvetica,sans-Serif" font-size="10.00">abstract void onWorkerSuccess</text>
<text text-anchor="start" x="400" y="-82.5" font-family="Helvetica,sans-Serif" font-size="10.00">(T result)</text>
<text text-anchor="start" x="390.38" y="-66.5" font-family="Helvetica,sans-Serif" font-size="10.00">#</text>
<text text-anchor="start" x="400" y="-66.5" font-family="Helvetica,sans-Serif" font-size="10.00">void resetAndStartWorker</text>
<text text-anchor="start" x="400" y="-54.5" font-family="Helvetica,sans-Serif" font-size="10.00">(int delayMs)</text>
<text text-anchor="start" x="390.38" y="-38.5" font-family="Helvetica,sans-Serif" font-size="10.00">#</text>
<text text-anchor="start" x="400" y="-38.5" font-family="Helvetica,sans-Serif" font-size="10.00">void stopDebounceTimer()</text>
<text text-anchor="start" x="390.38" y="-22.5" font-family="Helvetica,sans-Serif" font-size="10.00">#</text>
<text text-anchor="start" x="400" y="-22.5" font-family="Helvetica,sans-Serif" font-size="10.00">void stopLoaderIfPresent()</text>
<text text-anchor="start" x="391.5" y="-6.5" font-family="Helvetica,sans-Serif" font-size="10.00">&#45;</text>
<text text-anchor="start" x="400" y="-6.5" font-family="Helvetica,sans-Serif" font-size="10.00">void resetWorker()</text>
<polygon fill="#666666" stroke="#666666" points="386,-326 386,-326 542.75,-326 542.75,-326 386,-326"/>
<polygon fill="#666666" stroke="#666666" points="386,-250 386,-250 398,-250 398,-250 386,-250"/>
<polygon fill="#666666" stroke="#666666" points="398,-250 398,-250 542.75,-250 542.75,-250 398,-250"/>
<polygon fill="none" stroke="#666666" points="386,0 386,-368 542.75,-368 542.75,0 386,0"/>
</a>
</g>
</g>
<!-- Node1&#45;&gt;Node4 -->
<g id="edge3_Node000001_Node000004" class="edge">
<title>Node1&#45;&gt;Node4</title>
<g id="a_edge3_Node000001_Node000004"><a xlink:title=" ">
<path fill="none" stroke="orange" d="M414.72,-405.19C417.53,-392.73 420.36,-380.18 423.17,-367.75"/>
<polygon fill="orange" stroke="orange" points="411.38,-404.12 412.59,-414.65 418.21,-405.66 411.38,-404.12"/>
</a>
</g>
<text text-anchor="middle" x="460.38" y="-388.5" font-family="Helvetica,sans-Serif" font-size="10.00" fill="grey"> &lt; BufferedImage &gt;</text>
</g>
<!-- Node5 -->
<g id="Node000005" class="node">
<title>Node5</title>
<g id="a_Node000005"><a xlink:href="classfr_1_1softsf_1_1canscan_1_1service_1_1_abstract_qr_code_worker.html" target="_top" xlink:title=" ">
<polygon fill="white" stroke="none" points="733.88,-362 560.88,-362 560.88,-6 733.88,-6 733.88,-362"/>
<text text-anchor="start" x="564.88" y="-348.5" font-family="Helvetica,sans-Serif" font-size="10.00">fr.softsf.canscan.service.</text>
<text text-anchor="start" x="564.88" y="-336.5" font-family="Helvetica,sans-Serif" font-size="10.00">AbstractQrCodeWorker&lt; ImageIcon &gt;</text>
<text text-anchor="start" x="569.31" y="-320.5" font-family="Helvetica,sans-Serif" font-size="10.00">#</text>
<text text-anchor="start" x="583" y="-320.5" font-family="Helvetica,sans-Serif" font-size="10.00">Timer debounceTimer</text>
<text text-anchor="start" x="569.31" y="-304.5" font-family="Helvetica,sans-Serif" font-size="10.00">#</text>
<text text-anchor="start" x="583" y="-304.5" font-family="Helvetica,sans-Serif" font-size="10.00">final Loader loader</text>
<text text-anchor="start" x="569.31" y="-288.5" font-family="Helvetica,sans-Serif" font-size="10.00">#</text>
<text text-anchor="start" x="583" y="-288.5" font-family="Helvetica,sans-Serif" font-size="10.00">QrInput qrInput</text>
<text text-anchor="start" x="569.31" y="-272.5" font-family="Helvetica,sans-Serif" font-size="10.00">#</text>
<text text-anchor="start" x="583" y="-272.5" font-family="Helvetica,sans-Serif" font-size="10.00">SwingWorker&lt; T, Void</text>
<text text-anchor="start" x="583" y="-260.5" font-family="Helvetica,sans-Serif" font-size="10.00"> &gt; worker</text>
<text text-anchor="start" x="568.94" y="-244.5" font-family="Helvetica,sans-Serif" font-size="10.00">+</text>
<text text-anchor="start" x="583" y="-244.5" font-family="Helvetica,sans-Serif" font-size="10.00">void disposeAllResources</text>
<text text-anchor="start" x="583" y="-232.5" font-family="Helvetica,sans-Serif" font-size="10.00">OnExit()</text>
<text text-anchor="start" x="569.31" y="-216.5" font-family="Helvetica,sans-Serif" font-size="10.00">#</text>
<text text-anchor="start" x="583" y="-216.5" font-family="Helvetica,sans-Serif" font-size="10.00">AbstractQrCodeWorker</text>
<text text-anchor="start" x="583" y="-204.5" font-family="Helvetica,sans-Serif" font-size="10.00">(Loader loader)</text>
<text text-anchor="start" x="569.31" y="-188.5" font-family="Helvetica,sans-Serif" font-size="10.00">#</text>
<text text-anchor="start" x="583" y="-188.5" font-family="Helvetica,sans-Serif" font-size="10.00">void cancelWorker()</text>
<text text-anchor="start" x="569.31" y="-172.5" font-family="Helvetica,sans-Serif" font-size="10.00">#</text>
<text text-anchor="start" x="583" y="-172.5" font-family="Helvetica,sans-Serif" font-size="10.00">abstract void clearResources()</text>
<text text-anchor="start" x="569.31" y="-156.5" font-family="Helvetica,sans-Serif" font-size="10.00">#</text>
<text text-anchor="start" x="583" y="-156.5" font-family="Helvetica,sans-Serif" font-size="10.00">abstract SwingWorker</text>
<text text-anchor="start" x="583" y="-144.5" font-family="Helvetica,sans-Serif" font-size="10.00">&lt; T, Void &gt; createWorker()</text>
<text text-anchor="start" x="569.31" y="-128.5" font-family="Helvetica,sans-Serif" font-size="10.00">#</text>
<text text-anchor="start" x="583" y="-128.5" font-family="Helvetica,sans-Serif" font-size="10.00">void onWorkerFailure</text>
<text text-anchor="start" x="583" y="-116.5" font-family="Helvetica,sans-Serif" font-size="10.00">(Exception ex)</text>
<text text-anchor="start" x="569.31" y="-100.5" font-family="Helvetica,sans-Serif" font-size="10.00">#</text>
<text text-anchor="start" x="583" y="-100.5" font-family="Helvetica,sans-Serif" font-size="10.00">abstract void onWorkerSuccess</text>
<text text-anchor="start" x="583" y="-88.5" font-family="Helvetica,sans-Serif" font-size="10.00">(T result)</text>
<text text-anchor="start" x="569.31" y="-72.5" font-family="Helvetica,sans-Serif" font-size="10.00">#</text>
<text text-anchor="start" x="583" y="-72.5" font-family="Helvetica,sans-Serif" font-size="10.00">void resetAndStartWorker</text>
<text text-anchor="start" x="583" y="-60.5" font-family="Helvetica,sans-Serif" font-size="10.00">(int delayMs)</text>
<text text-anchor="start" x="569.31" y="-44.5" font-family="Helvetica,sans-Serif" font-size="10.00">#</text>
<text text-anchor="start" x="583" y="-44.5" font-family="Helvetica,sans-Serif" font-size="10.00">void stopDebounceTimer()</text>
<text text-anchor="start" x="569.31" y="-28.5" font-family="Helvetica,sans-Serif" font-size="10.00">#</text>
<text text-anchor="start" x="583" y="-28.5" font-family="Helvetica,sans-Serif" font-size="10.00">void stopLoaderIfPresent()</text>
<text text-anchor="start" x="570.44" y="-12.5" font-family="Helvetica,sans-Serif" font-size="10.00">&#45;</text>
<text text-anchor="start" x="583" y="-12.5" font-family="Helvetica,sans-Serif" font-size="10.00">void resetWorker()</text>
<polygon fill="#666666" stroke="#666666" points="560.88,-332 560.88,-332 733.88,-332 733.88,-332 560.88,-332"/>
<polygon fill="#666666" stroke="#666666" points="560.88,-256 560.88,-256 581,-256 581,-256 560.88,-256"/>
<polygon fill="#666666" stroke="#666666" points="581,-256 581,-256 733.88,-256 733.88,-256 581,-256"/>
<polygon fill="none" stroke="#666666" points="560.88,-6 560.88,-362 733.88,-362 733.88,-6 560.88,-6"/>
</a>
</g>
</g>
<!-- Node1&#45;&gt;Node5 -->
<g id="edge4_Node000001_Node000005" class="edge">
<title>Node1&#45;&gt;Node5</title>
<g id="a_edge4_Node000001_Node000005"><a xlink:title=" ">
<path fill="none" stroke="orange" d="M457.72,-494.08C488.87,-455.88 523.31,-411.06 551.38,-368 554.61,-363.04 557.82,-357.96 561.01,-352.8"/>
<polygon fill="orange" stroke="orange" points="455.3,-491.5 451.67,-501.45 460.71,-495.94 455.3,-491.5"/>
</a>
</g>
<text text-anchor="middle" x="571.8" y="-388.5" font-family="Helvetica,sans-Serif" font-size="10.00" fill="grey"> &lt; ImageIcon &gt;</text>
</g>
</g>
</svg>

<g id="navigator" transform="translate(0 0)" fill="#404254">
  <rect fill="#f2f5e9" fill-opacity="0.5" stroke="#606060" stroke-width=".5" x="0" y="0" width="60" height="60"/>
  <use id="zoomplus" xlink:href="#zoomPlus" x="17" y="9" onmousedown="handleZoom(evt,'in')"/>
  <use id="zoomminus" xlink:href="#zoomMin" x="42" y="9" onmousedown="handleZoom(evt,'out')"/>
  <use id="reset" xlink:href="#resetDef" x="30" y="36" onmousedown="handleReset()"/>
   <use id="arrowup" xlink:href="#arrowUp" x="0" y="0" onmousedown="handlePan(0,-1)"/>
  <use id="arrowright" xlink:href="#arrowRight" x="0" y="0" onmousedown="handlePan(1,0)"/>
  <use id="arrowdown" xlink:href="#arrowDown" x="0" y="0" onmousedown="handlePan(0,1)"/>
  <use id="arrowleft" xlink:href="#arrowLeft" x="0" y="0" onmousedown="handlePan(-1,0)"/>
</g>
<svg viewBox="0 0 15 15" width="100%" height="30px" preserveAspectRatio="xMaxYMin meet">
 <g id="arrow_out" transform="scale(0.3 0.3)">
  <a xlink:href="classfr_1_1softsf_1_1canscan_1_1service_1_1_abstract_qr_code_worker__inherit__graph_org.svg" target="_base">
   <rect id="button" ry="5" rx="5" y="6" x="6" height="38" width="38"
        fill="#f2f5e9" fill-opacity="0.5" stroke="#606060" stroke-width="1.0"/>
   <path id="arrow"
     d="M 11.500037,31.436501 C 11.940474,20.09759 22.043105,11.32322 32.158766,21.979434 L 37.068811,17.246167 C 37.068811,17.246167 37.088388,32 37.088388,32 L 22.160133,31.978069 C 22.160133,31.978069 26.997745,27.140456 26.997745,27.140456 C 18.528582,18.264221 13.291696,25.230495 11.500037,31.436501 z"
     style="fill:#404040;"/>
  </a>
 </g>
</svg>

<style type='text/css'>
<![CDATA[
[data-mouse-over-selected='false'] { opacity: 0.7; }
[data-mouse-over-selected='true']  { opacity: 1.0; }
]]>
</style>
<script type="application/ecmascript"><![CDATA[
document.addEventListener('DOMContentLoaded', (event) => {
  highlightEdges();
  highlightAdjacentNodes();
});
]]></script>
</svg>
