<?xml version="1.0" encoding="UTF-8" standalone="no"?>
<!DOCTYPE svg PUBLIC "-//W3C//DTD SVG 1.1//EN"
 "http://www.w3.org/Graphics/SVG/1.1/DTD/svg11.dtd">
<!-- Generated by graphviz version 12.2.1 (20241206.2353)
 -->
<!-- Title: fr.softsf.canscan.CanScan.main Pages: 1 -->
<!--zoomable 400 -->

<svg id="main" version="1.1" xmlns="http://www.w3.org/2000/svg" xmlns:xlink="http://www.w3.org/1999/xlink" xml:space="preserve" onload="init(evt)">

<style type="text/css"><![CDATA[
.node, .edge {opacity: 0.7;}
.node.selected, .edge.selected {opacity: 1;}
.edge:hover path { stroke: red; }
.edge:hover polygon { stroke: red; fill: red; }
]]></style>

<defs>
  <circle id="rim" cx="0" cy="0" r="7"/>
  <circle id="rim2" cx="0" cy="0" r="3.5"/>
  <g id="zoomPlus">
    <use xlink:href="#rim" fill="#404040"><set attributeName="fill" to="#808080" begin="zoomplus.mouseover" end="zoomplus.mouseout"/></use>
    <path d="M-4,0h8M0,-4v8" fill="none" stroke="white" stroke-width="1.5" pointer-events="none"/>
  </g>
  <g id="zoomMin">
    <use xlink:href="#rim" fill="#404040"><set attributeName="fill" to="#808080" begin="zoomminus.mouseover" end="zoomminus.mouseout"/></use>
    <path d="M-4,0h8" fill="none" stroke="white" stroke-width="1.5" pointer-events="none"/>
  </g>
  <g id="arrowUp" transform="translate(30 24)">
    <use xlink:href="#rim"/>
    <path pointer-events="none" fill="none" stroke="white" stroke-width="1.5" d="M0,-3.0v7 M-2.5,-0.5L0,-3.0L2.5,-0.5"/>
  </g>
  <g id="arrowRight" transform="rotate(90) translate(36 -43)">
    <use xlink:href="#rim"/>
    <path pointer-events="none" fill="none" stroke="white" stroke-width="1.5" d="M0,-3.0v7 M-2.5,-0.5L0,-3.0L2.5,-0.5"/>
  </g>
  <g id="arrowDown" transform="rotate(180) translate(-30 -48)">
    <use xlink:href="#rim"/>
    <path pointer-events="none" fill="none" stroke="white" stroke-width="1.5" d="M0,-3.0v7 M-2.5,-0.5L0,-3.0L2.5,-0.5"/>
  </g>
  <g id="arrowLeft" transform="rotate(270) translate(-36 17)">
    <use xlink:href="#rim"/>
    <path pointer-events="none" fill="none" stroke="white" stroke-width="1.5" d="M0,-3.0v7 M-2.5,-0.5L0,-3.0L2.5,-0.5"/>
  </g>
  <g id="resetDef">
    <use xlink:href="#rim2" fill="#404040"><set attributeName="fill" to="#808080" begin="reset.mouseover" end="reset.mouseout"/></use>
  </g>
</defs>
<script type="application/ecmascript">
var viewWidth = 1411;
var viewHeight = 400;
var sectionId = 'dynsection-14';
</script>
<script type="application/ecmascript" xlink:href="svg.min.js"/>
<svg id="graph" class="graph">
<g id="viewport">
<title>fr.softsf.canscan.CanScan.main</title>
<!-- Node1 -->
<g id="Node000001" class="node">
<title>Node1</title>
<g id="a_Node000001"><a xlink:title="Application entry point.">
<polygon fill="#999999" stroke="#666666" points="157,-162 0,-162 0,-142 157,-142 157,-162"/>
<text text-anchor="middle" x="78.5" y="-148.5" font-family="Helvetica,sans-Serif" font-size="10.00">fr.softsf.canscan.CanScan.main</text>
</a>
</g>
</g>
<!-- Node2 -->
<g id="Node000002" class="node">
<title>Node2</title>
<g id="a_Node000002"><a xlink:href="classfr_1_1softsf_1_1canscan_1_1_can_scan.html#a102bcbc6cda608b642e870ba3fde6344" target="_top" xlink:title="Initializes the CanScan GUI.">
<polygon fill="white" stroke="#666666" points="329,-168 193,-168 193,-136 329,-136 329,-168"/>
<text text-anchor="start" x="201" y="-154.5" font-family="Helvetica,sans-Serif" font-size="10.00">fr.softsf.canscan.CanScan.</text>
<text text-anchor="middle" x="261" y="-142.5" font-family="Helvetica,sans-Serif" font-size="10.00">CanScan</text>
</a>
</g>
</g>
<!-- Node1&#45;&gt;Node2 -->
<g id="edge1_Node000001_Node000002" class="edge">
<title>Node1&#45;&gt;Node2</title>
<g id="a_edge1_Node000001_Node000002"><a xlink:title=" ">
<path fill="none" stroke="#63b8ff" d="M157.36,-152C165.24,-152 173.26,-152 181.15,-152"/>
<polygon fill="#63b8ff" stroke="#63b8ff" points="181.09,-155.5 191.09,-152 181.09,-148.5 181.09,-155.5"/>
</a>
</g>
</g>
<!-- Node3 -->
<g id="Node000003" class="node">
<title>Node3</title>
<g id="a_Node000003"><a xlink:href="classfr_1_1softsf_1_1canscan_1_1_can_scan.html#a070115929fdc69b249d21866a00a47cc" target="_top" xlink:title="Assigns component names for identification.">
<polygon fill="white" stroke="#666666" points="536.25,-281 365,-281 365,-249 536.25,-249 536.25,-281"/>
<text text-anchor="start" x="373" y="-267.5" font-family="Helvetica,sans-Serif" font-size="10.00">fr.softsf.canscan.CanScan.initialize</text>
<text text-anchor="middle" x="450.62" y="-255.5" font-family="Helvetica,sans-Serif" font-size="10.00">ComponentNames</text>
</a>
</g>
</g>
<!-- Node2&#45;&gt;Node3 -->
<g id="edge2_Node000002_Node000003" class="edge">
<title>Node2&#45;&gt;Node3</title>
<g id="a_edge2_Node000002_Node000003"><a xlink:title=" ">
<path fill="none" stroke="#63b8ff" d="M278.55,-168.34C297.89,-186.67 331.52,-216.29 365,-235 371.07,-238.39 377.6,-241.51 384.24,-244.36"/>
<polygon fill="#63b8ff" stroke="#63b8ff" points="382.73,-247.52 393.31,-248.02 385.35,-241.03 382.73,-247.52"/>
</a>
</g>
</g>
<!-- Node4 -->
<g id="Node000004" class="node">
<title>Node4</title>
<g id="a_Node000004"><a xlink:href="classfr_1_1softsf_1_1canscan_1_1_can_scan.html#a14263ca931024d56cd9bed4af4b74c25" target="_top" xlink:title="Builds the main panel with header, QR preview overlay, and spacer.">
<polygon fill="white" stroke="#666666" points="743.5,-354 572.25,-354 572.25,-322 743.5,-322 743.5,-354"/>
<text text-anchor="start" x="580.25" y="-340.5" font-family="Helvetica,sans-Serif" font-size="10.00">fr.softsf.canscan.CanScan.initialize</text>
<text text-anchor="middle" x="657.88" y="-328.5" font-family="Helvetica,sans-Serif" font-size="10.00">MainPanel</text>
</a>
</g>
</g>
<!-- Node2&#45;&gt;Node4 -->
<g id="edge3_Node000002_Node000004" class="edge">
<title>Node2&#45;&gt;Node4</title>
<g id="a_edge3_Node000002_Node000004"><a xlink:title=" ">
<path fill="none" stroke="#63b8ff" d="M290.97,-168.33C311.19,-179.15 339.1,-192.98 365,-202 438.62,-227.64 474.92,-191.86 536.25,-240 564.71,-262.34 544.58,-289.7 572.25,-313 573.22,-313.81 574.21,-314.6 575.22,-315.36"/>
<polygon fill="#63b8ff" stroke="#63b8ff" points="573.32,-318.3 583.63,-320.74 577.09,-312.4 573.32,-318.3"/>
</a>
</g>
</g>
<!-- Node12 -->
<g id="Node000012" class="node">
<title>Node12</title>
<g id="a_Node000012"><a xlink:href="classfr_1_1softsf_1_1canscan_1_1_can_scan.html#afb8d451dc5d6d9c7b6700e4b688c98a3" target="_top" xlink:title="Builds the north panel containing mode selection, card panels, common fields, and the generate button...">
<polygon fill="white" stroke="#666666" points="536.25,-193 365,-193 365,-161 536.25,-161 536.25,-193"/>
<text text-anchor="start" x="373" y="-179.5" font-family="Helvetica,sans-Serif" font-size="10.00">fr.softsf.canscan.CanScan.initialize</text>
<text text-anchor="middle" x="450.62" y="-167.5" font-family="Helvetica,sans-Serif" font-size="10.00">NorthPanel</text>
</a>
</g>
</g>
<!-- Node2&#45;&gt;Node12 -->
<g id="edge12_Node000002_Node000012" class="edge">
<title>Node2&#45;&gt;Node12</title>
<g id="a_edge12_Node000002_Node000012"><a xlink:title=" ">
<path fill="none" stroke="#63b8ff" d="M329.47,-160.99C337.26,-162.03 345.3,-163.1 353.37,-164.17"/>
<polygon fill="#63b8ff" stroke="#63b8ff" points="352.9,-167.64 363.27,-165.49 353.82,-160.7 352.9,-167.64"/>
</a>
</g>
</g>
<!-- Node26 -->
<g id="Node000026" class="node">
<title>Node26</title>
<g id="a_Node000026"><a xlink:href="classfr_1_1softsf_1_1canscan_1_1_can_scan.html#a4928478365bc812571ac037662cc5f6b" target="_top" xlink:title="Wraps the main panel in a scrollable container.">
<polygon fill="white" stroke="#666666" points="536.25,-143 365,-143 365,-111 536.25,-111 536.25,-143"/>
<text text-anchor="start" x="373" y="-129.5" font-family="Helvetica,sans-Serif" font-size="10.00">fr.softsf.canscan.CanScan.initialize</text>
<text text-anchor="middle" x="450.62" y="-117.5" font-family="Helvetica,sans-Serif" font-size="10.00">ScrollPane</text>
</a>
</g>
</g>
<!-- Node2&#45;&gt;Node26 -->
<g id="edge28_Node000002_Node000026" class="edge">
<title>Node2&#45;&gt;Node26</title>
<g id="a_edge28_Node000002_Node000026"><a xlink:title=" ">
<path fill="none" stroke="#63b8ff" d="M329.47,-143.01C337.26,-141.97 345.3,-140.9 353.37,-139.83"/>
<polygon fill="#63b8ff" stroke="#63b8ff" points="353.82,-143.3 363.27,-138.51 352.9,-136.36 353.82,-143.3"/>
</a>
</g>
</g>
<!-- Node27 -->
<g id="Node000027" class="node">
<title>Node27</title>
<g id="a_Node000027"><a xlink:href="classfr_1_1softsf_1_1canscan_1_1_can_scan.html#a358629f85831dc6cd4978c8854d88561" target="_top" xlink:title="Configures sliders for logo margin and ratio.">
<polygon fill="white" stroke="#666666" points="536.25,-93 365,-93 365,-61 536.25,-61 536.25,-93"/>
<text text-anchor="start" x="373" y="-79.5" font-family="Helvetica,sans-Serif" font-size="10.00">fr.softsf.canscan.CanScan.initialize</text>
<text text-anchor="middle" x="450.62" y="-67.5" font-family="Helvetica,sans-Serif" font-size="10.00">Sliders</text>
</a>
</g>
</g>
<!-- Node2&#45;&gt;Node27 -->
<g id="edge29_Node000002_Node000027" class="edge">
<title>Node2&#45;&gt;Node27</title>
<g id="a_edge29_Node000002_Node000027"><a xlink:title=" ">
<path fill="none" stroke="#63b8ff" d="M292.51,-135.55C312.7,-125.07 339.98,-111.69 365,-102 369.42,-100.29 374.01,-98.62 378.66,-97.02"/>
<polygon fill="#63b8ff" stroke="#63b8ff" points="379.74,-100.35 388.13,-93.88 377.54,-93.71 379.74,-100.35"/>
</a>
</g>
</g>
<!-- Node28 -->
<g id="Node000028" class="node">
<title>Node28</title>
<g id="a_Node000028"><a xlink:href="classfr_1_1softsf_1_1canscan_1_1_can_scan.html#a0a52159db640660477196e337ec62a9b" target="_top" xlink:title="Finalizes window layout and appearance.">
<polygon fill="white" stroke="#666666" points="536.25,-32 365,-32 365,0 536.25,0 536.25,-32"/>
<text text-anchor="start" x="373" y="-18.5" font-family="Helvetica,sans-Serif" font-size="10.00">fr.softsf.canscan.CanScan.initialize</text>
<text text-anchor="middle" x="450.62" y="-6.5" font-family="Helvetica,sans-Serif" font-size="10.00">Window</text>
</a>
</g>
</g>
<!-- Node2&#45;&gt;Node28 -->
<g id="edge30_Node000002_Node000028" class="edge">
<title>Node2&#45;&gt;Node28</title>
<g id="a_edge30_Node000002_Node000028"><a xlink:title=" ">
<path fill="none" stroke="#63b8ff" d="M275.5,-135.55C293.88,-114 328.67,-76.14 365,-52 373.31,-46.48 382.6,-41.51 391.91,-37.15"/>
<polygon fill="#63b8ff" stroke="#63b8ff" points="393.27,-40.37 400.98,-33.11 390.42,-33.98 393.27,-40.37"/>
</a>
</g>
</g>
<!-- Node5 -->
<g id="Node000005" class="node">
<title>Node5</title>
<g id="a_Node000005"><a xlink:href="classfr_1_1softsf_1_1canscan_1_1_can_scan.html#ad470e3c0750cf142dc611b1aeeda3a97" target="_top" xlink:title="Attaches automatic QR code preview updates to all input fields and controls.">
<polygon fill="white" stroke="#666666" points="972.5,-392 779.5,-392 779.5,-360 972.5,-360 972.5,-392"/>
<text text-anchor="start" x="787.5" y="-378.5" font-family="Helvetica,sans-Serif" font-size="10.00">fr.softsf.canscan.CanScan.automatic</text>
<text text-anchor="middle" x="876" y="-366.5" font-family="Helvetica,sans-Serif" font-size="10.00">QRCodeRenderingForFieldsAndControls</text>
</a>
</g>
</g>
<!-- Node4&#45;&gt;Node5 -->
<g id="edge4_Node000004_Node000005" class="edge">
<title>Node4&#45;&gt;Node5</title>
<g id="a_edge4_Node000004_Node000005"><a xlink:title=" ">
<path fill="none" stroke="#63b8ff" d="M743.98,-352.96C752.62,-354.48 761.46,-356.04 770.28,-357.59"/>
<polygon fill="#63b8ff" stroke="#63b8ff" points="769.46,-361 779.92,-359.28 770.67,-354.1 769.46,-361"/>
</a>
</g>
</g>
<!-- Node7 -->
<g id="Node000007" class="node">
<title>Node7</title>
<g id="a_Node000007"><a xlink:href="classfr_1_1softsf_1_1canscan_1_1_can_scan.html#a180290bc488e2346592ded98ccc4b1f3" target="_top" xlink:title="Collects current input and visual settings into a WholeFields for QR code generation.">
<polygon fill="white" stroke="#666666" points="1174.88,-228 1025.38,-228 1025.38,-196 1174.88,-196 1174.88,-228"/>
<text text-anchor="start" x="1033.38" y="-214.5" font-family="Helvetica,sans-Serif" font-size="10.00">fr.softsf.canscan.CanScan.get</text>
<text text-anchor="middle" x="1100.12" y="-202.5" font-family="Helvetica,sans-Serif" font-size="10.00">QrInput</text>
</a>
</g>
</g>
<!-- Node4&#45;&gt;Node7 -->
<g id="edge11_Node000004_Node000007" class="edge">
<title>Node4&#45;&gt;Node7</title>
<g id="a_edge11_Node000004_Node000007"><a xlink:title=" ">
<path fill="none" stroke="#63b8ff" d="M743.76,-344.42C808.64,-346.24 899.1,-342.01 972.5,-313 1014.42,-296.43 1053.5,-261 1076.85,-236.84"/>
<polygon fill="#63b8ff" stroke="#63b8ff" points="1079.36,-239.28 1083.68,-229.6 1074.27,-234.47 1079.36,-239.28"/>
</a>
</g>
</g>
<!-- Node6 -->
<g id="Node000006" class="node">
<title>Node6</title>
<g id="a_Node000006"><a xlink:href="enumfr_1_1softsf_1_1canscan_1_1ui_1_1_ui_components_configuration.html#aa700d9f2a270f6e54fcb53111855fa44" target="_top" xlink:title="Creates simple DocumentListener that executes action on any document change.">
<polygon fill="white" stroke="#666666" points="1191.75,-392 1008.5,-392 1008.5,-360 1191.75,-360 1191.75,-392"/>
<text text-anchor="start" x="1016.5" y="-378.5" font-family="Helvetica,sans-Serif" font-size="10.00">fr.softsf.canscan.ui.UiComponents</text>
<text text-anchor="middle" x="1100.12" y="-366.5" font-family="Helvetica,sans-Serif" font-size="10.00">Configuration.createDocumentListener</text>
</a>
</g>
</g>
<!-- Node5&#45;&gt;Node6 -->
<g id="edge5_Node000005_Node000006" class="edge">
<title>Node5&#45;&gt;Node6</title>
<g id="a_edge5_Node000005_Node000006"><a xlink:title=" ">
<path fill="none" stroke="#63b8ff" d="M972.81,-376C980.79,-376 988.88,-376 996.91,-376"/>
<polygon fill="#63b8ff" stroke="#63b8ff" points="996.68,-379.5 1006.68,-376 996.68,-372.5 996.68,-379.5"/>
</a>
</g>
</g>
<!-- Node5&#45;&gt;Node7 -->
<g id="edge6_Node000005_Node000007" class="edge">
<title>Node5&#45;&gt;Node7</title>
<g id="a_edge6_Node000005_Node000007"><a xlink:title=" ">
<path fill="none" stroke="#63b8ff" d="M944.68,-359.52C954.38,-355.81 963.95,-351.35 972.5,-346 1018.78,-317.05 1059.59,-267.2 1081.69,-237.15"/>
<polygon fill="#63b8ff" stroke="#63b8ff" points="1084.29,-239.52 1087.3,-229.37 1078.61,-235.43 1084.29,-239.52"/>
</a>
</g>
</g>
<!-- Node8 -->
<g id="Node000008" class="node">
<title>Node8</title>
<g id="a_Node000008"><a xlink:href="classfr_1_1softsf_1_1canscan_1_1_can_scan.html#a381368b99c4a0857c6abe6349b2c6d27" target="_top" xlink:title="Calculates the available height for QR code rendering.">
<polygon fill="white" stroke="#666666" points="1402.75,-103 1227.75,-103 1227.75,-71 1402.75,-71 1402.75,-103"/>
<text text-anchor="start" x="1235.75" y="-89.5" font-family="Helvetica,sans-Serif" font-size="10.00">fr.softsf.canscan.CanScan.calculate</text>
<text text-anchor="middle" x="1315.25" y="-77.5" font-family="Helvetica,sans-Serif" font-size="10.00">AvailableQrCodeLabelHeight</text>
</a>
</g>
</g>
<!-- Node7&#45;&gt;Node8 -->
<g id="edge7_Node000007_Node000008" class="edge">
<title>Node7&#45;&gt;Node8</title>
<g id="a_edge7_Node000007_Node000008"><a xlink:title=" ">
<path fill="none" stroke="#63b8ff" d="M1146.57,-195.67C1161.56,-189.33 1177.92,-181.33 1191.75,-172 1210.25,-159.52 1209.95,-150.46 1227.75,-137 1241.35,-126.71 1257.26,-116.95 1271.7,-108.83"/>
<polygon fill="#63b8ff" stroke="#63b8ff" points="1273.02,-112.1 1280.09,-104.21 1269.64,-105.97 1273.02,-112.1"/>
</a>
</g>
</g>
<!-- Node9 -->
<g id="Node000009" class="node">
<title>Node9</title>
<g id="a_Node000009"><a xlink:href="classfr_1_1softsf_1_1canscan_1_1_can_scan.html#a4e67b1b5c764e72414a5c0f387810f5c" target="_top" xlink:title="Validates and returns the current QR code margin from the margin slider.">
<polygon fill="white" stroke="#666666" points="1400.12,-278 1230.38,-278 1230.38,-246 1400.12,-246 1400.12,-278"/>
<text text-anchor="start" x="1238.38" y="-264.5" font-family="Helvetica,sans-Serif" font-size="10.00">fr.softsf.canscan.CanScan.validate</text>
<text text-anchor="middle" x="1315.25" y="-252.5" font-family="Helvetica,sans-Serif" font-size="10.00">AndGetMargin</text>
</a>
</g>
</g>
<!-- Node7&#45;&gt;Node9 -->
<g id="edge8_Node000007_Node000009" class="edge">
<title>Node7&#45;&gt;Node9</title>
<g id="a_edge8_Node000007_Node000009"><a xlink:title=" ">
<path fill="none" stroke="#63b8ff" d="M1171.21,-228.44C1190.96,-233.08 1212.62,-238.16 1232.97,-242.93"/>
<polygon fill="#63b8ff" stroke="#63b8ff" points="1232.12,-246.33 1242.65,-245.2 1233.72,-239.51 1232.12,-246.33"/>
</a>
</g>
</g>
<!-- Node10 -->
<g id="Node000010" class="node">
<title>Node10</title>
<g id="a_Node000010"><a xlink:href="classfr_1_1softsf_1_1canscan_1_1_can_scan.html#a9e8188875168199cde065113ae2a393d" target="_top" xlink:title="Validates and returns the current image&#45;to&#45;QR ratio from the ratio slider.">
<polygon fill="white" stroke="#666666" points="1400.12,-228 1230.38,-228 1230.38,-196 1400.12,-196 1400.12,-228"/>
<text text-anchor="start" x="1238.38" y="-214.5" font-family="Helvetica,sans-Serif" font-size="10.00">fr.softsf.canscan.CanScan.validate</text>
<text text-anchor="middle" x="1315.25" y="-202.5" font-family="Helvetica,sans-Serif" font-size="10.00">AndGetRatio</text>
</a>
</g>
</g>
<!-- Node7&#45;&gt;Node10 -->
<g id="edge9_Node000007_Node000010" class="edge">
<title>Node7&#45;&gt;Node10</title>
<g id="a_edge9_Node000007_Node000010"><a xlink:title=" ">
<path fill="none" stroke="#63b8ff" d="M1175.37,-212C1189.44,-212 1204.34,-212 1218.96,-212"/>
<polygon fill="#63b8ff" stroke="#63b8ff" points="1218.55,-215.5 1228.55,-212 1218.55,-208.5 1218.55,-215.5"/>
</a>
</g>
</g>
<!-- Node11 -->
<g id="Node000011" class="node">
<title>Node11</title>
<g id="a_Node000011"><a xlink:href="classfr_1_1softsf_1_1canscan_1_1_can_scan.html#a6d139bb8d0a3c7081096c8956189b684" target="_top" xlink:title="Validates and returns the QR code size from the corresponding text field.">
<polygon fill="white" stroke="#666666" points="1400.12,-178 1230.38,-178 1230.38,-146 1400.12,-146 1400.12,-178"/>
<text text-anchor="start" x="1238.38" y="-164.5" font-family="Helvetica,sans-Serif" font-size="10.00">fr.softsf.canscan.CanScan.validate</text>
<text text-anchor="middle" x="1315.25" y="-152.5" font-family="Helvetica,sans-Serif" font-size="10.00">AndGetSize</text>
</a>
</g>
</g>
<!-- Node7&#45;&gt;Node11 -->
<g id="edge10_Node000007_Node000011" class="edge">
<title>Node7&#45;&gt;Node11</title>
<g id="a_edge10_Node000007_Node000011"><a xlink:title=" ">
<path fill="none" stroke="#63b8ff" d="M1171.21,-195.56C1190.96,-190.92 1212.62,-185.84 1232.97,-181.07"/>
<polygon fill="#63b8ff" stroke="#63b8ff" points="1233.72,-184.49 1242.65,-178.8 1232.12,-177.67 1233.72,-184.49"/>
</a>
</g>
</g>
<!-- Node13 -->
<g id="Node000013" class="node">
<title>Node13</title>
<g id="a_Node000013"><a xlink:href="classfr_1_1softsf_1_1canscan_1_1_can_scan.html#ab2e018ca62c7497c29e84f42ae870daa" target="_top" xlink:title="Adds MECARD and Free card panels to the north panel.">
<polygon fill="white" stroke="#666666" points="733.75,-304 582,-304 582,-272 733.75,-272 733.75,-304"/>
<text text-anchor="start" x="590" y="-290.5" font-family="Helvetica,sans-Serif" font-size="10.00">fr.softsf.canscan.CanScan.add</text>
<text text-anchor="middle" x="657.88" y="-278.5" font-family="Helvetica,sans-Serif" font-size="10.00">NorthPanelCardPanels</text>
</a>
</g>
</g>
<!-- Node12&#45;&gt;Node13 -->
<g id="edge13_Node000012_Node000013" class="edge">
<title>Node12&#45;&gt;Node13</title>
<g id="a_edge13_Node000012_Node000013"><a xlink:title=" ">
<path fill="none" stroke="#63b8ff" d="M513.35,-193.39C521.51,-197.09 529.41,-201.58 536.25,-207 559.44,-225.38 548.58,-245.25 572.25,-263 573.77,-264.14 575.33,-265.22 576.95,-266.26"/>
<polygon fill="#63b8ff" stroke="#63b8ff" points="574.82,-269.08 585.26,-270.93 578.26,-262.98 574.82,-269.08"/>
</a>
</g>
</g>
<!-- Node16 -->
<g id="Node000016" class="node">
<title>Node16</title>
<g id="a_Node000016"><a xlink:href="classfr_1_1softsf_1_1canscan_1_1_can_scan.html#a94ab4df98de0d05977e6a65ab75f89f0" target="_top" xlink:title="Adds common input fields to the north panel.">
<polygon fill="white" stroke="#666666" points="733.75,-254 582,-254 582,-222 733.75,-222 733.75,-254"/>
<text text-anchor="start" x="590" y="-240.5" font-family="Helvetica,sans-Serif" font-size="10.00">fr.softsf.canscan.CanScan.add</text>
<text text-anchor="middle" x="657.88" y="-228.5" font-family="Helvetica,sans-Serif" font-size="10.00">NorthPanelCommonFields</text>
</a>
</g>
</g>
<!-- Node12&#45;&gt;Node16 -->
<g id="edge16_Node000012_Node000016" class="edge">
<title>Node12&#45;&gt;Node16</title>
<g id="a_edge16_Node000012_Node000016"><a xlink:title=" ">
<path fill="none" stroke="#63b8ff" d="M506.56,-193.43C527.16,-199.58 550.78,-206.62 572.25,-213 578.12,-214.74 584.23,-216.55 590.35,-218.37"/>
<polygon fill="#63b8ff" stroke="#63b8ff" points="589.3,-221.71 599.88,-221.19 591.29,-214.99 589.3,-221.71"/>
</a>
</g>
</g>
<!-- Node18 -->
<g id="Node000018" class="node">
<title>Node18</title>
<g id="a_Node000018"><a xlink:href="classfr_1_1softsf_1_1canscan_1_1_can_scan.html#a9f205dfdb266d5d7f8f8899b69742663" target="_top" xlink:title="Adds the generate button to the north panel.">
<polygon fill="white" stroke="#666666" points="733.75,-204 582,-204 582,-172 733.75,-172 733.75,-204"/>
<text text-anchor="start" x="590" y="-190.5" font-family="Helvetica,sans-Serif" font-size="10.00">fr.softsf.canscan.CanScan.add</text>
<text text-anchor="middle" x="657.88" y="-178.5" font-family="Helvetica,sans-Serif" font-size="10.00">NorthPanelGenerateButton</text>
</a>
</g>
</g>
<!-- Node12&#45;&gt;Node18 -->
<g id="edge19_Node000012_Node000018" class="edge">
<title>Node12&#45;&gt;Node18</title>
<g id="a_edge19_Node000012_Node000018"><a xlink:title=" ">
<path fill="none" stroke="#63b8ff" d="M536.59,-181.55C547.84,-182.16 559.38,-182.77 570.65,-183.38"/>
<polygon fill="#63b8ff" stroke="#63b8ff" points="570.12,-186.86 580.3,-183.9 570.5,-179.87 570.12,-186.86"/>
</a>
</g>
</g>
<!-- Node19 -->
<g id="Node000019" class="node">
<title>Node19</title>
<g id="a_Node000019"><a xlink:href="classfr_1_1softsf_1_1canscan_1_1_can_scan.html#aa469763b92dd7cbc6dfdb9aaa0116b33" target="_top" xlink:title="Adds mode selection controls (MECARD/Free) to the north panel.">
<polygon fill="white" stroke="#666666" points="733.75,-154 582,-154 582,-122 733.75,-122 733.75,-154"/>
<text text-anchor="start" x="590" y="-140.5" font-family="Helvetica,sans-Serif" font-size="10.00">fr.softsf.canscan.CanScan.add</text>
<text text-anchor="middle" x="657.88" y="-128.5" font-family="Helvetica,sans-Serif" font-size="10.00">NorthPanelModeSelection</text>
</a>
</g>
</g>
<!-- Node12&#45;&gt;Node19 -->
<g id="edge20_Node000012_Node000019" class="edge">
<title>Node12&#45;&gt;Node19</title>
<g id="a_edge20_Node000012_Node000019"><a xlink:title=" ">
<path fill="none" stroke="#63b8ff" d="M536.59,-160.86C547.84,-158.72 559.38,-156.53 570.65,-154.38"/>
<polygon fill="#63b8ff" stroke="#63b8ff" points="571.15,-157.85 580.32,-152.55 569.84,-150.97 571.15,-157.85"/>
</a>
</g>
</g>
<!-- Node24 -->
<g id="Node000024" class="node">
<title>Node24</title>
<g id="a_Node000024"><a xlink:href="classfr_1_1softsf_1_1canscan_1_1_can_scan.html#ada8edc3d5abda489ce9f75a0613cfc71" target="_top" xlink:title="Creates the base north panel with layout, maximum width, and padding applied.">
<polygon fill="white" stroke="#666666" points="732.62,-104 583.12,-104 583.12,-72 732.62,-72 732.62,-104"/>
<text text-anchor="start" x="591.12" y="-90.5" font-family="Helvetica,sans-Serif" font-size="10.00">fr.softsf.canscan.CanScan.get</text>
<text text-anchor="middle" x="657.88" y="-78.5" font-family="Helvetica,sans-Serif" font-size="10.00">NorthJPanel</text>
</a>
</g>
</g>
<!-- Node12&#45;&gt;Node24 -->
<g id="edge26_Node000012_Node000024" class="edge">
<title>Node12&#45;&gt;Node24</title>
<g id="a_edge26_Node000012_Node000024"><a xlink:title=" ">
<path fill="none" stroke="#63b8ff" d="M519.58,-160.55C525.4,-158.07 531.05,-155.24 536.25,-152 556.28,-139.54 552.22,-125.46 572.25,-113 574.28,-111.74 576.38,-110.53 578.53,-109.39"/>
<polygon fill="#63b8ff" stroke="#63b8ff" points="580.02,-112.56 587.55,-105.1 577.02,-106.23 580.02,-112.56"/>
</a>
</g>
</g>
<!-- Node25 -->
<g id="Node000025" class="node">
<title>Node25</title>
<g id="a_Node000025"><a xlink:href="classfr_1_1softsf_1_1canscan_1_1_can_scan.html#aeb5550da33925e95999aae23f525f7c5" target="_top" xlink:title="Creates default GridBagConstraints for consistent layout configuration.">
<polygon fill="white" stroke="#666666" points="736.75,-54 579,-54 579,-22 736.75,-22 736.75,-54"/>
<text text-anchor="start" x="587" y="-40.5" font-family="Helvetica,sans-Serif" font-size="10.00">fr.softsf.canscan.CanScan.north</text>
<text text-anchor="middle" x="657.88" y="-28.5" font-family="Helvetica,sans-Serif" font-size="10.00">PanelGridBagConstraints</text>
</a>
</g>
</g>
<!-- Node12&#45;&gt;Node25 -->
<g id="edge27_Node000012_Node000025" class="edge">
<title>Node12&#45;&gt;Node25</title>
<g id="a_edge27_Node000012_Node000025"><a xlink:title=" ">
<path fill="none" stroke="#63b8ff" d="M524.27,-160.64C528.57,-158.16 532.62,-155.29 536.25,-152 567.85,-123.33 540.65,-91.67 572.25,-63 573.16,-62.18 574.09,-61.38 575.05,-60.61"/>
<polygon fill="#63b8ff" stroke="#63b8ff" points="576.68,-63.73 582.97,-55.21 572.74,-57.95 576.68,-63.73"/>
</a>
</g>
</g>
<!-- Node14 -->
<g id="Node000014" class="node">
<title>Node14</title>
<g id="a_Node000014"><a xlink:href="classfr_1_1softsf_1_1canscan_1_1_can_scan.html#a38d65dd319daee1c3288690c17e43ca5" target="_top" xlink:title="Populates the FREE panel with a multiline text area for arbitrary text or URLs.">
<polygon fill="white" stroke="#666666" points="962.75,-304 789.25,-304 789.25,-284 962.75,-284 962.75,-304"/>
<text text-anchor="middle" x="876" y="-290.5" font-family="Helvetica,sans-Serif" font-size="10.00">fr.softsf.canscan.CanScan.freeCard</text>
</a>
</g>
</g>
<!-- Node13&#45;&gt;Node14 -->
<g id="edge14_Node000013_Node000014" class="edge">
<title>Node13&#45;&gt;Node14</title>
<g id="a_edge14_Node000013_Node000014"><a xlink:title=" ">
<path fill="none" stroke="#63b8ff" d="M734.16,-290.09C748.24,-290.48 763.13,-290.89 777.76,-291.3"/>
<polygon fill="#63b8ff" stroke="#63b8ff" points="777.27,-294.79 787.37,-291.57 777.47,-287.79 777.27,-294.79"/>
</a>
</g>
</g>
<!-- Node15 -->
<g id="Node000015" class="node">
<title>Node15</title>
<g id="a_Node000015"><a xlink:href="classfr_1_1softsf_1_1canscan_1_1_can_scan.html#aed7e3048974882318a6519d8d36e8ec0" target="_top" xlink:title="Populates the MECARD panel with structured contact fields.">
<polygon fill="white" stroke="#666666" points="960.12,-266 791.88,-266 791.88,-246 960.12,-246 960.12,-266"/>
<text text-anchor="middle" x="876" y="-252.5" font-family="Helvetica,sans-Serif" font-size="10.00">fr.softsf.canscan.CanScan.mecard</text>
</a>
</g>
</g>
<!-- Node13&#45;&gt;Node15 -->
<g id="edge15_Node000013_Node000015" class="edge">
<title>Node13&#45;&gt;Node15</title>
<g id="a_edge15_Node000013_Node000015"><a xlink:title=" ">
<path fill="none" stroke="#63b8ff" d="M734.16,-276.85C753.21,-274.03 773.75,-270.99 793.1,-268.13"/>
<polygon fill="#63b8ff" stroke="#63b8ff" points="793.46,-271.61 802.84,-266.68 792.44,-264.69 793.46,-271.61"/>
</a>
</g>
</g>
<!-- Node17 -->
<g id="Node000017" class="node">
<title>Node17</title>
<g id="a_Node000017"><a xlink:href="classfr_1_1softsf_1_1canscan_1_1_can_scan.html#a17b0a72ab305f98f86591411b6a352f2" target="_top" xlink:title="Creates the color selection panel for QR code and background colors.">
<polygon fill="white" stroke="#666666" points="954.5,-228 797.5,-228 797.5,-196 954.5,-196 954.5,-228"/>
<text text-anchor="start" x="805.5" y="-214.5" font-family="Helvetica,sans-Serif" font-size="10.00">fr.softsf.canscan.CanScan.color</text>
<text text-anchor="middle" x="876" y="-202.5" font-family="Helvetica,sans-Serif" font-size="10.00">Panel</text>
</a>
</g>
</g>
<!-- Node16&#45;&gt;Node17 -->
<g id="edge17_Node000016_Node000017" class="edge">
<title>Node16&#45;&gt;Node17</title>
<g id="a_edge17_Node000016_Node000017"><a xlink:title=" ">
<path fill="none" stroke="#63b8ff" d="M734.16,-228.94C750.85,-226.94 768.69,-224.79 785.87,-222.72"/>
<polygon fill="#63b8ff" stroke="#63b8ff" points="786.04,-226.23 795.55,-221.56 785.2,-219.28 786.04,-226.23"/>
</a>
</g>
</g>
<!-- Node17&#45;&gt;Node7 -->
<g id="edge18_Node000017_Node000007" class="edge">
<title>Node17&#45;&gt;Node7</title>
<g id="a_edge18_Node000017_Node000007"><a xlink:title=" ">
<path fill="none" stroke="#63b8ff" d="M954.69,-212C973.83,-212 994.42,-212 1013.9,-212"/>
<polygon fill="#63b8ff" stroke="#63b8ff" points="1013.7,-215.5 1023.7,-212 1013.7,-208.5 1013.7,-215.5"/>
</a>
</g>
</g>
<!-- Node20 -->
<g id="Node000020" class="node">
<title>Node20</title>
<g id="a_Node000020"><a xlink:href="classfr_1_1softsf_1_1canscan_1_1_can_scan.html#a381579d3adc53b1122b38e7fda5c0235" target="_top" xlink:title="Configures the update button for version checking.">
<polygon fill="white" stroke="#666666" points="963.88,-178 788.12,-178 788.12,-146 963.88,-146 963.88,-178"/>
<text text-anchor="start" x="796.12" y="-164.5" font-family="Helvetica,sans-Serif" font-size="10.00">fr.softsf.canscan.CanScan.configure</text>
<text text-anchor="middle" x="876" y="-152.5" font-family="Helvetica,sans-Serif" font-size="10.00">UpdateButton</text>
</a>
</g>
</g>
<!-- Node19&#45;&gt;Node20 -->
<g id="edge21_Node000019_Node000020" class="edge">
<title>Node19&#45;&gt;Node20</title>
<g id="a_edge21_Node000019_Node000020"><a xlink:title=" ">
<path fill="none" stroke="#63b8ff" d="M734.16,-146.36C747.81,-147.88 762.23,-149.48 776.43,-151.05"/>
<polygon fill="#63b8ff" stroke="#63b8ff" points="775.92,-154.52 786.25,-152.14 776.7,-147.56 775.92,-154.52"/>
</a>
</g>
</g>
<!-- Node21 -->
<g id="Node000021" class="node">
<title>Node21</title>
<g id="a_Node000021"><a xlink:href="classfr_1_1softsf_1_1canscan_1_1_can_scan.html#a428c742b098fa27d4c8984c1030c238d" target="_top" xlink:title="Switches the application between MECARD and FREE modes.">
<polygon fill="white" stroke="#666666" points="970.25,-128 781.75,-128 781.75,-108 970.25,-108 970.25,-128"/>
<text text-anchor="middle" x="876" y="-114.5" font-family="Helvetica,sans-Serif" font-size="10.00">fr.softsf.canscan.CanScan.switchMode</text>
</a>
</g>
</g>
<!-- Node19&#45;&gt;Node21 -->
<g id="edge22_Node000019_Node000021" class="edge">
<title>Node19&#45;&gt;Node21</title>
<g id="a_edge22_Node000019_Node000021"><a xlink:title=" ">
<path fill="none" stroke="#63b8ff" d="M734.16,-131.03C745.82,-129.95 758.04,-128.82 770.21,-127.7"/>
<polygon fill="#63b8ff" stroke="#63b8ff" points="770.2,-131.21 779.84,-126.81 769.56,-124.24 770.2,-131.21"/>
</a>
</g>
</g>
<!-- Node21&#45;&gt;Node7 -->
<g id="edge23_Node000021_Node000007" class="edge">
<title>Node21&#45;&gt;Node7</title>
<g id="a_edge23_Node000021_Node000007"><a xlink:title=" ">
<path fill="none" stroke="#63b8ff" d="M951.46,-128.39C958.77,-130.71 965.92,-133.54 972.5,-137 992.25,-147.38 990,-159.52 1008.5,-172 1019.2,-179.22 1031.41,-185.64 1043.32,-191.11"/>
<polygon fill="#63b8ff" stroke="#63b8ff" points="1041.73,-194.23 1052.29,-195.06 1044.55,-187.83 1041.73,-194.23"/>
</a>
</g>
</g>
<!-- Node22 -->
<g id="Node000022" class="node">
<title>Node22</title>
<g id="a_Node000022"><a xlink:href="enumfr_1_1softsf_1_1canscan_1_1model_1_1_mode.html#a16a898a11ca939056bd7b275f11ea54c" target="_top" xlink:title="Returns the mode label.">
<polygon fill="white" stroke="#666666" points="1161,-163 1039.25,-163 1039.25,-131 1161,-131 1161,-163"/>
<text text-anchor="start" x="1047.25" y="-149.5" font-family="Helvetica,sans-Serif" font-size="10.00">fr.softsf.canscan.model.</text>
<text text-anchor="middle" x="1100.12" y="-137.5" font-family="Helvetica,sans-Serif" font-size="10.00">Mode.text</text>
</a>
</g>
</g>
<!-- Node21&#45;&gt;Node22 -->
<g id="edge24_Node000021_Node000022" class="edge">
<title>Node21&#45;&gt;Node22</title>
<g id="a_edge24_Node000021_Node000022"><a xlink:title=" ">
<path fill="none" stroke="#63b8ff" d="M957.19,-128.47C980.26,-131.48 1005.26,-134.75 1027.76,-137.68"/>
<polygon fill="#63b8ff" stroke="#63b8ff" points="1027.05,-141.12 1037.42,-138.94 1027.96,-134.18 1027.05,-141.12"/>
</a>
</g>
</g>
<!-- Node23 -->
<g id="Node000023" class="node">
<title>Node23</title>
<g id="a_Node000023"><a xlink:href="classfr_1_1softsf_1_1canscan_1_1_can_scan.html#a11fd9295c4843e6e68f9d1e4a710b906" target="_top" xlink:title="Updates the generate button state based on input validation.">
<polygon fill="white" stroke="#666666" points="1182.75,-113 1017.5,-113 1017.5,-81 1182.75,-81 1182.75,-113"/>
<text text-anchor="start" x="1025.5" y="-99.5" font-family="Helvetica,sans-Serif" font-size="10.00">fr.softsf.canscan.CanScan.update</text>
<text text-anchor="middle" x="1100.12" y="-87.5" font-family="Helvetica,sans-Serif" font-size="10.00">GenerateButtonState</text>
</a>
</g>
</g>
<!-- Node21&#45;&gt;Node23 -->
<g id="edge25_Node000021_Node000023" class="edge">
<title>Node21&#45;&gt;Node23</title>
<g id="a_edge25_Node000021_Node000023"><a xlink:title=" ">
<path fill="none" stroke="#63b8ff" d="M970.56,-109.15C982.33,-108.04 994.37,-106.9 1006.13,-105.79"/>
<polygon fill="#63b8ff" stroke="#63b8ff" points="1006.17,-109.3 1015.8,-104.88 1005.51,-102.33 1006.17,-109.3"/>
</a>
</g>
</g>
<!-- Node29 -->
<g id="Node000029" class="node">
<title>Node29</title>
<g id="a_Node000029"><a xlink:href="classfr_1_1softsf_1_1canscan_1_1_can_scan.html#a0fe215984734bb1337dd49ca30238b78" target="_top" xlink:title="Sets the loader size so it matches the QR code label height and remains centered.">
<polygon fill="white" stroke="#666666" points="1174.88,-32 1025.38,-32 1025.38,0 1174.88,0 1174.88,-32"/>
<text text-anchor="start" x="1033.38" y="-18.5" font-family="Helvetica,sans-Serif" font-size="10.00">fr.softsf.canscan.CanScan.set</text>
<text text-anchor="middle" x="1100.12" y="-6.5" font-family="Helvetica,sans-Serif" font-size="10.00">LoaderSize</text>
</a>
</g>
</g>
<!-- Node28&#45;&gt;Node29 -->
<g id="edge31_Node000028_Node000029" class="edge">
<title>Node28&#45;&gt;Node29</title>
<g id="a_edge31_Node000028_Node000029"><a xlink:title=" ">
<path fill="none" stroke="#63b8ff" d="M536.63,-13.62C548.59,-13.36 560.73,-13.14 572.25,-13 727.85,-11.07 909.32,-13.03 1013.56,-14.56"/>
<polygon fill="#63b8ff" stroke="#63b8ff" points="1013.39,-18.06 1023.44,-14.71 1013.5,-11.06 1013.39,-18.06"/>
</a>
</g>
</g>
<!-- Node29&#45;&gt;Node8 -->
<g id="edge32_Node000029_Node000008" class="edge">
<title>Node29&#45;&gt;Node8</title>
<g id="a_edge32_Node000029_Node000008"><a xlink:title=" ">
<path fill="none" stroke="#63b8ff" d="M1150.56,-32.47C1181.49,-42.77 1221.54,-56.12 1254.29,-67.02"/>
<polygon fill="#63b8ff" stroke="#63b8ff" points="1253.06,-70.3 1263.65,-70.14 1255.27,-63.66 1253.06,-70.3"/>
</a>
</g>
</g>
</g>
</svg>

<g id="navigator" transform="translate(0 0)" fill="#404254">
  <rect fill="#f2f5e9" fill-opacity="0.5" stroke="#606060" stroke-width=".5" x="0" y="0" width="60" height="60"/>
  <use id="zoomplus" xlink:href="#zoomPlus" x="17" y="9" onmousedown="handleZoom(evt,'in')"/>
  <use id="zoomminus" xlink:href="#zoomMin" x="42" y="9" onmousedown="handleZoom(evt,'out')"/>
  <use id="reset" xlink:href="#resetDef" x="30" y="36" onmousedown="handleReset()"/>
   <use id="arrowup" xlink:href="#arrowUp" x="0" y="0" onmousedown="handlePan(0,-1)"/>
  <use id="arrowright" xlink:href="#arrowRight" x="0" y="0" onmousedown="handlePan(1,0)"/>
  <use id="arrowdown" xlink:href="#arrowDown" x="0" y="0" onmousedown="handlePan(0,1)"/>
  <use id="arrowleft" xlink:href="#arrowLeft" x="0" y="0" onmousedown="handlePan(-1,0)"/>
</g>
<svg viewBox="0 0 15 15" width="100%" height="30px" preserveAspectRatio="xMaxYMin meet">
 <g id="arrow_out" transform="scale(0.3 0.3)">
  <a xlink:href="classfr_1_1softsf_1_1canscan_1_1_can_scan_a3452eff1010c69d3f01d23dc2fac7e8e_cgraph_org.svg" target="_base">
   <rect id="button" ry="5" rx="5" y="6" x="6" height="38" width="38"
        fill="#f2f5e9" fill-opacity="0.5" stroke="#606060" stroke-width="1.0"/>
   <path id="arrow"
     d="M 11.500037,31.436501 C 11.940474,20.09759 22.043105,11.32322 32.158766,21.979434 L 37.068811,17.246167 C 37.068811,17.246167 37.088388,32 37.088388,32 L 22.160133,31.978069 C 22.160133,31.978069 26.997745,27.140456 26.997745,27.140456 C 18.528582,18.264221 13.291696,25.230495 11.500037,31.436501 z"
     style="fill:#404040;"/>
  </a>
 </g>
</svg>

<style type='text/css'>
<![CDATA[
[data-mouse-over-selected='false'] { opacity: 0.7; }
[data-mouse-over-selected='true']  { opacity: 1.0; }
]]>
</style>
<script type="application/ecmascript"><![CDATA[
document.addEventListener('DOMContentLoaded', (event) => {
  highlightEdges();
  highlightAdjacentNodes();
});
]]></script>
</svg>
