<?xml version="1.0" encoding="UTF-8" standalone="no"?>
<!DOCTYPE svg PUBLIC "-//W3C//DTD SVG 1.1//EN"
 "http://www.w3.org/Graphics/SVG/1.1/DTD/svg11.dtd">
<!-- Generated by graphviz version 12.2.1 (20241206.2353)
 -->
<!-- Title: fr.softsf.canscan.ui.DynamicQrCodePreview.updateQrCodePreview Pages: 1 -->
<svg width="857pt" height="238pt"
 viewBox="0.00 0.00 856.50 238.00" xmlns="http://www.w3.org/2000/svg" xmlns:xlink="http://www.w3.org/1999/xlink">
<g id="graph0" class="graph" transform="scale(1 1) rotate(0) translate(4 234)">
<title>fr.softsf.canscan.ui.DynamicQrCodePreview.updateQrCodePreview</title>
<!-- Node1 -->
<g id="Node000001" class="node">
<title>Node1</title>
<g id="a_Node000001"><a xlink:title="Updates and schedules a debounced QR code preview refresh.">
<polygon fill="#999999" stroke="#666666" points="185.5,-162 0,-162 0,-130 185.5,-130 185.5,-162"/>
<text text-anchor="start" x="8" y="-148.5" font-family="Helvetica,sans-Serif" font-size="10.00">fr.softsf.canscan.ui.Dynamic</text>
<text text-anchor="middle" x="92.75" y="-136.5" font-family="Helvetica,sans-Serif" font-size="10.00">QrCodePreview.updateQrCodePreview</text>
</a>
</g>
</g>
<!-- Node2 -->
<g id="Node000002" class="node">
<title>Node2</title>
<g id="a_Node000002"><a xlink:href="classfr_1_1softsf_1_1canscan_1_1service_1_1_abstract_dynamic_qr_code_worker.html#a200fada62fe7977e60f65130dbf11276" target="_top" xlink:title="Executes the unified workflow: cancel previous worker, stop debounce, clear resources,...">
<polygon fill="white" stroke="#666666" points="402.5,-168 221.5,-168 221.5,-124 402.5,-124 402.5,-168"/>
<text text-anchor="start" x="229.5" y="-154.5" font-family="Helvetica,sans-Serif" font-size="10.00">fr.softsf.canscan.service.</text>
<text text-anchor="start" x="229.5" y="-142.5" font-family="Helvetica,sans-Serif" font-size="10.00">AbstractDynamicQrCodeWorker.reset</text>
<text text-anchor="middle" x="312" y="-130.5" font-family="Helvetica,sans-Serif" font-size="10.00">AndStartWorker</text>
</a>
</g>
</g>
<!-- Node1&#45;&gt;Node2 -->
<g id="edge1_Node000001_Node000002" class="edge">
<title>Node1&#45;&gt;Node2</title>
<g id="a_edge1_Node000001_Node000002"><a xlink:title=" ">
<path fill="none" stroke="#63b8ff" d="M185.88,-146C193.82,-146 201.88,-146 209.89,-146"/>
<polygon fill="#63b8ff" stroke="#63b8ff" points="209.64,-149.5 219.64,-146 209.64,-142.5 209.64,-149.5"/>
</a>
</g>
</g>
<!-- Node3 -->
<g id="Node000003" class="node">
<title>Node3</title>
<g id="a_Node000003"><a xlink:href="classfr_1_1softsf_1_1canscan_1_1service_1_1_abstract_dynamic_qr_code_worker.html#a7cc26d48e6fdf5032aa4495a4dea06c7" target="_top" xlink:title="Creates and returns a new SwingWorker for the current operation.">
<polygon fill="white" stroke="#666666" points="624.75,-199 438.5,-199 438.5,-155 624.75,-155 624.75,-199"/>
<text text-anchor="start" x="446.5" y="-185.5" font-family="Helvetica,sans-Serif" font-size="10.00">fr.softsf.canscan.service.</text>
<text text-anchor="start" x="446.5" y="-173.5" font-family="Helvetica,sans-Serif" font-size="10.00">AbstractDynamicQrCodeWorker.create</text>
<text text-anchor="middle" x="531.62" y="-161.5" font-family="Helvetica,sans-Serif" font-size="10.00">Worker</text>
</a>
</g>
</g>
<!-- Node2&#45;&gt;Node3 -->
<g id="edge2_Node000002_Node000003" class="edge">
<title>Node2&#45;&gt;Node3</title>
<g id="a_edge2_Node000002_Node000003"><a xlink:title=" ">
<path fill="none" stroke="#63b8ff" d="M402.77,-158.79C410.73,-159.92 418.83,-161.08 426.89,-162.22"/>
<polygon fill="#63b8ff" stroke="#63b8ff" points="426.35,-165.68 436.75,-163.63 427.34,-158.75 426.35,-165.68"/>
</a>
</g>
</g>
<!-- Node4 -->
<g id="Node000004" class="node">
<title>Node4</title>
<g id="a_Node000004"><a xlink:href="classfr_1_1softsf_1_1canscan_1_1service_1_1_abstract_dynamic_qr_code_worker.html#ab96e38d883cf01ec5565f6391e20c9ac" target="_top" xlink:title="Resets the current worker and associated resources.">
<polygon fill="white" stroke="#666666" points="622.12,-137 441.12,-137 441.12,-93 622.12,-93 622.12,-137"/>
<text text-anchor="start" x="449.12" y="-123.5" font-family="Helvetica,sans-Serif" font-size="10.00">fr.softsf.canscan.service.</text>
<text text-anchor="start" x="449.12" y="-111.5" font-family="Helvetica,sans-Serif" font-size="10.00">AbstractDynamicQrCodeWorker.reset</text>
<text text-anchor="middle" x="531.62" y="-99.5" font-family="Helvetica,sans-Serif" font-size="10.00">Worker</text>
</a>
</g>
</g>
<!-- Node2&#45;&gt;Node4 -->
<g id="edge3_Node000002_Node000004" class="edge">
<title>Node2&#45;&gt;Node4</title>
<g id="a_edge3_Node000002_Node000004"><a xlink:title=" ">
<path fill="none" stroke="#63b8ff" d="M402.77,-133.21C411.58,-131.96 420.56,-130.68 429.47,-129.41"/>
<polygon fill="#63b8ff" stroke="#63b8ff" points="429.8,-132.9 439.21,-128.02 428.82,-125.97 429.8,-132.9"/>
</a>
</g>
</g>
<!-- Node5 -->
<g id="Node000005" class="node">
<title>Node5</title>
<g id="a_Node000005"><a xlink:href="classfr_1_1softsf_1_1canscan_1_1service_1_1_abstract_dynamic_qr_code_worker.html#a827422a0dbc6c5ece6981cdecccbd287" target="_top" xlink:title="Cancels the current SwingWorker and clears its reference safely.">
<polygon fill="white" stroke="#666666" points="848.5,-230 660.75,-230 660.75,-186 848.5,-186 848.5,-230"/>
<text text-anchor="start" x="668.75" y="-216.5" font-family="Helvetica,sans-Serif" font-size="10.00">fr.softsf.canscan.service.</text>
<text text-anchor="start" x="668.75" y="-204.5" font-family="Helvetica,sans-Serif" font-size="10.00">AbstractDynamicQrCodeWorker.cancel</text>
<text text-anchor="middle" x="754.62" y="-192.5" font-family="Helvetica,sans-Serif" font-size="10.00">Worker</text>
</a>
</g>
</g>
<!-- Node4&#45;&gt;Node5 -->
<g id="edge4_Node000004_Node000005" class="edge">
<title>Node4&#45;&gt;Node5</title>
<g id="a_edge4_Node000004_Node000005"><a xlink:title=" ">
<path fill="none" stroke="#63b8ff" d="M607.62,-137.46C613.54,-140.07 619.32,-142.91 624.75,-146 643.1,-156.45 642.39,-166.57 660.75,-177 663.06,-178.31 665.43,-179.58 667.85,-180.8"/>
<polygon fill="#63b8ff" stroke="#63b8ff" points="666.11,-183.85 676.65,-184.93 669.08,-177.51 666.11,-183.85"/>
</a>
</g>
</g>
<!-- Node6 -->
<g id="Node000006" class="node">
<title>Node6</title>
<g id="a_Node000006"><a xlink:href="classfr_1_1softsf_1_1canscan_1_1service_1_1_abstract_dynamic_qr_code_worker.html#a49e1caf8da3d33dde4b1d7e351aecd19" target="_top" xlink:title="Clears any allocated data, icons, or buffers before starting a new task.">
<polygon fill="white" stroke="#666666" points="844.75,-168 664.5,-168 664.5,-124 844.75,-124 844.75,-168"/>
<text text-anchor="start" x="672.5" y="-154.5" font-family="Helvetica,sans-Serif" font-size="10.00">fr.softsf.canscan.service.</text>
<text text-anchor="start" x="672.5" y="-142.5" font-family="Helvetica,sans-Serif" font-size="10.00">AbstractDynamicQrCodeWorker.clear</text>
<text text-anchor="middle" x="754.62" y="-130.5" font-family="Helvetica,sans-Serif" font-size="10.00">Resources</text>
</a>
</g>
</g>
<!-- Node4&#45;&gt;Node6 -->
<g id="edge5_Node000004_Node000006" class="edge">
<title>Node4&#45;&gt;Node6</title>
<g id="a_edge5_Node000004_Node000006"><a xlink:title=" ">
<path fill="none" stroke="#63b8ff" d="M622.51,-127.61C632.5,-129.01 642.72,-130.44 652.83,-131.86"/>
<polygon fill="#63b8ff" stroke="#63b8ff" points="652.29,-135.32 662.67,-133.24 653.26,-128.39 652.29,-135.32"/>
</a>
</g>
</g>
<!-- Node7 -->
<g id="Node000007" class="node">
<title>Node7</title>
<g id="a_Node000007"><a xlink:href="classfr_1_1softsf_1_1canscan_1_1service_1_1_abstract_dynamic_qr_code_worker.html#a5ebccb20366b1496129ad831a399c8d0" target="_top" xlink:title="Stops and clears the debounce timer.">
<polygon fill="white" stroke="#666666" points="843.62,-106 665.62,-106 665.62,-62 843.62,-62 843.62,-106"/>
<text text-anchor="start" x="673.62" y="-92.5" font-family="Helvetica,sans-Serif" font-size="10.00">fr.softsf.canscan.service.</text>
<text text-anchor="start" x="673.62" y="-80.5" font-family="Helvetica,sans-Serif" font-size="10.00">AbstractDynamicQrCodeWorker.stop</text>
<text text-anchor="middle" x="754.62" y="-68.5" font-family="Helvetica,sans-Serif" font-size="10.00">DebounceTimer</text>
</a>
</g>
</g>
<!-- Node4&#45;&gt;Node7 -->
<g id="edge6_Node000004_Node000007" class="edge">
<title>Node4&#45;&gt;Node7</title>
<g id="a_edge6_Node000004_Node000007"><a xlink:title=" ">
<path fill="none" stroke="#63b8ff" d="M622.51,-102.39C632.87,-100.94 643.48,-99.45 653.95,-97.98"/>
<polygon fill="#63b8ff" stroke="#63b8ff" points="654.33,-101.46 663.75,-96.61 653.36,-94.53 654.33,-101.46"/>
</a>
</g>
</g>
<!-- Node8 -->
<g id="Node000008" class="node">
<title>Node8</title>
<g id="a_Node000008"><a xlink:href="classfr_1_1softsf_1_1canscan_1_1service_1_1_abstract_dynamic_qr_code_worker.html#a99151891dd8d4592131c224c1de25ad9" target="_top" xlink:title="Stops the loader&#39;s wait indicator.">
<polygon fill="white" stroke="#666666" points="843.62,-44 665.62,-44 665.62,0 843.62,0 843.62,-44"/>
<text text-anchor="start" x="673.62" y="-30.5" font-family="Helvetica,sans-Serif" font-size="10.00">fr.softsf.canscan.service.</text>
<text text-anchor="start" x="673.62" y="-18.5" font-family="Helvetica,sans-Serif" font-size="10.00">AbstractDynamicQrCodeWorker.stop</text>
<text text-anchor="middle" x="754.62" y="-6.5" font-family="Helvetica,sans-Serif" font-size="10.00">Loader</text>
</a>
</g>
</g>
<!-- Node4&#45;&gt;Node8 -->
<g id="edge7_Node000004_Node000008" class="edge">
<title>Node4&#45;&gt;Node8</title>
<g id="a_edge7_Node000004_Node000008"><a xlink:title=" ">
<path fill="none" stroke="#63b8ff" d="M575.29,-92.65C599.92,-80.18 631.68,-64.83 660.75,-53 664.6,-51.43 668.56,-49.89 672.57,-48.36"/>
<polygon fill="#63b8ff" stroke="#63b8ff" points="673.7,-51.68 681.87,-44.93 671.28,-45.11 673.7,-51.68"/>
</a>
</g>
</g>
</g>
</svg>
