<?xml version="1.0" encoding="UTF-8" standalone="no"?>
<!DOCTYPE svg PUBLIC "-//W3C//DTD SVG 1.1//EN"
 "http://www.w3.org/Graphics/SVG/1.1/DTD/svg11.dtd">
<!-- Generated by graphviz version 12.2.1 (20241206.2353)
 -->
<!-- Title: fr.softsf.canscan.CanScan.launchResizeWorker Pages: 1 -->
<svg width="574pt" height="115pt"
 viewBox="0.00 0.00 573.50 115.00" xmlns="http://www.w3.org/2000/svg" xmlns:xlink="http://www.w3.org/1999/xlink">
<g id="graph0" class="graph" transform="scale(1 1) rotate(0) translate(4 111)">
<title>fr.softsf.canscan.CanScan.launchResizeWorker</title>
<!-- Node1 -->
<g id="Node000001" class="node">
<title>Node1</title>
<g id="a_Node000001"><a xlink:title="Manages the lifecycle of the resize worker by cancelling any existing worker, creating a new SwingWor...">
<polygon fill="#999999" stroke="#666666" points="164.5,-82 0,-82 0,-50 164.5,-50 164.5,-82"/>
<text text-anchor="start" x="8" y="-68.5" font-family="Helvetica,sans-Serif" font-size="10.00">fr.softsf.canscan.CanScan.launch</text>
<text text-anchor="middle" x="82.25" y="-56.5" font-family="Helvetica,sans-Serif" font-size="10.00">ResizeWorker</text>
</a>
</g>
</g>
<!-- Node2 -->
<g id="Node000002" class="node">
<title>Node2</title>
<g id="a_Node000002"><a xlink:href="classfr_1_1softsf_1_1canscan_1_1_can_scan.html#ae299b57aba96ad890bab5bdfaae06f98" target="_top" xlink:title="Cancels any ongoing resize worker if active and waits for its proper termination.">
<polygon fill="white" stroke="#666666" points="365,-107 200.5,-107 200.5,-75 365,-75 365,-107"/>
<text text-anchor="start" x="208.5" y="-93.5" font-family="Helvetica,sans-Serif" font-size="10.00">fr.softsf.canscan.CanScan.cancel</text>
<text text-anchor="middle" x="282.75" y="-81.5" font-family="Helvetica,sans-Serif" font-size="10.00">PreviousResizeWorker</text>
</a>
</g>
</g>
<!-- Node1&#45;&gt;Node2 -->
<g id="edge1_Node000001_Node000002" class="edge">
<title>Node1&#45;&gt;Node2</title>
<g id="a_edge1_Node000001_Node000002"><a xlink:title=" ">
<path fill="none" stroke="#63b8ff" d="M164.85,-76.28C172.77,-77.27 180.85,-78.29 188.87,-79.3"/>
<polygon fill="#63b8ff" stroke="#63b8ff" points="188.29,-82.76 198.65,-80.53 189.16,-75.81 188.29,-82.76"/>
</a>
</g>
</g>
<!-- Node3 -->
<g id="Node000003" class="node">
<title>Node3</title>
<g id="a_Node000003"><a xlink:href="classfr_1_1softsf_1_1canscan_1_1_can_scan.html#aa6e81c2bc494d739a728f4572163b781" target="_top" xlink:title="Creates a background task to resize the QR code image to the specified height.">
<polygon fill="white" stroke="#666666" points="364.25,-57 201.25,-57 201.25,-25 364.25,-25 364.25,-57"/>
<text text-anchor="start" x="209.25" y="-43.5" font-family="Helvetica,sans-Serif" font-size="10.00">fr.softsf.canscan.CanScan.create</text>
<text text-anchor="middle" x="282.75" y="-31.5" font-family="Helvetica,sans-Serif" font-size="10.00">ResizeWorker</text>
</a>
</g>
</g>
<!-- Node1&#45;&gt;Node3 -->
<g id="edge2_Node000001_Node000003" class="edge">
<title>Node1&#45;&gt;Node3</title>
<g id="a_edge2_Node000001_Node000003"><a xlink:title=" ">
<path fill="none" stroke="#63b8ff" d="M164.85,-55.72C173.01,-54.7 181.33,-53.65 189.59,-52.61"/>
<polygon fill="#63b8ff" stroke="#63b8ff" points="189.8,-56.11 199.29,-51.39 188.93,-49.16 189.8,-56.11"/>
</a>
</g>
</g>
<!-- Node4 -->
<g id="Node000004" class="node">
<title>Node4</title>
<g id="a_Node000004"><a xlink:href="classfr_1_1softsf_1_1canscan_1_1_can_scan.html#a1ff2f05476d5b6127e69c1645fd53704" target="_top" xlink:title="Handles resize worker completion: checks cancellation, disposes obsolete icons, updates UI,...">
<polygon fill="white" stroke="#666666" points="565.5,-82 401,-82 401,-50 565.5,-50 565.5,-82"/>
<text text-anchor="start" x="409" y="-68.5" font-family="Helvetica,sans-Serif" font-size="10.00">fr.softsf.canscan.CanScan.handle</text>
<text text-anchor="middle" x="483.25" y="-56.5" font-family="Helvetica,sans-Serif" font-size="10.00">ResizeWorkerCompletion</text>
</a>
</g>
</g>
<!-- Node3&#45;&gt;Node4 -->
<g id="edge3_Node000003_Node000004" class="edge">
<title>Node3&#45;&gt;Node4</title>
<g id="a_edge3_Node000003_Node000004"><a xlink:title=" ">
<path fill="none" stroke="#63b8ff" d="M364.49,-51.17C372.68,-52.2 381.04,-53.25 389.35,-54.3"/>
<polygon fill="#63b8ff" stroke="#63b8ff" points="388.76,-57.75 399.12,-55.53 389.63,-50.81 388.76,-57.75"/>
</a>
</g>
</g>
<!-- Node5 -->
<g id="Node000005" class="node">
<title>Node5</title>
<g id="a_Node000005"><a xlink:href="classfr_1_1softsf_1_1canscan_1_1_can_scan.html#a9ecdcaf8fb8d45df31f2bdf3101243df" target="_top" xlink:title="Performs the image resizing operation on a background thread.">
<polygon fill="white" stroke="#666666" points="564.38,-32 402.12,-32 402.12,0 564.38,0 564.38,-32"/>
<text text-anchor="start" x="410.12" y="-18.5" font-family="Helvetica,sans-Serif" font-size="10.00">fr.softsf.canscan.CanScan.resize</text>
<text text-anchor="middle" x="483.25" y="-6.5" font-family="Helvetica,sans-Serif" font-size="10.00">ImageInBackground</text>
</a>
</g>
</g>
<!-- Node3&#45;&gt;Node5 -->
<g id="edge4_Node000003_Node000005" class="edge">
<title>Node3&#45;&gt;Node5</title>
<g id="a_edge4_Node000003_Node000005"><a xlink:title=" ">
<path fill="none" stroke="#63b8ff" d="M364.49,-30.83C373.07,-29.75 381.84,-28.65 390.54,-27.55"/>
<polygon fill="#63b8ff" stroke="#63b8ff" points="390.92,-31.03 400.4,-26.31 390.05,-24.09 390.92,-31.03"/>
</a>
</g>
</g>
</g>
</svg>
