<?xml version="1.0" encoding="UTF-8" standalone="no"?>
<!DOCTYPE svg PUBLIC "-//W3C//DTD SVG 1.1//EN"
 "http://www.w3.org/Graphics/SVG/1.1/DTD/svg11.dtd">
<!-- Generated by graphviz version 12.2.1 (20241206.2353)
 -->
<!-- Title: fr.softsf.canscan.ui.QrCodePreview.updateQrCodePreview Pages: 1 -->
<!--zoomable 202 -->

<svg id="main" version="1.1" xmlns="http://www.w3.org/2000/svg" xmlns:xlink="http://www.w3.org/1999/xlink" xml:space="preserve" onload="init(evt)">

<style type="text/css"><![CDATA[
.node, .edge {opacity: 0.7;}
.node.selected, .edge.selected {opacity: 1;}
.edge:hover path { stroke: red; }
.edge:hover polygon { stroke: red; fill: red; }
]]></style>

<defs>
  <circle id="rim" cx="0" cy="0" r="7"/>
  <circle id="rim2" cx="0" cy="0" r="3.5"/>
  <g id="zoomPlus">
    <use xlink:href="#rim" fill="#404040"><set attributeName="fill" to="#808080" begin="zoomplus.mouseover" end="zoomplus.mouseout"/></use>
    <path d="M-4,0h8M0,-4v8" fill="none" stroke="white" stroke-width="1.5" pointer-events="none"/>
  </g>
  <g id="zoomMin">
    <use xlink:href="#rim" fill="#404040"><set attributeName="fill" to="#808080" begin="zoomminus.mouseover" end="zoomminus.mouseout"/></use>
    <path d="M-4,0h8" fill="none" stroke="white" stroke-width="1.5" pointer-events="none"/>
  </g>
  <g id="arrowUp" transform="translate(30 24)">
    <use xlink:href="#rim"/>
    <path pointer-events="none" fill="none" stroke="white" stroke-width="1.5" d="M0,-3.0v7 M-2.5,-0.5L0,-3.0L2.5,-0.5"/>
  </g>
  <g id="arrowRight" transform="rotate(90) translate(36 -43)">
    <use xlink:href="#rim"/>
    <path pointer-events="none" fill="none" stroke="white" stroke-width="1.5" d="M0,-3.0v7 M-2.5,-0.5L0,-3.0L2.5,-0.5"/>
  </g>
  <g id="arrowDown" transform="rotate(180) translate(-30 -48)">
    <use xlink:href="#rim"/>
    <path pointer-events="none" fill="none" stroke="white" stroke-width="1.5" d="M0,-3.0v7 M-2.5,-0.5L0,-3.0L2.5,-0.5"/>
  </g>
  <g id="arrowLeft" transform="rotate(270) translate(-36 17)">
    <use xlink:href="#rim"/>
    <path pointer-events="none" fill="none" stroke="white" stroke-width="1.5" d="M0,-3.0v7 M-2.5,-0.5L0,-3.0L2.5,-0.5"/>
  </g>
  <g id="resetDef">
    <use xlink:href="#rim2" fill="#404040"><set attributeName="fill" to="#808080" begin="reset.mouseover" end="reset.mouseout"/></use>
  </g>
</defs>
<script type="application/ecmascript">
var viewWidth = 834;
var viewHeight = 202;
var sectionId = 'dynsection-3';
</script>
<script type="application/ecmascript" xlink:href="svg.min.js"/>
<svg id="graph" class="graph">
<g id="viewport">
<title>fr.softsf.canscan.ui.QrCodePreview.updateQrCodePreview</title>
<!-- Node1 -->
<g id="Node000001" class="node">
<title>Node1</title>
<g id="a_Node000001"><a xlink:title="Updates and schedules a debounced QR code preview refresh.">
<polygon fill="#999999" stroke="#666666" points="151.75,-144 0,-144 0,-112 151.75,-112 151.75,-144"/>
<text text-anchor="start" x="8" y="-130.5" font-family="Helvetica,sans-Serif" font-size="10.00">fr.softsf.canscan.ui.QrCode</text>
<text text-anchor="middle" x="75.88" y="-118.5" font-family="Helvetica,sans-Serif" font-size="10.00">Preview.updateQrCodePreview</text>
</a>
</g>
</g>
<!-- Node2 -->
<g id="Node000002" class="node">
<title>Node2</title>
<g id="a_Node000002"><a xlink:href="classfr_1_1softsf_1_1canscan_1_1service_1_1_abstract_qr_code_worker.html#a6558af04f7318a4f74547c95778fed7c" target="_top" xlink:title="Executes the unified workflow: cancel previous worker, stop debounce, clear resources,...">
<polygon fill="white" stroke="#666666" points="368,-150 187.75,-150 187.75,-106 368,-106 368,-150"/>
<text text-anchor="start" x="195.75" y="-136.5" font-family="Helvetica,sans-Serif" font-size="10.00">fr.softsf.canscan.service.</text>
<text text-anchor="start" x="195.75" y="-124.5" font-family="Helvetica,sans-Serif" font-size="10.00">AbstractQrCodeWorker.resetAndStart</text>
<text text-anchor="middle" x="277.88" y="-112.5" font-family="Helvetica,sans-Serif" font-size="10.00">Worker</text>
</a>
</g>
</g>
<!-- Node1&#45;&gt;Node2 -->
<g id="edge1_Node000001_Node000002" class="edge">
<title>Node1&#45;&gt;Node2</title>
<g id="a_edge1_Node000001_Node000002"><a xlink:title=" ">
<path fill="none" stroke="#63b8ff" d="M152.2,-128C160.03,-128 168.07,-128 176.12,-128"/>
<polygon fill="#63b8ff" stroke="#63b8ff" points="175.97,-131.5 185.97,-128 175.97,-124.5 175.97,-131.5"/>
</a>
</g>
</g>
<!-- Node3 -->
<g id="Node000003" class="node">
<title>Node3</title>
<g id="a_Node000003"><a xlink:href="classfr_1_1softsf_1_1canscan_1_1service_1_1_abstract_qr_code_worker.html#a40caeb7994a66c7cfee85d78ce764026" target="_top" xlink:title="Creates and returns a new SwingWorker for the current operation.">
<polygon fill="white" stroke="#666666" points="582,-169 404,-169 404,-137 582,-137 582,-169"/>
<text text-anchor="start" x="412" y="-155.5" font-family="Helvetica,sans-Serif" font-size="10.00">fr.softsf.canscan.service.</text>
<text text-anchor="middle" x="493" y="-143.5" font-family="Helvetica,sans-Serif" font-size="10.00">AbstractQrCodeWorker.createWorker</text>
</a>
</g>
</g>
<!-- Node2&#45;&gt;Node3 -->
<g id="edge2_Node000002_Node000003" class="edge">
<title>Node2&#45;&gt;Node3</title>
<g id="a_edge2_Node000002_Node000003"><a xlink:title=" ">
<path fill="none" stroke="#63b8ff" d="M368.33,-138.49C376.31,-139.43 384.41,-140.38 392.47,-141.32"/>
<polygon fill="#63b8ff" stroke="#63b8ff" points="391.95,-144.79 402.29,-142.48 392.77,-137.84 391.95,-144.79"/>
</a>
</g>
</g>
<!-- Node4 -->
<g id="Node000004" class="node">
<title>Node4</title>
<g id="a_Node000004"><a xlink:href="classfr_1_1softsf_1_1canscan_1_1service_1_1_abstract_qr_code_worker.html#ad2923dae15a1315f89f6df73d846e87d" target="_top" xlink:title="Resets the current worker and associated resources.">
<polygon fill="white" stroke="#666666" points="579.38,-119 406.62,-119 406.62,-87 579.38,-87 579.38,-119"/>
<text text-anchor="start" x="414.62" y="-105.5" font-family="Helvetica,sans-Serif" font-size="10.00">fr.softsf.canscan.service.</text>
<text text-anchor="middle" x="493" y="-93.5" font-family="Helvetica,sans-Serif" font-size="10.00">AbstractQrCodeWorker.resetWorker</text>
</a>
</g>
</g>
<!-- Node2&#45;&gt;Node4 -->
<g id="edge3_Node000002_Node000004" class="edge">
<title>Node2&#45;&gt;Node4</title>
<g id="a_edge3_Node000002_Node000004"><a xlink:title=" ">
<path fill="none" stroke="#63b8ff" d="M368.33,-117.51C377.14,-116.47 386.11,-115.42 395,-114.38"/>
<polygon fill="#63b8ff" stroke="#63b8ff" points="395.15,-117.88 404.68,-113.24 394.34,-110.93 395.15,-117.88"/>
</a>
</g>
</g>
<!-- Node5 -->
<g id="Node000005" class="node">
<title>Node5</title>
<g id="a_Node000005"><a xlink:href="classfr_1_1softsf_1_1canscan_1_1service_1_1_abstract_qr_code_worker.html#af307a6f804bca23190b6408780c380d0" target="_top" xlink:title="Cancels the current SwingWorker and clears its reference safely.">
<polygon fill="white" stroke="#666666" points="811.75,-194 632.25,-194 632.25,-162 811.75,-162 811.75,-194"/>
<text text-anchor="start" x="640.25" y="-180.5" font-family="Helvetica,sans-Serif" font-size="10.00">fr.softsf.canscan.service.</text>
<text text-anchor="middle" x="722" y="-168.5" font-family="Helvetica,sans-Serif" font-size="10.00">AbstractQrCodeWorker.cancelWorker</text>
</a>
</g>
</g>
<!-- Node4&#45;&gt;Node5 -->
<g id="edge4_Node000004_Node000005" class="edge">
<title>Node4&#45;&gt;Node5</title>
<g id="a_edge4_Node000004_Node000005"><a xlink:title=" ">
<path fill="none" stroke="#63b8ff" d="M560.7,-119.4C568.02,-121.94 575.25,-124.81 582,-128 599.61,-136.33 600.23,-145.01 618,-153 621.79,-154.7 625.71,-156.3 629.71,-157.8"/>
<polygon fill="#63b8ff" stroke="#63b8ff" points="628.43,-161.06 639.03,-161.03 630.73,-154.45 628.43,-161.06"/>
</a>
</g>
</g>
<!-- Node6 -->
<g id="Node000006" class="node">
<title>Node6</title>
<g id="a_Node000006"><a xlink:href="classfr_1_1softsf_1_1canscan_1_1service_1_1_abstract_qr_code_worker.html#a63c4787bd3dbba55917dde56aa4ef5bc" target="_top" xlink:title="Clears any allocated data, icons, or buffers before starting a new task.">
<polygon fill="white" stroke="#666666" points="816.25,-144 627.75,-144 627.75,-112 816.25,-112 816.25,-144"/>
<text text-anchor="start" x="635.75" y="-130.5" font-family="Helvetica,sans-Serif" font-size="10.00">fr.softsf.canscan.service.</text>
<text text-anchor="middle" x="722" y="-118.5" font-family="Helvetica,sans-Serif" font-size="10.00">AbstractQrCodeWorker.clearResources</text>
</a>
</g>
</g>
<!-- Node4&#45;&gt;Node6 -->
<g id="edge5_Node000004_Node000006" class="edge">
<title>Node4&#45;&gt;Node6</title>
<g id="a_edge5_Node000004_Node000006"><a xlink:title=" ">
<path fill="none" stroke="#63b8ff" d="M579.82,-112.45C591.74,-113.76 604.09,-115.12 616.31,-116.47"/>
<polygon fill="#63b8ff" stroke="#63b8ff" points="615.65,-119.92 625.97,-117.53 616.41,-112.96 615.65,-119.92"/>
</a>
</g>
</g>
<!-- Node7 -->
<g id="Node000007" class="node">
<title>Node7</title>
<g id="a_Node000007"><a xlink:href="classfr_1_1softsf_1_1canscan_1_1service_1_1_abstract_qr_code_worker.html#ab11bed09d0e3e1f74e1fb72fdeec8245" target="_top" xlink:title="Stops and clears the debounce timer.">
<polygon fill="white" stroke="#666666" points="826,-94 618,-94 618,-62 826,-62 826,-94"/>
<text text-anchor="start" x="626" y="-80.5" font-family="Helvetica,sans-Serif" font-size="10.00">fr.softsf.canscan.service.</text>
<text text-anchor="middle" x="722" y="-68.5" font-family="Helvetica,sans-Serif" font-size="10.00">AbstractQrCodeWorker.stopDebounceTimer</text>
</a>
</g>
</g>
<!-- Node4&#45;&gt;Node7 -->
<g id="edge6_Node000004_Node000007" class="edge">
<title>Node4&#45;&gt;Node7</title>
<g id="a_edge6_Node000004_Node000007"><a xlink:title=" ">
<path fill="none" stroke="#63b8ff" d="M579.82,-93.55C588.56,-92.59 597.53,-91.6 606.51,-90.61"/>
<polygon fill="#63b8ff" stroke="#63b8ff" points="606.81,-94.1 616.37,-89.52 606.05,-87.14 606.81,-94.1"/>
</a>
</g>
</g>
<!-- Node8 -->
<g id="Node000008" class="node">
<title>Node8</title>
<g id="a_Node000008"><a xlink:href="classfr_1_1softsf_1_1canscan_1_1service_1_1_abstract_qr_code_worker.html#a3ecd1b3ddd1dbf2c2a1e9487ae4bfd59" target="_top" xlink:title="Stops the loader&#39;s wait indicator if assigned.">
<polygon fill="white" stroke="#666666" points="806.12,-44 637.88,-44 637.88,0 806.12,0 806.12,-44"/>
<text text-anchor="start" x="645.88" y="-30.5" font-family="Helvetica,sans-Serif" font-size="10.00">fr.softsf.canscan.service.</text>
<text text-anchor="start" x="645.88" y="-18.5" font-family="Helvetica,sans-Serif" font-size="10.00">AbstractQrCodeWorker.stopLoader</text>
<text text-anchor="middle" x="722" y="-6.5" font-family="Helvetica,sans-Serif" font-size="10.00">IfPresent</text>
</a>
</g>
</g>
<!-- Node4&#45;&gt;Node8 -->
<g id="edge7_Node000004_Node000008" class="edge">
<title>Node4&#45;&gt;Node8</title>
<g id="a_edge7_Node000004_Node000008"><a xlink:title=" ">
<path fill="none" stroke="#63b8ff" d="M532.2,-86.55C556.54,-76.33 588.87,-63.23 618,-53 622.92,-51.27 627.99,-49.55 633.11,-47.86"/>
<polygon fill="#63b8ff" stroke="#63b8ff" points="633.82,-51.31 642.26,-44.9 631.67,-44.65 633.82,-51.31"/>
</a>
</g>
</g>
</g>
</svg>

<g id="navigator" transform="translate(0 0)" fill="#404254">
  <rect fill="#f2f5e9" fill-opacity="0.5" stroke="#606060" stroke-width=".5" x="0" y="0" width="60" height="60"/>
  <use id="zoomplus" xlink:href="#zoomPlus" x="17" y="9" onmousedown="handleZoom(evt,'in')"/>
  <use id="zoomminus" xlink:href="#zoomMin" x="42" y="9" onmousedown="handleZoom(evt,'out')"/>
  <use id="reset" xlink:href="#resetDef" x="30" y="36" onmousedown="handleReset()"/>
   <use id="arrowup" xlink:href="#arrowUp" x="0" y="0" onmousedown="handlePan(0,-1)"/>
  <use id="arrowright" xlink:href="#arrowRight" x="0" y="0" onmousedown="handlePan(1,0)"/>
  <use id="arrowdown" xlink:href="#arrowDown" x="0" y="0" onmousedown="handlePan(0,1)"/>
  <use id="arrowleft" xlink:href="#arrowLeft" x="0" y="0" onmousedown="handlePan(-1,0)"/>
</g>
<svg viewBox="0 0 15 15" width="100%" height="30px" preserveAspectRatio="xMaxYMin meet">
 <g id="arrow_out" transform="scale(0.3 0.3)">
  <a xlink:href="classfr_1_1softsf_1_1canscan_1_1ui_1_1_qr_code_preview_a10fb0d0b8680626ce5d2a7e3deb6f252_cgraph_org.svg" target="_base">
   <rect id="button" ry="5" rx="5" y="6" x="6" height="38" width="38"
        fill="#f2f5e9" fill-opacity="0.5" stroke="#606060" stroke-width="1.0"/>
   <path id="arrow"
     d="M 11.500037,31.436501 C 11.940474,20.09759 22.043105,11.32322 32.158766,21.979434 L 37.068811,17.246167 C 37.068811,17.246167 37.088388,32 37.088388,32 L 22.160133,31.978069 C 22.160133,31.978069 26.997745,27.140456 26.997745,27.140456 C 18.528582,18.264221 13.291696,25.230495 11.500037,31.436501 z"
     style="fill:#404040;"/>
  </a>
 </g>
</svg>

<style type='text/css'>
<![CDATA[
[data-mouse-over-selected='false'] { opacity: 0.7; }
[data-mouse-over-selected='true']  { opacity: 1.0; }
]]>
</style>
<script type="application/ecmascript"><![CDATA[
document.addEventListener('DOMContentLoaded', (event) => {
  highlightEdges();
  highlightAdjacentNodes();
});
]]></script>
</svg>
