<?xml version="1.0" encoding="UTF-8" standalone="no"?>
<!DOCTYPE svg PUBLIC "-//W3C//DTD SVG 1.1//EN"
 "http://www.w3.org/Graphics/SVG/1.1/DTD/svg11.dtd">
<!-- Generated by graphviz version 12.2.1 (20241206.2353)
 -->
<!-- Title: fr.softsf.canscan.CanScan.buildTitle Pages: 1 -->
<svg width="1165pt" height="310pt"
 viewBox="0.00 0.00 1165.25 310.00" xmlns="http://www.w3.org/2000/svg" xmlns:xlink="http://www.w3.org/1999/xlink">
<g id="graph0" class="graph" transform="scale(1 1) rotate(0) translate(4 306)">
<title>fr.softsf.canscan.CanScan.buildTitle</title>
<!-- Node1 -->
<g id="Node000001" class="node">
<title>Node1</title>
<g id="a_Node000001"><a xlink:title="Constructs the application window title using metadata from the version properties.">
<polygon fill="#999999" stroke="#666666" points="156.25,-164 0,-164 0,-132 156.25,-132 156.25,-164"/>
<text text-anchor="start" x="8" y="-150.5" font-family="Helvetica,sans-Serif" font-size="10.00">fr.softsf.canscan.CanScan.build</text>
<text text-anchor="middle" x="78.12" y="-138.5" font-family="Helvetica,sans-Serif" font-size="10.00">Title</text>
</a>
</g>
</g>
<!-- Node2 -->
<g id="Node000002" class="node">
<title>Node2</title>
<g id="a_Node000002"><a xlink:href="classfr_1_1softsf_1_1canscan_1_1_can_scan.html#aefe4d08d96fdc7b2097daf4033bbbb9c" target="_top" xlink:title="Loads application metadata from the version.properties file.">
<polygon fill="white" stroke="#666666" points="341.75,-186 192.25,-186 192.25,-154 341.75,-154 341.75,-186"/>
<text text-anchor="start" x="200.25" y="-172.5" font-family="Helvetica,sans-Serif" font-size="10.00">fr.softsf.canscan.CanScan.get</text>
<text text-anchor="middle" x="267" y="-160.5" font-family="Helvetica,sans-Serif" font-size="10.00">ManifestKeys</text>
</a>
</g>
</g>
<!-- Node1&#45;&gt;Node2 -->
<g id="edge1_Node000001_Node000002" class="edge">
<title>Node1&#45;&gt;Node2</title>
<g id="a_edge1_Node000001_Node000002"><a xlink:title=" ">
<path fill="none" stroke="#63b8ff" d="M156.48,-157.11C164.47,-158.05 172.61,-159.01 180.68,-159.96"/>
<polygon fill="#63b8ff" stroke="#63b8ff" points="180.16,-163.42 190.5,-161.11 180.98,-156.47 180.16,-163.42"/>
</a>
</g>
</g>
<!-- Node3 -->
<g id="Node000003" class="node">
<title>Node3</title>
<g id="a_Node000003"><a xlink:href="classfr_1_1softsf_1_1canscan_1_1_can_scan.html#a102bcbc6cda608b642e870ba3fde6344" target="_top" xlink:title="Initializes the CanScan GUI.">
<polygon fill="white" stroke="#666666" points="513.75,-164 377.75,-164 377.75,-132 513.75,-132 513.75,-164"/>
<text text-anchor="start" x="385.75" y="-150.5" font-family="Helvetica,sans-Serif" font-size="10.00">fr.softsf.canscan.CanScan.</text>
<text text-anchor="middle" x="445.75" y="-138.5" font-family="Helvetica,sans-Serif" font-size="10.00">CanScan</text>
</a>
</g>
</g>
<!-- Node2&#45;&gt;Node3 -->
<g id="edge2_Node000002_Node000003" class="edge">
<title>Node2&#45;&gt;Node3</title>
<g id="a_edge2_Node000002_Node000003"><a xlink:title=" ">
<path fill="none" stroke="#63b8ff" d="M342.19,-160.77C350.15,-159.77 358.27,-158.76 366.28,-157.77"/>
<polygon fill="#63b8ff" stroke="#63b8ff" points="366.51,-161.27 376,-156.56 365.65,-154.32 366.51,-161.27"/>
</a>
</g>
</g>
<!-- Node3&#45;&gt;Node1 -->
<g id="edge5_Node000003_Node000001" class="edge">
<title>Node3&#45;&gt;Node1</title>
<g id="a_edge5_Node000003_Node000001"><a xlink:title=" ">
<path fill="none" stroke="#63b8ff" d="M377.44,-145.76C365.55,-145.44 353.29,-145.17 341.75,-145 275.31,-144.03 258.69,-144.12 192.25,-145 184.44,-145.1 176.33,-145.25 168.19,-145.42"/>
<polygon fill="#63b8ff" stroke="#63b8ff" points="168.14,-141.92 158.22,-145.64 168.3,-148.91 168.14,-141.92"/>
</a>
</g>
</g>
<!-- Node3&#45;&gt;Node3 -->
<g id="edge3_Node000003_Node000003" class="edge">
<title>Node3&#45;&gt;Node3</title>
<g id="a_edge3_Node000003_Node000003"><a xlink:title=" ">
<path fill="none" stroke="#63b8ff" d="M413.84,-164.44C407.88,-173.58 418.52,-182 445.75,-182 460.64,-182 470.57,-179.48 475.54,-175.71"/>
<polygon fill="#63b8ff" stroke="#63b8ff" points="478.97,-176.41 477.38,-165.93 472.09,-175.11 478.97,-176.41"/>
</a>
</g>
</g>
<!-- Node4 -->
<g id="Node000004" class="node">
<title>Node4</title>
<g id="a_Node000004"><a xlink:href="classfr_1_1softsf_1_1canscan_1_1_can_scan.html#a2732ecdc4490a717352975e68fce494c" target="_top" xlink:title="Adds a labeled component row to a panel using GridBagLayout.">
<polygon fill="white" stroke="#666666" points="946.25,-252 774.25,-252 774.25,-232 946.25,-232 946.25,-252"/>
<text text-anchor="middle" x="860.25" y="-238.5" font-family="Helvetica,sans-Serif" font-size="10.00">fr.softsf.canscan.CanScan.addRow</text>
</a>
</g>
</g>
<!-- Node3&#45;&gt;Node4 -->
<g id="edge4_Node000003_Node000004" class="edge">
<title>Node3&#45;&gt;Node4</title>
<g id="a_edge4_Node000003_Node000004"><a xlink:title=" ">
<path fill="none" stroke="#63b8ff" d="M462.84,-164.36C481.75,-182.39 514.99,-210.49 549.75,-223 617.94,-247.53 700,-251.52 762.49,-249.78"/>
<polygon fill="#63b8ff" stroke="#63b8ff" points="762.53,-253.28 772.41,-249.45 762.29,-246.29 762.53,-253.28"/>
</a>
</g>
</g>
<!-- Node5 -->
<g id="Node000005" class="node">
<title>Node5</title>
<g id="a_Node000005"><a xlink:href="classfr_1_1softsf_1_1canscan_1_1_can_scan.html#a2d26dcd1ae708eae46dba8952351aa1a" target="_top" xlink:title="Builds and returns a QrInput object containing all current user inputs and settings.">
<polygon fill="white" stroke="#666666" points="935,-117 785.5,-117 785.5,-85 935,-85 935,-117"/>
<text text-anchor="start" x="793.5" y="-103.5" font-family="Helvetica,sans-Serif" font-size="10.00">fr.softsf.canscan.CanScan.get</text>
<text text-anchor="middle" x="860.25" y="-91.5" font-family="Helvetica,sans-Serif" font-size="10.00">QrInput</text>
</a>
</g>
</g>
<!-- Node3&#45;&gt;Node5 -->
<g id="edge6_Node000003_Node000005" class="edge">
<title>Node3&#45;&gt;Node5</title>
<g id="a_edge6_Node000003_Node000005"><a xlink:title=" ">
<path fill="none" stroke="#63b8ff" d="M507.14,-131.56C521.05,-128.27 535.84,-125.17 549.75,-123 624.91,-111.29 711.32,-105.81 773.71,-103.24"/>
<polygon fill="#63b8ff" stroke="#63b8ff" points="773.7,-106.74 783.56,-102.85 773.43,-99.75 773.7,-106.74"/>
</a>
</g>
</g>
<!-- Node10 -->
<g id="Node000010" class="node">
<title>Node10</title>
<g id="a_Node000010"><a xlink:href="classfr_1_1softsf_1_1canscan_1_1_can_scan.html#addd7b7d7f9cc810756dbbb66218414d4" target="_top" xlink:title="Initializes the FREE mode input panel with a multiline text area for arbitrary text or URLs.">
<polygon fill="white" stroke="#666666" points="718.38,-214 569.62,-214 569.62,-182 718.38,-182 718.38,-214"/>
<text text-anchor="start" x="577.62" y="-200.5" font-family="Helvetica,sans-Serif" font-size="10.00">fr.softsf.canscan.CanScan.init</text>
<text text-anchor="middle" x="644" y="-188.5" font-family="Helvetica,sans-Serif" font-size="10.00">FreeCard</text>
</a>
</g>
</g>
<!-- Node3&#45;&gt;Node10 -->
<g id="edge11_Node000003_Node000010" class="edge">
<title>Node3&#45;&gt;Node10</title>
<g id="a_edge11_Node000003_Node000010"><a xlink:title=" ">
<path fill="none" stroke="#63b8ff" d="M511.28,-164.44C529.22,-169.01 548.86,-174.02 567.38,-178.73"/>
<polygon fill="#63b8ff" stroke="#63b8ff" points="566.41,-182.1 576.96,-181.18 568.14,-175.31 566.41,-182.1"/>
</a>
</g>
</g>
<!-- Node11 -->
<g id="Node000011" class="node">
<title>Node11</title>
<g id="a_Node000011"><a xlink:href="classfr_1_1softsf_1_1canscan_1_1_can_scan.html#a4047170747f52f54ee69ddbc834c5373" target="_top" xlink:title="Sets up automatic QR code preview updates for all input fields and controls.">
<polygon fill="white" stroke="#666666" points="729.62,-164 558.38,-164 558.38,-132 729.62,-132 729.62,-164"/>
<text text-anchor="start" x="566.38" y="-150.5" font-family="Helvetica,sans-Serif" font-size="10.00">fr.softsf.canscan.CanScan.initialize</text>
<text text-anchor="middle" x="644" y="-138.5" font-family="Helvetica,sans-Serif" font-size="10.00">AutomaticQRCodeRendering</text>
</a>
</g>
</g>
<!-- Node3&#45;&gt;Node11 -->
<g id="edge13_Node000003_Node000011" class="edge">
<title>Node3&#45;&gt;Node11</title>
<g id="a_edge13_Node000003_Node000011"><a xlink:title=" ">
<path fill="none" stroke="#63b8ff" d="M514.01,-148C524.55,-148 535.62,-148 546.66,-148"/>
<polygon fill="#63b8ff" stroke="#63b8ff" points="546.62,-151.5 556.62,-148 546.62,-144.5 546.62,-151.5"/>
</a>
</g>
</g>
<!-- Node13 -->
<g id="Node000013" class="node">
<title>Node13</title>
<g id="a_Node000013"><a xlink:href="classfr_1_1softsf_1_1canscan_1_1_can_scan.html#ab78c47588f2cb82b4395a1268b3c4ca4" target="_top" xlink:title="Initializes the MECARD input panel with labeled text fields for structured contact information.">
<polygon fill="white" stroke="#666666" points="718.38,-302 569.62,-302 569.62,-270 718.38,-270 718.38,-302"/>
<text text-anchor="start" x="577.62" y="-288.5" font-family="Helvetica,sans-Serif" font-size="10.00">fr.softsf.canscan.CanScan.init</text>
<text text-anchor="middle" x="644" y="-276.5" font-family="Helvetica,sans-Serif" font-size="10.00">Mecard</text>
</a>
</g>
</g>
<!-- Node3&#45;&gt;Node13 -->
<g id="edge16_Node000003_Node000013" class="edge">
<title>Node3&#45;&gt;Node13</title>
<g id="a_edge16_Node000003_Node000013"><a xlink:title=" ">
<path fill="none" stroke="#63b8ff" d="M458.15,-164.35C475.37,-187.89 510.24,-231.22 549.75,-256 555.2,-259.42 561.07,-262.48 567.12,-265.21"/>
<polygon fill="#63b8ff" stroke="#63b8ff" points="565.45,-268.31 576.03,-268.93 568.15,-261.85 565.45,-268.31"/>
</a>
</g>
</g>
<!-- Node14 -->
<g id="Node000014" class="node">
<title>Node14</title>
<g id="a_Node000014"><a xlink:href="classfr_1_1softsf_1_1canscan_1_1_can_scan.html#abbe4fb71ad979d6affed0b2c9629b832" target="_top" xlink:title="Updates the tooltip of the ratio slider to reflect its current value as a percentage.">
<polygon fill="white" stroke="#666666" points="718.75,-76 569.25,-76 569.25,-44 718.75,-44 718.75,-76"/>
<text text-anchor="start" x="577.25" y="-62.5" font-family="Helvetica,sans-Serif" font-size="10.00">fr.softsf.canscan.CanScan.set</text>
<text text-anchor="middle" x="644" y="-50.5" font-family="Helvetica,sans-Serif" font-size="10.00">RatioSliderTooltipValue</text>
</a>
</g>
</g>
<!-- Node3&#45;&gt;Node14 -->
<g id="edge18_Node000003_Node000014" class="edge">
<title>Node3&#45;&gt;Node14</title>
<g id="a_edge18_Node000003_Node000014"><a xlink:title=" ">
<path fill="none" stroke="#63b8ff" d="M472.25,-131.72C492.65,-119.18 522.3,-102 549.75,-90 557.75,-86.5 566.29,-83.2 574.83,-80.16"/>
<polygon fill="#63b8ff" stroke="#63b8ff" points="575.86,-83.51 584.18,-76.94 573.59,-76.89 575.86,-83.51"/>
</a>
</g>
</g>
<!-- Node15 -->
<g id="Node000015" class="node">
<title>Node15</title>
<g id="a_Node000015"><a xlink:href="classfr_1_1softsf_1_1canscan_1_1_can_scan.html#a428c742b098fa27d4c8984c1030c238d" target="_top" xlink:title="Switches the application between MECARD and FREE QR code modes.">
<polygon fill="white" stroke="#666666" points="738.25,-26 549.75,-26 549.75,-6 738.25,-6 738.25,-26"/>
<text text-anchor="middle" x="644" y="-12.5" font-family="Helvetica,sans-Serif" font-size="10.00">fr.softsf.canscan.CanScan.switchMode</text>
</a>
</g>
</g>
<!-- Node3&#45;&gt;Node15 -->
<g id="edge19_Node000003_Node000015" class="edge">
<title>Node3&#45;&gt;Node15</title>
<g id="a_edge19_Node000003_Node000015"><a xlink:title=" ">
<path fill="none" stroke="#63b8ff" d="M456.79,-131.53C473.02,-106.42 507.51,-58.98 549.75,-35 552.58,-33.39 555.52,-31.92 558.55,-30.58"/>
<polygon fill="#63b8ff" stroke="#63b8ff" points="559.66,-33.9 567.7,-27 557.11,-27.38 559.66,-33.9"/>
</a>
</g>
</g>
<!-- Node6 -->
<g id="Node000006" class="node">
<title>Node6</title>
<g id="a_Node000006"><a xlink:href="classfr_1_1softsf_1_1canscan_1_1_can_scan.html#a22606ca129489c778fbbe17cb8b70697" target="_top" xlink:title="Calculates the available height for QR code rendering.">
<polygon fill="white" stroke="#666666" points="1157.25,-192 982.25,-192 982.25,-160 1157.25,-160 1157.25,-192"/>
<text text-anchor="start" x="990.25" y="-178.5" font-family="Helvetica,sans-Serif" font-size="10.00">fr.softsf.canscan.CanScan.calculate</text>
<text text-anchor="middle" x="1069.75" y="-166.5" font-family="Helvetica,sans-Serif" font-size="10.00">AvailableQrHeight</text>
</a>
</g>
</g>
<!-- Node5&#45;&gt;Node6 -->
<g id="edge7_Node000005_Node000006" class="edge">
<title>Node5&#45;&gt;Node6</title>
<g id="a_edge7_Node000005_Node000006"><a xlink:title=" ">
<path fill="none" stroke="#63b8ff" d="M925.22,-117.38C932.44,-119.94 939.59,-122.81 946.25,-126 963.82,-134.41 964.66,-142.63 982.25,-151 985.57,-152.58 989,-154.08 992.51,-155.5"/>
<polygon fill="#63b8ff" stroke="#63b8ff" points="991.18,-158.74 1001.78,-159 993.66,-152.19 991.18,-158.74"/>
</a>
</g>
</g>
<!-- Node7 -->
<g id="Node000007" class="node">
<title>Node7</title>
<g id="a_Node000007"><a xlink:href="classfr_1_1softsf_1_1canscan_1_1_can_scan.html#a4e67b1b5c764e72414a5c0f387810f5c" target="_top" xlink:title="Validates and returns the current QR code margin from the margin slider.">
<polygon fill="white" stroke="#666666" points="1154.62,-142 984.88,-142 984.88,-110 1154.62,-110 1154.62,-142"/>
<text text-anchor="start" x="992.88" y="-128.5" font-family="Helvetica,sans-Serif" font-size="10.00">fr.softsf.canscan.CanScan.validate</text>
<text text-anchor="middle" x="1069.75" y="-116.5" font-family="Helvetica,sans-Serif" font-size="10.00">AndGetMargin</text>
</a>
</g>
</g>
<!-- Node5&#45;&gt;Node7 -->
<g id="edge8_Node000005_Node000007" class="edge">
<title>Node5&#45;&gt;Node7</title>
<g id="a_edge8_Node000005_Node000007"><a xlink:title=" ">
<path fill="none" stroke="#63b8ff" d="M935.28,-109.92C947.62,-111.41 960.56,-112.97 973.34,-114.5"/>
<polygon fill="#63b8ff" stroke="#63b8ff" points="972.65,-117.95 983,-115.67 973.49,-111 972.65,-117.95"/>
</a>
</g>
</g>
<!-- Node8 -->
<g id="Node000008" class="node">
<title>Node8</title>
<g id="a_Node000008"><a xlink:href="classfr_1_1softsf_1_1canscan_1_1_can_scan.html#a9e8188875168199cde065113ae2a393d" target="_top" xlink:title="Validates and returns the current image&#45;to&#45;QR ratio from the ratio slider.">
<polygon fill="white" stroke="#666666" points="1154.62,-92 984.88,-92 984.88,-60 1154.62,-60 1154.62,-92"/>
<text text-anchor="start" x="992.88" y="-78.5" font-family="Helvetica,sans-Serif" font-size="10.00">fr.softsf.canscan.CanScan.validate</text>
<text text-anchor="middle" x="1069.75" y="-66.5" font-family="Helvetica,sans-Serif" font-size="10.00">AndGetRatio</text>
</a>
</g>
</g>
<!-- Node5&#45;&gt;Node8 -->
<g id="edge9_Node000005_Node000008" class="edge">
<title>Node5&#45;&gt;Node8</title>
<g id="a_edge9_Node000005_Node000008"><a xlink:title=" ">
<path fill="none" stroke="#63b8ff" d="M935.28,-92.08C947.62,-90.59 960.56,-89.03 973.34,-87.5"/>
<polygon fill="#63b8ff" stroke="#63b8ff" points="973.49,-91 983,-86.33 972.65,-84.05 973.49,-91"/>
</a>
</g>
</g>
<!-- Node9 -->
<g id="Node000009" class="node">
<title>Node9</title>
<g id="a_Node000009"><a xlink:href="classfr_1_1softsf_1_1canscan_1_1_can_scan.html#a6d139bb8d0a3c7081096c8956189b684" target="_top" xlink:title="Validates and returns the QR code size from the corresponding text field.">
<polygon fill="white" stroke="#666666" points="1154.62,-42 984.88,-42 984.88,-10 1154.62,-10 1154.62,-42"/>
<text text-anchor="start" x="992.88" y="-28.5" font-family="Helvetica,sans-Serif" font-size="10.00">fr.softsf.canscan.CanScan.validate</text>
<text text-anchor="middle" x="1069.75" y="-16.5" font-family="Helvetica,sans-Serif" font-size="10.00">AndGetSize</text>
</a>
</g>
</g>
<!-- Node5&#45;&gt;Node9 -->
<g id="edge10_Node000005_Node000009" class="edge">
<title>Node5&#45;&gt;Node9</title>
<g id="a_edge10_Node000005_Node000009"><a xlink:title=" ">
<path fill="none" stroke="#63b8ff" d="M897.91,-84.61C921.7,-74.29 953.5,-61.06 982.25,-51 987.24,-49.25 992.43,-47.53 997.67,-45.86"/>
<polygon fill="#63b8ff" stroke="#63b8ff" points="998.5,-49.26 1007.01,-42.95 996.42,-42.58 998.5,-49.26"/>
</a>
</g>
</g>
<!-- Node10&#45;&gt;Node4 -->
<g id="edge12_Node000010_Node000004" class="edge">
<title>Node10&#45;&gt;Node4</title>
<g id="a_edge12_Node000010_Node000004"><a xlink:title=" ">
<path fill="none" stroke="#63b8ff" d="M718.73,-213.14C744.34,-218.4 772.79,-224.24 797.35,-229.29"/>
<polygon fill="#63b8ff" stroke="#63b8ff" points="796.35,-232.66 806.85,-231.24 797.76,-225.8 796.35,-232.66"/>
</a>
</g>
</g>
<!-- Node11&#45;&gt;Node5 -->
<g id="edge14_Node000011_Node000005" class="edge">
<title>Node11&#45;&gt;Node5</title>
<g id="a_edge14_Node000011_Node000005"><a xlink:title=" ">
<path fill="none" stroke="#63b8ff" d="M719.93,-131.56C737.42,-127.73 756.17,-123.61 774.07,-119.69"/>
<polygon fill="#63b8ff" stroke="#63b8ff" points="774.59,-123.16 783.6,-117.59 773.09,-116.32 774.59,-123.16"/>
</a>
</g>
</g>
<!-- Node12 -->
<g id="Node000012" class="node">
<title>Node12</title>
<g id="a_Node000012"><a xlink:href="classfr_1_1softsf_1_1canscan_1_1_can_scan.html#a9856545d05ef553c8dfddd95a850a360" target="_top" xlink:title="Creates a minimal DocumentListener that executes the given action on any document change.">
<polygon fill="white" stroke="#666666" points="942.5,-167 778,-167 778,-135 942.5,-135 942.5,-167"/>
<text text-anchor="start" x="786" y="-153.5" font-family="Helvetica,sans-Serif" font-size="10.00">fr.softsf.canscan.CanScan.simple</text>
<text text-anchor="middle" x="860.25" y="-141.5" font-family="Helvetica,sans-Serif" font-size="10.00">DocumentListener</text>
</a>
</g>
</g>
<!-- Node11&#45;&gt;Node12 -->
<g id="edge15_Node000011_Node000012" class="edge">
<title>Node11&#45;&gt;Node12</title>
<g id="a_edge15_Node000011_Node000012"><a xlink:title=" ">
<path fill="none" stroke="#63b8ff" d="M729.98,-149.19C741.85,-149.36 754.09,-149.53 766.1,-149.7"/>
<polygon fill="#63b8ff" stroke="#63b8ff" points="765.95,-153.19 776,-149.83 766.05,-146.19 765.95,-153.19"/>
</a>
</g>
</g>
<!-- Node13&#45;&gt;Node4 -->
<g id="edge17_Node000013_Node000004" class="edge">
<title>Node13&#45;&gt;Node4</title>
<g id="a_edge17_Node000013_Node000004"><a xlink:title=" ">
<path fill="none" stroke="#63b8ff" d="M718.73,-270.86C744.34,-265.6 772.79,-259.76 797.35,-254.71"/>
<polygon fill="#63b8ff" stroke="#63b8ff" points="797.76,-258.2 806.85,-252.76 796.35,-251.34 797.76,-258.2"/>
</a>
</g>
</g>
<!-- Node15&#45;&gt;Node5 -->
<g id="edge20_Node000015_Node000005" class="edge">
<title>Node15&#45;&gt;Node5</title>
<g id="a_edge20_Node000015_Node000005"><a xlink:title=" ">
<path fill="none" stroke="#63b8ff" d="M709.41,-26.5C719.2,-28.84 729.09,-31.66 738.25,-35 768.93,-46.21 801.29,-64.23 824.82,-78.61"/>
<polygon fill="#63b8ff" stroke="#63b8ff" points="822.71,-81.41 833.05,-83.72 826.4,-75.47 822.71,-81.41"/>
</a>
</g>
</g>
<!-- Node16 -->
<g id="Node000016" class="node">
<title>Node16</title>
<g id="a_Node000016"><a xlink:href="enumfr_1_1softsf_1_1canscan_1_1model_1_1_mode.html#a16a898a11ca939056bd7b275f11ea54c" target="_top" xlink:title="Returns the name of the mode as a string.">
<polygon fill="white" stroke="#666666" points="921.12,-32 799.38,-32 799.38,0 921.12,0 921.12,-32"/>
<text text-anchor="start" x="807.38" y="-18.5" font-family="Helvetica,sans-Serif" font-size="10.00">fr.softsf.canscan.model.</text>
<text text-anchor="middle" x="860.25" y="-6.5" font-family="Helvetica,sans-Serif" font-size="10.00">Mode.text</text>
</a>
</g>
</g>
<!-- Node15&#45;&gt;Node16 -->
<g id="edge21_Node000015_Node000016" class="edge">
<title>Node15&#45;&gt;Node16</title>
<g id="a_edge21_Node000015_Node000016"><a xlink:title=" ">
<path fill="none" stroke="#63b8ff" d="M738.66,-16C755.15,-16 772.08,-16 787.83,-16"/>
<polygon fill="#63b8ff" stroke="#63b8ff" points="787.57,-19.5 797.57,-16 787.57,-12.5 787.57,-19.5"/>
</a>
</g>
</g>
</g>
</svg>
