<?xml version="1.0" encoding="UTF-8" standalone="no"?>
<!DOCTYPE svg PUBLIC "-//W3C//DTD SVG 1.1//EN"
 "http://www.w3.org/Graphics/SVG/1.1/DTD/svg11.dtd">
<!-- Generated by graphviz version 12.2.1 (20241206.2353)
 -->
<!-- Title: fr.softsf.canscan.CanScan.CanScan Pages: 1 -->
<!--zoomable 451 -->

<svg id="main" version="1.1" xmlns="http://www.w3.org/2000/svg" xmlns:xlink="http://www.w3.org/1999/xlink" xml:space="preserve" onload="init(evt)">

<style type="text/css"><![CDATA[
.node, .edge {opacity: 0.7;}
.node.selected, .edge.selected {opacity: 1;}
.edge:hover path { stroke: red; }
.edge:hover polygon { stroke: red; fill: red; }
]]></style>

<defs>
  <circle id="rim" cx="0" cy="0" r="7"/>
  <circle id="rim2" cx="0" cy="0" r="3.5"/>
  <g id="zoomPlus">
    <use xlink:href="#rim" fill="#404040"><set attributeName="fill" to="#808080" begin="zoomplus.mouseover" end="zoomplus.mouseout"/></use>
    <path d="M-4,0h8M0,-4v8" fill="none" stroke="white" stroke-width="1.5" pointer-events="none"/>
  </g>
  <g id="zoomMin">
    <use xlink:href="#rim" fill="#404040"><set attributeName="fill" to="#808080" begin="zoomminus.mouseover" end="zoomminus.mouseout"/></use>
    <path d="M-4,0h8" fill="none" stroke="white" stroke-width="1.5" pointer-events="none"/>
  </g>
  <g id="arrowUp" transform="translate(30 24)">
    <use xlink:href="#rim"/>
    <path pointer-events="none" fill="none" stroke="white" stroke-width="1.5" d="M0,-3.0v7 M-2.5,-0.5L0,-3.0L2.5,-0.5"/>
  </g>
  <g id="arrowRight" transform="rotate(90) translate(36 -43)">
    <use xlink:href="#rim"/>
    <path pointer-events="none" fill="none" stroke="white" stroke-width="1.5" d="M0,-3.0v7 M-2.5,-0.5L0,-3.0L2.5,-0.5"/>
  </g>
  <g id="arrowDown" transform="rotate(180) translate(-30 -48)">
    <use xlink:href="#rim"/>
    <path pointer-events="none" fill="none" stroke="white" stroke-width="1.5" d="M0,-3.0v7 M-2.5,-0.5L0,-3.0L2.5,-0.5"/>
  </g>
  <g id="arrowLeft" transform="rotate(270) translate(-36 17)">
    <use xlink:href="#rim"/>
    <path pointer-events="none" fill="none" stroke="white" stroke-width="1.5" d="M0,-3.0v7 M-2.5,-0.5L0,-3.0L2.5,-0.5"/>
  </g>
  <g id="resetDef">
    <use xlink:href="#rim2" fill="#404040"><set attributeName="fill" to="#808080" begin="reset.mouseover" end="reset.mouseout"/></use>
  </g>
</defs>
<script type="application/ecmascript">
var viewWidth = 1223;
var viewHeight = 451;
var sectionId = 'dynsection-2';
</script>
<script type="application/ecmascript" xlink:href="svg.min.js"/>
<svg id="graph" class="graph">
<g id="viewport">
<title>fr.softsf.canscan.CanScan.CanScan</title>
<!-- Node1 -->
<g id="Node000001" class="node">
<title>Node1</title>
<g id="a_Node000001"><a xlink:title="Constructs the CanScan GUI, setting up layout, panels, inputs, and QR preview.">
<polygon fill="#999999" stroke="#666666" points="136,-186 0,-186 0,-154 136,-154 136,-186"/>
<text text-anchor="start" x="8" y="-172.5" font-family="Helvetica,sans-Serif" font-size="10.00">fr.softsf.canscan.CanScan.</text>
<text text-anchor="middle" x="68" y="-160.5" font-family="Helvetica,sans-Serif" font-size="10.00">CanScan</text>
</a>
</g>
</g>
<!-- Node2 -->
<g id="Node000002" class="node">
<title>Node2</title>
<g id="a_Node000002"><a xlink:href="classfr_1_1softsf_1_1canscan_1_1_can_scan.html#a070115929fdc69b249d21866a00a47cc" target="_top" xlink:title="Assigns stable component names for testing and native&#45;image configuration.">
<polygon fill="white" stroke="#666666" points="343.25,-299 172,-299 172,-267 343.25,-267 343.25,-299"/>
<text text-anchor="start" x="180" y="-285.5" font-family="Helvetica,sans-Serif" font-size="10.00">fr.softsf.canscan.CanScan.initialize</text>
<text text-anchor="middle" x="257.62" y="-273.5" font-family="Helvetica,sans-Serif" font-size="10.00">ComponentNames</text>
</a>
</g>
</g>
<!-- Node1&#45;&gt;Node2 -->
<g id="edge1_Node000001_Node000002" class="edge">
<title>Node1&#45;&gt;Node2</title>
<g id="a_edge1_Node000001_Node000002"><a xlink:title=" ">
<path fill="none" stroke="#63b8ff" d="M85.55,-186.34C104.89,-204.67 138.52,-234.29 172,-253 178.07,-256.39 184.6,-259.51 191.24,-262.36"/>
<polygon fill="#63b8ff" stroke="#63b8ff" points="189.73,-265.52 200.31,-266.02 192.35,-259.03 189.73,-265.52"/>
</a>
</g>
</g>
<!-- Node3 -->
<g id="Node000003" class="node">
<title>Node3</title>
<g id="a_Node000003"><a xlink:href="classfr_1_1softsf_1_1canscan_1_1_can_scan.html#a14263ca931024d56cd9bed4af4b74c25" target="_top" xlink:title="Builds the main panel with header, QR preview overlay, and bottom spacer.">
<polygon fill="white" stroke="#666666" points="550.5,-372 379.25,-372 379.25,-340 550.5,-340 550.5,-372"/>
<text text-anchor="start" x="387.25" y="-358.5" font-family="Helvetica,sans-Serif" font-size="10.00">fr.softsf.canscan.CanScan.initialize</text>
<text text-anchor="middle" x="464.88" y="-346.5" font-family="Helvetica,sans-Serif" font-size="10.00">MainPanel</text>
</a>
</g>
</g>
<!-- Node1&#45;&gt;Node3 -->
<g id="edge2_Node000001_Node000003" class="edge">
<title>Node1&#45;&gt;Node3</title>
<g id="a_edge2_Node000001_Node000003"><a xlink:title=" ">
<path fill="none" stroke="#63b8ff" d="M97.97,-186.33C118.19,-197.15 146.1,-210.98 172,-220 245.62,-245.64 281.92,-209.86 343.25,-258 371.71,-280.34 351.58,-307.7 379.25,-331 380.22,-331.81 381.21,-332.6 382.22,-333.36"/>
<polygon fill="#63b8ff" stroke="#63b8ff" points="380.32,-336.3 390.63,-338.74 384.09,-330.4 380.32,-336.3"/>
</a>
</g>
</g>
<!-- Node13 -->
<g id="Node000013" class="node">
<title>Node13</title>
<g id="a_Node000013"><a xlink:href="classfr_1_1softsf_1_1canscan_1_1_can_scan.html#afb8d451dc5d6d9c7b6700e4b688c98a3" target="_top" xlink:title="Builds the north panel with mode selection, card panels, common fields, and generate button.">
<polygon fill="white" stroke="#666666" points="343.25,-211 172,-211 172,-179 343.25,-179 343.25,-211"/>
<text text-anchor="start" x="180" y="-197.5" font-family="Helvetica,sans-Serif" font-size="10.00">fr.softsf.canscan.CanScan.initialize</text>
<text text-anchor="middle" x="257.62" y="-185.5" font-family="Helvetica,sans-Serif" font-size="10.00">NorthPanel</text>
</a>
</g>
</g>
<!-- Node1&#45;&gt;Node13 -->
<g id="edge14_Node000001_Node000013" class="edge">
<title>Node1&#45;&gt;Node13</title>
<g id="a_edge14_Node000001_Node000013"><a xlink:title=" ">
<path fill="none" stroke="#63b8ff" d="M136.47,-178.99C144.26,-180.03 152.3,-181.1 160.37,-182.17"/>
<polygon fill="#63b8ff" stroke="#63b8ff" points="159.9,-185.64 170.27,-183.49 160.82,-178.7 159.9,-185.64"/>
</a>
</g>
</g>
<!-- Node29 -->
<g id="Node000029" class="node">
<title>Node29</title>
<g id="a_Node000029"><a xlink:href="classfr_1_1softsf_1_1canscan_1_1_can_scan.html#a4928478365bc812571ac037662cc5f6b" target="_top" xlink:title="Wraps the main panel in a scrollable container.">
<polygon fill="white" stroke="#666666" points="343.25,-161 172,-161 172,-129 343.25,-129 343.25,-161"/>
<text text-anchor="start" x="180" y="-147.5" font-family="Helvetica,sans-Serif" font-size="10.00">fr.softsf.canscan.CanScan.initialize</text>
<text text-anchor="middle" x="257.62" y="-135.5" font-family="Helvetica,sans-Serif" font-size="10.00">ScrollPane</text>
</a>
</g>
</g>
<!-- Node1&#45;&gt;Node29 -->
<g id="edge32_Node000001_Node000029" class="edge">
<title>Node1&#45;&gt;Node29</title>
<g id="a_edge32_Node000001_Node000029"><a xlink:title=" ">
<path fill="none" stroke="#63b8ff" d="M136.47,-161.01C144.26,-159.97 152.3,-158.9 160.37,-157.83"/>
<polygon fill="#63b8ff" stroke="#63b8ff" points="160.82,-161.3 170.27,-156.51 159.9,-154.36 160.82,-161.3"/>
</a>
</g>
</g>
<!-- Node30 -->
<g id="Node000030" class="node">
<title>Node30</title>
<g id="a_Node000030"><a xlink:href="classfr_1_1softsf_1_1canscan_1_1_can_scan.html#a358629f85831dc6cd4978c8854d88561" target="_top" xlink:title="Configures sliders for logo margin and ratio.">
<polygon fill="white" stroke="#666666" points="343.25,-111 172,-111 172,-79 343.25,-79 343.25,-111"/>
<text text-anchor="start" x="180" y="-97.5" font-family="Helvetica,sans-Serif" font-size="10.00">fr.softsf.canscan.CanScan.initialize</text>
<text text-anchor="middle" x="257.62" y="-85.5" font-family="Helvetica,sans-Serif" font-size="10.00">Sliders</text>
</a>
</g>
</g>
<!-- Node1&#45;&gt;Node30 -->
<g id="edge33_Node000001_Node000030" class="edge">
<title>Node1&#45;&gt;Node30</title>
<g id="a_edge33_Node000001_Node000030"><a xlink:title=" ">
<path fill="none" stroke="#63b8ff" d="M99.51,-153.55C119.7,-143.07 146.98,-129.69 172,-120 176.42,-118.29 181.01,-116.62 185.66,-115.02"/>
<polygon fill="#63b8ff" stroke="#63b8ff" points="186.74,-118.35 195.13,-111.88 184.54,-111.71 186.74,-118.35"/>
</a>
</g>
</g>
<!-- Node31 -->
<g id="Node000031" class="node">
<title>Node31</title>
<g id="a_Node000031"><a xlink:href="classfr_1_1softsf_1_1canscan_1_1_can_scan.html#a0a52159db640660477196e337ec62a9b" target="_top" xlink:title="Finalizes window layout: packs components, adjusts size for QR display and loader,...">
<polygon fill="white" stroke="#666666" points="343.25,-50 172,-50 172,-18 343.25,-18 343.25,-50"/>
<text text-anchor="start" x="180" y="-36.5" font-family="Helvetica,sans-Serif" font-size="10.00">fr.softsf.canscan.CanScan.initialize</text>
<text text-anchor="middle" x="257.62" y="-24.5" font-family="Helvetica,sans-Serif" font-size="10.00">Window</text>
</a>
</g>
</g>
<!-- Node1&#45;&gt;Node31 -->
<g id="edge34_Node000001_Node000031" class="edge">
<title>Node1&#45;&gt;Node31</title>
<g id="a_edge34_Node000001_Node000031"><a xlink:title=" ">
<path fill="none" stroke="#63b8ff" d="M82.5,-153.55C100.88,-132 135.67,-94.14 172,-70 180.31,-64.48 189.6,-59.51 198.91,-55.15"/>
<polygon fill="#63b8ff" stroke="#63b8ff" points="200.27,-58.37 207.98,-51.11 197.42,-51.98 200.27,-58.37"/>
</a>
</g>
</g>
<!-- Node4 -->
<g id="Node000004" class="node">
<title>Node4</title>
<g id="a_Node000004"><a xlink:href="classfr_1_1softsf_1_1canscan_1_1_can_scan.html#ad470e3c0750cf142dc611b1aeeda3a97" target="_top" xlink:title="Attaches automatic QR preview updates and input validation to all fields and controls.">
<polygon fill="white" stroke="#666666" points="779.5,-392 586.5,-392 586.5,-360 779.5,-360 779.5,-392"/>
<text text-anchor="start" x="594.5" y="-378.5" font-family="Helvetica,sans-Serif" font-size="10.00">fr.softsf.canscan.CanScan.automatic</text>
<text text-anchor="middle" x="683" y="-366.5" font-family="Helvetica,sans-Serif" font-size="10.00">QRCodeRenderingForFieldsAndControls</text>
</a>
</g>
</g>
<!-- Node3&#45;&gt;Node4 -->
<g id="edge3_Node000003_Node000004" class="edge">
<title>Node3&#45;&gt;Node4</title>
<g id="a_edge3_Node000003_Node000004"><a xlink:title=" ">
<path fill="none" stroke="#63b8ff" d="M550.98,-363.88C558.85,-364.6 566.89,-365.35 574.92,-366.09"/>
<polygon fill="#63b8ff" stroke="#63b8ff" points="574.46,-369.56 584.74,-367 575.11,-362.59 574.46,-369.56"/>
</a>
</g>
</g>
<!-- Node7 -->
<g id="Node000007" class="node">
<title>Node7</title>
<g id="a_Node000007"><a xlink:href="classfr_1_1softsf_1_1canscan_1_1_can_scan.html#a180290bc488e2346592ded98ccc4b1f3" target="_top" xlink:title="Collects current input and visual settings into a WholeFields for QR code generation.">
<polygon fill="white" stroke="#666666" points="980.38,-304 830.88,-304 830.88,-272 980.38,-272 980.38,-304"/>
<text text-anchor="start" x="838.88" y="-290.5" font-family="Helvetica,sans-Serif" font-size="10.00">fr.softsf.canscan.CanScan.get</text>
<text text-anchor="middle" x="905.62" y="-278.5" font-family="Helvetica,sans-Serif" font-size="10.00">QrInput</text>
</a>
</g>
</g>
<!-- Node3&#45;&gt;Node7 -->
<g id="edge13_Node000003_Node000007" class="edge">
<title>Node3&#45;&gt;Node7</title>
<g id="a_edge13_Node000003_Node000007"><a xlink:title=" ">
<path fill="none" stroke="#63b8ff" d="M550.95,-345.76C614.15,-337.81 702.41,-325.97 779.5,-313 792.47,-310.82 806.16,-308.3 819.53,-305.73"/>
<polygon fill="#63b8ff" stroke="#63b8ff" points="820.03,-309.19 829.17,-303.84 818.69,-302.32 820.03,-309.19"/>
</a>
</g>
</g>
<!-- Node5 -->
<g id="Node000005" class="node">
<title>Node5</title>
<g id="a_Node000005"><a xlink:href="enumfr_1_1softsf_1_1canscan_1_1ui_1_1_ui_components_configuration.html#afe8da76131acc9dd19a15d7f22ca9ef1" target="_top" xlink:title="Attaches a DocumentListener to a JTextField that:">
<polygon fill="white" stroke="#666666" points="995.75,-443 815.5,-443 815.5,-399 995.75,-399 995.75,-443"/>
<text text-anchor="start" x="823.5" y="-429.5" font-family="Helvetica,sans-Serif" font-size="10.00">fr.softsf.canscan.ui.UiComponents</text>
<text text-anchor="start" x="823.5" y="-417.5" font-family="Helvetica,sans-Serif" font-size="10.00">Configuration.attachLimitedDocument</text>
<text text-anchor="middle" x="905.62" y="-405.5" font-family="Helvetica,sans-Serif" font-size="10.00">Listener</text>
</a>
</g>
</g>
<!-- Node4&#45;&gt;Node5 -->
<g id="edge4_Node000004_Node000005" class="edge">
<title>Node4&#45;&gt;Node5</title>
<g id="a_edge4_Node000004_Node000005"><a xlink:title=" ">
<path fill="none" stroke="#63b8ff" d="M764.59,-392.44C777.47,-395.07 790.94,-397.81 804.22,-400.52"/>
<polygon fill="#63b8ff" stroke="#63b8ff" points="803.33,-403.91 813.83,-402.48 804.73,-397.05 803.33,-403.91"/>
</a>
</g>
</g>
<!-- Node6 -->
<g id="Node000006" class="node">
<title>Node6</title>
<g id="a_Node000006"><a xlink:href="enumfr_1_1softsf_1_1canscan_1_1ui_1_1_ui_components_configuration.html#aa700d9f2a270f6e54fcb53111855fa44" target="_top" xlink:title="Creates a simple DocumentListener that executes the given action on any change to the document.">
<polygon fill="white" stroke="#666666" points="1215,-428 1031.75,-428 1031.75,-396 1215,-396 1215,-428"/>
<text text-anchor="start" x="1039.75" y="-414.5" font-family="Helvetica,sans-Serif" font-size="10.00">fr.softsf.canscan.ui.UiComponents</text>
<text text-anchor="middle" x="1123.38" y="-402.5" font-family="Helvetica,sans-Serif" font-size="10.00">Configuration.createDocumentListener</text>
</a>
</g>
</g>
<!-- Node4&#45;&gt;Node6 -->
<g id="edge6_Node000004_Node000006" class="edge">
<title>Node4&#45;&gt;Node6</title>
<g id="a_edge6_Node000004_Node000006"><a xlink:title=" ">
<path fill="none" stroke="#63b8ff" d="M779.75,-377.15C841.55,-378.67 923.58,-382.14 995.75,-390 1005.34,-391.04 1015.3,-392.36 1025.24,-393.83"/>
<polygon fill="#63b8ff" stroke="#63b8ff" points="1024.51,-397.26 1034.92,-395.32 1025.57,-390.34 1024.51,-397.26"/>
</a>
</g>
</g>
<!-- Node4&#45;&gt;Node7 -->
<g id="edge7_Node000004_Node000007" class="edge">
<title>Node4&#45;&gt;Node7</title>
<g id="a_edge7_Node000004_Node000007"><a xlink:title=" ">
<path fill="none" stroke="#63b8ff" d="M740.73,-359.51C753.58,-355.41 767.1,-350.8 779.5,-346 807.51,-335.16 838.11,-321.02 862.04,-309.41"/>
<polygon fill="#63b8ff" stroke="#63b8ff" points="863.39,-312.65 870.84,-305.11 860.32,-306.36 863.39,-312.65"/>
</a>
</g>
</g>
<!-- Node5&#45;&gt;Node6 -->
<g id="edge5_Node000005_Node000006" class="edge">
<title>Node5&#45;&gt;Node6</title>
<g id="a_edge5_Node000005_Node000006"><a xlink:title=" ">
<path fill="none" stroke="#63b8ff" d="M996.25,-417.26C1004.03,-416.94 1011.94,-416.61 1019.81,-416.28"/>
<polygon fill="#63b8ff" stroke="#63b8ff" points="1019.94,-419.78 1029.78,-415.86 1019.64,-412.78 1019.94,-419.78"/>
</a>
</g>
</g>
<!-- Node8 -->
<g id="Node000008" class="node">
<title>Node8</title>
<g id="a_Node000008"><a xlink:href="classfr_1_1softsf_1_1canscan_1_1_can_scan.html#a381368b99c4a0857c6abe6349b2c6d27" target="_top" xlink:title="Calculates the available height for QR code rendering.">
<polygon fill="white" stroke="#666666" points="1210.88,-35 1035.88,-35 1035.88,-3 1210.88,-3 1210.88,-35"/>
<text text-anchor="start" x="1043.88" y="-21.5" font-family="Helvetica,sans-Serif" font-size="10.00">fr.softsf.canscan.CanScan.calculate</text>
<text text-anchor="middle" x="1123.38" y="-9.5" font-family="Helvetica,sans-Serif" font-size="10.00">AvailableQrCodeLabelHeight</text>
</a>
</g>
</g>
<!-- Node7&#45;&gt;Node8 -->
<g id="edge8_Node000007_Node000008" class="edge">
<title>Node7&#45;&gt;Node8</title>
<g id="a_edge8_Node000007_Node000008"><a xlink:title=" ">
<path fill="none" stroke="#63b8ff" d="M919.23,-271.73C937.85,-247.11 972.98,-198.45 995.75,-153 1016.91,-110.77 998.57,-86.62 1031.75,-53 1036.36,-48.33 1041.68,-44.29 1047.38,-40.8"/>
<polygon fill="#63b8ff" stroke="#63b8ff" points="1048.82,-44 1055.94,-36.15 1045.48,-37.84 1048.82,-44"/>
</a>
</g>
</g>
<!-- Node9 -->
<g id="Node000009" class="node">
<title>Node9</title>
<g id="a_Node000009"><a xlink:href="classfr_1_1softsf_1_1canscan_1_1_can_scan.html#a4e67b1b5c764e72414a5c0f387810f5c" target="_top" xlink:title="Validates and returns the current QR code margin from the margin slider.">
<polygon fill="white" stroke="#666666" points="1208.25,-323 1038.5,-323 1038.5,-291 1208.25,-291 1208.25,-323"/>
<text text-anchor="start" x="1046.5" y="-309.5" font-family="Helvetica,sans-Serif" font-size="10.00">fr.softsf.canscan.CanScan.validate</text>
<text text-anchor="middle" x="1123.38" y="-297.5" font-family="Helvetica,sans-Serif" font-size="10.00">AndGetMargin</text>
</a>
</g>
</g>
<!-- Node7&#45;&gt;Node9 -->
<g id="edge9_Node000007_Node000009" class="edge">
<title>Node7&#45;&gt;Node9</title>
<g id="a_edge9_Node000007_Node000009"><a xlink:title=" ">
<path fill="none" stroke="#63b8ff" d="M980.87,-294.54C995.78,-295.85 1011.64,-297.25 1027.15,-298.61"/>
<polygon fill="#63b8ff" stroke="#63b8ff" points="1026.59,-302.08 1036.85,-299.47 1027.2,-295.1 1026.59,-302.08"/>
</a>
</g>
</g>
<!-- Node10 -->
<g id="Node000010" class="node">
<title>Node10</title>
<g id="a_Node000010"><a xlink:href="classfr_1_1softsf_1_1canscan_1_1_can_scan.html#a8a2b238ac4af96d8710b3e5d7d051f77" target="_top" xlink:title="Validates and returns the current meet UID from the meet title field.">
<polygon fill="white" stroke="#666666" points="1208.25,-273 1038.5,-273 1038.5,-241 1208.25,-241 1208.25,-273"/>
<text text-anchor="start" x="1046.5" y="-259.5" font-family="Helvetica,sans-Serif" font-size="10.00">fr.softsf.canscan.CanScan.validate</text>
<text text-anchor="middle" x="1123.38" y="-247.5" font-family="Helvetica,sans-Serif" font-size="10.00">AndGetMeetUID</text>
</a>
</g>
</g>
<!-- Node7&#45;&gt;Node10 -->
<g id="edge10_Node000007_Node000010" class="edge">
<title>Node7&#45;&gt;Node10</title>
<g id="a_edge10_Node000007_Node000010"><a xlink:title=" ">
<path fill="none" stroke="#63b8ff" d="M980.87,-277.33C995.78,-275.19 1011.64,-272.91 1027.15,-270.68"/>
<polygon fill="#63b8ff" stroke="#63b8ff" points="1027.46,-274.17 1036.86,-269.29 1026.47,-267.24 1027.46,-274.17"/>
</a>
</g>
</g>
<!-- Node11 -->
<g id="Node000011" class="node">
<title>Node11</title>
<g id="a_Node000011"><a xlink:href="classfr_1_1softsf_1_1canscan_1_1_can_scan.html#a9e8188875168199cde065113ae2a393d" target="_top" xlink:title="Validates and returns the current image&#45;to&#45;QR ratio from the ratio slider.">
<polygon fill="white" stroke="#666666" points="1208.25,-223 1038.5,-223 1038.5,-191 1208.25,-191 1208.25,-223"/>
<text text-anchor="start" x="1046.5" y="-209.5" font-family="Helvetica,sans-Serif" font-size="10.00">fr.softsf.canscan.CanScan.validate</text>
<text text-anchor="middle" x="1123.38" y="-197.5" font-family="Helvetica,sans-Serif" font-size="10.00">AndGetRatio</text>
</a>
</g>
</g>
<!-- Node7&#45;&gt;Node11 -->
<g id="edge11_Node000007_Node000011" class="edge">
<title>Node7&#45;&gt;Node11</title>
<g id="a_edge11_Node000007_Node000011"><a xlink:title=" ">
<path fill="none" stroke="#63b8ff" d="M939.78,-271.5C964.68,-259.52 999.83,-243.47 1031.75,-232 1036.77,-230.2 1041.98,-228.45 1047.25,-226.77"/>
<polygon fill="#63b8ff" stroke="#63b8ff" points="1048.15,-230.15 1056.68,-223.86 1046.09,-223.46 1048.15,-230.15"/>
</a>
</g>
</g>
<!-- Node12 -->
<g id="Node000012" class="node">
<title>Node12</title>
<g id="a_Node000012"><a xlink:href="classfr_1_1softsf_1_1canscan_1_1_can_scan.html#a6d139bb8d0a3c7081096c8956189b684" target="_top" xlink:title="Validates and returns the QR code size from the corresponding text field.">
<polygon fill="white" stroke="#666666" points="1208.25,-373 1038.5,-373 1038.5,-341 1208.25,-341 1208.25,-373"/>
<text text-anchor="start" x="1046.5" y="-359.5" font-family="Helvetica,sans-Serif" font-size="10.00">fr.softsf.canscan.CanScan.validate</text>
<text text-anchor="middle" x="1123.38" y="-347.5" font-family="Helvetica,sans-Serif" font-size="10.00">AndGetSize</text>
</a>
</g>
</g>
<!-- Node7&#45;&gt;Node12 -->
<g id="edge12_Node000007_Node000012" class="edge">
<title>Node7&#45;&gt;Node12</title>
<g id="a_edge12_Node000007_Node000012"><a xlink:title=" ">
<path fill="none" stroke="#63b8ff" d="M950.97,-304.43C974.78,-313.04 1004.72,-323.53 1031.75,-332 1037.59,-333.83 1043.66,-335.66 1049.78,-337.45"/>
<polygon fill="#63b8ff" stroke="#63b8ff" points="1048.75,-340.8 1059.33,-340.21 1050.69,-334.07 1048.75,-340.8"/>
</a>
</g>
</g>
<!-- Node14 -->
<g id="Node000014" class="node">
<title>Node14</title>
<g id="a_Node000014"><a xlink:href="classfr_1_1softsf_1_1canscan_1_1_can_scan.html#ab2e018ca62c7497c29e84f42ae870daa" target="_top" xlink:title="Adds MECARD MEET FREE card panels to the north panel.">
<polygon fill="white" stroke="#666666" points="540.75,-222 389,-222 389,-190 540.75,-190 540.75,-222"/>
<text text-anchor="start" x="397" y="-208.5" font-family="Helvetica,sans-Serif" font-size="10.00">fr.softsf.canscan.CanScan.add</text>
<text text-anchor="middle" x="464.88" y="-196.5" font-family="Helvetica,sans-Serif" font-size="10.00">NorthPanelCardPanels</text>
</a>
</g>
</g>
<!-- Node13&#45;&gt;Node14 -->
<g id="edge15_Node000013_Node000014" class="edge">
<title>Node13&#45;&gt;Node14</title>
<g id="a_edge15_Node000013_Node000014"><a xlink:title=" ">
<path fill="none" stroke="#63b8ff" d="M343.59,-199.55C354.84,-200.16 366.38,-200.77 377.65,-201.38"/>
<polygon fill="#63b8ff" stroke="#63b8ff" points="377.12,-204.86 387.3,-201.9 377.5,-197.87 377.12,-204.86"/>
</a>
</g>
</g>
<!-- Node18 -->
<g id="Node000018" class="node">
<title>Node18</title>
<g id="a_Node000018"><a xlink:href="classfr_1_1softsf_1_1canscan_1_1_can_scan.html#a94ab4df98de0d05977e6a65ab75f89f0" target="_top" xlink:title="Adds common input fields to the north panel.">
<polygon fill="white" stroke="#666666" points="540.75,-322 389,-322 389,-290 540.75,-290 540.75,-322"/>
<text text-anchor="start" x="397" y="-308.5" font-family="Helvetica,sans-Serif" font-size="10.00">fr.softsf.canscan.CanScan.add</text>
<text text-anchor="middle" x="464.88" y="-296.5" font-family="Helvetica,sans-Serif" font-size="10.00">NorthPanelCommonFields</text>
</a>
</g>
</g>
<!-- Node13&#45;&gt;Node18 -->
<g id="edge19_Node000013_Node000018" class="edge">
<title>Node13&#45;&gt;Node18</title>
<g id="a_edge19_Node000013_Node000018"><a xlink:title=" ">
<path fill="none" stroke="#63b8ff" d="M320.35,-211.39C328.51,-215.09 336.41,-219.58 343.25,-225 366.44,-243.38 355.58,-263.25 379.25,-281 380.77,-282.14 382.33,-283.22 383.95,-284.26"/>
<polygon fill="#63b8ff" stroke="#63b8ff" points="381.82,-287.08 392.26,-288.93 385.26,-280.98 381.82,-287.08"/>
</a>
</g>
</g>
<!-- Node20 -->
<g id="Node000020" class="node">
<title>Node20</title>
<g id="a_Node000020"><a xlink:href="classfr_1_1softsf_1_1canscan_1_1_can_scan.html#a9f205dfdb266d5d7f8f8899b69742663" target="_top" xlink:title="Adds the generate button to the north panel.">
<polygon fill="white" stroke="#666666" points="540.75,-172 389,-172 389,-140 540.75,-140 540.75,-172"/>
<text text-anchor="start" x="397" y="-158.5" font-family="Helvetica,sans-Serif" font-size="10.00">fr.softsf.canscan.CanScan.add</text>
<text text-anchor="middle" x="464.88" y="-146.5" font-family="Helvetica,sans-Serif" font-size="10.00">NorthPanelGenerateButton</text>
</a>
</g>
</g>
<!-- Node13&#45;&gt;Node20 -->
<g id="edge22_Node000013_Node000020" class="edge">
<title>Node13&#45;&gt;Node20</title>
<g id="a_edge22_Node000013_Node000020"><a xlink:title=" ">
<path fill="none" stroke="#63b8ff" d="M343.59,-178.86C354.84,-176.72 366.38,-174.53 377.65,-172.38"/>
<polygon fill="#63b8ff" stroke="#63b8ff" points="378.15,-175.85 387.32,-170.55 376.84,-168.97 378.15,-175.85"/>
</a>
</g>
</g>
<!-- Node21 -->
<g id="Node000021" class="node">
<title>Node21</title>
<g id="a_Node000021"><a xlink:href="classfr_1_1softsf_1_1canscan_1_1_can_scan.html#aa469763b92dd7cbc6dfdb9aaa0116b33" target="_top" xlink:title="Adds mode selection controls (MECARD/MEET/FREE) to the north panel.">
<polygon fill="white" stroke="#666666" points="540.75,-122 389,-122 389,-90 540.75,-90 540.75,-122"/>
<text text-anchor="start" x="397" y="-108.5" font-family="Helvetica,sans-Serif" font-size="10.00">fr.softsf.canscan.CanScan.add</text>
<text text-anchor="middle" x="464.88" y="-96.5" font-family="Helvetica,sans-Serif" font-size="10.00">NorthPanelModeSelection</text>
</a>
</g>
</g>
<!-- Node13&#45;&gt;Node21 -->
<g id="edge23_Node000013_Node000021" class="edge">
<title>Node13&#45;&gt;Node21</title>
<g id="a_edge23_Node000013_Node000021"><a xlink:title=" ">
<path fill="none" stroke="#63b8ff" d="M326.58,-178.55C332.4,-176.07 338.05,-173.24 343.25,-170 363.28,-157.54 359.22,-143.46 379.25,-131 381.28,-129.74 383.38,-128.53 385.53,-127.39"/>
<polygon fill="#63b8ff" stroke="#63b8ff" points="387.02,-130.56 394.55,-123.1 384.02,-124.23 387.02,-130.56"/>
</a>
</g>
</g>
<!-- Node27 -->
<g id="Node000027" class="node">
<title>Node27</title>
<g id="a_Node000027"><a xlink:href="classfr_1_1softsf_1_1canscan_1_1_can_scan.html#ada8edc3d5abda489ce9f75a0613cfc71" target="_top" xlink:title="Creates the base north panel with layout, maximum width, and padding applied.">
<polygon fill="white" stroke="#666666" points="539.62,-72 390.12,-72 390.12,-40 539.62,-40 539.62,-72"/>
<text text-anchor="start" x="398.12" y="-58.5" font-family="Helvetica,sans-Serif" font-size="10.00">fr.softsf.canscan.CanScan.get</text>
<text text-anchor="middle" x="464.88" y="-46.5" font-family="Helvetica,sans-Serif" font-size="10.00">NorthJPanel</text>
</a>
</g>
</g>
<!-- Node13&#45;&gt;Node27 -->
<g id="edge30_Node000013_Node000027" class="edge">
<title>Node13&#45;&gt;Node27</title>
<g id="a_edge30_Node000013_Node000027"><a xlink:title=" ">
<path fill="none" stroke="#63b8ff" d="M331.27,-178.64C335.57,-176.16 339.62,-173.29 343.25,-170 374.85,-141.33 347.65,-109.67 379.25,-81 380.16,-80.18 381.09,-79.38 382.05,-78.61"/>
<polygon fill="#63b8ff" stroke="#63b8ff" points="383.68,-81.73 389.97,-73.21 379.74,-75.95 383.68,-81.73"/>
</a>
</g>
</g>
<!-- Node28 -->
<g id="Node000028" class="node">
<title>Node28</title>
<g id="a_Node000028"><a xlink:href="classfr_1_1softsf_1_1canscan_1_1_can_scan.html#aeb5550da33925e95999aae23f525f7c5" target="_top" xlink:title="Creates default GridBagConstraints for consistent layout configuration.">
<polygon fill="white" stroke="#666666" points="543.75,-272 386,-272 386,-240 543.75,-240 543.75,-272"/>
<text text-anchor="start" x="394" y="-258.5" font-family="Helvetica,sans-Serif" font-size="10.00">fr.softsf.canscan.CanScan.north</text>
<text text-anchor="middle" x="464.88" y="-246.5" font-family="Helvetica,sans-Serif" font-size="10.00">PanelGridBagConstraints</text>
</a>
</g>
</g>
<!-- Node13&#45;&gt;Node28 -->
<g id="edge31_Node000013_Node000028" class="edge">
<title>Node13&#45;&gt;Node28</title>
<g id="a_edge31_Node000013_Node000028"><a xlink:title=" ">
<path fill="none" stroke="#63b8ff" d="M313.56,-211.43C334.16,-217.58 357.78,-224.62 379.25,-231 385.12,-232.74 391.23,-234.55 397.35,-236.37"/>
<polygon fill="#63b8ff" stroke="#63b8ff" points="396.3,-239.71 406.88,-239.19 398.29,-232.99 396.3,-239.71"/>
</a>
</g>
</g>
<!-- Node15 -->
<g id="Node000015" class="node">
<title>Node15</title>
<g id="a_Node000015"><a xlink:href="classfr_1_1softsf_1_1canscan_1_1_can_scan.html#a38d65dd319daee1c3288690c17e43ca5" target="_top" xlink:title="Populates the FREE panel with a multiline text area.">
<polygon fill="white" stroke="#666666" points="769.75,-216 596.25,-216 596.25,-196 769.75,-196 769.75,-216"/>
<text text-anchor="middle" x="683" y="-202.5" font-family="Helvetica,sans-Serif" font-size="10.00">fr.softsf.canscan.CanScan.freeCard</text>
</a>
</g>
</g>
<!-- Node14&#45;&gt;Node15 -->
<g id="edge16_Node000014_Node000015" class="edge">
<title>Node14&#45;&gt;Node15</title>
<g id="a_edge16_Node000014_Node000015"><a xlink:title=" ">
<path fill="none" stroke="#63b8ff" d="M541.16,-206C555.24,-206 570.13,-206 584.76,-206"/>
<polygon fill="#63b8ff" stroke="#63b8ff" points="584.37,-209.5 594.37,-206 584.37,-202.5 584.37,-209.5"/>
</a>
</g>
</g>
<!-- Node16 -->
<g id="Node000016" class="node">
<title>Node16</title>
<g id="a_Node000016"><a xlink:href="classfr_1_1softsf_1_1canscan_1_1_can_scan.html#aed7e3048974882318a6519d8d36e8ec0" target="_top" xlink:title="Populates the MECARD panel with contact fields.">
<polygon fill="white" stroke="#666666" points="767.12,-178 598.88,-178 598.88,-158 767.12,-158 767.12,-178"/>
<text text-anchor="middle" x="683" y="-164.5" font-family="Helvetica,sans-Serif" font-size="10.00">fr.softsf.canscan.CanScan.mecard</text>
</a>
</g>
</g>
<!-- Node14&#45;&gt;Node16 -->
<g id="edge17_Node000014_Node000016" class="edge">
<title>Node14&#45;&gt;Node16</title>
<g id="a_edge17_Node000014_Node000016"><a xlink:title=" ">
<path fill="none" stroke="#63b8ff" d="M541.16,-192.76C563.88,-188.77 588.73,-184.4 611.15,-180.46"/>
<polygon fill="#63b8ff" stroke="#63b8ff" points="611.55,-183.94 620.8,-178.76 610.34,-177.05 611.55,-183.94"/>
</a>
</g>
</g>
<!-- Node17 -->
<g id="Node000017" class="node">
<title>Node17</title>
<g id="a_Node000017"><a xlink:href="classfr_1_1softsf_1_1canscan_1_1_can_scan.html#aa211e37381e1a96b368390e86cddb879" target="_top" xlink:title="Populates the MEET panel with meet fields.">
<polygon fill="white" stroke="#666666" points="772.38,-254 593.62,-254 593.62,-234 772.38,-234 772.38,-254"/>
<text text-anchor="middle" x="683" y="-240.5" font-family="Helvetica,sans-Serif" font-size="10.00">fr.softsf.canscan.CanScan.meetCard</text>
</a>
</g>
</g>
<!-- Node14&#45;&gt;Node17 -->
<g id="edge18_Node000014_Node000017" class="edge">
<title>Node14&#45;&gt;Node17</title>
<g id="a_edge18_Node000014_Node000017"><a xlink:title=" ">
<path fill="none" stroke="#63b8ff" d="M541.16,-219.24C563.88,-223.23 588.73,-227.6 611.15,-231.54"/>
<polygon fill="#63b8ff" stroke="#63b8ff" points="610.34,-234.95 620.8,-233.24 611.55,-228.06 610.34,-234.95"/>
</a>
</g>
</g>
<!-- Node19 -->
<g id="Node000019" class="node">
<title>Node19</title>
<g id="a_Node000019"><a xlink:href="classfr_1_1softsf_1_1canscan_1_1_can_scan.html#a17b0a72ab305f98f86591411b6a352f2" target="_top" xlink:title="Creates the color selection panel for QR code and background colors.">
<polygon fill="white" stroke="#666666" points="761.5,-304 604.5,-304 604.5,-272 761.5,-272 761.5,-304"/>
<text text-anchor="start" x="612.5" y="-290.5" font-family="Helvetica,sans-Serif" font-size="10.00">fr.softsf.canscan.CanScan.color</text>
<text text-anchor="middle" x="683" y="-278.5" font-family="Helvetica,sans-Serif" font-size="10.00">Panel</text>
</a>
</g>
</g>
<!-- Node18&#45;&gt;Node19 -->
<g id="edge20_Node000018_Node000019" class="edge">
<title>Node18&#45;&gt;Node19</title>
<g id="a_edge20_Node000018_Node000019"><a xlink:title=" ">
<path fill="none" stroke="#63b8ff" d="M541.16,-299.73C557.85,-298.34 575.69,-296.85 592.87,-295.42"/>
<polygon fill="#63b8ff" stroke="#63b8ff" points="592.87,-298.94 602.54,-294.62 592.29,-291.96 592.87,-298.94"/>
</a>
</g>
</g>
<!-- Node19&#45;&gt;Node7 -->
<g id="edge21_Node000019_Node000007" class="edge">
<title>Node19&#45;&gt;Node7</title>
<g id="a_edge21_Node000019_Node000007"><a xlink:title=" ">
<path fill="none" stroke="#63b8ff" d="M761.78,-288C780.36,-288 800.3,-288 819.2,-288"/>
<polygon fill="#63b8ff" stroke="#63b8ff" points="818.99,-291.5 828.99,-288 818.99,-284.5 818.99,-291.5"/>
</a>
</g>
</g>
<!-- Node22 -->
<g id="Node000022" class="node">
<title>Node22</title>
<g id="a_Node000022"><a xlink:href="classfr_1_1softsf_1_1canscan_1_1_can_scan.html#a381579d3adc53b1122b38e7fda5c0235" target="_top" xlink:title="Configures the update button for version checking.">
<polygon fill="white" stroke="#666666" points="770.88,-140 595.12,-140 595.12,-108 770.88,-108 770.88,-140"/>
<text text-anchor="start" x="603.12" y="-126.5" font-family="Helvetica,sans-Serif" font-size="10.00">fr.softsf.canscan.CanScan.configure</text>
<text text-anchor="middle" x="683" y="-114.5" font-family="Helvetica,sans-Serif" font-size="10.00">UpdateButton</text>
</a>
</g>
</g>
<!-- Node21&#45;&gt;Node22 -->
<g id="edge24_Node000021_Node000022" class="edge">
<title>Node21&#45;&gt;Node22</title>
<g id="a_edge24_Node000021_Node000022"><a xlink:title=" ">
<path fill="none" stroke="#63b8ff" d="M541.16,-112.27C554.81,-113.41 569.23,-114.61 583.43,-115.79"/>
<polygon fill="#63b8ff" stroke="#63b8ff" points="582.99,-119.27 593.25,-116.61 583.57,-112.29 582.99,-119.27"/>
</a>
</g>
</g>
<!-- Node23 -->
<g id="Node000023" class="node">
<title>Node23</title>
<g id="a_Node000023"><a xlink:href="classfr_1_1softsf_1_1canscan_1_1_can_scan.html#a428c742b098fa27d4c8984c1030c238d" target="_top" xlink:title="Switches between MECARD, MEET, and FREE modes, updating the panel and QR preview.">
<polygon fill="white" stroke="#666666" points="777.25,-90 588.75,-90 588.75,-70 777.25,-70 777.25,-90"/>
<text text-anchor="middle" x="683" y="-76.5" font-family="Helvetica,sans-Serif" font-size="10.00">fr.softsf.canscan.CanScan.switchMode</text>
</a>
</g>
</g>
<!-- Node21&#45;&gt;Node23 -->
<g id="edge25_Node000021_Node000023" class="edge">
<title>Node21&#45;&gt;Node23</title>
<g id="a_edge25_Node000021_Node000023"><a xlink:title=" ">
<path fill="none" stroke="#63b8ff" d="M541.16,-96.94C554.81,-95.3 569.23,-93.57 583.43,-91.86"/>
<polygon fill="#63b8ff" stroke="#63b8ff" points="583.74,-95.35 593.25,-90.68 582.91,-88.4 583.74,-95.35"/>
</a>
</g>
</g>
<!-- Node23&#45;&gt;Node7 -->
<g id="edge26_Node000023_Node000007" class="edge">
<title>Node23&#45;&gt;Node7</title>
<g id="a_edge26_Node000023_Node000007"><a xlink:title=" ">
<path fill="none" stroke="#63b8ff" d="M763.17,-90.46C768.93,-92.79 774.45,-95.61 779.5,-99 780,-99.34 853.38,-210.4 887.52,-262.1"/>
<polygon fill="#63b8ff" stroke="#63b8ff" points="884.53,-263.91 892.96,-270.33 890.37,-260.06 884.53,-263.91"/>
</a>
</g>
</g>
<!-- Node24 -->
<g id="Node000024" class="node">
<title>Node24</title>
<g id="a_Node000024"><a xlink:href="enumfr_1_1softsf_1_1canscan_1_1model_1_1_mode.html#a16a898a11ca939056bd7b275f11ea54c" target="_top" xlink:title="Returns the mode label.">
<polygon fill="white" stroke="#666666" points="966.5,-144 844.75,-144 844.75,-112 966.5,-112 966.5,-144"/>
<text text-anchor="start" x="852.75" y="-130.5" font-family="Helvetica,sans-Serif" font-size="10.00">fr.softsf.canscan.model.</text>
<text text-anchor="middle" x="905.62" y="-118.5" font-family="Helvetica,sans-Serif" font-size="10.00">Mode.text</text>
</a>
</g>
</g>
<!-- Node23&#45;&gt;Node24 -->
<g id="edge27_Node000023_Node000024" class="edge">
<title>Node23&#45;&gt;Node24</title>
<g id="a_edge27_Node000023_Node000024"><a xlink:title=" ">
<path fill="none" stroke="#63b8ff" d="M738.1,-90.46C751.64,-93.16 766.11,-96.12 779.5,-99 797.01,-102.77 815.85,-107.03 833.47,-111.1"/>
<polygon fill="#63b8ff" stroke="#63b8ff" points="832.24,-114.41 842.78,-113.26 833.83,-107.59 832.24,-114.41"/>
</a>
</g>
</g>
<!-- Node25 -->
<g id="Node000025" class="node">
<title>Node25</title>
<g id="a_Node000025"><a xlink:href="classfr_1_1softsf_1_1canscan_1_1_can_scan.html#a11fd9295c4843e6e68f9d1e4a710b906" target="_top" xlink:title="Enables or disables the &quot;Generate&quot; button based on required fields for the current mode.">
<polygon fill="white" stroke="#666666" points="988.25,-94 823,-94 823,-62 988.25,-62 988.25,-94"/>
<text text-anchor="start" x="831" y="-80.5" font-family="Helvetica,sans-Serif" font-size="10.00">fr.softsf.canscan.CanScan.update</text>
<text text-anchor="middle" x="905.62" y="-68.5" font-family="Helvetica,sans-Serif" font-size="10.00">GenerateButtonState</text>
</a>
</g>
</g>
<!-- Node23&#45;&gt;Node25 -->
<g id="edge28_Node000023_Node000025" class="edge">
<title>Node23&#45;&gt;Node25</title>
<g id="a_edge28_Node000023_Node000025"><a xlink:title=" ">
<path fill="none" stroke="#63b8ff" d="M777.56,-79.15C788.84,-79.05 800.35,-78.95 811.62,-78.84"/>
<polygon fill="#63b8ff" stroke="#63b8ff" points="811.3,-82.35 821.27,-78.76 811.24,-75.35 811.3,-82.35"/>
</a>
</g>
</g>
<!-- Node26 -->
<g id="Node000026" class="node">
<title>Node26</title>
<g id="a_Node000026"><a xlink:href="classfr_1_1softsf_1_1canscan_1_1_can_scan.html#a3ce6e8b8bd62f20e8e8b9a744976c695" target="_top" xlink:title="Determines whether the &quot;Generate&quot; button should be disabled for the current mode.">
<polygon fill="white" stroke="#666666" points="1205.62,-94 1041.12,-94 1041.12,-62 1205.62,-62 1205.62,-94"/>
<text text-anchor="start" x="1049.12" y="-80.5" font-family="Helvetica,sans-Serif" font-size="10.00">fr.softsf.canscan.CanScan.should</text>
<text text-anchor="middle" x="1123.38" y="-68.5" font-family="Helvetica,sans-Serif" font-size="10.00">DisableGenerateButton</text>
</a>
</g>
</g>
<!-- Node25&#45;&gt;Node26 -->
<g id="edge29_Node000025_Node000026" class="edge">
<title>Node25&#45;&gt;Node26</title>
<g id="a_edge29_Node000025_Node000026"><a xlink:title=" ">
<path fill="none" stroke="#63b8ff" d="M988.5,-78C1001.91,-78 1015.89,-78 1029.54,-78"/>
<polygon fill="#63b8ff" stroke="#63b8ff" points="1029.4,-81.5 1039.4,-78 1029.4,-74.5 1029.4,-81.5"/>
</a>
</g>
</g>
<!-- Node32 -->
<g id="Node000032" class="node">
<title>Node32</title>
<g id="a_Node000032"><a xlink:href="classfr_1_1softsf_1_1canscan_1_1_can_scan.html#a0fe215984734bb1337dd49ca30238b78" target="_top" xlink:title="Sets the loader size so it matches the QR code label height and remains centered.">
<polygon fill="white" stroke="#666666" points="980.38,-32 830.88,-32 830.88,0 980.38,0 980.38,-32"/>
<text text-anchor="start" x="838.88" y="-18.5" font-family="Helvetica,sans-Serif" font-size="10.00">fr.softsf.canscan.CanScan.set</text>
<text text-anchor="middle" x="905.62" y="-6.5" font-family="Helvetica,sans-Serif" font-size="10.00">LoaderSize</text>
</a>
</g>
</g>
<!-- Node31&#45;&gt;Node32 -->
<g id="edge35_Node000031_Node000032" class="edge">
<title>Node31&#45;&gt;Node32</title>
<g id="a_edge35_Node000031_Node000032"><a xlink:title=" ">
<path fill="none" stroke="#63b8ff" d="M343.74,-31.63C467.5,-28.18 695.81,-21.82 819.55,-18.37"/>
<polygon fill="#63b8ff" stroke="#63b8ff" points="819.41,-21.88 829.31,-18.1 819.22,-14.88 819.41,-21.88"/>
</a>
</g>
</g>
<!-- Node32&#45;&gt;Node8 -->
<g id="edge36_Node000032_Node000008" class="edge">
<title>Node32&#45;&gt;Node8</title>
<g id="a_edge36_Node000032_Node000008"><a xlink:title=" ">
<path fill="none" stroke="#63b8ff" d="M980.87,-17.03C994.96,-17.23 1009.89,-17.44 1024.57,-17.64"/>
<polygon fill="#63b8ff" stroke="#63b8ff" points="1024.17,-21.13 1034.22,-17.77 1024.27,-14.14 1024.17,-21.13"/>
</a>
</g>
</g>
</g>
</svg>

<g id="navigator" transform="translate(0 0)" fill="#404254">
  <rect fill="#f2f5e9" fill-opacity="0.5" stroke="#606060" stroke-width=".5" x="0" y="0" width="60" height="60"/>
  <use id="zoomplus" xlink:href="#zoomPlus" x="17" y="9" onmousedown="handleZoom(evt,'in')"/>
  <use id="zoomminus" xlink:href="#zoomMin" x="42" y="9" onmousedown="handleZoom(evt,'out')"/>
  <use id="reset" xlink:href="#resetDef" x="30" y="36" onmousedown="handleReset()"/>
   <use id="arrowup" xlink:href="#arrowUp" x="0" y="0" onmousedown="handlePan(0,-1)"/>
  <use id="arrowright" xlink:href="#arrowRight" x="0" y="0" onmousedown="handlePan(1,0)"/>
  <use id="arrowdown" xlink:href="#arrowDown" x="0" y="0" onmousedown="handlePan(0,1)"/>
  <use id="arrowleft" xlink:href="#arrowLeft" x="0" y="0" onmousedown="handlePan(-1,0)"/>
</g>
<svg viewBox="0 0 15 15" width="100%" height="30px" preserveAspectRatio="xMaxYMin meet">
 <g id="arrow_out" transform="scale(0.3 0.3)">
  <a xlink:href="classfr_1_1softsf_1_1canscan_1_1_can_scan_a102bcbc6cda608b642e870ba3fde6344_cgraph_org.svg" target="_base">
   <rect id="button" ry="5" rx="5" y="6" x="6" height="38" width="38"
        fill="#f2f5e9" fill-opacity="0.5" stroke="#606060" stroke-width="1.0"/>
   <path id="arrow"
     d="M 11.500037,31.436501 C 11.940474,20.09759 22.043105,11.32322 32.158766,21.979434 L 37.068811,17.246167 C 37.068811,17.246167 37.088388,32 37.088388,32 L 22.160133,31.978069 C 22.160133,31.978069 26.997745,27.140456 26.997745,27.140456 C 18.528582,18.264221 13.291696,25.230495 11.500037,31.436501 z"
     style="fill:#404040;"/>
  </a>
 </g>
</svg>

<style type='text/css'>
<![CDATA[
[data-mouse-over-selected='false'] { opacity: 0.7; }
[data-mouse-over-selected='true']  { opacity: 1.0; }
]]>
</style>
<script type="application/ecmascript"><![CDATA[
document.addEventListener('DOMContentLoaded', (event) => {
  highlightEdges();
  highlightAdjacentNodes();
});
]]></script>
</svg>
