<?xml version="1.0" encoding="UTF-8" standalone="no"?>
<!DOCTYPE svg PUBLIC "-//W3C//DTD SVG 1.1//EN"
 "http://www.w3.org/Graphics/SVG/1.1/DTD/svg11.dtd">
<!-- Generated by graphviz version 12.2.1 (20241206.2353)
 -->
<!-- Title: fr.softsf.canscan.ui.FlatLafTimePicker Pages: 1 -->
<svg width="224pt" height="312pt"
 viewBox="0.00 0.00 224.12 312.00" xmlns="http://www.w3.org/2000/svg" xmlns:xlink="http://www.w3.org/1999/xlink">

<svg id="main" version="1.1" xmlns="http://www.w3.org/2000/svg" xmlns:xlink="http://www.w3.org/1999/xlink" xml:space="preserve">

<style type="text/css"><![CDATA[
.node, .edge {opacity: 0.7;}
.node.selected, .edge.selected {opacity: 1;}
.edge:hover path { stroke: red; }
.edge:hover polygon { stroke: red; fill: red; }
]]></style>
<script type="application/ecmascript" xlink:href="svg.min.js"/>
<svg id="graph" class="graph">
<g id="graph0" class="graph" transform="scale(1 1) rotate(0) translate(4 308)">
<title>fr.softsf.canscan.ui.FlatLafTimePicker</title>
<!-- Node1 -->
<g id="Node000001" class="node">
<title>Node1</title>
<g id="a_Node000001"><a xlink:title="TimePicker component with FlatLaf styling applied and automatically maintained.">
<polygon fill="#999999" stroke="none" points="159.88,-108 13.62,-108 13.62,0 159.88,0 159.88,-108"/>
<text text-anchor="start" x="35" y="-94.5" font-family="Helvetica,sans-Serif" font-size="10.00">fr.softsf.canscan.ui.Flat</text>
<text text-anchor="start" x="55.25" y="-82.5" font-family="Helvetica,sans-Serif" font-size="10.00">LafTimePicker</text>
<text text-anchor="start" x="85.25" y="-66.5" font-family="Helvetica,sans-Serif" font-size="10.00"> </text>
<text text-anchor="start" x="17.62" y="-50.5" font-family="Helvetica,sans-Serif" font-size="10.00">+</text>
<text text-anchor="start" x="27.62" y="-50.5" font-family="Helvetica,sans-Serif" font-size="10.00">FlatLafTimePicker()</text>
<text text-anchor="start" x="17.62" y="-34.5" font-family="Helvetica,sans-Serif" font-size="10.00">+</text>
<text text-anchor="start" x="27.62" y="-34.5" font-family="Helvetica,sans-Serif" font-size="10.00">JTextField getInternalText</text>
<text text-anchor="start" x="27.62" y="-22.5" font-family="Helvetica,sans-Serif" font-size="10.00">Field()</text>
<text text-anchor="start" x="17.62" y="-6.5" font-family="Helvetica,sans-Serif" font-size="10.00">+</text>
<text text-anchor="start" x="27.62" y="-6.5" font-family="Helvetica,sans-Serif" font-size="10.00">Dimension getPreferredSize()</text>
<polygon fill="#666666" stroke="#666666" points="13.62,-78 13.62,-78 159.88,-78 159.88,-78 13.62,-78"/>
<polygon fill="#666666" stroke="#666666" points="13.62,-62 13.62,-62 159.88,-62 159.88,-62 13.62,-62"/>
<polygon fill="none" stroke="#666666" points="13.62,0 13.62,-108 159.88,-108 159.88,0 13.62,0"/>
</a>
</g>
</g>
<!-- Node2 -->
<g id="Node000002" class="node">
<title>Node2</title>
<g id="a_Node000002"><a xlink:title=" ">
<polygon fill="white" stroke="none" points="57.5,-250 0,-250 0,-198 57.5,-198 57.5,-250"/>
<text text-anchor="start" x="4" y="-236.5" font-family="Helvetica,sans-Serif" font-size="10.00">TimePicker</text>
<text text-anchor="start" x="27.25" y="-220.5" font-family="Helvetica,sans-Serif" font-size="10.00"> </text>
<text text-anchor="start" x="27.25" y="-204.5" font-family="Helvetica,sans-Serif" font-size="10.00"> </text>
<polygon fill="#666666" stroke="#666666" points="0,-232 0,-232 57.5,-232 57.5,-232 0,-232"/>
<polygon fill="#666666" stroke="#666666" points="0,-216 0,-216 57.5,-216 57.5,-216 0,-216"/>
<polygon fill="none" stroke="#666666" points="0,-198 0,-250 57.5,-250 57.5,-198 0,-198"/>
</a>
</g>
</g>
<!-- Node2&#45;&gt;Node1 -->
<g id="edge1_Node000001_Node000002" class="edge">
<title>Node2&#45;&gt;Node1</title>
<g id="a_edge1_Node000001_Node000002"><a xlink:title=" ">
<path fill="none" stroke="#63b8ff" d="M41.01,-187.49C49.01,-164.32 59.59,-133.67 68.56,-107.68"/>
<polygon fill="none" stroke="#63b8ff" points="37.76,-186.19 37.8,-196.78 44.37,-188.47 37.76,-186.19"/>
</a>
</g>
</g>
<!-- Node3 -->
<g id="Node000003" class="node">
<title>Node3</title>
<g id="a_Node000003"><a xlink:href="interfacefr_1_1softsf_1_1canscan_1_1ui_1_1_i_flat_laf_styled_for_l_good_date_picker.html" target="_top" xlink:title="Interface providing FlatLaf styling support for LGoodDatePicker components.">
<polygon fill="white" stroke="none" points="216.12,-304 75.38,-304 75.38,-144 216.12,-144 216.12,-304"/>
<text text-anchor="start" x="79.38" y="-290.5" font-family="Helvetica,sans-Serif" font-size="10.00">fr.softsf.canscan.ui.IFlat</text>
<text text-anchor="start" x="79.38" y="-278.5" font-family="Helvetica,sans-Serif" font-size="10.00">LafStyledForLGoodDatePicker</text>
<text text-anchor="start" x="80.25" y="-262.5" font-family="Helvetica,sans-Serif" font-size="10.00">+</text>
<text text-anchor="start" x="91.12" y="-262.5" font-family="Helvetica,sans-Serif" font-size="10.00">int TEXT_FIELD_HEIGHT</text>
<text text-anchor="start" x="80.25" y="-246.5" font-family="Helvetica,sans-Serif" font-size="10.00">+</text>
<text text-anchor="start" x="91.12" y="-246.5" font-family="Helvetica,sans-Serif" font-size="10.00">default void applyTheme()</text>
<text text-anchor="start" x="80.25" y="-230.5" font-family="Helvetica,sans-Serif" font-size="10.00">+</text>
<text text-anchor="start" x="91.12" y="-230.5" font-family="Helvetica,sans-Serif" font-size="10.00">default Dimension compute</text>
<text text-anchor="start" x="91.12" y="-218.5" font-family="Helvetica,sans-Serif" font-size="10.00">PreferredSize(Dimension</text>
<text text-anchor="start" x="91.12" y="-206.5" font-family="Helvetica,sans-Serif" font-size="10.00"> original)</text>
<text text-anchor="start" x="80.25" y="-190.5" font-family="Helvetica,sans-Serif" font-size="10.00">+</text>
<text text-anchor="start" x="91.12" y="-190.5" font-family="Helvetica,sans-Serif" font-size="10.00">JTextField getInternalText</text>
<text text-anchor="start" x="91.12" y="-178.5" font-family="Helvetica,sans-Serif" font-size="10.00">Field()</text>
<text text-anchor="start" x="80.25" y="-162.5" font-family="Helvetica,sans-Serif" font-size="10.00">+</text>
<text text-anchor="start" x="91.12" y="-162.5" font-family="Helvetica,sans-Serif" font-size="10.00">default void installTheme</text>
<text text-anchor="start" x="91.12" y="-150.5" font-family="Helvetica,sans-Serif" font-size="10.00">Listener()</text>
<polygon fill="#666666" stroke="#666666" points="75.38,-274 75.38,-274 216.12,-274 216.12,-274 75.38,-274"/>
<polygon fill="#666666" stroke="#666666" points="75.38,-258 75.38,-258 89.12,-258 89.12,-258 75.38,-258"/>
<polygon fill="#666666" stroke="#666666" points="89.12,-258 89.12,-258 216.12,-258 216.12,-258 89.12,-258"/>
<polygon fill="none" stroke="#666666" points="75.38,-144 75.38,-304 216.12,-304 216.12,-144 75.38,-144"/>
</a>
</g>
</g>
<!-- Node3&#45;&gt;Node1 -->
<g id="edge2_Node000001_Node000003" class="edge">
<title>Node3&#45;&gt;Node1</title>
<g id="a_edge2_Node000001_Node000003"><a xlink:title=" ">
<path fill="none" stroke="#63b8ff" d="M114.35,-133.59C111.24,-124.72 108.15,-115.94 105.23,-107.63"/>
<polygon fill="none" stroke="#63b8ff" points="111.03,-134.71 117.65,-142.98 117.64,-132.39 111.03,-134.71"/>
</a>
</g>
</g>
</g>
</svg>
</svg>

<style type='text/css'>
<![CDATA[
[data-mouse-over-selected='false'] { opacity: 0.7; }
[data-mouse-over-selected='true']  { opacity: 1.0; }
]]>
</style>
<script type="application/ecmascript"><![CDATA[
document.addEventListener('DOMContentLoaded', (event) => {
  highlightEdges();
  highlightAdjacentNodes();
});
]]></script>
</svg>
