<?xml version="1.0" encoding="UTF-8" standalone="no"?>
<!DOCTYPE svg PUBLIC "-//W3C//DTD SVG 1.1//EN"
 "http://www.w3.org/Graphics/SVG/1.1/DTD/svg11.dtd">
<!-- Generated by graphviz version 12.2.1 (20241206.2353)
 -->
<!-- Title: fr.softsf.canscan.CanScan.main Pages: 1 -->
<svg width="1400pt" height="568pt"
 viewBox="0.00 0.00 1399.50 568.00" xmlns="http://www.w3.org/2000/svg" xmlns:xlink="http://www.w3.org/1999/xlink">
<g id="graph0" class="graph" transform="scale(1 1) rotate(0) translate(4 564)">
<title>fr.softsf.canscan.CanScan.main</title>
<!-- Node1 -->
<g id="Node000001" class="node">
<title>Node1</title>
<g id="a_Node000001"><a xlink:title="Application entry point.">
<polygon fill="#999999" stroke="#666666" points="157,-235 0,-235 0,-215 157,-215 157,-235"/>
<text text-anchor="middle" x="78.5" y="-221.5" font-family="Helvetica,sans-Serif" font-size="10.00">fr.softsf.canscan.CanScan.main</text>
</a>
</g>
</g>
<!-- Node2 -->
<g id="Node000002" class="node">
<title>Node2</title>
<g id="a_Node000002"><a xlink:href="classfr_1_1softsf_1_1canscan_1_1_can_scan.html#a102bcbc6cda608b642e870ba3fde6344" target="_top" xlink:title="Initializes the CanScan GUI.">
<polygon fill="white" stroke="#666666" points="329,-241 193,-241 193,-209 329,-209 329,-241"/>
<text text-anchor="start" x="201" y="-227.5" font-family="Helvetica,sans-Serif" font-size="10.00">fr.softsf.canscan.CanScan.</text>
<text text-anchor="middle" x="261" y="-215.5" font-family="Helvetica,sans-Serif" font-size="10.00">CanScan</text>
</a>
</g>
</g>
<!-- Node1&#45;&gt;Node2 -->
<g id="edge1_Node000001_Node000002" class="edge">
<title>Node1&#45;&gt;Node2</title>
<g id="a_edge1_Node000001_Node000002"><a xlink:title=" ">
<path fill="none" stroke="#63b8ff" d="M157.36,-225C165.24,-225 173.26,-225 181.15,-225"/>
<polygon fill="#63b8ff" stroke="#63b8ff" points="181.09,-228.5 191.09,-225 181.09,-221.5 181.09,-228.5"/>
</a>
</g>
</g>
<!-- Node3 -->
<g id="Node000003" class="node">
<title>Node3</title>
<g id="a_Node000003"><a xlink:href="classfr_1_1softsf_1_1canscan_1_1_can_scan.html#a070115929fdc69b249d21866a00a47cc" target="_top" xlink:title="Assigns component names for identification.">
<polygon fill="white" stroke="#666666" points="536.25,-404 365,-404 365,-372 536.25,-372 536.25,-404"/>
<text text-anchor="start" x="373" y="-390.5" font-family="Helvetica,sans-Serif" font-size="10.00">fr.softsf.canscan.CanScan.initialize</text>
<text text-anchor="middle" x="450.62" y="-378.5" font-family="Helvetica,sans-Serif" font-size="10.00">ComponentNames</text>
</a>
</g>
</g>
<!-- Node2&#45;&gt;Node3 -->
<g id="edge2_Node000002_Node000003" class="edge">
<title>Node2&#45;&gt;Node3</title>
<g id="a_edge2_Node000002_Node000003"><a xlink:title=" ">
<path fill="none" stroke="#63b8ff" d="M269.71,-241.31C284.23,-270.24 318.39,-330.53 365,-363 366.6,-364.11 368.25,-365.18 369.94,-366.2"/>
<polygon fill="#63b8ff" stroke="#63b8ff" points="368.19,-369.23 378.67,-370.82 371.47,-363.05 368.19,-369.23"/>
</a>
</g>
</g>
<!-- Node4 -->
<g id="Node000004" class="node">
<title>Node4</title>
<g id="a_Node000004"><a xlink:href="classfr_1_1softsf_1_1canscan_1_1_can_scan.html#a14263ca931024d56cd9bed4af4b74c25" target="_top" xlink:title="Initializes and assembles the main application panel.">
<polygon fill="white" stroke="#666666" points="743.5,-455 572.25,-455 572.25,-423 743.5,-423 743.5,-455"/>
<text text-anchor="start" x="580.25" y="-441.5" font-family="Helvetica,sans-Serif" font-size="10.00">fr.softsf.canscan.CanScan.initialize</text>
<text text-anchor="middle" x="657.88" y="-429.5" font-family="Helvetica,sans-Serif" font-size="10.00">MainPanel</text>
</a>
</g>
</g>
<!-- Node2&#45;&gt;Node4 -->
<g id="edge3_Node000002_Node000004" class="edge">
<title>Node2&#45;&gt;Node4</title>
<g id="a_edge3_Node000002_Node000004"><a xlink:title=" ">
<path fill="none" stroke="#63b8ff" d="M290.97,-241.33C311.19,-252.15 339.1,-265.98 365,-275 438.62,-300.64 473.95,-266.14 536.25,-313 562.95,-333.09 550.05,-354.03 572.25,-379 585.23,-393.6 602.41,-406.6 617.89,-416.74"/>
<polygon fill="#63b8ff" stroke="#63b8ff" points="615.66,-419.47 625.98,-421.86 619.4,-413.55 615.66,-419.47"/>
</a>
</g>
</g>
<!-- Node13 -->
<g id="Node000013" class="node">
<title>Node13</title>
<g id="a_Node000013"><a xlink:href="classfr_1_1softsf_1_1canscan_1_1_can_scan.html#afb8d451dc5d6d9c7b6700e4b688c98a3" target="_top" xlink:title="Builds the north panel containing mode selection, card panels, common fields, and the generate button...">
<polygon fill="white" stroke="#666666" points="536.25,-266 365,-266 365,-234 536.25,-234 536.25,-266"/>
<text text-anchor="start" x="373" y="-252.5" font-family="Helvetica,sans-Serif" font-size="10.00">fr.softsf.canscan.CanScan.initialize</text>
<text text-anchor="middle" x="450.62" y="-240.5" font-family="Helvetica,sans-Serif" font-size="10.00">NorthPanel</text>
</a>
</g>
</g>
<!-- Node2&#45;&gt;Node13 -->
<g id="edge13_Node000002_Node000013" class="edge">
<title>Node2&#45;&gt;Node13</title>
<g id="a_edge13_Node000002_Node000013"><a xlink:title=" ">
<path fill="none" stroke="#63b8ff" d="M329.47,-233.99C337.26,-235.03 345.3,-236.1 353.37,-237.17"/>
<polygon fill="#63b8ff" stroke="#63b8ff" points="352.9,-240.64 363.27,-238.49 353.82,-233.7 352.9,-240.64"/>
</a>
</g>
</g>
<!-- Node28 -->
<g id="Node000028" class="node">
<title>Node28</title>
<g id="a_Node000028"><a xlink:href="classfr_1_1softsf_1_1canscan_1_1_can_scan.html#a4928478365bc812571ac037662cc5f6b" target="_top" xlink:title="Wraps the main panel in a scrollable container.">
<polygon fill="white" stroke="#666666" points="536.25,-216 365,-216 365,-184 536.25,-184 536.25,-216"/>
<text text-anchor="start" x="373" y="-202.5" font-family="Helvetica,sans-Serif" font-size="10.00">fr.softsf.canscan.CanScan.initialize</text>
<text text-anchor="middle" x="450.62" y="-190.5" font-family="Helvetica,sans-Serif" font-size="10.00">ScrollPane</text>
</a>
</g>
</g>
<!-- Node2&#45;&gt;Node28 -->
<g id="edge35_Node000002_Node000028" class="edge">
<title>Node2&#45;&gt;Node28</title>
<g id="a_edge35_Node000002_Node000028"><a xlink:title=" ">
<path fill="none" stroke="#63b8ff" d="M329.47,-216.01C337.26,-214.97 345.3,-213.9 353.37,-212.83"/>
<polygon fill="#63b8ff" stroke="#63b8ff" points="353.82,-216.3 363.27,-211.51 352.9,-209.36 353.82,-216.3"/>
</a>
</g>
</g>
<!-- Node29 -->
<g id="Node000029" class="node">
<title>Node29</title>
<g id="a_Node000029"><a xlink:href="classfr_1_1softsf_1_1canscan_1_1_can_scan.html#a358629f85831dc6cd4978c8854d88561" target="_top" xlink:title="Configures sliders for logo margin and ratio.">
<polygon fill="white" stroke="#666666" points="536.25,-166 365,-166 365,-134 536.25,-134 536.25,-166"/>
<text text-anchor="start" x="373" y="-152.5" font-family="Helvetica,sans-Serif" font-size="10.00">fr.softsf.canscan.CanScan.initialize</text>
<text text-anchor="middle" x="450.62" y="-140.5" font-family="Helvetica,sans-Serif" font-size="10.00">Sliders</text>
</a>
</g>
</g>
<!-- Node2&#45;&gt;Node29 -->
<g id="edge36_Node000002_Node000029" class="edge">
<title>Node2&#45;&gt;Node29</title>
<g id="a_edge36_Node000002_Node000029"><a xlink:title=" ">
<path fill="none" stroke="#63b8ff" d="M292.51,-208.55C312.7,-198.07 339.98,-184.69 365,-175 369.42,-173.29 374.01,-171.62 378.66,-170.02"/>
<polygon fill="#63b8ff" stroke="#63b8ff" points="379.74,-173.35 388.13,-166.88 377.54,-166.71 379.74,-173.35"/>
</a>
</g>
</g>
<!-- Node31 -->
<g id="Node000031" class="node">
<title>Node31</title>
<g id="a_Node000031"><a xlink:href="classfr_1_1softsf_1_1canscan_1_1_can_scan.html#ae9d7eee5ec656c89834bed84a588334f" target="_top" xlink:title="Constructs the application window title using metadata from the version properties.">
<polygon fill="white" stroke="#666666" points="536.25,-115 365,-115 365,-83 536.25,-83 536.25,-115"/>
<text text-anchor="start" x="373" y="-101.5" font-family="Helvetica,sans-Serif" font-size="10.00">fr.softsf.canscan.CanScan.initialize</text>
<text text-anchor="middle" x="450.62" y="-89.5" font-family="Helvetica,sans-Serif" font-size="10.00">Title</text>
</a>
</g>
</g>
<!-- Node2&#45;&gt;Node31 -->
<g id="edge38_Node000002_Node000031" class="edge">
<title>Node2&#45;&gt;Node31</title>
<g id="a_edge38_Node000002_Node000031"><a xlink:title=" ">
<path fill="none" stroke="#63b8ff" d="M274.53,-208.73C292.33,-186.67 327.04,-147.47 365,-125 368.11,-123.16 371.36,-121.44 374.7,-119.83"/>
<polygon fill="#63b8ff" stroke="#63b8ff" points="375.8,-123.17 383.55,-115.94 372.99,-116.76 375.8,-123.17"/>
</a>
</g>
</g>
<!-- Node33 -->
<g id="Node000033" class="node">
<title>Node33</title>
<g id="a_Node000033"><a xlink:href="classfr_1_1softsf_1_1canscan_1_1_can_scan.html#a0a52159db640660477196e337ec62a9b" target="_top" xlink:title="Finalizes window layout and appearance.">
<polygon fill="white" stroke="#666666" points="536.25,-354 365,-354 365,-322 536.25,-322 536.25,-354"/>
<text text-anchor="start" x="373" y="-340.5" font-family="Helvetica,sans-Serif" font-size="10.00">fr.softsf.canscan.CanScan.initialize</text>
<text text-anchor="middle" x="450.62" y="-328.5" font-family="Helvetica,sans-Serif" font-size="10.00">Window</text>
</a>
</g>
</g>
<!-- Node2&#45;&gt;Node33 -->
<g id="edge41_Node000002_Node000033" class="edge">
<title>Node2&#45;&gt;Node33</title>
<g id="a_edge41_Node000002_Node000033"><a xlink:title=" ">
<path fill="none" stroke="#63b8ff" d="M278.55,-241.34C297.89,-259.67 331.52,-289.29 365,-308 371.07,-311.39 377.6,-314.51 384.24,-317.36"/>
<polygon fill="#63b8ff" stroke="#63b8ff" points="382.73,-320.52 393.31,-321.02 385.35,-314.03 382.73,-320.52"/>
</a>
</g>
</g>
<!-- Node5 -->
<g id="Node000005" class="node">
<title>Node5</title>
<g id="a_Node000005"><a xlink:href="classfr_1_1softsf_1_1canscan_1_1_can_scan.html#ad470e3c0750cf142dc611b1aeeda3a97" target="_top" xlink:title="Sets up automatic QR code preview updates for all input fields and controls.">
<polygon fill="white" stroke="#666666" points="972.5,-477 779.5,-477 779.5,-445 972.5,-445 972.5,-477"/>
<text text-anchor="start" x="787.5" y="-463.5" font-family="Helvetica,sans-Serif" font-size="10.00">fr.softsf.canscan.CanScan.automatic</text>
<text text-anchor="middle" x="876" y="-451.5" font-family="Helvetica,sans-Serif" font-size="10.00">QRCodeRenderingForFieldsAndControls</text>
</a>
</g>
</g>
<!-- Node4&#45;&gt;Node5 -->
<g id="edge4_Node000004_Node000005" class="edge">
<title>Node4&#45;&gt;Node5</title>
<g id="a_edge4_Node000004_Node000005"><a xlink:title=" ">
<path fill="none" stroke="#63b8ff" d="M743.98,-447.66C751.85,-448.46 759.89,-449.28 767.92,-450.1"/>
<polygon fill="#63b8ff" stroke="#63b8ff" points="767.44,-453.57 777.75,-451.1 768.15,-446.61 767.44,-453.57"/>
</a>
</g>
</g>
<!-- Node6 -->
<g id="Node000006" class="node">
<title>Node6</title>
<g id="a_Node000006"><a xlink:href="classfr_1_1softsf_1_1canscan_1_1_can_scan.html#a2d26dcd1ae708eae46dba8952351aa1a" target="_top" xlink:title="Builds and returns a QrInput object containing all current user inputs and settings.">
<polygon fill="white" stroke="#666666" points="1169.25,-430 1019.75,-430 1019.75,-398 1169.25,-398 1169.25,-430"/>
<text text-anchor="start" x="1027.75" y="-416.5" font-family="Helvetica,sans-Serif" font-size="10.00">fr.softsf.canscan.CanScan.get</text>
<text text-anchor="middle" x="1094.5" y="-404.5" font-family="Helvetica,sans-Serif" font-size="10.00">QrInput</text>
</a>
</g>
</g>
<!-- Node4&#45;&gt;Node6 -->
<g id="edge12_Node000004_Node000006" class="edge">
<title>Node4&#45;&gt;Node6</title>
<g id="a_edge12_Node000004_Node000006"><a xlink:title=" ">
<path fill="none" stroke="#63b8ff" d="M743.97,-434.11C820.24,-429.72 931.58,-423.31 1007.99,-418.92"/>
<polygon fill="#63b8ff" stroke="#63b8ff" points="1008.18,-422.41 1017.96,-418.35 1007.77,-415.43 1008.18,-422.41"/>
</a>
</g>
</g>
<!-- Node12 -->
<g id="Node000012" class="node">
<title>Node12</title>
<g id="a_Node000012"><a xlink:href="classfr_1_1softsf_1_1canscan_1_1_can_scan.html#a2680fca620b01b32419c021f63a5e047" target="_top" xlink:title="Creates the overlay panel containing the loader and the QR code label.">
<polygon fill="white" stroke="#666666" points="965,-527 787,-527 787,-495 965,-495 965,-527"/>
<text text-anchor="start" x="795" y="-513.5" font-family="Helvetica,sans-Serif" font-size="10.00">fr.softsf.canscan.CanScan.create</text>
<text text-anchor="middle" x="876" y="-501.5" font-family="Helvetica,sans-Serif" font-size="10.00">QrCodeLabelAndLoaderOverlayPanel</text>
</a>
</g>
</g>
<!-- Node4&#45;&gt;Node12 -->
<g id="edge11_Node000004_Node000012" class="edge">
<title>Node4&#45;&gt;Node12</title>
<g id="a_edge11_Node000004_Node000012"><a xlink:title=" ">
<path fill="none" stroke="#63b8ff" d="M697.58,-455.4C721.04,-465 751.71,-476.98 779.5,-486 785.26,-487.87 791.24,-489.7 797.28,-491.46"/>
<polygon fill="#63b8ff" stroke="#63b8ff" points="796.15,-494.78 806.73,-494.15 798.07,-488.04 796.15,-494.78"/>
</a>
</g>
</g>
<!-- Node5&#45;&gt;Node6 -->
<g id="edge5_Node000005_Node000006" class="edge">
<title>Node5&#45;&gt;Node6</title>
<g id="a_edge5_Node000005_Node000006"><a xlink:title=" ">
<path fill="none" stroke="#63b8ff" d="M952.72,-444.56C970.59,-440.68 989.77,-436.52 1008.04,-432.55"/>
<polygon fill="#63b8ff" stroke="#63b8ff" points="1008.77,-435.98 1017.8,-430.43 1007.29,-429.13 1008.77,-435.98"/>
</a>
</g>
</g>
<!-- Node11 -->
<g id="Node000011" class="node">
<title>Node11</title>
<g id="a_Node000011"><a xlink:href="classfr_1_1softsf_1_1canscan_1_1_can_scan.html#a9856545d05ef553c8dfddd95a850a360" target="_top" xlink:title="Creates a minimal DocumentListener that executes the given action on any document change.">
<polygon fill="white" stroke="#666666" points="1176.75,-480 1012.25,-480 1012.25,-448 1176.75,-448 1176.75,-480"/>
<text text-anchor="start" x="1020.25" y="-466.5" font-family="Helvetica,sans-Serif" font-size="10.00">fr.softsf.canscan.CanScan.simple</text>
<text text-anchor="middle" x="1094.5" y="-454.5" font-family="Helvetica,sans-Serif" font-size="10.00">DocumentListener</text>
</a>
</g>
</g>
<!-- Node5&#45;&gt;Node11 -->
<g id="edge10_Node000005_Node000011" class="edge">
<title>Node5&#45;&gt;Node11</title>
<g id="a_edge10_Node000005_Node000011"><a xlink:title=" ">
<path fill="none" stroke="#63b8ff" d="M972.91,-462.33C982.05,-462.46 991.32,-462.58 1000.43,-462.71"/>
<polygon fill="#63b8ff" stroke="#63b8ff" points="1000.32,-466.21 1010.37,-462.85 1000.42,-459.21 1000.32,-466.21"/>
</a>
</g>
</g>
<!-- Node7 -->
<g id="Node000007" class="node">
<title>Node7</title>
<g id="a_Node000007"><a xlink:href="classfr_1_1softsf_1_1canscan_1_1_can_scan.html#a381368b99c4a0857c6abe6349b2c6d27" target="_top" xlink:title="Calculates the available height for QR code rendering.">
<polygon fill="white" stroke="#666666" points="1391.5,-550 1216.5,-550 1216.5,-518 1391.5,-518 1391.5,-550"/>
<text text-anchor="start" x="1224.5" y="-536.5" font-family="Helvetica,sans-Serif" font-size="10.00">fr.softsf.canscan.CanScan.calculate</text>
<text text-anchor="middle" x="1304" y="-524.5" font-family="Helvetica,sans-Serif" font-size="10.00">AvailableQrCodeLabelHeight</text>
</a>
</g>
</g>
<!-- Node6&#45;&gt;Node7 -->
<g id="edge6_Node000006_Node000007" class="edge">
<title>Node6&#45;&gt;Node7</title>
<g id="a_edge6_Node000006_Node000007"><a xlink:title=" ">
<path fill="none" stroke="#63b8ff" d="M1165.49,-430.36C1170.78,-432.85 1175.86,-435.71 1180.5,-439 1202.84,-454.83 1195.79,-471.08 1216.5,-489 1227,-498.09 1239.65,-505.97 1252,-512.49"/>
<polygon fill="#63b8ff" stroke="#63b8ff" points="1250.39,-515.59 1260.9,-516.96 1253.53,-509.34 1250.39,-515.59"/>
</a>
</g>
</g>
<!-- Node8 -->
<g id="Node000008" class="node">
<title>Node8</title>
<g id="a_Node000008"><a xlink:href="classfr_1_1softsf_1_1canscan_1_1_can_scan.html#a4e67b1b5c764e72414a5c0f387810f5c" target="_top" xlink:title="Validates and returns the current QR code margin from the margin slider.">
<polygon fill="white" stroke="#666666" points="1388.88,-480 1219.12,-480 1219.12,-448 1388.88,-448 1388.88,-480"/>
<text text-anchor="start" x="1227.12" y="-466.5" font-family="Helvetica,sans-Serif" font-size="10.00">fr.softsf.canscan.CanScan.validate</text>
<text text-anchor="middle" x="1304" y="-454.5" font-family="Helvetica,sans-Serif" font-size="10.00">AndGetMargin</text>
</a>
</g>
</g>
<!-- Node6&#45;&gt;Node8 -->
<g id="edge7_Node000006_Node000008" class="edge">
<title>Node6&#45;&gt;Node8</title>
<g id="a_edge7_Node000006_Node000008"><a xlink:title=" ">
<path fill="none" stroke="#63b8ff" d="M1163.73,-430.44C1182.88,-435.05 1203.86,-440.11 1223.59,-444.87"/>
<polygon fill="#63b8ff" stroke="#63b8ff" points="1222.72,-448.25 1233.26,-447.19 1224.36,-441.45 1222.72,-448.25"/>
</a>
</g>
</g>
<!-- Node9 -->
<g id="Node000009" class="node">
<title>Node9</title>
<g id="a_Node000009"><a xlink:href="classfr_1_1softsf_1_1canscan_1_1_can_scan.html#a9e8188875168199cde065113ae2a393d" target="_top" xlink:title="Validates and returns the current image&#45;to&#45;QR ratio from the ratio slider.">
<polygon fill="white" stroke="#666666" points="1388.88,-430 1219.12,-430 1219.12,-398 1388.88,-398 1388.88,-430"/>
<text text-anchor="start" x="1227.12" y="-416.5" font-family="Helvetica,sans-Serif" font-size="10.00">fr.softsf.canscan.CanScan.validate</text>
<text text-anchor="middle" x="1304" y="-404.5" font-family="Helvetica,sans-Serif" font-size="10.00">AndGetRatio</text>
</a>
</g>
</g>
<!-- Node6&#45;&gt;Node9 -->
<g id="edge8_Node000006_Node000009" class="edge">
<title>Node6&#45;&gt;Node9</title>
<g id="a_edge8_Node000006_Node000009"><a xlink:title=" ">
<path fill="none" stroke="#63b8ff" d="M1169.53,-414C1181.87,-414 1194.81,-414 1207.59,-414"/>
<polygon fill="#63b8ff" stroke="#63b8ff" points="1207.23,-417.5 1217.23,-414 1207.23,-410.5 1207.23,-417.5"/>
</a>
</g>
</g>
<!-- Node10 -->
<g id="Node000010" class="node">
<title>Node10</title>
<g id="a_Node000010"><a xlink:href="classfr_1_1softsf_1_1canscan_1_1_can_scan.html#a6d139bb8d0a3c7081096c8956189b684" target="_top" xlink:title="Validates and returns the QR code size from the corresponding text field.">
<polygon fill="white" stroke="#666666" points="1388.88,-380 1219.12,-380 1219.12,-348 1388.88,-348 1388.88,-380"/>
<text text-anchor="start" x="1227.12" y="-366.5" font-family="Helvetica,sans-Serif" font-size="10.00">fr.softsf.canscan.CanScan.validate</text>
<text text-anchor="middle" x="1304" y="-354.5" font-family="Helvetica,sans-Serif" font-size="10.00">AndGetSize</text>
</a>
</g>
</g>
<!-- Node6&#45;&gt;Node10 -->
<g id="edge9_Node000006_Node000010" class="edge">
<title>Node6&#45;&gt;Node10</title>
<g id="a_edge9_Node000006_Node000010"><a xlink:title=" ">
<path fill="none" stroke="#63b8ff" d="M1163.73,-397.56C1182.88,-392.95 1203.86,-387.89 1223.59,-383.13"/>
<polygon fill="#63b8ff" stroke="#63b8ff" points="1224.36,-386.55 1233.26,-380.81 1222.72,-379.75 1224.36,-386.55"/>
</a>
</g>
</g>
<!-- Node14 -->
<g id="Node000014" class="node">
<title>Node14</title>
<g id="a_Node000014"><a xlink:href="classfr_1_1softsf_1_1canscan_1_1_can_scan.html#ab2e018ca62c7497c29e84f42ae870daa" target="_top" xlink:title="Adds MECARD and Free card panels to the north panel.">
<polygon fill="white" stroke="#666666" points="733.75,-267 582,-267 582,-235 733.75,-235 733.75,-267"/>
<text text-anchor="start" x="590" y="-253.5" font-family="Helvetica,sans-Serif" font-size="10.00">fr.softsf.canscan.CanScan.add</text>
<text text-anchor="middle" x="657.88" y="-241.5" font-family="Helvetica,sans-Serif" font-size="10.00">NorthPanelCardPanels</text>
</a>
</g>
</g>
<!-- Node13&#45;&gt;Node14 -->
<g id="edge14_Node000013_Node000014" class="edge">
<title>Node13&#45;&gt;Node14</title>
<g id="a_edge14_Node000013_Node000014"><a xlink:title=" ">
<path fill="none" stroke="#63b8ff" d="M536.59,-250.41C547.72,-250.47 559.14,-250.52 570.3,-250.58"/>
<polygon fill="#63b8ff" stroke="#63b8ff" points="570.28,-254.08 580.29,-250.63 570.31,-247.08 570.28,-254.08"/>
</a>
</g>
</g>
<!-- Node18 -->
<g id="Node000018" class="node">
<title>Node18</title>
<g id="a_Node000018"><a xlink:href="classfr_1_1softsf_1_1canscan_1_1_can_scan.html#a94ab4df98de0d05977e6a65ab75f89f0" target="_top" xlink:title="Adds common input fields to the north panel.">
<polygon fill="white" stroke="#666666" points="733.75,-320 582,-320 582,-288 733.75,-288 733.75,-320"/>
<text text-anchor="start" x="590" y="-306.5" font-family="Helvetica,sans-Serif" font-size="10.00">fr.softsf.canscan.CanScan.add</text>
<text text-anchor="middle" x="657.88" y="-294.5" font-family="Helvetica,sans-Serif" font-size="10.00">NorthPanelCommonFields</text>
</a>
</g>
</g>
<!-- Node13&#45;&gt;Node18 -->
<g id="edge19_Node000013_Node000018" class="edge">
<title>Node13&#45;&gt;Node18</title>
<g id="a_edge19_Node000013_Node000018"><a xlink:title=" ">
<path fill="none" stroke="#63b8ff" d="M514.32,-266.5C536.1,-272.23 560.73,-278.7 583.31,-284.65"/>
<polygon fill="#63b8ff" stroke="#63b8ff" points="582.18,-287.97 592.74,-287.13 583.96,-281.2 582.18,-287.97"/>
</a>
</g>
</g>
<!-- Node20 -->
<g id="Node000020" class="node">
<title>Node20</title>
<g id="a_Node000020"><a xlink:href="classfr_1_1softsf_1_1canscan_1_1_can_scan.html#a9f205dfdb266d5d7f8f8899b69742663" target="_top" xlink:title="Adds the generate button to the north panel.">
<polygon fill="white" stroke="#666666" points="733.75,-167 582,-167 582,-135 733.75,-135 733.75,-167"/>
<text text-anchor="start" x="590" y="-153.5" font-family="Helvetica,sans-Serif" font-size="10.00">fr.softsf.canscan.CanScan.add</text>
<text text-anchor="middle" x="657.88" y="-141.5" font-family="Helvetica,sans-Serif" font-size="10.00">NorthPanelGenerateButton</text>
</a>
</g>
</g>
<!-- Node13&#45;&gt;Node20 -->
<g id="edge24_Node000013_Node000020" class="edge">
<title>Node13&#45;&gt;Node20</title>
<g id="a_edge24_Node000013_Node000020"><a xlink:title=" ">
<path fill="none" stroke="#63b8ff" d="M521.27,-233.57C526.55,-231.1 531.61,-228.26 536.25,-225 558.37,-209.47 550.13,-191.53 572.25,-176 573.84,-174.88 575.49,-173.81 577.18,-172.79"/>
<polygon fill="#63b8ff" stroke="#63b8ff" points="578.71,-175.94 585.89,-168.14 575.42,-169.76 578.71,-175.94"/>
</a>
</g>
</g>
<!-- Node21 -->
<g id="Node000021" class="node">
<title>Node21</title>
<g id="a_Node000021"><a xlink:href="classfr_1_1softsf_1_1canscan_1_1_can_scan.html#aa469763b92dd7cbc6dfdb9aaa0116b33" target="_top" xlink:title="Adds mode selection controls (MECARD/Free) to the north panel.">
<polygon fill="white" stroke="#666666" points="733.75,-217 582,-217 582,-185 733.75,-185 733.75,-217"/>
<text text-anchor="start" x="590" y="-203.5" font-family="Helvetica,sans-Serif" font-size="10.00">fr.softsf.canscan.CanScan.add</text>
<text text-anchor="middle" x="657.88" y="-191.5" font-family="Helvetica,sans-Serif" font-size="10.00">NorthPanelModeSelection</text>
</a>
</g>
</g>
<!-- Node13&#45;&gt;Node21 -->
<g id="edge25_Node000013_Node000021" class="edge">
<title>Node13&#45;&gt;Node21</title>
<g id="a_edge25_Node000013_Node000021"><a xlink:title=" ">
<path fill="none" stroke="#63b8ff" d="M520.54,-233.55C538.56,-229.24 558.15,-224.57 576.7,-220.14"/>
<polygon fill="#63b8ff" stroke="#63b8ff" points="577.41,-223.57 586.32,-217.84 575.78,-216.76 577.41,-223.57"/>
</a>
</g>
</g>
<!-- Node27 -->
<g id="Node000027" class="node">
<title>Node27</title>
<g id="a_Node000027"><a xlink:href="classfr_1_1softsf_1_1canscan_1_1_can_scan.html#aeb5550da33925e95999aae23f525f7c5" target="_top" xlink:title="Creates default GridBagConstraints for consistent layout configuration.">
<polygon fill="white" stroke="#666666" points="736.75,-370 579,-370 579,-338 736.75,-338 736.75,-370"/>
<text text-anchor="start" x="587" y="-356.5" font-family="Helvetica,sans-Serif" font-size="10.00">fr.softsf.canscan.CanScan.north</text>
<text text-anchor="middle" x="657.88" y="-344.5" font-family="Helvetica,sans-Serif" font-size="10.00">PanelGridBagConstraints</text>
</a>
</g>
</g>
<!-- Node13&#45;&gt;Node27 -->
<g id="edge34_Node000013_Node000027" class="edge">
<title>Node13&#45;&gt;Node27</title>
<g id="a_edge34_Node000013_Node000027"><a xlink:title=" ">
<path fill="none" stroke="#63b8ff" d="M512.16,-266.4C520.68,-270.12 528.99,-274.61 536.25,-280 557.94,-296.11 550.13,-313.47 572.25,-329 573.84,-330.12 575.49,-331.19 577.18,-332.21"/>
<polygon fill="#63b8ff" stroke="#63b8ff" points="575.42,-335.24 585.89,-336.86 578.71,-329.06 575.42,-335.24"/>
</a>
</g>
</g>
<!-- Node15 -->
<g id="Node000015" class="node">
<title>Node15</title>
<g id="a_Node000015"><a xlink:href="classfr_1_1softsf_1_1canscan_1_1_can_scan.html#a38d65dd319daee1c3288690c17e43ca5" target="_top" xlink:title="Initializes the FREE mode input panel with a multiline text area for arbitrary text or URLs.">
<polygon fill="white" stroke="#666666" points="962.75,-283 789.25,-283 789.25,-263 962.75,-263 962.75,-283"/>
<text text-anchor="middle" x="876" y="-269.5" font-family="Helvetica,sans-Serif" font-size="10.00">fr.softsf.canscan.CanScan.freeCard</text>
</a>
</g>
</g>
<!-- Node14&#45;&gt;Node15 -->
<g id="edge15_Node000014_Node000015" class="edge">
<title>Node14&#45;&gt;Node15</title>
<g id="a_edge15_Node000014_Node000015"><a xlink:title=" ">
<path fill="none" stroke="#63b8ff" d="M734.16,-258.66C748.24,-260.1 763.13,-261.61 777.76,-263.1"/>
<polygon fill="#63b8ff" stroke="#63b8ff" points="777.07,-266.55 787.37,-264.08 777.78,-259.59 777.07,-266.55"/>
</a>
</g>
</g>
<!-- Node17 -->
<g id="Node000017" class="node">
<title>Node17</title>
<g id="a_Node000017"><a xlink:href="classfr_1_1softsf_1_1canscan_1_1_can_scan.html#aed7e3048974882318a6519d8d36e8ec0" target="_top" xlink:title="Initializes the MECARD input panel with labeled text fields for structured contact information.">
<polygon fill="white" stroke="#666666" points="960.12,-245 791.88,-245 791.88,-225 960.12,-225 960.12,-245"/>
<text text-anchor="middle" x="876" y="-231.5" font-family="Helvetica,sans-Serif" font-size="10.00">fr.softsf.canscan.CanScan.mecard</text>
</a>
</g>
</g>
<!-- Node14&#45;&gt;Node17 -->
<g id="edge17_Node000014_Node000017" class="edge">
<title>Node14&#45;&gt;Node17</title>
<g id="a_edge17_Node000014_Node000017"><a xlink:title=" ">
<path fill="none" stroke="#63b8ff" d="M734.16,-245.43C749.06,-244.32 764.88,-243.15 780.33,-242.01"/>
<polygon fill="#63b8ff" stroke="#63b8ff" points="780.27,-245.52 789.98,-241.29 779.75,-238.54 780.27,-245.52"/>
</a>
</g>
</g>
<!-- Node16 -->
<g id="Node000016" class="node">
<title>Node16</title>
<g id="a_Node000016"><a xlink:href="classfr_1_1softsf_1_1canscan_1_1_can_scan.html#a2732ecdc4490a717352975e68fce494c" target="_top" xlink:title="Adds a labeled component row to a panel using GridBagLayout.">
<polygon fill="white" stroke="#666666" points="1180.5,-264 1008.5,-264 1008.5,-244 1180.5,-244 1180.5,-264"/>
<text text-anchor="middle" x="1094.5" y="-250.5" font-family="Helvetica,sans-Serif" font-size="10.00">fr.softsf.canscan.CanScan.addRow</text>
</a>
</g>
</g>
<!-- Node15&#45;&gt;Node16 -->
<g id="edge16_Node000015_Node000016" class="edge">
<title>Node15&#45;&gt;Node16</title>
<g id="a_edge16_Node000015_Node000016"><a xlink:title=" ">
<path fill="none" stroke="#63b8ff" d="M963.19,-265.44C974.33,-264.46 985.8,-263.45 997.1,-262.46"/>
<polygon fill="#63b8ff" stroke="#63b8ff" points="997.15,-265.97 1006.81,-261.61 996.54,-259 997.15,-265.97"/>
</a>
</g>
</g>
<!-- Node17&#45;&gt;Node16 -->
<g id="edge18_Node000017_Node000016" class="edge">
<title>Node17&#45;&gt;Node16</title>
<g id="a_edge18_Node000017_Node000016"><a xlink:title=" ">
<path fill="none" stroke="#63b8ff" d="M960.39,-242.32C972.43,-243.38 984.91,-244.47 997.17,-245.55"/>
<polygon fill="#63b8ff" stroke="#63b8ff" points="996.58,-249.01 1006.85,-246.4 997.19,-242.03 996.58,-249.01"/>
</a>
</g>
</g>
<!-- Node18&#45;&gt;Node16 -->
<g id="edge20_Node000018_Node000016" class="edge">
<title>Node18&#45;&gt;Node16</title>
<g id="a_edge20_Node000018_Node000016"><a xlink:title=" ">
<path fill="none" stroke="#63b8ff" d="M734.23,-306.7C798.13,-307.66 891.96,-305.93 972.5,-292 1001.53,-286.98 1033.27,-276.82 1056.96,-268.28"/>
<polygon fill="#63b8ff" stroke="#63b8ff" points="1057.97,-271.63 1066.14,-264.89 1055.55,-265.06 1057.97,-271.63"/>
</a>
</g>
</g>
<!-- Node19 -->
<g id="Node000019" class="node">
<title>Node19</title>
<g id="a_Node000019"><a xlink:href="classfr_1_1softsf_1_1canscan_1_1_can_scan.html#a17b0a72ab305f98f86591411b6a352f2" target="_top" xlink:title="Creates the color selection panel for QR code and background colors.">
<polygon fill="white" stroke="#666666" points="954.5,-371 797.5,-371 797.5,-339 954.5,-339 954.5,-371"/>
<text text-anchor="start" x="805.5" y="-357.5" font-family="Helvetica,sans-Serif" font-size="10.00">fr.softsf.canscan.CanScan.color</text>
<text text-anchor="middle" x="876" y="-345.5" font-family="Helvetica,sans-Serif" font-size="10.00">Panel</text>
</a>
</g>
</g>
<!-- Node18&#45;&gt;Node19 -->
<g id="edge21_Node000018_Node000019" class="edge">
<title>Node18&#45;&gt;Node19</title>
<g id="a_edge21_Node000018_Node000019"><a xlink:title=" ">
<path fill="none" stroke="#63b8ff" d="M728.75,-320.49C749.65,-325.42 772.73,-330.87 794.27,-335.95"/>
<polygon fill="#63b8ff" stroke="#63b8ff" points="793.36,-339.33 803.9,-338.22 794.97,-332.52 793.36,-339.33"/>
</a>
</g>
</g>
<!-- Node19&#45;&gt;Node6 -->
<g id="edge23_Node000019_Node000006" class="edge">
<title>Node19&#45;&gt;Node6</title>
<g id="a_edge23_Node000019_Node000006"><a xlink:title=" ">
<path fill="none" stroke="#63b8ff" d="M937.31,-371.43C963.71,-378.63 994.87,-387.12 1022.39,-394.62"/>
<polygon fill="#63b8ff" stroke="#63b8ff" points="1021.11,-397.9 1031.68,-397.15 1022.95,-391.15 1021.11,-397.9"/>
</a>
</g>
</g>
<!-- Node19&#45;&gt;Node19 -->
<g id="edge22_Node000019_Node000019" class="edge">
<title>Node19&#45;&gt;Node19</title>
<g id="a_edge22_Node000019_Node000019"><a xlink:title=" ">
<path fill="none" stroke="#63b8ff" d="M837.06,-371.44C829.79,-380.58 842.77,-389 876,-389 894.43,-389 906.63,-386.41 912.61,-382.54"/>
<polygon fill="#63b8ff" stroke="#63b8ff" points="916,-383.43 914.63,-372.92 909.15,-381.99 916,-383.43"/>
</a>
</g>
</g>
<!-- Node21&#45;&gt;Node16 -->
<g id="edge26_Node000021_Node000016" class="edge">
<title>Node21&#45;&gt;Node16</title>
<g id="a_edge26_Node000021_Node000016"><a xlink:title=" ">
<path fill="none" stroke="#63b8ff" d="M733.93,-199.22C797.85,-198.98 891.86,-201.66 972.5,-216 1001.32,-221.13 1032.84,-231.18 1056.48,-239.65"/>
<polygon fill="#63b8ff" stroke="#63b8ff" points="1055.06,-242.86 1065.66,-243.02 1057.47,-236.29 1055.06,-242.86"/>
</a>
</g>
</g>
<!-- Node22 -->
<g id="Node000022" class="node">
<title>Node22</title>
<g id="a_Node000022"><a xlink:href="classfr_1_1softsf_1_1canscan_1_1_can_scan.html#a381579d3adc53b1122b38e7fda5c0235" target="_top" xlink:title="Configures the update button for version checking.">
<polygon fill="white" stroke="#666666" points="963.88,-101 788.12,-101 788.12,-69 963.88,-69 963.88,-101"/>
<text text-anchor="start" x="796.12" y="-87.5" font-family="Helvetica,sans-Serif" font-size="10.00">fr.softsf.canscan.CanScan.configure</text>
<text text-anchor="middle" x="876" y="-75.5" font-family="Helvetica,sans-Serif" font-size="10.00">UpdateButton</text>
</a>
</g>
</g>
<!-- Node21&#45;&gt;Node22 -->
<g id="edge27_Node000021_Node000022" class="edge">
<title>Node21&#45;&gt;Node22</title>
<g id="a_edge27_Node000021_Node000022"><a xlink:title=" ">
<path fill="none" stroke="#63b8ff" d="M730.28,-184.59C734.98,-182.12 739.45,-179.27 743.5,-176 769.49,-155.01 753.18,-130.58 779.5,-110 780.81,-108.98 782.15,-108 783.53,-107.05"/>
<polygon fill="#63b8ff" stroke="#63b8ff" points="784.94,-110.29 791.76,-102.18 781.37,-104.27 784.94,-110.29"/>
</a>
</g>
</g>
<!-- Node23 -->
<g id="Node000023" class="node">
<title>Node23</title>
<g id="a_Node000023"><a xlink:href="classfr_1_1softsf_1_1canscan_1_1_can_scan.html#a5d8f82f2666e6632015dbc4a8ff2b58e" target="_top" xlink:title="Creates the radio button panel for mode selection.">
<polygon fill="white" stroke="#666666" points="954.5,-151 797.5,-151 797.5,-119 954.5,-119 954.5,-151"/>
<text text-anchor="start" x="805.5" y="-137.5" font-family="Helvetica,sans-Serif" font-size="10.00">fr.softsf.canscan.CanScan.radio</text>
<text text-anchor="middle" x="876" y="-125.5" font-family="Helvetica,sans-Serif" font-size="10.00">ButtonsPanel</text>
</a>
</g>
</g>
<!-- Node21&#45;&gt;Node23 -->
<g id="edge28_Node000021_Node000023" class="edge">
<title>Node21&#45;&gt;Node23</title>
<g id="a_edge28_Node000021_Node000023"><a xlink:title=" ">
<path fill="none" stroke="#63b8ff" d="M714.9,-184.58C724.45,-181.74 734.26,-178.8 743.5,-176 765.91,-169.2 790.43,-161.6 812.15,-154.81"/>
<polygon fill="#63b8ff" stroke="#63b8ff" points="812.96,-158.22 821.46,-151.89 810.87,-151.54 812.96,-158.22"/>
</a>
</g>
</g>
<!-- Node24 -->
<g id="Node000024" class="node">
<title>Node24</title>
<g id="a_Node000024"><a xlink:href="classfr_1_1softsf_1_1canscan_1_1_can_scan.html#a428c742b098fa27d4c8984c1030c238d" target="_top" xlink:title="Switches the application between MECARD and FREE QR code modes.">
<polygon fill="white" stroke="#666666" points="970.25,-51 781.75,-51 781.75,-31 970.25,-31 970.25,-51"/>
<text text-anchor="middle" x="876" y="-37.5" font-family="Helvetica,sans-Serif" font-size="10.00">fr.softsf.canscan.CanScan.switchMode</text>
</a>
</g>
</g>
<!-- Node21&#45;&gt;Node24 -->
<g id="edge30_Node000021_Node000024" class="edge">
<title>Node21&#45;&gt;Node24</title>
<g id="a_edge30_Node000021_Node000024"><a xlink:title=" ">
<path fill="none" stroke="#63b8ff" d="M732.24,-184.74C736.32,-182.23 740.12,-179.34 743.5,-176 781.93,-138.09 739.39,-96.12 779.5,-60 780.44,-59.15 781.41,-58.34 782.4,-57.55"/>
<polygon fill="#63b8ff" stroke="#63b8ff" points="784.2,-60.56 790.67,-52.17 780.38,-54.69 784.2,-60.56"/>
</a>
</g>
</g>
<!-- Node23&#45;&gt;Node23 -->
<g id="edge29_Node000023_Node000023" class="edge">
<title>Node23&#45;&gt;Node23</title>
<g id="a_edge29_Node000023_Node000023"><a xlink:title=" ">
<path fill="none" stroke="#63b8ff" d="M837.06,-151.44C829.79,-160.58 842.77,-169 876,-169 894.43,-169 906.63,-166.41 912.61,-162.54"/>
<polygon fill="#63b8ff" stroke="#63b8ff" points="916,-163.43 914.63,-152.92 909.15,-161.99 916,-163.43"/>
</a>
</g>
</g>
<!-- Node24&#45;&gt;Node6 -->
<g id="edge31_Node000024_Node000006" class="edge">
<title>Node24&#45;&gt;Node6</title>
<g id="a_edge31_Node000024_Node000006"><a xlink:title=" ">
<path fill="none" stroke="#63b8ff" d="M961.47,-51.29C965.48,-53.73 969.2,-56.6 972.5,-60 1039.4,-128.86 975.13,-182.98 1008.5,-273 1024.6,-316.44 1054.39,-361.4 1074.08,-388.54"/>
<polygon fill="#63b8ff" stroke="#63b8ff" points="1071.18,-390.5 1079.93,-396.48 1076.81,-386.35 1071.18,-390.5"/>
</a>
</g>
</g>
<!-- Node25 -->
<g id="Node000025" class="node">
<title>Node25</title>
<g id="a_Node000025"><a xlink:href="enumfr_1_1softsf_1_1canscan_1_1model_1_1_mode.html#a16a898a11ca939056bd7b275f11ea54c" target="_top" xlink:title="Returns the mode label.">
<polygon fill="white" stroke="#666666" points="1155.38,-32 1033.62,-32 1033.62,0 1155.38,0 1155.38,-32"/>
<text text-anchor="start" x="1041.62" y="-18.5" font-family="Helvetica,sans-Serif" font-size="10.00">fr.softsf.canscan.model.</text>
<text text-anchor="middle" x="1094.5" y="-6.5" font-family="Helvetica,sans-Serif" font-size="10.00">Mode.text</text>
</a>
</g>
</g>
<!-- Node24&#45;&gt;Node25 -->
<g id="edge32_Node000024_Node000025" class="edge">
<title>Node24&#45;&gt;Node25</title>
<g id="a_edge32_Node000024_Node000025"><a xlink:title=" ">
<path fill="none" stroke="#63b8ff" d="M967.87,-30.51C986.01,-28.41 1004.8,-26.24 1022.16,-24.24"/>
<polygon fill="#63b8ff" stroke="#63b8ff" points="1022.31,-27.74 1031.84,-23.12 1021.5,-20.79 1022.31,-27.74"/>
</a>
</g>
</g>
<!-- Node26 -->
<g id="Node000026" class="node">
<title>Node26</title>
<g id="a_Node000026"><a xlink:href="classfr_1_1softsf_1_1canscan_1_1_can_scan.html#a11fd9295c4843e6e68f9d1e4a710b906" target="_top" xlink:title="Validates the current input fields and toggles the state of the generate button.">
<polygon fill="white" stroke="#666666" points="1177.12,-82 1011.88,-82 1011.88,-50 1177.12,-50 1177.12,-82"/>
<text text-anchor="start" x="1019.88" y="-68.5" font-family="Helvetica,sans-Serif" font-size="10.00">fr.softsf.canscan.CanScan.update</text>
<text text-anchor="middle" x="1094.5" y="-56.5" font-family="Helvetica,sans-Serif" font-size="10.00">GenerateButtonState</text>
</a>
</g>
</g>
<!-- Node24&#45;&gt;Node26 -->
<g id="edge33_Node000024_Node000026" class="edge">
<title>Node24&#45;&gt;Node26</title>
<g id="a_edge33_Node000024_Node000026"><a xlink:title=" ">
<path fill="none" stroke="#63b8ff" d="M967.87,-51.49C978.61,-52.73 989.58,-54 1000.35,-55.24"/>
<polygon fill="#63b8ff" stroke="#63b8ff" points="999.63,-58.68 1009.97,-56.35 1000.44,-51.73 999.63,-58.68"/>
</a>
</g>
</g>
<!-- Node30 -->
<g id="Node000030" class="node">
<title>Node30</title>
<g id="a_Node000030"><a xlink:href="classfr_1_1softsf_1_1canscan_1_1_can_scan.html#abbe4fb71ad979d6affed0b2c9629b832" target="_top" xlink:title="Updates the tooltip of the ratio slider to reflect its current value as a percentage.">
<polygon fill="white" stroke="#666666" points="732.62,-117 583.12,-117 583.12,-85 732.62,-85 732.62,-117"/>
<text text-anchor="start" x="591.12" y="-103.5" font-family="Helvetica,sans-Serif" font-size="10.00">fr.softsf.canscan.CanScan.set</text>
<text text-anchor="middle" x="657.88" y="-91.5" font-family="Helvetica,sans-Serif" font-size="10.00">RatioSliderTooltipValue</text>
</a>
</g>
</g>
<!-- Node29&#45;&gt;Node30 -->
<g id="edge37_Node000029_Node000030" class="edge">
<title>Node29&#45;&gt;Node30</title>
<g id="a_edge37_Node000029_Node000030"><a xlink:title=" ">
<path fill="none" stroke="#63b8ff" d="M520.54,-133.55C538.56,-129.24 558.15,-124.57 576.7,-120.14"/>
<polygon fill="#63b8ff" stroke="#63b8ff" points="577.41,-123.57 586.32,-117.84 575.78,-116.76 577.41,-123.57"/>
</a>
</g>
</g>
<!-- Node32 -->
<g id="Node000032" class="node">
<title>Node32</title>
<g id="a_Node000032"><a xlink:href="classfr_1_1softsf_1_1canscan_1_1_can_scan.html#aefe4d08d96fdc7b2097daf4033bbbb9c" target="_top" xlink:title="Loads application metadata from the version.properties file.">
<polygon fill="white" stroke="#666666" points="732.62,-67 583.12,-67 583.12,-35 732.62,-35 732.62,-67"/>
<text text-anchor="start" x="591.12" y="-53.5" font-family="Helvetica,sans-Serif" font-size="10.00">fr.softsf.canscan.CanScan.get</text>
<text text-anchor="middle" x="657.88" y="-41.5" font-family="Helvetica,sans-Serif" font-size="10.00">ManifestKeys</text>
</a>
</g>
</g>
<!-- Node31&#45;&gt;Node32 -->
<g id="edge39_Node000031_Node000032" class="edge">
<title>Node31&#45;&gt;Node32</title>
<g id="a_edge39_Node000031_Node000032"><a xlink:title=" ">
<path fill="none" stroke="#63b8ff" d="M521.97,-82.55C539.19,-78.52 557.76,-74.18 575.44,-70.04"/>
<polygon fill="#63b8ff" stroke="#63b8ff" points="576.2,-73.46 585.14,-67.77 574.61,-66.64 576.2,-73.46"/>
</a>
</g>
</g>
<!-- Node32&#45;&gt;Node2 -->
<g id="edge40_Node000032_Node000002" class="edge">
<title>Node32&#45;&gt;Node2</title>
<g id="a_edge40_Node000032_Node000002"><a xlink:title=" ">
<path fill="none" stroke="#63b8ff" d="M582.74,-39.95C520.42,-34.43 431.18,-35.63 365,-74 316.69,-102.01 286.13,-162.85 271.74,-198.16"/>
<polygon fill="#63b8ff" stroke="#63b8ff" points="268.57,-196.65 268.19,-207.24 275.09,-199.21 268.57,-196.65"/>
</a>
</g>
</g>
<!-- Node34 -->
<g id="Node000034" class="node">
<title>Node34</title>
<g id="a_Node000034"><a xlink:href="classfr_1_1softsf_1_1canscan_1_1_can_scan.html#a0fe215984734bb1337dd49ca30238b78" target="_top" xlink:title="Sets the loader size so it matches the QR code label height and remains centered.">
<polygon fill="white" stroke="#666666" points="1169.25,-560 1019.75,-560 1019.75,-528 1169.25,-528 1169.25,-560"/>
<text text-anchor="start" x="1027.75" y="-546.5" font-family="Helvetica,sans-Serif" font-size="10.00">fr.softsf.canscan.CanScan.set</text>
<text text-anchor="middle" x="1094.5" y="-534.5" font-family="Helvetica,sans-Serif" font-size="10.00">LoaderSize</text>
</a>
</g>
</g>
<!-- Node33&#45;&gt;Node34 -->
<g id="edge42_Node000033_Node000034" class="edge">
<title>Node33&#45;&gt;Node34</title>
<g id="a_edge42_Node000033_Node000034"><a xlink:title=" ">
<path fill="none" stroke="#63b8ff" d="M524.83,-354.42C528.95,-356.9 532.8,-359.74 536.25,-363 570.86,-395.76 538.42,-430.44 572.25,-464 641.48,-532.67 683.56,-518.55 779.5,-536 856.05,-549.92 944.81,-550.81 1008.39,-548.87"/>
<polygon fill="#63b8ff" stroke="#63b8ff" points="1008.18,-552.38 1018.05,-548.54 1007.94,-545.38 1008.18,-552.38"/>
</a>
</g>
</g>
<!-- Node34&#45;&gt;Node7 -->
<g id="edge43_Node000034_Node000007" class="edge">
<title>Node34&#45;&gt;Node7</title>
<g id="a_edge43_Node000034_Node000007"><a xlink:title=" ">
<path fill="none" stroke="#63b8ff" d="M1169.53,-540.43C1181,-539.88 1192.99,-539.3 1204.89,-538.73"/>
<polygon fill="#63b8ff" stroke="#63b8ff" points="1204.91,-542.23 1214.73,-538.25 1204.58,-535.24 1204.91,-542.23"/>
</a>
</g>
</g>
</g>
</svg>
