<?xml version="1.0" encoding="UTF-8" standalone="no"?>
<!DOCTYPE svg PUBLIC "-//W3C//DTD SVG 1.1//EN"
 "http://www.w3.org/Graphics/SVG/1.1/DTD/svg11.dtd">
<!-- Generated by graphviz version 12.2.1 (20241206.2353)
 -->
<!-- Title: fr.softsf.canscan.CanScan.isInPositionPattern Pages: 1 -->
<svg width="331pt" height="140pt"
 viewBox="0.00 0.00 331.00 140.00" xmlns="http://www.w3.org/2000/svg" xmlns:xlink="http://www.w3.org/1999/xlink">
<g id="graph0" class="graph" transform="scale(1 1) rotate(0) translate(4 136)">
<title>fr.softsf.canscan.CanScan.isInPositionPattern</title>
<!-- Node1 -->
<g id="Node000001" class="node">
<title>Node1</title>
<g id="a_Node000001"><a xlink:title="Determines whether the given coordinates fall within any of the three QR code position patterns.">
<polygon fill="#999999" stroke="#666666" points="143.5,-82 0,-82 0,-50 143.5,-50 143.5,-82"/>
<text text-anchor="start" x="8" y="-68.5" font-family="Helvetica,sans-Serif" font-size="10.00">fr.softsf.canscan.CanScan.is</text>
<text text-anchor="middle" x="71.75" y="-56.5" font-family="Helvetica,sans-Serif" font-size="10.00">InPositionPattern</text>
</a>
</g>
</g>
<!-- Node2 -->
<g id="Node000002" class="node">
<title>Node2</title>
<g id="a_Node000002"><a xlink:href="classfr_1_1softsf_1_1canscan_1_1_can_scan.html#abf3dc1201aa081507d7a0229e3c798e4" target="_top" xlink:title="Checks if coordinates are within the bottom&#45;left position pattern.">
<polygon fill="white" stroke="#666666" points="323,-132 179.5,-132 179.5,-100 323,-100 323,-132"/>
<text text-anchor="start" x="187.5" y="-118.5" font-family="Helvetica,sans-Serif" font-size="10.00">fr.softsf.canscan.CanScan.is</text>
<text text-anchor="middle" x="251.25" y="-106.5" font-family="Helvetica,sans-Serif" font-size="10.00">InBottomLeftPattern</text>
</a>
</g>
</g>
<!-- Node1&#45;&gt;Node2 -->
<g id="edge1_Node000001_Node000002" class="edge">
<title>Node1&#45;&gt;Node2</title>
<g id="a_edge1_Node000001_Node000002"><a xlink:title=" ">
<path fill="none" stroke="#63b8ff" d="M130.87,-82.37C146.88,-86.88 164.4,-91.82 180.97,-96.48"/>
<polygon fill="#63b8ff" stroke="#63b8ff" points="179.66,-99.75 190.24,-99.1 181.56,-93.02 179.66,-99.75"/>
</a>
</g>
</g>
<!-- Node3 -->
<g id="Node000003" class="node">
<title>Node3</title>
<g id="a_Node000003"><a xlink:href="classfr_1_1softsf_1_1canscan_1_1_can_scan.html#a169bc46f13cb9990c8629fdd13abf182" target="_top" xlink:title="Checks if coordinates are within the top&#45;left position pattern.">
<polygon fill="white" stroke="#666666" points="323,-82 179.5,-82 179.5,-50 323,-50 323,-82"/>
<text text-anchor="start" x="187.5" y="-68.5" font-family="Helvetica,sans-Serif" font-size="10.00">fr.softsf.canscan.CanScan.is</text>
<text text-anchor="middle" x="251.25" y="-56.5" font-family="Helvetica,sans-Serif" font-size="10.00">InTopLeftPattern</text>
</a>
</g>
</g>
<!-- Node1&#45;&gt;Node3 -->
<g id="edge2_Node000001_Node000003" class="edge">
<title>Node1&#45;&gt;Node3</title>
<g id="a_edge2_Node000001_Node000003"><a xlink:title=" ">
<path fill="none" stroke="#63b8ff" d="M143.92,-66C151.7,-66 159.66,-66 167.56,-66"/>
<polygon fill="#63b8ff" stroke="#63b8ff" points="167.55,-69.5 177.55,-66 167.55,-62.5 167.55,-69.5"/>
</a>
</g>
</g>
<!-- Node4 -->
<g id="Node000004" class="node">
<title>Node4</title>
<g id="a_Node000004"><a xlink:href="classfr_1_1softsf_1_1canscan_1_1_can_scan.html#a12dfb700fa0b93fec09bf799ef2a917f" target="_top" xlink:title="Checks if coordinates are within the top&#45;right position pattern.">
<polygon fill="white" stroke="#666666" points="323,-32 179.5,-32 179.5,0 323,0 323,-32"/>
<text text-anchor="start" x="187.5" y="-18.5" font-family="Helvetica,sans-Serif" font-size="10.00">fr.softsf.canscan.CanScan.is</text>
<text text-anchor="middle" x="251.25" y="-6.5" font-family="Helvetica,sans-Serif" font-size="10.00">InTopRightPattern</text>
</a>
</g>
</g>
<!-- Node1&#45;&gt;Node4 -->
<g id="edge3_Node000001_Node000004" class="edge">
<title>Node1&#45;&gt;Node4</title>
<g id="a_edge3_Node000001_Node000004"><a xlink:title=" ">
<path fill="none" stroke="#63b8ff" d="M130.87,-49.63C146.88,-45.12 164.4,-40.18 180.97,-35.52"/>
<polygon fill="#63b8ff" stroke="#63b8ff" points="181.56,-38.98 190.24,-32.9 179.66,-32.25 181.56,-38.98"/>
</a>
</g>
</g>
</g>
</svg>
