<?xml version="1.0" encoding="UTF-8" standalone="no"?>
<!DOCTYPE svg PUBLIC "-//W3C//DTD SVG 1.1//EN"
 "http://www.w3.org/Graphics/SVG/1.1/DTD/svg11.dtd">
<!-- Generated by graphviz version 12.2.1 (20241206.2353)
 -->
<!-- Title: fr.softsf.canscan.CanScan.automaticQRCodeRenderingForFieldsAndControls Pages: 1 -->
<svg width="592pt" height="190pt"
 viewBox="0.00 0.00 592.25 190.00" xmlns="http://www.w3.org/2000/svg" xmlns:xlink="http://www.w3.org/1999/xlink">
<g id="graph0" class="graph" transform="scale(1 1) rotate(0) translate(4 186)">
<title>fr.softsf.canscan.CanScan.automaticQRCodeRenderingForFieldsAndControls</title>
<!-- Node1 -->
<g id="Node000001" class="node">
<title>Node1</title>
<g id="a_Node000001"><a xlink:title="Attaches automatic QR preview updates and input validation to all fields and controls.">
<polygon fill="#999999" stroke="#666666" points="193,-107 0,-107 0,-75 193,-75 193,-107"/>
<text text-anchor="start" x="8" y="-93.5" font-family="Helvetica,sans-Serif" font-size="10.00">fr.softsf.canscan.CanScan.automatic</text>
<text text-anchor="middle" x="96.5" y="-81.5" font-family="Helvetica,sans-Serif" font-size="10.00">QRCodeRenderingForFieldsAndControls</text>
</a>
</g>
</g>
<!-- Node2 -->
<g id="Node000002" class="node">
<title>Node2</title>
<g id="a_Node000002"><a xlink:href="classfr_1_1softsf_1_1canscan_1_1_can_scan.html#a180290bc488e2346592ded98ccc4b1f3" target="_top" xlink:title="Collects current input and visual settings into a WholeFields for QR code generation.">
<polygon fill="white" stroke="#666666" points="378.5,-107 229,-107 229,-75 378.5,-75 378.5,-107"/>
<text text-anchor="start" x="237" y="-93.5" font-family="Helvetica,sans-Serif" font-size="10.00">fr.softsf.canscan.CanScan.get</text>
<text text-anchor="middle" x="303.75" y="-81.5" font-family="Helvetica,sans-Serif" font-size="10.00">QrInput</text>
</a>
</g>
</g>
<!-- Node1&#45;&gt;Node2 -->
<g id="edge1_Node000001_Node000002" class="edge">
<title>Node1&#45;&gt;Node2</title>
<g id="a_edge1_Node000001_Node000002"><a xlink:title=" ">
<path fill="none" stroke="#63b8ff" d="M193.21,-91C201.22,-91 209.28,-91 217.2,-91"/>
<polygon fill="#63b8ff" stroke="#63b8ff" points="217.17,-94.5 227.17,-91 217.17,-87.5 217.17,-94.5"/>
</a>
</g>
</g>
<!-- Node3 -->
<g id="Node000003" class="node">
<title>Node3</title>
<g id="a_Node000003"><a xlink:href="classfr_1_1softsf_1_1canscan_1_1_can_scan.html#a4e67b1b5c764e72414a5c0f387810f5c" target="_top" xlink:title="Validates and returns the current QR code margin from the margin slider.">
<polygon fill="white" stroke="#666666" points="584.25,-182 414.5,-182 414.5,-150 584.25,-150 584.25,-182"/>
<text text-anchor="start" x="422.5" y="-168.5" font-family="Helvetica,sans-Serif" font-size="10.00">fr.softsf.canscan.CanScan.validate</text>
<text text-anchor="middle" x="499.38" y="-156.5" font-family="Helvetica,sans-Serif" font-size="10.00">AndGetMargin</text>
</a>
</g>
</g>
<!-- Node2&#45;&gt;Node3 -->
<g id="edge2_Node000002_Node000003" class="edge">
<title>Node2&#45;&gt;Node3</title>
<g id="a_edge2_Node000002_Node000003"><a xlink:title=" ">
<path fill="none" stroke="#63b8ff" d="M337.39,-107.3C358.96,-117.72 388.03,-131.08 414.5,-141 419.11,-142.73 423.89,-144.42 428.73,-146.05"/>
<polygon fill="#63b8ff" stroke="#63b8ff" points="427.34,-149.28 437.94,-149.06 429.52,-142.63 427.34,-149.28"/>
</a>
</g>
</g>
<!-- Node4 -->
<g id="Node000004" class="node">
<title>Node4</title>
<g id="a_Node000004"><a xlink:href="classfr_1_1softsf_1_1canscan_1_1_can_scan.html#a8a2b238ac4af96d8710b3e5d7d051f77" target="_top" xlink:title="Validates and returns the current meet UID from the meet title field.">
<polygon fill="white" stroke="#666666" points="584.25,-132 414.5,-132 414.5,-100 584.25,-100 584.25,-132"/>
<text text-anchor="start" x="422.5" y="-118.5" font-family="Helvetica,sans-Serif" font-size="10.00">fr.softsf.canscan.CanScan.validate</text>
<text text-anchor="middle" x="499.38" y="-106.5" font-family="Helvetica,sans-Serif" font-size="10.00">AndGetMeetUID</text>
</a>
</g>
</g>
<!-- Node2&#45;&gt;Node4 -->
<g id="edge3_Node000002_Node000004" class="edge">
<title>Node2&#45;&gt;Node4</title>
<g id="a_edge3_Node000002_Node000004"><a xlink:title=" ">
<path fill="none" stroke="#63b8ff" d="M378.78,-100.56C386.62,-101.57 394.66,-102.61 402.7,-103.65"/>
<polygon fill="#63b8ff" stroke="#63b8ff" points="402.17,-107.11 412.53,-104.92 403.07,-100.16 402.17,-107.11"/>
</a>
</g>
</g>
<!-- Node5 -->
<g id="Node000005" class="node">
<title>Node5</title>
<g id="a_Node000005"><a xlink:href="classfr_1_1softsf_1_1canscan_1_1_can_scan.html#a9e8188875168199cde065113ae2a393d" target="_top" xlink:title="Validates and returns the current image&#45;to&#45;QR ratio from the ratio slider.">
<polygon fill="white" stroke="#666666" points="584.25,-82 414.5,-82 414.5,-50 584.25,-50 584.25,-82"/>
<text text-anchor="start" x="422.5" y="-68.5" font-family="Helvetica,sans-Serif" font-size="10.00">fr.softsf.canscan.CanScan.validate</text>
<text text-anchor="middle" x="499.38" y="-56.5" font-family="Helvetica,sans-Serif" font-size="10.00">AndGetRatio</text>
</a>
</g>
</g>
<!-- Node2&#45;&gt;Node5 -->
<g id="edge4_Node000002_Node000005" class="edge">
<title>Node2&#45;&gt;Node5</title>
<g id="a_edge4_Node000002_Node000005"><a xlink:title=" ">
<path fill="none" stroke="#63b8ff" d="M378.78,-81.44C386.62,-80.43 394.66,-79.39 402.7,-78.35"/>
<polygon fill="#63b8ff" stroke="#63b8ff" points="403.07,-81.84 412.53,-77.08 402.17,-74.89 403.07,-81.84"/>
</a>
</g>
</g>
<!-- Node6 -->
<g id="Node000006" class="node">
<title>Node6</title>
<g id="a_Node000006"><a xlink:href="classfr_1_1softsf_1_1canscan_1_1_can_scan.html#a6d139bb8d0a3c7081096c8956189b684" target="_top" xlink:title="Validates and returns the QR code size from the corresponding text field.">
<polygon fill="white" stroke="#666666" points="584.25,-32 414.5,-32 414.5,0 584.25,0 584.25,-32"/>
<text text-anchor="start" x="422.5" y="-18.5" font-family="Helvetica,sans-Serif" font-size="10.00">fr.softsf.canscan.CanScan.validate</text>
<text text-anchor="middle" x="499.38" y="-6.5" font-family="Helvetica,sans-Serif" font-size="10.00">AndGetSize</text>
</a>
</g>
</g>
<!-- Node2&#45;&gt;Node6 -->
<g id="edge5_Node000002_Node000006" class="edge">
<title>Node2&#45;&gt;Node6</title>
<g id="a_edge5_Node000002_Node000006"><a xlink:title=" ">
<path fill="none" stroke="#63b8ff" d="M337.39,-74.7C358.96,-64.28 388.03,-50.92 414.5,-41 419.11,-39.27 423.89,-37.58 428.73,-35.95"/>
<polygon fill="#63b8ff" stroke="#63b8ff" points="429.52,-39.37 437.94,-32.94 427.34,-32.72 429.52,-39.37"/>
</a>
</g>
</g>
</g>
</svg>
