<?xml version="1.0" encoding="UTF-8" standalone="no"?>
<!DOCTYPE svg PUBLIC "-//W3C//DTD SVG 1.1//EN"
 "http://www.w3.org/Graphics/SVG/1.1/DTD/svg11.dtd">
<!-- Generated by graphviz version 12.2.1 (20241206.2353)
 -->
<!-- Title: fr.softsf.canscan.ui.DynamicQrCodeResize Pages: 1 -->
<!--zoomable 740 -->

<svg id="main" version="1.1" xmlns="http://www.w3.org/2000/svg" xmlns:xlink="http://www.w3.org/1999/xlink" xml:space="preserve" onload="init(evt)">

<style type="text/css"><![CDATA[
.node, .edge {opacity: 0.7;}
.node.selected, .edge.selected {opacity: 1;}
.edge:hover path { stroke: red; }
.edge:hover polygon { stroke: red; fill: red; }
]]></style>

<defs>
  <circle id="rim" cx="0" cy="0" r="7"/>
  <circle id="rim2" cx="0" cy="0" r="3.5"/>
  <g id="zoomPlus">
    <use xlink:href="#rim" fill="#404040"><set attributeName="fill" to="#808080" begin="zoomplus.mouseover" end="zoomplus.mouseout"/></use>
    <path d="M-4,0h8M0,-4v8" fill="none" stroke="white" stroke-width="1.5" pointer-events="none"/>
  </g>
  <g id="zoomMin">
    <use xlink:href="#rim" fill="#404040"><set attributeName="fill" to="#808080" begin="zoomminus.mouseover" end="zoomminus.mouseout"/></use>
    <path d="M-4,0h8" fill="none" stroke="white" stroke-width="1.5" pointer-events="none"/>
  </g>
  <g id="arrowUp" transform="translate(30 24)">
    <use xlink:href="#rim"/>
    <path pointer-events="none" fill="none" stroke="white" stroke-width="1.5" d="M0,-3.0v7 M-2.5,-0.5L0,-3.0L2.5,-0.5"/>
  </g>
  <g id="arrowRight" transform="rotate(90) translate(36 -43)">
    <use xlink:href="#rim"/>
    <path pointer-events="none" fill="none" stroke="white" stroke-width="1.5" d="M0,-3.0v7 M-2.5,-0.5L0,-3.0L2.5,-0.5"/>
  </g>
  <g id="arrowDown" transform="rotate(180) translate(-30 -48)">
    <use xlink:href="#rim"/>
    <path pointer-events="none" fill="none" stroke="white" stroke-width="1.5" d="M0,-3.0v7 M-2.5,-0.5L0,-3.0L2.5,-0.5"/>
  </g>
  <g id="arrowLeft" transform="rotate(270) translate(-36 17)">
    <use xlink:href="#rim"/>
    <path pointer-events="none" fill="none" stroke="white" stroke-width="1.5" d="M0,-3.0v7 M-2.5,-0.5L0,-3.0L2.5,-0.5"/>
  </g>
  <g id="resetDef">
    <use xlink:href="#rim2" fill="#404040"><set attributeName="fill" to="#808080" begin="reset.mouseover" end="reset.mouseout"/></use>
  </g>
</defs>
<script type="application/ecmascript">
var viewWidth = 180;
var viewHeight = 740;
var sectionId = 'dynsection-0';
</script>
<script type="application/ecmascript" xlink:href="svg.min.js"/>
<svg id="graph" class="graph">
<g id="viewport">
<title>fr.softsf.canscan.ui.DynamicQrCodeResize</title>
<!-- Node1 -->
<g id="Node000001" class="node">
<title>Node1</title>
<g id="a_Node000001"><a xlink:title="Asynchronously resizes a generated QR code image for display in a Swing UI.">
<polygon fill="#999999" stroke="none" points="164.5,-312 7,-312 7,0 164.5,0 164.5,-312"/>
<text text-anchor="start" x="22.75" y="-298.5" font-family="Helvetica,sans-Serif" font-size="10.00">fr.softsf.canscan.ui.Dynamic</text>
<text text-anchor="start" x="53.5" y="-286.5" font-family="Helvetica,sans-Serif" font-size="10.00">QrCodeResize</text>
<text text-anchor="start" x="12.5" y="-270.5" font-family="Helvetica,sans-Serif" font-size="10.00">&#45;</text>
<text text-anchor="start" x="21" y="-270.5" font-family="Helvetica,sans-Serif" font-size="10.00">final QrCodeBufferedImage</text>
<text text-anchor="start" x="21" y="-258.5" font-family="Helvetica,sans-Serif" font-size="10.00"> qrCodeBufferedImage</text>
<text text-anchor="start" x="12.5" y="-242.5" font-family="Helvetica,sans-Serif" font-size="10.00">&#45;</text>
<text text-anchor="start" x="21" y="-242.5" font-family="Helvetica,sans-Serif" font-size="10.00">final JLabel qrCodeLabel</text>
<text text-anchor="start" x="12.5" y="-226.5" font-family="Helvetica,sans-Serif" font-size="10.00">&#45;</text>
<text text-anchor="start" x="21" y="-226.5" font-family="Helvetica,sans-Serif" font-size="10.00">static final int DEFAULT_SIZE</text>
<text text-anchor="start" x="12.5" y="-210.5" font-family="Helvetica,sans-Serif" font-size="10.00">&#45;</text>
<text text-anchor="start" x="21" y="-210.5" font-family="Helvetica,sans-Serif" font-size="10.00">static final int RESIZE</text>
<text text-anchor="start" x="21" y="-198.5" font-family="Helvetica,sans-Serif" font-size="10.00">_DEBOUNCE_DELAY_MS</text>
<text text-anchor="start" x="11" y="-182.5" font-family="Helvetica,sans-Serif" font-size="10.00">+</text>
<text text-anchor="start" x="21" y="-182.5" font-family="Helvetica,sans-Serif" font-size="10.00">DynamicQrCodeResize</text>
<text text-anchor="start" x="21" y="-170.5" font-family="Helvetica,sans-Serif" font-size="10.00">(QrCodeBufferedImage</text>
<text text-anchor="start" x="21" y="-158.5" font-family="Helvetica,sans-Serif" font-size="10.00"> qrCodeBufferedImage,</text>
<text text-anchor="start" x="21" y="-146.5" font-family="Helvetica,sans-Serif" font-size="10.00"> JLabel qrCodeLabel, JProgress</text>
<text text-anchor="start" x="21" y="-134.5" font-family="Helvetica,sans-Serif" font-size="10.00">Bar loader)</text>
<text text-anchor="start" x="11" y="-118.5" font-family="Helvetica,sans-Serif" font-size="10.00">+</text>
<text text-anchor="start" x="21" y="-118.5" font-family="Helvetica,sans-Serif" font-size="10.00">void updateQrCodeResize</text>
<text text-anchor="start" x="21" y="-106.5" font-family="Helvetica,sans-Serif" font-size="10.00">(QrInput qrInput)</text>
<text text-anchor="start" x="11.38" y="-90.5" font-family="Helvetica,sans-Serif" font-size="10.00">#</text>
<text text-anchor="start" x="21" y="-90.5" font-family="Helvetica,sans-Serif" font-size="10.00">void clearResources()</text>
<text text-anchor="start" x="11.38" y="-74.5" font-family="Helvetica,sans-Serif" font-size="10.00">#</text>
<text text-anchor="start" x="21" y="-74.5" font-family="Helvetica,sans-Serif" font-size="10.00">SwingWorker&lt; ImageIcon,</text>
<text text-anchor="start" x="21" y="-62.5" font-family="Helvetica,sans-Serif" font-size="10.00"> Void &gt; createWorker()</text>
<text text-anchor="start" x="11.38" y="-46.5" font-family="Helvetica,sans-Serif" font-size="10.00">#</text>
<text text-anchor="start" x="21" y="-46.5" font-family="Helvetica,sans-Serif" font-size="10.00">void onWorkerSuccess</text>
<text text-anchor="start" x="21" y="-34.5" font-family="Helvetica,sans-Serif" font-size="10.00">(ImageIcon result)</text>
<text text-anchor="start" x="12.5" y="-18.5" font-family="Helvetica,sans-Serif" font-size="10.00">&#45;</text>
<text text-anchor="start" x="21" y="-18.5" font-family="Helvetica,sans-Serif" font-size="10.00">void updateLoaderSize</text>
<text text-anchor="start" x="21" y="-6.5" font-family="Helvetica,sans-Serif" font-size="10.00">(int size)</text>
<polygon fill="#666666" stroke="#666666" points="7,-282 7,-282 164.5,-282 164.5,-282 7,-282"/>
<polygon fill="#666666" stroke="#666666" points="7,-194 7,-194 19,-194 19,-194 7,-194"/>
<polygon fill="#666666" stroke="#666666" points="19,-194 19,-194 164.5,-194 164.5,-194 19,-194"/>
<polygon fill="none" stroke="#666666" points="7,0 7,-312 164.5,-312 164.5,0 7,0"/>
</a>
</g>
</g>
<!-- Node2 -->
<g id="Node000002" class="node">
<title>Node2</title>
<g id="a_Node000002"><a xlink:href="classfr_1_1softsf_1_1canscan_1_1service_1_1_abstract_dynamic_qr_code_worker.html" target="_top" xlink:title="Base class managing asynchronous QR code tasks with a unified workflow.">
<polygon fill="white" stroke="none" points="171.5,-732 0,-732 0,-348 171.5,-348 171.5,-732"/>
<text text-anchor="start" x="4" y="-718.5" font-family="Helvetica,sans-Serif" font-size="10.00">fr.softsf.canscan.service.</text>
<text text-anchor="start" x="4" y="-706.5" font-family="Helvetica,sans-Serif" font-size="10.00">AbstractDynamicQrCodeWorker&lt; T &gt;</text>
<text text-anchor="start" x="7.69" y="-690.5" font-family="Helvetica,sans-Serif" font-size="10.00">#</text>
<text text-anchor="start" x="20.62" y="-690.5" font-family="Helvetica,sans-Serif" font-size="10.00">Timer debounceTimer</text>
<text text-anchor="start" x="7.69" y="-674.5" font-family="Helvetica,sans-Serif" font-size="10.00">#</text>
<text text-anchor="start" x="20.62" y="-674.5" font-family="Helvetica,sans-Serif" font-size="10.00">final JProgressBar</text>
<text text-anchor="start" x="20.62" y="-662.5" font-family="Helvetica,sans-Serif" font-size="10.00"> loader</text>
<text text-anchor="start" x="7.69" y="-646.5" font-family="Helvetica,sans-Serif" font-size="10.00">#</text>
<text text-anchor="start" x="20.62" y="-646.5" font-family="Helvetica,sans-Serif" font-size="10.00">QrInput qrInput</text>
<text text-anchor="start" x="7.69" y="-630.5" font-family="Helvetica,sans-Serif" font-size="10.00">#</text>
<text text-anchor="start" x="20.62" y="-630.5" font-family="Helvetica,sans-Serif" font-size="10.00">SwingWorker&lt; T, Void</text>
<text text-anchor="start" x="20.62" y="-618.5" font-family="Helvetica,sans-Serif" font-size="10.00"> &gt; worker</text>
<text text-anchor="start" x="7.31" y="-602.5" font-family="Helvetica,sans-Serif" font-size="10.00">+</text>
<text text-anchor="start" x="20.62" y="-602.5" font-family="Helvetica,sans-Serif" font-size="10.00">void disposeAllResources</text>
<text text-anchor="start" x="20.62" y="-590.5" font-family="Helvetica,sans-Serif" font-size="10.00">OnExit()</text>
<text text-anchor="start" x="7.69" y="-574.5" font-family="Helvetica,sans-Serif" font-size="10.00">#</text>
<text text-anchor="start" x="20.62" y="-574.5" font-family="Helvetica,sans-Serif" font-size="10.00">AbstractDynamicQrCodeWorker</text>
<text text-anchor="start" x="20.62" y="-562.5" font-family="Helvetica,sans-Serif" font-size="10.00">(JProgressBar loader)</text>
<text text-anchor="start" x="7.69" y="-546.5" font-family="Helvetica,sans-Serif" font-size="10.00">#</text>
<text text-anchor="start" x="20.62" y="-546.5" font-family="Helvetica,sans-Serif" font-size="10.00">void cancelWorker()</text>
<text text-anchor="start" x="7.69" y="-530.5" font-family="Helvetica,sans-Serif" font-size="10.00">#</text>
<text text-anchor="start" x="20.62" y="-530.5" font-family="Helvetica,sans-Serif" font-size="10.00">abstract void clearResources()</text>
<text text-anchor="start" x="7.69" y="-514.5" font-family="Helvetica,sans-Serif" font-size="10.00">#</text>
<text text-anchor="start" x="20.62" y="-514.5" font-family="Helvetica,sans-Serif" font-size="10.00">abstract SwingWorker</text>
<text text-anchor="start" x="20.62" y="-502.5" font-family="Helvetica,sans-Serif" font-size="10.00">&lt; T, Void &gt; createWorker()</text>
<text text-anchor="start" x="7.69" y="-486.5" font-family="Helvetica,sans-Serif" font-size="10.00">#</text>
<text text-anchor="start" x="20.62" y="-486.5" font-family="Helvetica,sans-Serif" font-size="10.00">void handleWorkerDone()</text>
<text text-anchor="start" x="7.69" y="-470.5" font-family="Helvetica,sans-Serif" font-size="10.00">#</text>
<text text-anchor="start" x="20.62" y="-470.5" font-family="Helvetica,sans-Serif" font-size="10.00">void onWorkerFailure</text>
<text text-anchor="start" x="20.62" y="-458.5" font-family="Helvetica,sans-Serif" font-size="10.00">(Exception ex)</text>
<text text-anchor="start" x="7.69" y="-442.5" font-family="Helvetica,sans-Serif" font-size="10.00">#</text>
<text text-anchor="start" x="20.62" y="-442.5" font-family="Helvetica,sans-Serif" font-size="10.00">abstract void onWorkerSuccess</text>
<text text-anchor="start" x="20.62" y="-430.5" font-family="Helvetica,sans-Serif" font-size="10.00">(T result)</text>
<text text-anchor="start" x="7.69" y="-414.5" font-family="Helvetica,sans-Serif" font-size="10.00">#</text>
<text text-anchor="start" x="20.62" y="-414.5" font-family="Helvetica,sans-Serif" font-size="10.00">void resetAndStartWorker</text>
<text text-anchor="start" x="20.62" y="-402.5" font-family="Helvetica,sans-Serif" font-size="10.00">(int delayMs)</text>
<text text-anchor="start" x="7.69" y="-386.5" font-family="Helvetica,sans-Serif" font-size="10.00">#</text>
<text text-anchor="start" x="20.62" y="-386.5" font-family="Helvetica,sans-Serif" font-size="10.00">void stopDebounceTimer()</text>
<text text-anchor="start" x="7.69" y="-370.5" font-family="Helvetica,sans-Serif" font-size="10.00">#</text>
<text text-anchor="start" x="20.62" y="-370.5" font-family="Helvetica,sans-Serif" font-size="10.00">void stopLoader()</text>
<text text-anchor="start" x="8.81" y="-354.5" font-family="Helvetica,sans-Serif" font-size="10.00">&#45;</text>
<text text-anchor="start" x="20.62" y="-354.5" font-family="Helvetica,sans-Serif" font-size="10.00">void resetWorker()</text>
<polygon fill="#666666" stroke="#666666" points="0,-702 0,-702 171.5,-702 171.5,-702 0,-702"/>
<polygon fill="#666666" stroke="#666666" points="0,-614 0,-614 18.62,-614 18.62,-614 0,-614"/>
<polygon fill="#666666" stroke="#666666" points="18.62,-614 18.62,-614 171.5,-614 171.5,-614 18.62,-614"/>
<polygon fill="none" stroke="#666666" points="0,-348 0,-732 171.5,-732 171.5,-348 0,-348"/>
</a>
</g>
</g>
<!-- Node2&#45;&gt;Node1 -->
<g id="edge1_Node000001_Node000002" class="edge">
<title>Node2&#45;&gt;Node1</title>
<g id="a_edge1_Node000001_Node000002"><a xlink:title=" ">
<path fill="none" stroke="#63b8ff" d="M85.75,-336.64C85.75,-328.32 85.75,-320.02 85.75,-311.82"/>
<polygon fill="none" stroke="#63b8ff" points="82.25,-336.49 85.75,-346.49 89.25,-336.49 82.25,-336.49"/>
</a>
</g>
</g>
</g>
</svg>

<g id="navigator" transform="translate(0 0)" fill="#404254">
  <rect fill="#f2f5e9" fill-opacity="0.5" stroke="#606060" stroke-width=".5" x="0" y="0" width="60" height="60"/>
  <use id="zoomplus" xlink:href="#zoomPlus" x="17" y="9" onmousedown="handleZoom(evt,'in')"/>
  <use id="zoomminus" xlink:href="#zoomMin" x="42" y="9" onmousedown="handleZoom(evt,'out')"/>
  <use id="reset" xlink:href="#resetDef" x="30" y="36" onmousedown="handleReset()"/>
   <use id="arrowup" xlink:href="#arrowUp" x="0" y="0" onmousedown="handlePan(0,-1)"/>
  <use id="arrowright" xlink:href="#arrowRight" x="0" y="0" onmousedown="handlePan(1,0)"/>
  <use id="arrowdown" xlink:href="#arrowDown" x="0" y="0" onmousedown="handlePan(0,1)"/>
  <use id="arrowleft" xlink:href="#arrowLeft" x="0" y="0" onmousedown="handlePan(-1,0)"/>
</g>
<svg viewBox="0 0 15 15" width="100%" height="30px" preserveAspectRatio="xMaxYMin meet">
 <g id="arrow_out" transform="scale(0.3 0.3)">
  <a xlink:href="classfr_1_1softsf_1_1canscan_1_1ui_1_1_dynamic_qr_code_resize__inherit__graph_org.svg" target="_base">
   <rect id="button" ry="5" rx="5" y="6" x="6" height="38" width="38"
        fill="#f2f5e9" fill-opacity="0.5" stroke="#606060" stroke-width="1.0"/>
   <path id="arrow"
     d="M 11.500037,31.436501 C 11.940474,20.09759 22.043105,11.32322 32.158766,21.979434 L 37.068811,17.246167 C 37.068811,17.246167 37.088388,32 37.088388,32 L 22.160133,31.978069 C 22.160133,31.978069 26.997745,27.140456 26.997745,27.140456 C 18.528582,18.264221 13.291696,25.230495 11.500037,31.436501 z"
     style="fill:#404040;"/>
  </a>
 </g>
</svg>

<style type='text/css'>
<![CDATA[
[data-mouse-over-selected='false'] { opacity: 0.7; }
[data-mouse-over-selected='true']  { opacity: 1.0; }
]]>
</style>
<script type="application/ecmascript"><![CDATA[
document.addEventListener('DOMContentLoaded', (event) => {
  highlightEdges();
  highlightAdjacentNodes();
});
]]></script>
</svg>
