<?xml version="1.0" encoding="UTF-8" standalone="no"?>
<!DOCTYPE svg PUBLIC "-//W3C//DTD SVG 1.1//EN"
 "http://www.w3.org/Graphics/SVG/1.1/DTD/svg11.dtd">
<!-- Generated by graphviz version 12.2.1 (20241206.2353)
 -->
<!-- Title: fr.softsf.canscan.CanScan.getManifestKeys Pages: 1 -->
<svg width="1392pt" height="578pt"
 viewBox="0.00 0.00 1392.00 578.00" xmlns="http://www.w3.org/2000/svg" xmlns:xlink="http://www.w3.org/1999/xlink">
<g id="graph0" class="graph" transform="scale(1 1) rotate(0) translate(4 574)">
<title>fr.softsf.canscan.CanScan.getManifestKeys</title>
<!-- Node1 -->
<g id="Node000001" class="node">
<title>Node1</title>
<g id="a_Node000001"><a xlink:title="Loads application metadata from the version.properties file.">
<polygon fill="#999999" stroke="#666666" points="149.5,-132 0,-132 0,-100 149.5,-100 149.5,-132"/>
<text text-anchor="start" x="8" y="-118.5" font-family="Helvetica,sans-Serif" font-size="10.00">fr.softsf.canscan.CanScan.get</text>
<text text-anchor="middle" x="74.75" y="-106.5" font-family="Helvetica,sans-Serif" font-size="10.00">ManifestKeys</text>
</a>
</g>
</g>
<!-- Node2 -->
<g id="Node000002" class="node">
<title>Node2</title>
<g id="a_Node000002"><a xlink:href="classfr_1_1softsf_1_1canscan_1_1_can_scan.html#a102bcbc6cda608b642e870ba3fde6344" target="_top" xlink:title="Initializes the CanScan GUI.">
<polygon fill="white" stroke="#666666" points="321.5,-182 185.5,-182 185.5,-150 321.5,-150 321.5,-182"/>
<text text-anchor="start" x="193.5" y="-168.5" font-family="Helvetica,sans-Serif" font-size="10.00">fr.softsf.canscan.CanScan.</text>
<text text-anchor="middle" x="253.5" y="-156.5" font-family="Helvetica,sans-Serif" font-size="10.00">CanScan</text>
</a>
</g>
</g>
<!-- Node1&#45;&gt;Node2 -->
<g id="edge1_Node000001_Node000002" class="edge">
<title>Node1&#45;&gt;Node2</title>
<g id="a_edge1_Node000001_Node000002"><a xlink:title=" ">
<path fill="none" stroke="#63b8ff" d="M133.62,-132.37C149.56,-136.88 167.01,-141.82 183.51,-146.48"/>
<polygon fill="#63b8ff" stroke="#63b8ff" points="182.16,-149.74 192.74,-149.09 184.07,-143 182.16,-149.74"/>
</a>
</g>
</g>
<!-- Node3 -->
<g id="Node000003" class="node">
<title>Node3</title>
<g id="a_Node000003"><a xlink:href="classfr_1_1softsf_1_1canscan_1_1_can_scan.html#a070115929fdc69b249d21866a00a47cc" target="_top" xlink:title="Assigns component names for identification.">
<polygon fill="white" stroke="#666666" points="528.75,-295 357.5,-295 357.5,-263 528.75,-263 528.75,-295"/>
<text text-anchor="start" x="365.5" y="-281.5" font-family="Helvetica,sans-Serif" font-size="10.00">fr.softsf.canscan.CanScan.initialize</text>
<text text-anchor="middle" x="443.12" y="-269.5" font-family="Helvetica,sans-Serif" font-size="10.00">ComponentNames</text>
</a>
</g>
</g>
<!-- Node2&#45;&gt;Node3 -->
<g id="edge2_Node000002_Node000003" class="edge">
<title>Node2&#45;&gt;Node3</title>
<g id="a_edge2_Node000002_Node000003"><a xlink:title=" ">
<path fill="none" stroke="#63b8ff" d="M271.05,-182.34C290.39,-200.67 324.02,-230.29 357.5,-249 363.57,-252.39 370.1,-255.51 376.74,-258.36"/>
<polygon fill="#63b8ff" stroke="#63b8ff" points="375.23,-261.52 385.81,-262.02 377.85,-255.03 375.23,-261.52"/>
</a>
</g>
</g>
<!-- Node4 -->
<g id="Node000004" class="node">
<title>Node4</title>
<g id="a_Node000004"><a xlink:href="classfr_1_1softsf_1_1canscan_1_1_can_scan.html#a14263ca931024d56cd9bed4af4b74c25" target="_top" xlink:title="Initializes and assembles the main application panel.">
<polygon fill="white" stroke="#666666" points="736,-454 564.75,-454 564.75,-422 736,-422 736,-454"/>
<text text-anchor="start" x="572.75" y="-440.5" font-family="Helvetica,sans-Serif" font-size="10.00">fr.softsf.canscan.CanScan.initialize</text>
<text text-anchor="middle" x="650.38" y="-428.5" font-family="Helvetica,sans-Serif" font-size="10.00">MainPanel</text>
</a>
</g>
</g>
<!-- Node2&#45;&gt;Node4 -->
<g id="edge3_Node000002_Node000004" class="edge">
<title>Node2&#45;&gt;Node4</title>
<g id="a_edge3_Node000002_Node000004"><a xlink:title=" ">
<path fill="none" stroke="#63b8ff" d="M283.47,-182.33C303.69,-193.15 331.6,-206.98 357.5,-216 431.12,-241.64 464.6,-209.69 528.75,-254 558.57,-274.6 610.47,-365.78 635.33,-411.57"/>
<polygon fill="#63b8ff" stroke="#63b8ff" points="632.21,-413.18 640.04,-420.32 638.38,-409.85 632.21,-413.18"/>
</a>
</g>
</g>
<!-- Node13 -->
<g id="Node000013" class="node">
<title>Node13</title>
<g id="a_Node000013"><a xlink:href="classfr_1_1softsf_1_1canscan_1_1_can_scan.html#afb8d451dc5d6d9c7b6700e4b688c98a3" target="_top" xlink:title="Builds the north panel containing mode selection, card panels, common fields, and the generate button...">
<polygon fill="white" stroke="#666666" points="528.75,-207 357.5,-207 357.5,-175 528.75,-175 528.75,-207"/>
<text text-anchor="start" x="365.5" y="-193.5" font-family="Helvetica,sans-Serif" font-size="10.00">fr.softsf.canscan.CanScan.initialize</text>
<text text-anchor="middle" x="443.12" y="-181.5" font-family="Helvetica,sans-Serif" font-size="10.00">NorthPanel</text>
</a>
</g>
</g>
<!-- Node2&#45;&gt;Node13 -->
<g id="edge13_Node000002_Node000013" class="edge">
<title>Node2&#45;&gt;Node13</title>
<g id="a_edge13_Node000002_Node000013"><a xlink:title=" ">
<path fill="none" stroke="#63b8ff" d="M321.97,-174.99C329.76,-176.03 337.8,-177.1 345.87,-178.17"/>
<polygon fill="#63b8ff" stroke="#63b8ff" points="345.4,-181.64 355.77,-179.49 346.32,-174.7 345.4,-181.64"/>
</a>
</g>
</g>
<!-- Node28 -->
<g id="Node000028" class="node">
<title>Node28</title>
<g id="a_Node000028"><a xlink:href="classfr_1_1softsf_1_1canscan_1_1_can_scan.html#a4928478365bc812571ac037662cc5f6b" target="_top" xlink:title="Wraps the main panel in a scrollable container.">
<polygon fill="white" stroke="#666666" points="528.75,-157 357.5,-157 357.5,-125 528.75,-125 528.75,-157"/>
<text text-anchor="start" x="365.5" y="-143.5" font-family="Helvetica,sans-Serif" font-size="10.00">fr.softsf.canscan.CanScan.initialize</text>
<text text-anchor="middle" x="443.12" y="-131.5" font-family="Helvetica,sans-Serif" font-size="10.00">ScrollPane</text>
</a>
</g>
</g>
<!-- Node2&#45;&gt;Node28 -->
<g id="edge35_Node000002_Node000028" class="edge">
<title>Node2&#45;&gt;Node28</title>
<g id="a_edge35_Node000002_Node000028"><a xlink:title=" ">
<path fill="none" stroke="#63b8ff" d="M321.97,-157.01C329.76,-155.97 337.8,-154.9 345.87,-153.83"/>
<polygon fill="#63b8ff" stroke="#63b8ff" points="346.32,-157.3 355.77,-152.51 345.4,-150.36 346.32,-157.3"/>
</a>
</g>
</g>
<!-- Node29 -->
<g id="Node000029" class="node">
<title>Node29</title>
<g id="a_Node000029"><a xlink:href="classfr_1_1softsf_1_1canscan_1_1_can_scan.html#a358629f85831dc6cd4978c8854d88561" target="_top" xlink:title="Configures sliders for logo margin and ratio.">
<polygon fill="white" stroke="#666666" points="528.75,-107 357.5,-107 357.5,-75 528.75,-75 528.75,-107"/>
<text text-anchor="start" x="365.5" y="-93.5" font-family="Helvetica,sans-Serif" font-size="10.00">fr.softsf.canscan.CanScan.initialize</text>
<text text-anchor="middle" x="443.12" y="-81.5" font-family="Helvetica,sans-Serif" font-size="10.00">Sliders</text>
</a>
</g>
</g>
<!-- Node2&#45;&gt;Node29 -->
<g id="edge36_Node000002_Node000029" class="edge">
<title>Node2&#45;&gt;Node29</title>
<g id="a_edge36_Node000002_Node000029"><a xlink:title=" ">
<path fill="none" stroke="#63b8ff" d="M285.01,-149.55C305.2,-139.07 332.48,-125.69 357.5,-116 361.92,-114.29 366.51,-112.62 371.16,-111.02"/>
<polygon fill="#63b8ff" stroke="#63b8ff" points="372.24,-114.35 380.63,-107.88 370.04,-107.71 372.24,-114.35"/>
</a>
</g>
</g>
<!-- Node31 -->
<g id="Node000031" class="node">
<title>Node31</title>
<g id="a_Node000031"><a xlink:href="classfr_1_1softsf_1_1canscan_1_1_can_scan.html#ae9d7eee5ec656c89834bed84a588334f" target="_top" xlink:title="Constructs the application window title using metadata from the version properties.">
<polygon fill="white" stroke="#666666" points="528.75,-57 357.5,-57 357.5,-25 528.75,-25 528.75,-57"/>
<text text-anchor="start" x="365.5" y="-43.5" font-family="Helvetica,sans-Serif" font-size="10.00">fr.softsf.canscan.CanScan.initialize</text>
<text text-anchor="middle" x="443.12" y="-31.5" font-family="Helvetica,sans-Serif" font-size="10.00">Title</text>
</a>
</g>
</g>
<!-- Node2&#45;&gt;Node31 -->
<g id="edge38_Node000002_Node000031" class="edge">
<title>Node2&#45;&gt;Node31</title>
<g id="a_edge38_Node000002_Node000031"><a xlink:title=" ">
<path fill="none" stroke="#63b8ff" d="M274.83,-149.74C288.49,-138.5 306.63,-122.94 321.5,-108 338.84,-90.57 336.86,-79.36 357.5,-66 359.38,-64.78 361.32,-63.62 363.31,-62.52"/>
<polygon fill="#63b8ff" stroke="#63b8ff" points="364.83,-65.67 372.25,-58.11 361.73,-59.39 364.83,-65.67"/>
</a>
</g>
</g>
<!-- Node32 -->
<g id="Node000032" class="node">
<title>Node32</title>
<g id="a_Node000032"><a xlink:href="classfr_1_1softsf_1_1canscan_1_1_can_scan.html#a0a52159db640660477196e337ec62a9b" target="_top" xlink:title="Finalizes window layout and appearance.">
<polygon fill="white" stroke="#666666" points="528.75,-438 357.5,-438 357.5,-406 528.75,-406 528.75,-438"/>
<text text-anchor="start" x="365.5" y="-424.5" font-family="Helvetica,sans-Serif" font-size="10.00">fr.softsf.canscan.CanScan.initialize</text>
<text text-anchor="middle" x="443.12" y="-412.5" font-family="Helvetica,sans-Serif" font-size="10.00">Window</text>
</a>
</g>
</g>
<!-- Node2&#45;&gt;Node32 -->
<g id="edge40_Node000002_Node000032" class="edge">
<title>Node2&#45;&gt;Node32</title>
<g id="a_edge40_Node000002_Node000032"><a xlink:title=" ">
<path fill="none" stroke="#63b8ff" d="M266.52,-182.4C298.36,-225.84 385.04,-344.11 423.41,-396.47"/>
<polygon fill="#63b8ff" stroke="#63b8ff" points="420.57,-398.52 429.31,-404.51 426.22,-394.38 420.57,-398.52"/>
</a>
</g>
</g>
<!-- Node5 -->
<g id="Node000005" class="node">
<title>Node5</title>
<g id="a_Node000005"><a xlink:href="classfr_1_1softsf_1_1canscan_1_1_can_scan.html#ad470e3c0750cf142dc611b1aeeda3a97" target="_top" xlink:title="Sets up automatic QR code preview updates for all input fields and controls.">
<polygon fill="white" stroke="#666666" points="965,-526 772,-526 772,-494 965,-494 965,-526"/>
<text text-anchor="start" x="780" y="-512.5" font-family="Helvetica,sans-Serif" font-size="10.00">fr.softsf.canscan.CanScan.automatic</text>
<text text-anchor="middle" x="868.5" y="-500.5" font-family="Helvetica,sans-Serif" font-size="10.00">QRCodeRenderingForFieldsAndControls</text>
</a>
</g>
</g>
<!-- Node4&#45;&gt;Node5 -->
<g id="edge4_Node000004_Node000005" class="edge">
<title>Node4&#45;&gt;Node5</title>
<g id="a_edge4_Node000004_Node000005"><a xlink:title=" ">
<path fill="none" stroke="#63b8ff" d="M690.08,-454.4C713.54,-464 744.21,-475.98 772,-485 777.76,-486.87 783.74,-488.7 789.78,-490.46"/>
<polygon fill="#63b8ff" stroke="#63b8ff" points="788.65,-493.78 799.23,-493.15 790.57,-487.04 788.65,-493.78"/>
</a>
</g>
</g>
<!-- Node6 -->
<g id="Node000006" class="node">
<title>Node6</title>
<g id="a_Node000006"><a xlink:href="classfr_1_1softsf_1_1canscan_1_1_can_scan.html#a2d26dcd1ae708eae46dba8952351aa1a" target="_top" xlink:title="Builds and returns a QrInput object containing all current user inputs and settings.">
<polygon fill="white" stroke="#666666" points="1161.75,-432 1012.25,-432 1012.25,-400 1161.75,-400 1161.75,-432"/>
<text text-anchor="start" x="1020.25" y="-418.5" font-family="Helvetica,sans-Serif" font-size="10.00">fr.softsf.canscan.CanScan.get</text>
<text text-anchor="middle" x="1087" y="-406.5" font-family="Helvetica,sans-Serif" font-size="10.00">QrInput</text>
</a>
</g>
</g>
<!-- Node4&#45;&gt;Node6 -->
<g id="edge12_Node000004_Node000006" class="edge">
<title>Node4&#45;&gt;Node6</title>
<g id="a_edge12_Node000004_Node000006"><a xlink:title=" ">
<path fill="none" stroke="#63b8ff" d="M736.47,-433.69C812.74,-429.83 924.08,-424.2 1000.49,-420.33"/>
<polygon fill="#63b8ff" stroke="#63b8ff" points="1000.65,-423.83 1010.46,-419.82 1000.29,-416.83 1000.65,-423.83"/>
</a>
</g>
</g>
<!-- Node12 -->
<g id="Node000012" class="node">
<title>Node12</title>
<g id="a_Node000012"><a xlink:href="classfr_1_1softsf_1_1canscan_1_1_can_scan.html#a2680fca620b01b32419c021f63a5e047" target="_top" xlink:title="Creates the overlay panel containing the loader and the QR code label.">
<polygon fill="white" stroke="#666666" points="957.5,-476 779.5,-476 779.5,-444 957.5,-444 957.5,-476"/>
<text text-anchor="start" x="787.5" y="-462.5" font-family="Helvetica,sans-Serif" font-size="10.00">fr.softsf.canscan.CanScan.create</text>
<text text-anchor="middle" x="868.5" y="-450.5" font-family="Helvetica,sans-Serif" font-size="10.00">QrCodeLabelAndLoaderOverlayPanel</text>
</a>
</g>
</g>
<!-- Node4&#45;&gt;Node12 -->
<g id="edge11_Node000004_Node000012" class="edge">
<title>Node4&#45;&gt;Node12</title>
<g id="a_edge11_Node000004_Node000012"><a xlink:title=" ">
<path fill="none" stroke="#63b8ff" d="M736.48,-446.66C746.81,-447.71 757.42,-448.79 767.93,-449.86"/>
<polygon fill="#63b8ff" stroke="#63b8ff" points="767.46,-453.33 777.77,-450.87 768.17,-446.37 767.46,-453.33"/>
</a>
</g>
</g>
<!-- Node5&#45;&gt;Node6 -->
<g id="edge5_Node000005_Node000006" class="edge">
<title>Node5&#45;&gt;Node6</title>
<g id="a_edge5_Node000005_Node000006"><a xlink:title=" ">
<path fill="none" stroke="#63b8ff" d="M940.85,-493.54C949.09,-490.98 957.3,-488.14 965,-485 995.96,-472.38 1028.77,-453.27 1052.4,-438.35"/>
<polygon fill="#63b8ff" stroke="#63b8ff" points="1054.12,-441.41 1060.66,-433.07 1050.35,-435.51 1054.12,-441.41"/>
</a>
</g>
</g>
<!-- Node11 -->
<g id="Node000011" class="node">
<title>Node11</title>
<g id="a_Node000011"><a xlink:href="classfr_1_1softsf_1_1canscan_1_1_can_scan.html#a9856545d05ef553c8dfddd95a850a360" target="_top" xlink:title="Creates a minimal DocumentListener that executes the given action on any document change.">
<polygon fill="white" stroke="#666666" points="1169.25,-520 1004.75,-520 1004.75,-488 1169.25,-488 1169.25,-520"/>
<text text-anchor="start" x="1012.75" y="-506.5" font-family="Helvetica,sans-Serif" font-size="10.00">fr.softsf.canscan.CanScan.simple</text>
<text text-anchor="middle" x="1087" y="-494.5" font-family="Helvetica,sans-Serif" font-size="10.00">DocumentListener</text>
</a>
</g>
</g>
<!-- Node5&#45;&gt;Node11 -->
<g id="edge10_Node000005_Node000011" class="edge">
<title>Node5&#45;&gt;Node11</title>
<g id="a_edge10_Node000005_Node000011"><a xlink:title=" ">
<path fill="none" stroke="#63b8ff" d="M965.41,-507.34C974.55,-507.09 983.82,-506.83 992.93,-506.58"/>
<polygon fill="#63b8ff" stroke="#63b8ff" points="992.97,-510.08 1002.87,-506.3 992.78,-503.08 992.97,-510.08"/>
</a>
</g>
</g>
<!-- Node7 -->
<g id="Node000007" class="node">
<title>Node7</title>
<g id="a_Node000007"><a xlink:href="classfr_1_1softsf_1_1canscan_1_1_can_scan.html#a381368b99c4a0857c6abe6349b2c6d27" target="_top" xlink:title="Calculates the available height for QR code rendering.">
<polygon fill="white" stroke="#666666" points="1384,-551 1209,-551 1209,-519 1384,-519 1384,-551"/>
<text text-anchor="start" x="1217" y="-537.5" font-family="Helvetica,sans-Serif" font-size="10.00">fr.softsf.canscan.CanScan.calculate</text>
<text text-anchor="middle" x="1296.5" y="-525.5" font-family="Helvetica,sans-Serif" font-size="10.00">AvailableQrCodeLabelHeight</text>
</a>
</g>
</g>
<!-- Node6&#45;&gt;Node7 -->
<g id="edge6_Node000006_Node000007" class="edge">
<title>Node6&#45;&gt;Node7</title>
<g id="a_edge6_Node000006_Node000007"><a xlink:title=" ">
<path fill="none" stroke="#63b8ff" d="M1113.12,-432.43C1137.34,-448.07 1175.19,-471.97 1209,-491 1222.57,-498.64 1237.62,-506.5 1251.31,-513.42"/>
<polygon fill="#63b8ff" stroke="#63b8ff" points="1249.61,-516.48 1260.11,-517.84 1252.74,-510.23 1249.61,-516.48"/>
</a>
</g>
</g>
<!-- Node8 -->
<g id="Node000008" class="node">
<title>Node8</title>
<g id="a_Node000008"><a xlink:href="classfr_1_1softsf_1_1canscan_1_1_can_scan.html#a4e67b1b5c764e72414a5c0f387810f5c" target="_top" xlink:title="Validates and returns the current QR code margin from the margin slider.">
<polygon fill="white" stroke="#666666" points="1381.38,-482 1211.62,-482 1211.62,-450 1381.38,-450 1381.38,-482"/>
<text text-anchor="start" x="1219.62" y="-468.5" font-family="Helvetica,sans-Serif" font-size="10.00">fr.softsf.canscan.CanScan.validate</text>
<text text-anchor="middle" x="1296.5" y="-456.5" font-family="Helvetica,sans-Serif" font-size="10.00">AndGetMargin</text>
</a>
</g>
</g>
<!-- Node6&#45;&gt;Node8 -->
<g id="edge7_Node000006_Node000008" class="edge">
<title>Node6&#45;&gt;Node8</title>
<g id="a_edge7_Node000006_Node000008"><a xlink:title=" ">
<path fill="none" stroke="#63b8ff" d="M1156.23,-432.44C1175.38,-437.05 1196.36,-442.11 1216.09,-446.87"/>
<polygon fill="#63b8ff" stroke="#63b8ff" points="1215.22,-450.25 1225.76,-449.19 1216.86,-443.45 1215.22,-450.25"/>
</a>
</g>
</g>
<!-- Node9 -->
<g id="Node000009" class="node">
<title>Node9</title>
<g id="a_Node000009"><a xlink:href="classfr_1_1softsf_1_1canscan_1_1_can_scan.html#a9e8188875168199cde065113ae2a393d" target="_top" xlink:title="Validates and returns the current image&#45;to&#45;QR ratio from the ratio slider.">
<polygon fill="white" stroke="#666666" points="1381.38,-432 1211.62,-432 1211.62,-400 1381.38,-400 1381.38,-432"/>
<text text-anchor="start" x="1219.62" y="-418.5" font-family="Helvetica,sans-Serif" font-size="10.00">fr.softsf.canscan.CanScan.validate</text>
<text text-anchor="middle" x="1296.5" y="-406.5" font-family="Helvetica,sans-Serif" font-size="10.00">AndGetRatio</text>
</a>
</g>
</g>
<!-- Node6&#45;&gt;Node9 -->
<g id="edge8_Node000006_Node000009" class="edge">
<title>Node6&#45;&gt;Node9</title>
<g id="a_edge8_Node000006_Node000009"><a xlink:title=" ">
<path fill="none" stroke="#63b8ff" d="M1162.03,-416C1174.37,-416 1187.31,-416 1200.09,-416"/>
<polygon fill="#63b8ff" stroke="#63b8ff" points="1199.73,-419.5 1209.73,-416 1199.73,-412.5 1199.73,-419.5"/>
</a>
</g>
</g>
<!-- Node10 -->
<g id="Node000010" class="node">
<title>Node10</title>
<g id="a_Node000010"><a xlink:href="classfr_1_1softsf_1_1canscan_1_1_can_scan.html#a6d139bb8d0a3c7081096c8956189b684" target="_top" xlink:title="Validates and returns the QR code size from the corresponding text field.">
<polygon fill="white" stroke="#666666" points="1381.38,-382 1211.62,-382 1211.62,-350 1381.38,-350 1381.38,-382"/>
<text text-anchor="start" x="1219.62" y="-368.5" font-family="Helvetica,sans-Serif" font-size="10.00">fr.softsf.canscan.CanScan.validate</text>
<text text-anchor="middle" x="1296.5" y="-356.5" font-family="Helvetica,sans-Serif" font-size="10.00">AndGetSize</text>
</a>
</g>
</g>
<!-- Node6&#45;&gt;Node10 -->
<g id="edge9_Node000006_Node000010" class="edge">
<title>Node6&#45;&gt;Node10</title>
<g id="a_edge9_Node000006_Node000010"><a xlink:title=" ">
<path fill="none" stroke="#63b8ff" d="M1156.23,-399.56C1175.38,-394.95 1196.36,-389.89 1216.09,-385.13"/>
<polygon fill="#63b8ff" stroke="#63b8ff" points="1216.86,-388.55 1225.76,-382.81 1215.22,-381.75 1216.86,-388.55"/>
</a>
</g>
</g>
<!-- Node14 -->
<g id="Node000014" class="node">
<title>Node14</title>
<g id="a_Node000014"><a xlink:href="classfr_1_1softsf_1_1canscan_1_1_can_scan.html#ab2e018ca62c7497c29e84f42ae870daa" target="_top" xlink:title="Adds MECARD and Free card panels to the north panel.">
<polygon fill="white" stroke="#666666" points="726.25,-132 574.5,-132 574.5,-100 726.25,-100 726.25,-132"/>
<text text-anchor="start" x="582.5" y="-118.5" font-family="Helvetica,sans-Serif" font-size="10.00">fr.softsf.canscan.CanScan.add</text>
<text text-anchor="middle" x="650.38" y="-106.5" font-family="Helvetica,sans-Serif" font-size="10.00">NorthPanelCardPanels</text>
</a>
</g>
</g>
<!-- Node13&#45;&gt;Node14 -->
<g id="edge14_Node000013_Node000014" class="edge">
<title>Node13&#45;&gt;Node14</title>
<g id="a_edge14_Node000013_Node000014"><a xlink:title=" ">
<path fill="none" stroke="#63b8ff" d="M507.81,-174.6C515,-172.05 522.12,-169.18 528.75,-166 546.31,-157.58 547.19,-149.42 564.75,-141 568.07,-139.41 571.5,-137.9 575.01,-136.47"/>
<polygon fill="#63b8ff" stroke="#63b8ff" points="576.18,-139.77 584.28,-132.94 573.69,-133.22 576.18,-139.77"/>
</a>
</g>
</g>
<!-- Node18 -->
<g id="Node000018" class="node">
<title>Node18</title>
<g id="a_Node000018"><a xlink:href="classfr_1_1softsf_1_1canscan_1_1_can_scan.html#a94ab4df98de0d05977e6a65ab75f89f0" target="_top" xlink:title="Adds common input fields to the north panel.">
<polygon fill="white" stroke="#666666" points="726.25,-182 574.5,-182 574.5,-150 726.25,-150 726.25,-182"/>
<text text-anchor="start" x="582.5" y="-168.5" font-family="Helvetica,sans-Serif" font-size="10.00">fr.softsf.canscan.CanScan.add</text>
<text text-anchor="middle" x="650.38" y="-156.5" font-family="Helvetica,sans-Serif" font-size="10.00">NorthPanelCommonFields</text>
</a>
</g>
</g>
<!-- Node13&#45;&gt;Node18 -->
<g id="edge19_Node000013_Node000018" class="edge">
<title>Node13&#45;&gt;Node18</title>
<g id="a_edge19_Node000013_Node000018"><a xlink:title=" ">
<path fill="none" stroke="#63b8ff" d="M529.09,-180.65C540.34,-179.28 551.88,-177.88 563.15,-176.5"/>
<polygon fill="#63b8ff" stroke="#63b8ff" points="563.3,-180.01 572.81,-175.33 562.46,-173.06 563.3,-180.01"/>
</a>
</g>
</g>
<!-- Node20 -->
<g id="Node000020" class="node">
<title>Node20</title>
<g id="a_Node000020"><a xlink:href="classfr_1_1softsf_1_1canscan_1_1_can_scan.html#a9f205dfdb266d5d7f8f8899b69742663" target="_top" xlink:title="Adds the generate button to the north panel.">
<polygon fill="white" stroke="#666666" points="726.25,-82 574.5,-82 574.5,-50 726.25,-50 726.25,-82"/>
<text text-anchor="start" x="582.5" y="-68.5" font-family="Helvetica,sans-Serif" font-size="10.00">fr.softsf.canscan.CanScan.add</text>
<text text-anchor="middle" x="650.38" y="-56.5" font-family="Helvetica,sans-Serif" font-size="10.00">NorthPanelGenerateButton</text>
</a>
</g>
</g>
<!-- Node13&#45;&gt;Node20 -->
<g id="edge24_Node000013_Node000020" class="edge">
<title>Node13&#45;&gt;Node20</title>
<g id="a_edge24_Node000013_Node000020"><a xlink:title=" ">
<path fill="none" stroke="#63b8ff" d="M516.13,-174.6C520.64,-172.12 524.9,-169.28 528.75,-166 556.9,-142.03 536.6,-114.97 564.75,-91 565.71,-90.18 566.7,-89.39 567.71,-88.62"/>
<polygon fill="#63b8ff" stroke="#63b8ff" points="569.59,-91.58 576.1,-83.22 565.79,-85.69 569.59,-91.58"/>
</a>
</g>
</g>
<!-- Node21 -->
<g id="Node000021" class="node">
<title>Node21</title>
<g id="a_Node000021"><a xlink:href="classfr_1_1softsf_1_1canscan_1_1_can_scan.html#aa469763b92dd7cbc6dfdb9aaa0116b33" target="_top" xlink:title="Adds mode selection controls (MECARD/Free) to the north panel.">
<polygon fill="white" stroke="#666666" points="726.25,-282 574.5,-282 574.5,-250 726.25,-250 726.25,-282"/>
<text text-anchor="start" x="582.5" y="-268.5" font-family="Helvetica,sans-Serif" font-size="10.00">fr.softsf.canscan.CanScan.add</text>
<text text-anchor="middle" x="650.38" y="-256.5" font-family="Helvetica,sans-Serif" font-size="10.00">NorthPanelModeSelection</text>
</a>
</g>
</g>
<!-- Node13&#45;&gt;Node21 -->
<g id="edge25_Node000013_Node000021" class="edge">
<title>Node13&#45;&gt;Node21</title>
<g id="a_edge25_Node000013_Node000021"><a xlink:title=" ">
<path fill="none" stroke="#63b8ff" d="M494.79,-207.41C506.11,-211.5 517.95,-216.13 528.75,-221 545.43,-228.53 547.87,-233.92 564.75,-241 568.77,-242.69 572.94,-244.3 577.17,-245.85"/>
<polygon fill="#63b8ff" stroke="#63b8ff" points="575.78,-249.07 586.37,-249.05 578.07,-242.46 575.78,-249.07"/>
</a>
</g>
</g>
<!-- Node27 -->
<g id="Node000027" class="node">
<title>Node27</title>
<g id="a_Node000027"><a xlink:href="classfr_1_1softsf_1_1canscan_1_1_can_scan.html#aeb5550da33925e95999aae23f525f7c5" target="_top" xlink:title="Creates default GridBagConstraints for consistent layout configuration.">
<polygon fill="white" stroke="#666666" points="729.25,-232 571.5,-232 571.5,-200 729.25,-200 729.25,-232"/>
<text text-anchor="start" x="579.5" y="-218.5" font-family="Helvetica,sans-Serif" font-size="10.00">fr.softsf.canscan.CanScan.north</text>
<text text-anchor="middle" x="650.38" y="-206.5" font-family="Helvetica,sans-Serif" font-size="10.00">PanelGridBagConstraints</text>
</a>
</g>
</g>
<!-- Node13&#45;&gt;Node27 -->
<g id="edge34_Node000013_Node000027" class="edge">
<title>Node13&#45;&gt;Node27</title>
<g id="a_edge34_Node000013_Node000027"><a xlink:title=" ">
<path fill="none" stroke="#63b8ff" d="M529.09,-201.35C539.19,-202.58 549.52,-203.84 559.68,-205.07"/>
<polygon fill="#63b8ff" stroke="#63b8ff" points="559.2,-208.54 569.55,-206.28 560.05,-201.59 559.2,-208.54"/>
</a>
</g>
</g>
<!-- Node15 -->
<g id="Node000015" class="node">
<title>Node15</title>
<g id="a_Node000015"><a xlink:href="classfr_1_1softsf_1_1canscan_1_1_can_scan.html#a38d65dd319daee1c3288690c17e43ca5" target="_top" xlink:title="Initializes the FREE mode input panel with a multiline text area for arbitrary text or URLs.">
<polygon fill="white" stroke="#666666" points="955.25,-50 781.75,-50 781.75,-30 955.25,-30 955.25,-50"/>
<text text-anchor="middle" x="868.5" y="-36.5" font-family="Helvetica,sans-Serif" font-size="10.00">fr.softsf.canscan.CanScan.freeCard</text>
</a>
</g>
</g>
<!-- Node14&#45;&gt;Node15 -->
<g id="edge15_Node000014_Node000015" class="edge">
<title>Node14&#45;&gt;Node15</title>
<g id="a_edge15_Node000014_Node000015"><a xlink:title=" ">
<path fill="none" stroke="#63b8ff" d="M717.68,-99.52C724.03,-97.03 730.24,-94.2 736,-91 754.71,-80.61 752.83,-68.53 772,-59 775.55,-57.23 779.25,-55.63 783.05,-54.18"/>
<polygon fill="#63b8ff" stroke="#63b8ff" points="784.18,-57.49 792.51,-50.95 781.92,-50.87 784.18,-57.49"/>
</a>
</g>
</g>
<!-- Node17 -->
<g id="Node000017" class="node">
<title>Node17</title>
<g id="a_Node000017"><a xlink:href="classfr_1_1softsf_1_1canscan_1_1_can_scan.html#aed7e3048974882318a6519d8d36e8ec0" target="_top" xlink:title="Initializes the MECARD input panel with labeled text fields for structured contact information.">
<polygon fill="white" stroke="#666666" points="952.62,-88 784.38,-88 784.38,-68 952.62,-68 952.62,-88"/>
<text text-anchor="middle" x="868.5" y="-74.5" font-family="Helvetica,sans-Serif" font-size="10.00">fr.softsf.canscan.CanScan.mecard</text>
</a>
</g>
</g>
<!-- Node14&#45;&gt;Node17 -->
<g id="edge17_Node000014_Node000017" class="edge">
<title>Node14&#45;&gt;Node17</title>
<g id="a_edge17_Node000014_Node000017"><a xlink:title=" ">
<path fill="none" stroke="#63b8ff" d="M726.66,-102.76C749.38,-98.77 774.23,-94.4 796.65,-90.46"/>
<polygon fill="#63b8ff" stroke="#63b8ff" points="797.05,-93.94 806.3,-88.76 795.84,-87.05 797.05,-93.94"/>
</a>
</g>
</g>
<!-- Node16 -->
<g id="Node000016" class="node">
<title>Node16</title>
<g id="a_Node000016"><a xlink:href="classfr_1_1softsf_1_1canscan_1_1_can_scan.html#a2732ecdc4490a717352975e68fce494c" target="_top" xlink:title="Adds a labeled component row to a panel using GridBagLayout.">
<polygon fill="white" stroke="#666666" points="1173,-107 1001,-107 1001,-87 1173,-87 1173,-107"/>
<text text-anchor="middle" x="1087" y="-93.5" font-family="Helvetica,sans-Serif" font-size="10.00">fr.softsf.canscan.CanScan.addRow</text>
</a>
</g>
</g>
<!-- Node15&#45;&gt;Node16 -->
<g id="edge16_Node000015_Node000016" class="edge">
<title>Node15&#45;&gt;Node16</title>
<g id="a_edge16_Node000015_Node000016"><a xlink:title=" ">
<path fill="none" stroke="#63b8ff" d="M927.3,-50.46C939.79,-53.01 952.88,-55.9 965,-59 991.95,-65.89 1021.77,-75.23 1045.06,-82.93"/>
<polygon fill="#63b8ff" stroke="#63b8ff" points="1043.9,-86.23 1054.49,-86.08 1046.11,-79.59 1043.9,-86.23"/>
</a>
</g>
</g>
<!-- Node17&#45;&gt;Node16 -->
<g id="edge18_Node000017_Node000016" class="edge">
<title>Node17&#45;&gt;Node16</title>
<g id="a_edge18_Node000017_Node000016"><a xlink:title=" ">
<path fill="none" stroke="#63b8ff" d="M952.89,-85.32C964.93,-86.38 977.41,-87.47 989.67,-88.55"/>
<polygon fill="#63b8ff" stroke="#63b8ff" points="989.08,-92.01 999.35,-89.4 989.69,-85.03 989.08,-92.01"/>
</a>
</g>
</g>
<!-- Node18&#45;&gt;Node16 -->
<g id="edge20_Node000018_Node000016" class="edge">
<title>Node18&#45;&gt;Node16</title>
<g id="a_edge20_Node000018_Node000016"><a xlink:title=" ">
<path fill="none" stroke="#63b8ff" d="M723.28,-149.56C739.27,-146.17 756.18,-142.78 772,-140 844.57,-127.23 927.14,-116.05 989.39,-108.3"/>
<polygon fill="#63b8ff" stroke="#63b8ff" points="989.77,-111.78 999.27,-107.08 988.91,-104.83 989.77,-111.78"/>
</a>
</g>
</g>
<!-- Node19 -->
<g id="Node000019" class="node">
<title>Node19</title>
<g id="a_Node000019"><a xlink:href="classfr_1_1softsf_1_1canscan_1_1_can_scan.html#a17b0a72ab305f98f86591411b6a352f2" target="_top" xlink:title="Creates the color selection panel for QR code and background colors.">
<polygon fill="white" stroke="#666666" points="947,-252 790,-252 790,-220 947,-220 947,-252"/>
<text text-anchor="start" x="798" y="-238.5" font-family="Helvetica,sans-Serif" font-size="10.00">fr.softsf.canscan.CanScan.color</text>
<text text-anchor="middle" x="868.5" y="-226.5" font-family="Helvetica,sans-Serif" font-size="10.00">Panel</text>
</a>
</g>
</g>
<!-- Node18&#45;&gt;Node19 -->
<g id="edge21_Node000018_Node000019" class="edge">
<title>Node18&#45;&gt;Node19</title>
<g id="a_edge21_Node000018_Node000019"><a xlink:title=" ">
<path fill="none" stroke="#63b8ff" d="M712.95,-182.45C720.8,-185.06 728.65,-187.92 736,-191 752.88,-198.08 755.01,-204.18 772,-211 776.38,-212.76 780.93,-214.43 785.56,-216.01"/>
<polygon fill="#63b8ff" stroke="#63b8ff" points="784.41,-219.32 795,-219.07 786.57,-212.66 784.41,-219.32"/>
</a>
</g>
</g>
<!-- Node19&#45;&gt;Node6 -->
<g id="edge23_Node000019_Node000006" class="edge">
<title>Node19&#45;&gt;Node6</title>
<g id="a_edge23_Node000019_Node000006"><a xlink:title=" ">
<path fill="none" stroke="#63b8ff" d="M916.36,-252.42C932.59,-259.29 950.36,-268.21 965,-279 1008.15,-310.8 1047.03,-360.28 1068.5,-390.26"/>
<polygon fill="#63b8ff" stroke="#63b8ff" points="1065.6,-392.23 1074.22,-398.39 1071.32,-388.2 1065.6,-392.23"/>
</a>
</g>
</g>
<!-- Node19&#45;&gt;Node19 -->
<g id="edge22_Node000019_Node000019" class="edge">
<title>Node19&#45;&gt;Node19</title>
<g id="a_edge22_Node000019_Node000019"><a xlink:title=" ">
<path fill="none" stroke="#63b8ff" d="M829.56,-252.44C822.29,-261.58 835.27,-270 868.5,-270 886.93,-270 899.13,-267.41 905.11,-263.54"/>
<polygon fill="#63b8ff" stroke="#63b8ff" points="908.5,-264.43 907.13,-253.92 901.65,-262.99 908.5,-264.43"/>
</a>
</g>
</g>
<!-- Node21&#45;&gt;Node16 -->
<g id="edge26_Node000021_Node000016" class="edge">
<title>Node21&#45;&gt;Node16</title>
<g id="a_edge26_Node000021_Node000016"><a xlink:title=" ">
<path fill="none" stroke="#63b8ff" d="M722.82,-249.65C727.51,-247.16 731.97,-244.3 736,-241 762.47,-219.35 744.3,-193.05 772,-173 842.49,-121.97 880.8,-161.98 965,-140 994.24,-132.37 1026.43,-120.76 1050.26,-111.53"/>
<polygon fill="#63b8ff" stroke="#63b8ff" points="1051.47,-114.82 1059.49,-107.9 1048.91,-108.3 1051.47,-114.82"/>
</a>
</g>
</g>
<!-- Node22 -->
<g id="Node000022" class="node">
<title>Node22</title>
<g id="a_Node000022"><a xlink:href="classfr_1_1softsf_1_1canscan_1_1_can_scan.html#a381579d3adc53b1122b38e7fda5c0235" target="_top" xlink:title="Configures the update button for version checking.">
<polygon fill="white" stroke="#666666" points="956.38,-388 780.62,-388 780.62,-356 956.38,-356 956.38,-388"/>
<text text-anchor="start" x="788.62" y="-374.5" font-family="Helvetica,sans-Serif" font-size="10.00">fr.softsf.canscan.CanScan.configure</text>
<text text-anchor="middle" x="868.5" y="-362.5" font-family="Helvetica,sans-Serif" font-size="10.00">UpdateButton</text>
</a>
</g>
</g>
<!-- Node21&#45;&gt;Node22 -->
<g id="edge27_Node000021_Node000022" class="edge">
<title>Node21&#45;&gt;Node22</title>
<g id="a_edge27_Node000021_Node000022"><a xlink:title=" ">
<path fill="none" stroke="#63b8ff" d="M671.05,-282.28C693.97,-300.49 733.6,-329.68 772,-347 775.73,-348.68 779.61,-350.27 783.55,-351.77"/>
<polygon fill="#63b8ff" stroke="#63b8ff" points="782.12,-354.97 792.72,-355 784.45,-348.37 782.12,-354.97"/>
</a>
</g>
</g>
<!-- Node23 -->
<g id="Node000023" class="node">
<title>Node23</title>
<g id="a_Node000023"><a xlink:href="classfr_1_1softsf_1_1canscan_1_1_can_scan.html#a5d8f82f2666e6632015dbc4a8ff2b58e" target="_top" xlink:title="Creates the radio button panel for mode selection.">
<polygon fill="white" stroke="#666666" points="947,-320 790,-320 790,-288 947,-288 947,-320"/>
<text text-anchor="start" x="798" y="-306.5" font-family="Helvetica,sans-Serif" font-size="10.00">fr.softsf.canscan.CanScan.radio</text>
<text text-anchor="middle" x="868.5" y="-294.5" font-family="Helvetica,sans-Serif" font-size="10.00">ButtonsPanel</text>
</a>
</g>
</g>
<!-- Node21&#45;&gt;Node23 -->
<g id="edge28_Node000021_Node000023" class="edge">
<title>Node21&#45;&gt;Node23</title>
<g id="a_edge28_Node000021_Node000023"><a xlink:title=" ">
<path fill="none" stroke="#63b8ff" d="M726.66,-279.24C743.35,-282.17 761.19,-285.31 778.37,-288.33"/>
<polygon fill="#63b8ff" stroke="#63b8ff" points="777.6,-291.75 788.06,-290.03 778.82,-284.85 777.6,-291.75"/>
</a>
</g>
</g>
<!-- Node24 -->
<g id="Node000024" class="node">
<title>Node24</title>
<g id="a_Node000024"><a xlink:href="classfr_1_1softsf_1_1canscan_1_1_can_scan.html#a428c742b098fa27d4c8984c1030c238d" target="_top" xlink:title="Switches the application between MECARD and FREE QR code modes.">
<polygon fill="white" stroke="#666666" points="962.75,-202 774.25,-202 774.25,-182 962.75,-182 962.75,-202"/>
<text text-anchor="middle" x="868.5" y="-188.5" font-family="Helvetica,sans-Serif" font-size="10.00">fr.softsf.canscan.CanScan.switchMode</text>
</a>
</g>
</g>
<!-- Node21&#45;&gt;Node24 -->
<g id="edge30_Node000021_Node000024" class="edge">
<title>Node21&#45;&gt;Node24</title>
<g id="a_edge30_Node000021_Node000024"><a xlink:title=" ">
<path fill="none" stroke="#63b8ff" d="M717.13,-249.5C723.65,-247 730.06,-244.18 736,-241 754.37,-231.18 753.21,-219.98 772,-211 775.92,-209.13 780.02,-207.44 784.21,-205.92"/>
<polygon fill="#63b8ff" stroke="#63b8ff" points="784.95,-209.36 793.37,-202.94 782.78,-202.7 784.95,-209.36"/>
</a>
</g>
</g>
<!-- Node23&#45;&gt;Node23 -->
<g id="edge29_Node000023_Node000023" class="edge">
<title>Node23&#45;&gt;Node23</title>
<g id="a_edge29_Node000023_Node000023"><a xlink:title=" ">
<path fill="none" stroke="#63b8ff" d="M829.56,-320.44C822.29,-329.58 835.27,-338 868.5,-338 886.93,-338 899.13,-335.41 905.11,-331.54"/>
<polygon fill="#63b8ff" stroke="#63b8ff" points="908.5,-332.43 907.13,-321.92 901.65,-330.99 908.5,-332.43"/>
</a>
</g>
</g>
<!-- Node24&#45;&gt;Node6 -->
<g id="edge31_Node000024_Node000006" class="edge">
<title>Node24&#45;&gt;Node6</title>
<g id="a_edge31_Node000024_Node000006"><a xlink:title=" ">
<path fill="none" stroke="#63b8ff" d="M949.34,-202.38C954.88,-204.73 960.17,-207.58 965,-211 1027.81,-255.56 1063.29,-343.87 1077.95,-388.63"/>
<polygon fill="#63b8ff" stroke="#63b8ff" points="1074.59,-389.59 1080.93,-398.08 1081.26,-387.49 1074.59,-389.59"/>
</a>
</g>
</g>
<!-- Node25 -->
<g id="Node000025" class="node">
<title>Node25</title>
<g id="a_Node000025"><a xlink:href="enumfr_1_1softsf_1_1canscan_1_1model_1_1_mode.html#a16a898a11ca939056bd7b275f11ea54c" target="_top" xlink:title="Returns the mode label.">
<polygon fill="white" stroke="#666666" points="1147.88,-183 1026.12,-183 1026.12,-151 1147.88,-151 1147.88,-183"/>
<text text-anchor="start" x="1034.12" y="-169.5" font-family="Helvetica,sans-Serif" font-size="10.00">fr.softsf.canscan.model.</text>
<text text-anchor="middle" x="1087" y="-157.5" font-family="Helvetica,sans-Serif" font-size="10.00">Mode.text</text>
</a>
</g>
</g>
<!-- Node24&#45;&gt;Node25 -->
<g id="edge32_Node000024_Node000025" class="edge">
<title>Node24&#45;&gt;Node25</title>
<g id="a_edge32_Node000024_Node000025"><a xlink:title=" ">
<path fill="none" stroke="#63b8ff" d="M960.37,-181.51C978.51,-179.41 997.3,-177.24 1014.66,-175.24"/>
<polygon fill="#63b8ff" stroke="#63b8ff" points="1014.81,-178.74 1024.34,-174.12 1014,-171.79 1014.81,-178.74"/>
</a>
</g>
</g>
<!-- Node26 -->
<g id="Node000026" class="node">
<title>Node26</title>
<g id="a_Node000026"><a xlink:href="classfr_1_1softsf_1_1canscan_1_1_can_scan.html#a11fd9295c4843e6e68f9d1e4a710b906" target="_top" xlink:title="Validates the current input fields and toggles the state of the generate button.">
<polygon fill="white" stroke="#666666" points="1169.62,-233 1004.38,-233 1004.38,-201 1169.62,-201 1169.62,-233"/>
<text text-anchor="start" x="1012.38" y="-219.5" font-family="Helvetica,sans-Serif" font-size="10.00">fr.softsf.canscan.CanScan.update</text>
<text text-anchor="middle" x="1087" y="-207.5" font-family="Helvetica,sans-Serif" font-size="10.00">GenerateButtonState</text>
</a>
</g>
</g>
<!-- Node24&#45;&gt;Node26 -->
<g id="edge33_Node000024_Node000026" class="edge">
<title>Node24&#45;&gt;Node26</title>
<g id="a_edge33_Node000024_Node000026"><a xlink:title=" ">
<path fill="none" stroke="#63b8ff" d="M960.37,-202.49C971.11,-203.73 982.08,-205 992.85,-206.24"/>
<polygon fill="#63b8ff" stroke="#63b8ff" points="992.13,-209.68 1002.47,-207.35 992.94,-202.73 992.13,-209.68"/>
</a>
</g>
</g>
<!-- Node30 -->
<g id="Node000030" class="node">
<title>Node30</title>
<g id="a_Node000030"><a xlink:href="classfr_1_1softsf_1_1canscan_1_1_can_scan.html#abbe4fb71ad979d6affed0b2c9629b832" target="_top" xlink:title="Updates the tooltip of the ratio slider to reflect its current value as a percentage.">
<polygon fill="white" stroke="#666666" points="725.12,-32 575.62,-32 575.62,0 725.12,0 725.12,-32"/>
<text text-anchor="start" x="583.62" y="-18.5" font-family="Helvetica,sans-Serif" font-size="10.00">fr.softsf.canscan.CanScan.set</text>
<text text-anchor="middle" x="650.38" y="-6.5" font-family="Helvetica,sans-Serif" font-size="10.00">RatioSliderTooltipValue</text>
</a>
</g>
</g>
<!-- Node29&#45;&gt;Node30 -->
<g id="edge37_Node000029_Node000030" class="edge">
<title>Node29&#45;&gt;Node30</title>
<g id="a_edge37_Node000029_Node000030"><a xlink:title=" ">
<path fill="none" stroke="#63b8ff" d="M507.81,-74.6C515,-72.05 522.12,-69.18 528.75,-66 546.31,-57.58 547.19,-49.42 564.75,-41 568.07,-39.41 571.5,-37.9 575.01,-36.47"/>
<polygon fill="#63b8ff" stroke="#63b8ff" points="576.18,-39.77 584.28,-32.94 573.69,-33.22 576.18,-39.77"/>
</a>
</g>
</g>
<!-- Node31&#45;&gt;Node1 -->
<g id="edge39_Node000031_Node000001" class="edge">
<title>Node31&#45;&gt;Node1</title>
<g id="a_edge39_Node000031_Node000001"><a xlink:title=" ">
<path fill="none" stroke="#63b8ff" d="M361.74,-57.46C302.3,-69.62 221.5,-86.16 160.95,-98.56"/>
<polygon fill="#63b8ff" stroke="#63b8ff" points="160.47,-95.08 151.37,-100.52 161.87,-101.94 160.47,-95.08"/>
</a>
</g>
</g>
<!-- Node33 -->
<g id="Node000033" class="node">
<title>Node33</title>
<g id="a_Node000033"><a xlink:href="classfr_1_1softsf_1_1canscan_1_1_can_scan.html#a0fe215984734bb1337dd49ca30238b78" target="_top" xlink:title="Sets the loader size so it matches the QR code label height and remains centered.">
<polygon fill="white" stroke="#666666" points="1161.75,-570 1012.25,-570 1012.25,-538 1161.75,-538 1161.75,-570"/>
<text text-anchor="start" x="1020.25" y="-556.5" font-family="Helvetica,sans-Serif" font-size="10.00">fr.softsf.canscan.CanScan.set</text>
<text text-anchor="middle" x="1087" y="-544.5" font-family="Helvetica,sans-Serif" font-size="10.00">LoaderSize</text>
</a>
</g>
</g>
<!-- Node32&#45;&gt;Node33 -->
<g id="edge41_Node000032_Node000033" class="edge">
<title>Node32&#45;&gt;Node33</title>
<g id="a_edge41_Node000032_Node000033"><a xlink:title=" ">
<path fill="none" stroke="#63b8ff" d="M481.07,-438.45C540.84,-464.21 663.05,-513.35 772,-535 848.43,-550.19 937.21,-554.35 1000.82,-555.06"/>
<polygon fill="#63b8ff" stroke="#63b8ff" points="1000.46,-558.55 1010.49,-555.13 1000.52,-551.55 1000.46,-558.55"/>
</a>
</g>
</g>
<!-- Node33&#45;&gt;Node7 -->
<g id="edge42_Node000033_Node000007" class="edge">
<title>Node33&#45;&gt;Node7</title>
<g id="a_edge42_Node000033_Node000007"><a xlink:title=" ">
<path fill="none" stroke="#63b8ff" d="M1162.03,-547.22C1173.5,-546.17 1185.49,-545.07 1197.39,-543.98"/>
<polygon fill="#63b8ff" stroke="#63b8ff" points="1197.6,-547.48 1207.24,-543.08 1196.96,-540.51 1197.6,-547.48"/>
</a>
</g>
</g>
</g>
</svg>
