<?xml version="1.0" encoding="UTF-8" standalone="no"?>
<!DOCTYPE svg PUBLIC "-//W3C//DTD SVG 1.1//EN"
 "http://www.w3.org/Graphics/SVG/1.1/DTD/svg11.dtd">
<!-- Generated by graphviz version 12.2.1 (20241206.2353)
 -->
<!-- Title: fr.softsf.canscan.CanScan.addNorthPanelCommonFields Pages: 1 -->
<!--zoomable 190 -->

<svg id="main" version="1.1" xmlns="http://www.w3.org/2000/svg" xmlns:xlink="http://www.w3.org/1999/xlink" xml:space="preserve" onload="init(evt)">

<style type="text/css"><![CDATA[
.node, .edge {opacity: 0.7;}
.node.selected, .edge.selected {opacity: 1;}
.edge:hover path { stroke: red; }
.edge:hover polygon { stroke: red; fill: red; }
]]></style>

<defs>
  <circle id="rim" cx="0" cy="0" r="7"/>
  <circle id="rim2" cx="0" cy="0" r="3.5"/>
  <g id="zoomPlus">
    <use xlink:href="#rim" fill="#404040"><set attributeName="fill" to="#808080" begin="zoomplus.mouseover" end="zoomplus.mouseout"/></use>
    <path d="M-4,0h8M0,-4v8" fill="none" stroke="white" stroke-width="1.5" pointer-events="none"/>
  </g>
  <g id="zoomMin">
    <use xlink:href="#rim" fill="#404040"><set attributeName="fill" to="#808080" begin="zoomminus.mouseover" end="zoomminus.mouseout"/></use>
    <path d="M-4,0h8" fill="none" stroke="white" stroke-width="1.5" pointer-events="none"/>
  </g>
  <g id="arrowUp" transform="translate(30 24)">
    <use xlink:href="#rim"/>
    <path pointer-events="none" fill="none" stroke="white" stroke-width="1.5" d="M0,-3.0v7 M-2.5,-0.5L0,-3.0L2.5,-0.5"/>
  </g>
  <g id="arrowRight" transform="rotate(90) translate(36 -43)">
    <use xlink:href="#rim"/>
    <path pointer-events="none" fill="none" stroke="white" stroke-width="1.5" d="M0,-3.0v7 M-2.5,-0.5L0,-3.0L2.5,-0.5"/>
  </g>
  <g id="arrowDown" transform="rotate(180) translate(-30 -48)">
    <use xlink:href="#rim"/>
    <path pointer-events="none" fill="none" stroke="white" stroke-width="1.5" d="M0,-3.0v7 M-2.5,-0.5L0,-3.0L2.5,-0.5"/>
  </g>
  <g id="arrowLeft" transform="rotate(270) translate(-36 17)">
    <use xlink:href="#rim"/>
    <path pointer-events="none" fill="none" stroke="white" stroke-width="1.5" d="M0,-3.0v7 M-2.5,-0.5L0,-3.0L2.5,-0.5"/>
  </g>
  <g id="resetDef">
    <use xlink:href="#rim2" fill="#404040"><set attributeName="fill" to="#808080" begin="reset.mouseover" end="reset.mouseout"/></use>
  </g>
</defs>
<script type="application/ecmascript">
var viewWidth = 764;
var viewHeight = 190;
var sectionId = 'dynsection-4';
</script>
<script type="application/ecmascript" xlink:href="svg.min.js"/>
<svg id="graph" class="graph">
<g id="viewport">
<title>fr.softsf.canscan.CanScan.addNorthPanelCommonFields</title>
<!-- Node1 -->
<g id="Node000001" class="node">
<title>Node1</title>
<g id="a_Node000001"><a xlink:title="Adds common input fields to the north panel.">
<polygon fill="#999999" stroke="#666666" points="151.75,-138 0,-138 0,-106 151.75,-106 151.75,-138"/>
<text text-anchor="start" x="8" y="-124.5" font-family="Helvetica,sans-Serif" font-size="10.00">fr.softsf.canscan.CanScan.add</text>
<text text-anchor="middle" x="75.88" y="-112.5" font-family="Helvetica,sans-Serif" font-size="10.00">NorthPanelCommonFields</text>
</a>
</g>
</g>
<!-- Node2 -->
<g id="Node000002" class="node">
<title>Node2</title>
<g id="a_Node000002"><a xlink:href="classfr_1_1softsf_1_1canscan_1_1_can_scan.html#a2732ecdc4490a717352975e68fce494c" target="_top" xlink:title="Adds a labeled component row to a panel using GridBagLayout.">
<polygon fill="white" stroke="#666666" points="359.75,-163 187.75,-163 187.75,-143 359.75,-143 359.75,-163"/>
<text text-anchor="middle" x="273.75" y="-149.5" font-family="Helvetica,sans-Serif" font-size="10.00">fr.softsf.canscan.CanScan.addRow</text>
</a>
</g>
</g>
<!-- Node1&#45;&gt;Node2 -->
<g id="edge1_Node000001_Node000002" class="edge">
<title>Node1&#45;&gt;Node2</title>
<g id="a_edge1_Node000001_Node000002"><a xlink:title=" ">
<path fill="none" stroke="#63b8ff" d="M152.05,-133.9C166.18,-136.13 180.98,-138.48 195.18,-140.72"/>
<polygon fill="#63b8ff" stroke="#63b8ff" points="194.5,-144.16 204.92,-142.27 195.59,-137.25 194.5,-144.16"/>
</a>
</g>
</g>
<!-- Node3 -->
<g id="Node000003" class="node">
<title>Node3</title>
<g id="a_Node000003"><a xlink:href="classfr_1_1softsf_1_1canscan_1_1_can_scan.html#a17b0a72ab305f98f86591411b6a352f2" target="_top" xlink:title="Creates the color selection panel for QR code and background colors.">
<polygon fill="white" stroke="#666666" points="352.25,-107 195.25,-107 195.25,-75 352.25,-75 352.25,-107"/>
<text text-anchor="start" x="203.25" y="-93.5" font-family="Helvetica,sans-Serif" font-size="10.00">fr.softsf.canscan.CanScan.color</text>
<text text-anchor="middle" x="273.75" y="-81.5" font-family="Helvetica,sans-Serif" font-size="10.00">Panel</text>
</a>
</g>
</g>
<!-- Node1&#45;&gt;Node3 -->
<g id="edge2_Node000001_Node000003" class="edge">
<title>Node1&#45;&gt;Node3</title>
<g id="a_edge2_Node000001_Node000003"><a xlink:title=" ">
<path fill="none" stroke="#63b8ff" d="M152.05,-110.1C162.34,-108.47 173,-106.79 183.52,-105.12"/>
<polygon fill="#63b8ff" stroke="#63b8ff" points="184.04,-108.58 193.37,-103.56 182.94,-101.67 184.04,-108.58"/>
</a>
</g>
</g>
<!-- Node3&#45;&gt;Node3 -->
<g id="edge3_Node000003_Node000003" class="edge">
<title>Node3&#45;&gt;Node3</title>
<g id="a_edge3_Node000003_Node000003"><a xlink:title=" ">
<path fill="none" stroke="#63b8ff" d="M238.62,-107.44C232.07,-116.58 243.78,-125 273.75,-125 290.14,-125 301.07,-122.48 306.54,-118.71"/>
<polygon fill="#63b8ff" stroke="#63b8ff" points="309.96,-119.43 308.57,-108.92 303.11,-118 309.96,-119.43"/>
</a>
</g>
</g>
<!-- Node4 -->
<g id="Node000004" class="node">
<title>Node4</title>
<g id="a_Node000004"><a xlink:href="classfr_1_1softsf_1_1canscan_1_1_can_scan.html#a2d26dcd1ae708eae46dba8952351aa1a" target="_top" xlink:title="Builds and returns a QrInput object containing all current user inputs and settings.">
<polygon fill="white" stroke="#666666" points="545.25,-107 395.75,-107 395.75,-75 545.25,-75 545.25,-107"/>
<text text-anchor="start" x="403.75" y="-93.5" font-family="Helvetica,sans-Serif" font-size="10.00">fr.softsf.canscan.CanScan.get</text>
<text text-anchor="middle" x="470.5" y="-81.5" font-family="Helvetica,sans-Serif" font-size="10.00">QrInput</text>
</a>
</g>
</g>
<!-- Node3&#45;&gt;Node4 -->
<g id="edge4_Node000003_Node000004" class="edge">
<title>Node3&#45;&gt;Node4</title>
<g id="a_edge4_Node000003_Node000004"><a xlink:title=" ">
<path fill="none" stroke="#63b8ff" d="M352.56,-91C362.91,-91 373.56,-91 384.03,-91"/>
<polygon fill="#63b8ff" stroke="#63b8ff" points="383.78,-94.5 393.78,-91 383.78,-87.5 383.78,-94.5"/>
</a>
</g>
</g>
<!-- Node5 -->
<g id="Node000005" class="node">
<title>Node5</title>
<g id="a_Node000005"><a xlink:href="classfr_1_1softsf_1_1canscan_1_1_can_scan.html#a381368b99c4a0857c6abe6349b2c6d27" target="_top" xlink:title="Calculates the available height for QR code rendering.">
<polygon fill="white" stroke="#666666" points="756.25,-182 581.25,-182 581.25,-150 756.25,-150 756.25,-182"/>
<text text-anchor="start" x="589.25" y="-168.5" font-family="Helvetica,sans-Serif" font-size="10.00">fr.softsf.canscan.CanScan.calculate</text>
<text text-anchor="middle" x="668.75" y="-156.5" font-family="Helvetica,sans-Serif" font-size="10.00">AvailableQrCodeLabelHeight</text>
</a>
</g>
</g>
<!-- Node4&#45;&gt;Node5 -->
<g id="edge5_Node000004_Node000005" class="edge">
<title>Node4&#45;&gt;Node5</title>
<g id="a_edge5_Node000004_Node000005"><a xlink:title=" ">
<path fill="none" stroke="#63b8ff" d="M504.11,-107.38C525.67,-117.82 554.74,-131.19 581.25,-141 586.12,-142.8 591.19,-144.56 596.32,-146.25"/>
<polygon fill="#63b8ff" stroke="#63b8ff" points="594.86,-149.46 605.45,-149.17 596.99,-142.79 594.86,-149.46"/>
</a>
</g>
</g>
<!-- Node6 -->
<g id="Node000006" class="node">
<title>Node6</title>
<g id="a_Node000006"><a xlink:href="classfr_1_1softsf_1_1canscan_1_1_can_scan.html#a4e67b1b5c764e72414a5c0f387810f5c" target="_top" xlink:title="Validates and returns the current QR code margin from the margin slider.">
<polygon fill="white" stroke="#666666" points="753.62,-132 583.88,-132 583.88,-100 753.62,-100 753.62,-132"/>
<text text-anchor="start" x="591.88" y="-118.5" font-family="Helvetica,sans-Serif" font-size="10.00">fr.softsf.canscan.CanScan.validate</text>
<text text-anchor="middle" x="668.75" y="-106.5" font-family="Helvetica,sans-Serif" font-size="10.00">AndGetMargin</text>
</a>
</g>
</g>
<!-- Node4&#45;&gt;Node6 -->
<g id="edge6_Node000004_Node000006" class="edge">
<title>Node4&#45;&gt;Node6</title>
<g id="a_edge6_Node000004_Node000006"><a xlink:title=" ">
<path fill="none" stroke="#63b8ff" d="M545.69,-100.45C554.39,-101.56 563.36,-102.7 572.3,-103.84"/>
<polygon fill="#63b8ff" stroke="#63b8ff" points="571.72,-107.3 582.08,-105.09 572.6,-100.35 571.72,-107.3"/>
</a>
</g>
</g>
<!-- Node7 -->
<g id="Node000007" class="node">
<title>Node7</title>
<g id="a_Node000007"><a xlink:href="classfr_1_1softsf_1_1canscan_1_1_can_scan.html#a9e8188875168199cde065113ae2a393d" target="_top" xlink:title="Validates and returns the current image&#45;to&#45;QR ratio from the ratio slider.">
<polygon fill="white" stroke="#666666" points="753.62,-82 583.88,-82 583.88,-50 753.62,-50 753.62,-82"/>
<text text-anchor="start" x="591.88" y="-68.5" font-family="Helvetica,sans-Serif" font-size="10.00">fr.softsf.canscan.CanScan.validate</text>
<text text-anchor="middle" x="668.75" y="-56.5" font-family="Helvetica,sans-Serif" font-size="10.00">AndGetRatio</text>
</a>
</g>
</g>
<!-- Node4&#45;&gt;Node7 -->
<g id="edge7_Node000004_Node000007" class="edge">
<title>Node4&#45;&gt;Node7</title>
<g id="a_edge7_Node000004_Node000007"><a xlink:title=" ">
<path fill="none" stroke="#63b8ff" d="M545.69,-81.55C554.39,-80.44 563.36,-79.3 572.3,-78.16"/>
<polygon fill="#63b8ff" stroke="#63b8ff" points="572.6,-81.65 582.08,-76.91 571.72,-74.7 572.6,-81.65"/>
</a>
</g>
</g>
<!-- Node8 -->
<g id="Node000008" class="node">
<title>Node8</title>
<g id="a_Node000008"><a xlink:href="classfr_1_1softsf_1_1canscan_1_1_can_scan.html#a6d139bb8d0a3c7081096c8956189b684" target="_top" xlink:title="Validates and returns the QR code size from the corresponding text field.">
<polygon fill="white" stroke="#666666" points="753.62,-32 583.88,-32 583.88,0 753.62,0 753.62,-32"/>
<text text-anchor="start" x="591.88" y="-18.5" font-family="Helvetica,sans-Serif" font-size="10.00">fr.softsf.canscan.CanScan.validate</text>
<text text-anchor="middle" x="668.75" y="-6.5" font-family="Helvetica,sans-Serif" font-size="10.00">AndGetSize</text>
</a>
</g>
</g>
<!-- Node4&#45;&gt;Node8 -->
<g id="edge8_Node000004_Node000008" class="edge">
<title>Node4&#45;&gt;Node8</title>
<g id="a_edge8_Node000004_Node000008"><a xlink:title=" ">
<path fill="none" stroke="#63b8ff" d="M504.11,-74.62C525.67,-64.18 554.74,-50.81 581.25,-41 586.12,-39.2 591.19,-37.44 596.32,-35.75"/>
<polygon fill="#63b8ff" stroke="#63b8ff" points="596.99,-39.21 605.45,-32.83 594.86,-32.54 596.99,-39.21"/>
</a>
</g>
</g>
</g>
</svg>

<g id="navigator" transform="translate(0 0)" fill="#404254">
  <rect fill="#f2f5e9" fill-opacity="0.5" stroke="#606060" stroke-width=".5" x="0" y="0" width="60" height="60"/>
  <use id="zoomplus" xlink:href="#zoomPlus" x="17" y="9" onmousedown="handleZoom(evt,'in')"/>
  <use id="zoomminus" xlink:href="#zoomMin" x="42" y="9" onmousedown="handleZoom(evt,'out')"/>
  <use id="reset" xlink:href="#resetDef" x="30" y="36" onmousedown="handleReset()"/>
   <use id="arrowup" xlink:href="#arrowUp" x="0" y="0" onmousedown="handlePan(0,-1)"/>
  <use id="arrowright" xlink:href="#arrowRight" x="0" y="0" onmousedown="handlePan(1,0)"/>
  <use id="arrowdown" xlink:href="#arrowDown" x="0" y="0" onmousedown="handlePan(0,1)"/>
  <use id="arrowleft" xlink:href="#arrowLeft" x="0" y="0" onmousedown="handlePan(-1,0)"/>
</g>
<svg viewBox="0 0 15 15" width="100%" height="30px" preserveAspectRatio="xMaxYMin meet">
 <g id="arrow_out" transform="scale(0.3 0.3)">
  <a xlink:href="classfr_1_1softsf_1_1canscan_1_1_can_scan_a94ab4df98de0d05977e6a65ab75f89f0_cgraph_org.svg" target="_base">
   <rect id="button" ry="5" rx="5" y="6" x="6" height="38" width="38"
        fill="#f2f5e9" fill-opacity="0.5" stroke="#606060" stroke-width="1.0"/>
   <path id="arrow"
     d="M 11.500037,31.436501 C 11.940474,20.09759 22.043105,11.32322 32.158766,21.979434 L 37.068811,17.246167 C 37.068811,17.246167 37.088388,32 37.088388,32 L 22.160133,31.978069 C 22.160133,31.978069 26.997745,27.140456 26.997745,27.140456 C 18.528582,18.264221 13.291696,25.230495 11.500037,31.436501 z"
     style="fill:#404040;"/>
  </a>
 </g>
</svg>

<style type='text/css'>
<![CDATA[
[data-mouse-over-selected='false'] { opacity: 0.7; }
[data-mouse-over-selected='true']  { opacity: 1.0; }
]]>
</style>
<script type="application/ecmascript"><![CDATA[
document.addEventListener('DOMContentLoaded', (event) => {
  highlightEdges();
  highlightAdjacentNodes();
});
]]></script>
</svg>
