<?xml version="1.0" encoding="UTF-8" standalone="no"?>
<!DOCTYPE svg PUBLIC "-//W3C//DTD SVG 1.1//EN"
 "http://www.w3.org/Graphics/SVG/1.1/DTD/svg11.dtd">
<!-- Generated by graphviz version 12.2.1 (20241206.2353)
 -->
<!-- Title: fr.softsf.canscan.ui.FlatLafDatePicker.FlatLafDatePicker Pages: 1 -->
<svg width="824pt" height="118pt"
 viewBox="0.00 0.00 823.50 118.15" xmlns="http://www.w3.org/2000/svg" xmlns:xlink="http://www.w3.org/1999/xlink">
<g id="graph0" class="graph" transform="scale(1 1) rotate(0) translate(4 114.15)">
<title>fr.softsf.canscan.ui.FlatLafDatePicker.FlatLafDatePicker</title>
<!-- Node1 -->
<g id="Node000001" class="node">
<title>Node1</title>
<g id="a_Node000001"><a xlink:title="Creates a new FlatLafDatePicker with styling applied and listener installed.">
<polygon fill="#999999" stroke="#666666" points="160,-94 0,-94 0,-62 160,-62 160,-94"/>
<text text-anchor="start" x="8" y="-80.5" font-family="Helvetica,sans-Serif" font-size="10.00">fr.softsf.canscan.ui.Flat</text>
<text text-anchor="middle" x="80" y="-68.5" font-family="Helvetica,sans-Serif" font-size="10.00">LafDatePicker.FlatLafDatePicker</text>
</a>
</g>
</g>
<!-- Node2 -->
<g id="Node000002" class="node">
<title>Node2</title>
<g id="a_Node000002"><a xlink:href="interfacefr_1_1softsf_1_1canscan_1_1ui_1_1_i_flat_laf_styled_for_l_good_date_picker.html#a5fdca55f301a7bc8db1f4dbf6caaa635" target="_top" xlink:title="Applies FlatLaf styling to the internal JTextField.">
<polygon fill="white" stroke="#666666" points="614.25,-82 409.25,-82 409.25,-50 614.25,-50 614.25,-82"/>
<text text-anchor="start" x="417.25" y="-68.5" font-family="Helvetica,sans-Serif" font-size="10.00">fr.softsf.canscan.ui.IFlat</text>
<text text-anchor="middle" x="511.75" y="-56.5" font-family="Helvetica,sans-Serif" font-size="10.00">LafStyledForLGoodDatePicker.applyTheme</text>
</a>
</g>
</g>
<!-- Node1&#45;&gt;Node2 -->
<g id="edge1_Node000001_Node000002" class="edge">
<title>Node1&#45;&gt;Node2</title>
<g id="a_edge1_Node000001_Node000002"><a xlink:title=" ">
<path fill="none" stroke="#63b8ff" d="M145.07,-94.47C161.56,-98 179.34,-101.21 196,-103 274.33,-111.42 295.15,-113.32 373.25,-103 399.17,-99.57 427.14,-92.66 451.04,-85.73"/>
<polygon fill="#63b8ff" stroke="#63b8ff" points="452.03,-89.09 460.61,-82.89 450.03,-82.38 452.03,-89.09"/>
</a>
</g>
</g>
<!-- Node4 -->
<g id="Node000004" class="node">
<title>Node4</title>
<g id="a_Node000004"><a xlink:href="classfr_1_1softsf_1_1canscan_1_1ui_1_1_flat_laf_date_picker.html#a6e1bdfa099ae7bb158935c8b50410e56" target="_top" xlink:title="Prepares DatePickerSettings with FlatLaf colors and borders.">
<polygon fill="white" stroke="#666666" points="356.75,-94 212.5,-94 212.5,-62 356.75,-62 356.75,-94"/>
<text text-anchor="start" x="220.5" y="-80.5" font-family="Helvetica,sans-Serif" font-size="10.00">fr.softsf.canscan.ui.Flat</text>
<text text-anchor="middle" x="284.62" y="-68.5" font-family="Helvetica,sans-Serif" font-size="10.00">LafDatePicker.createSettings</text>
</a>
</g>
</g>
<!-- Node1&#45;&gt;Node4 -->
<g id="edge3_Node000001_Node000004" class="edge">
<title>Node1&#45;&gt;Node4</title>
<g id="a_edge3_Node000001_Node000004"><a xlink:title=" ">
<path fill="none" stroke="#63b8ff" d="M160.21,-78C173.56,-78 187.46,-78 200.9,-78"/>
<polygon fill="#63b8ff" stroke="#63b8ff" points="200.55,-81.5 210.55,-78 200.55,-74.5 200.55,-81.5"/>
</a>
</g>
</g>
<!-- Node5 -->
<g id="Node000005" class="node">
<title>Node5</title>
<g id="a_Node000005"><a xlink:href="interfacefr_1_1softsf_1_1canscan_1_1ui_1_1_i_flat_laf_styled_for_l_good_date_picker.html#a6dc0ecfec2349d410dc78f6f8feca211" target="_top" xlink:title="Installs a property change listener on the internal text field.">
<polygon fill="white" stroke="#666666" points="373.25,-44 196,-44 196,0 373.25,0 373.25,-44"/>
<text text-anchor="start" x="204" y="-30.5" font-family="Helvetica,sans-Serif" font-size="10.00">fr.softsf.canscan.ui.IFlat</text>
<text text-anchor="start" x="204" y="-18.5" font-family="Helvetica,sans-Serif" font-size="10.00">LafStyledForLGoodDatePicker.install</text>
<text text-anchor="middle" x="284.62" y="-6.5" font-family="Helvetica,sans-Serif" font-size="10.00">ThemeListener</text>
</a>
</g>
</g>
<!-- Node1&#45;&gt;Node5 -->
<g id="edge4_Node000001_Node000005" class="edge">
<title>Node1&#45;&gt;Node5</title>
<g id="a_edge4_Node000001_Node000005"><a xlink:title=" ">
<path fill="none" stroke="#63b8ff" d="M140.7,-61.5C156.75,-57.07 174.48,-52.16 191.84,-47.37"/>
<polygon fill="#63b8ff" stroke="#63b8ff" points="192.41,-50.84 201.12,-44.8 190.55,-44.09 192.41,-50.84"/>
</a>
</g>
</g>
<!-- Node3 -->
<g id="Node000003" class="node">
<title>Node3</title>
<g id="a_Node000003"><a xlink:href="interfacefr_1_1softsf_1_1canscan_1_1ui_1_1_i_flat_laf_styled_for_l_good_date_picker.html#aefd53a813e3651ae14f3ef740410bade" target="_top" xlink:title="Returns the internal JTextField used by the LGoodDatePicker.">
<polygon fill="white" stroke="#666666" points="815.5,-66 650.25,-66 650.25,-22 815.5,-22 815.5,-66"/>
<text text-anchor="start" x="658.25" y="-52.5" font-family="Helvetica,sans-Serif" font-size="10.00">fr.softsf.canscan.ui.IFlat</text>
<text text-anchor="start" x="658.25" y="-40.5" font-family="Helvetica,sans-Serif" font-size="10.00">LafStyledForLGoodDatePicker.get</text>
<text text-anchor="middle" x="732.88" y="-28.5" font-family="Helvetica,sans-Serif" font-size="10.00">InternalTextField</text>
</a>
</g>
</g>
<!-- Node2&#45;&gt;Node3 -->
<g id="edge2_Node000002_Node000003" class="edge">
<title>Node2&#45;&gt;Node3</title>
<g id="a_edge2_Node000002_Node000003"><a xlink:title=" ">
<path fill="none" stroke="#63b8ff" d="M614.61,-55.77C622.67,-54.96 630.77,-54.15 638.76,-53.35"/>
<polygon fill="#63b8ff" stroke="#63b8ff" points="638.85,-56.86 648.45,-52.38 638.15,-49.89 638.85,-56.86"/>
</a>
</g>
</g>
<!-- Node5&#45;&gt;Node2 -->
<g id="edge5_Node000005_Node000002" class="edge">
<title>Node5&#45;&gt;Node2</title>
<g id="a_edge5_Node000005_Node000002"><a xlink:title=" ">
<path fill="none" stroke="#63b8ff" d="M373.63,-39.2C387.35,-41.88 401.58,-44.66 415.46,-47.38"/>
<polygon fill="#63b8ff" stroke="#63b8ff" points="414.52,-50.76 425.01,-49.24 415.86,-43.89 414.52,-50.76"/>
</a>
</g>
</g>
<!-- Node5&#45;&gt;Node3 -->
<g id="edge6_Node000005_Node000003" class="edge">
<title>Node5&#45;&gt;Node3</title>
<g id="a_edge6_Node000005_Node000003"><a xlink:title=" ">
<path fill="none" stroke="#63b8ff" d="M373.52,-26.33C450,-30.1 560.51,-35.55 638.54,-39.4"/>
<polygon fill="#63b8ff" stroke="#63b8ff" points="638.14,-42.88 648.3,-39.88 638.49,-35.89 638.14,-42.88"/>
</a>
</g>
</g>
</g>
</svg>
