<?xml version="1.0" encoding="UTF-8" standalone="no"?>
<!DOCTYPE svg PUBLIC "-//W3C//DTD SVG 1.1//EN"
 "http://www.w3.org/Graphics/SVG/1.1/DTD/svg11.dtd">
<!-- Generated by graphviz version 12.2.1 (20241206.2353)
 -->
<!-- Title: fr.softsf.canscan.ui.QrCodeResize.handleResize Pages: 1 -->
<svg width="966pt" height="140pt"
 viewBox="0.00 0.00 965.50 140.00" xmlns="http://www.w3.org/2000/svg" xmlns:xlink="http://www.w3.org/1999/xlink">
<g id="graph0" class="graph" transform="scale(1 1) rotate(0) translate(4 136)">
<title>fr.softsf.canscan.ui.QrCodeResize.handleResize</title>
<!-- Node1 -->
<g id="Node000001" class="node">
<title>Node1</title>
<g id="a_Node000001"><a xlink:title="Handles the QR code resize process after the debounce delay.">
<polygon fill="#999999" stroke="#666666" points="136.75,-107 0,-107 0,-75 136.75,-75 136.75,-107"/>
<text text-anchor="start" x="8" y="-93.5" font-family="Helvetica,sans-Serif" font-size="10.00">fr.softsf.canscan.ui.QrCode</text>
<text text-anchor="middle" x="68.38" y="-81.5" font-family="Helvetica,sans-Serif" font-size="10.00">Resize.handleResize</text>
</a>
</g>
</g>
<!-- Node2 -->
<g id="Node000002" class="node">
<title>Node2</title>
<g id="a_Node000002"><a xlink:href="classfr_1_1softsf_1_1canscan_1_1ui_1_1_qr_code_resize.html#aa7bb188a82b4cd677a39d8b09dcd4ee4" target="_top" xlink:title="Checks whether QrDataResult is invalid or null, and performs cleanup if necessary.">
<polygon fill="white" stroke="#666666" points="326.75,-132 190,-132 190,-100 326.75,-100 326.75,-132"/>
<text text-anchor="start" x="198" y="-118.5" font-family="Helvetica,sans-Serif" font-size="10.00">fr.softsf.canscan.ui.QrCode</text>
<text text-anchor="middle" x="258.38" y="-106.5" font-family="Helvetica,sans-Serif" font-size="10.00">Resize.isInvalidQrData</text>
</a>
</g>
</g>
<!-- Node1&#45;&gt;Node2 -->
<g id="edge1_Node000001_Node000002" class="edge">
<title>Node1&#45;&gt;Node2</title>
<g id="a_edge1_Node000001_Node000002"><a xlink:title=" ">
<path fill="none" stroke="#63b8ff" d="M137.25,-100.03C150.56,-101.8 164.63,-103.67 178.27,-105.48"/>
<polygon fill="#63b8ff" stroke="#63b8ff" points="177.73,-108.94 188.1,-106.79 178.65,-102 177.73,-108.94"/>
</a>
</g>
</g>
<!-- Node3 -->
<g id="Node000003" class="node">
<title>Node3</title>
<g id="a_Node000003"><a xlink:href="classfr_1_1softsf_1_1canscan_1_1ui_1_1_qr_code_resize.html#a1093d8b446a9a20cb0d3a8275283a345" target="_top" xlink:title="Cancels any pending task, clears the current icon, starts the wait animation, and launches a new resi...">
<polygon fill="white" stroke="#666666" points="344,-82 172.75,-82 172.75,-50 344,-50 344,-82"/>
<text text-anchor="start" x="180.75" y="-68.5" font-family="Helvetica,sans-Serif" font-size="10.00">fr.softsf.canscan.ui.QrCode</text>
<text text-anchor="middle" x="258.38" y="-56.5" font-family="Helvetica,sans-Serif" font-size="10.00">Resize.resetAndStartResizeWorker</text>
</a>
</g>
</g>
<!-- Node1&#45;&gt;Node3 -->
<g id="edge2_Node000001_Node000003" class="edge">
<title>Node1&#45;&gt;Node3</title>
<g id="a_edge2_Node000001_Node000003"><a xlink:title=" ">
<path fill="none" stroke="#63b8ff" d="M137.25,-81.97C145.04,-80.94 153.09,-79.87 161.17,-78.79"/>
<polygon fill="#63b8ff" stroke="#63b8ff" points="161.62,-82.26 171.07,-77.48 160.7,-75.33 161.62,-82.26"/>
</a>
</g>
</g>
<!-- Node4 -->
<g id="Node000004" class="node">
<title>Node4</title>
<g id="a_Node000004"><a xlink:href="classfr_1_1softsf_1_1canscan_1_1ui_1_1_qr_code_resize.html#a8d6601bb69287724be51e8ffac0fc369" target="_top" xlink:title="Cancels any active resize worker and waits for proper termination.">
<polygon fill="white" stroke="#666666" points="558,-107 380,-107 380,-75 558,-75 558,-107"/>
<text text-anchor="start" x="388" y="-93.5" font-family="Helvetica,sans-Serif" font-size="10.00">fr.softsf.canscan.ui.QrCode</text>
<text text-anchor="middle" x="469" y="-81.5" font-family="Helvetica,sans-Serif" font-size="10.00">Resize.cancelPreviousResizeWorker</text>
</a>
</g>
</g>
<!-- Node3&#45;&gt;Node4 -->
<g id="edge3_Node000003_Node000004" class="edge">
<title>Node3&#45;&gt;Node4</title>
<g id="a_edge3_Node000003_Node000004"><a xlink:title=" ">
<path fill="none" stroke="#63b8ff" d="M344.23,-76.17C352.21,-77.12 360.34,-78.1 368.43,-79.07"/>
<polygon fill="#63b8ff" stroke="#63b8ff" points="367.98,-82.54 378.32,-80.25 368.81,-75.59 367.98,-82.54"/>
</a>
</g>
</g>
<!-- Node5 -->
<g id="Node000005" class="node">
<title>Node5</title>
<g id="a_Node000005"><a xlink:href="classfr_1_1softsf_1_1canscan_1_1ui_1_1_qr_code_resize.html#aadf6afa51d8b8667ff70777b0202d4af" target="_top" xlink:title="Launches a background worker that resizes the QR code image to the specified height.">
<polygon fill="white" stroke="#666666" points="538.88,-57 399.12,-57 399.12,-25 538.88,-25 538.88,-57"/>
<text text-anchor="start" x="407.12" y="-43.5" font-family="Helvetica,sans-Serif" font-size="10.00">fr.softsf.canscan.ui.QrCode</text>
<text text-anchor="middle" x="469" y="-31.5" font-family="Helvetica,sans-Serif" font-size="10.00">Resize.launchResizeWorker</text>
</a>
</g>
</g>
<!-- Node3&#45;&gt;Node5 -->
<g id="edge4_Node000003_Node000005" class="edge">
<title>Node3&#45;&gt;Node5</title>
<g id="a_edge4_Node000003_Node000005"><a xlink:title=" ">
<path fill="none" stroke="#63b8ff" d="M344.23,-55.83C358.56,-54.11 373.4,-52.34 387.61,-50.63"/>
<polygon fill="#63b8ff" stroke="#63b8ff" points="387.84,-54.13 397.35,-49.47 387.01,-47.18 387.84,-54.13"/>
</a>
</g>
</g>
<!-- Node6 -->
<g id="Node000006" class="node">
<title>Node6</title>
<g id="a_Node000006"><a xlink:href="classfr_1_1softsf_1_1canscan_1_1ui_1_1_qr_code_resize.html#a2141e795770aa1577397e33f990d356c" target="_top" xlink:title="Creates a SwingWorker to perform image resizing off the EDT and update the UI when the task completes...">
<polygon fill="white" stroke="#666666" points="732.25,-57 594,-57 594,-25 732.25,-25 732.25,-57"/>
<text text-anchor="start" x="602" y="-43.5" font-family="Helvetica,sans-Serif" font-size="10.00">fr.softsf.canscan.ui.QrCode</text>
<text text-anchor="middle" x="663.12" y="-31.5" font-family="Helvetica,sans-Serif" font-size="10.00">Resize.createResizeWorker</text>
</a>
</g>
</g>
<!-- Node5&#45;&gt;Node6 -->
<g id="edge5_Node000005_Node000006" class="edge">
<title>Node5&#45;&gt;Node6</title>
<g id="a_edge5_Node000005_Node000006"><a xlink:title=" ">
<path fill="none" stroke="#63b8ff" d="M539.36,-41C553.27,-41 567.99,-41 582.22,-41"/>
<polygon fill="#63b8ff" stroke="#63b8ff" points="582,-44.5 592,-41 582,-37.5 582,-44.5"/>
</a>
</g>
</g>
<!-- Node7 -->
<g id="Node000007" class="node">
<title>Node7</title>
<g id="a_Node000007"><a xlink:href="classfr_1_1softsf_1_1canscan_1_1ui_1_1_qr_code_resize.html#affac6f7db21e00ef84b3d804823c6b51" target="_top" xlink:title="Handles resize worker completion, ensuring that cancellation and stale worker checks are performed be...">
<polygon fill="white" stroke="#666666" points="957.5,-82 768.25,-82 768.25,-50 957.5,-50 957.5,-82"/>
<text text-anchor="start" x="776.25" y="-68.5" font-family="Helvetica,sans-Serif" font-size="10.00">fr.softsf.canscan.ui.QrCode</text>
<text text-anchor="middle" x="862.88" y="-56.5" font-family="Helvetica,sans-Serif" font-size="10.00">Resize.handleResizeWorkerCompletion</text>
</a>
</g>
</g>
<!-- Node6&#45;&gt;Node7 -->
<g id="edge6_Node000006_Node000007" class="edge">
<title>Node6&#45;&gt;Node7</title>
<g id="a_edge6_Node000006_Node000007"><a xlink:title=" ">
<path fill="none" stroke="#63b8ff" d="M732.73,-49.67C740.47,-50.65 748.47,-51.66 756.54,-52.68"/>
<polygon fill="#63b8ff" stroke="#63b8ff" points="756.09,-56.15 766.45,-53.94 756.97,-49.21 756.09,-56.15"/>
</a>
</g>
</g>
<!-- Node8 -->
<g id="Node000008" class="node">
<title>Node8</title>
<g id="a_Node000008"><a xlink:href="classfr_1_1softsf_1_1canscan_1_1ui_1_1_qr_code_resize.html#a9d652d45dd8f6c5a1715e7c19f27fad5" target="_top" xlink:title="Performs image resizing logic off the EDT.">
<polygon fill="white" stroke="#666666" points="944.38,-32 781.38,-32 781.38,0 944.38,0 944.38,-32"/>
<text text-anchor="start" x="789.38" y="-18.5" font-family="Helvetica,sans-Serif" font-size="10.00">fr.softsf.canscan.ui.QrCode</text>
<text text-anchor="middle" x="862.88" y="-6.5" font-family="Helvetica,sans-Serif" font-size="10.00">Resize.resizeImageInBackground</text>
</a>
</g>
</g>
<!-- Node6&#45;&gt;Node8 -->
<g id="edge7_Node000006_Node000008" class="edge">
<title>Node6&#45;&gt;Node8</title>
<g id="a_edge7_Node000006_Node000008"><a xlink:title=" ">
<path fill="none" stroke="#63b8ff" d="M732.73,-32.33C744.69,-30.81 757.3,-29.22 769.77,-27.64"/>
<polygon fill="#63b8ff" stroke="#63b8ff" points="770.17,-31.12 779.65,-26.39 769.29,-24.18 770.17,-31.12"/>
</a>
</g>
</g>
</g>
</svg>
