<?xml version="1.0" encoding="UTF-8" standalone="no"?>
<!DOCTYPE svg PUBLIC "-//W3C//DTD SVG 1.1//EN"
 "http://www.w3.org/Graphics/SVG/1.1/DTD/svg11.dtd">
<!-- Generated by graphviz version 12.2.1 (20241206.2353)
 -->
<!-- Title: fr.softsf.canscan.CanScan.main Pages: 1 -->
<svg width="981pt" height="387pt"
 viewBox="0.00 0.00 980.50 387.12" xmlns="http://www.w3.org/2000/svg" xmlns:xlink="http://www.w3.org/1999/xlink">
<g id="graph0" class="graph" transform="scale(1 1) rotate(0) translate(4 383.12)">
<title>fr.softsf.canscan.CanScan.main</title>
<!-- Node1 -->
<g id="Node000001" class="node">
<title>Node1</title>
<g id="a_Node000001"><a xlink:title="Application entry point.">
<polygon fill="#999999" stroke="#666666" points="157,-195.3 0,-195.3 0,-175.3 157,-175.3 157,-195.3"/>
<text text-anchor="middle" x="78.5" y="-181.8" font-family="Helvetica,sans-Serif" font-size="10.00">fr.softsf.canscan.CanScan.main</text>
</a>
</g>
</g>
<!-- Node2 -->
<g id="Node000002" class="node">
<title>Node2</title>
<g id="a_Node000002"><a xlink:href="classfr_1_1softsf_1_1canscan_1_1_can_scan.html#a102bcbc6cda608b642e870ba3fde6344" target="_top" xlink:title="Initializes the CanScan GUI.">
<polygon fill="white" stroke="#666666" points="329,-201.3 193,-201.3 193,-169.3 329,-169.3 329,-201.3"/>
<text text-anchor="start" x="201" y="-187.8" font-family="Helvetica,sans-Serif" font-size="10.00">fr.softsf.canscan.CanScan.</text>
<text text-anchor="middle" x="261" y="-175.8" font-family="Helvetica,sans-Serif" font-size="10.00">CanScan</text>
</a>
</g>
</g>
<!-- Node1&#45;&gt;Node2 -->
<g id="edge1_Node000001_Node000002" class="edge">
<title>Node1&#45;&gt;Node2</title>
<g id="a_edge1_Node000001_Node000002"><a xlink:title=" ">
<path fill="none" stroke="#63b8ff" d="M157.36,-185.3C165.24,-185.3 173.26,-185.3 181.15,-185.3"/>
<polygon fill="#63b8ff" stroke="#63b8ff" points="181.09,-188.8 191.09,-185.3 181.09,-181.8 181.09,-188.8"/>
</a>
</g>
</g>
<!-- Node2&#45;&gt;Node2 -->
<g id="edge2_Node000002_Node000002" class="edge">
<title>Node2&#45;&gt;Node2</title>
<g id="a_edge2_Node000002_Node000002"><a xlink:title=" ">
<path fill="none" stroke="#63b8ff" d="M228.42,-201.75C222.34,-210.89 233.2,-219.3 261,-219.3 276.2,-219.3 286.34,-216.79 291.41,-213.01"/>
<polygon fill="#63b8ff" stroke="#63b8ff" points="294.84,-213.71 293.3,-203.23 287.97,-212.39 294.84,-213.71"/>
</a>
</g>
</g>
<!-- Node3 -->
<g id="Node000003" class="node">
<title>Node3</title>
<g id="a_Node000003"><a xlink:href="classfr_1_1softsf_1_1canscan_1_1_can_scan.html#a2732ecdc4490a717352975e68fce494c" target="_top" xlink:title="Adds a labeled component row to a panel using GridBagLayout.">
<polygon fill="white" stroke="#666666" points="761.5,-339.3 589.5,-339.3 589.5,-319.3 761.5,-319.3 761.5,-339.3"/>
<text text-anchor="middle" x="675.5" y="-325.8" font-family="Helvetica,sans-Serif" font-size="10.00">fr.softsf.canscan.CanScan.addRow</text>
</a>
</g>
</g>
<!-- Node2&#45;&gt;Node3 -->
<g id="edge3_Node000002_Node000003" class="edge">
<title>Node2&#45;&gt;Node3</title>
<g id="a_edge3_Node000002_Node000003"><a xlink:title=" ">
<path fill="none" stroke="#63b8ff" d="M266.18,-201.73C276.21,-237.27 305.38,-320.82 365,-354.3 453.72,-404.13 579.86,-366.89 640.02,-343.89"/>
<polygon fill="#63b8ff" stroke="#63b8ff" points="641.02,-347.25 649.05,-340.34 638.46,-340.74 641.02,-347.25"/>
</a>
</g>
</g>
<!-- Node4 -->
<g id="Node000004" class="node">
<title>Node4</title>
<g id="a_Node000004"><a xlink:href="classfr_1_1softsf_1_1canscan_1_1_can_scan.html#ad77dc63cc1aac70e3833d39005d42f25" target="_top" xlink:title="Constructs the application window title using metadata from the version properties.">
<polygon fill="white" stroke="#666666" points="537.38,-69.3 381.12,-69.3 381.12,-37.3 537.38,-37.3 537.38,-69.3"/>
<text text-anchor="start" x="389.12" y="-55.8" font-family="Helvetica,sans-Serif" font-size="10.00">fr.softsf.canscan.CanScan.build</text>
<text text-anchor="middle" x="459.25" y="-43.8" font-family="Helvetica,sans-Serif" font-size="10.00">Title</text>
</a>
</g>
</g>
<!-- Node2&#45;&gt;Node4 -->
<g id="edge4_Node000002_Node000004" class="edge">
<title>Node2&#45;&gt;Node4</title>
<g id="a_edge4_Node000002_Node000004"><a xlink:title=" ">
<path fill="none" stroke="#63b8ff" d="M273.28,-168.85C290.35,-145.21 325.03,-101.89 365,-78.3 367.31,-76.94 369.7,-75.64 372.15,-74.42"/>
<polygon fill="#63b8ff" stroke="#63b8ff" points="373.42,-77.69 381.11,-70.39 370.55,-71.3 373.42,-77.69"/>
</a>
</g>
</g>
<!-- Node6 -->
<g id="Node000006" class="node">
<title>Node6</title>
<g id="a_Node000006"><a xlink:href="classfr_1_1softsf_1_1canscan_1_1_can_scan.html#a2d26dcd1ae708eae46dba8952351aa1a" target="_top" xlink:title="Builds and returns a QrInput object containing all current user inputs and settings.">
<polygon fill="white" stroke="#666666" points="750.25,-201.3 600.75,-201.3 600.75,-169.3 750.25,-169.3 750.25,-201.3"/>
<text text-anchor="start" x="608.75" y="-187.8" font-family="Helvetica,sans-Serif" font-size="10.00">fr.softsf.canscan.CanScan.get</text>
<text text-anchor="middle" x="675.5" y="-175.8" font-family="Helvetica,sans-Serif" font-size="10.00">QrInput</text>
</a>
</g>
</g>
<!-- Node2&#45;&gt;Node6 -->
<g id="edge7_Node000002_Node000006" class="edge">
<title>Node2&#45;&gt;Node6</title>
<g id="a_edge7_Node000002_Node000006"><a xlink:title=" ">
<path fill="none" stroke="#63b8ff" d="M329.19,-185.3C400.13,-185.3 512.14,-185.3 589.25,-185.3"/>
<polygon fill="#63b8ff" stroke="#63b8ff" points="588.85,-188.8 598.85,-185.3 588.85,-181.8 588.85,-188.8"/>
</a>
</g>
</g>
<!-- Node11 -->
<g id="Node000011" class="node">
<title>Node11</title>
<g id="a_Node000011"><a xlink:href="classfr_1_1softsf_1_1canscan_1_1_can_scan.html#addd7b7d7f9cc810756dbbb66218414d4" target="_top" xlink:title="Initializes the FREE mode input panel with a multiline text area for arbitrary text or URLs.">
<polygon fill="white" stroke="#666666" points="533.62,-345.3 384.88,-345.3 384.88,-313.3 533.62,-313.3 533.62,-345.3"/>
<text text-anchor="start" x="392.88" y="-331.8" font-family="Helvetica,sans-Serif" font-size="10.00">fr.softsf.canscan.CanScan.init</text>
<text text-anchor="middle" x="459.25" y="-319.8" font-family="Helvetica,sans-Serif" font-size="10.00">FreeCard</text>
</a>
</g>
</g>
<!-- Node2&#45;&gt;Node11 -->
<g id="edge12_Node000002_Node000011" class="edge">
<title>Node2&#45;&gt;Node11</title>
<g id="a_edge12_Node000002_Node000011"><a xlink:title=" ">
<path fill="none" stroke="#63b8ff" d="M271.49,-201.49C287.45,-227.27 322.16,-277.47 365,-304.3 367.96,-306.16 371.05,-307.87 374.24,-309.47"/>
<polygon fill="#63b8ff" stroke="#63b8ff" points="372.75,-312.63 383.31,-313.51 375.61,-306.24 372.75,-312.63"/>
</a>
</g>
</g>
<!-- Node12 -->
<g id="Node000012" class="node">
<title>Node12</title>
<g id="a_Node000012"><a xlink:href="classfr_1_1softsf_1_1canscan_1_1_can_scan.html#a4047170747f52f54ee69ddbc834c5373" target="_top" xlink:title="Sets up automatic QR code preview updates for all input fields and controls.">
<polygon fill="white" stroke="#666666" points="544.88,-245.3 373.62,-245.3 373.62,-213.3 544.88,-213.3 544.88,-245.3"/>
<text text-anchor="start" x="381.62" y="-231.8" font-family="Helvetica,sans-Serif" font-size="10.00">fr.softsf.canscan.CanScan.initialize</text>
<text text-anchor="middle" x="459.25" y="-219.8" font-family="Helvetica,sans-Serif" font-size="10.00">AutomaticQRCodeRendering</text>
</a>
</g>
</g>
<!-- Node2&#45;&gt;Node12 -->
<g id="edge14_Node000002_Node000012" class="edge">
<title>Node2&#45;&gt;Node12</title>
<g id="a_edge14_Node000002_Node000012"><a xlink:title=" ">
<path fill="none" stroke="#63b8ff" d="M329.26,-200.38C343.5,-203.58 358.7,-206.98 373.49,-210.3"/>
<polygon fill="#63b8ff" stroke="#63b8ff" points="372.69,-213.71 383.22,-212.48 374.22,-206.88 372.69,-213.71"/>
</a>
</g>
</g>
<!-- Node14 -->
<g id="Node000014" class="node">
<title>Node14</title>
<g id="a_Node000014"><a xlink:href="classfr_1_1softsf_1_1canscan_1_1_can_scan.html#ab78c47588f2cb82b4395a1268b3c4ca4" target="_top" xlink:title="Initializes the MECARD input panel with labeled text fields for structured contact information.">
<polygon fill="white" stroke="#666666" points="533.62,-295.3 384.88,-295.3 384.88,-263.3 533.62,-263.3 533.62,-295.3"/>
<text text-anchor="start" x="392.88" y="-281.8" font-family="Helvetica,sans-Serif" font-size="10.00">fr.softsf.canscan.CanScan.init</text>
<text text-anchor="middle" x="459.25" y="-269.8" font-family="Helvetica,sans-Serif" font-size="10.00">Mecard</text>
</a>
</g>
</g>
<!-- Node2&#45;&gt;Node14 -->
<g id="edge17_Node000002_Node000014" class="edge">
<title>Node2&#45;&gt;Node14</title>
<g id="a_edge17_Node000002_Node000014"><a xlink:title=" ">
<path fill="none" stroke="#63b8ff" d="M282.11,-201.72C302.06,-217.26 334.03,-240.25 365,-254.3 368.73,-256 372.6,-257.59 376.54,-259.1"/>
<polygon fill="#63b8ff" stroke="#63b8ff" points="375.1,-262.3 385.7,-262.36 377.45,-255.71 375.1,-262.3"/>
</a>
</g>
</g>
<!-- Node15 -->
<g id="Node000015" class="node">
<title>Node15</title>
<g id="a_Node000015"><a xlink:href="classfr_1_1softsf_1_1canscan_1_1_can_scan.html#abbe4fb71ad979d6affed0b2c9629b832" target="_top" xlink:title="Updates the tooltip of the ratio slider to reflect its current value as a percentage.">
<polygon fill="white" stroke="#666666" points="534,-119.3 384.5,-119.3 384.5,-87.3 534,-87.3 534,-119.3"/>
<text text-anchor="start" x="392.5" y="-105.8" font-family="Helvetica,sans-Serif" font-size="10.00">fr.softsf.canscan.CanScan.set</text>
<text text-anchor="middle" x="459.25" y="-93.8" font-family="Helvetica,sans-Serif" font-size="10.00">RatioSliderTooltipValue</text>
</a>
</g>
</g>
<!-- Node2&#45;&gt;Node15 -->
<g id="edge19_Node000002_Node000015" class="edge">
<title>Node2&#45;&gt;Node15</title>
<g id="a_edge19_Node000002_Node000015"><a xlink:title=" ">
<path fill="none" stroke="#63b8ff" d="M287.38,-168.96C307.72,-156.44 337.33,-139.47 365,-128.3 369.37,-126.54 373.91,-124.86 378.52,-123.27"/>
<polygon fill="#63b8ff" stroke="#63b8ff" points="379.52,-126.62 387.94,-120.19 377.35,-119.97 379.52,-126.62"/>
</a>
</g>
</g>
<!-- Node16 -->
<g id="Node000016" class="node">
<title>Node16</title>
<g id="a_Node000016"><a xlink:href="classfr_1_1softsf_1_1canscan_1_1_can_scan.html#a428c742b098fa27d4c8984c1030c238d" target="_top" xlink:title="Switches the application between MECARD and FREE QR code modes.">
<polygon fill="white" stroke="#666666" points="553.5,-157.3 365,-157.3 365,-137.3 553.5,-137.3 553.5,-157.3"/>
<text text-anchor="middle" x="459.25" y="-143.8" font-family="Helvetica,sans-Serif" font-size="10.00">fr.softsf.canscan.CanScan.switchMode</text>
</a>
</g>
</g>
<!-- Node2&#45;&gt;Node16 -->
<g id="edge20_Node000002_Node000016" class="edge">
<title>Node2&#45;&gt;Node16</title>
<g id="a_edge20_Node000002_Node000016"><a xlink:title=" ">
<path fill="none" stroke="#63b8ff" d="M329.26,-172.28C349.86,-168.29 372.48,-163.91 392.94,-159.95"/>
<polygon fill="#63b8ff" stroke="#63b8ff" points="393.42,-163.42 402.58,-158.08 392.09,-156.55 393.42,-163.42"/>
</a>
</g>
</g>
<!-- Node5 -->
<g id="Node000005" class="node">
<title>Node5</title>
<g id="a_Node000005"><a xlink:href="classfr_1_1softsf_1_1canscan_1_1_can_scan.html#aefe4d08d96fdc7b2097daf4033bbbb9c" target="_top" xlink:title="Loads application metadata from the version.properties file.">
<polygon fill="white" stroke="#666666" points="750.25,-47.3 600.75,-47.3 600.75,-15.3 750.25,-15.3 750.25,-47.3"/>
<text text-anchor="start" x="608.75" y="-33.8" font-family="Helvetica,sans-Serif" font-size="10.00">fr.softsf.canscan.CanScan.get</text>
<text text-anchor="middle" x="675.5" y="-21.8" font-family="Helvetica,sans-Serif" font-size="10.00">ManifestKeys</text>
</a>
</g>
</g>
<!-- Node4&#45;&gt;Node5 -->
<g id="edge5_Node000004_Node000005" class="edge">
<title>Node4&#45;&gt;Node5</title>
<g id="a_edge5_Node000004_Node000005"><a xlink:title=" ">
<path fill="none" stroke="#63b8ff" d="M537.6,-45.36C554.41,-43.63 572.29,-41.8 589.38,-40.04"/>
<polygon fill="#63b8ff" stroke="#63b8ff" points="589.39,-43.56 598.98,-39.06 588.68,-36.6 589.39,-43.56"/>
</a>
</g>
</g>
<!-- Node5&#45;&gt;Node2 -->
<g id="edge6_Node000005_Node000002" class="edge">
<title>Node5&#45;&gt;Node2</title>
<g id="a_edge6_Node000005_Node000002"><a xlink:title=" ">
<path fill="none" stroke="#63b8ff" d="M616.04,-14.81C550.65,0.19 443.61,14.14 365,-28.3 313.79,-55.95 283.91,-121.4 270.52,-158.47"/>
<polygon fill="#63b8ff" stroke="#63b8ff" points="267.34,-156.97 267.38,-167.56 273.95,-159.25 267.34,-156.97"/>
</a>
</g>
</g>
<!-- Node7 -->
<g id="Node000007" class="node">
<title>Node7</title>
<g id="a_Node000007"><a xlink:href="classfr_1_1softsf_1_1canscan_1_1_can_scan.html#a22606ca129489c778fbbe17cb8b70697" target="_top" xlink:title="Calculates the available height for QR code rendering.">
<polygon fill="white" stroke="#666666" points="972.5,-276.3 797.5,-276.3 797.5,-244.3 972.5,-244.3 972.5,-276.3"/>
<text text-anchor="start" x="805.5" y="-262.8" font-family="Helvetica,sans-Serif" font-size="10.00">fr.softsf.canscan.CanScan.calculate</text>
<text text-anchor="middle" x="885" y="-250.8" font-family="Helvetica,sans-Serif" font-size="10.00">AvailableQrHeight</text>
</a>
</g>
</g>
<!-- Node6&#45;&gt;Node7 -->
<g id="edge8_Node000006_Node000007" class="edge">
<title>Node6&#45;&gt;Node7</title>
<g id="a_edge8_Node000006_Node000007"><a xlink:title=" ">
<path fill="none" stroke="#63b8ff" d="M740.47,-201.68C747.69,-204.24 754.84,-207.12 761.5,-210.3 779.07,-218.72 779.91,-226.93 797.5,-235.3 800.82,-236.88 804.25,-238.38 807.76,-239.8"/>
<polygon fill="#63b8ff" stroke="#63b8ff" points="806.43,-243.04 817.03,-243.3 808.91,-236.49 806.43,-243.04"/>
</a>
</g>
</g>
<!-- Node8 -->
<g id="Node000008" class="node">
<title>Node8</title>
<g id="a_Node000008"><a xlink:href="classfr_1_1softsf_1_1canscan_1_1_can_scan.html#a4e67b1b5c764e72414a5c0f387810f5c" target="_top" xlink:title="Validates and returns the current QR code margin from the margin slider.">
<polygon fill="white" stroke="#666666" points="969.88,-226.3 800.12,-226.3 800.12,-194.3 969.88,-194.3 969.88,-226.3"/>
<text text-anchor="start" x="808.12" y="-212.8" font-family="Helvetica,sans-Serif" font-size="10.00">fr.softsf.canscan.CanScan.validate</text>
<text text-anchor="middle" x="885" y="-200.8" font-family="Helvetica,sans-Serif" font-size="10.00">AndGetMargin</text>
</a>
</g>
</g>
<!-- Node6&#45;&gt;Node8 -->
<g id="edge9_Node000006_Node000008" class="edge">
<title>Node6&#45;&gt;Node8</title>
<g id="a_edge9_Node000006_Node000008"><a xlink:title=" ">
<path fill="none" stroke="#63b8ff" d="M750.53,-194.22C762.87,-195.71 775.81,-197.27 788.59,-198.81"/>
<polygon fill="#63b8ff" stroke="#63b8ff" points="787.9,-202.25 798.25,-199.97 788.74,-195.3 787.9,-202.25"/>
</a>
</g>
</g>
<!-- Node9 -->
<g id="Node000009" class="node">
<title>Node9</title>
<g id="a_Node000009"><a xlink:href="classfr_1_1softsf_1_1canscan_1_1_can_scan.html#a9e8188875168199cde065113ae2a393d" target="_top" xlink:title="Validates and returns the current image&#45;to&#45;QR ratio from the ratio slider.">
<polygon fill="white" stroke="#666666" points="969.88,-176.3 800.12,-176.3 800.12,-144.3 969.88,-144.3 969.88,-176.3"/>
<text text-anchor="start" x="808.12" y="-162.8" font-family="Helvetica,sans-Serif" font-size="10.00">fr.softsf.canscan.CanScan.validate</text>
<text text-anchor="middle" x="885" y="-150.8" font-family="Helvetica,sans-Serif" font-size="10.00">AndGetRatio</text>
</a>
</g>
</g>
<!-- Node6&#45;&gt;Node9 -->
<g id="edge10_Node000006_Node000009" class="edge">
<title>Node6&#45;&gt;Node9</title>
<g id="a_edge10_Node000006_Node000009"><a xlink:title=" ">
<path fill="none" stroke="#63b8ff" d="M750.53,-176.38C762.87,-174.9 775.81,-173.34 788.59,-171.8"/>
<polygon fill="#63b8ff" stroke="#63b8ff" points="788.74,-175.31 798.25,-170.64 787.9,-168.36 788.74,-175.31"/>
</a>
</g>
</g>
<!-- Node10 -->
<g id="Node000010" class="node">
<title>Node10</title>
<g id="a_Node000010"><a xlink:href="classfr_1_1softsf_1_1canscan_1_1_can_scan.html#a6d139bb8d0a3c7081096c8956189b684" target="_top" xlink:title="Validates and returns the QR code size from the corresponding text field.">
<polygon fill="white" stroke="#666666" points="969.88,-126.3 800.12,-126.3 800.12,-94.3 969.88,-94.3 969.88,-126.3"/>
<text text-anchor="start" x="808.12" y="-112.8" font-family="Helvetica,sans-Serif" font-size="10.00">fr.softsf.canscan.CanScan.validate</text>
<text text-anchor="middle" x="885" y="-100.8" font-family="Helvetica,sans-Serif" font-size="10.00">AndGetSize</text>
</a>
</g>
</g>
<!-- Node6&#45;&gt;Node10 -->
<g id="edge11_Node000006_Node000010" class="edge">
<title>Node6&#45;&gt;Node10</title>
<g id="a_edge11_Node000006_Node000010"><a xlink:title=" ">
<path fill="none" stroke="#63b8ff" d="M740.47,-168.93C747.69,-166.36 754.84,-163.49 761.5,-160.3 779.07,-151.89 779.91,-143.67 797.5,-135.3 800.82,-133.72 804.25,-132.23 807.76,-130.8"/>
<polygon fill="#63b8ff" stroke="#63b8ff" points="808.91,-134.11 817.03,-127.31 806.43,-127.56 808.91,-134.11"/>
</a>
</g>
</g>
<!-- Node11&#45;&gt;Node3 -->
<g id="edge13_Node000011_Node000003" class="edge">
<title>Node11&#45;&gt;Node3</title>
<g id="a_edge13_Node000011_Node000003"><a xlink:title=" ">
<path fill="none" stroke="#63b8ff" d="M533.98,-329.3C548.16,-329.3 563.21,-329.3 577.98,-329.3"/>
<polygon fill="#63b8ff" stroke="#63b8ff" points="577.7,-332.8 587.7,-329.3 577.7,-325.8 577.7,-332.8"/>
</a>
</g>
</g>
<!-- Node12&#45;&gt;Node6 -->
<g id="edge15_Node000012_Node000006" class="edge">
<title>Node12&#45;&gt;Node6</title>
<g id="a_edge15_Node000012_Node000006"><a xlink:title=" ">
<path fill="none" stroke="#63b8ff" d="M540.33,-212.86C556.36,-209.56 573.26,-206.09 589.45,-202.77"/>
<polygon fill="#63b8ff" stroke="#63b8ff" points="589.96,-206.24 599.05,-200.8 588.55,-199.38 589.96,-206.24"/>
</a>
</g>
</g>
<!-- Node13 -->
<g id="Node000013" class="node">
<title>Node13</title>
<g id="a_Node000013"><a xlink:href="classfr_1_1softsf_1_1canscan_1_1_can_scan.html#a9856545d05ef553c8dfddd95a850a360" target="_top" xlink:title="Creates a minimal DocumentListener that executes the given action on any document change.">
<polygon fill="white" stroke="#666666" points="757.75,-251.3 593.25,-251.3 593.25,-219.3 757.75,-219.3 757.75,-251.3"/>
<text text-anchor="start" x="601.25" y="-237.8" font-family="Helvetica,sans-Serif" font-size="10.00">fr.softsf.canscan.CanScan.simple</text>
<text text-anchor="middle" x="675.5" y="-225.8" font-family="Helvetica,sans-Serif" font-size="10.00">DocumentListener</text>
</a>
</g>
</g>
<!-- Node12&#45;&gt;Node13 -->
<g id="edge16_Node000012_Node000013" class="edge">
<title>Node12&#45;&gt;Node13</title>
<g id="a_edge16_Node000012_Node000013"><a xlink:title=" ">
<path fill="none" stroke="#63b8ff" d="M545.23,-231.68C557.1,-232.02 569.34,-232.36 581.35,-232.69"/>
<polygon fill="#63b8ff" stroke="#63b8ff" points="581.16,-236.19 591.25,-232.97 581.35,-229.19 581.16,-236.19"/>
</a>
</g>
</g>
<!-- Node14&#45;&gt;Node3 -->
<g id="edge18_Node000014_Node000003" class="edge">
<title>Node14&#45;&gt;Node3</title>
<g id="a_edge18_Node000014_Node000003"><a xlink:title=" ">
<path fill="none" stroke="#63b8ff" d="M530.7,-295.74C559.19,-302.39 591.62,-309.96 618.47,-316.23"/>
<polygon fill="#63b8ff" stroke="#63b8ff" points="617.59,-319.62 628.13,-318.48 619.18,-312.8 617.59,-319.62"/>
</a>
</g>
</g>
<!-- Node16&#45;&gt;Node6 -->
<g id="edge21_Node000016_Node000006" class="edge">
<title>Node16&#45;&gt;Node6</title>
<g id="a_edge21_Node000016_Node000006"><a xlink:title=" ">
<path fill="none" stroke="#63b8ff" d="M519.36,-157.79C540.86,-161.6 565.62,-165.99 588.95,-170.13"/>
<polygon fill="#63b8ff" stroke="#63b8ff" points="588.32,-173.57 598.78,-171.87 589.54,-166.68 588.32,-173.57"/>
</a>
</g>
</g>
<!-- Node17 -->
<g id="Node000017" class="node">
<title>Node17</title>
<g id="a_Node000017"><a xlink:href="enumfr_1_1softsf_1_1canscan_1_1model_1_1_mode.html#a16a898a11ca939056bd7b275f11ea54c" target="_top" xlink:title="Returns the name of the mode as a string.">
<polygon fill="white" stroke="#666666" points="736.38,-151.3 614.62,-151.3 614.62,-119.3 736.38,-119.3 736.38,-151.3"/>
<text text-anchor="start" x="622.62" y="-137.8" font-family="Helvetica,sans-Serif" font-size="10.00">fr.softsf.canscan.model.</text>
<text text-anchor="middle" x="675.5" y="-125.8" font-family="Helvetica,sans-Serif" font-size="10.00">Mode.text</text>
</a>
</g>
</g>
<!-- Node16&#45;&gt;Node17 -->
<g id="edge22_Node000016_Node000017" class="edge">
<title>Node16&#45;&gt;Node17</title>
<g id="a_edge22_Node000016_Node000017"><a xlink:title=" ">
<path fill="none" stroke="#63b8ff" d="M553.91,-142.06C570.4,-141.13 587.33,-140.19 603.08,-139.3"/>
<polygon fill="#63b8ff" stroke="#63b8ff" points="603.03,-142.81 612.82,-138.76 602.64,-135.82 603.03,-142.81"/>
</a>
</g>
</g>
</g>
</svg>
