<?xml version="1.0" encoding="UTF-8" standalone="no"?>
<!DOCTYPE svg PUBLIC "-//W3C//DTD SVG 1.1//EN"
 "http://www.w3.org/Graphics/SVG/1.1/DTD/svg11.dtd">
<!-- Generated by graphviz version 12.2.1 (20241206.2353)
 -->
<!-- Title: fr.softsf.canscan.CanScan.main Pages: 1 -->
<svg width="1388pt" height="460pt"
 viewBox="0.00 0.00 1387.50 460.00" xmlns="http://www.w3.org/2000/svg" xmlns:xlink="http://www.w3.org/1999/xlink">
<g id="graph0" class="graph" transform="scale(1 1) rotate(0) translate(4 456)">
<title>fr.softsf.canscan.CanScan.main</title>
<!-- Node1 -->
<g id="Node000001" class="node">
<title>Node1</title>
<g id="a_Node000001"><a xlink:title="Application entry point.">
<polygon fill="#999999" stroke="#666666" points="157,-188 0,-188 0,-168 157,-168 157,-188"/>
<text text-anchor="middle" x="78.5" y="-174.5" font-family="Helvetica,sans-Serif" font-size="10.00">fr.softsf.canscan.CanScan.main</text>
</a>
</g>
</g>
<!-- Node2 -->
<g id="Node000002" class="node">
<title>Node2</title>
<g id="a_Node000002"><a xlink:href="classfr_1_1softsf_1_1canscan_1_1_can_scan.html#a102bcbc6cda608b642e870ba3fde6344" target="_top" xlink:title="Constructs the CanScan GUI, setting up layout, panels, inputs, and QR preview.">
<polygon fill="white" stroke="#666666" points="329,-194 193,-194 193,-162 329,-162 329,-194"/>
<text text-anchor="start" x="201" y="-180.5" font-family="Helvetica,sans-Serif" font-size="10.00">fr.softsf.canscan.CanScan.</text>
<text text-anchor="middle" x="261" y="-168.5" font-family="Helvetica,sans-Serif" font-size="10.00">CanScan</text>
</a>
</g>
</g>
<!-- Node1&#45;&gt;Node2 -->
<g id="edge1_Node000001_Node000002" class="edge">
<title>Node1&#45;&gt;Node2</title>
<g id="a_edge1_Node000001_Node000002"><a xlink:title=" ">
<path fill="none" stroke="#63b8ff" d="M157.36,-178C165.24,-178 173.26,-178 181.15,-178"/>
<polygon fill="#63b8ff" stroke="#63b8ff" points="181.09,-181.5 191.09,-178 181.09,-174.5 181.09,-181.5"/>
</a>
</g>
</g>
<!-- Node3 -->
<g id="Node000003" class="node">
<title>Node3</title>
<g id="a_Node000003"><a xlink:href="classfr_1_1softsf_1_1canscan_1_1_can_scan.html#a070115929fdc69b249d21866a00a47cc" target="_top" xlink:title="Assigns stable component names for testing and native&#45;image configuration.">
<polygon fill="white" stroke="#666666" points="536.25,-307 365,-307 365,-275 536.25,-275 536.25,-307"/>
<text text-anchor="start" x="373" y="-293.5" font-family="Helvetica,sans-Serif" font-size="10.00">fr.softsf.canscan.CanScan.initialize</text>
<text text-anchor="middle" x="450.62" y="-281.5" font-family="Helvetica,sans-Serif" font-size="10.00">ComponentNames</text>
</a>
</g>
</g>
<!-- Node2&#45;&gt;Node3 -->
<g id="edge2_Node000002_Node000003" class="edge">
<title>Node2&#45;&gt;Node3</title>
<g id="a_edge2_Node000002_Node000003"><a xlink:title=" ">
<path fill="none" stroke="#63b8ff" d="M278.55,-194.34C297.89,-212.67 331.52,-242.29 365,-261 371.07,-264.39 377.6,-267.51 384.24,-270.36"/>
<polygon fill="#63b8ff" stroke="#63b8ff" points="382.73,-273.52 393.31,-274.02 385.35,-267.03 382.73,-273.52"/>
</a>
</g>
</g>
<!-- Node4 -->
<g id="Node000004" class="node">
<title>Node4</title>
<g id="a_Node000004"><a xlink:href="classfr_1_1softsf_1_1canscan_1_1_can_scan.html#a14263ca931024d56cd9bed4af4b74c25" target="_top" xlink:title="Builds the main panel with header, QR preview overlay, and bottom spacer.">
<polygon fill="white" stroke="#666666" points="743.5,-408 572.25,-408 572.25,-376 743.5,-376 743.5,-408"/>
<text text-anchor="start" x="580.25" y="-394.5" font-family="Helvetica,sans-Serif" font-size="10.00">fr.softsf.canscan.CanScan.initialize</text>
<text text-anchor="middle" x="657.88" y="-382.5" font-family="Helvetica,sans-Serif" font-size="10.00">MainPanel</text>
</a>
</g>
</g>
<!-- Node2&#45;&gt;Node4 -->
<g id="edge3_Node000002_Node000004" class="edge">
<title>Node2&#45;&gt;Node4</title>
<g id="a_edge3_Node000002_Node000004"><a xlink:title=" ">
<path fill="none" stroke="#63b8ff" d="M290.97,-194.33C311.19,-205.15 339.1,-218.98 365,-228 438.62,-253.64 475.18,-217.54 536.25,-266 565.21,-288.98 547.37,-313.65 572.25,-341 582.73,-352.53 596.43,-362.3 609.75,-370.1"/>
<polygon fill="#63b8ff" stroke="#63b8ff" points="608.03,-373.15 618.47,-374.95 611.43,-367.03 608.03,-373.15"/>
</a>
</g>
</g>
<!-- Node11 -->
<g id="Node000011" class="node">
<title>Node11</title>
<g id="a_Node000011"><a xlink:href="classfr_1_1softsf_1_1canscan_1_1_can_scan.html#afb8d451dc5d6d9c7b6700e4b688c98a3" target="_top" xlink:title="Builds the north panel with mode selection, card panels, common fields, and generate button.">
<polygon fill="white" stroke="#666666" points="536.25,-219 365,-219 365,-187 536.25,-187 536.25,-219"/>
<text text-anchor="start" x="373" y="-205.5" font-family="Helvetica,sans-Serif" font-size="10.00">fr.softsf.canscan.CanScan.initialize</text>
<text text-anchor="middle" x="450.62" y="-193.5" font-family="Helvetica,sans-Serif" font-size="10.00">NorthPanel</text>
</a>
</g>
</g>
<!-- Node2&#45;&gt;Node11 -->
<g id="edge11_Node000002_Node000011" class="edge">
<title>Node2&#45;&gt;Node11</title>
<g id="a_edge11_Node000002_Node000011"><a xlink:title=" ">
<path fill="none" stroke="#63b8ff" d="M329.47,-186.99C337.26,-188.03 345.3,-189.1 353.37,-190.17"/>
<polygon fill="#63b8ff" stroke="#63b8ff" points="352.9,-193.64 363.27,-191.49 353.82,-186.7 352.9,-193.64"/>
</a>
</g>
</g>
<!-- Node27 -->
<g id="Node000027" class="node">
<title>Node27</title>
<g id="a_Node000027"><a xlink:href="classfr_1_1softsf_1_1canscan_1_1_can_scan.html#a4928478365bc812571ac037662cc5f6b" target="_top" xlink:title="Wraps the main panel in a scrollable container.">
<polygon fill="white" stroke="#666666" points="536.25,-169 365,-169 365,-137 536.25,-137 536.25,-169"/>
<text text-anchor="start" x="373" y="-155.5" font-family="Helvetica,sans-Serif" font-size="10.00">fr.softsf.canscan.CanScan.initialize</text>
<text text-anchor="middle" x="450.62" y="-143.5" font-family="Helvetica,sans-Serif" font-size="10.00">ScrollPane</text>
</a>
</g>
</g>
<!-- Node2&#45;&gt;Node27 -->
<g id="edge29_Node000002_Node000027" class="edge">
<title>Node2&#45;&gt;Node27</title>
<g id="a_edge29_Node000002_Node000027"><a xlink:title=" ">
<path fill="none" stroke="#63b8ff" d="M329.47,-169.01C337.26,-167.97 345.3,-166.9 353.37,-165.83"/>
<polygon fill="#63b8ff" stroke="#63b8ff" points="353.82,-169.3 363.27,-164.51 352.9,-162.36 353.82,-169.3"/>
</a>
</g>
</g>
<!-- Node28 -->
<g id="Node000028" class="node">
<title>Node28</title>
<g id="a_Node000028"><a xlink:href="classfr_1_1softsf_1_1canscan_1_1_can_scan.html#a358629f85831dc6cd4978c8854d88561" target="_top" xlink:title="Configures sliders for logo margin and ratio.">
<polygon fill="white" stroke="#666666" points="536.25,-119 365,-119 365,-87 536.25,-87 536.25,-119"/>
<text text-anchor="start" x="373" y="-105.5" font-family="Helvetica,sans-Serif" font-size="10.00">fr.softsf.canscan.CanScan.initialize</text>
<text text-anchor="middle" x="450.62" y="-93.5" font-family="Helvetica,sans-Serif" font-size="10.00">Sliders</text>
</a>
</g>
</g>
<!-- Node2&#45;&gt;Node28 -->
<g id="edge30_Node000002_Node000028" class="edge">
<title>Node2&#45;&gt;Node28</title>
<g id="a_edge30_Node000002_Node000028"><a xlink:title=" ">
<path fill="none" stroke="#63b8ff" d="M292.51,-161.55C312.7,-151.07 339.98,-137.69 365,-128 369.42,-126.29 374.01,-124.62 378.66,-123.02"/>
<polygon fill="#63b8ff" stroke="#63b8ff" points="379.74,-126.35 388.13,-119.88 377.54,-119.71 379.74,-126.35"/>
</a>
</g>
</g>
<!-- Node29 -->
<g id="Node000029" class="node">
<title>Node29</title>
<g id="a_Node000029"><a xlink:href="classfr_1_1softsf_1_1canscan_1_1_can_scan.html#a0a52159db640660477196e337ec62a9b" target="_top" xlink:title="Finalizes window layout: packs components, adjusts size for QR display and loader,...">
<polygon fill="white" stroke="#666666" points="536.25,-57 365,-57 365,-25 536.25,-25 536.25,-57"/>
<text text-anchor="start" x="373" y="-43.5" font-family="Helvetica,sans-Serif" font-size="10.00">fr.softsf.canscan.CanScan.initialize</text>
<text text-anchor="middle" x="450.62" y="-31.5" font-family="Helvetica,sans-Serif" font-size="10.00">Window</text>
</a>
</g>
</g>
<!-- Node2&#45;&gt;Node29 -->
<g id="edge31_Node000002_Node000029" class="edge">
<title>Node2&#45;&gt;Node29</title>
<g id="a_edge31_Node000002_Node000029"><a xlink:title=" ">
<path fill="none" stroke="#63b8ff" d="M275.53,-161.6C293.96,-140.12 328.79,-102.32 365,-78 373.89,-72.03 383.9,-66.65 393.85,-61.97"/>
<polygon fill="#63b8ff" stroke="#63b8ff" points="395.07,-65.26 402.76,-57.97 392.2,-58.88 395.07,-65.26"/>
</a>
</g>
</g>
<!-- Node5 -->
<g id="Node000005" class="node">
<title>Node5</title>
<g id="a_Node000005"><a xlink:href="classfr_1_1softsf_1_1canscan_1_1_can_scan.html#ad470e3c0750cf142dc611b1aeeda3a97" target="_top" xlink:title="Attaches automatic QR preview updates and input validation to all fields and controls.">
<polygon fill="white" stroke="#666666" points="972.5,-452 779.5,-452 779.5,-420 972.5,-420 972.5,-452"/>
<text text-anchor="start" x="787.5" y="-438.5" font-family="Helvetica,sans-Serif" font-size="10.00">fr.softsf.canscan.CanScan.automatic</text>
<text text-anchor="middle" x="876" y="-426.5" font-family="Helvetica,sans-Serif" font-size="10.00">QRCodeRenderingForFieldsAndControls</text>
</a>
</g>
</g>
<!-- Node4&#45;&gt;Node5 -->
<g id="edge4_Node000004_Node000005" class="edge">
<title>Node4&#45;&gt;Node5</title>
<g id="a_edge4_Node000004_Node000005"><a xlink:title=" ">
<path fill="none" stroke="#63b8ff" d="M739.66,-408.45C753.8,-411.33 768.61,-414.34 783.02,-417.27"/>
<polygon fill="#63b8ff" stroke="#63b8ff" points="781.97,-420.63 792.47,-419.2 783.37,-413.77 781.97,-420.63"/>
</a>
</g>
</g>
<!-- Node6 -->
<g id="Node000006" class="node">
<title>Node6</title>
<g id="a_Node000006"><a xlink:href="classfr_1_1softsf_1_1canscan_1_1_can_scan.html#a180290bc488e2346592ded98ccc4b1f3" target="_top" xlink:title="Collects current input and visual settings into a WholeFields for QR code generation.">
<polygon fill="white" stroke="#666666" points="1165.88,-264 1016.38,-264 1016.38,-232 1165.88,-232 1165.88,-264"/>
<text text-anchor="start" x="1024.38" y="-250.5" font-family="Helvetica,sans-Serif" font-size="10.00">fr.softsf.canscan.CanScan.get</text>
<text text-anchor="middle" x="1091.12" y="-238.5" font-family="Helvetica,sans-Serif" font-size="10.00">QrInput</text>
</a>
</g>
</g>
<!-- Node4&#45;&gt;Node6 -->
<g id="edge10_Node000004_Node000006" class="edge">
<title>Node4&#45;&gt;Node6</title>
<g id="a_edge10_Node000004_Node000006"><a xlink:title=" ">
<path fill="none" stroke="#63b8ff" d="M743.9,-403.28C809.46,-408.2 900.75,-406.62 972.5,-373 1018.32,-351.53 1055.11,-303.55 1074.68,-273.67"/>
<polygon fill="#63b8ff" stroke="#63b8ff" points="1077.42,-275.89 1079.84,-265.57 1071.52,-272.13 1077.42,-275.89"/>
</a>
</g>
</g>
<!-- Node5&#45;&gt;Node6 -->
<g id="edge5_Node000005_Node000006" class="edge">
<title>Node5&#45;&gt;Node6</title>
<g id="a_edge5_Node000005_Node000006"><a xlink:title=" ">
<path fill="none" stroke="#63b8ff" d="M947.25,-419.59C956.18,-415.91 964.85,-411.43 972.5,-406 1021.77,-371 1059.07,-309.03 1077.44,-274.01"/>
<polygon fill="#63b8ff" stroke="#63b8ff" points="1080.4,-275.9 1081.84,-265.41 1074.17,-272.72 1080.4,-275.9"/>
</a>
</g>
</g>
<!-- Node7 -->
<g id="Node000007" class="node">
<title>Node7</title>
<g id="a_Node000007"><a xlink:href="classfr_1_1softsf_1_1canscan_1_1_can_scan.html#a4e67b1b5c764e72414a5c0f387810f5c" target="_top" xlink:title="Validates and returns the current QR code margin from the margin slider.">
<polygon fill="white" stroke="#666666" points="1379.5,-353 1209.75,-353 1209.75,-321 1379.5,-321 1379.5,-353"/>
<text text-anchor="start" x="1217.75" y="-339.5" font-family="Helvetica,sans-Serif" font-size="10.00">fr.softsf.canscan.CanScan.validate</text>
<text text-anchor="middle" x="1294.62" y="-327.5" font-family="Helvetica,sans-Serif" font-size="10.00">AndGetMargin</text>
</a>
</g>
</g>
<!-- Node6&#45;&gt;Node7 -->
<g id="edge6_Node000006_Node000007" class="edge">
<title>Node6&#45;&gt;Node7</title>
<g id="a_edge6_Node000006_Node000007"><a xlink:title=" ">
<path fill="none" stroke="#63b8ff" d="M1118.43,-264.39C1141.77,-278.42 1177.12,-298.43 1209.75,-312 1213.82,-313.69 1218.04,-315.32 1222.33,-316.88"/>
<polygon fill="#63b8ff" stroke="#63b8ff" points="1221.05,-320.14 1231.64,-320.11 1223.34,-313.53 1221.05,-320.14"/>
</a>
</g>
</g>
<!-- Node8 -->
<g id="Node000008" class="node">
<title>Node8</title>
<g id="a_Node000008"><a xlink:href="classfr_1_1softsf_1_1canscan_1_1_can_scan.html#a8a2b238ac4af96d8710b3e5d7d051f77" target="_top" xlink:title="Validates and returns the current meet UID from the meet title field.">
<polygon fill="white" stroke="#666666" points="1379.5,-303 1209.75,-303 1209.75,-271 1379.5,-271 1379.5,-303"/>
<text text-anchor="start" x="1217.75" y="-289.5" font-family="Helvetica,sans-Serif" font-size="10.00">fr.softsf.canscan.CanScan.validate</text>
<text text-anchor="middle" x="1294.62" y="-277.5" font-family="Helvetica,sans-Serif" font-size="10.00">AndGetMeetUID</text>
</a>
</g>
</g>
<!-- Node6&#45;&gt;Node8 -->
<g id="edge7_Node000006_Node000008" class="edge">
<title>Node6&#45;&gt;Node8</title>
<g id="a_edge7_Node000006_Node000008"><a xlink:title=" ">
<path fill="none" stroke="#63b8ff" d="M1166.3,-262.36C1176.71,-264.37 1187.53,-266.46 1198.26,-268.54"/>
<polygon fill="#63b8ff" stroke="#63b8ff" points="1197.43,-271.95 1207.92,-270.41 1198.76,-265.07 1197.43,-271.95"/>
</a>
</g>
</g>
<!-- Node9 -->
<g id="Node000009" class="node">
<title>Node9</title>
<g id="a_Node000009"><a xlink:href="classfr_1_1softsf_1_1canscan_1_1_can_scan.html#a9e8188875168199cde065113ae2a393d" target="_top" xlink:title="Validates and returns the current image&#45;to&#45;QR ratio from the ratio slider.">
<polygon fill="white" stroke="#666666" points="1379.5,-253 1209.75,-253 1209.75,-221 1379.5,-221 1379.5,-253"/>
<text text-anchor="start" x="1217.75" y="-239.5" font-family="Helvetica,sans-Serif" font-size="10.00">fr.softsf.canscan.CanScan.validate</text>
<text text-anchor="middle" x="1294.62" y="-227.5" font-family="Helvetica,sans-Serif" font-size="10.00">AndGetRatio</text>
</a>
</g>
</g>
<!-- Node6&#45;&gt;Node9 -->
<g id="edge8_Node000006_Node000009" class="edge">
<title>Node6&#45;&gt;Node9</title>
<g id="a_edge8_Node000006_Node000009"><a xlink:title=" ">
<path fill="none" stroke="#63b8ff" d="M1166.3,-243.95C1176.6,-243.39 1187.3,-242.8 1197.92,-242.22"/>
<polygon fill="#63b8ff" stroke="#63b8ff" points="1198.1,-245.72 1207.89,-241.68 1197.71,-238.73 1198.1,-245.72"/>
</a>
</g>
</g>
<!-- Node10 -->
<g id="Node000010" class="node">
<title>Node10</title>
<g id="a_Node000010"><a xlink:href="classfr_1_1softsf_1_1canscan_1_1_can_scan.html#a6d139bb8d0a3c7081096c8956189b684" target="_top" xlink:title="Validates and returns the QR code size from the corresponding text field.">
<polygon fill="white" stroke="#666666" points="1379.5,-203 1209.75,-203 1209.75,-171 1379.5,-171 1379.5,-203"/>
<text text-anchor="start" x="1217.75" y="-189.5" font-family="Helvetica,sans-Serif" font-size="10.00">fr.softsf.canscan.CanScan.validate</text>
<text text-anchor="middle" x="1294.62" y="-177.5" font-family="Helvetica,sans-Serif" font-size="10.00">AndGetSize</text>
</a>
</g>
</g>
<!-- Node6&#45;&gt;Node10 -->
<g id="edge9_Node000006_Node000010" class="edge">
<title>Node6&#45;&gt;Node10</title>
<g id="a_edge9_Node000006_Node000010"><a xlink:title=" ">
<path fill="none" stroke="#63b8ff" d="M1145.68,-231.52C1165.76,-225.36 1188.8,-218.33 1209.75,-212 1215.48,-210.27 1221.43,-208.48 1227.4,-206.69"/>
<polygon fill="#63b8ff" stroke="#63b8ff" points="1228.09,-210.14 1236.66,-203.92 1226.08,-203.43 1228.09,-210.14"/>
</a>
</g>
</g>
<!-- Node12 -->
<g id="Node000012" class="node">
<title>Node12</title>
<g id="a_Node000012"><a xlink:href="classfr_1_1softsf_1_1canscan_1_1_can_scan.html#ab2e018ca62c7497c29e84f42ae870daa" target="_top" xlink:title="Adds MECARD MEET FREE card panels to the north panel.">
<polygon fill="white" stroke="#666666" points="733.75,-332 582,-332 582,-300 733.75,-300 733.75,-332"/>
<text text-anchor="start" x="590" y="-318.5" font-family="Helvetica,sans-Serif" font-size="10.00">fr.softsf.canscan.CanScan.add</text>
<text text-anchor="middle" x="657.88" y="-306.5" font-family="Helvetica,sans-Serif" font-size="10.00">NorthPanelCardPanels</text>
</a>
</g>
</g>
<!-- Node11&#45;&gt;Node12 -->
<g id="edge12_Node000011_Node000012" class="edge">
<title>Node11&#45;&gt;Node12</title>
<g id="a_edge12_Node000011_Node000012"><a xlink:title=" ">
<path fill="none" stroke="#63b8ff" d="M513.86,-219.5C521.86,-223.17 529.57,-227.62 536.25,-233 559.88,-252.03 548.12,-272.61 572.25,-291 573.58,-292.02 574.96,-292.99 576.36,-293.93"/>
<polygon fill="#63b8ff" stroke="#63b8ff" points="574.38,-296.82 584.79,-298.78 577.87,-290.76 574.38,-296.82"/>
</a>
</g>
</g>
<!-- Node16 -->
<g id="Node000016" class="node">
<title>Node16</title>
<g id="a_Node000016"><a xlink:href="classfr_1_1softsf_1_1canscan_1_1_can_scan.html#a94ab4df98de0d05977e6a65ab75f89f0" target="_top" xlink:title="Adds common input fields to the north panel.">
<polygon fill="white" stroke="#666666" points="733.75,-282 582,-282 582,-250 733.75,-250 733.75,-282"/>
<text text-anchor="start" x="590" y="-268.5" font-family="Helvetica,sans-Serif" font-size="10.00">fr.softsf.canscan.CanScan.add</text>
<text text-anchor="middle" x="657.88" y="-256.5" font-family="Helvetica,sans-Serif" font-size="10.00">NorthPanelCommonFields</text>
</a>
</g>
</g>
<!-- Node11&#45;&gt;Node16 -->
<g id="edge16_Node000011_Node000016" class="edge">
<title>Node11&#45;&gt;Node16</title>
<g id="a_edge16_Node000011_Node000016"><a xlink:title=" ">
<path fill="none" stroke="#63b8ff" d="M503.22,-219.48C524.56,-226.23 549.57,-234.08 572.25,-241 578.02,-242.76 584.02,-244.57 590.03,-246.37"/>
<polygon fill="#63b8ff" stroke="#63b8ff" points="588.81,-249.66 599.39,-249.17 590.81,-242.95 588.81,-249.66"/>
</a>
</g>
</g>
<!-- Node18 -->
<g id="Node000018" class="node">
<title>Node18</title>
<g id="a_Node000018"><a xlink:href="classfr_1_1softsf_1_1canscan_1_1_can_scan.html#a9f205dfdb266d5d7f8f8899b69742663" target="_top" xlink:title="Adds the generate button to the north panel.">
<polygon fill="white" stroke="#666666" points="733.75,-232 582,-232 582,-200 733.75,-200 733.75,-232"/>
<text text-anchor="start" x="590" y="-218.5" font-family="Helvetica,sans-Serif" font-size="10.00">fr.softsf.canscan.CanScan.add</text>
<text text-anchor="middle" x="657.88" y="-206.5" font-family="Helvetica,sans-Serif" font-size="10.00">NorthPanelGenerateButton</text>
</a>
</g>
</g>
<!-- Node11&#45;&gt;Node18 -->
<g id="edge19_Node000011_Node000018" class="edge">
<title>Node11&#45;&gt;Node18</title>
<g id="a_edge19_Node000011_Node000018"><a xlink:title=" ">
<path fill="none" stroke="#63b8ff" d="M536.59,-208.38C547.84,-209.09 559.38,-209.82 570.65,-210.54"/>
<polygon fill="#63b8ff" stroke="#63b8ff" points="570.1,-214.01 580.3,-211.15 570.54,-207.02 570.1,-214.01"/>
</a>
</g>
</g>
<!-- Node19 -->
<g id="Node000019" class="node">
<title>Node19</title>
<g id="a_Node000019"><a xlink:href="classfr_1_1softsf_1_1canscan_1_1_can_scan.html#aa469763b92dd7cbc6dfdb9aaa0116b33" target="_top" xlink:title="Adds mode selection controls (MECARD/MEET/FREE) to the north panel.">
<polygon fill="white" stroke="#666666" points="733.75,-182 582,-182 582,-150 733.75,-150 733.75,-182"/>
<text text-anchor="start" x="590" y="-168.5" font-family="Helvetica,sans-Serif" font-size="10.00">fr.softsf.canscan.CanScan.add</text>
<text text-anchor="middle" x="657.88" y="-156.5" font-family="Helvetica,sans-Serif" font-size="10.00">NorthPanelModeSelection</text>
</a>
</g>
</g>
<!-- Node11&#45;&gt;Node19 -->
<g id="edge20_Node000011_Node000019" class="edge">
<title>Node11&#45;&gt;Node19</title>
<g id="a_edge20_Node000011_Node000019"><a xlink:title=" ">
<path fill="none" stroke="#63b8ff" d="M536.59,-187.68C547.84,-185.66 559.38,-183.58 570.65,-181.54"/>
<polygon fill="#63b8ff" stroke="#63b8ff" points="571.1,-185.02 580.32,-179.8 569.86,-178.13 571.1,-185.02"/>
</a>
</g>
</g>
<!-- Node25 -->
<g id="Node000025" class="node">
<title>Node25</title>
<g id="a_Node000025"><a xlink:href="classfr_1_1softsf_1_1canscan_1_1_can_scan.html#ada8edc3d5abda489ce9f75a0613cfc71" target="_top" xlink:title="Creates the base north panel with layout, maximum width, and padding applied.">
<polygon fill="white" stroke="#666666" points="732.62,-132 583.12,-132 583.12,-100 732.62,-100 732.62,-132"/>
<text text-anchor="start" x="591.12" y="-118.5" font-family="Helvetica,sans-Serif" font-size="10.00">fr.softsf.canscan.CanScan.get</text>
<text text-anchor="middle" x="657.88" y="-106.5" font-family="Helvetica,sans-Serif" font-size="10.00">NorthJPanel</text>
</a>
</g>
</g>
<!-- Node11&#45;&gt;Node25 -->
<g id="edge27_Node000011_Node000025" class="edge">
<title>Node11&#45;&gt;Node25</title>
<g id="a_edge27_Node000011_Node000025"><a xlink:title=" ">
<path fill="none" stroke="#63b8ff" d="M519.06,-186.59C525.05,-184.09 530.87,-181.25 536.25,-178 555.89,-166.14 552.61,-152.86 572.25,-141 574.43,-139.68 576.69,-138.43 579.01,-137.24"/>
<polygon fill="#63b8ff" stroke="#63b8ff" points="580.46,-140.42 588.07,-133.05 577.52,-134.07 580.46,-140.42"/>
</a>
</g>
</g>
<!-- Node26 -->
<g id="Node000026" class="node">
<title>Node26</title>
<g id="a_Node000026"><a xlink:href="classfr_1_1softsf_1_1canscan_1_1_can_scan.html#aeb5550da33925e95999aae23f525f7c5" target="_top" xlink:title="Creates default GridBagConstraints for consistent layout configuration.">
<polygon fill="white" stroke="#666666" points="736.75,-82 579,-82 579,-50 736.75,-50 736.75,-82"/>
<text text-anchor="start" x="587" y="-68.5" font-family="Helvetica,sans-Serif" font-size="10.00">fr.softsf.canscan.CanScan.north</text>
<text text-anchor="middle" x="657.88" y="-56.5" font-family="Helvetica,sans-Serif" font-size="10.00">PanelGridBagConstraints</text>
</a>
</g>
</g>
<!-- Node11&#45;&gt;Node26 -->
<g id="edge28_Node000011_Node000026" class="edge">
<title>Node11&#45;&gt;Node26</title>
<g id="a_edge28_Node000011_Node000026"><a xlink:title=" ">
<path fill="none" stroke="#63b8ff" d="M524.24,-186.61C528.55,-184.13 532.61,-181.28 536.25,-178 567.35,-150.01 541.15,-118.99 572.25,-91 573.16,-90.18 574.1,-89.39 575.06,-88.62"/>
<polygon fill="#63b8ff" stroke="#63b8ff" points="576.68,-91.75 583,-83.24 572.76,-85.95 576.68,-91.75"/>
</a>
</g>
</g>
<!-- Node13 -->
<g id="Node000013" class="node">
<title>Node13</title>
<g id="a_Node000013"><a xlink:href="classfr_1_1softsf_1_1canscan_1_1_can_scan.html#a38d65dd319daee1c3288690c17e43ca5" target="_top" xlink:title="Populates the FREE panel with a multiline text area.">
<polygon fill="white" stroke="#666666" points="962.75,-364 789.25,-364 789.25,-344 962.75,-344 962.75,-364"/>
<text text-anchor="middle" x="876" y="-350.5" font-family="Helvetica,sans-Serif" font-size="10.00">fr.softsf.canscan.CanScan.freeCard</text>
</a>
</g>
</g>
<!-- Node12&#45;&gt;Node13 -->
<g id="edge13_Node000012_Node000013" class="edge">
<title>Node12&#45;&gt;Node13</title>
<g id="a_edge13_Node000012_Node000013"><a xlink:title=" ">
<path fill="none" stroke="#63b8ff" d="M734.16,-329.24C756.88,-333.23 781.73,-337.6 804.15,-341.54"/>
<polygon fill="#63b8ff" stroke="#63b8ff" points="803.34,-344.95 813.8,-343.24 804.55,-338.06 803.34,-344.95"/>
</a>
</g>
</g>
<!-- Node14 -->
<g id="Node000014" class="node">
<title>Node14</title>
<g id="a_Node000014"><a xlink:href="classfr_1_1softsf_1_1canscan_1_1_can_scan.html#aed7e3048974882318a6519d8d36e8ec0" target="_top" xlink:title="Populates the MECARD panel with contact fields.">
<polygon fill="white" stroke="#666666" points="960.12,-326 791.88,-326 791.88,-306 960.12,-306 960.12,-326"/>
<text text-anchor="middle" x="876" y="-312.5" font-family="Helvetica,sans-Serif" font-size="10.00">fr.softsf.canscan.CanScan.mecard</text>
</a>
</g>
</g>
<!-- Node12&#45;&gt;Node14 -->
<g id="edge14_Node000012_Node000014" class="edge">
<title>Node12&#45;&gt;Node14</title>
<g id="a_edge14_Node000012_Node000014"><a xlink:title=" ">
<path fill="none" stroke="#63b8ff" d="M734.16,-316C749.06,-316 764.88,-316 780.33,-316"/>
<polygon fill="#63b8ff" stroke="#63b8ff" points="779.98,-319.5 789.98,-316 779.98,-312.5 779.98,-319.5"/>
</a>
</g>
</g>
<!-- Node15 -->
<g id="Node000015" class="node">
<title>Node15</title>
<g id="a_Node000015"><a xlink:href="classfr_1_1softsf_1_1canscan_1_1_can_scan.html#aa211e37381e1a96b368390e86cddb879" target="_top" xlink:title="Populates the MEET panel with meet fields.">
<polygon fill="white" stroke="#666666" points="965.38,-288 786.62,-288 786.62,-268 965.38,-268 965.38,-288"/>
<text text-anchor="middle" x="876" y="-274.5" font-family="Helvetica,sans-Serif" font-size="10.00">fr.softsf.canscan.CanScan.meetCard</text>
</a>
</g>
</g>
<!-- Node12&#45;&gt;Node15 -->
<g id="edge15_Node000012_Node000015" class="edge">
<title>Node12&#45;&gt;Node15</title>
<g id="a_edge15_Node000012_Node000015"><a xlink:title=" ">
<path fill="none" stroke="#63b8ff" d="M734.16,-302.76C756.88,-298.77 781.73,-294.4 804.15,-290.46"/>
<polygon fill="#63b8ff" stroke="#63b8ff" points="804.55,-293.94 813.8,-288.76 803.34,-287.05 804.55,-293.94"/>
</a>
</g>
</g>
<!-- Node17 -->
<g id="Node000017" class="node">
<title>Node17</title>
<g id="a_Node000017"><a xlink:href="classfr_1_1softsf_1_1canscan_1_1_can_scan.html#a17b0a72ab305f98f86591411b6a352f2" target="_top" xlink:title="Creates the color selection panel for QR code and background colors.">
<polygon fill="white" stroke="#666666" points="954.5,-250 797.5,-250 797.5,-218 954.5,-218 954.5,-250"/>
<text text-anchor="start" x="805.5" y="-236.5" font-family="Helvetica,sans-Serif" font-size="10.00">fr.softsf.canscan.CanScan.color</text>
<text text-anchor="middle" x="876" y="-224.5" font-family="Helvetica,sans-Serif" font-size="10.00">Panel</text>
</a>
</g>
</g>
<!-- Node16&#45;&gt;Node17 -->
<g id="edge17_Node000016_Node000017" class="edge">
<title>Node16&#45;&gt;Node17</title>
<g id="a_edge17_Node000016_Node000017"><a xlink:title=" ">
<path fill="none" stroke="#63b8ff" d="M734.16,-254.85C750.85,-252.38 768.69,-249.74 785.87,-247.2"/>
<polygon fill="#63b8ff" stroke="#63b8ff" points="786.17,-250.69 795.55,-245.76 785.15,-243.77 786.17,-250.69"/>
</a>
</g>
</g>
<!-- Node17&#45;&gt;Node6 -->
<g id="edge18_Node000017_Node000006" class="edge">
<title>Node17&#45;&gt;Node6</title>
<g id="a_edge18_Node000017_Node000006"><a xlink:title=" ">
<path fill="none" stroke="#63b8ff" d="M954.85,-239.11C971.08,-240.18 988.27,-241.31 1004.76,-242.39"/>
<polygon fill="#63b8ff" stroke="#63b8ff" points="1004.32,-245.87 1014.53,-243.03 1004.78,-238.89 1004.32,-245.87"/>
</a>
</g>
</g>
<!-- Node20 -->
<g id="Node000020" class="node">
<title>Node20</title>
<g id="a_Node000020"><a xlink:href="classfr_1_1softsf_1_1canscan_1_1_can_scan.html#a381579d3adc53b1122b38e7fda5c0235" target="_top" xlink:title="Configures the update button for version checking.">
<polygon fill="white" stroke="#666666" points="963.88,-200 788.12,-200 788.12,-168 963.88,-168 963.88,-200"/>
<text text-anchor="start" x="796.12" y="-186.5" font-family="Helvetica,sans-Serif" font-size="10.00">fr.softsf.canscan.CanScan.configure</text>
<text text-anchor="middle" x="876" y="-174.5" font-family="Helvetica,sans-Serif" font-size="10.00">UpdateButton</text>
</a>
</g>
</g>
<!-- Node19&#45;&gt;Node20 -->
<g id="edge21_Node000019_Node000020" class="edge">
<title>Node19&#45;&gt;Node20</title>
<g id="a_edge21_Node000019_Node000020"><a xlink:title=" ">
<path fill="none" stroke="#63b8ff" d="M734.16,-172.27C747.81,-173.41 762.23,-174.61 776.43,-175.79"/>
<polygon fill="#63b8ff" stroke="#63b8ff" points="775.99,-179.27 786.25,-176.61 776.57,-172.29 775.99,-179.27"/>
</a>
</g>
</g>
<!-- Node21 -->
<g id="Node000021" class="node">
<title>Node21</title>
<g id="a_Node000021"><a xlink:href="classfr_1_1softsf_1_1canscan_1_1_can_scan.html#a428c742b098fa27d4c8984c1030c238d" target="_top" xlink:title="Switches between MECARD, MEET, and FREE modes, updating the panel and QR preview.">
<polygon fill="white" stroke="#666666" points="970.25,-150 781.75,-150 781.75,-130 970.25,-130 970.25,-150"/>
<text text-anchor="middle" x="876" y="-136.5" font-family="Helvetica,sans-Serif" font-size="10.00">fr.softsf.canscan.CanScan.switchMode</text>
</a>
</g>
</g>
<!-- Node19&#45;&gt;Node21 -->
<g id="edge22_Node000019_Node000021" class="edge">
<title>Node19&#45;&gt;Node21</title>
<g id="a_edge22_Node000019_Node000021"><a xlink:title=" ">
<path fill="none" stroke="#63b8ff" d="M734.16,-156.94C747.81,-155.3 762.23,-153.57 776.43,-151.86"/>
<polygon fill="#63b8ff" stroke="#63b8ff" points="776.74,-155.35 786.25,-150.68 775.91,-148.4 776.74,-155.35"/>
</a>
</g>
</g>
<!-- Node21&#45;&gt;Node6 -->
<g id="edge23_Node000021_Node000006" class="edge">
<title>Node21&#45;&gt;Node6</title>
<g id="a_edge23_Node000021_Node000006"><a xlink:title=" ">
<path fill="none" stroke="#63b8ff" d="M953.77,-150.46C960.32,-152.77 966.66,-155.59 972.5,-159 993.72,-171.41 989.57,-185.31 1008.5,-201 1019.82,-210.39 1033.27,-218.98 1045.94,-226.18"/>
<polygon fill="#63b8ff" stroke="#63b8ff" points="1044.11,-229.17 1054.56,-230.91 1047.48,-223.03 1044.11,-229.17"/>
</a>
</g>
</g>
<!-- Node22 -->
<g id="Node000022" class="node">
<title>Node22</title>
<g id="a_Node000022"><a xlink:href="enumfr_1_1softsf_1_1canscan_1_1model_1_1_mode.html#a16a898a11ca939056bd7b275f11ea54c" target="_top" xlink:title="Returns the mode label.">
<polygon fill="white" stroke="#666666" points="1152,-192 1030.25,-192 1030.25,-160 1152,-160 1152,-192"/>
<text text-anchor="start" x="1038.25" y="-178.5" font-family="Helvetica,sans-Serif" font-size="10.00">fr.softsf.canscan.model.</text>
<text text-anchor="middle" x="1091.12" y="-166.5" font-family="Helvetica,sans-Serif" font-size="10.00">Mode.text</text>
</a>
</g>
</g>
<!-- Node21&#45;&gt;Node22 -->
<g id="edge24_Node000021_Node000022" class="edge">
<title>Node21&#45;&gt;Node22</title>
<g id="a_edge24_Node000021_Node000022"><a xlink:title=" ">
<path fill="none" stroke="#63b8ff" d="M938.93,-150.46C963.88,-154.67 992.8,-159.56 1018.64,-163.92"/>
<polygon fill="#63b8ff" stroke="#63b8ff" points="1017.94,-167.36 1028.38,-165.57 1019.11,-160.45 1017.94,-167.36"/>
</a>
</g>
</g>
<!-- Node23 -->
<g id="Node000023" class="node">
<title>Node23</title>
<g id="a_Node000023"><a xlink:href="classfr_1_1softsf_1_1canscan_1_1_can_scan.html#a11fd9295c4843e6e68f9d1e4a710b906" target="_top" xlink:title="Enables or disables the &quot;Generate&quot; button based on required fields for the current mode.">
<polygon fill="white" stroke="#666666" points="1173.75,-142 1008.5,-142 1008.5,-110 1173.75,-110 1173.75,-142"/>
<text text-anchor="start" x="1016.5" y="-128.5" font-family="Helvetica,sans-Serif" font-size="10.00">fr.softsf.canscan.CanScan.update</text>
<text text-anchor="middle" x="1091.12" y="-116.5" font-family="Helvetica,sans-Serif" font-size="10.00">GenerateButtonState</text>
</a>
</g>
</g>
<!-- Node21&#45;&gt;Node23 -->
<g id="edge25_Node000021_Node000023" class="edge">
<title>Node21&#45;&gt;Node23</title>
<g id="a_edge25_Node000021_Node000023"><a xlink:title=" ">
<path fill="none" stroke="#63b8ff" d="M970.48,-133.86C979.19,-133.29 988.02,-132.71 996.73,-132.14"/>
<polygon fill="#63b8ff" stroke="#63b8ff" points="996.83,-135.64 1006.58,-131.49 996.37,-128.65 996.83,-135.64"/>
</a>
</g>
</g>
<!-- Node24 -->
<g id="Node000024" class="node">
<title>Node24</title>
<g id="a_Node000024"><a xlink:href="classfr_1_1softsf_1_1canscan_1_1_can_scan.html#a3ce6e8b8bd62f20e8e8b9a744976c695" target="_top" xlink:title="Determines whether the &quot;Generate&quot; button should be disabled for the current mode.">
<polygon fill="white" stroke="#666666" points="1376.88,-142 1212.38,-142 1212.38,-110 1376.88,-110 1376.88,-142"/>
<text text-anchor="start" x="1220.38" y="-128.5" font-family="Helvetica,sans-Serif" font-size="10.00">fr.softsf.canscan.CanScan.should</text>
<text text-anchor="middle" x="1294.62" y="-116.5" font-family="Helvetica,sans-Serif" font-size="10.00">DisableGenerateButton</text>
</a>
</g>
</g>
<!-- Node23&#45;&gt;Node24 -->
<g id="edge26_Node000023_Node000024" class="edge">
<title>Node23&#45;&gt;Node24</title>
<g id="a_edge26_Node000023_Node000024"><a xlink:title=" ">
<path fill="none" stroke="#63b8ff" d="M1174.08,-126C1182.89,-126 1191.9,-126 1200.83,-126"/>
<polygon fill="#63b8ff" stroke="#63b8ff" points="1200.55,-129.5 1210.55,-126 1200.55,-122.5 1200.55,-129.5"/>
</a>
</g>
</g>
<!-- Node30 -->
<g id="Node000030" class="node">
<title>Node30</title>
<g id="a_Node000030"><a xlink:href="classfr_1_1softsf_1_1canscan_1_1_can_scan.html#a0fe215984734bb1337dd49ca30238b78" target="_top" xlink:title="Sets the loader size so it matches the QR code label height and remains centered.">
<polygon fill="white" stroke="#666666" points="732.62,-32 583.12,-32 583.12,0 732.62,0 732.62,-32"/>
<text text-anchor="start" x="591.12" y="-18.5" font-family="Helvetica,sans-Serif" font-size="10.00">fr.softsf.canscan.CanScan.set</text>
<text text-anchor="middle" x="657.88" y="-6.5" font-family="Helvetica,sans-Serif" font-size="10.00">LoaderSize</text>
</a>
</g>
</g>
<!-- Node29&#45;&gt;Node30 -->
<g id="edge32_Node000029_Node000030" class="edge">
<title>Node29&#45;&gt;Node30</title>
<g id="a_edge32_Node000029_Node000030"><a xlink:title=" ">
<path fill="none" stroke="#63b8ff" d="M536.59,-30.65C548.09,-29.25 559.89,-27.81 571.39,-26.41"/>
<polygon fill="#63b8ff" stroke="#63b8ff" points="571.77,-29.89 581.28,-25.21 570.93,-22.94 571.77,-29.89"/>
</a>
</g>
</g>
<!-- Node31 -->
<g id="Node000031" class="node">
<title>Node31</title>
<g id="a_Node000031"><a xlink:href="classfr_1_1softsf_1_1canscan_1_1_can_scan.html#a381368b99c4a0857c6abe6349b2c6d27" target="_top" xlink:title="Calculates the available height for QR code rendering.">
<polygon fill="white" stroke="#666666" points="963.5,-32 788.5,-32 788.5,0 963.5,0 963.5,-32"/>
<text text-anchor="start" x="796.5" y="-18.5" font-family="Helvetica,sans-Serif" font-size="10.00">fr.softsf.canscan.CanScan.calculate</text>
<text text-anchor="middle" x="876" y="-6.5" font-family="Helvetica,sans-Serif" font-size="10.00">AvailableQrCodeLabelHeight</text>
</a>
</g>
</g>
<!-- Node30&#45;&gt;Node31 -->
<g id="edge33_Node000030_Node000031" class="edge">
<title>Node30&#45;&gt;Node31</title>
<g id="a_edge33_Node000030_Node000031"><a xlink:title=" ">
<path fill="none" stroke="#63b8ff" d="M732.95,-16C747.17,-16 762.26,-16 777.09,-16"/>
<polygon fill="#63b8ff" stroke="#63b8ff" points="776.85,-19.5 786.85,-16 776.85,-12.5 776.85,-19.5"/>
</a>
</g>
</g>
</g>
</svg>
