<?xml version="1.0" encoding="UTF-8" standalone="no"?>
<!DOCTYPE svg PUBLIC "-//W3C//DTD SVG 1.1//EN"
 "http://www.w3.org/Graphics/SVG/1.1/DTD/svg11.dtd">
<!-- Generated by graphviz version 12.2.1 (20241206.2353)
 -->
<!-- Title: fr.softsf.canscan.service.AbstractDynamicQrCodeWorker.handleWorkerDone Pages: 1 -->
<svg width="842pt" height="282pt"
 viewBox="0.00 0.00 842.25 282.00" xmlns="http://www.w3.org/2000/svg" xmlns:xlink="http://www.w3.org/1999/xlink">
<g id="graph0" class="graph" transform="scale(1 1) rotate(0) translate(4 278)">
<title>fr.softsf.canscan.service.AbstractDynamicQrCodeWorker.handleWorkerDone</title>
<!-- Node1 -->
<g id="Node000001" class="node">
<title>Node1</title>
<g id="a_Node000001"><a xlink:title="Handles the completion of the current SwingWorker task.">
<polygon fill="#999999" stroke="#666666" points="187.75,-94 0,-94 0,-50 187.75,-50 187.75,-94"/>
<text text-anchor="start" x="8" y="-80.5" font-family="Helvetica,sans-Serif" font-size="10.00">fr.softsf.canscan.service.</text>
<text text-anchor="start" x="8" y="-68.5" font-family="Helvetica,sans-Serif" font-size="10.00">AbstractDynamicQrCodeWorker.handle</text>
<text text-anchor="middle" x="93.88" y="-56.5" font-family="Helvetica,sans-Serif" font-size="10.00">WorkerDone</text>
</a>
</g>
</g>
<!-- Node2 -->
<g id="Node000002" class="node">
<title>Node2</title>
<g id="a_Node000002"><a xlink:href="classfr_1_1softsf_1_1canscan_1_1service_1_1_abstract_dynamic_qr_code_worker.html#a5ea567d314cb76b8c4c4abebca360bee" target="_top" xlink:title="Called when the worker fails or is cancelled.">
<polygon fill="white" stroke="#666666" points="393.5,-147 223.75,-147 223.75,-103 393.5,-103 393.5,-147"/>
<text text-anchor="start" x="231.75" y="-133.5" font-family="Helvetica,sans-Serif" font-size="10.00">fr.softsf.canscan.service.</text>
<text text-anchor="start" x="231.75" y="-121.5" font-family="Helvetica,sans-Serif" font-size="10.00">AbstractDynamicQrCodeWorker.on</text>
<text text-anchor="middle" x="308.62" y="-109.5" font-family="Helvetica,sans-Serif" font-size="10.00">WorkerFailure</text>
</a>
</g>
</g>
<!-- Node1&#45;&gt;Node2 -->
<g id="edge1_Node000001_Node000002" class="edge">
<title>Node1&#45;&gt;Node2</title>
<g id="a_edge1_Node000001_Node000002"><a xlink:title=" ">
<path fill="none" stroke="#63b8ff" d="M185.1,-94.48C194.12,-96.72 203.29,-99.01 212.36,-101.27"/>
<polygon fill="#63b8ff" stroke="#63b8ff" points="211.33,-104.62 221.88,-103.64 213.02,-97.83 211.33,-104.62"/>
</a>
</g>
</g>
<!-- Node7 -->
<g id="Node000007" class="node">
<title>Node7</title>
<g id="a_Node000007"><a xlink:href="classfr_1_1softsf_1_1canscan_1_1service_1_1_abstract_dynamic_qr_code_worker.html#a99151891dd8d4592131c224c1de25ad9" target="_top" xlink:title="Stops the loader&#39;s wait indicator.">
<polygon fill="white" stroke="#666666" points="829.38,-88 651.38,-88 651.38,-44 829.38,-44 829.38,-88"/>
<text text-anchor="start" x="659.38" y="-74.5" font-family="Helvetica,sans-Serif" font-size="10.00">fr.softsf.canscan.service.</text>
<text text-anchor="start" x="659.38" y="-62.5" font-family="Helvetica,sans-Serif" font-size="10.00">AbstractDynamicQrCodeWorker.stop</text>
<text text-anchor="middle" x="740.38" y="-50.5" font-family="Helvetica,sans-Serif" font-size="10.00">Loader</text>
</a>
</g>
</g>
<!-- Node1&#45;&gt;Node7 -->
<g id="edge8_Node000001_Node000007" class="edge">
<title>Node1&#45;&gt;Node7</title>
<g id="a_edge8_Node000001_Node000007"><a xlink:title=" ">
<path fill="none" stroke="#63b8ff" d="M188.25,-71.13C308.43,-70.01 516.39,-68.08 639.6,-66.93"/>
<polygon fill="#63b8ff" stroke="#63b8ff" points="639.4,-70.43 649.37,-66.84 639.34,-63.43 639.4,-70.43"/>
</a>
</g>
</g>
<!-- Node8 -->
<g id="Node000008" class="node">
<title>Node8</title>
<g id="a_Node000008"><a xlink:href="classfr_1_1softsf_1_1canscan_1_1service_1_1_abstract_dynamic_qr_code_worker.html#a6d926dddd5758aeb10dde0d050c45a3b" target="_top" xlink:title="Called when the worker completes successfully with its result.">
<polygon fill="white" stroke="#666666" points="393.5,-44 223.75,-44 223.75,0 393.5,0 393.5,-44"/>
<text text-anchor="start" x="231.75" y="-30.5" font-family="Helvetica,sans-Serif" font-size="10.00">fr.softsf.canscan.service.</text>
<text text-anchor="start" x="231.75" y="-18.5" font-family="Helvetica,sans-Serif" font-size="10.00">AbstractDynamicQrCodeWorker.on</text>
<text text-anchor="middle" x="308.62" y="-6.5" font-family="Helvetica,sans-Serif" font-size="10.00">WorkerSuccess</text>
</a>
</g>
</g>
<!-- Node1&#45;&gt;Node8 -->
<g id="edge7_Node000001_Node000008" class="edge">
<title>Node1&#45;&gt;Node8</title>
<g id="a_edge7_Node000001_Node000008"><a xlink:title=" ">
<path fill="none" stroke="#63b8ff" d="M188.19,-50.07C196.25,-48.18 204.41,-46.26 212.48,-44.36"/>
<polygon fill="#63b8ff" stroke="#63b8ff" points="213.02,-47.83 221.95,-42.14 211.41,-41.02 213.02,-47.83"/>
</a>
</g>
</g>
<!-- Node3 -->
<g id="Node000003" class="node">
<title>Node3</title>
<g id="a_Node000003"><a xlink:href="classfr_1_1softsf_1_1canscan_1_1service_1_1_abstract_dynamic_qr_code_worker.html#ab96e38d883cf01ec5565f6391e20c9ac" target="_top" xlink:title="Resets the current worker and associated resources.">
<polygon fill="white" stroke="#666666" points="610.5,-150 429.5,-150 429.5,-106 610.5,-106 610.5,-150"/>
<text text-anchor="start" x="437.5" y="-136.5" font-family="Helvetica,sans-Serif" font-size="10.00">fr.softsf.canscan.service.</text>
<text text-anchor="start" x="437.5" y="-124.5" font-family="Helvetica,sans-Serif" font-size="10.00">AbstractDynamicQrCodeWorker.reset</text>
<text text-anchor="middle" x="520" y="-112.5" font-family="Helvetica,sans-Serif" font-size="10.00">Worker</text>
</a>
</g>
</g>
<!-- Node2&#45;&gt;Node3 -->
<g id="edge2_Node000002_Node000003" class="edge">
<title>Node2&#45;&gt;Node3</title>
<g id="a_edge2_Node000002_Node000003"><a xlink:title=" ">
<path fill="none" stroke="#63b8ff" d="M393.88,-126.21C401.76,-126.32 409.8,-126.44 417.81,-126.55"/>
<polygon fill="#63b8ff" stroke="#63b8ff" points="417.53,-130.05 427.58,-126.69 417.63,-123.05 417.53,-130.05"/>
</a>
</g>
</g>
<!-- Node4 -->
<g id="Node000004" class="node">
<title>Node4</title>
<g id="a_Node000004"><a xlink:href="classfr_1_1softsf_1_1canscan_1_1service_1_1_abstract_dynamic_qr_code_worker.html#a827422a0dbc6c5ece6981cdecccbd287" target="_top" xlink:title="Cancels the current SwingWorker and clears its reference safely.">
<polygon fill="white" stroke="#666666" points="834.25,-274 646.5,-274 646.5,-230 834.25,-230 834.25,-274"/>
<text text-anchor="start" x="654.5" y="-260.5" font-family="Helvetica,sans-Serif" font-size="10.00">fr.softsf.canscan.service.</text>
<text text-anchor="start" x="654.5" y="-248.5" font-family="Helvetica,sans-Serif" font-size="10.00">AbstractDynamicQrCodeWorker.cancel</text>
<text text-anchor="middle" x="740.38" y="-236.5" font-family="Helvetica,sans-Serif" font-size="10.00">Worker</text>
</a>
</g>
</g>
<!-- Node3&#45;&gt;Node4 -->
<g id="edge3_Node000003_Node000004" class="edge">
<title>Node3&#45;&gt;Node4</title>
<g id="a_edge3_Node000003_Node000004"><a xlink:title=" ">
<path fill="none" stroke="#63b8ff" d="M545.85,-150.15C570.09,-170.82 608.73,-201.34 646.5,-221 649.16,-222.39 651.9,-223.73 654.69,-225.03"/>
<polygon fill="#63b8ff" stroke="#63b8ff" points="653.04,-228.12 663.6,-228.93 655.84,-221.71 653.04,-228.12"/>
</a>
</g>
</g>
<!-- Node5 -->
<g id="Node000005" class="node">
<title>Node5</title>
<g id="a_Node000005"><a xlink:href="classfr_1_1softsf_1_1canscan_1_1service_1_1_abstract_dynamic_qr_code_worker.html#a49e1caf8da3d33dde4b1d7e351aecd19" target="_top" xlink:title="Clears any allocated data, icons, or buffers before starting a new task.">
<polygon fill="white" stroke="#666666" points="830.5,-212 650.25,-212 650.25,-168 830.5,-168 830.5,-212"/>
<text text-anchor="start" x="658.25" y="-198.5" font-family="Helvetica,sans-Serif" font-size="10.00">fr.softsf.canscan.service.</text>
<text text-anchor="start" x="658.25" y="-186.5" font-family="Helvetica,sans-Serif" font-size="10.00">AbstractDynamicQrCodeWorker.clear</text>
<text text-anchor="middle" x="740.38" y="-174.5" font-family="Helvetica,sans-Serif" font-size="10.00">Resources</text>
</a>
</g>
</g>
<!-- Node3&#45;&gt;Node5 -->
<g id="edge4_Node000003_Node000005" class="edge">
<title>Node3&#45;&gt;Node5</title>
<g id="a_edge4_Node000003_Node000005"><a xlink:title=" ">
<path fill="none" stroke="#63b8ff" d="M600.15,-150.47C616.17,-155.02 633.12,-159.83 649.48,-164.48"/>
<polygon fill="#63b8ff" stroke="#63b8ff" points="648.1,-167.72 658.68,-167.09 650.01,-160.99 648.1,-167.72"/>
</a>
</g>
</g>
<!-- Node6 -->
<g id="Node000006" class="node">
<title>Node6</title>
<g id="a_Node000006"><a xlink:href="classfr_1_1softsf_1_1canscan_1_1service_1_1_abstract_dynamic_qr_code_worker.html#a5ebccb20366b1496129ad831a399c8d0" target="_top" xlink:title="Stops and clears the debounce timer.">
<polygon fill="white" stroke="#666666" points="829.38,-150 651.38,-150 651.38,-106 829.38,-106 829.38,-150"/>
<text text-anchor="start" x="659.38" y="-136.5" font-family="Helvetica,sans-Serif" font-size="10.00">fr.softsf.canscan.service.</text>
<text text-anchor="start" x="659.38" y="-124.5" font-family="Helvetica,sans-Serif" font-size="10.00">AbstractDynamicQrCodeWorker.stop</text>
<text text-anchor="middle" x="740.38" y="-112.5" font-family="Helvetica,sans-Serif" font-size="10.00">DebounceTimer</text>
</a>
</g>
</g>
<!-- Node3&#45;&gt;Node6 -->
<g id="edge5_Node000003_Node000006" class="edge">
<title>Node3&#45;&gt;Node6</title>
<g id="a_edge5_Node000003_Node000006"><a xlink:title=" ">
<path fill="none" stroke="#63b8ff" d="M610.77,-128C620.32,-128 630.08,-128 639.74,-128"/>
<polygon fill="#63b8ff" stroke="#63b8ff" points="639.5,-131.5 649.5,-128 639.5,-124.5 639.5,-131.5"/>
</a>
</g>
</g>
<!-- Node3&#45;&gt;Node7 -->
<g id="edge6_Node000003_Node000007" class="edge">
<title>Node3&#45;&gt;Node7</title>
<g id="a_edge6_Node000003_Node000007"><a xlink:title=" ">
<path fill="none" stroke="#63b8ff" d="M600.15,-105.53C616.17,-100.98 633.12,-96.17 649.48,-91.52"/>
<polygon fill="#63b8ff" stroke="#63b8ff" points="650.01,-95.01 658.68,-88.91 648.1,-88.28 650.01,-95.01"/>
</a>
</g>
</g>
</g>
</svg>
