<?xml version="1.0" encoding="UTF-8" standalone="no"?>
<!DOCTYPE svg PUBLIC "-//W3C//DTD SVG 1.1//EN"
 "http://www.w3.org/Graphics/SVG/1.1/DTD/svg11.dtd">
<!-- Generated by graphviz version 12.2.1 (20241206.2353)
 -->
<!-- Title: fr.softsf.canscan.CanScan.initializeNorthPanel Pages: 1 -->
<svg width="1017pt" height="397pt"
 viewBox="0.00 0.00 1016.50 397.00" xmlns="http://www.w3.org/2000/svg" xmlns:xlink="http://www.w3.org/1999/xlink">
<g id="graph0" class="graph" transform="scale(1 1) rotate(0) translate(4 393)">
<title>fr.softsf.canscan.CanScan.initializeNorthPanel</title>
<!-- Node1 -->
<g id="Node000001" class="node">
<title>Node1</title>
<g id="a_Node000001"><a xlink:title="Builds the north panel containing mode selection, card panels, common fields, and the generate button...">
<polygon fill="#999999" stroke="#666666" points="171.25,-179 0,-179 0,-147 171.25,-147 171.25,-179"/>
<text text-anchor="start" x="8" y="-165.5" font-family="Helvetica,sans-Serif" font-size="10.00">fr.softsf.canscan.CanScan.initialize</text>
<text text-anchor="middle" x="85.62" y="-153.5" font-family="Helvetica,sans-Serif" font-size="10.00">NorthPanel</text>
</a>
</g>
</g>
<!-- Node2 -->
<g id="Node000002" class="node">
<title>Node2</title>
<g id="a_Node000002"><a xlink:href="classfr_1_1softsf_1_1canscan_1_1_can_scan.html#ab2e018ca62c7497c29e84f42ae870daa" target="_top" xlink:title="Adds MECARD and Free card panels to the north panel.">
<polygon fill="white" stroke="#666666" points="362,-357 210.25,-357 210.25,-325 362,-325 362,-357"/>
<text text-anchor="start" x="218.25" y="-343.5" font-family="Helvetica,sans-Serif" font-size="10.00">fr.softsf.canscan.CanScan.add</text>
<text text-anchor="middle" x="286.12" y="-331.5" font-family="Helvetica,sans-Serif" font-size="10.00">NorthPanelCardPanels</text>
</a>
</g>
</g>
<!-- Node1&#45;&gt;Node2 -->
<g id="edge1_Node000001_Node000002" class="edge">
<title>Node1&#45;&gt;Node2</title>
<g id="a_edge1_Node000001_Node000002"><a xlink:title=" ">
<path fill="none" stroke="#63b8ff" d="M104.94,-179.43C140.17,-211.02 217.5,-280.36 258.45,-317.08"/>
<polygon fill="#63b8ff" stroke="#63b8ff" points="255.94,-319.53 265.72,-323.6 260.62,-314.32 255.94,-319.53"/>
</a>
</g>
</g>
<!-- Node6 -->
<g id="Node000006" class="node">
<title>Node6</title>
<g id="a_Node000006"><a xlink:href="classfr_1_1softsf_1_1canscan_1_1_can_scan.html#a94ab4df98de0d05977e6a65ab75f89f0" target="_top" xlink:title="Adds common input fields to the north panel.">
<polygon fill="white" stroke="#666666" points="362,-257 210.25,-257 210.25,-225 362,-225 362,-257"/>
<text text-anchor="start" x="218.25" y="-243.5" font-family="Helvetica,sans-Serif" font-size="10.00">fr.softsf.canscan.CanScan.add</text>
<text text-anchor="middle" x="286.12" y="-231.5" font-family="Helvetica,sans-Serif" font-size="10.00">NorthPanelCommonFields</text>
</a>
</g>
</g>
<!-- Node1&#45;&gt;Node6 -->
<g id="edge6_Node000001_Node000006" class="edge">
<title>Node1&#45;&gt;Node6</title>
<g id="a_edge6_Node000001_Node000006"><a xlink:title=" ">
<path fill="none" stroke="#63b8ff" d="M128.24,-179.35C158.57,-191.27 199.9,-207.51 232.52,-220.33"/>
<polygon fill="#63b8ff" stroke="#63b8ff" points="231.23,-223.58 241.82,-223.98 233.79,-217.07 231.23,-223.58"/>
</a>
</g>
</g>
<!-- Node13 -->
<g id="Node000013" class="node">
<title>Node13</title>
<g id="a_Node000013"><a xlink:href="classfr_1_1softsf_1_1canscan_1_1_can_scan.html#a9f205dfdb266d5d7f8f8899b69742663" target="_top" xlink:title="Adds the generate button to the north panel.">
<polygon fill="white" stroke="#666666" points="362,-129 210.25,-129 210.25,-97 362,-97 362,-129"/>
<text text-anchor="start" x="218.25" y="-115.5" font-family="Helvetica,sans-Serif" font-size="10.00">fr.softsf.canscan.CanScan.add</text>
<text text-anchor="middle" x="286.12" y="-103.5" font-family="Helvetica,sans-Serif" font-size="10.00">NorthPanelGenerateButton</text>
</a>
</g>
</g>
<!-- Node1&#45;&gt;Node13 -->
<g id="edge15_Node000001_Node000013" class="edge">
<title>Node1&#45;&gt;Node13</title>
<g id="a_edge15_Node000001_Node000013"><a xlink:title=" ">
<path fill="none" stroke="#63b8ff" d="M151.9,-146.56C170.13,-141.97 190.1,-136.94 208.9,-132.2"/>
<polygon fill="#63b8ff" stroke="#63b8ff" points="209.5,-135.66 218.35,-129.82 207.79,-128.87 209.5,-135.66"/>
</a>
</g>
</g>
<!-- Node14 -->
<g id="Node000014" class="node">
<title>Node14</title>
<g id="a_Node000014"><a xlink:href="classfr_1_1softsf_1_1canscan_1_1_can_scan.html#aa469763b92dd7cbc6dfdb9aaa0116b33" target="_top" xlink:title="Adds mode selection controls (MECARD/Free) to the north panel.">
<polygon fill="white" stroke="#666666" points="362,-179 210.25,-179 210.25,-147 362,-147 362,-179"/>
<text text-anchor="start" x="218.25" y="-165.5" font-family="Helvetica,sans-Serif" font-size="10.00">fr.softsf.canscan.CanScan.add</text>
<text text-anchor="middle" x="286.12" y="-153.5" font-family="Helvetica,sans-Serif" font-size="10.00">NorthPanelModeSelection</text>
</a>
</g>
</g>
<!-- Node1&#45;&gt;Node14 -->
<g id="edge16_Node000001_Node000014" class="edge">
<title>Node1&#45;&gt;Node14</title>
<g id="a_edge16_Node000001_Node000014"><a xlink:title=" ">
<path fill="none" stroke="#63b8ff" d="M171.67,-163C180.62,-163 189.73,-163 198.7,-163"/>
<polygon fill="#63b8ff" stroke="#63b8ff" points="198.45,-166.5 208.45,-163 198.45,-159.5 198.45,-166.5"/>
</a>
</g>
</g>
<!-- Node20 -->
<g id="Node000020" class="node">
<title>Node20</title>
<g id="a_Node000020"><a xlink:href="classfr_1_1softsf_1_1canscan_1_1_can_scan.html#aeb5550da33925e95999aae23f525f7c5" target="_top" xlink:title="Creates default GridBagConstraints for consistent layout configuration.">
<polygon fill="white" stroke="#666666" points="365,-79 207.25,-79 207.25,-47 365,-47 365,-79"/>
<text text-anchor="start" x="215.25" y="-65.5" font-family="Helvetica,sans-Serif" font-size="10.00">fr.softsf.canscan.CanScan.north</text>
<text text-anchor="middle" x="286.12" y="-53.5" font-family="Helvetica,sans-Serif" font-size="10.00">PanelGridBagConstraints</text>
</a>
</g>
</g>
<!-- Node1&#45;&gt;Node20 -->
<g id="edge25_Node000001_Node000020" class="edge">
<title>Node1&#45;&gt;Node20</title>
<g id="a_edge25_Node000001_Node000020"><a xlink:title=" ">
<path fill="none" stroke="#63b8ff" d="M109.24,-146.57C132.8,-130.04 171.22,-104.68 207.25,-88 210.6,-86.45 214.07,-84.96 217.61,-83.52"/>
<polygon fill="#63b8ff" stroke="#63b8ff" points="218.85,-86.8 226.94,-79.96 216.35,-80.26 218.85,-86.8"/>
</a>
</g>
</g>
<!-- Node3 -->
<g id="Node000003" class="node">
<title>Node3</title>
<g id="a_Node000003"><a xlink:href="classfr_1_1softsf_1_1canscan_1_1_can_scan.html#a38d65dd319daee1c3288690c17e43ca5" target="_top" xlink:title="Initializes the FREE mode input panel with a multiline text area for arbitrary text or URLs.">
<polygon fill="white" stroke="#666666" points="582,-389 408.5,-389 408.5,-369 582,-369 582,-389"/>
<text text-anchor="middle" x="495.25" y="-375.5" font-family="Helvetica,sans-Serif" font-size="10.00">fr.softsf.canscan.CanScan.freeCard</text>
</a>
</g>
</g>
<!-- Node2&#45;&gt;Node3 -->
<g id="edge2_Node000002_Node000003" class="edge">
<title>Node2&#45;&gt;Node3</title>
<g id="a_edge2_Node000002_Node000003"><a xlink:title=" ">
<path fill="none" stroke="#63b8ff" d="M362.49,-354.83C383.28,-358.64 405.7,-362.76 426.06,-366.49"/>
<polygon fill="#63b8ff" stroke="#63b8ff" points="425.18,-369.89 435.64,-368.25 426.44,-363 425.18,-369.89"/>
</a>
</g>
</g>
<!-- Node5 -->
<g id="Node000005" class="node">
<title>Node5</title>
<g id="a_Node000005"><a xlink:href="classfr_1_1softsf_1_1canscan_1_1_can_scan.html#aed7e3048974882318a6519d8d36e8ec0" target="_top" xlink:title="Initializes the MECARD input panel with labeled text fields for structured contact information.">
<polygon fill="white" stroke="#666666" points="579.38,-351 411.12,-351 411.12,-331 579.38,-331 579.38,-351"/>
<text text-anchor="middle" x="495.25" y="-337.5" font-family="Helvetica,sans-Serif" font-size="10.00">fr.softsf.canscan.CanScan.mecard</text>
</a>
</g>
</g>
<!-- Node2&#45;&gt;Node5 -->
<g id="edge4_Node000002_Node000005" class="edge">
<title>Node2&#45;&gt;Node5</title>
<g id="a_edge4_Node000002_Node000005"><a xlink:title=" ">
<path fill="none" stroke="#63b8ff" d="M362.49,-341C374.53,-341 387.13,-341 399.55,-341"/>
<polygon fill="#63b8ff" stroke="#63b8ff" points="399.38,-344.5 409.38,-341 399.38,-337.5 399.38,-344.5"/>
</a>
</g>
</g>
<!-- Node4 -->
<g id="Node000004" class="node">
<title>Node4</title>
<g id="a_Node000004"><a xlink:href="classfr_1_1softsf_1_1canscan_1_1_can_scan.html#a2732ecdc4490a717352975e68fce494c" target="_top" xlink:title="Adds a labeled component row to a panel using GridBagLayout.">
<polygon fill="white" stroke="#666666" points="797.5,-332 625.5,-332 625.5,-312 797.5,-312 797.5,-332"/>
<text text-anchor="middle" x="711.5" y="-318.5" font-family="Helvetica,sans-Serif" font-size="10.00">fr.softsf.canscan.CanScan.addRow</text>
</a>
</g>
</g>
<!-- Node3&#45;&gt;Node4 -->
<g id="edge3_Node000003_Node000004" class="edge">
<title>Node3&#45;&gt;Node4</title>
<g id="a_edge3_Node000003_Node000004"><a xlink:title=" ">
<path fill="none" stroke="#63b8ff" d="M552.19,-368.58C564.53,-366.01 577.5,-363.1 589.5,-360 616.43,-353.05 646.25,-343.7 669.55,-336.02"/>
<polygon fill="#63b8ff" stroke="#63b8ff" points="670.6,-339.36 678.98,-332.88 668.39,-332.72 670.6,-339.36"/>
</a>
</g>
</g>
<!-- Node5&#45;&gt;Node4 -->
<g id="edge5_Node000005_Node000004" class="edge">
<title>Node5&#45;&gt;Node4</title>
<g id="a_edge5_Node000005_Node000004"><a xlink:title=" ">
<path fill="none" stroke="#63b8ff" d="M579.7,-333.6C590.89,-332.61 602.44,-331.58 613.84,-330.57"/>
<polygon fill="#63b8ff" stroke="#63b8ff" points="614,-334.07 623.65,-329.7 613.38,-327.1 614,-334.07"/>
</a>
</g>
</g>
<!-- Node6&#45;&gt;Node4 -->
<g id="edge7_Node000006_Node000004" class="edge">
<title>Node6&#45;&gt;Node4</title>
<g id="a_edge7_Node000006_Node000004"><a xlink:title=" ">
<path fill="none" stroke="#63b8ff" d="M323.85,-257.43C345.82,-266.61 374.53,-277.48 401,-284 471.14,-301.29 552.26,-310.88 613.84,-316.1"/>
<polygon fill="#63b8ff" stroke="#63b8ff" points="613.35,-319.57 623.6,-316.9 613.92,-312.59 613.35,-319.57"/>
</a>
</g>
</g>
<!-- Node7 -->
<g id="Node000007" class="node">
<title>Node7</title>
<g id="a_Node000007"><a xlink:href="classfr_1_1softsf_1_1canscan_1_1_can_scan.html#a17b0a72ab305f98f86591411b6a352f2" target="_top" xlink:title="Creates the color selection panel for QR code and background colors.">
<polygon fill="white" stroke="#666666" points="573.75,-257 416.75,-257 416.75,-225 573.75,-225 573.75,-257"/>
<text text-anchor="start" x="424.75" y="-243.5" font-family="Helvetica,sans-Serif" font-size="10.00">fr.softsf.canscan.CanScan.color</text>
<text text-anchor="middle" x="495.25" y="-231.5" font-family="Helvetica,sans-Serif" font-size="10.00">Panel</text>
</a>
</g>
</g>
<!-- Node6&#45;&gt;Node7 -->
<g id="edge8_Node000006_Node000007" class="edge">
<title>Node6&#45;&gt;Node7</title>
<g id="a_edge8_Node000006_Node000007"><a xlink:title=" ">
<path fill="none" stroke="#63b8ff" d="M362.49,-241C376.36,-241 390.96,-241 405.2,-241"/>
<polygon fill="#63b8ff" stroke="#63b8ff" points="404.99,-244.5 414.99,-241 404.99,-237.5 404.99,-244.5"/>
</a>
</g>
</g>
<!-- Node7&#45;&gt;Node7 -->
<g id="edge9_Node000007_Node000007" class="edge">
<title>Node7&#45;&gt;Node7</title>
<g id="a_edge9_Node000007_Node000007"><a xlink:title=" ">
<path fill="none" stroke="#63b8ff" d="M457.92,-257.44C450.95,-266.58 463.39,-275 495.25,-275 512.92,-275 524.62,-272.41 530.35,-268.54"/>
<polygon fill="#63b8ff" stroke="#63b8ff" points="533.74,-269.42 532.29,-258.93 526.88,-268.04 533.74,-269.42"/>
</a>
</g>
</g>
<!-- Node8 -->
<g id="Node000008" class="node">
<title>Node8</title>
<g id="a_Node000008"><a xlink:href="classfr_1_1softsf_1_1canscan_1_1_can_scan.html#a2d26dcd1ae708eae46dba8952351aa1a" target="_top" xlink:title="Builds and returns a QrInput object containing all current user inputs and settings.">
<polygon fill="white" stroke="#666666" points="786.25,-182 636.75,-182 636.75,-150 786.25,-150 786.25,-182"/>
<text text-anchor="start" x="644.75" y="-168.5" font-family="Helvetica,sans-Serif" font-size="10.00">fr.softsf.canscan.CanScan.get</text>
<text text-anchor="middle" x="711.5" y="-156.5" font-family="Helvetica,sans-Serif" font-size="10.00">QrInput</text>
</a>
</g>
</g>
<!-- Node7&#45;&gt;Node8 -->
<g id="edge10_Node000007_Node000008" class="edge">
<title>Node7&#45;&gt;Node8</title>
<g id="a_edge10_Node000007_Node000008"><a xlink:title=" ">
<path fill="none" stroke="#63b8ff" d="M543.27,-224.54C575.5,-213.26 618.47,-198.22 652.78,-186.21"/>
<polygon fill="#63b8ff" stroke="#63b8ff" points="653.88,-189.53 662.16,-182.92 651.57,-182.92 653.88,-189.53"/>
</a>
</g>
</g>
<!-- Node9 -->
<g id="Node000009" class="node">
<title>Node9</title>
<g id="a_Node000009"><a xlink:href="classfr_1_1softsf_1_1canscan_1_1_can_scan.html#a381368b99c4a0857c6abe6349b2c6d27" target="_top" xlink:title="Calculates the available height for QR code rendering.">
<polygon fill="white" stroke="#666666" points="1008.5,-257 833.5,-257 833.5,-225 1008.5,-225 1008.5,-257"/>
<text text-anchor="start" x="841.5" y="-243.5" font-family="Helvetica,sans-Serif" font-size="10.00">fr.softsf.canscan.CanScan.calculate</text>
<text text-anchor="middle" x="921" y="-231.5" font-family="Helvetica,sans-Serif" font-size="10.00">AvailableQrCodeLabelHeight</text>
</a>
</g>
</g>
<!-- Node8&#45;&gt;Node9 -->
<g id="edge11_Node000008_Node000009" class="edge">
<title>Node8&#45;&gt;Node9</title>
<g id="a_edge11_Node000008_Node000009"><a xlink:title=" ">
<path fill="none" stroke="#63b8ff" d="M749.16,-182.39C772.95,-192.71 804.75,-205.94 833.5,-216 838.49,-217.75 843.68,-219.47 848.92,-221.14"/>
<polygon fill="#63b8ff" stroke="#63b8ff" points="847.67,-224.42 858.26,-224.05 849.75,-217.74 847.67,-224.42"/>
</a>
</g>
</g>
<!-- Node10 -->
<g id="Node000010" class="node">
<title>Node10</title>
<g id="a_Node000010"><a xlink:href="classfr_1_1softsf_1_1canscan_1_1_can_scan.html#a4e67b1b5c764e72414a5c0f387810f5c" target="_top" xlink:title="Validates and returns the current QR code margin from the margin slider.">
<polygon fill="white" stroke="#666666" points="1005.88,-207 836.12,-207 836.12,-175 1005.88,-175 1005.88,-207"/>
<text text-anchor="start" x="844.12" y="-193.5" font-family="Helvetica,sans-Serif" font-size="10.00">fr.softsf.canscan.CanScan.validate</text>
<text text-anchor="middle" x="921" y="-181.5" font-family="Helvetica,sans-Serif" font-size="10.00">AndGetMargin</text>
</a>
</g>
</g>
<!-- Node8&#45;&gt;Node10 -->
<g id="edge12_Node000008_Node000010" class="edge">
<title>Node8&#45;&gt;Node10</title>
<g id="a_edge12_Node000008_Node000010"><a xlink:title=" ">
<path fill="none" stroke="#63b8ff" d="M786.53,-174.92C798.87,-176.41 811.81,-177.97 824.59,-179.5"/>
<polygon fill="#63b8ff" stroke="#63b8ff" points="823.9,-182.95 834.25,-180.67 824.74,-176 823.9,-182.95"/>
</a>
</g>
</g>
<!-- Node11 -->
<g id="Node000011" class="node">
<title>Node11</title>
<g id="a_Node000011"><a xlink:href="classfr_1_1softsf_1_1canscan_1_1_can_scan.html#a9e8188875168199cde065113ae2a393d" target="_top" xlink:title="Validates and returns the current image&#45;to&#45;QR ratio from the ratio slider.">
<polygon fill="white" stroke="#666666" points="1005.88,-157 836.12,-157 836.12,-125 1005.88,-125 1005.88,-157"/>
<text text-anchor="start" x="844.12" y="-143.5" font-family="Helvetica,sans-Serif" font-size="10.00">fr.softsf.canscan.CanScan.validate</text>
<text text-anchor="middle" x="921" y="-131.5" font-family="Helvetica,sans-Serif" font-size="10.00">AndGetRatio</text>
</a>
</g>
</g>
<!-- Node8&#45;&gt;Node11 -->
<g id="edge13_Node000008_Node000011" class="edge">
<title>Node8&#45;&gt;Node11</title>
<g id="a_edge13_Node000008_Node000011"><a xlink:title=" ">
<path fill="none" stroke="#63b8ff" d="M786.53,-157.08C798.87,-155.59 811.81,-154.03 824.59,-152.5"/>
<polygon fill="#63b8ff" stroke="#63b8ff" points="824.74,-156 834.25,-151.33 823.9,-149.05 824.74,-156"/>
</a>
</g>
</g>
<!-- Node12 -->
<g id="Node000012" class="node">
<title>Node12</title>
<g id="a_Node000012"><a xlink:href="classfr_1_1softsf_1_1canscan_1_1_can_scan.html#a6d139bb8d0a3c7081096c8956189b684" target="_top" xlink:title="Validates and returns the QR code size from the corresponding text field.">
<polygon fill="white" stroke="#666666" points="1005.88,-107 836.12,-107 836.12,-75 1005.88,-75 1005.88,-107"/>
<text text-anchor="start" x="844.12" y="-93.5" font-family="Helvetica,sans-Serif" font-size="10.00">fr.softsf.canscan.CanScan.validate</text>
<text text-anchor="middle" x="921" y="-81.5" font-family="Helvetica,sans-Serif" font-size="10.00">AndGetSize</text>
</a>
</g>
</g>
<!-- Node8&#45;&gt;Node12 -->
<g id="edge14_Node000008_Node000012" class="edge">
<title>Node8&#45;&gt;Node12</title>
<g id="a_edge14_Node000008_Node000012"><a xlink:title=" ">
<path fill="none" stroke="#63b8ff" d="M749.16,-149.61C772.95,-139.29 804.75,-126.06 833.5,-116 838.49,-114.25 843.68,-112.53 848.92,-110.86"/>
<polygon fill="#63b8ff" stroke="#63b8ff" points="849.75,-114.26 858.26,-107.95 847.67,-107.58 849.75,-114.26"/>
</a>
</g>
</g>
<!-- Node14&#45;&gt;Node4 -->
<g id="edge17_Node000014_Node000004" class="edge">
<title>Node14&#45;&gt;Node4</title>
<g id="a_edge17_Node000014_Node000004"><a xlink:title=" ">
<path fill="none" stroke="#63b8ff" d="M362.22,-174C445.03,-186.47 569.28,-206.32 589.5,-216 633.53,-237.08 673.85,-278.79 694.99,-303.13"/>
<polygon fill="#63b8ff" stroke="#63b8ff" points="692.24,-305.3 701.38,-310.67 697.58,-300.78 692.24,-305.3"/>
</a>
</g>
</g>
<!-- Node15 -->
<g id="Node000015" class="node">
<title>Node15</title>
<g id="a_Node000015"><a xlink:href="classfr_1_1softsf_1_1canscan_1_1_can_scan.html#a381579d3adc53b1122b38e7fda5c0235" target="_top" xlink:title="Configures the update button for version checking.">
<polygon fill="white" stroke="#666666" points="583.12,-101 407.38,-101 407.38,-69 583.12,-69 583.12,-101"/>
<text text-anchor="start" x="415.38" y="-87.5" font-family="Helvetica,sans-Serif" font-size="10.00">fr.softsf.canscan.CanScan.configure</text>
<text text-anchor="middle" x="495.25" y="-75.5" font-family="Helvetica,sans-Serif" font-size="10.00">UpdateButton</text>
</a>
</g>
</g>
<!-- Node14&#45;&gt;Node15 -->
<g id="edge18_Node000014_Node000015" class="edge">
<title>Node14&#45;&gt;Node15</title>
<g id="a_edge18_Node000014_Node000015"><a xlink:title=" ">
<path fill="none" stroke="#63b8ff" d="M345.88,-146.61C352.47,-144.05 358.97,-141.18 365,-138 382.92,-128.54 382.85,-119.03 401,-110 404.23,-108.4 407.57,-106.88 410.98,-105.46"/>
<polygon fill="#63b8ff" stroke="#63b8ff" points="411.92,-108.85 420,-102 409.41,-102.32 411.92,-108.85"/>
</a>
</g>
</g>
<!-- Node16 -->
<g id="Node000016" class="node">
<title>Node16</title>
<g id="a_Node000016"><a xlink:href="classfr_1_1softsf_1_1canscan_1_1_can_scan.html#a5d8f82f2666e6632015dbc4a8ff2b58e" target="_top" xlink:title="Creates the radio button panel for mode selection.">
<polygon fill="white" stroke="#666666" points="573.75,-151 416.75,-151 416.75,-119 573.75,-119 573.75,-151"/>
<text text-anchor="start" x="424.75" y="-137.5" font-family="Helvetica,sans-Serif" font-size="10.00">fr.softsf.canscan.CanScan.radio</text>
<text text-anchor="middle" x="495.25" y="-125.5" font-family="Helvetica,sans-Serif" font-size="10.00">ButtonsPanel</text>
</a>
</g>
</g>
<!-- Node14&#45;&gt;Node16 -->
<g id="edge19_Node000014_Node000016" class="edge">
<title>Node14&#45;&gt;Node16</title>
<g id="a_edge19_Node000014_Node000016"><a xlink:title=" ">
<path fill="none" stroke="#63b8ff" d="M362.49,-152.81C376.36,-150.94 390.96,-148.96 405.2,-147.04"/>
<polygon fill="#63b8ff" stroke="#63b8ff" points="405.57,-150.52 415.01,-145.71 404.63,-143.58 405.57,-150.52"/>
</a>
</g>
</g>
<!-- Node17 -->
<g id="Node000017" class="node">
<title>Node17</title>
<g id="a_Node000017"><a xlink:href="classfr_1_1softsf_1_1canscan_1_1_can_scan.html#a428c742b098fa27d4c8984c1030c238d" target="_top" xlink:title="Switches the application between MECARD and FREE QR code modes.">
<polygon fill="white" stroke="#666666" points="589.5,-51 401,-51 401,-31 589.5,-31 589.5,-51"/>
<text text-anchor="middle" x="495.25" y="-37.5" font-family="Helvetica,sans-Serif" font-size="10.00">fr.softsf.canscan.CanScan.switchMode</text>
</a>
</g>
</g>
<!-- Node14&#45;&gt;Node17 -->
<g id="edge21_Node000014_Node000017" class="edge">
<title>Node14&#45;&gt;Node17</title>
<g id="a_edge21_Node000014_Node000017"><a xlink:title=" ">
<path fill="none" stroke="#63b8ff" d="M352.71,-146.64C357.12,-144.15 361.28,-141.29 365,-138 393.59,-112.69 371.07,-83.7 401,-60 402.34,-58.94 403.72,-57.94 405.13,-56.99"/>
<polygon fill="#63b8ff" stroke="#63b8ff" points="406.67,-60.14 413.66,-52.17 403.23,-54.04 406.67,-60.14"/>
</a>
</g>
</g>
<!-- Node16&#45;&gt;Node16 -->
<g id="edge20_Node000016_Node000016" class="edge">
<title>Node16&#45;&gt;Node16</title>
<g id="a_edge20_Node000016_Node000016"><a xlink:title=" ">
<path fill="none" stroke="#63b8ff" d="M457.92,-151.44C450.95,-160.58 463.39,-169 495.25,-169 512.92,-169 524.62,-166.41 530.35,-162.54"/>
<polygon fill="#63b8ff" stroke="#63b8ff" points="533.74,-163.42 532.29,-152.93 526.88,-162.04 533.74,-163.42"/>
</a>
</g>
</g>
<!-- Node17&#45;&gt;Node8 -->
<g id="edge22_Node000017_Node000008" class="edge">
<title>Node17&#45;&gt;Node8</title>
<g id="a_edge22_Node000017_Node000008"><a xlink:title=" ">
<path fill="none" stroke="#63b8ff" d="M567.31,-51.42C575,-53.73 582.54,-56.55 589.5,-60 590.88,-60.69 648.2,-111.1 683.44,-142.14"/>
<polygon fill="#63b8ff" stroke="#63b8ff" points="680.92,-144.59 690.74,-148.58 685.55,-139.34 680.92,-144.59"/>
</a>
</g>
</g>
<!-- Node18 -->
<g id="Node000018" class="node">
<title>Node18</title>
<g id="a_Node000018"><a xlink:href="enumfr_1_1softsf_1_1canscan_1_1model_1_1_mode.html#a16a898a11ca939056bd7b275f11ea54c" target="_top" xlink:title="Returns the mode label.">
<polygon fill="white" stroke="#666666" points="772.38,-82 650.62,-82 650.62,-50 772.38,-50 772.38,-82"/>
<text text-anchor="start" x="658.62" y="-68.5" font-family="Helvetica,sans-Serif" font-size="10.00">fr.softsf.canscan.model.</text>
<text text-anchor="middle" x="711.5" y="-56.5" font-family="Helvetica,sans-Serif" font-size="10.00">Mode.text</text>
</a>
</g>
</g>
<!-- Node17&#45;&gt;Node18 -->
<g id="edge23_Node000017_Node000018" class="edge">
<title>Node17&#45;&gt;Node18</title>
<g id="a_edge23_Node000017_Node000018"><a xlink:title=" ">
<path fill="none" stroke="#63b8ff" d="M586.18,-51.49C603.93,-53.57 622.34,-55.71 639.36,-57.7"/>
<polygon fill="#63b8ff" stroke="#63b8ff" points="638.49,-61.12 648.83,-58.8 639.31,-54.17 638.49,-61.12"/>
</a>
</g>
</g>
<!-- Node19 -->
<g id="Node000019" class="node">
<title>Node19</title>
<g id="a_Node000019"><a xlink:href="classfr_1_1softsf_1_1canscan_1_1_can_scan.html#a11fd9295c4843e6e68f9d1e4a710b906" target="_top" xlink:title="Validates the current input fields and toggles the state of the generate button.">
<polygon fill="white" stroke="#666666" points="794.12,-32 628.88,-32 628.88,0 794.12,0 794.12,-32"/>
<text text-anchor="start" x="636.88" y="-18.5" font-family="Helvetica,sans-Serif" font-size="10.00">fr.softsf.canscan.CanScan.update</text>
<text text-anchor="middle" x="711.5" y="-6.5" font-family="Helvetica,sans-Serif" font-size="10.00">GenerateButtonState</text>
</a>
</g>
</g>
<!-- Node17&#45;&gt;Node19 -->
<g id="edge24_Node000017_Node000019" class="edge">
<title>Node17&#45;&gt;Node19</title>
<g id="a_edge24_Node000017_Node000019"><a xlink:title=" ">
<path fill="none" stroke="#63b8ff" d="M586.18,-30.51C596.52,-29.3 607.09,-28.07 617.47,-26.86"/>
<polygon fill="#63b8ff" stroke="#63b8ff" points="617.62,-30.36 627.15,-25.73 616.81,-23.41 617.62,-30.36"/>
</a>
</g>
</g>
</g>
</svg>
