<?xml version="1.0" encoding="UTF-8" standalone="no"?>
<!DOCTYPE svg PUBLIC "-//W3C//DTD SVG 1.1//EN"
 "http://www.w3.org/Graphics/SVG/1.1/DTD/svg11.dtd">
<!-- Generated by graphviz version 12.2.1 (20241206.2353)
 -->
<!-- Title: fr.softsf.canscan.CanScan.buildPreviewImage Pages: 1 -->
<svg width="1210pt" height="882pt"
 viewBox="0.00 0.00 1209.50 882.00" xmlns="http://www.w3.org/2000/svg" xmlns:xlink="http://www.w3.org/1999/xlink">
<g id="graph0" class="graph" transform="scale(1 1) rotate(0) translate(4 878)">
<title>fr.softsf.canscan.CanScan.buildPreviewImage</title>
<!-- Node1 -->
<g id="Node000001" class="node">
<title>Node1</title>
<g id="a_Node000001"><a xlink:title="Builds and returns the QR code image based on current input and configuration.">
<polygon fill="#999999" stroke="#666666" points="156.25,-154 0,-154 0,-122 156.25,-122 156.25,-154"/>
<text text-anchor="start" x="8" y="-140.5" font-family="Helvetica,sans-Serif" font-size="10.00">fr.softsf.canscan.CanScan.build</text>
<text text-anchor="middle" x="78.12" y="-128.5" font-family="Helvetica,sans-Serif" font-size="10.00">PreviewImage</text>
</a>
</g>
</g>
<!-- Node2 -->
<g id="Node000002" class="node">
<title>Node2</title>
<g id="a_Node000002"><a xlink:href="classfr_1_1softsf_1_1canscan_1_1_can_scan.html#adfbb5c9cf5fa4e297933cd0fce90162c" target="_top" xlink:title="Builds a QrInput from the current field values.">
<polygon fill="white" stroke="#666666" points="357.12,-448 200.88,-448 200.88,-416 357.12,-416 357.12,-448"/>
<text text-anchor="start" x="208.88" y="-434.5" font-family="Helvetica,sans-Serif" font-size="10.00">fr.softsf.canscan.CanScan.build</text>
<text text-anchor="middle" x="279" y="-422.5" font-family="Helvetica,sans-Serif" font-size="10.00">QrInput</text>
</a>
</g>
</g>
<!-- Node1&#45;&gt;Node2 -->
<g id="edge1_Node000001_Node000002" class="edge">
<title>Node1&#45;&gt;Node2</title>
<g id="a_edge1_Node000001_Node000002"><a xlink:title=" ">
<path fill="none" stroke="#63b8ff" d="M81.13,-154.41C87.71,-201.19 113.03,-336.36 192.25,-407 193.18,-407.83 194.13,-408.62 195.1,-409.4"/>
<polygon fill="#63b8ff" stroke="#63b8ff" points="192.93,-412.15 203.18,-414.82 196.83,-406.34 192.93,-412.15"/>
</a>
</g>
</g>
<!-- Node3 -->
<g id="Node000003" class="node">
<title>Node3</title>
<g id="a_Node000003"><a xlink:href="classfr_1_1softsf_1_1canscan_1_1_can_scan.html#a0f6d45dd57c73833a7d5c968541914ae" target="_top" xlink:title="Generates a QR code image with optional logo and custom styling.">
<polygon fill="white" stroke="#666666" points="365.75,-398 192.25,-398 192.25,-366 365.75,-366 365.75,-398"/>
<text text-anchor="start" x="200.25" y="-384.5" font-family="Helvetica,sans-Serif" font-size="10.00">fr.softsf.canscan.CanScan.generate</text>
<text text-anchor="middle" x="279" y="-372.5" font-family="Helvetica,sans-Serif" font-size="10.00">QrCodeImage</text>
</a>
</g>
</g>
<!-- Node1&#45;&gt;Node3 -->
<g id="edge2_Node000001_Node000003" class="edge">
<title>Node1&#45;&gt;Node3</title>
<g id="a_edge2_Node000001_Node000003"><a xlink:title=" ">
<path fill="none" stroke="#63b8ff" d="M92.48,-154.39C126.52,-196.15 216.68,-306.77 257.46,-356.8"/>
<polygon fill="#63b8ff" stroke="#63b8ff" points="254.71,-358.97 263.74,-364.51 260.14,-354.55 254.71,-358.97"/>
</a>
</g>
</g>
<!-- Node10 -->
<g id="Node000010" class="node">
<title>Node10</title>
<g id="a_Node000010"><a xlink:href="classfr_1_1softsf_1_1canscan_1_1_can_scan.html#abb6acfc2fa4bf839236f0daee33746f7" target="_top" xlink:title="Configuration parameters used to generate a QR code.">
<polygon fill="white" stroke="#666666" points="1182.38,-407 1046.38,-407 1046.38,-375 1182.38,-375 1182.38,-407"/>
<text text-anchor="start" x="1054.38" y="-393.5" font-family="Helvetica,sans-Serif" font-size="10.00">fr.softsf.canscan.CanScan.</text>
<text text-anchor="middle" x="1114.38" y="-381.5" font-family="Helvetica,sans-Serif" font-size="10.00">QrConfig</text>
</a>
</g>
</g>
<!-- Node1&#45;&gt;Node10 -->
<g id="edge42_Node000001_Node000010" class="edge">
<title>Node1&#45;&gt;Node10</title>
<g id="a_edge42_Node000001_Node000010"><a xlink:title=" ">
<path fill="none" stroke="#63b8ff" d="M156.61,-144.69C238.35,-151.16 370.95,-160 485.62,-160 485.62,-160 485.62,-160 695.25,-160 755.4,-160 944.5,-193.39 991.25,-224 1045.13,-259.28 1083.45,-327.06 1101.57,-364.51"/>
<polygon fill="#63b8ff" stroke="#63b8ff" points="1098.27,-365.73 1105.69,-373.28 1104.6,-362.75 1098.27,-365.73"/>
</a>
</g>
</g>
<!-- Node24 -->
<g id="Node000024" class="node">
<title>Node24</title>
<g id="a_Node000024"><a xlink:href="classfr_1_1softsf_1_1canscan_1_1_can_scan.html#ac0d49f57301a8c8f59043863bc967e8e" target="_top" xlink:title="Validates and updates the QR code margin from the corresponding text field.">
<polygon fill="white" stroke="#666666" points="361.62,-132 196.38,-132 196.38,-100 361.62,-100 361.62,-132"/>
<text text-anchor="start" x="204.38" y="-118.5" font-family="Helvetica,sans-Serif" font-size="10.00">fr.softsf.canscan.CanScan.margin</text>
<text text-anchor="middle" x="279" y="-106.5" font-family="Helvetica,sans-Serif" font-size="10.00">FieldCheck</text>
</a>
</g>
</g>
<!-- Node1&#45;&gt;Node24 -->
<g id="edge41_Node000001_Node000024" class="edge">
<title>Node1&#45;&gt;Node24</title>
<g id="a_edge41_Node000001_Node000024"><a xlink:title=" ">
<path fill="none" stroke="#63b8ff" d="M156.58,-129.43C165.81,-128.41 175.3,-127.36 184.72,-126.32"/>
<polygon fill="#63b8ff" stroke="#63b8ff" points="185.09,-129.8 194.65,-125.22 184.32,-122.84 185.09,-129.8"/>
</a>
</g>
</g>
<!-- Node25 -->
<g id="Node000025" class="node">
<title>Node25</title>
<g id="a_Node000025"><a xlink:href="classfr_1_1softsf_1_1canscan_1_1_can_scan.html#a5201d7140d65530451d641d58e0d6f24" target="_top" xlink:title="Validates and updates the image ratio from the corresponding text field.">
<polygon fill="white" stroke="#666666" points="356.38,-82 201.62,-82 201.62,-50 356.38,-50 356.38,-82"/>
<text text-anchor="start" x="209.62" y="-68.5" font-family="Helvetica,sans-Serif" font-size="10.00">fr.softsf.canscan.CanScan.ratio</text>
<text text-anchor="middle" x="279" y="-56.5" font-family="Helvetica,sans-Serif" font-size="10.00">FieldCheck</text>
</a>
</g>
</g>
<!-- Node1&#45;&gt;Node25 -->
<g id="edge43_Node000001_Node000025" class="edge">
<title>Node1&#45;&gt;Node25</title>
<g id="a_edge43_Node000001_Node000025"><a xlink:title=" ">
<path fill="none" stroke="#63b8ff" d="M115.92,-121.51C137.85,-111.98 166.37,-100.12 192.25,-91 197.29,-89.23 202.52,-87.48 207.81,-85.78"/>
<polygon fill="#63b8ff" stroke="#63b8ff" points="208.74,-89.15 217.24,-82.82 206.65,-82.47 208.74,-89.15"/>
</a>
</g>
</g>
<!-- Node26 -->
<g id="Node000026" class="node">
<title>Node26</title>
<g id="a_Node000026"><a xlink:href="classfr_1_1softsf_1_1canscan_1_1_can_scan.html#abc5fbb875d687a36fa7e5ebec1cffab3" target="_top" xlink:title="Validates and returns the QR code size from the corresponding text field.">
<polygon fill="white" stroke="#666666" points="356,-32 202,-32 202,0 356,0 356,-32"/>
<text text-anchor="start" x="210" y="-18.5" font-family="Helvetica,sans-Serif" font-size="10.00">fr.softsf.canscan.CanScan.size</text>
<text text-anchor="middle" x="279" y="-6.5" font-family="Helvetica,sans-Serif" font-size="10.00">FieldCheck</text>
</a>
</g>
</g>
<!-- Node1&#45;&gt;Node26 -->
<g id="edge44_Node000001_Node000026" class="edge">
<title>Node1&#45;&gt;Node26</title>
<g id="a_edge44_Node000001_Node000026"><a xlink:title=" ">
<path fill="none" stroke="#63b8ff" d="M93.63,-121.85C113.76,-100.4 152.21,-62.68 192.25,-41 195.06,-39.48 197.98,-38.04 200.96,-36.68"/>
<polygon fill="#63b8ff" stroke="#63b8ff" points="202.05,-40.02 209.93,-32.94 199.35,-33.56 202.05,-40.02"/>
</a>
</g>
</g>
<!-- Node4 -->
<g id="Node000004" class="node">
<title>Node4</title>
<g id="a_Node000004"><a xlink:href="enumfr_1_1softsf_1_1canscan_1_1util_1_1_checker.html#a38aa8db97b16480c728481f1835da11f" target="_top" xlink:title="Checks if the given object is null in a static context and displays an error dialog if so.">
<polygon fill="white" stroke="#666666" points="991.25,-707 817,-707 817,-675 991.25,-675 991.25,-707"/>
<text text-anchor="start" x="825" y="-693.5" font-family="Helvetica,sans-Serif" font-size="10.00">fr.softsf.canscan.util.Checker.check</text>
<text text-anchor="middle" x="904.12" y="-681.5" font-family="Helvetica,sans-Serif" font-size="10.00">StaticNPE</text>
</a>
</g>
</g>
<!-- Node3&#45;&gt;Node4 -->
<g id="edge3_Node000003_Node000004" class="edge">
<title>Node3&#45;&gt;Node4</title>
<g id="a_edge3_Node000003_Node000004"><a xlink:title=" ">
<path fill="none" stroke="#63b8ff" d="M356.28,-398.23C359.77,-400.76 362.97,-403.66 365.75,-407 415.81,-467.06 346.18,-702 401.75,-757 521.71,-875.71 619.97,-826.52 781,-776 818.86,-764.12 855.26,-735.89 878.31,-715.21"/>
<polygon fill="#63b8ff" stroke="#63b8ff" points="880.66,-717.81 885.65,-708.46 875.92,-712.66 880.66,-717.81"/>
</a>
</g>
</g>
<!-- Node6 -->
<g id="Node000006" class="node">
<title>Node6</title>
<g id="a_Node000006"><a xlink:href="classfr_1_1softsf_1_1canscan_1_1_can_scan.html#a82526318e704277d2a8270264552db6c" target="_top" xlink:title="Creates a QR code matrix for the given text.">
<polygon fill="white" stroke="#666666" points="568.12,-748 405.12,-748 405.12,-716 568.12,-716 568.12,-748"/>
<text text-anchor="start" x="413.12" y="-734.5" font-family="Helvetica,sans-Serif" font-size="10.00">fr.softsf.canscan.CanScan.create</text>
<text text-anchor="middle" x="486.62" y="-722.5" font-family="Helvetica,sans-Serif" font-size="10.00">Matrix</text>
</a>
</g>
</g>
<!-- Node3&#45;&gt;Node6 -->
<g id="edge5_Node000003_Node000006" class="edge">
<title>Node3&#45;&gt;Node6</title>
<g id="a_edge5_Node000003_Node000006"><a xlink:title=" ">
<path fill="none" stroke="#63b8ff" d="M356.15,-398.34C359.67,-400.84 362.91,-403.71 365.75,-407 442.53,-496 342.17,-567.68 401.75,-669 411.54,-685.64 427.6,-699.3 443.06,-709.6"/>
<polygon fill="#63b8ff" stroke="#63b8ff" points="440.94,-712.4 451.27,-714.76 444.67,-706.48 440.94,-712.4"/>
</a>
</g>
</g>
<!-- Node7 -->
<g id="Node000007" class="node">
<title>Node7</title>
<g id="a_Node000007"><a xlink:href="classfr_1_1softsf_1_1canscan_1_1_can_scan.html#a57411c1dc563d6c8a1fdec872ad66877" target="_top" xlink:title="Renders the three QR code finder patterns at the corners using the specified style.">
<polygon fill="white" stroke="#666666" points="565.12,-660 408.12,-660 408.12,-628 565.12,-628 565.12,-660"/>
<text text-anchor="start" x="416.12" y="-646.5" font-family="Helvetica,sans-Serif" font-size="10.00">fr.softsf.canscan.CanScan.draw</text>
<text text-anchor="middle" x="486.62" y="-634.5" font-family="Helvetica,sans-Serif" font-size="10.00">FinderPatterns</text>
</a>
</g>
</g>
<!-- Node3&#45;&gt;Node7 -->
<g id="edge7_Node000003_Node000007" class="edge">
<title>Node3&#45;&gt;Node7</title>
<g id="a_edge7_Node000003_Node000007"><a xlink:title=" ">
<path fill="none" stroke="#63b8ff" d="M354.69,-398.48C358.68,-400.94 362.41,-403.76 365.75,-407 402.97,-443.12 379.17,-471.31 401.75,-518 419.73,-555.17 447.24,-594.19 465.8,-618.77"/>
<polygon fill="#63b8ff" stroke="#63b8ff" points="462.91,-620.75 471.76,-626.56 468.47,-616.49 462.91,-620.75"/>
</a>
</g>
</g>
<!-- Node3&#45;&gt;Node10 -->
<g id="edge37_Node000003_Node000010" class="edge">
<title>Node3&#45;&gt;Node10</title>
<g id="a_edge37_Node000003_Node000010"><a xlink:title=" ">
<path fill="none" stroke="#63b8ff" d="M287.52,-365.53C303.35,-333.07 343.51,-261.33 401.75,-231 551.35,-153.1 617.21,-176.72 781,-217 901.18,-246.55 1026.06,-328.09 1082.46,-368.17"/>
<polygon fill="#63b8ff" stroke="#63b8ff" points="1080.15,-370.82 1090.32,-373.8 1084.23,-365.13 1080.15,-370.82"/>
</a>
</g>
</g>
<!-- Node11 -->
<g id="Node000011" class="node">
<title>Node11</title>
<g id="a_Node000011"><a xlink:href="classfr_1_1softsf_1_1canscan_1_1_can_scan.html#ada7babf06b5adade313f5236f040a383" target="_top" xlink:title="Draws the logo at the center of the QR code if a valid logo file is provided.">
<polygon fill="white" stroke="#666666" points="772.75,-572 615.75,-572 615.75,-540 772.75,-540 772.75,-572"/>
<text text-anchor="start" x="623.75" y="-558.5" font-family="Helvetica,sans-Serif" font-size="10.00">fr.softsf.canscan.CanScan.draw</text>
<text text-anchor="middle" x="694.25" y="-546.5" font-family="Helvetica,sans-Serif" font-size="10.00">LogoIfPresent</text>
</a>
</g>
</g>
<!-- Node3&#45;&gt;Node11 -->
<g id="edge15_Node000003_Node000011" class="edge">
<title>Node3&#45;&gt;Node11</title>
<g id="a_edge15_Node000003_Node000011"><a xlink:title=" ">
<path fill="none" stroke="#63b8ff" d="M345.05,-398.38C352.17,-400.93 359.2,-403.8 365.75,-407 383.48,-415.67 384.67,-423.11 401.75,-433 488.59,-483.3 514.33,-488.73 607.5,-526 615.83,-529.33 624.69,-532.66 633.43,-535.83"/>
<polygon fill="#63b8ff" stroke="#63b8ff" points="631.98,-539.03 642.57,-539.09 634.33,-532.44 631.98,-539.03"/>
</a>
</g>
</g>
<!-- Node12 -->
<g id="Node000012" class="node">
<title>Node12</title>
<g id="a_Node000012"><a xlink:href="classfr_1_1softsf_1_1canscan_1_1_can_scan.html#a9bec7e01bac5ab7e6ef38f704d903f7f" target="_top" xlink:title="Renders all QR code modules onto the provided graphics context.">
<polygon fill="white" stroke="#666666" points="565.12,-424 408.12,-424 408.12,-392 565.12,-392 565.12,-424"/>
<text text-anchor="start" x="416.12" y="-410.5" font-family="Helvetica,sans-Serif" font-size="10.00">fr.softsf.canscan.CanScan.draw</text>
<text text-anchor="middle" x="486.62" y="-398.5" font-family="Helvetica,sans-Serif" font-size="10.00">Modules</text>
</a>
</g>
</g>
<!-- Node3&#45;&gt;Node12 -->
<g id="edge18_Node000003_Node000012" class="edge">
<title>Node3&#45;&gt;Node12</title>
<g id="a_edge18_Node000003_Node000012"><a xlink:title=" ">
<path fill="none" stroke="#63b8ff" d="M366.01,-392.88C376.09,-394.15 386.38,-395.45 396.5,-396.73"/>
<polygon fill="#63b8ff" stroke="#63b8ff" points="395.96,-400.19 406.32,-397.97 396.84,-393.25 395.96,-400.19"/>
</a>
</g>
</g>
<!-- Node20 -->
<g id="Node000020" class="node">
<title>Node20</title>
<g id="a_Node000020"><a xlink:href="classfr_1_1softsf_1_1canscan_1_1_can_scan.html#a070e10a2c703a908c63b30821cdcb4b1" target="_top" xlink:title="Estimates the memory required to create a BufferedImage.">
<polygon fill="white" stroke="#666666" points="781,-258 607.5,-258 607.5,-226 781,-226 781,-258"/>
<text text-anchor="start" x="615.5" y="-244.5" font-family="Helvetica,sans-Serif" font-size="10.00">fr.softsf.canscan.CanScan.estimate</text>
<text text-anchor="middle" x="694.25" y="-232.5" font-family="Helvetica,sans-Serif" font-size="10.00">ImageMemoryMB</text>
</a>
</g>
</g>
<!-- Node3&#45;&gt;Node20 -->
<g id="edge33_Node000003_Node000020" class="edge">
<title>Node3&#45;&gt;Node20</title>
<g id="a_edge33_Node000003_Node000020"><a xlink:title=" ">
<path fill="none" stroke="#63b8ff" d="M291.26,-365.87C310.49,-339.8 352.4,-289.11 401.75,-267 462.37,-239.84 537.13,-233.9 595.76,-234.6"/>
<polygon fill="#63b8ff" stroke="#63b8ff" points="595.68,-238.1 605.75,-234.79 595.82,-231.1 595.68,-238.1"/>
</a>
</g>
</g>
<!-- Node21 -->
<g id="Node000021" class="node">
<title>Node21</title>
<g id="a_Node000021"><a xlink:href="classfr_1_1softsf_1_1canscan_1_1_can_scan.html#a81256a8e00a35676330af2e8542acf51" target="_top" xlink:title="Fills the entire QR code area with the specified background color.">
<polygon fill="white" stroke="#666666" points="559.5,-874 413.75,-874 413.75,-842 559.5,-842 559.5,-874"/>
<text text-anchor="start" x="421.75" y="-860.5" font-family="Helvetica,sans-Serif" font-size="10.00">fr.softsf.canscan.CanScan.fill</text>
<text text-anchor="middle" x="486.62" y="-848.5" font-family="Helvetica,sans-Serif" font-size="10.00">Background</text>
</a>
</g>
</g>
<!-- Node3&#45;&gt;Node21 -->
<g id="edge34_Node000003_Node000021" class="edge">
<title>Node3&#45;&gt;Node21</title>
<g id="a_edge34_Node000003_Node000021"><a xlink:title=" ">
<path fill="none" stroke="#63b8ff" d="M356.72,-398.45C360.05,-400.93 363.1,-403.76 365.75,-407 425.24,-479.64 344.45,-753.61 401.75,-828 403.74,-830.58 405.97,-832.95 408.39,-835.11"/>
<polygon fill="#63b8ff" stroke="#63b8ff" points="405.94,-837.64 416.05,-840.79 410.11,-832.02 405.94,-837.64"/>
</a>
</g>
</g>
<!-- Node22 -->
<g id="Node000022" class="node">
<title>Node22</title>
<g id="a_Node000022"><a xlink:href="classfr_1_1softsf_1_1canscan_1_1_can_scan.html#a734f691ae3eeecc255c1e43c4f9edb8c" target="_top" xlink:title="Gets the available memory in the JVM.">
<polygon fill="white" stroke="#666666" points="769,-308 619.5,-308 619.5,-276 769,-276 769,-308"/>
<text text-anchor="start" x="627.5" y="-294.5" font-family="Helvetica,sans-Serif" font-size="10.00">fr.softsf.canscan.CanScan.get</text>
<text text-anchor="middle" x="694.25" y="-282.5" font-family="Helvetica,sans-Serif" font-size="10.00">AvailableMemoryMB</text>
</a>
</g>
</g>
<!-- Node3&#45;&gt;Node22 -->
<g id="edge36_Node000003_Node000022" class="edge">
<title>Node3&#45;&gt;Node22</title>
<g id="a_edge36_Node000003_Node000022"><a xlink:title=" ">
<path fill="none" stroke="#63b8ff" d="M355.32,-365.6C426.62,-350.07 533.54,-326.78 607.95,-310.58"/>
<polygon fill="#63b8ff" stroke="#63b8ff" points="608.64,-314.01 617.67,-308.46 607.15,-307.17 608.64,-314.01"/>
</a>
</g>
</g>
<!-- Node23 -->
<g id="Node000023" class="node">
<title>Node23</title>
<g id="a_Node000023"><a xlink:href="classfr_1_1softsf_1_1canscan_1_1_can_scan.html#a8919d8945854ca9cd798a20e9f076bff" target="_top" xlink:title="Validates that sufficient memory is available to generate a square image of the given size.">
<polygon fill="white" stroke="#666666" points="571.5,-308 401.75,-308 401.75,-276 571.5,-276 571.5,-308"/>
<text text-anchor="start" x="409.75" y="-294.5" font-family="Helvetica,sans-Serif" font-size="10.00">fr.softsf.canscan.CanScan.validate</text>
<text text-anchor="middle" x="486.62" y="-282.5" font-family="Helvetica,sans-Serif" font-size="10.00">MemoryForImageSize</text>
</a>
</g>
</g>
<!-- Node3&#45;&gt;Node23 -->
<g id="edge38_Node000003_Node000023" class="edge">
<title>Node3&#45;&gt;Node23</title>
<g id="a_edge38_Node000003_Node000023"><a xlink:title=" ">
<path fill="none" stroke="#63b8ff" d="M317.24,-365.7C350.94,-350.95 400.79,-329.13 437.51,-313.06"/>
<polygon fill="#63b8ff" stroke="#63b8ff" points="438.83,-316.3 446.58,-309.09 436.02,-309.89 438.83,-316.3"/>
</a>
</g>
</g>
<!-- Node5 -->
<g id="Node000005" class="node">
<title>Node5</title>
<g id="a_Node000005"><a xlink:href="enumfr_1_1softsf_1_1canscan_1_1util_1_1_checker.html#af3fc9dd2a33f4d12c5db8cf2aeea17d7" target="_top" xlink:title="Validates that the given object is non&#45;null and, if a String, not blank.">
<polygon fill="white" stroke="#666666" points="1201.5,-732 1027.25,-732 1027.25,-700 1201.5,-700 1201.5,-732"/>
<text text-anchor="start" x="1035.25" y="-718.5" font-family="Helvetica,sans-Serif" font-size="10.00">fr.softsf.canscan.util.Checker.check</text>
<text text-anchor="middle" x="1114.38" y="-706.5" font-family="Helvetica,sans-Serif" font-size="10.00">NullOrBlankInternal</text>
</a>
</g>
</g>
<!-- Node4&#45;&gt;Node5 -->
<g id="edge4_Node000004_Node000005" class="edge">
<title>Node4&#45;&gt;Node5</title>
<g id="a_edge4_Node000004_Node000005"><a xlink:title=" ">
<path fill="none" stroke="#63b8ff" d="M991.63,-701.39C999.53,-702.33 1007.57,-703.3 1015.56,-704.26"/>
<polygon fill="#63b8ff" stroke="#63b8ff" points="1014.95,-707.71 1025.3,-705.43 1015.79,-700.76 1014.95,-707.71"/>
</a>
</g>
</g>
<!-- Node6&#45;&gt;Node4 -->
<g id="edge6_Node000006_Node000004" class="edge">
<title>Node6&#45;&gt;Node4</title>
<g id="a_edge6_Node000006_Node000004"><a xlink:title=" ">
<path fill="none" stroke="#63b8ff" d="M547.28,-748.44C607.23,-762.32 701.83,-777.02 781,-757 814.12,-748.62 848,-729.29 871.65,-713.7"/>
<polygon fill="#63b8ff" stroke="#63b8ff" points="873.55,-716.64 879.88,-708.14 869.63,-710.84 873.55,-716.64"/>
</a>
</g>
</g>
<!-- Node7&#45;&gt;Node4 -->
<g id="edge8_Node000007_Node000004" class="edge">
<title>Node7&#45;&gt;Node4</title>
<g id="a_edge8_Node000007_Node000004"><a xlink:title=" ">
<path fill="none" stroke="#63b8ff" d="M558.98,-660.48C574.88,-663.71 591.71,-666.78 607.5,-669 673.19,-678.25 747.69,-683.77 805.46,-686.96"/>
<polygon fill="#63b8ff" stroke="#63b8ff" points="805.1,-690.44 815.27,-687.49 805.47,-683.45 805.1,-690.44"/>
</a>
</g>
</g>
<!-- Node8 -->
<g id="Node000008" class="node">
<title>Node8</title>
<g id="a_Node000008"><a xlink:href="classfr_1_1softsf_1_1canscan_1_1_can_scan.html#ad07293248fd94f28e8840a4127591c74" target="_top" xlink:title="Draws a QR code finder pattern with rounded corners at the specified pixel coordinates.">
<polygon fill="white" stroke="#666666" points="772.75,-660 615.75,-660 615.75,-628 772.75,-628 772.75,-660"/>
<text text-anchor="start" x="623.75" y="-646.5" font-family="Helvetica,sans-Serif" font-size="10.00">fr.softsf.canscan.CanScan.draw</text>
<text text-anchor="middle" x="694.25" y="-634.5" font-family="Helvetica,sans-Serif" font-size="10.00">RoundedFinderPatternAtPixel</text>
</a>
</g>
</g>
<!-- Node7&#45;&gt;Node8 -->
<g id="edge9_Node000007_Node000008" class="edge">
<title>Node7&#45;&gt;Node8</title>
<g id="a_edge9_Node000007_Node000008"><a xlink:title=" ">
<path fill="none" stroke="#63b8ff" d="M565.36,-644C578.03,-644 591.24,-644 604.15,-644"/>
<polygon fill="#63b8ff" stroke="#63b8ff" points="603.89,-647.5 613.89,-644 603.89,-640.5 603.89,-647.5"/>
</a>
</g>
</g>
<!-- Node9 -->
<g id="Node000009" class="node">
<title>Node9</title>
<g id="a_Node000009"><a xlink:href="classfr_1_1softsf_1_1canscan_1_1_can_scan.html#a52d47c63db292c6e4c9170ff3f110372" target="_top" xlink:title="Draws a standard square QR code finder pattern at the specified pixel coordinates.">
<polygon fill="white" stroke="#666666" points="772.75,-748 615.75,-748 615.75,-716 772.75,-716 772.75,-748"/>
<text text-anchor="start" x="623.75" y="-734.5" font-family="Helvetica,sans-Serif" font-size="10.00">fr.softsf.canscan.CanScan.draw</text>
<text text-anchor="middle" x="694.25" y="-722.5" font-family="Helvetica,sans-Serif" font-size="10.00">SquareFinderPatternAtPixel</text>
</a>
</g>
</g>
<!-- Node7&#45;&gt;Node9 -->
<g id="edge11_Node000007_Node000009" class="edge">
<title>Node7&#45;&gt;Node9</title>
<g id="a_edge11_Node000007_Node000009"><a xlink:title=" ">
<path fill="none" stroke="#63b8ff" d="M518.98,-660.39C542.9,-672.59 576.86,-689.28 607.5,-702 615.49,-705.32 623.99,-708.59 632.42,-711.69"/>
<polygon fill="#63b8ff" stroke="#63b8ff" points="630.99,-714.89 641.59,-714.99 633.36,-708.31 630.99,-714.89"/>
</a>
</g>
</g>
<!-- Node7&#45;&gt;Node10 -->
<g id="edge13_Node000007_Node000010" class="edge">
<title>Node7&#45;&gt;Node10</title>
<g id="a_edge13_Node000007_Node000010"><a xlink:title=" ">
<path fill="none" stroke="#63b8ff" d="M565.59,-627.65C648.95,-610.1 770.64,-584.3 781,-581 877.86,-550.19 904.35,-543.72 991.25,-491 1027.61,-468.94 1064.76,-436.88 1088.38,-415.05"/>
<polygon fill="#63b8ff" stroke="#63b8ff" points="1090.73,-417.65 1095.64,-408.26 1085.95,-412.54 1090.73,-417.65"/>
</a>
</g>
</g>
<!-- Node8&#45;&gt;Node4 -->
<g id="edge10_Node000008_Node000004" class="edge">
<title>Node8&#45;&gt;Node4</title>
<g id="a_edge10_Node000008_Node000004"><a xlink:title=" ">
<path fill="none" stroke="#63b8ff" d="M767.95,-660.44C784.57,-664.2 802.36,-668.22 819.4,-672.07"/>
<polygon fill="#63b8ff" stroke="#63b8ff" points="818.46,-675.45 828.99,-674.24 820,-668.62 818.46,-675.45"/>
</a>
</g>
</g>
<!-- Node9&#45;&gt;Node4 -->
<g id="edge12_Node000009_Node000004" class="edge">
<title>Node9&#45;&gt;Node4</title>
<g id="a_edge12_Node000009_Node000004"><a xlink:title=" ">
<path fill="none" stroke="#63b8ff" d="M773.25,-716.62C784.68,-714.36 796.57,-712.02 808.3,-709.7"/>
<polygon fill="#63b8ff" stroke="#63b8ff" points="808.86,-713.16 817.99,-707.79 807.5,-706.29 808.86,-713.16"/>
</a>
</g>
</g>
<!-- Node10&#45;&gt;Node10 -->
<g id="edge14_Node000010_Node000010" class="edge">
<title>Node10&#45;&gt;Node10</title>
<g id="a_edge14_Node000010_Node000010"><a xlink:title=" ">
<path fill="none" stroke="#63b8ff" d="M1076.84,-407.44C1069.83,-416.58 1082.34,-425 1114.38,-425 1132.14,-425 1143.9,-422.41 1149.66,-418.54"/>
<polygon fill="#63b8ff" stroke="#63b8ff" points="1153.05,-419.42 1151.61,-408.93 1146.19,-418.03 1153.05,-419.42"/>
</a>
</g>
</g>
<!-- Node11&#45;&gt;Node4 -->
<g id="edge16_Node000011_Node000004" class="edge">
<title>Node11&#45;&gt;Node4</title>
<g id="a_edge16_Node000011_Node000004"><a xlink:title=" ">
<path fill="none" stroke="#63b8ff" d="M721.51,-572.44C739.3,-584.24 762.79,-601.15 781,-619 799.79,-637.42 795.28,-651.15 817,-666 818.78,-667.22 820.63,-668.38 822.52,-669.48"/>
<polygon fill="#63b8ff" stroke="#63b8ff" points="820.48,-672.37 830.97,-673.86 823.7,-666.16 820.48,-672.37"/>
</a>
</g>
</g>
<!-- Node11&#45;&gt;Node10 -->
<g id="edge17_Node000011_Node000010" class="edge">
<title>Node11&#45;&gt;Node10</title>
<g id="a_edge17_Node000011_Node000010"><a xlink:title=" ">
<path fill="none" stroke="#63b8ff" d="M741.71,-539.51C800.28,-518.52 903.85,-480.68 991.25,-445 1016.54,-434.68 1044.43,-422.41 1067.16,-412.19"/>
<polygon fill="#63b8ff" stroke="#63b8ff" points="1068.49,-415.43 1076.16,-408.12 1065.6,-409.05 1068.49,-415.43"/>
</a>
</g>
</g>
<!-- Node12&#45;&gt;Node4 -->
<g id="edge19_Node000012_Node000004" class="edge">
<title>Node12&#45;&gt;Node4</title>
<g id="a_edge19_Node000012_Node000004"><a xlink:title=" ">
<path fill="none" stroke="#63b8ff" d="M564.74,-424.45C567.09,-425.85 569.35,-427.36 571.5,-429 597.44,-448.8 581.26,-473.59 607.5,-493 670.96,-539.95 723.94,-476.45 781,-531 825.89,-573.91 773.57,-621.61 817,-666 817.49,-666.5 818,-667 818.51,-667.48"/>
<polygon fill="#63b8ff" stroke="#63b8ff" points="816.28,-670.18 826.32,-673.57 820.58,-664.66 816.28,-670.18"/>
</a>
</g>
</g>
<!-- Node12&#45;&gt;Node10 -->
<g id="edge25_Node000012_Node000010" class="edge">
<title>Node12&#45;&gt;Node10</title>
<g id="a_edge25_Node000012_Node000010"><a xlink:title=" ">
<path fill="none" stroke="#63b8ff" d="M565.46,-391.91C579.42,-389.35 593.86,-386.92 607.5,-385 776.59,-361.17 821.36,-348.79 991.25,-366 1005.49,-367.44 1020.53,-369.81 1034.99,-372.52"/>
<polygon fill="#63b8ff" stroke="#63b8ff" points="1033.95,-375.89 1044.44,-374.37 1035.29,-369.02 1033.95,-375.89"/>
</a>
</g>
</g>
<!-- Node13 -->
<g id="Node000013" class="node">
<title>Node13</title>
<g id="a_Node000013"><a xlink:href="classfr_1_1softsf_1_1canscan_1_1_can_scan.html#a27947dca81e478496f857b5a1b1fece1" target="_top" xlink:title="Draws a single QR code module at the specified coordinates with configured size and shape.">
<polygon fill="white" stroke="#666666" points="772.75,-484 615.75,-484 615.75,-452 772.75,-452 772.75,-484"/>
<text text-anchor="start" x="623.75" y="-470.5" font-family="Helvetica,sans-Serif" font-size="10.00">fr.softsf.canscan.CanScan.draw</text>
<text text-anchor="middle" x="694.25" y="-458.5" font-family="Helvetica,sans-Serif" font-size="10.00">Module</text>
</a>
</g>
</g>
<!-- Node12&#45;&gt;Node13 -->
<g id="edge20_Node000012_Node000013" class="edge">
<title>Node12&#45;&gt;Node13</title>
<g id="a_edge20_Node000012_Node000013"><a xlink:title=" ">
<path fill="none" stroke="#63b8ff" d="M544.03,-424.47C564.07,-430.33 586.79,-436.96 607.5,-443 613.6,-444.78 619.95,-446.63 626.31,-448.49"/>
<polygon fill="#63b8ff" stroke="#63b8ff" points="624.94,-451.73 635.52,-451.17 626.9,-445.01 624.94,-451.73"/>
</a>
</g>
</g>
<!-- Node14 -->
<g id="Node000014" class="node">
<title>Node14</title>
<g id="a_Node000014"><a xlink:href="classfr_1_1softsf_1_1canscan_1_1_can_scan.html#a484c9ff5ae69812c69d4318735f32130" target="_top" xlink:title="Encapsulates contextual data for module rendering decisions.">
<polygon fill="white" stroke="#666666" points="972.12,-407 836.12,-407 836.12,-375 972.12,-375 972.12,-407"/>
<text text-anchor="start" x="844.12" y="-393.5" font-family="Helvetica,sans-Serif" font-size="10.00">fr.softsf.canscan.CanScan.</text>
<text text-anchor="middle" x="904.12" y="-381.5" font-family="Helvetica,sans-Serif" font-size="10.00">ModuleContext</text>
</a>
</g>
</g>
<!-- Node12&#45;&gt;Node14 -->
<g id="edge23_Node000012_Node000014" class="edge">
<title>Node12&#45;&gt;Node14</title>
<g id="a_edge23_Node000012_Node000014"><a xlink:title=" ">
<path fill="none" stroke="#63b8ff" d="M565.52,-396.9C579.47,-395.3 593.9,-393.89 607.5,-393 680.99,-388.17 764.98,-388.13 824.61,-389.02"/>
<polygon fill="#63b8ff" stroke="#63b8ff" points="824.26,-392.52 834.31,-389.18 824.37,-385.52 824.26,-392.52"/>
</a>
</g>
</g>
<!-- Node15 -->
<g id="Node000015" class="node">
<title>Node15</title>
<g id="a_Node000015"><a xlink:href="classfr_1_1softsf_1_1canscan_1_1_can_scan.html#ad9893ec413ee4e8987dc7719d1bd9596" target="_top" xlink:title="Determines whether a QR code module should be skipped during rendering.">
<polygon fill="white" stroke="#666666" points="776.5,-434 612,-434 612,-402 776.5,-402 776.5,-434"/>
<text text-anchor="start" x="620" y="-420.5" font-family="Helvetica,sans-Serif" font-size="10.00">fr.softsf.canscan.CanScan.should</text>
<text text-anchor="middle" x="694.25" y="-408.5" font-family="Helvetica,sans-Serif" font-size="10.00">SkipModule</text>
</a>
</g>
</g>
<!-- Node12&#45;&gt;Node15 -->
<g id="edge26_Node000012_Node000015" class="edge">
<title>Node12&#45;&gt;Node15</title>
<g id="a_edge26_Node000012_Node000015"><a xlink:title=" ">
<path fill="none" stroke="#63b8ff" d="M565.36,-411.78C576.83,-412.34 588.73,-412.92 600.46,-413.49"/>
<polygon fill="#63b8ff" stroke="#63b8ff" points="599.96,-416.97 610.12,-413.96 600.3,-409.98 599.96,-416.97"/>
</a>
</g>
</g>
<!-- Node13&#45;&gt;Node4 -->
<g id="edge21_Node000013_Node000004" class="edge">
<title>Node13&#45;&gt;Node4</title>
<g id="a_edge21_Node000013_Node000004"><a xlink:title=" ">
<path fill="none" stroke="#63b8ff" d="M764,-484.46C770.36,-488.1 776.2,-492.56 781,-498 831.5,-555.27 764.97,-610.11 817,-666 817.48,-666.52 817.97,-667.02 818.47,-667.52"/>
<polygon fill="#63b8ff" stroke="#63b8ff" points="816.17,-670.16 826.15,-673.73 820.58,-664.72 816.17,-670.16"/>
</a>
</g>
</g>
<!-- Node13&#45;&gt;Node10 -->
<g id="edge22_Node000013_Node000010" class="edge">
<title>Node13&#45;&gt;Node10</title>
<g id="a_edge22_Node000013_Node000010"><a xlink:title=" ">
<path fill="none" stroke="#63b8ff" d="M772.95,-454.96C832.72,-444.79 917.31,-430.06 991.25,-416 1005.4,-413.31 1020.44,-410.33 1034.96,-407.39"/>
<polygon fill="#63b8ff" stroke="#63b8ff" points="1035.35,-410.88 1044.45,-405.46 1033.95,-404.02 1035.35,-410.88"/>
</a>
</g>
</g>
<!-- Node14&#45;&gt;Node10 -->
<g id="edge24_Node000014_Node000010" class="edge">
<title>Node14&#45;&gt;Node10</title>
<g id="a_edge24_Node000014_Node000010"><a xlink:title=" ">
<path fill="none" stroke="#63b8ff" d="M972.45,-391C992.21,-391 1014,-391 1034.42,-391"/>
<polygon fill="#63b8ff" stroke="#63b8ff" points="1034.41,-394.5 1044.41,-391 1034.41,-387.5 1034.41,-394.5"/>
</a>
</g>
</g>
<!-- Node15&#45;&gt;Node4 -->
<g id="edge27_Node000015_Node000004" class="edge">
<title>Node15&#45;&gt;Node4</title>
<g id="a_edge27_Node000015_Node000004"><a xlink:title=" ">
<path fill="none" stroke="#63b8ff" d="M771.31,-434.42C774.85,-436.9 778.13,-439.75 781,-443 847.47,-518.24 750.49,-590.8 817,-666 817.36,-666.41 817.73,-666.81 818.1,-667.21"/>
<polygon fill="#63b8ff" stroke="#63b8ff" points="815.72,-669.77 825.59,-673.62 820.27,-664.45 815.72,-669.77"/>
</a>
</g>
</g>
<!-- Node15&#45;&gt;Node14 -->
<g id="edge32_Node000015_Node000014" class="edge">
<title>Node15&#45;&gt;Node14</title>
<g id="a_edge32_Node000015_Node000014"><a xlink:title=" ">
<path fill="none" stroke="#63b8ff" d="M776.81,-407.41C792.55,-405.36 809.02,-403.22 824.66,-401.19"/>
<polygon fill="#63b8ff" stroke="#63b8ff" points="824.91,-404.69 834.38,-399.93 824.01,-397.75 824.91,-404.69"/>
</a>
</g>
</g>
<!-- Node16 -->
<g id="Node000016" class="node">
<title>Node16</title>
<g id="a_Node000016"><a xlink:href="classfr_1_1softsf_1_1canscan_1_1_can_scan.html#a940bd22cc9e8523e3f60bf19efb91129" target="_top" xlink:title="Determines whether the given coordinates fall within any of the three QR code position patterns.">
<polygon fill="white" stroke="#666666" points="975.88,-657 832.38,-657 832.38,-625 975.88,-625 975.88,-657"/>
<text text-anchor="start" x="840.38" y="-643.5" font-family="Helvetica,sans-Serif" font-size="10.00">fr.softsf.canscan.CanScan.is</text>
<text text-anchor="middle" x="904.12" y="-631.5" font-family="Helvetica,sans-Serif" font-size="10.00">InPositionPattern</text>
</a>
</g>
</g>
<!-- Node15&#45;&gt;Node16 -->
<g id="edge28_Node000015_Node000016" class="edge">
<title>Node15&#45;&gt;Node16</title>
<g id="a_edge28_Node000015_Node000016"><a xlink:title=" ">
<path fill="none" stroke="#63b8ff" d="M766.98,-434.37C771.94,-436.85 776.68,-439.71 781,-443 840.3,-488.17 877.58,-571.13 893.76,-613.91"/>
<polygon fill="#63b8ff" stroke="#63b8ff" points="890.43,-615 897.16,-623.18 897,-612.59 890.43,-615"/>
</a>
</g>
</g>
<!-- Node17 -->
<g id="Node000017" class="node">
<title>Node17</title>
<g id="a_Node000017"><a xlink:href="classfr_1_1softsf_1_1canscan_1_1_can_scan.html#abf3dc1201aa081507d7a0229e3c798e4" target="_top" xlink:title="Checks if coordinates are within the bottom&#45;left position pattern.">
<polygon fill="white" stroke="#666666" points="1186.12,-582 1042.62,-582 1042.62,-550 1186.12,-550 1186.12,-582"/>
<text text-anchor="start" x="1050.62" y="-568.5" font-family="Helvetica,sans-Serif" font-size="10.00">fr.softsf.canscan.CanScan.is</text>
<text text-anchor="middle" x="1114.38" y="-556.5" font-family="Helvetica,sans-Serif" font-size="10.00">InBottomLeftPattern</text>
</a>
</g>
</g>
<!-- Node16&#45;&gt;Node17 -->
<g id="edge29_Node000016_Node000017" class="edge">
<title>Node16&#45;&gt;Node17</title>
<g id="a_edge29_Node000016_Node000017"><a xlink:title=" ">
<path fill="none" stroke="#63b8ff" d="M956.7,-624.66C968.22,-620.56 980.27,-615.92 991.25,-611 1007.95,-603.52 1010.35,-598.04 1027.25,-591 1031.34,-589.3 1035.58,-587.66 1039.89,-586.11"/>
<polygon fill="#63b8ff" stroke="#63b8ff" points="1040.95,-589.44 1049.27,-582.88 1038.68,-582.82 1040.95,-589.44"/>
</a>
</g>
</g>
<!-- Node18 -->
<g id="Node000018" class="node">
<title>Node18</title>
<g id="a_Node000018"><a xlink:href="classfr_1_1softsf_1_1canscan_1_1_can_scan.html#a169bc46f13cb9990c8629fdd13abf182" target="_top" xlink:title="Checks if coordinates are within the top&#45;left position pattern.">
<polygon fill="white" stroke="#666666" points="1186.12,-682 1042.62,-682 1042.62,-650 1186.12,-650 1186.12,-682"/>
<text text-anchor="start" x="1050.62" y="-668.5" font-family="Helvetica,sans-Serif" font-size="10.00">fr.softsf.canscan.CanScan.is</text>
<text text-anchor="middle" x="1114.38" y="-656.5" font-family="Helvetica,sans-Serif" font-size="10.00">InTopLeftPattern</text>
</a>
</g>
</g>
<!-- Node16&#45;&gt;Node18 -->
<g id="edge30_Node000016_Node000018" class="edge">
<title>Node16&#45;&gt;Node18</title>
<g id="a_edge30_Node000016_Node000018"><a xlink:title=" ">
<path fill="none" stroke="#63b8ff" d="M976.21,-649.53C993.79,-651.64 1012.77,-653.92 1030.84,-656.09"/>
<polygon fill="#63b8ff" stroke="#63b8ff" points="1030.41,-659.57 1040.75,-657.28 1031.24,-652.61 1030.41,-659.57"/>
</a>
</g>
</g>
<!-- Node19 -->
<g id="Node000019" class="node">
<title>Node19</title>
<g id="a_Node000019"><a xlink:href="classfr_1_1softsf_1_1canscan_1_1_can_scan.html#a12dfb700fa0b93fec09bf799ef2a917f" target="_top" xlink:title="Checks if coordinates are within the top&#45;right position pattern.">
<polygon fill="white" stroke="#666666" points="1186.12,-632 1042.62,-632 1042.62,-600 1186.12,-600 1186.12,-632"/>
<text text-anchor="start" x="1050.62" y="-618.5" font-family="Helvetica,sans-Serif" font-size="10.00">fr.softsf.canscan.CanScan.is</text>
<text text-anchor="middle" x="1114.38" y="-606.5" font-family="Helvetica,sans-Serif" font-size="10.00">InTopRightPattern</text>
</a>
</g>
</g>
<!-- Node16&#45;&gt;Node19 -->
<g id="edge31_Node000016_Node000019" class="edge">
<title>Node16&#45;&gt;Node19</title>
<g id="a_edge31_Node000016_Node000019"><a xlink:title=" ">
<path fill="none" stroke="#63b8ff" d="M976.21,-632.47C993.79,-630.36 1012.77,-628.08 1030.84,-625.91"/>
<polygon fill="#63b8ff" stroke="#63b8ff" points="1031.24,-629.39 1040.75,-624.72 1030.41,-622.43 1031.24,-629.39"/>
</a>
</g>
</g>
<!-- Node21&#45;&gt;Node4 -->
<g id="edge35_Node000021_Node000004" class="edge">
<title>Node21&#45;&gt;Node4</title>
<g id="a_edge35_Node000021_Node000004"><a xlink:title=" ">
<path fill="none" stroke="#63b8ff" d="M559.84,-864.73C621.86,-867.32 711.93,-863.29 781,-828 830.16,-802.89 868.71,-749.02 888.5,-716.82"/>
<polygon fill="#63b8ff" stroke="#63b8ff" points="891.36,-718.87 893.48,-708.49 885.35,-715.27 891.36,-718.87"/>
</a>
</g>
</g>
<!-- Node23&#45;&gt;Node20 -->
<g id="edge39_Node000023_Node000020" class="edge">
<title>Node23&#45;&gt;Node20</title>
<g id="a_edge39_Node000023_Node000020"><a xlink:title=" ">
<path fill="none" stroke="#63b8ff" d="M555.24,-275.56C574.21,-270.95 595,-265.89 614.56,-261.13"/>
<polygon fill="#63b8ff" stroke="#63b8ff" points="615.23,-264.57 624.12,-258.81 613.58,-257.77 615.23,-264.57"/>
</a>
</g>
</g>
<!-- Node23&#45;&gt;Node22 -->
<g id="edge40_Node000023_Node000022" class="edge">
<title>Node23&#45;&gt;Node22</title>
<g id="a_edge40_Node000023_Node000022"><a xlink:title=" ">
<path fill="none" stroke="#63b8ff" d="M571.85,-292C583.7,-292 595.9,-292 607.77,-292"/>
<polygon fill="#63b8ff" stroke="#63b8ff" points="607.52,-295.5 617.52,-292 607.52,-288.5 607.52,-295.5"/>
</a>
</g>
</g>
</g>
</svg>
