<?xml version="1.0" encoding="UTF-8" standalone="no"?>
<!DOCTYPE svg PUBLIC "-//W3C//DTD SVG 1.1//EN"
 "http://www.w3.org/Graphics/SVG/1.1/DTD/svg11.dtd">
<!-- Generated by graphviz version 12.2.1 (20241206.2353)
 -->
<!-- Title: fr.softsf.canscan.CanScan.getManifestKeys Pages: 1 -->
<svg width="1403pt" height="450pt"
 viewBox="0.00 0.00 1403.25 450.00" xmlns="http://www.w3.org/2000/svg" xmlns:xlink="http://www.w3.org/1999/xlink">
<g id="graph0" class="graph" transform="scale(1 1) rotate(0) translate(4 446)">
<title>fr.softsf.canscan.CanScan.getManifestKeys</title>
<!-- Node1 -->
<g id="Node000001" class="node">
<title>Node1</title>
<g id="a_Node000001"><a xlink:title="Loads application metadata from version.properties.">
<polygon fill="#999999" stroke="#666666" points="149.5,-107 0,-107 0,-75 149.5,-75 149.5,-107"/>
<text text-anchor="start" x="8" y="-93.5" font-family="Helvetica,sans-Serif" font-size="10.00">fr.softsf.canscan.CanScan.get</text>
<text text-anchor="middle" x="74.75" y="-81.5" font-family="Helvetica,sans-Serif" font-size="10.00">ManifestKeys</text>
</a>
</g>
</g>
<!-- Node2 -->
<g id="Node000002" class="node">
<title>Node2</title>
<g id="a_Node000002"><a xlink:href="classfr_1_1softsf_1_1canscan_1_1_can_scan.html#a102bcbc6cda608b642e870ba3fde6344" target="_top" xlink:title="Initializes the CanScan GUI.">
<polygon fill="white" stroke="#666666" points="321.5,-157 185.5,-157 185.5,-125 321.5,-125 321.5,-157"/>
<text text-anchor="start" x="193.5" y="-143.5" font-family="Helvetica,sans-Serif" font-size="10.00">fr.softsf.canscan.CanScan.</text>
<text text-anchor="middle" x="253.5" y="-131.5" font-family="Helvetica,sans-Serif" font-size="10.00">CanScan</text>
</a>
</g>
</g>
<!-- Node1&#45;&gt;Node2 -->
<g id="edge1_Node000001_Node000002" class="edge">
<title>Node1&#45;&gt;Node2</title>
<g id="a_edge1_Node000001_Node000002"><a xlink:title=" ">
<path fill="none" stroke="#63b8ff" d="M133.62,-107.37C149.56,-111.88 167.01,-116.82 183.51,-121.48"/>
<polygon fill="#63b8ff" stroke="#63b8ff" points="182.16,-124.74 192.74,-124.09 184.07,-118 182.16,-124.74"/>
</a>
</g>
</g>
<!-- Node3 -->
<g id="Node000003" class="node">
<title>Node3</title>
<g id="a_Node000003"><a xlink:href="classfr_1_1softsf_1_1canscan_1_1_can_scan.html#a070115929fdc69b249d21866a00a47cc" target="_top" xlink:title="Assigns component names for identification.">
<polygon fill="white" stroke="#666666" points="528.75,-320 357.5,-320 357.5,-288 528.75,-288 528.75,-320"/>
<text text-anchor="start" x="365.5" y="-306.5" font-family="Helvetica,sans-Serif" font-size="10.00">fr.softsf.canscan.CanScan.initialize</text>
<text text-anchor="middle" x="443.12" y="-294.5" font-family="Helvetica,sans-Serif" font-size="10.00">ComponentNames</text>
</a>
</g>
</g>
<!-- Node2&#45;&gt;Node3 -->
<g id="edge2_Node000002_Node000003" class="edge">
<title>Node2&#45;&gt;Node3</title>
<g id="a_edge2_Node000002_Node000003"><a xlink:title=" ">
<path fill="none" stroke="#63b8ff" d="M263.02,-157.36C278.32,-185.18 313.01,-241.82 357.5,-274 362.04,-277.28 366.98,-280.24 372.1,-282.89"/>
<polygon fill="#63b8ff" stroke="#63b8ff" points="370.24,-285.88 380.78,-286.98 373.23,-279.55 370.24,-285.88"/>
</a>
</g>
</g>
<!-- Node4 -->
<g id="Node000004" class="node">
<title>Node4</title>
<g id="a_Node000004"><a xlink:href="classfr_1_1softsf_1_1canscan_1_1_can_scan.html#a14263ca931024d56cd9bed4af4b74c25" target="_top" xlink:title="Builds the main panel with header, QR preview overlay, and spacer.">
<polygon fill="white" stroke="#666666" points="736,-404 564.75,-404 564.75,-372 736,-372 736,-404"/>
<text text-anchor="start" x="572.75" y="-390.5" font-family="Helvetica,sans-Serif" font-size="10.00">fr.softsf.canscan.CanScan.initialize</text>
<text text-anchor="middle" x="650.38" y="-378.5" font-family="Helvetica,sans-Serif" font-size="10.00">MainPanel</text>
</a>
</g>
</g>
<!-- Node2&#45;&gt;Node4 -->
<g id="edge3_Node000002_Node000004" class="edge">
<title>Node2&#45;&gt;Node4</title>
<g id="a_edge3_Node000002_Node000004"><a xlink:title=" ">
<path fill="none" stroke="#63b8ff" d="M266.48,-157.33C283.91,-179.82 318.45,-219.95 357.5,-241 426.12,-278 468.73,-229.25 528.75,-279 560.02,-304.92 534.39,-336.02 564.75,-363 565.67,-363.81 566.61,-364.6 567.57,-365.36"/>
<polygon fill="#63b8ff" stroke="#63b8ff" points="565.29,-368.05 575.55,-370.71 569.19,-362.23 565.29,-368.05"/>
</a>
</g>
</g>
<!-- Node12 -->
<g id="Node000012" class="node">
<title>Node12</title>
<g id="a_Node000012"><a xlink:href="classfr_1_1softsf_1_1canscan_1_1_can_scan.html#afb8d451dc5d6d9c7b6700e4b688c98a3" target="_top" xlink:title="Builds the north panel containing mode selection, card panels, common fields, and the generate button...">
<polygon fill="white" stroke="#666666" points="528.75,-232 357.5,-232 357.5,-200 528.75,-200 528.75,-232"/>
<text text-anchor="start" x="365.5" y="-218.5" font-family="Helvetica,sans-Serif" font-size="10.00">fr.softsf.canscan.CanScan.initialize</text>
<text text-anchor="middle" x="443.12" y="-206.5" font-family="Helvetica,sans-Serif" font-size="10.00">NorthPanel</text>
</a>
</g>
</g>
<!-- Node2&#45;&gt;Node12 -->
<g id="edge12_Node000002_Node000012" class="edge">
<title>Node2&#45;&gt;Node12</title>
<g id="a_edge12_Node000002_Node000012"><a xlink:title=" ">
<path fill="none" stroke="#63b8ff" d="M285.01,-157.45C305.2,-167.93 332.48,-181.31 357.5,-191 361.92,-192.71 366.51,-194.38 371.16,-195.98"/>
<polygon fill="#63b8ff" stroke="#63b8ff" points="370.04,-199.29 380.63,-199.12 372.24,-192.65 370.04,-199.29"/>
</a>
</g>
</g>
<!-- Node26 -->
<g id="Node000026" class="node">
<title>Node26</title>
<g id="a_Node000026"><a xlink:href="classfr_1_1softsf_1_1canscan_1_1_can_scan.html#a4928478365bc812571ac037662cc5f6b" target="_top" xlink:title="Wraps the main panel in a scrollable container.">
<polygon fill="white" stroke="#666666" points="528.75,-182 357.5,-182 357.5,-150 528.75,-150 528.75,-182"/>
<text text-anchor="start" x="365.5" y="-168.5" font-family="Helvetica,sans-Serif" font-size="10.00">fr.softsf.canscan.CanScan.initialize</text>
<text text-anchor="middle" x="443.12" y="-156.5" font-family="Helvetica,sans-Serif" font-size="10.00">ScrollPane</text>
</a>
</g>
</g>
<!-- Node2&#45;&gt;Node26 -->
<g id="edge28_Node000002_Node000026" class="edge">
<title>Node2&#45;&gt;Node26</title>
<g id="a_edge28_Node000002_Node000026"><a xlink:title=" ">
<path fill="none" stroke="#63b8ff" d="M321.97,-149.99C329.76,-151.03 337.8,-152.1 345.87,-153.17"/>
<polygon fill="#63b8ff" stroke="#63b8ff" points="345.4,-156.64 355.77,-154.49 346.32,-149.7 345.4,-156.64"/>
</a>
</g>
</g>
<!-- Node27 -->
<g id="Node000027" class="node">
<title>Node27</title>
<g id="a_Node000027"><a xlink:href="classfr_1_1softsf_1_1canscan_1_1_can_scan.html#a358629f85831dc6cd4978c8854d88561" target="_top" xlink:title="Configures sliders for logo margin and ratio.">
<polygon fill="white" stroke="#666666" points="528.75,-132 357.5,-132 357.5,-100 528.75,-100 528.75,-132"/>
<text text-anchor="start" x="365.5" y="-118.5" font-family="Helvetica,sans-Serif" font-size="10.00">fr.softsf.canscan.CanScan.initialize</text>
<text text-anchor="middle" x="443.12" y="-106.5" font-family="Helvetica,sans-Serif" font-size="10.00">Sliders</text>
</a>
</g>
</g>
<!-- Node2&#45;&gt;Node27 -->
<g id="edge29_Node000002_Node000027" class="edge">
<title>Node2&#45;&gt;Node27</title>
<g id="a_edge29_Node000002_Node000027"><a xlink:title=" ">
<path fill="none" stroke="#63b8ff" d="M321.97,-132.01C329.76,-130.97 337.8,-129.9 345.87,-128.83"/>
<polygon fill="#63b8ff" stroke="#63b8ff" points="346.32,-132.3 355.77,-127.51 345.4,-125.36 346.32,-132.3"/>
</a>
</g>
</g>
<!-- Node28 -->
<g id="Node000028" class="node">
<title>Node28</title>
<g id="a_Node000028"><a xlink:href="classfr_1_1softsf_1_1canscan_1_1_can_scan.html#ae9d7eee5ec656c89834bed84a588334f" target="_top" xlink:title="Builds the application window title from version metadata.">
<polygon fill="white" stroke="#666666" points="528.75,-32 357.5,-32 357.5,0 528.75,0 528.75,-32"/>
<text text-anchor="start" x="365.5" y="-18.5" font-family="Helvetica,sans-Serif" font-size="10.00">fr.softsf.canscan.CanScan.initialize</text>
<text text-anchor="middle" x="443.12" y="-6.5" font-family="Helvetica,sans-Serif" font-size="10.00">Title</text>
</a>
</g>
</g>
<!-- Node2&#45;&gt;Node28 -->
<g id="edge30_Node000002_Node000028" class="edge">
<title>Node2&#45;&gt;Node28</title>
<g id="a_edge30_Node000002_Node000028"><a xlink:title=" ">
<path fill="none" stroke="#63b8ff" d="M274.83,-124.74C288.49,-113.5 306.63,-97.94 321.5,-83 338.84,-65.57 336.86,-54.36 357.5,-41 359.38,-39.78 361.32,-38.62 363.31,-37.52"/>
<polygon fill="#63b8ff" stroke="#63b8ff" points="364.83,-40.67 372.25,-33.11 361.73,-34.39 364.83,-40.67"/>
</a>
</g>
</g>
<!-- Node29 -->
<g id="Node000029" class="node">
<title>Node29</title>
<g id="a_Node000029"><a xlink:href="classfr_1_1softsf_1_1canscan_1_1_can_scan.html#a0a52159db640660477196e337ec62a9b" target="_top" xlink:title="Finalizes window layout and appearance.">
<polygon fill="white" stroke="#666666" points="528.75,-82 357.5,-82 357.5,-50 528.75,-50 528.75,-82"/>
<text text-anchor="start" x="365.5" y="-68.5" font-family="Helvetica,sans-Serif" font-size="10.00">fr.softsf.canscan.CanScan.initialize</text>
<text text-anchor="middle" x="443.12" y="-56.5" font-family="Helvetica,sans-Serif" font-size="10.00">Window</text>
</a>
</g>
</g>
<!-- Node2&#45;&gt;Node29 -->
<g id="edge32_Node000002_Node000029" class="edge">
<title>Node2&#45;&gt;Node29</title>
<g id="a_edge32_Node000002_Node000029"><a xlink:title=" ">
<path fill="none" stroke="#63b8ff" d="M285.01,-124.55C305.2,-114.07 332.48,-100.69 357.5,-91 361.92,-89.29 366.51,-87.62 371.16,-86.02"/>
<polygon fill="#63b8ff" stroke="#63b8ff" points="372.24,-89.35 380.63,-82.88 370.04,-82.71 372.24,-89.35"/>
</a>
</g>
</g>
<!-- Node5 -->
<g id="Node000005" class="node">
<title>Node5</title>
<g id="a_Node000005"><a xlink:href="classfr_1_1softsf_1_1canscan_1_1_can_scan.html#ad470e3c0750cf142dc611b1aeeda3a97" target="_top" xlink:title="Attaches automatic QR code preview updates to all input fields and controls.">
<polygon fill="white" stroke="#666666" points="965,-442 772,-442 772,-410 965,-410 965,-442"/>
<text text-anchor="start" x="780" y="-428.5" font-family="Helvetica,sans-Serif" font-size="10.00">fr.softsf.canscan.CanScan.automatic</text>
<text text-anchor="middle" x="868.5" y="-416.5" font-family="Helvetica,sans-Serif" font-size="10.00">QRCodeRenderingForFieldsAndControls</text>
</a>
</g>
</g>
<!-- Node4&#45;&gt;Node5 -->
<g id="edge4_Node000004_Node000005" class="edge">
<title>Node4&#45;&gt;Node5</title>
<g id="a_edge4_Node000004_Node000005"><a xlink:title=" ">
<path fill="none" stroke="#63b8ff" d="M736.48,-402.96C745.12,-404.48 753.96,-406.04 762.78,-407.59"/>
<polygon fill="#63b8ff" stroke="#63b8ff" points="761.96,-411 772.42,-409.28 763.17,-404.1 761.96,-411"/>
</a>
</g>
</g>
<!-- Node7 -->
<g id="Node000007" class="node">
<title>Node7</title>
<g id="a_Node000007"><a xlink:href="classfr_1_1softsf_1_1canscan_1_1_can_scan.html#a180290bc488e2346592ded98ccc4b1f3" target="_top" xlink:title="Collects current input and visual settings into a WholeFields for QR code generation.">
<polygon fill="white" stroke="#666666" points="1167.38,-278 1017.88,-278 1017.88,-246 1167.38,-246 1167.38,-278"/>
<text text-anchor="start" x="1025.88" y="-264.5" font-family="Helvetica,sans-Serif" font-size="10.00">fr.softsf.canscan.CanScan.get</text>
<text text-anchor="middle" x="1092.62" y="-252.5" font-family="Helvetica,sans-Serif" font-size="10.00">QrInput</text>
</a>
</g>
</g>
<!-- Node4&#45;&gt;Node7 -->
<g id="edge11_Node000004_Node000007" class="edge">
<title>Node4&#45;&gt;Node7</title>
<g id="a_edge11_Node000004_Node000007"><a xlink:title=" ">
<path fill="none" stroke="#63b8ff" d="M736.26,-394.42C801.14,-396.24 891.6,-392.01 965,-363 1006.92,-346.43 1046,-311 1069.35,-286.84"/>
<polygon fill="#63b8ff" stroke="#63b8ff" points="1071.86,-289.28 1076.18,-279.6 1066.77,-284.47 1071.86,-289.28"/>
</a>
</g>
</g>
<!-- Node6 -->
<g id="Node000006" class="node">
<title>Node6</title>
<g id="a_Node000006"><a xlink:href="enumfr_1_1softsf_1_1canscan_1_1ui_1_1_ui_components_configuration.html#aa700d9f2a270f6e54fcb53111855fa44" target="_top" xlink:title="Creates simple DocumentListener that executes action on any document change.">
<polygon fill="white" stroke="#666666" points="1184.25,-442 1001,-442 1001,-410 1184.25,-410 1184.25,-442"/>
<text text-anchor="start" x="1009" y="-428.5" font-family="Helvetica,sans-Serif" font-size="10.00">fr.softsf.canscan.ui.UiComponents</text>
<text text-anchor="middle" x="1092.62" y="-416.5" font-family="Helvetica,sans-Serif" font-size="10.00">Configuration.createDocumentListener</text>
</a>
</g>
</g>
<!-- Node5&#45;&gt;Node6 -->
<g id="edge5_Node000005_Node000006" class="edge">
<title>Node5&#45;&gt;Node6</title>
<g id="a_edge5_Node000005_Node000006"><a xlink:title=" ">
<path fill="none" stroke="#63b8ff" d="M965.31,-426C973.29,-426 981.38,-426 989.41,-426"/>
<polygon fill="#63b8ff" stroke="#63b8ff" points="989.18,-429.5 999.18,-426 989.18,-422.5 989.18,-429.5"/>
</a>
</g>
</g>
<!-- Node5&#45;&gt;Node7 -->
<g id="edge6_Node000005_Node000007" class="edge">
<title>Node5&#45;&gt;Node7</title>
<g id="a_edge6_Node000005_Node000007"><a xlink:title=" ">
<path fill="none" stroke="#63b8ff" d="M937.18,-409.52C946.88,-405.81 956.45,-401.35 965,-396 1011.28,-367.05 1052.09,-317.2 1074.19,-287.15"/>
<polygon fill="#63b8ff" stroke="#63b8ff" points="1076.79,-289.52 1079.8,-279.37 1071.11,-285.43 1076.79,-289.52"/>
</a>
</g>
</g>
<!-- Node8 -->
<g id="Node000008" class="node">
<title>Node8</title>
<g id="a_Node000008"><a xlink:href="classfr_1_1softsf_1_1canscan_1_1_can_scan.html#a381368b99c4a0857c6abe6349b2c6d27" target="_top" xlink:title="Calculates the available height for QR code rendering.">
<polygon fill="white" stroke="#666666" points="1395.25,-153 1220.25,-153 1220.25,-121 1395.25,-121 1395.25,-153"/>
<text text-anchor="start" x="1228.25" y="-139.5" font-family="Helvetica,sans-Serif" font-size="10.00">fr.softsf.canscan.CanScan.calculate</text>
<text text-anchor="middle" x="1307.75" y="-127.5" font-family="Helvetica,sans-Serif" font-size="10.00">AvailableQrCodeLabelHeight</text>
</a>
</g>
</g>
<!-- Node7&#45;&gt;Node8 -->
<g id="edge7_Node000007_Node000008" class="edge">
<title>Node7&#45;&gt;Node8</title>
<g id="a_edge7_Node000007_Node000008"><a xlink:title=" ">
<path fill="none" stroke="#63b8ff" d="M1139.07,-245.67C1154.06,-239.33 1170.42,-231.33 1184.25,-222 1202.75,-209.52 1202.45,-200.46 1220.25,-187 1233.85,-176.71 1249.76,-166.95 1264.2,-158.83"/>
<polygon fill="#63b8ff" stroke="#63b8ff" points="1265.52,-162.1 1272.59,-154.21 1262.14,-155.97 1265.52,-162.1"/>
</a>
</g>
</g>
<!-- Node9 -->
<g id="Node000009" class="node">
<title>Node9</title>
<g id="a_Node000009"><a xlink:href="classfr_1_1softsf_1_1canscan_1_1_can_scan.html#a4e67b1b5c764e72414a5c0f387810f5c" target="_top" xlink:title="Validates and returns the current QR code margin from the margin slider.">
<polygon fill="white" stroke="#666666" points="1392.62,-328 1222.88,-328 1222.88,-296 1392.62,-296 1392.62,-328"/>
<text text-anchor="start" x="1230.88" y="-314.5" font-family="Helvetica,sans-Serif" font-size="10.00">fr.softsf.canscan.CanScan.validate</text>
<text text-anchor="middle" x="1307.75" y="-302.5" font-family="Helvetica,sans-Serif" font-size="10.00">AndGetMargin</text>
</a>
</g>
</g>
<!-- Node7&#45;&gt;Node9 -->
<g id="edge8_Node000007_Node000009" class="edge">
<title>Node7&#45;&gt;Node9</title>
<g id="a_edge8_Node000007_Node000009"><a xlink:title=" ">
<path fill="none" stroke="#63b8ff" d="M1163.71,-278.44C1183.46,-283.08 1205.12,-288.16 1225.47,-292.93"/>
<polygon fill="#63b8ff" stroke="#63b8ff" points="1224.62,-296.33 1235.15,-295.2 1226.22,-289.51 1224.62,-296.33"/>
</a>
</g>
</g>
<!-- Node10 -->
<g id="Node000010" class="node">
<title>Node10</title>
<g id="a_Node000010"><a xlink:href="classfr_1_1softsf_1_1canscan_1_1_can_scan.html#a9e8188875168199cde065113ae2a393d" target="_top" xlink:title="Validates and returns the current image&#45;to&#45;QR ratio from the ratio slider.">
<polygon fill="white" stroke="#666666" points="1392.62,-278 1222.88,-278 1222.88,-246 1392.62,-246 1392.62,-278"/>
<text text-anchor="start" x="1230.88" y="-264.5" font-family="Helvetica,sans-Serif" font-size="10.00">fr.softsf.canscan.CanScan.validate</text>
<text text-anchor="middle" x="1307.75" y="-252.5" font-family="Helvetica,sans-Serif" font-size="10.00">AndGetRatio</text>
</a>
</g>
</g>
<!-- Node7&#45;&gt;Node10 -->
<g id="edge9_Node000007_Node000010" class="edge">
<title>Node7&#45;&gt;Node10</title>
<g id="a_edge9_Node000007_Node000010"><a xlink:title=" ">
<path fill="none" stroke="#63b8ff" d="M1167.87,-262C1181.94,-262 1196.84,-262 1211.46,-262"/>
<polygon fill="#63b8ff" stroke="#63b8ff" points="1211.05,-265.5 1221.05,-262 1211.05,-258.5 1211.05,-265.5"/>
</a>
</g>
</g>
<!-- Node11 -->
<g id="Node000011" class="node">
<title>Node11</title>
<g id="a_Node000011"><a xlink:href="classfr_1_1softsf_1_1canscan_1_1_can_scan.html#a6d139bb8d0a3c7081096c8956189b684" target="_top" xlink:title="Validates and returns the QR code size from the corresponding text field.">
<polygon fill="white" stroke="#666666" points="1392.62,-228 1222.88,-228 1222.88,-196 1392.62,-196 1392.62,-228"/>
<text text-anchor="start" x="1230.88" y="-214.5" font-family="Helvetica,sans-Serif" font-size="10.00">fr.softsf.canscan.CanScan.validate</text>
<text text-anchor="middle" x="1307.75" y="-202.5" font-family="Helvetica,sans-Serif" font-size="10.00">AndGetSize</text>
</a>
</g>
</g>
<!-- Node7&#45;&gt;Node11 -->
<g id="edge10_Node000007_Node000011" class="edge">
<title>Node7&#45;&gt;Node11</title>
<g id="a_edge10_Node000007_Node000011"><a xlink:title=" ">
<path fill="none" stroke="#63b8ff" d="M1163.71,-245.56C1183.46,-240.92 1205.12,-235.84 1225.47,-231.07"/>
<polygon fill="#63b8ff" stroke="#63b8ff" points="1226.22,-234.49 1235.15,-228.8 1224.62,-227.67 1226.22,-234.49"/>
</a>
</g>
</g>
<!-- Node13 -->
<g id="Node000013" class="node">
<title>Node13</title>
<g id="a_Node000013"><a xlink:href="classfr_1_1softsf_1_1canscan_1_1_can_scan.html#ab2e018ca62c7497c29e84f42ae870daa" target="_top" xlink:title="Adds MECARD and Free card panels to the north panel.">
<polygon fill="white" stroke="#666666" points="726.25,-354 574.5,-354 574.5,-322 726.25,-322 726.25,-354"/>
<text text-anchor="start" x="582.5" y="-340.5" font-family="Helvetica,sans-Serif" font-size="10.00">fr.softsf.canscan.CanScan.add</text>
<text text-anchor="middle" x="650.38" y="-328.5" font-family="Helvetica,sans-Serif" font-size="10.00">NorthPanelCardPanels</text>
</a>
</g>
</g>
<!-- Node12&#45;&gt;Node13 -->
<g id="edge13_Node000012_Node000013" class="edge">
<title>Node12&#45;&gt;Node13</title>
<g id="a_edge13_Node000012_Node000013"><a xlink:title=" ">
<path fill="none" stroke="#63b8ff" d="M507.11,-232.32C514.9,-236.01 522.36,-240.52 528.75,-246 554.4,-268.01 538.52,-291.68 564.75,-313 565.89,-313.92 567.06,-314.81 568.26,-315.67"/>
<polygon fill="#63b8ff" stroke="#63b8ff" points="566.31,-318.58 576.66,-320.83 569.97,-312.61 566.31,-318.58"/>
</a>
</g>
</g>
<!-- Node16 -->
<g id="Node000016" class="node">
<title>Node16</title>
<g id="a_Node000016"><a xlink:href="classfr_1_1softsf_1_1canscan_1_1_can_scan.html#a94ab4df98de0d05977e6a65ab75f89f0" target="_top" xlink:title="Adds common input fields to the north panel.">
<polygon fill="white" stroke="#666666" points="726.25,-304 574.5,-304 574.5,-272 726.25,-272 726.25,-304"/>
<text text-anchor="start" x="582.5" y="-290.5" font-family="Helvetica,sans-Serif" font-size="10.00">fr.softsf.canscan.CanScan.add</text>
<text text-anchor="middle" x="650.38" y="-278.5" font-family="Helvetica,sans-Serif" font-size="10.00">NorthPanelCommonFields</text>
</a>
</g>
</g>
<!-- Node12&#45;&gt;Node16 -->
<g id="edge16_Node000012_Node000016" class="edge">
<title>Node12&#45;&gt;Node16</title>
<g id="a_edge16_Node000012_Node000016"><a xlink:title=" ">
<path fill="none" stroke="#63b8ff" d="M493.22,-232.46C504.95,-236.65 517.36,-241.31 528.75,-246 545.11,-252.74 548.22,-256.7 564.75,-263 569.18,-264.69 573.77,-266.33 578.43,-267.92"/>
<polygon fill="#63b8ff" stroke="#63b8ff" points="577.32,-271.24 587.91,-271.04 579.51,-264.59 577.32,-271.24"/>
</a>
</g>
</g>
<!-- Node18 -->
<g id="Node000018" class="node">
<title>Node18</title>
<g id="a_Node000018"><a xlink:href="classfr_1_1softsf_1_1canscan_1_1_can_scan.html#a9f205dfdb266d5d7f8f8899b69742663" target="_top" xlink:title="Adds the generate button to the north panel.">
<polygon fill="white" stroke="#666666" points="726.25,-254 574.5,-254 574.5,-222 726.25,-222 726.25,-254"/>
<text text-anchor="start" x="582.5" y="-240.5" font-family="Helvetica,sans-Serif" font-size="10.00">fr.softsf.canscan.CanScan.add</text>
<text text-anchor="middle" x="650.38" y="-228.5" font-family="Helvetica,sans-Serif" font-size="10.00">NorthPanelGenerateButton</text>
</a>
</g>
</g>
<!-- Node12&#45;&gt;Node18 -->
<g id="edge19_Node000012_Node000018" class="edge">
<title>Node12&#45;&gt;Node18</title>
<g id="a_edge19_Node000012_Node000018"><a xlink:title=" ">
<path fill="none" stroke="#63b8ff" d="M529.09,-225.11C540.34,-226.31 551.88,-227.55 563.15,-228.76"/>
<polygon fill="#63b8ff" stroke="#63b8ff" points="562.49,-232.21 572.8,-229.79 563.23,-225.25 562.49,-232.21"/>
</a>
</g>
</g>
<!-- Node19 -->
<g id="Node000019" class="node">
<title>Node19</title>
<g id="a_Node000019"><a xlink:href="classfr_1_1softsf_1_1canscan_1_1_can_scan.html#aa469763b92dd7cbc6dfdb9aaa0116b33" target="_top" xlink:title="Adds mode selection controls (MECARD/Free) to the north panel.">
<polygon fill="white" stroke="#666666" points="726.25,-204 574.5,-204 574.5,-172 726.25,-172 726.25,-204"/>
<text text-anchor="start" x="582.5" y="-190.5" font-family="Helvetica,sans-Serif" font-size="10.00">fr.softsf.canscan.CanScan.add</text>
<text text-anchor="middle" x="650.38" y="-178.5" font-family="Helvetica,sans-Serif" font-size="10.00">NorthPanelModeSelection</text>
</a>
</g>
</g>
<!-- Node12&#45;&gt;Node19 -->
<g id="edge20_Node000012_Node000019" class="edge">
<title>Node12&#45;&gt;Node19</title>
<g id="a_edge20_Node000012_Node000019"><a xlink:title=" ">
<path fill="none" stroke="#63b8ff" d="M529.09,-204.41C540.34,-202.87 551.88,-201.3 563.15,-199.76"/>
<polygon fill="#63b8ff" stroke="#63b8ff" points="563.37,-203.26 572.81,-198.45 562.43,-196.33 563.37,-203.26"/>
</a>
</g>
</g>
<!-- Node24 -->
<g id="Node000024" class="node">
<title>Node24</title>
<g id="a_Node000024"><a xlink:href="classfr_1_1softsf_1_1canscan_1_1_can_scan.html#ada8edc3d5abda489ce9f75a0613cfc71" target="_top" xlink:title="Creates the base north panel with layout, maximum width, and padding applied.">
<polygon fill="white" stroke="#666666" points="725.12,-154 575.62,-154 575.62,-122 725.12,-122 725.12,-154"/>
<text text-anchor="start" x="583.62" y="-140.5" font-family="Helvetica,sans-Serif" font-size="10.00">fr.softsf.canscan.CanScan.get</text>
<text text-anchor="middle" x="650.38" y="-128.5" font-family="Helvetica,sans-Serif" font-size="10.00">NorthJPanel</text>
</a>
</g>
</g>
<!-- Node12&#45;&gt;Node24 -->
<g id="edge26_Node000012_Node000024" class="edge">
<title>Node12&#45;&gt;Node24</title>
<g id="a_edge26_Node000012_Node000024"><a xlink:title=" ">
<path fill="none" stroke="#63b8ff" d="M508.88,-199.63C515.73,-197.09 522.48,-194.22 528.75,-191 546.78,-181.75 546.72,-172.25 564.75,-163 567.79,-161.44 570.94,-159.96 574.16,-158.57"/>
<polygon fill="#63b8ff" stroke="#63b8ff" points="575.24,-161.91 583.22,-154.94 572.63,-155.41 575.24,-161.91"/>
</a>
</g>
</g>
<!-- Node25 -->
<g id="Node000025" class="node">
<title>Node25</title>
<g id="a_Node000025"><a xlink:href="classfr_1_1softsf_1_1canscan_1_1_can_scan.html#aeb5550da33925e95999aae23f525f7c5" target="_top" xlink:title="Creates default GridBagConstraints for consistent layout configuration.">
<polygon fill="white" stroke="#666666" points="729.25,-104 571.5,-104 571.5,-72 729.25,-72 729.25,-104"/>
<text text-anchor="start" x="579.5" y="-90.5" font-family="Helvetica,sans-Serif" font-size="10.00">fr.softsf.canscan.CanScan.north</text>
<text text-anchor="middle" x="650.38" y="-78.5" font-family="Helvetica,sans-Serif" font-size="10.00">PanelGridBagConstraints</text>
</a>
</g>
</g>
<!-- Node12&#45;&gt;Node25 -->
<g id="edge27_Node000012_Node000025" class="edge">
<title>Node12&#45;&gt;Node25</title>
<g id="a_edge27_Node000012_Node000025"><a xlink:title=" ">
<path fill="none" stroke="#63b8ff" d="M516.19,-199.67C520.68,-197.18 524.93,-194.31 528.75,-191 557.63,-166.03 535.87,-137.97 564.75,-113 565.71,-112.17 566.69,-111.37 567.69,-110.6"/>
<polygon fill="#63b8ff" stroke="#63b8ff" points="569.58,-113.55 576.04,-105.16 565.76,-107.69 569.58,-113.55"/>
</a>
</g>
</g>
<!-- Node14 -->
<g id="Node000014" class="node">
<title>Node14</title>
<g id="a_Node000014"><a xlink:href="classfr_1_1softsf_1_1canscan_1_1_can_scan.html#a38d65dd319daee1c3288690c17e43ca5" target="_top" xlink:title="Populates the FREE panel with a multiline text area for arbitrary text or URLs.">
<polygon fill="white" stroke="#666666" points="955.25,-354 781.75,-354 781.75,-334 955.25,-334 955.25,-354"/>
<text text-anchor="middle" x="868.5" y="-340.5" font-family="Helvetica,sans-Serif" font-size="10.00">fr.softsf.canscan.CanScan.freeCard</text>
</a>
</g>
</g>
<!-- Node13&#45;&gt;Node14 -->
<g id="edge14_Node000013_Node000014" class="edge">
<title>Node13&#45;&gt;Node14</title>
<g id="a_edge14_Node000013_Node000014"><a xlink:title=" ">
<path fill="none" stroke="#63b8ff" d="M726.66,-340.09C740.74,-340.48 755.63,-340.89 770.26,-341.3"/>
<polygon fill="#63b8ff" stroke="#63b8ff" points="769.77,-344.79 779.87,-341.57 769.97,-337.79 769.77,-344.79"/>
</a>
</g>
</g>
<!-- Node15 -->
<g id="Node000015" class="node">
<title>Node15</title>
<g id="a_Node000015"><a xlink:href="classfr_1_1softsf_1_1canscan_1_1_can_scan.html#aed7e3048974882318a6519d8d36e8ec0" target="_top" xlink:title="Populates the MECARD panel with structured contact fields.">
<polygon fill="white" stroke="#666666" points="952.62,-316 784.38,-316 784.38,-296 952.62,-296 952.62,-316"/>
<text text-anchor="middle" x="868.5" y="-302.5" font-family="Helvetica,sans-Serif" font-size="10.00">fr.softsf.canscan.CanScan.mecard</text>
</a>
</g>
</g>
<!-- Node13&#45;&gt;Node15 -->
<g id="edge15_Node000013_Node000015" class="edge">
<title>Node13&#45;&gt;Node15</title>
<g id="a_edge15_Node000013_Node000015"><a xlink:title=" ">
<path fill="none" stroke="#63b8ff" d="M726.66,-326.85C745.71,-324.03 766.25,-320.99 785.6,-318.13"/>
<polygon fill="#63b8ff" stroke="#63b8ff" points="785.96,-321.61 795.34,-316.68 784.94,-314.69 785.96,-321.61"/>
</a>
</g>
</g>
<!-- Node17 -->
<g id="Node000017" class="node">
<title>Node17</title>
<g id="a_Node000017"><a xlink:href="classfr_1_1softsf_1_1canscan_1_1_can_scan.html#a17b0a72ab305f98f86591411b6a352f2" target="_top" xlink:title="Creates the color selection panel for QR code and background colors.">
<polygon fill="white" stroke="#666666" points="947,-278 790,-278 790,-246 947,-246 947,-278"/>
<text text-anchor="start" x="798" y="-264.5" font-family="Helvetica,sans-Serif" font-size="10.00">fr.softsf.canscan.CanScan.color</text>
<text text-anchor="middle" x="868.5" y="-252.5" font-family="Helvetica,sans-Serif" font-size="10.00">Panel</text>
</a>
</g>
</g>
<!-- Node16&#45;&gt;Node17 -->
<g id="edge17_Node000016_Node000017" class="edge">
<title>Node16&#45;&gt;Node17</title>
<g id="a_edge17_Node000016_Node000017"><a xlink:title=" ">
<path fill="none" stroke="#63b8ff" d="M726.66,-278.94C743.35,-276.94 761.19,-274.79 778.37,-272.72"/>
<polygon fill="#63b8ff" stroke="#63b8ff" points="778.54,-276.23 788.05,-271.56 777.7,-269.28 778.54,-276.23"/>
</a>
</g>
</g>
<!-- Node17&#45;&gt;Node7 -->
<g id="edge18_Node000017_Node000007" class="edge">
<title>Node17&#45;&gt;Node7</title>
<g id="a_edge18_Node000017_Node000007"><a xlink:title=" ">
<path fill="none" stroke="#63b8ff" d="M947.19,-262C966.33,-262 986.92,-262 1006.4,-262"/>
<polygon fill="#63b8ff" stroke="#63b8ff" points="1006.2,-265.5 1016.2,-262 1006.2,-258.5 1006.2,-265.5"/>
</a>
</g>
</g>
<!-- Node20 -->
<g id="Node000020" class="node">
<title>Node20</title>
<g id="a_Node000020"><a xlink:href="classfr_1_1softsf_1_1canscan_1_1_can_scan.html#a381579d3adc53b1122b38e7fda5c0235" target="_top" xlink:title="Configures the update button for version checking.">
<polygon fill="white" stroke="#666666" points="956.38,-228 780.62,-228 780.62,-196 956.38,-196 956.38,-228"/>
<text text-anchor="start" x="788.62" y="-214.5" font-family="Helvetica,sans-Serif" font-size="10.00">fr.softsf.canscan.CanScan.configure</text>
<text text-anchor="middle" x="868.5" y="-202.5" font-family="Helvetica,sans-Serif" font-size="10.00">UpdateButton</text>
</a>
</g>
</g>
<!-- Node19&#45;&gt;Node20 -->
<g id="edge21_Node000019_Node000020" class="edge">
<title>Node19&#45;&gt;Node20</title>
<g id="a_edge21_Node000019_Node000020"><a xlink:title=" ">
<path fill="none" stroke="#63b8ff" d="M726.66,-196.36C740.31,-197.88 754.73,-199.48 768.93,-201.05"/>
<polygon fill="#63b8ff" stroke="#63b8ff" points="768.42,-204.52 778.75,-202.14 769.2,-197.56 768.42,-204.52"/>
</a>
</g>
</g>
<!-- Node21 -->
<g id="Node000021" class="node">
<title>Node21</title>
<g id="a_Node000021"><a xlink:href="classfr_1_1softsf_1_1canscan_1_1_can_scan.html#a428c742b098fa27d4c8984c1030c238d" target="_top" xlink:title="Switches the application between MECARD and FREE modes.">
<polygon fill="white" stroke="#666666" points="962.75,-178 774.25,-178 774.25,-158 962.75,-158 962.75,-178"/>
<text text-anchor="middle" x="868.5" y="-164.5" font-family="Helvetica,sans-Serif" font-size="10.00">fr.softsf.canscan.CanScan.switchMode</text>
</a>
</g>
</g>
<!-- Node19&#45;&gt;Node21 -->
<g id="edge22_Node000019_Node000021" class="edge">
<title>Node19&#45;&gt;Node21</title>
<g id="a_edge22_Node000019_Node000021"><a xlink:title=" ">
<path fill="none" stroke="#63b8ff" d="M726.66,-181.03C738.32,-179.95 750.54,-178.82 762.71,-177.7"/>
<polygon fill="#63b8ff" stroke="#63b8ff" points="762.7,-181.21 772.34,-176.81 762.06,-174.24 762.7,-181.21"/>
</a>
</g>
</g>
<!-- Node21&#45;&gt;Node7 -->
<g id="edge23_Node000021_Node000007" class="edge">
<title>Node21&#45;&gt;Node7</title>
<g id="a_edge23_Node000021_Node000007"><a xlink:title=" ">
<path fill="none" stroke="#63b8ff" d="M943.96,-178.39C951.27,-180.71 958.42,-183.54 965,-187 984.75,-197.38 982.5,-209.52 1001,-222 1011.7,-229.22 1023.91,-235.64 1035.82,-241.11"/>
<polygon fill="#63b8ff" stroke="#63b8ff" points="1034.23,-244.23 1044.79,-245.06 1037.05,-237.83 1034.23,-244.23"/>
</a>
</g>
</g>
<!-- Node22 -->
<g id="Node000022" class="node">
<title>Node22</title>
<g id="a_Node000022"><a xlink:href="enumfr_1_1softsf_1_1canscan_1_1model_1_1_mode.html#a16a898a11ca939056bd7b275f11ea54c" target="_top" xlink:title="Returns the mode label.">
<polygon fill="white" stroke="#666666" points="1153.5,-213 1031.75,-213 1031.75,-181 1153.5,-181 1153.5,-213"/>
<text text-anchor="start" x="1039.75" y="-199.5" font-family="Helvetica,sans-Serif" font-size="10.00">fr.softsf.canscan.model.</text>
<text text-anchor="middle" x="1092.62" y="-187.5" font-family="Helvetica,sans-Serif" font-size="10.00">Mode.text</text>
</a>
</g>
</g>
<!-- Node21&#45;&gt;Node22 -->
<g id="edge24_Node000021_Node000022" class="edge">
<title>Node21&#45;&gt;Node22</title>
<g id="a_edge24_Node000021_Node000022"><a xlink:title=" ">
<path fill="none" stroke="#63b8ff" d="M949.69,-178.47C972.76,-181.48 997.76,-184.75 1020.26,-187.68"/>
<polygon fill="#63b8ff" stroke="#63b8ff" points="1019.55,-191.12 1029.92,-188.94 1020.46,-184.18 1019.55,-191.12"/>
</a>
</g>
</g>
<!-- Node23 -->
<g id="Node000023" class="node">
<title>Node23</title>
<g id="a_Node000023"><a xlink:href="classfr_1_1softsf_1_1canscan_1_1_can_scan.html#a11fd9295c4843e6e68f9d1e4a710b906" target="_top" xlink:title="Updates the generate button state based on input validation.">
<polygon fill="white" stroke="#666666" points="1175.25,-163 1010,-163 1010,-131 1175.25,-131 1175.25,-163"/>
<text text-anchor="start" x="1018" y="-149.5" font-family="Helvetica,sans-Serif" font-size="10.00">fr.softsf.canscan.CanScan.update</text>
<text text-anchor="middle" x="1092.62" y="-137.5" font-family="Helvetica,sans-Serif" font-size="10.00">GenerateButtonState</text>
</a>
</g>
</g>
<!-- Node21&#45;&gt;Node23 -->
<g id="edge25_Node000021_Node000023" class="edge">
<title>Node21&#45;&gt;Node23</title>
<g id="a_edge25_Node000021_Node000023"><a xlink:title=" ">
<path fill="none" stroke="#63b8ff" d="M963.06,-159.15C974.83,-158.04 986.87,-156.9 998.63,-155.79"/>
<polygon fill="#63b8ff" stroke="#63b8ff" points="998.67,-159.3 1008.3,-154.88 998.01,-152.33 998.67,-159.3"/>
</a>
</g>
</g>
<!-- Node28&#45;&gt;Node1 -->
<g id="edge31_Node000028_Node000001" class="edge">
<title>Node28&#45;&gt;Node1</title>
<g id="a_edge31_Node000028_Node000001"><a xlink:title=" ">
<path fill="none" stroke="#63b8ff" d="M361.74,-32.46C302.3,-44.62 221.5,-61.16 160.95,-73.56"/>
<polygon fill="#63b8ff" stroke="#63b8ff" points="160.47,-70.08 151.37,-75.52 161.87,-76.94 160.47,-70.08"/>
</a>
</g>
</g>
<!-- Node30 -->
<g id="Node000030" class="node">
<title>Node30</title>
<g id="a_Node000030"><a xlink:href="classfr_1_1softsf_1_1canscan_1_1_can_scan.html#a0fe215984734bb1337dd49ca30238b78" target="_top" xlink:title="Sets the loader size so it matches the QR code label height and remains centered.">
<polygon fill="white" stroke="#666666" points="1167.38,-82 1017.88,-82 1017.88,-50 1167.38,-50 1167.38,-82"/>
<text text-anchor="start" x="1025.88" y="-68.5" font-family="Helvetica,sans-Serif" font-size="10.00">fr.softsf.canscan.CanScan.set</text>
<text text-anchor="middle" x="1092.62" y="-56.5" font-family="Helvetica,sans-Serif" font-size="10.00">LoaderSize</text>
</a>
</g>
</g>
<!-- Node29&#45;&gt;Node30 -->
<g id="edge33_Node000029_Node000030" class="edge">
<title>Node29&#45;&gt;Node30</title>
<g id="a_edge33_Node000029_Node000030"><a xlink:title=" ">
<path fill="none" stroke="#63b8ff" d="M529.13,-63.62C541.09,-63.36 553.23,-63.14 564.75,-63 720.35,-61.07 901.82,-63.03 1006.06,-64.56"/>
<polygon fill="#63b8ff" stroke="#63b8ff" points="1005.89,-68.06 1015.94,-64.71 1006,-61.06 1005.89,-68.06"/>
</a>
</g>
</g>
<!-- Node30&#45;&gt;Node8 -->
<g id="edge34_Node000030_Node000008" class="edge">
<title>Node30&#45;&gt;Node8</title>
<g id="a_edge34_Node000030_Node000008"><a xlink:title=" ">
<path fill="none" stroke="#63b8ff" d="M1143.06,-82.47C1173.99,-92.77 1214.04,-106.12 1246.79,-117.02"/>
<polygon fill="#63b8ff" stroke="#63b8ff" points="1245.56,-120.3 1256.15,-120.14 1247.77,-113.66 1245.56,-120.3"/>
</a>
</g>
</g>
</g>
</svg>
