<?xml version="1.0" encoding="UTF-8" standalone="no"?>
<!DOCTYPE svg PUBLIC "-//W3C//DTD SVG 1.1//EN"
 "http://www.w3.org/Graphics/SVG/1.1/DTD/svg11.dtd">
<!-- Generated by graphviz version 12.2.1 (20241206.2353)
 -->
<!-- Title: fr.softsf.canscan.CanScan.switchModeForTests Pages: 1 -->
<!--zoomable 290 -->

<svg id="main" version="1.1" xmlns="http://www.w3.org/2000/svg" xmlns:xlink="http://www.w3.org/1999/xlink" xml:space="preserve" onload="init(evt)">

<style type="text/css"><![CDATA[
.node, .edge {opacity: 0.7;}
.node.selected, .edge.selected {opacity: 1;}
.edge:hover path { stroke: red; }
.edge:hover polygon { stroke: red; fill: red; }
]]></style>

<defs>
  <circle id="rim" cx="0" cy="0" r="7"/>
  <circle id="rim2" cx="0" cy="0" r="3.5"/>
  <g id="zoomPlus">
    <use xlink:href="#rim" fill="#404040"><set attributeName="fill" to="#808080" begin="zoomplus.mouseover" end="zoomplus.mouseout"/></use>
    <path d="M-4,0h8M0,-4v8" fill="none" stroke="white" stroke-width="1.5" pointer-events="none"/>
  </g>
  <g id="zoomMin">
    <use xlink:href="#rim" fill="#404040"><set attributeName="fill" to="#808080" begin="zoomminus.mouseover" end="zoomminus.mouseout"/></use>
    <path d="M-4,0h8" fill="none" stroke="white" stroke-width="1.5" pointer-events="none"/>
  </g>
  <g id="arrowUp" transform="translate(30 24)">
    <use xlink:href="#rim"/>
    <path pointer-events="none" fill="none" stroke="white" stroke-width="1.5" d="M0,-3.0v7 M-2.5,-0.5L0,-3.0L2.5,-0.5"/>
  </g>
  <g id="arrowRight" transform="rotate(90) translate(36 -43)">
    <use xlink:href="#rim"/>
    <path pointer-events="none" fill="none" stroke="white" stroke-width="1.5" d="M0,-3.0v7 M-2.5,-0.5L0,-3.0L2.5,-0.5"/>
  </g>
  <g id="arrowDown" transform="rotate(180) translate(-30 -48)">
    <use xlink:href="#rim"/>
    <path pointer-events="none" fill="none" stroke="white" stroke-width="1.5" d="M0,-3.0v7 M-2.5,-0.5L0,-3.0L2.5,-0.5"/>
  </g>
  <g id="arrowLeft" transform="rotate(270) translate(-36 17)">
    <use xlink:href="#rim"/>
    <path pointer-events="none" fill="none" stroke="white" stroke-width="1.5" d="M0,-3.0v7 M-2.5,-0.5L0,-3.0L2.5,-0.5"/>
  </g>
  <g id="resetDef">
    <use xlink:href="#rim2" fill="#404040"><set attributeName="fill" to="#808080" begin="reset.mouseover" end="reset.mouseout"/></use>
  </g>
</defs>
<script type="application/ecmascript">
var viewWidth = 809;
var viewHeight = 290;
var sectionId = 'dynsection-17';
</script>
<script type="application/ecmascript" xlink:href="svg.min.js"/>
<svg id="graph" class="graph">
<g id="viewport">
<title>fr.softsf.canscan.CanScan.switchModeForTests</title>
<!-- Node1 -->
<g id="Node000001" class="node">
<title>Node1</title>
<g id="a_Node000001"><a xlink:title="Switches the mode for testing.">
<polygon fill="#999999" stroke="#666666" points="164.5,-119 0,-119 0,-87 164.5,-87 164.5,-119"/>
<text text-anchor="start" x="8" y="-105.5" font-family="Helvetica,sans-Serif" font-size="10.00">fr.softsf.canscan.CanScan.switch</text>
<text text-anchor="middle" x="82.25" y="-93.5" font-family="Helvetica,sans-Serif" font-size="10.00">ModeForTests</text>
</a>
</g>
</g>
<!-- Node2 -->
<g id="Node000002" class="node">
<title>Node2</title>
<g id="a_Node000002"><a xlink:href="classfr_1_1softsf_1_1canscan_1_1_can_scan.html#a428c742b098fa27d4c8984c1030c238d" target="_top" xlink:title="Switches between MECARD, MEET, and FREE modes, updating the panel and QR preview.">
<polygon fill="white" stroke="#666666" points="389,-113 200.5,-113 200.5,-93 389,-93 389,-113"/>
<text text-anchor="middle" x="294.75" y="-99.5" font-family="Helvetica,sans-Serif" font-size="10.00">fr.softsf.canscan.CanScan.switchMode</text>
</a>
</g>
</g>
<!-- Node1&#45;&gt;Node2 -->
<g id="edge1_Node000001_Node000002" class="edge">
<title>Node1&#45;&gt;Node2</title>
<g id="a_edge1_Node000001_Node000002"><a xlink:title=" ">
<path fill="none" stroke="#63b8ff" d="M164.94,-103C172.79,-103 180.83,-103 188.87,-103"/>
<polygon fill="#63b8ff" stroke="#63b8ff" points="188.69,-106.5 198.69,-103 188.69,-99.5 188.69,-106.5"/>
</a>
</g>
</g>
<!-- Node3 -->
<g id="Node000003" class="node">
<title>Node3</title>
<g id="a_Node000003"><a xlink:href="classfr_1_1softsf_1_1canscan_1_1_can_scan.html#a180290bc488e2346592ded98ccc4b1f3" target="_top" xlink:title="Collects current input and visual settings into a WholeFields for QR code generation.">
<polygon fill="white" stroke="#666666" points="582.38,-175 432.88,-175 432.88,-143 582.38,-143 582.38,-175"/>
<text text-anchor="start" x="440.88" y="-161.5" font-family="Helvetica,sans-Serif" font-size="10.00">fr.softsf.canscan.CanScan.get</text>
<text text-anchor="middle" x="507.62" y="-149.5" font-family="Helvetica,sans-Serif" font-size="10.00">QrInput</text>
</a>
</g>
</g>
<!-- Node2&#45;&gt;Node3 -->
<g id="edge2_Node000002_Node000003" class="edge">
<title>Node2&#45;&gt;Node3</title>
<g id="a_edge2_Node000002_Node000003"><a xlink:title=" ">
<path fill="none" stroke="#63b8ff" d="M334.92,-113.4C362.64,-120.76 400.63,-130.85 433.83,-139.67"/>
<polygon fill="#63b8ff" stroke="#63b8ff" points="432.85,-143.03 443.42,-142.21 434.65,-136.26 432.85,-143.03"/>
</a>
</g>
</g>
<!-- Node9 -->
<g id="Node000009" class="node">
<title>Node9</title>
<g id="a_Node000009"><a xlink:href="enumfr_1_1softsf_1_1canscan_1_1model_1_1_mode.html#a16a898a11ca939056bd7b275f11ea54c" target="_top" xlink:title="Returns the mode label.">
<polygon fill="white" stroke="#666666" points="568.5,-119 446.75,-119 446.75,-87 568.5,-87 568.5,-119"/>
<text text-anchor="start" x="454.75" y="-105.5" font-family="Helvetica,sans-Serif" font-size="10.00">fr.softsf.canscan.model.</text>
<text text-anchor="middle" x="507.62" y="-93.5" font-family="Helvetica,sans-Serif" font-size="10.00">Mode.text</text>
</a>
</g>
</g>
<!-- Node2&#45;&gt;Node9 -->
<g id="edge8_Node000002_Node000009" class="edge">
<title>Node2&#45;&gt;Node9</title>
<g id="a_edge8_Node000002_Node000009"><a xlink:title=" ">
<path fill="none" stroke="#63b8ff" d="M389.47,-103C404.75,-103 420.36,-103 434.99,-103"/>
<polygon fill="#63b8ff" stroke="#63b8ff" points="434.98,-106.5 444.98,-103 434.98,-99.5 434.98,-106.5"/>
</a>
</g>
</g>
<!-- Node10 -->
<g id="Node000010" class="node">
<title>Node10</title>
<g id="a_Node000010"><a xlink:href="classfr_1_1softsf_1_1canscan_1_1_can_scan.html#a11fd9295c4843e6e68f9d1e4a710b906" target="_top" xlink:title="Enables or disables the &quot;Generate&quot; button based on required fields for the current mode.">
<polygon fill="white" stroke="#666666" points="590.25,-57 425,-57 425,-25 590.25,-25 590.25,-57"/>
<text text-anchor="start" x="433" y="-43.5" font-family="Helvetica,sans-Serif" font-size="10.00">fr.softsf.canscan.CanScan.update</text>
<text text-anchor="middle" x="507.62" y="-31.5" font-family="Helvetica,sans-Serif" font-size="10.00">GenerateButtonState</text>
</a>
</g>
</g>
<!-- Node2&#45;&gt;Node10 -->
<g id="edge9_Node000002_Node000010" class="edge">
<title>Node2&#45;&gt;Node10</title>
<g id="a_edge9_Node000002_Node000010"><a xlink:title=" ">
<path fill="none" stroke="#63b8ff" d="M331.05,-92.62C360.58,-83.94 403.57,-71.3 439.61,-60.7"/>
<polygon fill="#63b8ff" stroke="#63b8ff" points="440.49,-64.09 449.1,-57.91 438.52,-57.38 440.49,-64.09"/>
</a>
</g>
</g>
<!-- Node4 -->
<g id="Node000004" class="node">
<title>Node4</title>
<g id="a_Node000004"><a xlink:href="classfr_1_1softsf_1_1canscan_1_1_can_scan.html#a381368b99c4a0857c6abe6349b2c6d27" target="_top" xlink:title="Calculates the available height for QR code rendering.">
<polygon fill="white" stroke="#666666" points="801.25,-282 626.25,-282 626.25,-250 801.25,-250 801.25,-282"/>
<text text-anchor="start" x="634.25" y="-268.5" font-family="Helvetica,sans-Serif" font-size="10.00">fr.softsf.canscan.CanScan.calculate</text>
<text text-anchor="middle" x="713.75" y="-256.5" font-family="Helvetica,sans-Serif" font-size="10.00">AvailableQrCodeLabelHeight</text>
</a>
</g>
</g>
<!-- Node3&#45;&gt;Node4 -->
<g id="edge3_Node000003_Node000004" class="edge">
<title>Node3&#45;&gt;Node4</title>
<g id="a_edge3_Node000003_Node000004"><a xlink:title=" ">
<path fill="none" stroke="#63b8ff" d="M527.78,-175.35C550.1,-193.66 588.73,-223.1 626.25,-241 629.57,-242.58 633,-244.08 636.51,-245.51"/>
<polygon fill="#63b8ff" stroke="#63b8ff" points="635.18,-248.75 645.77,-249.01 637.65,-242.2 635.18,-248.75"/>
</a>
</g>
</g>
<!-- Node5 -->
<g id="Node000005" class="node">
<title>Node5</title>
<g id="a_Node000005"><a xlink:href="classfr_1_1softsf_1_1canscan_1_1_can_scan.html#a4e67b1b5c764e72414a5c0f387810f5c" target="_top" xlink:title="Validates and returns the current QR code margin from the margin slider.">
<polygon fill="white" stroke="#666666" points="798.62,-232 628.88,-232 628.88,-200 798.62,-200 798.62,-232"/>
<text text-anchor="start" x="636.88" y="-218.5" font-family="Helvetica,sans-Serif" font-size="10.00">fr.softsf.canscan.CanScan.validate</text>
<text text-anchor="middle" x="713.75" y="-206.5" font-family="Helvetica,sans-Serif" font-size="10.00">AndGetMargin</text>
</a>
</g>
</g>
<!-- Node3&#45;&gt;Node5 -->
<g id="edge4_Node000003_Node000005" class="edge">
<title>Node3&#45;&gt;Node5</title>
<g id="a_edge4_Node000003_Node000005"><a xlink:title=" ">
<path fill="none" stroke="#63b8ff" d="M567.67,-175.49C591.15,-182.04 618.36,-189.64 642.82,-196.47"/>
<polygon fill="#63b8ff" stroke="#63b8ff" points="641.81,-199.82 652.38,-199.14 643.69,-193.08 641.81,-199.82"/>
</a>
</g>
</g>
<!-- Node6 -->
<g id="Node000006" class="node">
<title>Node6</title>
<g id="a_Node000006"><a xlink:href="classfr_1_1softsf_1_1canscan_1_1_can_scan.html#a8a2b238ac4af96d8710b3e5d7d051f77" target="_top" xlink:title="Validates and returns the current meet UID from the meet title field.">
<polygon fill="white" stroke="#666666" points="798.62,-182 628.88,-182 628.88,-150 798.62,-150 798.62,-182"/>
<text text-anchor="start" x="636.88" y="-168.5" font-family="Helvetica,sans-Serif" font-size="10.00">fr.softsf.canscan.CanScan.validate</text>
<text text-anchor="middle" x="713.75" y="-156.5" font-family="Helvetica,sans-Serif" font-size="10.00">AndGetMeetUID</text>
</a>
</g>
</g>
<!-- Node3&#45;&gt;Node6 -->
<g id="edge5_Node000003_Node000006" class="edge">
<title>Node3&#45;&gt;Node6</title>
<g id="a_edge5_Node000003_Node000006"><a xlink:title=" ">
<path fill="none" stroke="#63b8ff" d="M582.61,-161.54C593.93,-161.93 605.76,-162.33 617.47,-162.73"/>
<polygon fill="#63b8ff" stroke="#63b8ff" points="617.01,-166.22 627.12,-163.06 617.25,-159.22 617.01,-166.22"/>
</a>
</g>
</g>
<!-- Node7 -->
<g id="Node000007" class="node">
<title>Node7</title>
<g id="a_Node000007"><a xlink:href="classfr_1_1softsf_1_1canscan_1_1_can_scan.html#a9e8188875168199cde065113ae2a393d" target="_top" xlink:title="Validates and returns the current image&#45;to&#45;QR ratio from the ratio slider.">
<polygon fill="white" stroke="#666666" points="798.62,-132 628.88,-132 628.88,-100 798.62,-100 798.62,-132"/>
<text text-anchor="start" x="636.88" y="-118.5" font-family="Helvetica,sans-Serif" font-size="10.00">fr.softsf.canscan.CanScan.validate</text>
<text text-anchor="middle" x="713.75" y="-106.5" font-family="Helvetica,sans-Serif" font-size="10.00">AndGetRatio</text>
</a>
</g>
</g>
<!-- Node3&#45;&gt;Node7 -->
<g id="edge6_Node000003_Node000007" class="edge">
<title>Node3&#45;&gt;Node7</title>
<g id="a_edge6_Node000003_Node000007"><a xlink:title=" ">
<path fill="none" stroke="#63b8ff" d="M582.61,-143.42C595.93,-140.61 609.95,-137.66 623.65,-134.77"/>
<polygon fill="#63b8ff" stroke="#63b8ff" points="624,-138.27 633.07,-132.79 622.56,-131.42 624,-138.27"/>
</a>
</g>
</g>
<!-- Node8 -->
<g id="Node000008" class="node">
<title>Node8</title>
<g id="a_Node000008"><a xlink:href="classfr_1_1softsf_1_1canscan_1_1_can_scan.html#a6d139bb8d0a3c7081096c8956189b684" target="_top" xlink:title="Validates and returns the QR code size from the corresponding text field.">
<polygon fill="white" stroke="#666666" points="798.62,-82 628.88,-82 628.88,-50 798.62,-50 798.62,-82"/>
<text text-anchor="start" x="636.88" y="-68.5" font-family="Helvetica,sans-Serif" font-size="10.00">fr.softsf.canscan.CanScan.validate</text>
<text text-anchor="middle" x="713.75" y="-56.5" font-family="Helvetica,sans-Serif" font-size="10.00">AndGetSize</text>
</a>
</g>
</g>
<!-- Node3&#45;&gt;Node8 -->
<g id="edge7_Node000003_Node000008" class="edge">
<title>Node3&#45;&gt;Node8</title>
<g id="a_edge7_Node000003_Node000008"><a xlink:title=" ">
<path fill="none" stroke="#63b8ff" d="M562.09,-142.55C571.84,-138.5 581.63,-133.66 590.25,-128 609.43,-115.41 606.57,-102.8 626.25,-91 628.43,-89.69 630.68,-88.45 632.98,-87.27"/>
<polygon fill="#63b8ff" stroke="#63b8ff" points="634.38,-90.48 642,-83.12 631.46,-84.12 634.38,-90.48"/>
</a>
</g>
</g>
<!-- Node11 -->
<g id="Node000011" class="node">
<title>Node11</title>
<g id="a_Node000011"><a xlink:href="classfr_1_1softsf_1_1canscan_1_1_can_scan.html#a3ce6e8b8bd62f20e8e8b9a744976c695" target="_top" xlink:title="Determines whether the &quot;Generate&quot; button should be disabled for the current mode.">
<polygon fill="white" stroke="#666666" points="796,-32 631.5,-32 631.5,0 796,0 796,-32"/>
<text text-anchor="start" x="639.5" y="-18.5" font-family="Helvetica,sans-Serif" font-size="10.00">fr.softsf.canscan.CanScan.should</text>
<text text-anchor="middle" x="713.75" y="-6.5" font-family="Helvetica,sans-Serif" font-size="10.00">DisableGenerateButton</text>
</a>
</g>
</g>
<!-- Node10&#45;&gt;Node11 -->
<g id="edge10_Node000010_Node000011" class="edge">
<title>Node10&#45;&gt;Node11</title>
<g id="a_edge10_Node000010_Node000011"><a xlink:title=" ">
<path fill="none" stroke="#63b8ff" d="M590.47,-30.98C600.12,-29.79 610.02,-28.58 619.8,-27.38"/>
<polygon fill="#63b8ff" stroke="#63b8ff" points="620.21,-30.86 629.71,-26.17 619.36,-23.91 620.21,-30.86"/>
</a>
</g>
</g>
</g>
</svg>

<g id="navigator" transform="translate(0 0)" fill="#404254">
  <rect fill="#f2f5e9" fill-opacity="0.5" stroke="#606060" stroke-width=".5" x="0" y="0" width="60" height="60"/>
  <use id="zoomplus" xlink:href="#zoomPlus" x="17" y="9" onmousedown="handleZoom(evt,'in')"/>
  <use id="zoomminus" xlink:href="#zoomMin" x="42" y="9" onmousedown="handleZoom(evt,'out')"/>
  <use id="reset" xlink:href="#resetDef" x="30" y="36" onmousedown="handleReset()"/>
   <use id="arrowup" xlink:href="#arrowUp" x="0" y="0" onmousedown="handlePan(0,-1)"/>
  <use id="arrowright" xlink:href="#arrowRight" x="0" y="0" onmousedown="handlePan(1,0)"/>
  <use id="arrowdown" xlink:href="#arrowDown" x="0" y="0" onmousedown="handlePan(0,1)"/>
  <use id="arrowleft" xlink:href="#arrowLeft" x="0" y="0" onmousedown="handlePan(-1,0)"/>
</g>
<svg viewBox="0 0 15 15" width="100%" height="30px" preserveAspectRatio="xMaxYMin meet">
 <g id="arrow_out" transform="scale(0.3 0.3)">
  <a xlink:href="classfr_1_1softsf_1_1canscan_1_1_can_scan_a163b11aa80682de173802920b5bbd836_cgraph_org.svg" target="_base">
   <rect id="button" ry="5" rx="5" y="6" x="6" height="38" width="38"
        fill="#f2f5e9" fill-opacity="0.5" stroke="#606060" stroke-width="1.0"/>
   <path id="arrow"
     d="M 11.500037,31.436501 C 11.940474,20.09759 22.043105,11.32322 32.158766,21.979434 L 37.068811,17.246167 C 37.068811,17.246167 37.088388,32 37.088388,32 L 22.160133,31.978069 C 22.160133,31.978069 26.997745,27.140456 26.997745,27.140456 C 18.528582,18.264221 13.291696,25.230495 11.500037,31.436501 z"
     style="fill:#404040;"/>
  </a>
 </g>
</svg>

<style type='text/css'>
<![CDATA[
[data-mouse-over-selected='false'] { opacity: 0.7; }
[data-mouse-over-selected='true']  { opacity: 1.0; }
]]>
</style>
<script type="application/ecmascript"><![CDATA[
document.addEventListener('DOMContentLoaded', (event) => {
  highlightEdges();
  highlightAdjacentNodes();
});
]]></script>
</svg>
