<?xml version="1.0" encoding="UTF-8" standalone="no"?>
<!DOCTYPE svg PUBLIC "-//W3C//DTD SVG 1.1//EN"
 "http://www.w3.org/Graphics/SVG/1.1/DTD/svg11.dtd">
<!-- Generated by graphviz version 12.2.1 (20241206.2353)
 -->
<!-- Title: fr.softsf.canscan.ui.QrCodeResize Pages: 1 -->
<!--zoomable 660 -->

<svg id="main" version="1.1" xmlns="http://www.w3.org/2000/svg" xmlns:xlink="http://www.w3.org/1999/xlink" xml:space="preserve" onload="init(evt)">

<style type="text/css"><![CDATA[
.node, .edge {opacity: 0.7;}
.node.selected, .edge.selected {opacity: 1;}
.edge:hover path { stroke: red; }
.edge:hover polygon { stroke: red; fill: red; }
]]></style>

<defs>
  <circle id="rim" cx="0" cy="0" r="7"/>
  <circle id="rim2" cx="0" cy="0" r="3.5"/>
  <g id="zoomPlus">
    <use xlink:href="#rim" fill="#404040"><set attributeName="fill" to="#808080" begin="zoomplus.mouseover" end="zoomplus.mouseout"/></use>
    <path d="M-4,0h8M0,-4v8" fill="none" stroke="white" stroke-width="1.5" pointer-events="none"/>
  </g>
  <g id="zoomMin">
    <use xlink:href="#rim" fill="#404040"><set attributeName="fill" to="#808080" begin="zoomminus.mouseover" end="zoomminus.mouseout"/></use>
    <path d="M-4,0h8" fill="none" stroke="white" stroke-width="1.5" pointer-events="none"/>
  </g>
  <g id="arrowUp" transform="translate(30 24)">
    <use xlink:href="#rim"/>
    <path pointer-events="none" fill="none" stroke="white" stroke-width="1.5" d="M0,-3.0v7 M-2.5,-0.5L0,-3.0L2.5,-0.5"/>
  </g>
  <g id="arrowRight" transform="rotate(90) translate(36 -43)">
    <use xlink:href="#rim"/>
    <path pointer-events="none" fill="none" stroke="white" stroke-width="1.5" d="M0,-3.0v7 M-2.5,-0.5L0,-3.0L2.5,-0.5"/>
  </g>
  <g id="arrowDown" transform="rotate(180) translate(-30 -48)">
    <use xlink:href="#rim"/>
    <path pointer-events="none" fill="none" stroke="white" stroke-width="1.5" d="M0,-3.0v7 M-2.5,-0.5L0,-3.0L2.5,-0.5"/>
  </g>
  <g id="arrowLeft" transform="rotate(270) translate(-36 17)">
    <use xlink:href="#rim"/>
    <path pointer-events="none" fill="none" stroke="white" stroke-width="1.5" d="M0,-3.0v7 M-2.5,-0.5L0,-3.0L2.5,-0.5"/>
  </g>
  <g id="resetDef">
    <use xlink:href="#rim2" fill="#404040"><set attributeName="fill" to="#808080" begin="reset.mouseover" end="reset.mouseout"/></use>
  </g>
</defs>
<script type="application/ecmascript">
var viewWidth = 183;
var viewHeight = 660;
var sectionId = 'dynsection-0';
</script>
<script type="application/ecmascript" xlink:href="svg.min.js"/>
<svg id="graph" class="graph">
<g id="viewport">
<title>fr.softsf.canscan.ui.QrCodeResize</title>
<!-- Node1 -->
<g id="Node000001" class="node">
<title>Node1</title>
<g id="a_Node000001"><a xlink:title="Asynchronously resizes a generated QR code image for display in a Swing UI.">
<polygon fill="#999999" stroke="none" points="174.75,-260 0,-260 0,0 174.75,0 174.75,-260"/>
<text text-anchor="start" x="27" y="-246.5" font-family="Helvetica,sans-Serif" font-size="10.00">fr.softsf.canscan.ui.QrCode</text>
<text text-anchor="start" x="72" y="-234.5" font-family="Helvetica,sans-Serif" font-size="10.00">Resize</text>
<text text-anchor="start" x="5.5" y="-218.5" font-family="Helvetica,sans-Serif" font-size="10.00">&#45;</text>
<text text-anchor="start" x="14" y="-218.5" font-family="Helvetica,sans-Serif" font-size="10.00">final QrCodeBufferedImage</text>
<text text-anchor="start" x="14" y="-206.5" font-family="Helvetica,sans-Serif" font-size="10.00"> qrCodeBufferedImage</text>
<text text-anchor="start" x="5.5" y="-190.5" font-family="Helvetica,sans-Serif" font-size="10.00">&#45;</text>
<text text-anchor="start" x="14" y="-190.5" font-family="Helvetica,sans-Serif" font-size="10.00">final JLabel qrCodeLabel</text>
<text text-anchor="start" x="5.5" y="-174.5" font-family="Helvetica,sans-Serif" font-size="10.00">&#45;</text>
<text text-anchor="start" x="14" y="-174.5" font-family="Helvetica,sans-Serif" font-size="10.00">static final int DEFAULT_SIZE</text>
<text text-anchor="start" x="5.5" y="-158.5" font-family="Helvetica,sans-Serif" font-size="10.00">&#45;</text>
<text text-anchor="start" x="14" y="-158.5" font-family="Helvetica,sans-Serif" font-size="10.00">static final int RESIZE</text>
<text text-anchor="start" x="14" y="-146.5" font-family="Helvetica,sans-Serif" font-size="10.00">_DEBOUNCE_DELAY_MS</text>
<text text-anchor="start" x="4" y="-130.5" font-family="Helvetica,sans-Serif" font-size="10.00">+</text>
<text text-anchor="start" x="14" y="-130.5" font-family="Helvetica,sans-Serif" font-size="10.00">QrCodeResize(QrCodeBuffered</text>
<text text-anchor="start" x="14" y="-118.5" font-family="Helvetica,sans-Serif" font-size="10.00">Image qrCodeBufferedImage,</text>
<text text-anchor="start" x="14" y="-106.5" font-family="Helvetica,sans-Serif" font-size="10.00"> JLabel qrCodeLabel, Loader loader)</text>
<text text-anchor="start" x="4" y="-90.5" font-family="Helvetica,sans-Serif" font-size="10.00">+</text>
<text text-anchor="start" x="14" y="-90.5" font-family="Helvetica,sans-Serif" font-size="10.00">void updateQrCodeResize</text>
<text text-anchor="start" x="14" y="-78.5" font-family="Helvetica,sans-Serif" font-size="10.00">(QrInput qrInput)</text>
<text text-anchor="start" x="4.38" y="-62.5" font-family="Helvetica,sans-Serif" font-size="10.00">#</text>
<text text-anchor="start" x="14" y="-62.5" font-family="Helvetica,sans-Serif" font-size="10.00">void clearResources()</text>
<text text-anchor="start" x="4.38" y="-46.5" font-family="Helvetica,sans-Serif" font-size="10.00">#</text>
<text text-anchor="start" x="14" y="-46.5" font-family="Helvetica,sans-Serif" font-size="10.00">SwingWorker&lt; ImageIcon,</text>
<text text-anchor="start" x="14" y="-34.5" font-family="Helvetica,sans-Serif" font-size="10.00"> Void &gt; createWorker()</text>
<text text-anchor="start" x="4.38" y="-18.5" font-family="Helvetica,sans-Serif" font-size="10.00">#</text>
<text text-anchor="start" x="14" y="-18.5" font-family="Helvetica,sans-Serif" font-size="10.00">void onWorkerSuccess</text>
<text text-anchor="start" x="14" y="-6.5" font-family="Helvetica,sans-Serif" font-size="10.00">(ImageIcon result)</text>
<polygon fill="#666666" stroke="#666666" points="0,-230 0,-230 174.75,-230 174.75,-230 0,-230"/>
<polygon fill="#666666" stroke="#666666" points="0,-142 0,-142 12,-142 12,-142 0,-142"/>
<polygon fill="#666666" stroke="#666666" points="12,-142 12,-142 174.75,-142 174.75,-142 12,-142"/>
<polygon fill="none" stroke="#666666" points="0,0 0,-260 174.75,-260 174.75,0 0,0"/>
</a>
</g>
</g>
<!-- Node2 -->
<g id="Node000002" class="node">
<title>Node2</title>
<g id="a_Node000002"><a xlink:href="classfr_1_1softsf_1_1canscan_1_1service_1_1_abstract_qr_code_worker.html" target="_top" xlink:title="Base class managing asynchronous QR code tasks with a unified workflow.">
<polygon fill="white" stroke="none" points="165.75,-652 9,-652 9,-296 165.75,-296 165.75,-652"/>
<text text-anchor="start" x="25.12" y="-638.5" font-family="Helvetica,sans-Serif" font-size="10.00">fr.softsf.canscan.service.</text>
<text text-anchor="start" x="25.12" y="-626.5" font-family="Helvetica,sans-Serif" font-size="10.00">AbstractQrCodeWorker&lt; T &gt;</text>
<text text-anchor="start" x="13.38" y="-610.5" font-family="Helvetica,sans-Serif" font-size="10.00">#</text>
<text text-anchor="start" x="23" y="-610.5" font-family="Helvetica,sans-Serif" font-size="10.00">Timer debounceTimer</text>
<text text-anchor="start" x="13.38" y="-594.5" font-family="Helvetica,sans-Serif" font-size="10.00">#</text>
<text text-anchor="start" x="23" y="-594.5" font-family="Helvetica,sans-Serif" font-size="10.00">final Loader loader</text>
<text text-anchor="start" x="13.38" y="-578.5" font-family="Helvetica,sans-Serif" font-size="10.00">#</text>
<text text-anchor="start" x="23" y="-578.5" font-family="Helvetica,sans-Serif" font-size="10.00">QrInput qrInput</text>
<text text-anchor="start" x="13.38" y="-562.5" font-family="Helvetica,sans-Serif" font-size="10.00">#</text>
<text text-anchor="start" x="23" y="-562.5" font-family="Helvetica,sans-Serif" font-size="10.00">SwingWorker&lt; T, Void</text>
<text text-anchor="start" x="23" y="-550.5" font-family="Helvetica,sans-Serif" font-size="10.00"> &gt; worker</text>
<text text-anchor="start" x="13" y="-534.5" font-family="Helvetica,sans-Serif" font-size="10.00">+</text>
<text text-anchor="start" x="23" y="-534.5" font-family="Helvetica,sans-Serif" font-size="10.00">void disposeAllResources</text>
<text text-anchor="start" x="23" y="-522.5" font-family="Helvetica,sans-Serif" font-size="10.00">OnExit()</text>
<text text-anchor="start" x="13.38" y="-506.5" font-family="Helvetica,sans-Serif" font-size="10.00">#</text>
<text text-anchor="start" x="23" y="-506.5" font-family="Helvetica,sans-Serif" font-size="10.00">AbstractQrCodeWorker</text>
<text text-anchor="start" x="23" y="-494.5" font-family="Helvetica,sans-Serif" font-size="10.00">(Loader loader)</text>
<text text-anchor="start" x="13.38" y="-478.5" font-family="Helvetica,sans-Serif" font-size="10.00">#</text>
<text text-anchor="start" x="23" y="-478.5" font-family="Helvetica,sans-Serif" font-size="10.00">void cancelWorker()</text>
<text text-anchor="start" x="13.38" y="-462.5" font-family="Helvetica,sans-Serif" font-size="10.00">#</text>
<text text-anchor="start" x="23" y="-462.5" font-family="Helvetica,sans-Serif" font-size="10.00">abstract void clearResources()</text>
<text text-anchor="start" x="13.38" y="-446.5" font-family="Helvetica,sans-Serif" font-size="10.00">#</text>
<text text-anchor="start" x="23" y="-446.5" font-family="Helvetica,sans-Serif" font-size="10.00">abstract SwingWorker</text>
<text text-anchor="start" x="23" y="-434.5" font-family="Helvetica,sans-Serif" font-size="10.00">&lt; T, Void &gt; createWorker()</text>
<text text-anchor="start" x="13.38" y="-418.5" font-family="Helvetica,sans-Serif" font-size="10.00">#</text>
<text text-anchor="start" x="23" y="-418.5" font-family="Helvetica,sans-Serif" font-size="10.00">void onWorkerFailure</text>
<text text-anchor="start" x="23" y="-406.5" font-family="Helvetica,sans-Serif" font-size="10.00">(Exception ex)</text>
<text text-anchor="start" x="13.38" y="-390.5" font-family="Helvetica,sans-Serif" font-size="10.00">#</text>
<text text-anchor="start" x="23" y="-390.5" font-family="Helvetica,sans-Serif" font-size="10.00">abstract void onWorkerSuccess</text>
<text text-anchor="start" x="23" y="-378.5" font-family="Helvetica,sans-Serif" font-size="10.00">(T result)</text>
<text text-anchor="start" x="13.38" y="-362.5" font-family="Helvetica,sans-Serif" font-size="10.00">#</text>
<text text-anchor="start" x="23" y="-362.5" font-family="Helvetica,sans-Serif" font-size="10.00">void resetAndStartWorker</text>
<text text-anchor="start" x="23" y="-350.5" font-family="Helvetica,sans-Serif" font-size="10.00">(int delayMs)</text>
<text text-anchor="start" x="13.38" y="-334.5" font-family="Helvetica,sans-Serif" font-size="10.00">#</text>
<text text-anchor="start" x="23" y="-334.5" font-family="Helvetica,sans-Serif" font-size="10.00">void stopDebounceTimer()</text>
<text text-anchor="start" x="13.38" y="-318.5" font-family="Helvetica,sans-Serif" font-size="10.00">#</text>
<text text-anchor="start" x="23" y="-318.5" font-family="Helvetica,sans-Serif" font-size="10.00">void stopLoaderIfPresent()</text>
<text text-anchor="start" x="14.5" y="-302.5" font-family="Helvetica,sans-Serif" font-size="10.00">&#45;</text>
<text text-anchor="start" x="23" y="-302.5" font-family="Helvetica,sans-Serif" font-size="10.00">void resetWorker()</text>
<polygon fill="#666666" stroke="#666666" points="9,-622 9,-622 165.75,-622 165.75,-622 9,-622"/>
<polygon fill="#666666" stroke="#666666" points="9,-546 9,-546 21,-546 21,-546 9,-546"/>
<polygon fill="#666666" stroke="#666666" points="21,-546 21,-546 165.75,-546 165.75,-546 21,-546"/>
<polygon fill="none" stroke="#666666" points="9,-296 9,-652 165.75,-652 165.75,-296 9,-296"/>
</a>
</g>
</g>
<!-- Node2&#45;&gt;Node1 -->
<g id="edge1_Node000001_Node000002" class="edge">
<title>Node2&#45;&gt;Node1</title>
<g id="a_edge1_Node000001_Node000002"><a xlink:title=" ">
<path fill="none" stroke="#63b8ff" d="M87.38,-284.79C87.38,-276.41 87.38,-268.08 87.38,-259.9"/>
<polygon fill="none" stroke="#63b8ff" points="83.88,-284.73 87.38,-294.73 90.88,-284.73 83.88,-284.73"/>
</a>
</g>
</g>
</g>
</svg>

<g id="navigator" transform="translate(0 0)" fill="#404254">
  <rect fill="#f2f5e9" fill-opacity="0.5" stroke="#606060" stroke-width=".5" x="0" y="0" width="60" height="60"/>
  <use id="zoomplus" xlink:href="#zoomPlus" x="17" y="9" onmousedown="handleZoom(evt,'in')"/>
  <use id="zoomminus" xlink:href="#zoomMin" x="42" y="9" onmousedown="handleZoom(evt,'out')"/>
  <use id="reset" xlink:href="#resetDef" x="30" y="36" onmousedown="handleReset()"/>
   <use id="arrowup" xlink:href="#arrowUp" x="0" y="0" onmousedown="handlePan(0,-1)"/>
  <use id="arrowright" xlink:href="#arrowRight" x="0" y="0" onmousedown="handlePan(1,0)"/>
  <use id="arrowdown" xlink:href="#arrowDown" x="0" y="0" onmousedown="handlePan(0,1)"/>
  <use id="arrowleft" xlink:href="#arrowLeft" x="0" y="0" onmousedown="handlePan(-1,0)"/>
</g>
<svg viewBox="0 0 15 15" width="100%" height="30px" preserveAspectRatio="xMaxYMin meet">
 <g id="arrow_out" transform="scale(0.3 0.3)">
  <a xlink:href="classfr_1_1softsf_1_1canscan_1_1ui_1_1_qr_code_resize__inherit__graph_org.svg" target="_base">
   <rect id="button" ry="5" rx="5" y="6" x="6" height="38" width="38"
        fill="#f2f5e9" fill-opacity="0.5" stroke="#606060" stroke-width="1.0"/>
   <path id="arrow"
     d="M 11.500037,31.436501 C 11.940474,20.09759 22.043105,11.32322 32.158766,21.979434 L 37.068811,17.246167 C 37.068811,17.246167 37.088388,32 37.088388,32 L 22.160133,31.978069 C 22.160133,31.978069 26.997745,27.140456 26.997745,27.140456 C 18.528582,18.264221 13.291696,25.230495 11.500037,31.436501 z"
     style="fill:#404040;"/>
  </a>
 </g>
</svg>

<style type='text/css'>
<![CDATA[
[data-mouse-over-selected='false'] { opacity: 0.7; }
[data-mouse-over-selected='true']  { opacity: 1.0; }
]]>
</style>
<script type="application/ecmascript"><![CDATA[
document.addEventListener('DOMContentLoaded', (event) => {
  highlightEdges();
  highlightAdjacentNodes();
});
]]></script>
</svg>
