<?xml version="1.0" encoding="UTF-8" standalone="no"?>
<!DOCTYPE svg PUBLIC "-//W3C//DTD SVG 1.1//EN"
 "http://www.w3.org/Graphics/SVG/1.1/DTD/svg11.dtd">
<!-- Generated by graphviz version 12.2.1 (20241206.2353)
 -->
<!-- Title: fr.softsf.canscan.CanScan.automaticQRCodeRenderingForFieldsAndControls Pages: 1 -->
<svg width="637pt" height="246pt"
 viewBox="0.00 0.00 636.50 246.00" xmlns="http://www.w3.org/2000/svg" xmlns:xlink="http://www.w3.org/1999/xlink">
<g id="graph0" class="graph" transform="scale(1 1) rotate(0) translate(4 242)">
<title>fr.softsf.canscan.CanScan.automaticQRCodeRenderingForFieldsAndControls</title>
<!-- Node1 -->
<g id="Node000001" class="node">
<title>Node1</title>
<g id="a_Node000001"><a xlink:title="Attaches automatic QR preview updates and input validation to all fields and controls.">
<polygon fill="#999999" stroke="#666666" points="193,-182 0,-182 0,-150 193,-150 193,-182"/>
<text text-anchor="start" x="8" y="-168.5" font-family="Helvetica,sans-Serif" font-size="10.00">fr.softsf.canscan.CanScan.automatic</text>
<text text-anchor="middle" x="96.5" y="-156.5" font-family="Helvetica,sans-Serif" font-size="10.00">QRCodeRenderingForFieldsAndControls</text>
</a>
</g>
</g>
<!-- Node2 -->
<g id="Node000002" class="node">
<title>Node2</title>
<g id="a_Node000002"><a xlink:href="enumfr_1_1softsf_1_1canscan_1_1ui_1_1_ui_components_configuration.html#afe8da76131acc9dd19a15d7f22ca9ef1" target="_top" xlink:title="Attaches a DocumentListener to a JTextField that:">
<polygon fill="white" stroke="#666666" points="409.25,-238 229,-238 229,-194 409.25,-194 409.25,-238"/>
<text text-anchor="start" x="237" y="-224.5" font-family="Helvetica,sans-Serif" font-size="10.00">fr.softsf.canscan.ui.UiComponents</text>
<text text-anchor="start" x="237" y="-212.5" font-family="Helvetica,sans-Serif" font-size="10.00">Configuration.attachLimitedDocument</text>
<text text-anchor="middle" x="319.12" y="-200.5" font-family="Helvetica,sans-Serif" font-size="10.00">Listener</text>
</a>
</g>
</g>
<!-- Node1&#45;&gt;Node2 -->
<g id="edge1_Node000001_Node000002" class="edge">
<title>Node1&#45;&gt;Node2</title>
<g id="a_edge1_Node000001_Node000002"><a xlink:title=" ">
<path fill="none" stroke="#63b8ff" d="M170.05,-182.44C185.25,-185.89 201.54,-189.58 217.56,-193.21"/>
<polygon fill="#63b8ff" stroke="#63b8ff" points="216.59,-196.58 227.11,-195.37 218.13,-189.75 216.59,-196.58"/>
</a>
</g>
</g>
<!-- Node3 -->
<g id="Node000003" class="node">
<title>Node3</title>
<g id="a_Node000003"><a xlink:href="enumfr_1_1softsf_1_1canscan_1_1ui_1_1_ui_components_configuration.html#aa700d9f2a270f6e54fcb53111855fa44" target="_top" xlink:title="Creates a simple DocumentListener that executes the given action on any change to the document.">
<polygon fill="white" stroke="#666666" points="628.5,-232 445.25,-232 445.25,-200 628.5,-200 628.5,-232"/>
<text text-anchor="start" x="453.25" y="-218.5" font-family="Helvetica,sans-Serif" font-size="10.00">fr.softsf.canscan.ui.UiComponents</text>
<text text-anchor="middle" x="536.88" y="-206.5" font-family="Helvetica,sans-Serif" font-size="10.00">Configuration.createDocumentListener</text>
</a>
</g>
</g>
<!-- Node1&#45;&gt;Node3 -->
<g id="edge3_Node000001_Node000003" class="edge">
<title>Node1&#45;&gt;Node3</title>
<g id="a_edge3_Node000001_Node000003"><a xlink:title=" ">
<path fill="none" stroke="#63b8ff" d="M193.48,-167.41C255.36,-169.41 337.41,-174.11 409.25,-185 428.15,-187.87 448.36,-192.21 466.96,-196.76"/>
<polygon fill="#63b8ff" stroke="#63b8ff" points="465.98,-200.12 476.53,-199.15 467.68,-193.33 465.98,-200.12"/>
</a>
</g>
</g>
<!-- Node4 -->
<g id="Node000004" class="node">
<title>Node4</title>
<g id="a_Node000004"><a xlink:href="classfr_1_1softsf_1_1canscan_1_1_can_scan.html#a180290bc488e2346592ded98ccc4b1f3" target="_top" xlink:title="Collects current input and visual settings into a WholeFields for QR code generation.">
<polygon fill="white" stroke="#666666" points="393.88,-132 244.38,-132 244.38,-100 393.88,-100 393.88,-132"/>
<text text-anchor="start" x="252.38" y="-118.5" font-family="Helvetica,sans-Serif" font-size="10.00">fr.softsf.canscan.CanScan.get</text>
<text text-anchor="middle" x="319.12" y="-106.5" font-family="Helvetica,sans-Serif" font-size="10.00">QrInput</text>
</a>
</g>
</g>
<!-- Node1&#45;&gt;Node4 -->
<g id="edge4_Node000001_Node000004" class="edge">
<title>Node1&#45;&gt;Node4</title>
<g id="a_edge4_Node000001_Node000004"><a xlink:title=" ">
<path fill="none" stroke="#63b8ff" d="M170.05,-149.56C190.69,-144.88 213.34,-139.75 234.57,-134.93"/>
<polygon fill="#63b8ff" stroke="#63b8ff" points="235.08,-138.41 244.06,-132.79 233.53,-131.58 235.08,-138.41"/>
</a>
</g>
</g>
<!-- Node2&#45;&gt;Node3 -->
<g id="edge2_Node000002_Node000003" class="edge">
<title>Node2&#45;&gt;Node3</title>
<g id="a_edge2_Node000002_Node000003"><a xlink:title=" ">
<path fill="none" stroke="#63b8ff" d="M409.75,-216C417.53,-216 425.44,-216 433.31,-216"/>
<polygon fill="#63b8ff" stroke="#63b8ff" points="433.28,-219.5 443.28,-216 433.28,-212.5 433.28,-219.5"/>
</a>
</g>
</g>
<!-- Node5 -->
<g id="Node000005" class="node">
<title>Node5</title>
<g id="a_Node000005"><a xlink:href="classfr_1_1softsf_1_1canscan_1_1_can_scan.html#a4e67b1b5c764e72414a5c0f387810f5c" target="_top" xlink:title="Validates and returns the current QR code margin from the margin slider.">
<polygon fill="white" stroke="#666666" points="621.75,-182 452,-182 452,-150 621.75,-150 621.75,-182"/>
<text text-anchor="start" x="460" y="-168.5" font-family="Helvetica,sans-Serif" font-size="10.00">fr.softsf.canscan.CanScan.validate</text>
<text text-anchor="middle" x="536.88" y="-156.5" font-family="Helvetica,sans-Serif" font-size="10.00">AndGetMargin</text>
</a>
</g>
</g>
<!-- Node4&#45;&gt;Node5 -->
<g id="edge5_Node000004_Node000005" class="edge">
<title>Node4&#45;&gt;Node5</title>
<g id="a_edge5_Node000004_Node000005"><a xlink:title=" ">
<path fill="none" stroke="#63b8ff" d="M391.07,-132.44C411.16,-137.1 433.2,-142.2 453.88,-147"/>
<polygon fill="#63b8ff" stroke="#63b8ff" points="452.88,-150.36 463.41,-149.21 454.46,-143.54 452.88,-150.36"/>
</a>
</g>
</g>
<!-- Node6 -->
<g id="Node000006" class="node">
<title>Node6</title>
<g id="a_Node000006"><a xlink:href="classfr_1_1softsf_1_1canscan_1_1_can_scan.html#a8a2b238ac4af96d8710b3e5d7d051f77" target="_top" xlink:title="Validates and returns the current meet UID from the meet title field.">
<polygon fill="white" stroke="#666666" points="621.75,-132 452,-132 452,-100 621.75,-100 621.75,-132"/>
<text text-anchor="start" x="460" y="-118.5" font-family="Helvetica,sans-Serif" font-size="10.00">fr.softsf.canscan.CanScan.validate</text>
<text text-anchor="middle" x="536.88" y="-106.5" font-family="Helvetica,sans-Serif" font-size="10.00">AndGetMeetUID</text>
</a>
</g>
</g>
<!-- Node4&#45;&gt;Node6 -->
<g id="edge6_Node000004_Node000006" class="edge">
<title>Node4&#45;&gt;Node6</title>
<g id="a_edge6_Node000004_Node000006"><a xlink:title=" ">
<path fill="none" stroke="#63b8ff" d="M394.37,-116C409.28,-116 425.14,-116 440.65,-116"/>
<polygon fill="#63b8ff" stroke="#63b8ff" points="440.35,-119.5 450.35,-116 440.35,-112.5 440.35,-119.5"/>
</a>
</g>
</g>
<!-- Node7 -->
<g id="Node000007" class="node">
<title>Node7</title>
<g id="a_Node000007"><a xlink:href="classfr_1_1softsf_1_1canscan_1_1_can_scan.html#a9e8188875168199cde065113ae2a393d" target="_top" xlink:title="Validates and returns the current image&#45;to&#45;QR ratio from the ratio slider.">
<polygon fill="white" stroke="#666666" points="621.75,-82 452,-82 452,-50 621.75,-50 621.75,-82"/>
<text text-anchor="start" x="460" y="-68.5" font-family="Helvetica,sans-Serif" font-size="10.00">fr.softsf.canscan.CanScan.validate</text>
<text text-anchor="middle" x="536.88" y="-56.5" font-family="Helvetica,sans-Serif" font-size="10.00">AndGetRatio</text>
</a>
</g>
</g>
<!-- Node4&#45;&gt;Node7 -->
<g id="edge7_Node000004_Node000007" class="edge">
<title>Node4&#45;&gt;Node7</title>
<g id="a_edge7_Node000004_Node000007"><a xlink:title=" ">
<path fill="none" stroke="#63b8ff" d="M391.07,-99.56C411.16,-94.9 433.2,-89.8 453.88,-85"/>
<polygon fill="#63b8ff" stroke="#63b8ff" points="454.46,-88.46 463.41,-82.79 452.88,-81.64 454.46,-88.46"/>
</a>
</g>
</g>
<!-- Node8 -->
<g id="Node000008" class="node">
<title>Node8</title>
<g id="a_Node000008"><a xlink:href="classfr_1_1softsf_1_1canscan_1_1_can_scan.html#a6d139bb8d0a3c7081096c8956189b684" target="_top" xlink:title="Validates and returns the QR code size from the corresponding text field.">
<polygon fill="white" stroke="#666666" points="621.75,-32 452,-32 452,0 621.75,0 621.75,-32"/>
<text text-anchor="start" x="460" y="-18.5" font-family="Helvetica,sans-Serif" font-size="10.00">fr.softsf.canscan.CanScan.validate</text>
<text text-anchor="middle" x="536.88" y="-6.5" font-family="Helvetica,sans-Serif" font-size="10.00">AndGetSize</text>
</a>
</g>
</g>
<!-- Node4&#45;&gt;Node8 -->
<g id="edge8_Node000004_Node000008" class="edge">
<title>Node4&#45;&gt;Node8</title>
<g id="a_edge8_Node000004_Node000008"><a xlink:title=" ">
<path fill="none" stroke="#63b8ff" d="M343.09,-99.62C367.45,-82.89 407.53,-57.15 445.25,-41 449.27,-39.28 453.44,-37.64 457.69,-36.1"/>
<polygon fill="#63b8ff" stroke="#63b8ff" points="458.61,-39.48 466.93,-32.92 456.33,-32.86 458.61,-39.48"/>
</a>
</g>
</g>
</g>
</svg>
