<?xml version="1.0" encoding="UTF-8" standalone="no"?>
<!DOCTYPE svg PUBLIC "-//W3C//DTD SVG 1.1//EN"
 "http://www.w3.org/Graphics/SVG/1.1/DTD/svg11.dtd">
<!-- Generated by graphviz version 12.2.1 (20241206.2353)
 -->
<!-- Title: fr.softsf.canscan.CanScan.main Pages: 1 -->
<svg width="1411pt" height="472pt"
 viewBox="0.00 0.00 1410.75 472.00" xmlns="http://www.w3.org/2000/svg" xmlns:xlink="http://www.w3.org/1999/xlink">
<g id="graph0" class="graph" transform="scale(1 1) rotate(0) translate(4 468)">
<title>fr.softsf.canscan.CanScan.main</title>
<!-- Node1 -->
<g id="Node000001" class="node">
<title>Node1</title>
<g id="a_Node000001"><a xlink:title="Application entry point.">
<polygon fill="#999999" stroke="#666666" points="157,-189 0,-189 0,-169 157,-169 157,-189"/>
<text text-anchor="middle" x="78.5" y="-175.5" font-family="Helvetica,sans-Serif" font-size="10.00">fr.softsf.canscan.CanScan.main</text>
</a>
</g>
</g>
<!-- Node2 -->
<g id="Node000002" class="node">
<title>Node2</title>
<g id="a_Node000002"><a xlink:href="classfr_1_1softsf_1_1canscan_1_1_can_scan.html#a102bcbc6cda608b642e870ba3fde6344" target="_top" xlink:title="Initializes the CanScan GUI.">
<polygon fill="white" stroke="#666666" points="329,-195 193,-195 193,-163 329,-163 329,-195"/>
<text text-anchor="start" x="201" y="-181.5" font-family="Helvetica,sans-Serif" font-size="10.00">fr.softsf.canscan.CanScan.</text>
<text text-anchor="middle" x="261" y="-169.5" font-family="Helvetica,sans-Serif" font-size="10.00">CanScan</text>
</a>
</g>
</g>
<!-- Node1&#45;&gt;Node2 -->
<g id="edge1_Node000001_Node000002" class="edge">
<title>Node1&#45;&gt;Node2</title>
<g id="a_edge1_Node000001_Node000002"><a xlink:title=" ">
<path fill="none" stroke="#63b8ff" d="M157.36,-179C165.24,-179 173.26,-179 181.15,-179"/>
<polygon fill="#63b8ff" stroke="#63b8ff" points="181.09,-182.5 191.09,-179 181.09,-175.5 181.09,-182.5"/>
</a>
</g>
</g>
<!-- Node3 -->
<g id="Node000003" class="node">
<title>Node3</title>
<g id="a_Node000003"><a xlink:href="classfr_1_1softsf_1_1canscan_1_1_can_scan.html#a070115929fdc69b249d21866a00a47cc" target="_top" xlink:title="Assigns component names for identification.">
<polygon fill="white" stroke="#666666" points="536.25,-358 365,-358 365,-326 536.25,-326 536.25,-358"/>
<text text-anchor="start" x="373" y="-344.5" font-family="Helvetica,sans-Serif" font-size="10.00">fr.softsf.canscan.CanScan.initialize</text>
<text text-anchor="middle" x="450.62" y="-332.5" font-family="Helvetica,sans-Serif" font-size="10.00">ComponentNames</text>
</a>
</g>
</g>
<!-- Node2&#45;&gt;Node3 -->
<g id="edge2_Node000002_Node000003" class="edge">
<title>Node2&#45;&gt;Node3</title>
<g id="a_edge2_Node000002_Node000003"><a xlink:title=" ">
<path fill="none" stroke="#63b8ff" d="M270.52,-195.36C285.82,-223.18 320.51,-279.82 365,-312 369.54,-315.28 374.48,-318.24 379.6,-320.89"/>
<polygon fill="#63b8ff" stroke="#63b8ff" points="377.74,-323.88 388.28,-324.98 380.73,-317.55 377.74,-323.88"/>
</a>
</g>
</g>
<!-- Node4 -->
<g id="Node000004" class="node">
<title>Node4</title>
<g id="a_Node000004"><a xlink:href="classfr_1_1softsf_1_1canscan_1_1_can_scan.html#a14263ca931024d56cd9bed4af4b74c25" target="_top" xlink:title="Builds the main panel with header, QR preview overlay, and spacer.">
<polygon fill="white" stroke="#666666" points="743.5,-426 572.25,-426 572.25,-394 743.5,-394 743.5,-426"/>
<text text-anchor="start" x="580.25" y="-412.5" font-family="Helvetica,sans-Serif" font-size="10.00">fr.softsf.canscan.CanScan.initialize</text>
<text text-anchor="middle" x="657.88" y="-400.5" font-family="Helvetica,sans-Serif" font-size="10.00">MainPanel</text>
</a>
</g>
</g>
<!-- Node2&#45;&gt;Node4 -->
<g id="edge3_Node000002_Node000004" class="edge">
<title>Node2&#45;&gt;Node4</title>
<g id="a_edge3_Node000002_Node000004"><a xlink:title=" ">
<path fill="none" stroke="#63b8ff" d="M273.98,-195.33C291.41,-217.82 325.95,-257.95 365,-279 433.62,-316 474.24,-269.75 536.25,-317 563.45,-337.73 545.78,-363.35 572.25,-385 573.38,-385.93 574.55,-386.82 575.75,-387.68"/>
<polygon fill="#63b8ff" stroke="#63b8ff" points="573.79,-390.58 584.14,-392.85 577.46,-384.63 573.79,-390.58"/>
</a>
</g>
</g>
<!-- Node12 -->
<g id="Node000012" class="node">
<title>Node12</title>
<g id="a_Node000012"><a xlink:href="classfr_1_1softsf_1_1canscan_1_1_can_scan.html#afb8d451dc5d6d9c7b6700e4b688c98a3" target="_top" xlink:title="Builds the north panel containing mode selection, card panels, common fields, and the generate button...">
<polygon fill="white" stroke="#666666" points="536.25,-270 365,-270 365,-238 536.25,-238 536.25,-270"/>
<text text-anchor="start" x="373" y="-256.5" font-family="Helvetica,sans-Serif" font-size="10.00">fr.softsf.canscan.CanScan.initialize</text>
<text text-anchor="middle" x="450.62" y="-244.5" font-family="Helvetica,sans-Serif" font-size="10.00">NorthPanel</text>
</a>
</g>
</g>
<!-- Node2&#45;&gt;Node12 -->
<g id="edge12_Node000002_Node000012" class="edge">
<title>Node2&#45;&gt;Node12</title>
<g id="a_edge12_Node000002_Node000012"><a xlink:title=" ">
<path fill="none" stroke="#63b8ff" d="M292.51,-195.45C312.7,-205.93 339.98,-219.31 365,-229 369.42,-230.71 374.01,-232.38 378.66,-233.98"/>
<polygon fill="#63b8ff" stroke="#63b8ff" points="377.54,-237.29 388.13,-237.12 379.74,-230.65 377.54,-237.29"/>
</a>
</g>
</g>
<!-- Node26 -->
<g id="Node000026" class="node">
<title>Node26</title>
<g id="a_Node000026"><a xlink:href="classfr_1_1softsf_1_1canscan_1_1_can_scan.html#a4928478365bc812571ac037662cc5f6b" target="_top" xlink:title="Wraps the main panel in a scrollable container.">
<polygon fill="white" stroke="#666666" points="536.25,-220 365,-220 365,-188 536.25,-188 536.25,-220"/>
<text text-anchor="start" x="373" y="-206.5" font-family="Helvetica,sans-Serif" font-size="10.00">fr.softsf.canscan.CanScan.initialize</text>
<text text-anchor="middle" x="450.62" y="-194.5" font-family="Helvetica,sans-Serif" font-size="10.00">ScrollPane</text>
</a>
</g>
</g>
<!-- Node2&#45;&gt;Node26 -->
<g id="edge28_Node000002_Node000026" class="edge">
<title>Node2&#45;&gt;Node26</title>
<g id="a_edge28_Node000002_Node000026"><a xlink:title=" ">
<path fill="none" stroke="#63b8ff" d="M329.47,-187.99C337.26,-189.03 345.3,-190.1 353.37,-191.17"/>
<polygon fill="#63b8ff" stroke="#63b8ff" points="352.9,-194.64 363.27,-192.49 353.82,-187.7 352.9,-194.64"/>
</a>
</g>
</g>
<!-- Node27 -->
<g id="Node000027" class="node">
<title>Node27</title>
<g id="a_Node000027"><a xlink:href="classfr_1_1softsf_1_1canscan_1_1_can_scan.html#a358629f85831dc6cd4978c8854d88561" target="_top" xlink:title="Configures sliders for logo margin and ratio.">
<polygon fill="white" stroke="#666666" points="536.25,-170 365,-170 365,-138 536.25,-138 536.25,-170"/>
<text text-anchor="start" x="373" y="-156.5" font-family="Helvetica,sans-Serif" font-size="10.00">fr.softsf.canscan.CanScan.initialize</text>
<text text-anchor="middle" x="450.62" y="-144.5" font-family="Helvetica,sans-Serif" font-size="10.00">Sliders</text>
</a>
</g>
</g>
<!-- Node2&#45;&gt;Node27 -->
<g id="edge29_Node000002_Node000027" class="edge">
<title>Node2&#45;&gt;Node27</title>
<g id="a_edge29_Node000002_Node000027"><a xlink:title=" ">
<path fill="none" stroke="#63b8ff" d="M329.47,-170.01C337.26,-168.97 345.3,-167.9 353.37,-166.83"/>
<polygon fill="#63b8ff" stroke="#63b8ff" points="353.82,-170.3 363.27,-165.51 352.9,-163.36 353.82,-170.3"/>
</a>
</g>
</g>
<!-- Node28 -->
<g id="Node000028" class="node">
<title>Node28</title>
<g id="a_Node000028"><a xlink:href="classfr_1_1softsf_1_1canscan_1_1_can_scan.html#ae9d7eee5ec656c89834bed84a588334f" target="_top" xlink:title="Builds the application window title from version metadata.">
<polygon fill="white" stroke="#666666" points="536.25,-120 365,-120 365,-88 536.25,-88 536.25,-120"/>
<text text-anchor="start" x="373" y="-106.5" font-family="Helvetica,sans-Serif" font-size="10.00">fr.softsf.canscan.CanScan.initialize</text>
<text text-anchor="middle" x="450.62" y="-94.5" font-family="Helvetica,sans-Serif" font-size="10.00">Title</text>
</a>
</g>
</g>
<!-- Node2&#45;&gt;Node28 -->
<g id="edge30_Node000002_Node000028" class="edge">
<title>Node2&#45;&gt;Node28</title>
<g id="a_edge30_Node000002_Node000028"><a xlink:title=" ">
<path fill="none" stroke="#63b8ff" d="M292.51,-162.55C312.7,-152.07 339.98,-138.69 365,-129 369.42,-127.29 374.01,-125.62 378.66,-124.02"/>
<polygon fill="#63b8ff" stroke="#63b8ff" points="379.74,-127.35 388.13,-120.88 377.54,-120.71 379.74,-127.35"/>
</a>
</g>
</g>
<!-- Node30 -->
<g id="Node000030" class="node">
<title>Node30</title>
<g id="a_Node000030"><a xlink:href="classfr_1_1softsf_1_1canscan_1_1_can_scan.html#a0a52159db640660477196e337ec62a9b" target="_top" xlink:title="Finalizes window layout and appearance.">
<polygon fill="white" stroke="#666666" points="536.25,-32 365,-32 365,0 536.25,0 536.25,-32"/>
<text text-anchor="start" x="373" y="-18.5" font-family="Helvetica,sans-Serif" font-size="10.00">fr.softsf.canscan.CanScan.initialize</text>
<text text-anchor="middle" x="450.62" y="-6.5" font-family="Helvetica,sans-Serif" font-size="10.00">Window</text>
</a>
</g>
</g>
<!-- Node2&#45;&gt;Node30 -->
<g id="edge33_Node000002_Node000030" class="edge">
<title>Node2&#45;&gt;Node30</title>
<g id="a_edge33_Node000002_Node000030"><a xlink:title=" ">
<path fill="none" stroke="#63b8ff" d="M270.52,-162.64C285.82,-134.82 320.51,-78.18 365,-46 369.54,-42.72 374.48,-39.76 379.6,-37.11"/>
<polygon fill="#63b8ff" stroke="#63b8ff" points="380.73,-40.45 388.28,-33.02 377.74,-34.12 380.73,-40.45"/>
</a>
</g>
</g>
<!-- Node5 -->
<g id="Node000005" class="node">
<title>Node5</title>
<g id="a_Node000005"><a xlink:href="classfr_1_1softsf_1_1canscan_1_1_can_scan.html#ad470e3c0750cf142dc611b1aeeda3a97" target="_top" xlink:title="Attaches automatic QR code preview updates to all input fields and controls.">
<polygon fill="white" stroke="#666666" points="972.5,-464 779.5,-464 779.5,-432 972.5,-432 972.5,-464"/>
<text text-anchor="start" x="787.5" y="-450.5" font-family="Helvetica,sans-Serif" font-size="10.00">fr.softsf.canscan.CanScan.automatic</text>
<text text-anchor="middle" x="876" y="-438.5" font-family="Helvetica,sans-Serif" font-size="10.00">QRCodeRenderingForFieldsAndControls</text>
</a>
</g>
</g>
<!-- Node4&#45;&gt;Node5 -->
<g id="edge4_Node000004_Node000005" class="edge">
<title>Node4&#45;&gt;Node5</title>
<g id="a_edge4_Node000004_Node000005"><a xlink:title=" ">
<path fill="none" stroke="#63b8ff" d="M743.98,-424.96C752.62,-426.48 761.46,-428.04 770.28,-429.59"/>
<polygon fill="#63b8ff" stroke="#63b8ff" points="769.46,-433 779.92,-431.28 770.67,-426.1 769.46,-433"/>
</a>
</g>
</g>
<!-- Node7 -->
<g id="Node000007" class="node">
<title>Node7</title>
<g id="a_Node000007"><a xlink:href="classfr_1_1softsf_1_1canscan_1_1_can_scan.html#a180290bc488e2346592ded98ccc4b1f3" target="_top" xlink:title="Collects current input and visual settings into a WholeFields for QR code generation.">
<polygon fill="white" stroke="#666666" points="1174.88,-300 1025.38,-300 1025.38,-268 1174.88,-268 1174.88,-300"/>
<text text-anchor="start" x="1033.38" y="-286.5" font-family="Helvetica,sans-Serif" font-size="10.00">fr.softsf.canscan.CanScan.get</text>
<text text-anchor="middle" x="1100.12" y="-274.5" font-family="Helvetica,sans-Serif" font-size="10.00">QrInput</text>
</a>
</g>
</g>
<!-- Node4&#45;&gt;Node7 -->
<g id="edge11_Node000004_Node000007" class="edge">
<title>Node4&#45;&gt;Node7</title>
<g id="a_edge11_Node000004_Node000007"><a xlink:title=" ">
<path fill="none" stroke="#63b8ff" d="M743.76,-416.42C808.64,-418.24 899.1,-414.01 972.5,-385 1014.42,-368.43 1053.5,-333 1076.85,-308.84"/>
<polygon fill="#63b8ff" stroke="#63b8ff" points="1079.36,-311.28 1083.68,-301.6 1074.27,-306.47 1079.36,-311.28"/>
</a>
</g>
</g>
<!-- Node6 -->
<g id="Node000006" class="node">
<title>Node6</title>
<g id="a_Node000006"><a xlink:href="enumfr_1_1softsf_1_1canscan_1_1ui_1_1_ui_components_configuration.html#aa700d9f2a270f6e54fcb53111855fa44" target="_top" xlink:title="Creates simple DocumentListener that executes action on any document change.">
<polygon fill="white" stroke="#666666" points="1191.75,-464 1008.5,-464 1008.5,-432 1191.75,-432 1191.75,-464"/>
<text text-anchor="start" x="1016.5" y="-450.5" font-family="Helvetica,sans-Serif" font-size="10.00">fr.softsf.canscan.ui.UiComponents</text>
<text text-anchor="middle" x="1100.12" y="-438.5" font-family="Helvetica,sans-Serif" font-size="10.00">Configuration.createDocumentListener</text>
</a>
</g>
</g>
<!-- Node5&#45;&gt;Node6 -->
<g id="edge5_Node000005_Node000006" class="edge">
<title>Node5&#45;&gt;Node6</title>
<g id="a_edge5_Node000005_Node000006"><a xlink:title=" ">
<path fill="none" stroke="#63b8ff" d="M972.81,-448C980.79,-448 988.88,-448 996.91,-448"/>
<polygon fill="#63b8ff" stroke="#63b8ff" points="996.68,-451.5 1006.68,-448 996.68,-444.5 996.68,-451.5"/>
</a>
</g>
</g>
<!-- Node5&#45;&gt;Node7 -->
<g id="edge6_Node000005_Node000007" class="edge">
<title>Node5&#45;&gt;Node7</title>
<g id="a_edge6_Node000005_Node000007"><a xlink:title=" ">
<path fill="none" stroke="#63b8ff" d="M944.68,-431.52C954.38,-427.81 963.95,-423.35 972.5,-418 1018.78,-389.05 1059.59,-339.2 1081.69,-309.15"/>
<polygon fill="#63b8ff" stroke="#63b8ff" points="1084.29,-311.52 1087.3,-301.37 1078.61,-307.43 1084.29,-311.52"/>
</a>
</g>
</g>
<!-- Node8 -->
<g id="Node000008" class="node">
<title>Node8</title>
<g id="a_Node000008"><a xlink:href="classfr_1_1softsf_1_1canscan_1_1_can_scan.html#a381368b99c4a0857c6abe6349b2c6d27" target="_top" xlink:title="Calculates the available height for QR code rendering.">
<polygon fill="white" stroke="#666666" points="1402.75,-175 1227.75,-175 1227.75,-143 1402.75,-143 1402.75,-175"/>
<text text-anchor="start" x="1235.75" y="-161.5" font-family="Helvetica,sans-Serif" font-size="10.00">fr.softsf.canscan.CanScan.calculate</text>
<text text-anchor="middle" x="1315.25" y="-149.5" font-family="Helvetica,sans-Serif" font-size="10.00">AvailableQrCodeLabelHeight</text>
</a>
</g>
</g>
<!-- Node7&#45;&gt;Node8 -->
<g id="edge7_Node000007_Node000008" class="edge">
<title>Node7&#45;&gt;Node8</title>
<g id="a_edge7_Node000007_Node000008"><a xlink:title=" ">
<path fill="none" stroke="#63b8ff" d="M1136.38,-267.59C1153.51,-259.15 1174.14,-248.28 1191.75,-237 1208.82,-226.07 1210.94,-220.32 1227.75,-209 1242.36,-199.16 1259,-189.26 1273.75,-180.89"/>
<polygon fill="#63b8ff" stroke="#63b8ff" points="1275.28,-184.05 1282.29,-176.11 1271.85,-177.94 1275.28,-184.05"/>
</a>
</g>
</g>
<!-- Node9 -->
<g id="Node000009" class="node">
<title>Node9</title>
<g id="a_Node000009"><a xlink:href="classfr_1_1softsf_1_1canscan_1_1_can_scan.html#a4e67b1b5c764e72414a5c0f387810f5c" target="_top" xlink:title="Validates and returns the current QR code margin from the margin slider.">
<polygon fill="white" stroke="#666666" points="1400.12,-350 1230.38,-350 1230.38,-318 1400.12,-318 1400.12,-350"/>
<text text-anchor="start" x="1238.38" y="-336.5" font-family="Helvetica,sans-Serif" font-size="10.00">fr.softsf.canscan.CanScan.validate</text>
<text text-anchor="middle" x="1315.25" y="-324.5" font-family="Helvetica,sans-Serif" font-size="10.00">AndGetMargin</text>
</a>
</g>
</g>
<!-- Node7&#45;&gt;Node9 -->
<g id="edge8_Node000007_Node000009" class="edge">
<title>Node7&#45;&gt;Node9</title>
<g id="a_edge8_Node000007_Node000009"><a xlink:title=" ">
<path fill="none" stroke="#63b8ff" d="M1171.21,-300.44C1190.96,-305.08 1212.62,-310.16 1232.97,-314.93"/>
<polygon fill="#63b8ff" stroke="#63b8ff" points="1232.12,-318.33 1242.65,-317.2 1233.72,-311.51 1232.12,-318.33"/>
</a>
</g>
</g>
<!-- Node10 -->
<g id="Node000010" class="node">
<title>Node10</title>
<g id="a_Node000010"><a xlink:href="classfr_1_1softsf_1_1canscan_1_1_can_scan.html#a9e8188875168199cde065113ae2a393d" target="_top" xlink:title="Validates and returns the current image&#45;to&#45;QR ratio from the ratio slider.">
<polygon fill="white" stroke="#666666" points="1400.12,-300 1230.38,-300 1230.38,-268 1400.12,-268 1400.12,-300"/>
<text text-anchor="start" x="1238.38" y="-286.5" font-family="Helvetica,sans-Serif" font-size="10.00">fr.softsf.canscan.CanScan.validate</text>
<text text-anchor="middle" x="1315.25" y="-274.5" font-family="Helvetica,sans-Serif" font-size="10.00">AndGetRatio</text>
</a>
</g>
</g>
<!-- Node7&#45;&gt;Node10 -->
<g id="edge9_Node000007_Node000010" class="edge">
<title>Node7&#45;&gt;Node10</title>
<g id="a_edge9_Node000007_Node000010"><a xlink:title=" ">
<path fill="none" stroke="#63b8ff" d="M1175.37,-284C1189.44,-284 1204.34,-284 1218.96,-284"/>
<polygon fill="#63b8ff" stroke="#63b8ff" points="1218.55,-287.5 1228.55,-284 1218.55,-280.5 1218.55,-287.5"/>
</a>
</g>
</g>
<!-- Node11 -->
<g id="Node000011" class="node">
<title>Node11</title>
<g id="a_Node000011"><a xlink:href="classfr_1_1softsf_1_1canscan_1_1_can_scan.html#a6d139bb8d0a3c7081096c8956189b684" target="_top" xlink:title="Validates and returns the QR code size from the corresponding text field.">
<polygon fill="white" stroke="#666666" points="1400.12,-250 1230.38,-250 1230.38,-218 1400.12,-218 1400.12,-250"/>
<text text-anchor="start" x="1238.38" y="-236.5" font-family="Helvetica,sans-Serif" font-size="10.00">fr.softsf.canscan.CanScan.validate</text>
<text text-anchor="middle" x="1315.25" y="-224.5" font-family="Helvetica,sans-Serif" font-size="10.00">AndGetSize</text>
</a>
</g>
</g>
<!-- Node7&#45;&gt;Node11 -->
<g id="edge10_Node000007_Node000011" class="edge">
<title>Node7&#45;&gt;Node11</title>
<g id="a_edge10_Node000007_Node000011"><a xlink:title=" ">
<path fill="none" stroke="#63b8ff" d="M1171.21,-267.56C1190.96,-262.92 1212.62,-257.84 1232.97,-253.07"/>
<polygon fill="#63b8ff" stroke="#63b8ff" points="1233.72,-256.49 1242.65,-250.8 1232.12,-249.67 1233.72,-256.49"/>
</a>
</g>
</g>
<!-- Node13 -->
<g id="Node000013" class="node">
<title>Node13</title>
<g id="a_Node000013"><a xlink:href="classfr_1_1softsf_1_1canscan_1_1_can_scan.html#ab2e018ca62c7497c29e84f42ae870daa" target="_top" xlink:title="Adds MECARD and Free card panels to the north panel.">
<polygon fill="white" stroke="#666666" points="733.75,-376 582,-376 582,-344 733.75,-344 733.75,-376"/>
<text text-anchor="start" x="590" y="-362.5" font-family="Helvetica,sans-Serif" font-size="10.00">fr.softsf.canscan.CanScan.add</text>
<text text-anchor="middle" x="657.88" y="-350.5" font-family="Helvetica,sans-Serif" font-size="10.00">NorthPanelCardPanels</text>
</a>
</g>
</g>
<!-- Node12&#45;&gt;Node13 -->
<g id="edge13_Node000012_Node000013" class="edge">
<title>Node12&#45;&gt;Node13</title>
<g id="a_edge13_Node000012_Node000013"><a xlink:title=" ">
<path fill="none" stroke="#63b8ff" d="M512.69,-270.47C521.04,-274.17 529.17,-278.63 536.25,-284 558.36,-300.76 549.7,-318.84 572.25,-335 573.83,-336.13 575.47,-337.22 577.15,-338.25"/>
<polygon fill="#63b8ff" stroke="#63b8ff" points="575.37,-341.27 585.83,-342.94 578.69,-335.11 575.37,-341.27"/>
</a>
</g>
</g>
<!-- Node16 -->
<g id="Node000016" class="node">
<title>Node16</title>
<g id="a_Node000016"><a xlink:href="classfr_1_1softsf_1_1canscan_1_1_can_scan.html#a94ab4df98de0d05977e6a65ab75f89f0" target="_top" xlink:title="Adds common input fields to the north panel.">
<polygon fill="white" stroke="#666666" points="733.75,-326 582,-326 582,-294 733.75,-294 733.75,-326"/>
<text text-anchor="start" x="590" y="-312.5" font-family="Helvetica,sans-Serif" font-size="10.00">fr.softsf.canscan.CanScan.add</text>
<text text-anchor="middle" x="657.88" y="-300.5" font-family="Helvetica,sans-Serif" font-size="10.00">NorthPanelCommonFields</text>
</a>
</g>
</g>
<!-- Node12&#45;&gt;Node16 -->
<g id="edge16_Node000012_Node000016" class="edge">
<title>Node12&#45;&gt;Node16</title>
<g id="a_edge16_Node000012_Node000016"><a xlink:title=" ">
<path fill="none" stroke="#63b8ff" d="M512.1,-270.5C535.17,-276.79 561.68,-284.03 585.66,-290.57"/>
<polygon fill="#63b8ff" stroke="#63b8ff" points="584.45,-293.87 595.02,-293.12 586.29,-287.12 584.45,-293.87"/>
</a>
</g>
</g>
<!-- Node18 -->
<g id="Node000018" class="node">
<title>Node18</title>
<g id="a_Node000018"><a xlink:href="classfr_1_1softsf_1_1canscan_1_1_can_scan.html#a9f205dfdb266d5d7f8f8899b69742663" target="_top" xlink:title="Adds the generate button to the north panel.">
<polygon fill="white" stroke="#666666" points="733.75,-276 582,-276 582,-244 733.75,-244 733.75,-276"/>
<text text-anchor="start" x="590" y="-262.5" font-family="Helvetica,sans-Serif" font-size="10.00">fr.softsf.canscan.CanScan.add</text>
<text text-anchor="middle" x="657.88" y="-250.5" font-family="Helvetica,sans-Serif" font-size="10.00">NorthPanelGenerateButton</text>
</a>
</g>
</g>
<!-- Node12&#45;&gt;Node18 -->
<g id="edge19_Node000012_Node000018" class="edge">
<title>Node12&#45;&gt;Node18</title>
<g id="a_edge19_Node000012_Node000018"><a xlink:title=" ">
<path fill="none" stroke="#63b8ff" d="M536.59,-256.48C547.84,-256.81 559.38,-257.15 570.65,-257.48"/>
<polygon fill="#63b8ff" stroke="#63b8ff" points="570.2,-260.97 580.3,-257.76 570.4,-253.97 570.2,-260.97"/>
</a>
</g>
</g>
<!-- Node19 -->
<g id="Node000019" class="node">
<title>Node19</title>
<g id="a_Node000019"><a xlink:href="classfr_1_1softsf_1_1canscan_1_1_can_scan.html#aa469763b92dd7cbc6dfdb9aaa0116b33" target="_top" xlink:title="Adds mode selection controls (MECARD/Free) to the north panel.">
<polygon fill="white" stroke="#666666" points="733.75,-226 582,-226 582,-194 733.75,-194 733.75,-226"/>
<text text-anchor="start" x="590" y="-212.5" font-family="Helvetica,sans-Serif" font-size="10.00">fr.softsf.canscan.CanScan.add</text>
<text text-anchor="middle" x="657.88" y="-200.5" font-family="Helvetica,sans-Serif" font-size="10.00">NorthPanelModeSelection</text>
</a>
</g>
</g>
<!-- Node12&#45;&gt;Node19 -->
<g id="edge20_Node000012_Node000019" class="edge">
<title>Node12&#45;&gt;Node19</title>
<g id="a_edge20_Node000012_Node000019"><a xlink:title=" ">
<path fill="none" stroke="#63b8ff" d="M528.34,-237.55C542.09,-234.61 556.5,-231.52 570.5,-228.52"/>
<polygon fill="#63b8ff" stroke="#63b8ff" points="571.09,-231.97 580.13,-226.45 569.62,-225.13 571.09,-231.97"/>
</a>
</g>
</g>
<!-- Node24 -->
<g id="Node000024" class="node">
<title>Node24</title>
<g id="a_Node000024"><a xlink:href="classfr_1_1softsf_1_1canscan_1_1_can_scan.html#ada8edc3d5abda489ce9f75a0613cfc71" target="_top" xlink:title="Creates the base north panel with layout, maximum width, and padding applied.">
<polygon fill="white" stroke="#666666" points="732.62,-176 583.12,-176 583.12,-144 732.62,-144 732.62,-176"/>
<text text-anchor="start" x="591.12" y="-162.5" font-family="Helvetica,sans-Serif" font-size="10.00">fr.softsf.canscan.CanScan.get</text>
<text text-anchor="middle" x="657.88" y="-150.5" font-family="Helvetica,sans-Serif" font-size="10.00">NorthJPanel</text>
</a>
</g>
</g>
<!-- Node12&#45;&gt;Node24 -->
<g id="edge26_Node000012_Node000024" class="edge">
<title>Node12&#45;&gt;Node24</title>
<g id="a_edge26_Node000012_Node000024"><a xlink:title=" ">
<path fill="none" stroke="#63b8ff" d="M520.23,-237.69C525.85,-235.18 531.27,-232.3 536.25,-229 557.3,-215.02 551.2,-198.98 572.25,-185 574.12,-183.76 576.05,-182.58 578.02,-181.46"/>
<polygon fill="#63b8ff" stroke="#63b8ff" points="579.55,-184.61 586.92,-176.99 576.41,-178.35 579.55,-184.61"/>
</a>
</g>
</g>
<!-- Node25 -->
<g id="Node000025" class="node">
<title>Node25</title>
<g id="a_Node000025"><a xlink:href="classfr_1_1softsf_1_1canscan_1_1_can_scan.html#aeb5550da33925e95999aae23f525f7c5" target="_top" xlink:title="Creates default GridBagConstraints for consistent layout configuration.">
<polygon fill="white" stroke="#666666" points="736.75,-126 579,-126 579,-94 736.75,-94 736.75,-126"/>
<text text-anchor="start" x="587" y="-112.5" font-family="Helvetica,sans-Serif" font-size="10.00">fr.softsf.canscan.CanScan.north</text>
<text text-anchor="middle" x="657.88" y="-100.5" font-family="Helvetica,sans-Serif" font-size="10.00">PanelGridBagConstraints</text>
</a>
</g>
</g>
<!-- Node12&#45;&gt;Node25 -->
<g id="edge27_Node000012_Node000025" class="edge">
<title>Node12&#45;&gt;Node25</title>
<g id="a_edge27_Node000012_Node000025"><a xlink:title=" ">
<path fill="none" stroke="#63b8ff" d="M524.35,-237.72C528.63,-235.21 532.65,-232.33 536.25,-229 569.1,-198.63 539.4,-165.37 572.25,-135 573.15,-134.17 574.08,-133.36 575.03,-132.59"/>
<polygon fill="#63b8ff" stroke="#63b8ff" points="576.67,-135.71 582.91,-127.14 572.69,-129.95 576.67,-135.71"/>
</a>
</g>
</g>
<!-- Node14 -->
<g id="Node000014" class="node">
<title>Node14</title>
<g id="a_Node000014"><a xlink:href="classfr_1_1softsf_1_1canscan_1_1_can_scan.html#a38d65dd319daee1c3288690c17e43ca5" target="_top" xlink:title="Populates the FREE panel with a multiline text area for arbitrary text or URLs.">
<polygon fill="white" stroke="#666666" points="962.75,-376 789.25,-376 789.25,-356 962.75,-356 962.75,-376"/>
<text text-anchor="middle" x="876" y="-362.5" font-family="Helvetica,sans-Serif" font-size="10.00">fr.softsf.canscan.CanScan.freeCard</text>
</a>
</g>
</g>
<!-- Node13&#45;&gt;Node14 -->
<g id="edge14_Node000013_Node000014" class="edge">
<title>Node13&#45;&gt;Node14</title>
<g id="a_edge14_Node000013_Node000014"><a xlink:title=" ">
<path fill="none" stroke="#63b8ff" d="M734.16,-362.09C748.24,-362.48 763.13,-362.89 777.76,-363.3"/>
<polygon fill="#63b8ff" stroke="#63b8ff" points="777.27,-366.79 787.37,-363.57 777.47,-359.79 777.27,-366.79"/>
</a>
</g>
</g>
<!-- Node15 -->
<g id="Node000015" class="node">
<title>Node15</title>
<g id="a_Node000015"><a xlink:href="classfr_1_1softsf_1_1canscan_1_1_can_scan.html#aed7e3048974882318a6519d8d36e8ec0" target="_top" xlink:title="Populates the MECARD panel with structured contact fields.">
<polygon fill="white" stroke="#666666" points="960.12,-338 791.88,-338 791.88,-318 960.12,-318 960.12,-338"/>
<text text-anchor="middle" x="876" y="-324.5" font-family="Helvetica,sans-Serif" font-size="10.00">fr.softsf.canscan.CanScan.mecard</text>
</a>
</g>
</g>
<!-- Node13&#45;&gt;Node15 -->
<g id="edge15_Node000013_Node000015" class="edge">
<title>Node13&#45;&gt;Node15</title>
<g id="a_edge15_Node000013_Node000015"><a xlink:title=" ">
<path fill="none" stroke="#63b8ff" d="M734.16,-348.85C753.21,-346.03 773.75,-342.99 793.1,-340.13"/>
<polygon fill="#63b8ff" stroke="#63b8ff" points="793.46,-343.61 802.84,-338.68 792.44,-336.69 793.46,-343.61"/>
</a>
</g>
</g>
<!-- Node17 -->
<g id="Node000017" class="node">
<title>Node17</title>
<g id="a_Node000017"><a xlink:href="classfr_1_1softsf_1_1canscan_1_1_can_scan.html#a17b0a72ab305f98f86591411b6a352f2" target="_top" xlink:title="Creates the color selection panel for QR code and background colors.">
<polygon fill="white" stroke="#666666" points="954.5,-300 797.5,-300 797.5,-268 954.5,-268 954.5,-300"/>
<text text-anchor="start" x="805.5" y="-286.5" font-family="Helvetica,sans-Serif" font-size="10.00">fr.softsf.canscan.CanScan.color</text>
<text text-anchor="middle" x="876" y="-274.5" font-family="Helvetica,sans-Serif" font-size="10.00">Panel</text>
</a>
</g>
</g>
<!-- Node16&#45;&gt;Node17 -->
<g id="edge17_Node000016_Node000017" class="edge">
<title>Node16&#45;&gt;Node17</title>
<g id="a_edge17_Node000016_Node000017"><a xlink:title=" ">
<path fill="none" stroke="#63b8ff" d="M734.16,-300.94C750.85,-298.94 768.69,-296.79 785.87,-294.72"/>
<polygon fill="#63b8ff" stroke="#63b8ff" points="786.04,-298.23 795.55,-293.56 785.2,-291.28 786.04,-298.23"/>
</a>
</g>
</g>
<!-- Node17&#45;&gt;Node7 -->
<g id="edge18_Node000017_Node000007" class="edge">
<title>Node17&#45;&gt;Node7</title>
<g id="a_edge18_Node000017_Node000007"><a xlink:title=" ">
<path fill="none" stroke="#63b8ff" d="M954.69,-284C973.83,-284 994.42,-284 1013.9,-284"/>
<polygon fill="#63b8ff" stroke="#63b8ff" points="1013.7,-287.5 1023.7,-284 1013.7,-280.5 1013.7,-287.5"/>
</a>
</g>
</g>
<!-- Node20 -->
<g id="Node000020" class="node">
<title>Node20</title>
<g id="a_Node000020"><a xlink:href="classfr_1_1softsf_1_1canscan_1_1_can_scan.html#a381579d3adc53b1122b38e7fda5c0235" target="_top" xlink:title="Configures the update button for version checking.">
<polygon fill="white" stroke="#666666" points="963.88,-250 788.12,-250 788.12,-218 963.88,-218 963.88,-250"/>
<text text-anchor="start" x="796.12" y="-236.5" font-family="Helvetica,sans-Serif" font-size="10.00">fr.softsf.canscan.CanScan.configure</text>
<text text-anchor="middle" x="876" y="-224.5" font-family="Helvetica,sans-Serif" font-size="10.00">UpdateButton</text>
</a>
</g>
</g>
<!-- Node19&#45;&gt;Node20 -->
<g id="edge21_Node000019_Node000020" class="edge">
<title>Node19&#45;&gt;Node20</title>
<g id="a_edge21_Node000019_Node000020"><a xlink:title=" ">
<path fill="none" stroke="#63b8ff" d="M734.16,-218.36C747.81,-219.88 762.23,-221.48 776.43,-223.05"/>
<polygon fill="#63b8ff" stroke="#63b8ff" points="775.92,-226.52 786.25,-224.14 776.7,-219.56 775.92,-226.52"/>
</a>
</g>
</g>
<!-- Node21 -->
<g id="Node000021" class="node">
<title>Node21</title>
<g id="a_Node000021"><a xlink:href="classfr_1_1softsf_1_1canscan_1_1_can_scan.html#a428c742b098fa27d4c8984c1030c238d" target="_top" xlink:title="Switches the application between MECARD and FREE modes.">
<polygon fill="white" stroke="#666666" points="970.25,-200 781.75,-200 781.75,-180 970.25,-180 970.25,-200"/>
<text text-anchor="middle" x="876" y="-186.5" font-family="Helvetica,sans-Serif" font-size="10.00">fr.softsf.canscan.CanScan.switchMode</text>
</a>
</g>
</g>
<!-- Node19&#45;&gt;Node21 -->
<g id="edge22_Node000019_Node000021" class="edge">
<title>Node19&#45;&gt;Node21</title>
<g id="a_edge22_Node000019_Node000021"><a xlink:title=" ">
<path fill="none" stroke="#63b8ff" d="M734.16,-203.03C745.82,-201.95 758.04,-200.82 770.21,-199.7"/>
<polygon fill="#63b8ff" stroke="#63b8ff" points="770.2,-203.21 779.84,-198.81 769.56,-196.24 770.2,-203.21"/>
</a>
</g>
</g>
<!-- Node21&#45;&gt;Node7 -->
<g id="edge23_Node000021_Node000007" class="edge">
<title>Node21&#45;&gt;Node7</title>
<g id="a_edge23_Node000021_Node000007"><a xlink:title=" ">
<path fill="none" stroke="#63b8ff" d="M948.82,-200.49C956.98,-202.79 965.04,-205.59 972.5,-209 990.94,-217.43 991.43,-226.07 1008.5,-237 1022.81,-246.17 1039.11,-255.06 1053.91,-262.6"/>
<polygon fill="#63b8ff" stroke="#63b8ff" points="1052,-265.56 1062.51,-266.91 1055.14,-259.3 1052,-265.56"/>
</a>
</g>
</g>
<!-- Node22 -->
<g id="Node000022" class="node">
<title>Node22</title>
<g id="a_Node000022"><a xlink:href="enumfr_1_1softsf_1_1canscan_1_1model_1_1_mode.html#a16a898a11ca939056bd7b275f11ea54c" target="_top" xlink:title="Returns the mode label.">
<polygon fill="white" stroke="#666666" points="1161,-228 1039.25,-228 1039.25,-196 1161,-196 1161,-228"/>
<text text-anchor="start" x="1047.25" y="-214.5" font-family="Helvetica,sans-Serif" font-size="10.00">fr.softsf.canscan.model.</text>
<text text-anchor="middle" x="1100.12" y="-202.5" font-family="Helvetica,sans-Serif" font-size="10.00">Mode.text</text>
</a>
</g>
</g>
<!-- Node21&#45;&gt;Node22 -->
<g id="edge24_Node000021_Node000022" class="edge">
<title>Node21&#45;&gt;Node22</title>
<g id="a_edge24_Node000021_Node000022"><a xlink:title=" ">
<path fill="none" stroke="#63b8ff" d="M970.56,-199.27C989.61,-201.15 1009.37,-203.11 1027.52,-204.91"/>
<polygon fill="#63b8ff" stroke="#63b8ff" points="1027.09,-208.38 1037.38,-205.88 1027.78,-201.42 1027.09,-208.38"/>
</a>
</g>
</g>
<!-- Node23 -->
<g id="Node000023" class="node">
<title>Node23</title>
<g id="a_Node000023"><a xlink:href="classfr_1_1softsf_1_1canscan_1_1_can_scan.html#a11fd9295c4843e6e68f9d1e4a710b906" target="_top" xlink:title="Updates the generate button state based on input validation.">
<polygon fill="white" stroke="#666666" points="1182.75,-178 1017.5,-178 1017.5,-146 1182.75,-146 1182.75,-178"/>
<text text-anchor="start" x="1025.5" y="-164.5" font-family="Helvetica,sans-Serif" font-size="10.00">fr.softsf.canscan.CanScan.update</text>
<text text-anchor="middle" x="1100.12" y="-152.5" font-family="Helvetica,sans-Serif" font-size="10.00">GenerateButtonState</text>
</a>
</g>
</g>
<!-- Node21&#45;&gt;Node23 -->
<g id="edge25_Node000021_Node000023" class="edge">
<title>Node21&#45;&gt;Node23</title>
<g id="a_edge25_Node000021_Node000023"><a xlink:title=" ">
<path fill="none" stroke="#63b8ff" d="M960.03,-179.53C975.1,-177.63 990.91,-175.64 1006.24,-173.71"/>
<polygon fill="#63b8ff" stroke="#63b8ff" points="1006.32,-177.23 1015.8,-172.5 1005.45,-170.28 1006.32,-177.23"/>
</a>
</g>
</g>
<!-- Node29 -->
<g id="Node000029" class="node">
<title>Node29</title>
<g id="a_Node000029"><a xlink:href="classfr_1_1softsf_1_1canscan_1_1_can_scan.html#aefe4d08d96fdc7b2097daf4033bbbb9c" target="_top" xlink:title="Loads application metadata from version.properties.">
<polygon fill="white" stroke="#666666" points="732.62,-76 583.12,-76 583.12,-44 732.62,-44 732.62,-76"/>
<text text-anchor="start" x="591.12" y="-62.5" font-family="Helvetica,sans-Serif" font-size="10.00">fr.softsf.canscan.CanScan.get</text>
<text text-anchor="middle" x="657.88" y="-50.5" font-family="Helvetica,sans-Serif" font-size="10.00">ManifestKeys</text>
</a>
</g>
</g>
<!-- Node28&#45;&gt;Node29 -->
<g id="edge31_Node000028_Node000029" class="edge">
<title>Node28&#45;&gt;Node29</title>
<g id="a_edge31_Node000028_Node000029"><a xlink:title=" ">
<path fill="none" stroke="#63b8ff" d="M528.34,-87.55C542.5,-84.52 557.36,-81.33 571.74,-78.25"/>
<polygon fill="#63b8ff" stroke="#63b8ff" points="572.11,-81.75 581.15,-76.23 570.64,-74.91 572.11,-81.75"/>
</a>
</g>
</g>
<!-- Node29&#45;&gt;Node2 -->
<g id="edge32_Node000029_Node000002" class="edge">
<title>Node29&#45;&gt;Node2</title>
<g id="a_edge32_Node000029_Node000002"><a xlink:title=" ">
<path fill="none" stroke="#63b8ff" d="M582.77,-51.09C521.68,-46.9 434.15,-48.3 365,-79 328.96,-95 298.13,-129.41 279.83,-153.37"/>
<polygon fill="#63b8ff" stroke="#63b8ff" points="277.04,-151.27 273.9,-161.39 282.66,-155.43 277.04,-151.27"/>
</a>
</g>
</g>
<!-- Node31 -->
<g id="Node000031" class="node">
<title>Node31</title>
<g id="a_Node000031"><a xlink:href="classfr_1_1softsf_1_1canscan_1_1_can_scan.html#a0fe215984734bb1337dd49ca30238b78" target="_top" xlink:title="Sets the loader size so it matches the QR code label height and remains centered.">
<polygon fill="white" stroke="#666666" points="1174.88,-72 1025.38,-72 1025.38,-40 1174.88,-40 1174.88,-72"/>
<text text-anchor="start" x="1033.38" y="-58.5" font-family="Helvetica,sans-Serif" font-size="10.00">fr.softsf.canscan.CanScan.set</text>
<text text-anchor="middle" x="1100.12" y="-46.5" font-family="Helvetica,sans-Serif" font-size="10.00">LoaderSize</text>
</a>
</g>
</g>
<!-- Node30&#45;&gt;Node31 -->
<g id="edge34_Node000030_Node000031" class="edge">
<title>Node30&#45;&gt;Node31</title>
<g id="a_edge34_Node000030_Node000031"><a xlink:title=" ">
<path fill="none" stroke="#63b8ff" d="M536.61,-21.25C660.54,-28.91 889.6,-43.06 1013.75,-50.73"/>
<polygon fill="#63b8ff" stroke="#63b8ff" points="1013.36,-54.21 1023.56,-51.33 1013.79,-47.22 1013.36,-54.21"/>
</a>
</g>
</g>
<!-- Node31&#45;&gt;Node8 -->
<g id="edge35_Node000031_Node000008" class="edge">
<title>Node31&#45;&gt;Node8</title>
<g id="a_edge35_Node000031_Node000008"><a xlink:title=" ">
<path fill="none" stroke="#63b8ff" d="M1134.9,-72.32C1171.42,-89.97 1229.8,-118.19 1269.98,-137.6"/>
<polygon fill="#63b8ff" stroke="#63b8ff" points="1268.4,-140.73 1278.92,-141.93 1271.44,-134.42 1268.4,-140.73"/>
</a>
</g>
</g>
</g>
</svg>
