<?xml version="1.0" encoding="UTF-8" standalone="no"?>
<!DOCTYPE svg PUBLIC "-//W3C//DTD SVG 1.1//EN"
 "http://www.w3.org/Graphics/SVG/1.1/DTD/svg11.dtd">
<!-- Generated by graphviz version 12.2.1 (20241206.2353)
 -->
<!-- Title: fr.softsf.canscan.NativeImageConfigSimulator.interceptAndValideDialog Pages: 1 -->
<svg width="380pt" height="108pt"
 viewBox="0.00 0.00 379.75 108.00" xmlns="http://www.w3.org/2000/svg" xmlns:xlink="http://www.w3.org/1999/xlink">
<g id="graph0" class="graph" transform="scale(1 1) rotate(0) translate(4 104)">
<title>fr.softsf.canscan.NativeImageConfigSimulator.interceptAndValideDialog</title>
<!-- Node1 -->
<g id="Node000001" class="node">
<title>Node1</title>
<g id="a_Node000001"><a xlink:title="Confirms and closes a visible JOptionPane by pressing Enter, then returns the dialog title.">
<polygon fill="#999999" stroke="#666666" points="153.25,-63 0,-63 0,-19 153.25,-19 153.25,-63"/>
<text text-anchor="start" x="8" y="-49.5" font-family="Helvetica,sans-Serif" font-size="10.00">fr.softsf.canscan.Native</text>
<text text-anchor="start" x="8" y="-37.5" font-family="Helvetica,sans-Serif" font-size="10.00">ImageConfigSimulator.intercept</text>
<text text-anchor="middle" x="76.62" y="-25.5" font-family="Helvetica,sans-Serif" font-size="10.00">AndValideDialog</text>
</a>
</g>
</g>
<!-- Node2 -->
<g id="Node000002" class="node">
<title>Node2</title>
<g id="a_Node000002"><a xlink:href="classfr_1_1softsf_1_1canscan_1_1_native_image_config_simulator.html#ac80dbcb1d031bb72c93cf21315c09f27" target="_top" xlink:title="Recursively searches the given container and its descendants for a JOptionPane instance.">
<polygon fill="white" stroke="#666666" points="371.75,-82 189.25,-82 189.25,-50 371.75,-50 371.75,-82"/>
<text text-anchor="start" x="197.25" y="-68.5" font-family="Helvetica,sans-Serif" font-size="10.00">fr.softsf.canscan.Native</text>
<text text-anchor="middle" x="280.5" y="-56.5" font-family="Helvetica,sans-Serif" font-size="10.00">ImageConfigSimulator.findOptionPane</text>
</a>
</g>
</g>
<!-- Node1&#45;&gt;Node2 -->
<g id="edge1_Node000001_Node000002" class="edge">
<title>Node1&#45;&gt;Node2</title>
<g id="a_edge1_Node000001_Node000002"><a xlink:title=" ">
<path fill="none" stroke="#63b8ff" d="M153.66,-50.42C161.48,-51.38 169.52,-52.38 177.57,-53.38"/>
<polygon fill="#63b8ff" stroke="#63b8ff" points="177.07,-56.84 187.42,-54.6 177.93,-49.89 177.07,-56.84"/>
</a>
</g>
</g>
<!-- Node3 -->
<g id="Node000003" class="node">
<title>Node3</title>
<g id="a_Node000003"><a xlink:href="classfr_1_1softsf_1_1canscan_1_1_native_image_config_simulator.html#ab4d4463dc9177237a8de0a7b6713e7cf" target="_top" xlink:title="Simulates pressing the Enter key using the provided Robot, followed by a short delay.">
<polygon fill="white" stroke="#666666" points="362,-32 199,-32 199,0 362,0 362,-32"/>
<text text-anchor="start" x="207" y="-18.5" font-family="Helvetica,sans-Serif" font-size="10.00">fr.softsf.canscan.Native</text>
<text text-anchor="middle" x="280.5" y="-6.5" font-family="Helvetica,sans-Serif" font-size="10.00">ImageConfigSimulator.pressEnter</text>
</a>
</g>
</g>
<!-- Node1&#45;&gt;Node3 -->
<g id="edge3_Node000001_Node000003" class="edge">
<title>Node1&#45;&gt;Node3</title>
<g id="a_edge3_Node000001_Node000003"><a xlink:title=" ">
<path fill="none" stroke="#63b8ff" d="M153.66,-31.58C164.72,-30.21 176.21,-28.79 187.55,-27.39"/>
<polygon fill="#63b8ff" stroke="#63b8ff" points="187.82,-30.88 197.32,-26.18 186.96,-23.93 187.82,-30.88"/>
</a>
</g>
</g>
<!-- Node2&#45;&gt;Node2 -->
<g id="edge2_Node000002_Node000002" class="edge">
<title>Node2&#45;&gt;Node2</title>
<g id="a_edge2_Node000002_Node000002"><a xlink:title=" ">
<path fill="none" stroke="#63b8ff" d="M244.1,-82.44C237.31,-91.58 249.44,-100 280.5,-100 297.97,-100 309.45,-97.34 314.95,-93.38"/>
<polygon fill="#63b8ff" stroke="#63b8ff" points="318.32,-94.39 316.63,-83.93 311.43,-93.16 318.32,-94.39"/>
</a>
</g>
</g>
</g>
</svg>
