<?xml version="1.0" encoding="UTF-8" standalone="no"?>
<!DOCTYPE svg PUBLIC "-//W3C//DTD SVG 1.1//EN"
 "http://www.w3.org/Graphics/SVG/1.1/DTD/svg11.dtd">
<!-- Generated by graphviz version 12.2.1 (20241206.2353)
 -->
<!-- Title: fr.softsf.canscan.util.DateHelper Pages: 1 -->
<svg width="244pt" height="140pt"
 viewBox="0.00 0.00 244.25 140.00" xmlns="http://www.w3.org/2000/svg" xmlns:xlink="http://www.w3.org/1999/xlink">
<g id="graph0" class="graph" transform="scale(1 1) rotate(0) translate(4 136)">
<title>fr.softsf.canscan.util.DateHelper</title>
<!-- Node1 -->
<g id="Node000001" class="node">
<title>Node1</title>
<g id="a_Node000001"><a xlink:title="Produces iCalendar&#45;compliant UTC timestamps (RFC 5545).">
<polygon fill="#999999" stroke="none" points="236.25,-132 0,-132 0,0 236.25,0 236.25,-132"/>
<text text-anchor="start" x="61.5" y="-118.5" font-family="Helvetica,sans-Serif" font-size="10.00">fr.softsf.canscan.util.Date</text>
<text text-anchor="start" x="103.88" y="-106.5" font-family="Helvetica,sans-Serif" font-size="10.00">Helper</text>
<text text-anchor="start" x="4" y="-90.5" font-family="Helvetica,sans-Serif" font-size="10.00">+</text>
<text text-anchor="start" x="14" y="-90.5" font-family="Helvetica,sans-Serif" font-size="10.00">INSTANCE</text>
<text text-anchor="start" x="5.5" y="-74.5" font-family="Helvetica,sans-Serif" font-size="10.00">&#45;</text>
<text text-anchor="start" x="14" y="-74.5" font-family="Helvetica,sans-Serif" font-size="10.00">static final DateTimeFormatter</text>
<text text-anchor="start" x="14" y="-62.5" font-family="Helvetica,sans-Serif" font-size="10.00"> ICALENDAR_COMPLIANT_UTC_FORMATTER</text>
<text text-anchor="start" x="4" y="-46.5" font-family="Helvetica,sans-Serif" font-size="10.00">+</text>
<text text-anchor="start" x="14" y="-46.5" font-family="Helvetica,sans-Serif" font-size="10.00">String nowUtc()</text>
<text text-anchor="start" x="4" y="-30.5" font-family="Helvetica,sans-Serif" font-size="10.00">+</text>
<text text-anchor="start" x="14" y="-30.5" font-family="Helvetica,sans-Serif" font-size="10.00">String validateAndGetDate</text>
<text text-anchor="start" x="14" y="-18.5" font-family="Helvetica,sans-Serif" font-size="10.00">AndTime(LocalDate date,</text>
<text text-anchor="start" x="14" y="-6.5" font-family="Helvetica,sans-Serif" font-size="10.00"> LocalTime time)</text>
<polygon fill="#666666" stroke="#666666" points="0,-102 0,-102 236.25,-102 236.25,-102 0,-102"/>
<polygon fill="#666666" stroke="#666666" points="0,-58 0,-58 12,-58 12,-58 0,-58"/>
<polygon fill="#666666" stroke="#666666" points="12,-58 12,-58 236.25,-58 236.25,-58 12,-58"/>
<polygon fill="none" stroke="#666666" points="0,0 0,-132 236.25,-132 236.25,0 0,0"/>
</a>
</g>
</g>
</g>
</svg>
