<?xml version="1.0" encoding="UTF-8" standalone="no"?>
<!DOCTYPE svg PUBLIC "-//W3C//DTD SVG 1.1//EN"
 "http://www.w3.org/Graphics/SVG/1.1/DTD/svg11.dtd">
<!-- Generated by graphviz version 12.2.1 (20241206.2353)
 -->
<!-- Title: fr.softsf.canscan.util.BrowserHelper.openInBrowser Pages: 1 -->
<svg width="513pt" height="62pt"
 viewBox="0.00 0.00 512.75 62.00" xmlns="http://www.w3.org/2000/svg" xmlns:xlink="http://www.w3.org/1999/xlink">
<g id="graph0" class="graph" transform="scale(1 1) rotate(0) translate(4 58)">
<title>fr.softsf.canscan.util.BrowserHelper.openInBrowser</title>
<!-- Node1 -->
<g id="Node000001" class="node">
<title>Node1</title>
<g id="a_Node000001"><a xlink:title="Opens a URL in the system&#39;s default browser with timeout protection.">
<polygon fill="#999999" stroke="#666666" points="144.25,-54 0,-54 0,-22 144.25,-22 144.25,-54"/>
<text text-anchor="start" x="8" y="-40.5" font-family="Helvetica,sans-Serif" font-size="10.00">fr.softsf.canscan.util.Browser</text>
<text text-anchor="middle" x="72.12" y="-28.5" font-family="Helvetica,sans-Serif" font-size="10.00">Helper.openInBrowser</text>
</a>
</g>
</g>
<!-- Node2 -->
<g id="Node000002" class="node">
<title>Node2</title>
<g id="a_Node000002"><a xlink:href="enumfr_1_1softsf_1_1canscan_1_1util_1_1_browser_helper.html#ad01d21b7d4e978f4819503ba20e891f2" target="_top" xlink:title="Displays error dialog to user with failure details.">
<polygon fill="white" stroke="#666666" points="504.75,-54 360.5,-54 360.5,-22 504.75,-22 504.75,-54"/>
<text text-anchor="start" x="368.5" y="-40.5" font-family="Helvetica,sans-Serif" font-size="10.00">fr.softsf.canscan.util.Browser</text>
<text text-anchor="middle" x="432.62" y="-28.5" font-family="Helvetica,sans-Serif" font-size="10.00">Helper.handleError</text>
</a>
</g>
</g>
<!-- Node1&#45;&gt;Node2 -->
<g id="edge1_Node000001_Node000002" class="edge">
<title>Node1&#45;&gt;Node2</title>
<g id="a_edge1_Node000001_Node000002"><a xlink:title=" ">
<path fill="none" stroke="#63b8ff" d="M144.57,-40.28C156.49,-40.58 168.72,-40.84 180.25,-41 244.35,-41.9 260.4,-41.9 324.5,-41 332.43,-40.89 340.69,-40.73 348.95,-40.55"/>
<polygon fill="#63b8ff" stroke="#63b8ff" points="348.75,-44.05 358.67,-40.32 348.58,-37.05 348.75,-44.05"/>
</a>
</g>
</g>
<!-- Node3 -->
<g id="Node000003" class="node">
<title>Node3</title>
<g id="a_Node000003"><a xlink:href="enumfr_1_1softsf_1_1canscan_1_1util_1_1_browser_helper.html#a3d7f19c3819936ea08d925c0c7592aae" target="_top" xlink:title="Attempts to open the URL using Java&#39;s Desktop API.">
<polygon fill="white" stroke="#666666" points="324.5,-32 180.25,-32 180.25,0 324.5,0 324.5,-32"/>
<text text-anchor="start" x="188.25" y="-18.5" font-family="Helvetica,sans-Serif" font-size="10.00">fr.softsf.canscan.util.Browser</text>
<text text-anchor="middle" x="252.38" y="-6.5" font-family="Helvetica,sans-Serif" font-size="10.00">Helper.tryOpenBrowser</text>
</a>
</g>
</g>
<!-- Node1&#45;&gt;Node3 -->
<g id="edge2_Node000001_Node000003" class="edge">
<title>Node1&#45;&gt;Node3</title>
<g id="a_edge2_Node000001_Node000003"><a xlink:title=" ">
<path fill="none" stroke="#63b8ff" d="M144.6,-29.18C152.5,-28.2 160.59,-27.2 168.61,-26.21"/>
<polygon fill="#63b8ff" stroke="#63b8ff" points="168.89,-29.71 178.38,-25.01 168.03,-22.76 168.89,-29.71"/>
</a>
</g>
</g>
<!-- Node3&#45;&gt;Node2 -->
<g id="edge3_Node000003_Node000002" class="edge">
<title>Node3&#45;&gt;Node2</title>
<g id="a_edge3_Node000003_Node000002"><a xlink:title=" ">
<path fill="none" stroke="#63b8ff" d="M324.85,-24.82C332.75,-25.8 340.84,-26.8 348.86,-27.79"/>
<polygon fill="#63b8ff" stroke="#63b8ff" points="348.28,-31.24 358.63,-28.99 349.14,-24.29 348.28,-31.24"/>
</a>
</g>
</g>
</g>
</svg>
