<?xml version="1.0" encoding="UTF-8" standalone="no"?>
<!DOCTYPE svg PUBLIC "-//W3C//DTD SVG 1.1//EN"
 "http://www.w3.org/Graphics/SVG/1.1/DTD/svg11.dtd">
<!-- Generated by graphviz version 12.2.1 (20241206.2353)
 -->
<!-- Title: fr.softsf.canscan.model.Mode Pages: 1 -->
<svg width="146pt" height="124pt"
 viewBox="0.00 0.00 145.75 124.00" xmlns="http://www.w3.org/2000/svg" xmlns:xlink="http://www.w3.org/1999/xlink">
<g id="graph0" class="graph" transform="scale(1 1) rotate(0) translate(4 120)">
<title>fr.softsf.canscan.model.Mode</title>
<!-- Node1 -->
<g id="Node000001" class="node">
<title>Node1</title>
<g id="a_Node000001"><a xlink:title="Application operation modes.">
<polygon fill="#999999" stroke="none" points="137.75,-116 0,-116 0,0 137.75,0 137.75,-116"/>
<text text-anchor="start" x="4" y="-102.5" font-family="Helvetica,sans-Serif" font-size="10.00">fr.softsf.canscan.model.Mode</text>
<text text-anchor="start" x="14.25" y="-86.5" font-family="Helvetica,sans-Serif" font-size="10.00">+</text>
<text text-anchor="start" x="34.5" y="-86.5" font-family="Helvetica,sans-Serif" font-size="10.00">FREE</text>
<text text-anchor="start" x="14.25" y="-70.5" font-family="Helvetica,sans-Serif" font-size="10.00">+</text>
<text text-anchor="start" x="34.5" y="-70.5" font-family="Helvetica,sans-Serif" font-size="10.00">MECARD</text>
<text text-anchor="start" x="14.25" y="-54.5" font-family="Helvetica,sans-Serif" font-size="10.00">+</text>
<text text-anchor="start" x="34.5" y="-54.5" font-family="Helvetica,sans-Serif" font-size="10.00">MEET</text>
<text text-anchor="start" x="15.75" y="-38.5" font-family="Helvetica,sans-Serif" font-size="10.00">&#45;</text>
<text text-anchor="start" x="34.5" y="-38.5" font-family="Helvetica,sans-Serif" font-size="10.00">final String label</text>
<text text-anchor="start" x="14.25" y="-22.5" font-family="Helvetica,sans-Serif" font-size="10.00">+</text>
<text text-anchor="start" x="34.5" y="-22.5" font-family="Helvetica,sans-Serif" font-size="10.00">Mode(String label)</text>
<text text-anchor="start" x="14.25" y="-6.5" font-family="Helvetica,sans-Serif" font-size="10.00">+</text>
<text text-anchor="start" x="34.5" y="-6.5" font-family="Helvetica,sans-Serif" font-size="10.00">String text()</text>
<polygon fill="#666666" stroke="#666666" points="0,-98 0,-98 137.75,-98 137.75,-98 0,-98"/>
<polygon fill="#666666" stroke="#666666" points="0,-34 0,-34 32.5,-34 32.5,-34 0,-34"/>
<polygon fill="#666666" stroke="#666666" points="32.5,-34 32.5,-34 137.75,-34 137.75,-34 32.5,-34"/>
<polygon fill="none" stroke="#666666" points="0,0 0,-116 137.75,-116 137.75,0 0,0"/>
</a>
</g>
</g>
</g>
</svg>
