<?xml version="1.0" encoding="UTF-8" standalone="no"?>
<!DOCTYPE svg PUBLIC "-//W3C//DTD SVG 1.1//EN"
 "http://www.w3.org/Graphics/SVG/1.1/DTD/svg11.dtd">
<!-- Generated by graphviz version 12.2.1 (20241206.2353)
 -->
<!-- Title: fr.softsf.canscan.util.CoordinateHelper.getValidatedCoordinate Pages: 1 -->
<svg width="547pt" height="140pt"
 viewBox="0.00 0.00 546.50 140.00" xmlns="http://www.w3.org/2000/svg" xmlns:xlink="http://www.w3.org/1999/xlink">
<g id="graph0" class="graph" transform="scale(1 1) rotate(0) translate(4 136)">
<title>fr.softsf.canscan.util.CoordinateHelper.getValidatedCoordinate</title>
<!-- Node1 -->
<g id="Node000001" class="node">
<title>Node1</title>
<g id="a_Node000001"><a xlink:title="Validates and truncates a coordinate from a JTextField for QR code generation.">
<polygon fill="#999999" stroke="#666666" points="155.5,-107 0,-107 0,-75 155.5,-75 155.5,-107"/>
<text text-anchor="start" x="8" y="-93.5" font-family="Helvetica,sans-Serif" font-size="10.00">fr.softsf.canscan.util.Coordinate</text>
<text text-anchor="middle" x="77.75" y="-81.5" font-family="Helvetica,sans-Serif" font-size="10.00">Helper.getValidatedCoordinate</text>
</a>
</g>
</g>
<!-- Node2 -->
<g id="Node000002" class="node">
<title>Node2</title>
<g id="a_Node000002"><a xlink:href="enumfr_1_1softsf_1_1canscan_1_1util_1_1_coordinate_helper.html#ac699036c792ca55aa735f90208bf8784" target="_top" xlink:title="Clears the field and returns empty string.">
<polygon fill="white" stroke="#666666" points="538.5,-132 383,-132 383,-100 538.5,-100 538.5,-132"/>
<text text-anchor="start" x="391" y="-118.5" font-family="Helvetica,sans-Serif" font-size="10.00">fr.softsf.canscan.util.Coordinate</text>
<text text-anchor="middle" x="460.75" y="-106.5" font-family="Helvetica,sans-Serif" font-size="10.00">Helper.clearAndReturnEmpty</text>
</a>
</g>
</g>
<!-- Node1&#45;&gt;Node2 -->
<g id="edge1_Node000001_Node000002" class="edge">
<title>Node1&#45;&gt;Node2</title>
<g id="a_edge1_Node000001_Node000002"><a xlink:title=" ">
<path fill="none" stroke="#63b8ff" d="M155.85,-96.06C218.34,-100.16 306.42,-105.94 371.68,-110.22"/>
<polygon fill="#63b8ff" stroke="#63b8ff" points="371.05,-113.69 381.25,-110.85 371.5,-106.7 371.05,-113.69"/>
</a>
</g>
</g>
<!-- Node3 -->
<g id="Node000003" class="node">
<title>Node3</title>
<g id="a_Node000003"><a xlink:href="enumfr_1_1softsf_1_1canscan_1_1util_1_1_coordinate_helper.html#ae227bbf4a7079511cdf599a0a5399fd3" target="_top" xlink:title="Parses and truncates a coordinate string.">
<polygon fill="white" stroke="#666666" points="347,-85 191.5,-85 191.5,-53 347,-53 347,-85"/>
<text text-anchor="start" x="199.5" y="-71.5" font-family="Helvetica,sans-Serif" font-size="10.00">fr.softsf.canscan.util.Coordinate</text>
<text text-anchor="middle" x="269.25" y="-59.5" font-family="Helvetica,sans-Serif" font-size="10.00">Helper.parseAndTruncate</text>
</a>
</g>
</g>
<!-- Node1&#45;&gt;Node3 -->
<g id="edge2_Node000001_Node000003" class="edge">
<title>Node1&#45;&gt;Node3</title>
<g id="a_edge2_Node000001_Node000003"><a xlink:title=" ">
<path fill="none" stroke="#63b8ff" d="M155.83,-82.05C163.77,-81.13 171.88,-80.19 179.93,-79.25"/>
<polygon fill="#63b8ff" stroke="#63b8ff" points="180.21,-82.74 189.74,-78.11 179.4,-75.79 180.21,-82.74"/>
</a>
</g>
</g>
<!-- Node3&#45;&gt;Node2 -->
<g id="edge3_Node000003_Node000002" class="edge">
<title>Node3&#45;&gt;Node2</title>
<g id="a_edge3_Node000003_Node000002"><a xlink:title=" ">
<path fill="none" stroke="#63b8ff" d="M336.53,-85.44C351.39,-89.12 367.27,-93.06 382.53,-96.85"/>
<polygon fill="#63b8ff" stroke="#63b8ff" points="381.49,-100.2 392.04,-99.21 383.18,-93.4 381.49,-100.2"/>
</a>
</g>
</g>
<!-- Node4 -->
<g id="Node000004" class="node">
<title>Node4</title>
<g id="a_Node000004"><a xlink:href="enumfr_1_1softsf_1_1canscan_1_1util_1_1_coordinate_helper.html#ac77028615e42948dee3bc8cfa1b9e3dd" target="_top" xlink:title="Checks if a coordinate value is within valid range.">
<polygon fill="white" stroke="#666666" points="538.5,-82 383,-82 383,-50 538.5,-50 538.5,-82"/>
<text text-anchor="start" x="391" y="-68.5" font-family="Helvetica,sans-Serif" font-size="10.00">fr.softsf.canscan.util.Coordinate</text>
<text text-anchor="middle" x="460.75" y="-56.5" font-family="Helvetica,sans-Serif" font-size="10.00">Helper.isInRange</text>
</a>
</g>
</g>
<!-- Node3&#45;&gt;Node4 -->
<g id="edge4_Node000003_Node000004" class="edge">
<title>Node3&#45;&gt;Node4</title>
<g id="a_edge4_Node000003_Node000004"><a xlink:title=" ">
<path fill="none" stroke="#63b8ff" d="M347.33,-67.78C355.27,-67.65 363.38,-67.53 371.43,-67.4"/>
<polygon fill="#63b8ff" stroke="#63b8ff" points="371.28,-70.9 381.23,-67.24 371.17,-63.9 371.28,-70.9"/>
</a>
</g>
</g>
<!-- Node5 -->
<g id="Node000005" class="node">
<title>Node5</title>
<g id="a_Node000005"><a xlink:href="enumfr_1_1softsf_1_1canscan_1_1util_1_1_coordinate_helper.html#a338999645531baf26c056cd4021e4cbe" target="_top" xlink:title="Truncates coordinate decimals toward zero.">
<polygon fill="white" stroke="#666666" points="538.5,-32 383,-32 383,0 538.5,0 538.5,-32"/>
<text text-anchor="start" x="391" y="-18.5" font-family="Helvetica,sans-Serif" font-size="10.00">fr.softsf.canscan.util.Coordinate</text>
<text text-anchor="middle" x="460.75" y="-6.5" font-family="Helvetica,sans-Serif" font-size="10.00">Helper.truncate</text>
</a>
</g>
</g>
<!-- Node3&#45;&gt;Node5 -->
<g id="edge5_Node000003_Node000005" class="edge">
<title>Node3&#45;&gt;Node5</title>
<g id="a_edge5_Node000003_Node000005"><a xlink:title=" ">
<path fill="none" stroke="#63b8ff" d="M329.17,-52.52C348.42,-47.14 369.99,-41.11 389.96,-35.52"/>
<polygon fill="#63b8ff" stroke="#63b8ff" points="390.72,-38.94 399.41,-32.88 388.84,-32.2 390.72,-38.94"/>
</a>
</g>
</g>
</g>
</svg>
