<?xml version="1.0" encoding="UTF-8" standalone="no"?>
<!DOCTYPE svg PUBLIC "-//W3C//DTD SVG 1.1//EN"
 "http://www.w3.org/Graphics/SVG/1.1/DTD/svg11.dtd">
<!-- Generated by graphviz version 12.2.1 (20241206.2353)
 -->
<!-- Title: fr.softsf.canscan.ui.Loader.startAndAdjustWaitIcon Pages: 1 -->
<svg width="558pt" height="40pt"
 viewBox="0.00 0.00 557.75 40.00" xmlns="http://www.w3.org/2000/svg" xmlns:xlink="http://www.w3.org/1999/xlink">
<g id="graph0" class="graph" transform="scale(1 1) rotate(0) translate(4 36)">
<title>fr.softsf.canscan.ui.Loader.startAndAdjustWaitIcon</title>
<!-- Node1 -->
<g id="Node000001" class="node">
<title>Node1</title>
<g id="a_Node000001"><a xlink:title="Displays the waiting icon and scales its font to fit the label height.">
<polygon fill="#999999" stroke="#666666" points="154.75,-32 0,-32 0,0 154.75,0 154.75,-32"/>
<text text-anchor="start" x="8" y="-18.5" font-family="Helvetica,sans-Serif" font-size="10.00">fr.softsf.canscan.ui.Loader.start</text>
<text text-anchor="middle" x="77.38" y="-6.5" font-family="Helvetica,sans-Serif" font-size="10.00">AndAdjustWaitIcon</text>
</a>
</g>
</g>
<!-- Node2 -->
<g id="Node000002" class="node">
<title>Node2</title>
<g id="a_Node000002"><a xlink:href="enumfr_1_1softsf_1_1canscan_1_1ui_1_1_loader.html#a7db844fe9a47d8286890e795c2462d0f" target="_top" xlink:title="Stops the wait icon animation and clears the label.">
<polygon fill="white" stroke="#666666" points="344.75,-32 190.75,-32 190.75,0 344.75,0 344.75,-32"/>
<text text-anchor="start" x="198.75" y="-18.5" font-family="Helvetica,sans-Serif" font-size="10.00">fr.softsf.canscan.ui.Loader.stop</text>
<text text-anchor="middle" x="267.75" y="-6.5" font-family="Helvetica,sans-Serif" font-size="10.00">WaitIcon</text>
</a>
</g>
</g>
<!-- Node1&#45;&gt;Node2 -->
<g id="edge1_Node000001_Node000002" class="edge">
<title>Node1&#45;&gt;Node2</title>
<g id="a_edge1_Node000001_Node000002"><a xlink:title=" ">
<path fill="none" stroke="#63b8ff" d="M154.99,-16C162.96,-16 171.09,-16 179.16,-16"/>
<polygon fill="#63b8ff" stroke="#63b8ff" points="178.99,-19.5 188.99,-16 178.99,-12.5 178.99,-19.5"/>
</a>
</g>
</g>
<!-- Node3 -->
<g id="Node000003" class="node">
<title>Node3</title>
<g id="a_Node000003"><a xlink:href="enumfr_1_1softsf_1_1canscan_1_1ui_1_1_loader.html#a6c92e28cca5328333ffc2ceffe24ad3b" target="_top" xlink:title="Stops and disposes the wait icon timer.">
<polygon fill="white" stroke="#666666" points="549.75,-32 380.75,-32 380.75,0 549.75,0 549.75,-32"/>
<text text-anchor="start" x="388.75" y="-18.5" font-family="Helvetica,sans-Serif" font-size="10.00">fr.softsf.canscan.ui.Loader.dispose</text>
<text text-anchor="middle" x="465.25" y="-6.5" font-family="Helvetica,sans-Serif" font-size="10.00">WaitIconTimer</text>
</a>
</g>
</g>
<!-- Node2&#45;&gt;Node3 -->
<g id="edge2_Node000002_Node000003" class="edge">
<title>Node2&#45;&gt;Node3</title>
<g id="a_edge2_Node000002_Node000003"><a xlink:title=" ">
<path fill="none" stroke="#63b8ff" d="M345.18,-16C353.04,-16 361.09,-16 369.12,-16"/>
<polygon fill="#63b8ff" stroke="#63b8ff" points="368.93,-19.5 378.93,-16 368.93,-12.5 368.93,-19.5"/>
</a>
</g>
</g>
</g>
</svg>
