<?xml version="1.0" encoding="UTF-8" standalone="no"?>
<!DOCTYPE svg PUBLIC "-//W3C//DTD SVG 1.1//EN"
 "http://www.w3.org/Graphics/SVG/1.1/DTD/svg11.dtd">
<!-- Generated by graphviz version 12.2.1 (20241206.2353)
 -->
<!-- Title: fr.softsf.canscan.service.VersionService.checkLatestVersion Pages: 1 -->
<svg width="603pt" height="128pt"
 viewBox="0.00 0.00 602.75 128.00" xmlns="http://www.w3.org/2000/svg" xmlns:xlink="http://www.w3.org/1999/xlink">
<g id="graph0" class="graph" transform="scale(1 1) rotate(0) translate(4 124)">
<title>fr.softsf.canscan.service.VersionService.checkLatestVersion</title>
<!-- Node1 -->
<g id="Node000001" class="node">
<title>Node1</title>
<g id="a_Node000001"><a xlink:title="Asynchronously checks whether the current application version matches the latest GitHub release tag.">
<polygon fill="#999999" stroke="#666666" points="169.75,-76 0,-76 0,-44 169.75,-44 169.75,-76"/>
<text text-anchor="start" x="8" y="-62.5" font-family="Helvetica,sans-Serif" font-size="10.00">fr.softsf.canscan.service.</text>
<text text-anchor="middle" x="84.88" y="-50.5" font-family="Helvetica,sans-Serif" font-size="10.00">VersionService.checkLatestVersion</text>
</a>
</g>
</g>
<!-- Node2 -->
<g id="Node000002" class="node">
<title>Node2</title>
<g id="a_Node000002"><a xlink:href="enumfr_1_1softsf_1_1canscan_1_1service_1_1_version_service.html#a9def0c33b490f00f468c273ee15f38dd" target="_top" xlink:title="Validates input for version check.">
<polygon fill="white" stroke="#666666" points="393.5,-120 205.75,-120 205.75,-88 393.5,-88 393.5,-120"/>
<text text-anchor="start" x="213.75" y="-106.5" font-family="Helvetica,sans-Serif" font-size="10.00">fr.softsf.canscan.service.</text>
<text text-anchor="middle" x="299.62" y="-94.5" font-family="Helvetica,sans-Serif" font-size="10.00">VersionService.npeCheckLatestVersion</text>
</a>
</g>
</g>
<!-- Node1&#45;&gt;Node2 -->
<g id="edge1_Node000001_Node000002" class="edge">
<title>Node1&#45;&gt;Node2</title>
<g id="a_edge1_Node000001_Node000002"><a xlink:title=" ">
<path fill="none" stroke="#63b8ff" d="M165.4,-76.45C179.18,-79.3 193.61,-82.28 207.67,-85.19"/>
<polygon fill="#63b8ff" stroke="#63b8ff" points="206.86,-88.6 217.36,-87.19 208.28,-81.74 206.86,-88.6"/>
</a>
</g>
</g>
<!-- Node3 -->
<g id="Node000003" class="node">
<title>Node3</title>
<g id="a_Node000003"><a xlink:href="enumfr_1_1softsf_1_1canscan_1_1service_1_1_version_service.html#ad09fd68eb6816aec3c09f2c4066e64f5" target="_top" xlink:title="Updates the state and tooltip of the given button based on application logic.">
<polygon fill="white" stroke="#666666" points="594.75,-98 429.5,-98 429.5,-66 594.75,-66 594.75,-98"/>
<text text-anchor="start" x="437.5" y="-84.5" font-family="Helvetica,sans-Serif" font-size="10.00">fr.softsf.canscan.service.</text>
<text text-anchor="middle" x="512.12" y="-72.5" font-family="Helvetica,sans-Serif" font-size="10.00">VersionService.updateButtonState</text>
</a>
</g>
</g>
<!-- Node1&#45;&gt;Node3 -->
<g id="edge4_Node000001_Node000003" class="edge">
<title>Node1&#45;&gt;Node3</title>
<g id="a_edge4_Node000001_Node000003"><a xlink:title=" ">
<path fill="none" stroke="#63b8ff" d="M170.14,-64.36C241.66,-68.06 344.12,-73.36 418.04,-77.18"/>
<polygon fill="#63b8ff" stroke="#63b8ff" points="417.51,-80.66 427.68,-77.68 417.87,-73.67 417.51,-80.66"/>
</a>
</g>
</g>
<!-- Node4 -->
<g id="Node000004" class="node">
<title>Node4</title>
<g id="a_Node000004"><a xlink:href="enumfr_1_1softsf_1_1canscan_1_1service_1_1_version_service.html#af05c96862a2ab3a6153e7514694884f4" target="_top" xlink:title="Sends an HTTP request to the GitHub tags API and verifies if the latest release tag matches the curre...">
<polygon fill="white" stroke="#666666" points="378.88,-32 220.38,-32 220.38,0 378.88,0 378.88,-32"/>
<text text-anchor="start" x="228.38" y="-18.5" font-family="Helvetica,sans-Serif" font-size="10.00">fr.softsf.canscan.service.</text>
<text text-anchor="middle" x="299.62" y="-6.5" font-family="Helvetica,sans-Serif" font-size="10.00">VersionService.requestAndVerify</text>
</a>
</g>
</g>
<!-- Node1&#45;&gt;Node4 -->
<g id="edge3_Node000001_Node000004" class="edge">
<title>Node1&#45;&gt;Node4</title>
<g id="a_edge3_Node000001_Node000004"><a xlink:title=" ">
<path fill="none" stroke="#63b8ff" d="M165.4,-43.55C179.6,-40.62 194.48,-37.54 208.95,-34.55"/>
<polygon fill="#63b8ff" stroke="#63b8ff" points="209.34,-38.04 218.42,-32.59 207.92,-31.18 209.34,-38.04"/>
</a>
</g>
</g>
<!-- Node2&#45;&gt;Node3 -->
<g id="edge2_Node000002_Node000003" class="edge">
<title>Node2&#45;&gt;Node3</title>
<g id="a_edge2_Node000002_Node000003"><a xlink:title=" ">
<path fill="none" stroke="#63b8ff" d="M393.87,-94.25C401.87,-93.42 409.96,-92.57 417.96,-91.74"/>
<polygon fill="#63b8ff" stroke="#63b8ff" points="418.1,-95.24 427.68,-90.72 417.37,-88.28 418.1,-95.24"/>
</a>
</g>
</g>
</g>
</svg>
