<?xml version="1.0" encoding="UTF-8" standalone="no"?>
<!DOCTYPE svg PUBLIC "-//W3C//DTD SVG 1.1//EN"
 "http://www.w3.org/Graphics/SVG/1.1/DTD/svg11.dtd">
<!-- Generated by graphviz version 12.2.1 (20241206.2353)
 -->
<!-- Title: fr.softsf.canscan.service.BuildQRDataService.buildQrData Pages: 1 -->
<svg width="987pt" height="62pt"
 viewBox="0.00 0.00 986.50 62.00" xmlns="http://www.w3.org/2000/svg" xmlns:xlink="http://www.w3.org/1999/xlink">
<g id="graph0" class="graph" transform="scale(1 1) rotate(0) translate(4 58)">
<title>fr.softsf.canscan.service.BuildQRDataService.buildQrData</title>
<!-- Node1 -->
<g id="Node000001" class="node">
<title>Node1</title>
<g id="a_Node000001"><a xlink:title="Builds the QR content and default filename based on the selected mode.">
<polygon fill="#999999" stroke="#666666" points="161.5,-32 0,-32 0,0 161.5,0 161.5,-32"/>
<text text-anchor="start" x="8" y="-18.5" font-family="Helvetica,sans-Serif" font-size="10.00">fr.softsf.canscan.service.</text>
<text text-anchor="middle" x="80.75" y="-6.5" font-family="Helvetica,sans-Serif" font-size="10.00">BuildQRDataService.buildQrData</text>
</a>
</g>
</g>
<!-- Node2 -->
<g id="Node000002" class="node">
<title>Node2</title>
<g id="a_Node000002"><a xlink:href="enumfr_1_1softsf_1_1canscan_1_1service_1_1_build_q_r_data_service.html#af9ccf3cd47449ca963a63fbf91b0b3c2" target="_top" xlink:title="Builds a MECARD&#45;formatted string from the provided contact fields.">
<polygon fill="white" stroke="#666666" points="359.75,-54 197.5,-54 197.5,-22 359.75,-22 359.75,-54"/>
<text text-anchor="start" x="205.5" y="-40.5" font-family="Helvetica,sans-Serif" font-size="10.00">fr.softsf.canscan.service.</text>
<text text-anchor="middle" x="278.62" y="-28.5" font-family="Helvetica,sans-Serif" font-size="10.00">BuildQRDataService.buildMecard</text>
</a>
</g>
</g>
<!-- Node1&#45;&gt;Node2 -->
<g id="edge1_Node000001_Node000002" class="edge">
<title>Node1&#45;&gt;Node2</title>
<g id="a_edge1_Node000001_Node000002"><a xlink:title=" ">
<path fill="none" stroke="#63b8ff" d="M161.99,-25.01C169.88,-25.9 177.94,-26.8 185.94,-27.7"/>
<polygon fill="#63b8ff" stroke="#63b8ff" points="185.37,-31.16 195.69,-28.8 186.15,-24.2 185.37,-31.16"/>
</a>
</g>
</g>
<!-- Node4 -->
<g id="Node000004" class="node">
<title>Node4</title>
<g id="a_Node000004"><a xlink:href="enumfr_1_1softsf_1_1canscan_1_1util_1_1_checker.html#a38aa8db97b16480c728481f1835da11f" target="_top" xlink:title="Checks if the given object is null in a static context and displays an error dialog if so.">
<polygon fill="white" stroke="#666666" points="768.25,-32 594,-32 594,0 768.25,0 768.25,-32"/>
<text text-anchor="start" x="602" y="-18.5" font-family="Helvetica,sans-Serif" font-size="10.00">fr.softsf.canscan.util.Checker.check</text>
<text text-anchor="middle" x="681.12" y="-6.5" font-family="Helvetica,sans-Serif" font-size="10.00">StaticNPE</text>
</a>
</g>
</g>
<!-- Node1&#45;&gt;Node4 -->
<g id="edge5_Node000001_Node000004" class="edge">
<title>Node1&#45;&gt;Node4</title>
<g id="a_edge5_Node000001_Node000004"><a xlink:title=" ">
<path fill="none" stroke="#63b8ff" d="M161.76,-13.66C173.74,-13.38 185.94,-13.15 197.5,-13 357.71,-10.92 397.79,-11.03 558,-13 565.95,-13.1 574.18,-13.23 582.45,-13.39"/>
<polygon fill="#63b8ff" stroke="#63b8ff" points="582.15,-16.88 592.22,-13.58 582.29,-9.88 582.15,-16.88"/>
</a>
</g>
</g>
<!-- Node3 -->
<g id="Node000003" class="node">
<title>Node3</title>
<g id="a_Node000003"><a xlink:href="enumfr_1_1softsf_1_1canscan_1_1service_1_1_build_q_r_data_service.html#a1a95907fccdf6addf79672cd6bb25a78" target="_top" xlink:title="Appends a field to the MECARD string if the value is non&#45;null and non&#45;blank.">
<polygon fill="white" stroke="#666666" points="558,-54 395.75,-54 395.75,-22 558,-22 558,-54"/>
<text text-anchor="start" x="403.75" y="-40.5" font-family="Helvetica,sans-Serif" font-size="10.00">fr.softsf.canscan.service.</text>
<text text-anchor="middle" x="476.88" y="-28.5" font-family="Helvetica,sans-Serif" font-size="10.00">BuildQRDataService.appendField</text>
</a>
</g>
</g>
<!-- Node2&#45;&gt;Node3 -->
<g id="edge2_Node000002_Node000003" class="edge">
<title>Node2&#45;&gt;Node3</title>
<g id="a_edge2_Node000002_Node000003"><a xlink:title=" ">
<path fill="none" stroke="#63b8ff" d="M360.01,-38C367.93,-38 376,-38 384.02,-38"/>
<polygon fill="#63b8ff" stroke="#63b8ff" points="383.78,-41.5 393.78,-38 383.78,-34.5 383.78,-41.5"/>
</a>
</g>
</g>
<!-- Node3&#45;&gt;Node4 -->
<g id="edge3_Node000003_Node000004" class="edge">
<title>Node3&#45;&gt;Node4</title>
<g id="a_edge3_Node000003_Node000004"><a xlink:title=" ">
<path fill="none" stroke="#63b8ff" d="M558.39,-29.24C566.25,-28.39 574.29,-27.51 582.3,-26.64"/>
<polygon fill="#63b8ff" stroke="#63b8ff" points="582.51,-30.14 592.07,-25.58 581.75,-23.18 582.51,-30.14"/>
</a>
</g>
</g>
<!-- Node5 -->
<g id="Node000005" class="node">
<title>Node5</title>
<g id="a_Node000005"><a xlink:href="enumfr_1_1softsf_1_1canscan_1_1util_1_1_checker.html#af3fc9dd2a33f4d12c5db8cf2aeea17d7" target="_top" xlink:title="Validates that the given object is non&#45;null and, if a String, not blank.">
<polygon fill="white" stroke="#666666" points="978.5,-32 804.25,-32 804.25,0 978.5,0 978.5,-32"/>
<text text-anchor="start" x="812.25" y="-18.5" font-family="Helvetica,sans-Serif" font-size="10.00">fr.softsf.canscan.util.Checker.check</text>
<text text-anchor="middle" x="891.38" y="-6.5" font-family="Helvetica,sans-Serif" font-size="10.00">NullOrBlankInternal</text>
</a>
</g>
</g>
<!-- Node4&#45;&gt;Node5 -->
<g id="edge4_Node000004_Node000005" class="edge">
<title>Node4&#45;&gt;Node5</title>
<g id="a_edge4_Node000004_Node000005"><a xlink:title=" ">
<path fill="none" stroke="#63b8ff" d="M768.63,-16C776.53,-16 784.57,-16 792.56,-16"/>
<polygon fill="#63b8ff" stroke="#63b8ff" points="792.29,-19.5 802.29,-16 792.29,-12.5 792.29,-19.5"/>
</a>
</g>
</g>
</g>
</svg>
