<?xml version="1.0" encoding="UTF-8" standalone="no"?>
<!DOCTYPE svg PUBLIC "-//W3C//DTD SVG 1.1//EN"
 "http://www.w3.org/Graphics/SVG/1.1/DTD/svg11.dtd">
<!-- Generated by graphviz version 12.2.1 (20241206.2353)
 -->
<!-- Title: fr.softsf.canscan.util.Checker Pages: 1 -->
<svg width="145pt" height="136pt"
 viewBox="0.00 0.00 145.00 136.00" xmlns="http://www.w3.org/2000/svg" xmlns:xlink="http://www.w3.org/1999/xlink">
<g id="graph0" class="graph" transform="scale(1 1) rotate(0) translate(4 132)">
<title>fr.softsf.canscan.util.Checker</title>
<!-- Node1 -->
<g id="Node000001" class="node">
<title>Node1</title>
<g id="a_Node000001"><a xlink:title="Centralized argument validation utility for detecting and reporting null or blank values.">
<polygon fill="#999999" stroke="none" points="137,-128 0,-128 0,0 137,0 137,-128"/>
<text text-anchor="start" x="4" y="-114.5" font-family="Helvetica,sans-Serif" font-size="10.00">fr.softsf.canscan.util.Checker</text>
<text text-anchor="start" x="4.88" y="-98.5" font-family="Helvetica,sans-Serif" font-size="10.00">+</text>
<text text-anchor="start" x="15.75" y="-98.5" font-family="Helvetica,sans-Serif" font-size="10.00">INSTANCE</text>
<text text-anchor="start" x="4.88" y="-82.5" font-family="Helvetica,sans-Serif" font-size="10.00">+</text>
<text text-anchor="start" x="15.75" y="-82.5" font-family="Helvetica,sans-Serif" font-size="10.00">boolean checkNPE(Object</text>
<text text-anchor="start" x="15.75" y="-70.5" font-family="Helvetica,sans-Serif" font-size="10.00"> obj, String methodName,</text>
<text text-anchor="start" x="15.75" y="-58.5" font-family="Helvetica,sans-Serif" font-size="10.00"> String name)</text>
<text text-anchor="start" x="6.38" y="-42.5" font-family="Helvetica,sans-Serif" font-size="10.00">&#45;</text>
<text text-anchor="start" x="15.75" y="-42.5" font-family="Helvetica,sans-Serif" font-size="10.00">static boolean checkNull</text>
<text text-anchor="start" x="15.75" y="-30.5" font-family="Helvetica,sans-Serif" font-size="10.00">OrBlankInternal(Object</text>
<text text-anchor="start" x="15.75" y="-18.5" font-family="Helvetica,sans-Serif" font-size="10.00"> obj, String methodName,</text>
<text text-anchor="start" x="15.75" y="-6.5" font-family="Helvetica,sans-Serif" font-size="10.00"> String name)</text>
<polygon fill="#666666" stroke="#666666" points="0,-110 0,-110 137,-110 137,-110 0,-110"/>
<polygon fill="#666666" stroke="#666666" points="0,-94 0,-94 13.75,-94 13.75,-94 0,-94"/>
<polygon fill="#666666" stroke="#666666" points="13.75,-94 13.75,-94 137,-94 137,-94 13.75,-94"/>
<polygon fill="none" stroke="#666666" points="0,0 0,-128 137,-128 137,0 0,0"/>
</a>
</g>
</g>
</g>
</svg>
