<?xml version="1.0" encoding="UTF-8" standalone="no"?>
<!DOCTYPE svg PUBLIC "-//W3C//DTD SVG 1.1//EN"
 "http://www.w3.org/Graphics/SVG/1.1/DTD/svg11.dtd">
<!-- Generated by graphviz version 12.2.1 (20241206.2353)
 -->
<!-- Title: fr.softsf.canscan.ui.QrCodeIconUtil Pages: 1 -->
<svg width="137pt" height="84pt"
 viewBox="0.00 0.00 136.75 84.00" xmlns="http://www.w3.org/2000/svg" xmlns:xlink="http://www.w3.org/1999/xlink">
<g id="graph0" class="graph" transform="scale(1 1) rotate(0) translate(4 80)">
<title>fr.softsf.canscan.ui.QrCodeIconUtil</title>
<!-- Node1 -->
<g id="Node000001" class="node">
<title>Node1</title>
<g id="a_Node000001"><a xlink:title="Utility for releasing memory used by QR code icons.">
<polygon fill="#999999" stroke="none" points="128.75,-76 0,-76 0,0 128.75,0 128.75,-76"/>
<text text-anchor="start" x="4" y="-62.5" font-family="Helvetica,sans-Serif" font-size="10.00">fr.softsf.canscan.ui.QrCode</text>
<text text-anchor="start" x="47.5" y="-50.5" font-family="Helvetica,sans-Serif" font-size="10.00">IconUtil</text>
<text text-anchor="start" x="5.44" y="-34.5" font-family="Helvetica,sans-Serif" font-size="10.00">+</text>
<text text-anchor="start" x="16.88" y="-34.5" font-family="Helvetica,sans-Serif" font-size="10.00">INSTANCE</text>
<text text-anchor="start" x="5.44" y="-18.5" font-family="Helvetica,sans-Serif" font-size="10.00">+</text>
<text text-anchor="start" x="16.88" y="-18.5" font-family="Helvetica,sans-Serif" font-size="10.00">void disposeIcon(JLabel</text>
<text text-anchor="start" x="16.88" y="-6.5" font-family="Helvetica,sans-Serif" font-size="10.00"> label)</text>
<polygon fill="#666666" stroke="#666666" points="0,-46 0,-46 128.75,-46 128.75,-46 0,-46"/>
<polygon fill="#666666" stroke="#666666" points="0,-30 0,-30 14.88,-30 14.88,-30 0,-30"/>
<polygon fill="#666666" stroke="#666666" points="14.88,-30 14.88,-30 128.75,-30 128.75,-30 14.88,-30"/>
<polygon fill="none" stroke="#666666" points="0,0 0,-76 128.75,-76 128.75,0 0,0"/>
</a>
</g>
</g>
</g>
</svg>
