<?xml version="1.0" encoding="UTF-8" standalone="no"?>
<!DOCTYPE svg PUBLIC "-//W3C//DTD SVG 1.1//EN"
 "http://www.w3.org/Graphics/SVG/1.1/DTD/svg11.dtd">
<!-- Generated by graphviz version 12.2.1 (20241206.2353)
 -->
<!-- Title: fr.softsf.canscan.util.FrameHelper Pages: 1 -->
<svg width="155pt" height="72pt"
 viewBox="0.00 0.00 155.00 72.00" xmlns="http://www.w3.org/2000/svg" xmlns:xlink="http://www.w3.org/1999/xlink">
<g id="graph0" class="graph" transform="scale(1 1) rotate(0) translate(4 68)">
<title>fr.softsf.canscan.util.FrameHelper</title>
<!-- Node1 -->
<g id="Node000001" class="node">
<title>Node1</title>
<g id="a_Node000001"><a xlink:title="Singleton utility for accessing active application frames.">
<polygon fill="#999999" stroke="none" points="147,-64 0,-64 0,0 147,0 147,-64"/>
<text text-anchor="start" x="13.5" y="-50.5" font-family="Helvetica,sans-Serif" font-size="10.00">fr.softsf.canscan.util.Frame</text>
<text text-anchor="start" x="59.25" y="-38.5" font-family="Helvetica,sans-Serif" font-size="10.00">Helper</text>
<text text-anchor="start" x="4" y="-22.5" font-family="Helvetica,sans-Serif" font-size="10.00">+</text>
<text text-anchor="start" x="14" y="-22.5" font-family="Helvetica,sans-Serif" font-size="10.00">INSTANCE</text>
<text text-anchor="start" x="4" y="-6.5" font-family="Helvetica,sans-Serif" font-size="10.00">+</text>
<text text-anchor="start" x="14" y="-6.5" font-family="Helvetica,sans-Serif" font-size="10.00">Component getParentFrame()</text>
<polygon fill="#666666" stroke="#666666" points="0,-34 0,-34 147,-34 147,-34 0,-34"/>
<polygon fill="#666666" stroke="#666666" points="0,-18 0,-18 12,-18 12,-18 0,-18"/>
<polygon fill="#666666" stroke="#666666" points="12,-18 12,-18 147,-18 147,-18 12,-18"/>
<polygon fill="none" stroke="#666666" points="0,0 0,-64 147,-64 147,0 0,0"/>
</a>
</g>
</g>
</g>
</svg>
