<?xml version="1.0" encoding="UTF-8" standalone="no"?>
<!DOCTYPE svg PUBLIC "-//W3C//DTD SVG 1.1//EN"
 "http://www.w3.org/Graphics/SVG/1.1/DTD/svg11.dtd">
<!-- Generated by graphviz version 12.2.1 (20241206.2353)
 -->
<!-- Title: fr.softsf.canscan.util.CoordinateHelper.parseAndTruncate Pages: 1 -->
<svg width="355pt" height="140pt"
 viewBox="0.00 0.00 355.00 140.00" xmlns="http://www.w3.org/2000/svg" xmlns:xlink="http://www.w3.org/1999/xlink">
<g id="graph0" class="graph" transform="scale(1 1) rotate(0) translate(4 136)">
<title>fr.softsf.canscan.util.CoordinateHelper.parseAndTruncate</title>
<!-- Node1 -->
<g id="Node000001" class="node">
<title>Node1</title>
<g id="a_Node000001"><a xlink:title="Parses and truncates a coordinate string.">
<polygon fill="#999999" stroke="#666666" points="155.5,-82 0,-82 0,-50 155.5,-50 155.5,-82"/>
<text text-anchor="start" x="8" y="-68.5" font-family="Helvetica,sans-Serif" font-size="10.00">fr.softsf.canscan.util.Coordinate</text>
<text text-anchor="middle" x="77.75" y="-56.5" font-family="Helvetica,sans-Serif" font-size="10.00">Helper.parseAndTruncate</text>
</a>
</g>
</g>
<!-- Node2 -->
<g id="Node000002" class="node">
<title>Node2</title>
<g id="a_Node000002"><a xlink:href="enumfr_1_1softsf_1_1canscan_1_1util_1_1_coordinate_helper.html#ac699036c792ca55aa735f90208bf8784" target="_top" xlink:title="Clears the field and returns empty string.">
<polygon fill="white" stroke="#666666" points="347,-132 191.5,-132 191.5,-100 347,-100 347,-132"/>
<text text-anchor="start" x="199.5" y="-118.5" font-family="Helvetica,sans-Serif" font-size="10.00">fr.softsf.canscan.util.Coordinate</text>
<text text-anchor="middle" x="269.25" y="-106.5" font-family="Helvetica,sans-Serif" font-size="10.00">Helper.clearAndReturnEmpty</text>
</a>
</g>
</g>
<!-- Node1&#45;&gt;Node2 -->
<g id="edge1_Node000001_Node000002" class="edge">
<title>Node1&#45;&gt;Node2</title>
<g id="a_edge1_Node000001_Node000002"><a xlink:title=" ">
<path fill="none" stroke="#63b8ff" d="M141.06,-82.44C158.3,-86.99 177.17,-91.97 194.98,-96.67"/>
<polygon fill="#63b8ff" stroke="#63b8ff" points="193.88,-100 204.44,-99.16 195.66,-93.23 193.88,-100"/>
</a>
</g>
</g>
<!-- Node3 -->
<g id="Node000003" class="node">
<title>Node3</title>
<g id="a_Node000003"><a xlink:href="enumfr_1_1softsf_1_1canscan_1_1util_1_1_coordinate_helper.html#ac77028615e42948dee3bc8cfa1b9e3dd" target="_top" xlink:title="Checks if a coordinate value is within valid range.">
<polygon fill="white" stroke="#666666" points="347,-82 191.5,-82 191.5,-50 347,-50 347,-82"/>
<text text-anchor="start" x="199.5" y="-68.5" font-family="Helvetica,sans-Serif" font-size="10.00">fr.softsf.canscan.util.Coordinate</text>
<text text-anchor="middle" x="269.25" y="-56.5" font-family="Helvetica,sans-Serif" font-size="10.00">Helper.isInRange</text>
</a>
</g>
</g>
<!-- Node1&#45;&gt;Node3 -->
<g id="edge2_Node000001_Node000003" class="edge">
<title>Node1&#45;&gt;Node3</title>
<g id="a_edge2_Node000001_Node000003"><a xlink:title=" ">
<path fill="none" stroke="#63b8ff" d="M155.83,-66C163.77,-66 171.88,-66 179.93,-66"/>
<polygon fill="#63b8ff" stroke="#63b8ff" points="179.73,-69.5 189.73,-66 179.73,-62.5 179.73,-69.5"/>
</a>
</g>
</g>
<!-- Node4 -->
<g id="Node000004" class="node">
<title>Node4</title>
<g id="a_Node000004"><a xlink:href="enumfr_1_1softsf_1_1canscan_1_1util_1_1_coordinate_helper.html#a338999645531baf26c056cd4021e4cbe" target="_top" xlink:title="Truncates coordinate decimals toward zero.">
<polygon fill="white" stroke="#666666" points="347,-32 191.5,-32 191.5,0 347,0 347,-32"/>
<text text-anchor="start" x="199.5" y="-18.5" font-family="Helvetica,sans-Serif" font-size="10.00">fr.softsf.canscan.util.Coordinate</text>
<text text-anchor="middle" x="269.25" y="-6.5" font-family="Helvetica,sans-Serif" font-size="10.00">Helper.truncate</text>
</a>
</g>
</g>
<!-- Node1&#45;&gt;Node4 -->
<g id="edge3_Node000001_Node000004" class="edge">
<title>Node1&#45;&gt;Node4</title>
<g id="a_edge3_Node000001_Node000004"><a xlink:title=" ">
<path fill="none" stroke="#63b8ff" d="M141.06,-49.56C158.3,-45.01 177.17,-40.03 194.98,-35.33"/>
<polygon fill="#63b8ff" stroke="#63b8ff" points="195.66,-38.77 204.44,-32.84 193.88,-32 195.66,-38.77"/>
</a>
</g>
</g>
</g>
</svg>
