<?xml version="1.0" encoding="UTF-8" standalone="no"?>
<!DOCTYPE svg PUBLIC "-//W3C//DTD SVG 1.1//EN"
 "http://www.w3.org/Graphics/SVG/1.1/DTD/svg11.dtd">
<!-- Generated by graphviz version 12.2.1 (20241206.2353)
 -->
<!-- Title: fr.softsf.canscan.util.ApplicationMetadata Pages: 1 -->
<svg width="156pt" height="152pt"
 viewBox="0.00 0.00 156.25 152.00" xmlns="http://www.w3.org/2000/svg" xmlns:xlink="http://www.w3.org/1999/xlink">
<g id="graph0" class="graph" transform="scale(1 1) rotate(0) translate(4 148)">
<title>fr.softsf.canscan.util.ApplicationMetadata</title>
<!-- Node1 -->
<g id="Node000001" class="node">
<title>Node1</title>
<g id="a_Node000001"><a xlink:title="Application metadata loaded from version.properties.">
<polygon fill="#999999" stroke="none" points="148.25,-144 0,-144 0,0 148.25,0 148.25,-144"/>
<text text-anchor="start" x="4" y="-130.5" font-family="Helvetica,sans-Serif" font-size="10.00">fr.softsf.canscan.util.Application</text>
<text text-anchor="start" x="53.88" y="-118.5" font-family="Helvetica,sans-Serif" font-size="10.00">Metadata</text>
<text text-anchor="start" x="11.06" y="-102.5" font-family="Helvetica,sans-Serif" font-size="10.00">+</text>
<text text-anchor="start" x="28.12" y="-102.5" font-family="Helvetica,sans-Serif" font-size="10.00">INSTANCE</text>
<text text-anchor="start" x="12.56" y="-86.5" font-family="Helvetica,sans-Serif" font-size="10.00">&#45;</text>
<text text-anchor="start" x="28.12" y="-86.5" font-family="Helvetica,sans-Serif" font-size="10.00">final String name</text>
<text text-anchor="start" x="12.56" y="-70.5" font-family="Helvetica,sans-Serif" font-size="10.00">&#45;</text>
<text text-anchor="start" x="28.12" y="-70.5" font-family="Helvetica,sans-Serif" font-size="10.00">final String organization</text>
<text text-anchor="start" x="12.56" y="-54.5" font-family="Helvetica,sans-Serif" font-size="10.00">&#45;</text>
<text text-anchor="start" x="28.12" y="-54.5" font-family="Helvetica,sans-Serif" font-size="10.00">final String version</text>
<text text-anchor="start" x="11.06" y="-38.5" font-family="Helvetica,sans-Serif" font-size="10.00">+</text>
<text text-anchor="start" x="28.12" y="-38.5" font-family="Helvetica,sans-Serif" font-size="10.00">ApplicationMetadata()</text>
<text text-anchor="start" x="11.06" y="-22.5" font-family="Helvetica,sans-Serif" font-size="10.00">+</text>
<text text-anchor="start" x="28.12" y="-22.5" font-family="Helvetica,sans-Serif" font-size="10.00">String getVersion()</text>
<text text-anchor="start" x="11.06" y="-6.5" font-family="Helvetica,sans-Serif" font-size="10.00">+</text>
<text text-anchor="start" x="28.12" y="-6.5" font-family="Helvetica,sans-Serif" font-size="10.00">String initializeTitle()</text>
<polygon fill="#666666" stroke="#666666" points="0,-114 0,-114 148.25,-114 148.25,-114 0,-114"/>
<polygon fill="#666666" stroke="#666666" points="0,-50 0,-50 26.12,-50 26.12,-50 0,-50"/>
<polygon fill="#666666" stroke="#666666" points="26.12,-50 26.12,-50 148.25,-50 148.25,-50 26.12,-50"/>
<polygon fill="none" stroke="#666666" points="0,0 0,-144 148.25,-144 148.25,0 0,0"/>
</a>
</g>
</g>
</g>
</svg>
