<?xml version="1.0" encoding="UTF-8" standalone="no"?>
<!DOCTYPE svg PUBLIC "-//W3C//DTD SVG 1.1//EN"
 "http://www.w3.org/Graphics/SVG/1.1/DTD/svg11.dtd">
<!-- Generated by graphviz version 12.2.1 (20241206.2353)
 -->
<!-- Title: fr.softsf.canscan.service.DataBuilderService.buildData Pages: 1 -->
<svg width="535pt" height="90pt"
 viewBox="0.00 0.00 535.25 90.00" xmlns="http://www.w3.org/2000/svg" xmlns:xlink="http://www.w3.org/1999/xlink">
<g id="graph0" class="graph" transform="scale(1 1) rotate(0) translate(4 86)">
<title>fr.softsf.canscan.service.DataBuilderService.buildData</title>
<!-- Node1 -->
<g id="Node000001" class="node">
<title>Node1</title>
<g id="a_Node000001"><a xlink:title="Builds the QR content and default filename based on the selected mode.">
<polygon fill="#999999" stroke="#666666" points="144.25,-57 0,-57 0,-25 144.25,-25 144.25,-57"/>
<text text-anchor="start" x="8" y="-43.5" font-family="Helvetica,sans-Serif" font-size="10.00">fr.softsf.canscan.service.</text>
<text text-anchor="middle" x="72.12" y="-31.5" font-family="Helvetica,sans-Serif" font-size="10.00">DataBuilderService.buildData</text>
</a>
</g>
</g>
<!-- Node2 -->
<g id="Node000002" class="node">
<title>Node2</title>
<g id="a_Node000002"><a xlink:href="enumfr_1_1softsf_1_1canscan_1_1service_1_1_data_builder_service.html#ae4a03098abc5bc1f7a6142403703680e" target="_top" xlink:title="Builds a MECARD&#45;formatted string from the provided contact fields.">
<polygon fill="white" stroke="#666666" points="335.75,-82 180.25,-82 180.25,-50 335.75,-50 335.75,-82"/>
<text text-anchor="start" x="188.25" y="-68.5" font-family="Helvetica,sans-Serif" font-size="10.00">fr.softsf.canscan.service.</text>
<text text-anchor="middle" x="258" y="-56.5" font-family="Helvetica,sans-Serif" font-size="10.00">DataBuilderService.buildMecard</text>
</a>
</g>
</g>
<!-- Node1&#45;&gt;Node2 -->
<g id="edge1_Node000001_Node000002" class="edge">
<title>Node1&#45;&gt;Node2</title>
<g id="a_edge1_Node000001_Node000002"><a xlink:title=" ">
<path fill="none" stroke="#63b8ff" d="M144.74,-50.74C152.56,-51.8 160.58,-52.89 168.56,-53.98"/>
<polygon fill="#63b8ff" stroke="#63b8ff" points="167.92,-57.42 178.3,-55.3 168.86,-50.48 167.92,-57.42"/>
</a>
</g>
</g>
<!-- Node4 -->
<g id="Node000004" class="node">
<title>Node4</title>
<g id="a_Node000004"><a xlink:href="enumfr_1_1softsf_1_1canscan_1_1service_1_1_data_builder_service.html#afe914e06d42d7ca8b05c928363a5c45a" target="_top" xlink:title="Builds an iCalendar (VCALENDAR) formatted string representing a meeting (VEVENT).">
<polygon fill="white" stroke="#666666" points="330.5,-32 185.5,-32 185.5,0 330.5,0 330.5,-32"/>
<text text-anchor="start" x="193.5" y="-18.5" font-family="Helvetica,sans-Serif" font-size="10.00">fr.softsf.canscan.service.</text>
<text text-anchor="middle" x="258" y="-6.5" font-family="Helvetica,sans-Serif" font-size="10.00">DataBuilderService.buildMeet</text>
</a>
</g>
</g>
<!-- Node1&#45;&gt;Node4 -->
<g id="edge3_Node000001_Node000004" class="edge">
<title>Node1&#45;&gt;Node4</title>
<g id="a_edge3_Node000001_Node000004"><a xlink:title=" ">
<path fill="none" stroke="#63b8ff" d="M144.74,-31.26C154.31,-29.96 164.19,-28.62 173.93,-27.29"/>
<polygon fill="#63b8ff" stroke="#63b8ff" points="174.34,-30.77 183.78,-25.96 173.4,-23.83 174.34,-30.77"/>
</a>
</g>
</g>
<!-- Node3 -->
<g id="Node000003" class="node">
<title>Node3</title>
<g id="a_Node000003"><a xlink:href="enumfr_1_1softsf_1_1canscan_1_1service_1_1_data_builder_service.html#a427b65a2a7a0d4b70e7687541dbbc408" target="_top" xlink:title="Appends a MECARD field in the format fieldName:value&lt;separator&gt; if the value is non&#45;blank.">
<polygon fill="white" stroke="#666666" points="527.25,-63 371.75,-63 371.75,-19 527.25,-19 527.25,-63"/>
<text text-anchor="start" x="379.75" y="-49.5" font-family="Helvetica,sans-Serif" font-size="10.00">fr.softsf.canscan.service.</text>
<text text-anchor="start" x="379.75" y="-37.5" font-family="Helvetica,sans-Serif" font-size="10.00">DataBuilderService.appendField</text>
<text text-anchor="middle" x="449.5" y="-25.5" font-family="Helvetica,sans-Serif" font-size="10.00">WithSpecifiedSeparator</text>
</a>
</g>
</g>
<!-- Node2&#45;&gt;Node3 -->
<g id="edge2_Node000002_Node000003" class="edge">
<title>Node2&#45;&gt;Node3</title>
<g id="a_edge2_Node000002_Node000003"><a xlink:title=" ">
<path fill="none" stroke="#63b8ff" d="M336.08,-55.83C344.02,-54.78 352.13,-53.71 360.18,-52.65"/>
<polygon fill="#63b8ff" stroke="#63b8ff" points="360.53,-56.14 369.99,-51.36 359.62,-49.2 360.53,-56.14"/>
</a>
</g>
</g>
<!-- Node4&#45;&gt;Node3 -->
<g id="edge4_Node000004_Node000003" class="edge">
<title>Node4&#45;&gt;Node3</title>
<g id="a_edge4_Node000004_Node000003"><a xlink:title=" ">
<path fill="none" stroke="#63b8ff" d="M330.91,-25.49C340.39,-26.74 350.2,-28.03 359.92,-29.31"/>
<polygon fill="#63b8ff" stroke="#63b8ff" points="359.39,-32.77 369.77,-30.61 360.31,-25.83 359.39,-32.77"/>
</a>
</g>
</g>
</g>
</svg>
