<?xml version="1.0" encoding="UTF-8" standalone="no"?>
<!DOCTYPE svg PUBLIC "-//W3C//DTD SVG 1.1//EN"
 "http://www.w3.org/Graphics/SVG/1.1/DTD/svg11.dtd">
<!-- Generated by graphviz version 12.2.1 (20241206.2353)
 -->
<!-- Title: Graphical Class Hierarchy Pages: 1 -->
<svg width="312pt" height="116pt"
 viewBox="0.00 0.00 312.25 116.00" xmlns="http://www.w3.org/2000/svg" xmlns:xlink="http://www.w3.org/1999/xlink">
<g id="graph0" class="graph" transform="scale(1 1) rotate(0) translate(4 112)">
<title>Graphical Class Hierarchy</title>
<!-- Node0 -->
<g id="Node000000" class="node">
<title>Node0</title>
<g id="a_Node000000"><a xlink:title=" ">
<polygon fill="#e0e0e0" stroke="#999999" points="106.75,-108 42,-108 42,-88 106.75,-88 106.75,-108"/>
<text text-anchor="middle" x="74.38" y="-94.5" font-family="Helvetica,sans-Serif" font-size="10.00">DatePicker</text>
</a>
</g>
</g>
<!-- Node1 -->
<g id="Node000001" class="node">
<title>Node1</title>
<g id="a_Node000001"><a xlink:href="classfr_1_1softsf_1_1canscan_1_1ui_1_1_flat_laf_date_picker.html" target="_top" xlink:title="DatePicker component with FlatLaf styling applied and automatically maintained.">
<polygon fill="white" stroke="#666666" points="304.25,-104 184.75,-104 184.75,-72 304.25,-72 304.25,-104"/>
<text text-anchor="start" x="192.75" y="-90.5" font-family="Helvetica,sans-Serif" font-size="10.00">fr.softsf.canscan.ui.Flat</text>
<text text-anchor="middle" x="244.5" y="-78.5" font-family="Helvetica,sans-Serif" font-size="10.00">LafDatePicker</text>
</a>
</g>
</g>
<!-- Node0&#45;&gt;Node1 -->
<g id="edge1_Node000000_Node000001" class="edge">
<title>Node0&#45;&gt;Node1</title>
<g id="a_edge1_Node000000_Node000001"><a xlink:title=" ">
<path fill="none" stroke="#63b8ff" d="M118.3,-95.45C138.4,-94.25 162.66,-92.81 184.46,-91.51"/>
<polygon fill="#63b8ff" stroke="#63b8ff" points="118.28,-91.94 108.51,-96.03 118.7,-98.93 118.28,-91.94"/>
</a>
</g>
</g>
<!-- Node2 -->
<g id="Node000002" class="node">
<title>Node2</title>
<g id="a_Node000002"><a xlink:href="interfacefr_1_1softsf_1_1canscan_1_1ui_1_1_i_flat_laf_styled_for_l_good_date_picker.html" target="_top" xlink:title="Interface providing FlatLaf styling support for LGoodDatePicker components.">
<polygon fill="white" stroke="#666666" points="148.75,-70 0,-70 0,-38 148.75,-38 148.75,-70"/>
<text text-anchor="start" x="8" y="-56.5" font-family="Helvetica,sans-Serif" font-size="10.00">fr.softsf.canscan.ui.IFlat</text>
<text text-anchor="middle" x="74.38" y="-44.5" font-family="Helvetica,sans-Serif" font-size="10.00">LafStyledForLGoodDatePicker</text>
</a>
</g>
</g>
<!-- Node2&#45;&gt;Node1 -->
<g id="edge2_Node000002_Node000001" class="edge">
<title>Node2&#45;&gt;Node1</title>
<g id="a_edge2_Node000002_Node000001"><a xlink:title=" ">
<path fill="none" stroke="#63b8ff" d="M160.25,-71.16C168.44,-72.82 176.61,-74.47 184.46,-76.06"/>
<polygon fill="#63b8ff" stroke="#63b8ff" points="161.1,-67.76 150.6,-69.21 159.71,-74.63 161.1,-67.76"/>
</a>
</g>
</g>
<!-- Node3 -->
<g id="Node000003" class="node">
<title>Node3</title>
<g id="a_Node000003"><a xlink:href="classfr_1_1softsf_1_1canscan_1_1ui_1_1_flat_laf_time_picker.html" target="_top" xlink:title="TimePicker component with FlatLaf styling applied and automatically maintained.">
<polygon fill="white" stroke="#666666" points="304.25,-45 184.75,-45 184.75,-13 304.25,-13 304.25,-45"/>
<text text-anchor="start" x="192.75" y="-31.5" font-family="Helvetica,sans-Serif" font-size="10.00">fr.softsf.canscan.ui.Flat</text>
<text text-anchor="middle" x="244.5" y="-19.5" font-family="Helvetica,sans-Serif" font-size="10.00">LafTimePicker</text>
</a>
</g>
</g>
<!-- Node2&#45;&gt;Node3 -->
<g id="edge3_Node000002_Node000003" class="edge">
<title>Node2&#45;&gt;Node3</title>
<g id="a_edge3_Node000002_Node000003"><a xlink:title=" ">
<path fill="none" stroke="#63b8ff" d="M160.25,-41.38C168.44,-40.16 176.61,-38.95 184.46,-37.78"/>
<polygon fill="#63b8ff" stroke="#63b8ff" points="159.99,-37.88 150.61,-42.81 161.02,-44.8 159.99,-37.88"/>
</a>
</g>
</g>
<!-- Node4 -->
<g id="Node000004" class="node">
<title>Node4</title>
<g id="a_Node000004"><a xlink:title=" ">
<polygon fill="#e0e0e0" stroke="#999999" points="107.12,-20 41.62,-20 41.62,0 107.12,0 107.12,-20"/>
<text text-anchor="middle" x="74.38" y="-6.5" font-family="Helvetica,sans-Serif" font-size="10.00">TimePicker</text>
</a>
</g>
</g>
<!-- Node4&#45;&gt;Node3 -->
<g id="edge4_Node000004_Node000003" class="edge">
<title>Node4&#45;&gt;Node3</title>
<g id="a_edge4_Node000004_Node000003"><a xlink:title=" ">
<path fill="none" stroke="#63b8ff" d="M118.65,-14.89C138.66,-17.15 162.73,-19.87 184.38,-22.32"/>
<polygon fill="#63b8ff" stroke="#63b8ff" points="119.23,-11.43 108.9,-13.79 118.44,-18.39 119.23,-11.43"/>
</a>
</g>
</g>
</g>
</svg>
