<?xml version="1.0" encoding="UTF-8" standalone="no"?>
<!DOCTYPE svg PUBLIC "-//W3C//DTD SVG 1.1//EN"
 "http://www.w3.org/Graphics/SVG/1.1/DTD/svg11.dtd">
<!-- Generated by graphviz version 12.2.1 (20241206.2353)
 -->
<!-- Title: fr.softsf.canscan.ui.IFlatLafStyledForLGoodDatePicker Pages: 1 -->
<svg width="342pt" height="408pt"
 viewBox="0.00 0.00 341.50 408.00" xmlns="http://www.w3.org/2000/svg" xmlns:xlink="http://www.w3.org/1999/xlink">

<svg id="main" version="1.1" xmlns="http://www.w3.org/2000/svg" xmlns:xlink="http://www.w3.org/1999/xlink" xml:space="preserve">

<style type="text/css"><![CDATA[
.node, .edge {opacity: 0.7;}
.node.selected, .edge.selected {opacity: 1;}
.edge:hover path { stroke: red; }
.edge:hover polygon { stroke: red; fill: red; }
]]></style>
<script type="application/ecmascript" xlink:href="svg.min.js"/>
<svg id="graph" class="graph">
<g id="graph0" class="graph" transform="scale(1 1) rotate(0) translate(4 404)">
<title>fr.softsf.canscan.ui.IFlatLafStyledForLGoodDatePicker</title>
<!-- Node1 -->
<g id="Node000001" class="node">
<title>Node1</title>
<g id="a_Node000001"><a xlink:title="Utility interface to apply FlatLaf styling to LGoodDatePicker components.">
<polygon fill="#999999" stroke="none" points="237.12,-400 96.38,-400 96.38,-268 237.12,-268 237.12,-400"/>
<text text-anchor="start" x="100.38" y="-386.5" font-family="Helvetica,sans-Serif" font-size="10.00">fr.softsf.canscan.ui.IFlat</text>
<text text-anchor="start" x="100.38" y="-374.5" font-family="Helvetica,sans-Serif" font-size="10.00">LafStyledForLGoodDatePicker</text>
<text text-anchor="start" x="101.25" y="-358.5" font-family="Helvetica,sans-Serif" font-size="10.00">+</text>
<text text-anchor="start" x="112.12" y="-358.5" font-family="Helvetica,sans-Serif" font-size="10.00">int TEXT_FIELD_HEIGHT</text>
<text text-anchor="start" x="101.25" y="-342.5" font-family="Helvetica,sans-Serif" font-size="10.00">+</text>
<text text-anchor="start" x="112.12" y="-342.5" font-family="Helvetica,sans-Serif" font-size="10.00">default void applyTheme()</text>
<text text-anchor="start" x="101.25" y="-326.5" font-family="Helvetica,sans-Serif" font-size="10.00">+</text>
<text text-anchor="start" x="112.12" y="-326.5" font-family="Helvetica,sans-Serif" font-size="10.00">default Dimension compute</text>
<text text-anchor="start" x="112.12" y="-314.5" font-family="Helvetica,sans-Serif" font-size="10.00">PreferredSize(Dimension</text>
<text text-anchor="start" x="112.12" y="-302.5" font-family="Helvetica,sans-Serif" font-size="10.00"> original)</text>
<text text-anchor="start" x="101.25" y="-286.5" font-family="Helvetica,sans-Serif" font-size="10.00">+</text>
<text text-anchor="start" x="112.12" y="-286.5" font-family="Helvetica,sans-Serif" font-size="10.00">JTextField getInternalText</text>
<text text-anchor="start" x="112.12" y="-274.5" font-family="Helvetica,sans-Serif" font-size="10.00">Field()</text>
<polygon fill="#666666" stroke="#666666" points="96.38,-370 96.38,-370 237.12,-370 237.12,-370 96.38,-370"/>
<polygon fill="#666666" stroke="#666666" points="96.38,-354 96.38,-354 110.12,-354 110.12,-354 96.38,-354"/>
<polygon fill="#666666" stroke="#666666" points="110.12,-354 110.12,-354 237.12,-354 237.12,-354 110.12,-354"/>
<polygon fill="none" stroke="#666666" points="96.38,-268 96.38,-400 237.12,-400 237.12,-268 96.38,-268"/>
</a>
</g>
</g>
<!-- Node2 -->
<g id="Node000002" class="node">
<title>Node2</title>
<g id="a_Node000002"><a xlink:href="classfr_1_1softsf_1_1canscan_1_1ui_1_1_flat_laf_date_picker.html" target="_top" xlink:title="DatePicker component with FlatLaf styling applied and maintained.">
<polygon fill="white" stroke="none" points="157.5,-232 0,-232 0,0 157.5,0 157.5,-232"/>
<text text-anchor="start" x="27" y="-218.5" font-family="Helvetica,sans-Serif" font-size="10.00">fr.softsf.canscan.ui.Flat</text>
<text text-anchor="start" x="47.62" y="-206.5" font-family="Helvetica,sans-Serif" font-size="10.00">LafDatePicker</text>
<text text-anchor="start" x="5.5" y="-190.5" font-family="Helvetica,sans-Serif" font-size="10.00">&#45;</text>
<text text-anchor="start" x="14" y="-190.5" font-family="Helvetica,sans-Serif" font-size="10.00">static final String</text>
<text text-anchor="start" x="14" y="-178.5" font-family="Helvetica,sans-Serif" font-size="10.00"> BUTTON_BACKGROUND</text>
<text text-anchor="start" x="5.5" y="-162.5" font-family="Helvetica,sans-Serif" font-size="10.00">&#45;</text>
<text text-anchor="start" x="14" y="-162.5" font-family="Helvetica,sans-Serif" font-size="10.00">static final String</text>
<text text-anchor="start" x="14" y="-150.5" font-family="Helvetica,sans-Serif" font-size="10.00"> BUTTON_FOREGROUND</text>
<text text-anchor="start" x="5.5" y="-134.5" font-family="Helvetica,sans-Serif" font-size="10.00">&#45;</text>
<text text-anchor="start" x="14" y="-134.5" font-family="Helvetica,sans-Serif" font-size="10.00">static final String</text>
<text text-anchor="start" x="14" y="-122.5" font-family="Helvetica,sans-Serif" font-size="10.00"> TEXT_FIELD_BACKGROUND</text>
<text text-anchor="start" x="5.5" y="-106.5" font-family="Helvetica,sans-Serif" font-size="10.00">&#45;</text>
<text text-anchor="start" x="14" y="-106.5" font-family="Helvetica,sans-Serif" font-size="10.00">static final String</text>
<text text-anchor="start" x="14" y="-94.5" font-family="Helvetica,sans-Serif" font-size="10.00"> TEXT_FIELD_FOREGROUND</text>
<text text-anchor="start" x="4" y="-78.5" font-family="Helvetica,sans-Serif" font-size="10.00">+</text>
<text text-anchor="start" x="14" y="-78.5" font-family="Helvetica,sans-Serif" font-size="10.00">FlatLafDatePicker()</text>
<text text-anchor="start" x="4" y="-62.5" font-family="Helvetica,sans-Serif" font-size="10.00">+</text>
<text text-anchor="start" x="14" y="-62.5" font-family="Helvetica,sans-Serif" font-size="10.00">JTextField getInternalText</text>
<text text-anchor="start" x="14" y="-50.5" font-family="Helvetica,sans-Serif" font-size="10.00">Field()</text>
<text text-anchor="start" x="4" y="-34.5" font-family="Helvetica,sans-Serif" font-size="10.00">+</text>
<text text-anchor="start" x="14" y="-34.5" font-family="Helvetica,sans-Serif" font-size="10.00">Dimension getPreferredSize()</text>
<text text-anchor="start" x="5.5" y="-18.5" font-family="Helvetica,sans-Serif" font-size="10.00">&#45;</text>
<text text-anchor="start" x="14" y="-18.5" font-family="Helvetica,sans-Serif" font-size="10.00">static DatePickerSettings</text>
<text text-anchor="start" x="14" y="-6.5" font-family="Helvetica,sans-Serif" font-size="10.00"> createSettings()</text>
<polygon fill="#666666" stroke="#666666" points="0,-202 0,-202 157.5,-202 157.5,-202 0,-202"/>
<polygon fill="#666666" stroke="#666666" points="0,-90 0,-90 12,-90 12,-90 0,-90"/>
<polygon fill="#666666" stroke="#666666" points="12,-90 12,-90 157.5,-90 157.5,-90 12,-90"/>
<polygon fill="none" stroke="#666666" points="0,0 0,-232 157.5,-232 157.5,0 0,0"/>
</a>
</g>
</g>
<!-- Node1&#45;&gt;Node2 -->
<g id="edge1_Node000001_Node000002" class="edge">
<title>Node1&#45;&gt;Node2</title>
<g id="a_edge1_Node000001_Node000002"><a xlink:title=" ">
<path fill="none" stroke="#63b8ff" d="M136.08,-257.71C132.65,-249.29 129.1,-240.59 125.53,-231.82"/>
<polygon fill="none" stroke="#63b8ff" points="132.76,-258.85 139.78,-266.79 139.24,-256.21 132.76,-258.85"/>
</a>
</g>
</g>
<!-- Node3 -->
<g id="Node000003" class="node">
<title>Node3</title>
<g id="a_Node000003"><a xlink:href="classfr_1_1softsf_1_1canscan_1_1ui_1_1_flat_laf_time_picker.html" target="_top" xlink:title="TimePicker component with FlatLaf styling applied and maintained.">
<polygon fill="white" stroke="none" points="333.5,-190 176,-190 176,-42 333.5,-42 333.5,-190"/>
<text text-anchor="start" x="203" y="-176.5" font-family="Helvetica,sans-Serif" font-size="10.00">fr.softsf.canscan.ui.Flat</text>
<text text-anchor="start" x="223.25" y="-164.5" font-family="Helvetica,sans-Serif" font-size="10.00">LafTimePicker</text>
<text text-anchor="start" x="181.5" y="-148.5" font-family="Helvetica,sans-Serif" font-size="10.00">&#45;</text>
<text text-anchor="start" x="190" y="-148.5" font-family="Helvetica,sans-Serif" font-size="10.00">static final String</text>
<text text-anchor="start" x="190" y="-136.5" font-family="Helvetica,sans-Serif" font-size="10.00"> TEXT_FIELD_BACKGROUND</text>
<text text-anchor="start" x="180" y="-120.5" font-family="Helvetica,sans-Serif" font-size="10.00">+</text>
<text text-anchor="start" x="190" y="-120.5" font-family="Helvetica,sans-Serif" font-size="10.00">FlatLafTimePicker()</text>
<text text-anchor="start" x="180" y="-104.5" font-family="Helvetica,sans-Serif" font-size="10.00">+</text>
<text text-anchor="start" x="190" y="-104.5" font-family="Helvetica,sans-Serif" font-size="10.00">JTextField getInternalText</text>
<text text-anchor="start" x="190" y="-92.5" font-family="Helvetica,sans-Serif" font-size="10.00">Field()</text>
<text text-anchor="start" x="180" y="-76.5" font-family="Helvetica,sans-Serif" font-size="10.00">+</text>
<text text-anchor="start" x="190" y="-76.5" font-family="Helvetica,sans-Serif" font-size="10.00">Dimension getPreferredSize()</text>
<text text-anchor="start" x="181.5" y="-60.5" font-family="Helvetica,sans-Serif" font-size="10.00">&#45;</text>
<text text-anchor="start" x="190" y="-60.5" font-family="Helvetica,sans-Serif" font-size="10.00">static TimePickerSettings</text>
<text text-anchor="start" x="190" y="-48.5" font-family="Helvetica,sans-Serif" font-size="10.00"> createSettings()</text>
<polygon fill="#666666" stroke="#666666" points="176,-160 176,-160 333.5,-160 333.5,-160 176,-160"/>
<polygon fill="#666666" stroke="#666666" points="176,-132 176,-132 188,-132 188,-132 176,-132"/>
<polygon fill="#666666" stroke="#666666" points="188,-132 188,-132 333.5,-132 333.5,-132 188,-132"/>
<polygon fill="none" stroke="#666666" points="176,-42 176,-190 333.5,-190 333.5,-42 176,-42"/>
</a>
</g>
</g>
<!-- Node1&#45;&gt;Node3 -->
<g id="edge2_Node000001_Node000003" class="edge">
<title>Node1&#45;&gt;Node3</title>
<g id="a_edge2_Node000001_Node000003"><a xlink:title=" ">
<path fill="none" stroke="#63b8ff" d="M197.48,-257.56C206.45,-235.55 216.23,-211.54 225.13,-189.7"/>
<polygon fill="none" stroke="#63b8ff" points="194.26,-256.21 193.72,-266.79 200.74,-258.85 194.26,-256.21"/>
</a>
</g>
</g>
</g>
</svg>
</svg>

<style type='text/css'>
<![CDATA[
[data-mouse-over-selected='false'] { opacity: 0.7; }
[data-mouse-over-selected='true']  { opacity: 1.0; }
]]>
</style>
<script type="application/ecmascript"><![CDATA[
document.addEventListener('DOMContentLoaded', (event) => {
  highlightEdges();
  highlightAdjacentNodes();
});
]]></script>
</svg>
