<?xml version="1.0" encoding="UTF-8" standalone="no"?>
<!DOCTYPE svg PUBLIC "-//W3C//DTD SVG 1.1//EN"
 "http://www.w3.org/Graphics/SVG/1.1/DTD/svg11.dtd">
<!-- Generated by graphviz version 12.2.1 (20241206.2353)
 -->
<!-- Title: fr.softsf.canscan.ui.IFlatLafStyledForLGoodDatePicker.installThemeListener Pages: 1 -->
<svg width="628pt" height="68pt"
 viewBox="0.00 0.00 627.50 68.00" xmlns="http://www.w3.org/2000/svg" xmlns:xlink="http://www.w3.org/1999/xlink">
<g id="graph0" class="graph" transform="scale(1 1) rotate(0) translate(4 64)">
<title>fr.softsf.canscan.ui.IFlatLafStyledForLGoodDatePicker.installThemeListener</title>
<!-- Node1 -->
<g id="Node000001" class="node">
<title>Node1</title>
<g id="a_Node000001"><a xlink:title="Installs a property change listener on the internal text field.">
<polygon fill="#999999" stroke="#666666" points="177.25,-44 0,-44 0,0 177.25,0 177.25,-44"/>
<text text-anchor="start" x="8" y="-30.5" font-family="Helvetica,sans-Serif" font-size="10.00">fr.softsf.canscan.ui.IFlat</text>
<text text-anchor="start" x="8" y="-18.5" font-family="Helvetica,sans-Serif" font-size="10.00">LafStyledForLGoodDatePicker.install</text>
<text text-anchor="middle" x="88.62" y="-6.5" font-family="Helvetica,sans-Serif" font-size="10.00">ThemeListener</text>
</a>
</g>
</g>
<!-- Node2 -->
<g id="Node000002" class="node">
<title>Node2</title>
<g id="a_Node000002"><a xlink:href="interfacefr_1_1softsf_1_1canscan_1_1ui_1_1_i_flat_laf_styled_for_l_good_date_picker.html#a5fdca55f301a7bc8db1f4dbf6caaa635" target="_top" xlink:title="Applies FlatLaf styling to the internal JTextField.">
<polygon fill="white" stroke="#666666" points="418.25,-60 213.25,-60 213.25,-28 418.25,-28 418.25,-60"/>
<text text-anchor="start" x="221.25" y="-46.5" font-family="Helvetica,sans-Serif" font-size="10.00">fr.softsf.canscan.ui.IFlat</text>
<text text-anchor="middle" x="315.75" y="-34.5" font-family="Helvetica,sans-Serif" font-size="10.00">LafStyledForLGoodDatePicker.applyTheme</text>
</a>
</g>
</g>
<!-- Node1&#45;&gt;Node2 -->
<g id="edge1_Node000001_Node000002" class="edge">
<title>Node1&#45;&gt;Node2</title>
<g id="a_edge1_Node000001_Node000002"><a xlink:title=" ">
<path fill="none" stroke="#63b8ff" d="M177.63,-30.6C185.51,-31.37 193.56,-32.16 201.61,-32.94"/>
<polygon fill="#63b8ff" stroke="#63b8ff" points="201.18,-36.42 211.47,-33.91 201.86,-29.45 201.18,-36.42"/>
</a>
</g>
</g>
<!-- Node3 -->
<g id="Node000003" class="node">
<title>Node3</title>
<g id="a_Node000003"><a xlink:href="interfacefr_1_1softsf_1_1canscan_1_1ui_1_1_i_flat_laf_styled_for_l_good_date_picker.html#aefd53a813e3651ae14f3ef740410bade" target="_top" xlink:title="Returns the internal JTextField used by the LGoodDatePicker.">
<polygon fill="white" stroke="#666666" points="619.5,-44 454.25,-44 454.25,0 619.5,0 619.5,-44"/>
<text text-anchor="start" x="462.25" y="-30.5" font-family="Helvetica,sans-Serif" font-size="10.00">fr.softsf.canscan.ui.IFlat</text>
<text text-anchor="start" x="462.25" y="-18.5" font-family="Helvetica,sans-Serif" font-size="10.00">LafStyledForLGoodDatePicker.get</text>
<text text-anchor="middle" x="536.88" y="-6.5" font-family="Helvetica,sans-Serif" font-size="10.00">InternalTextField</text>
</a>
</g>
</g>
<!-- Node1&#45;&gt;Node3 -->
<g id="edge3_Node000001_Node000003" class="edge">
<title>Node1&#45;&gt;Node3</title>
<g id="a_edge3_Node000001_Node000003"><a xlink:title=" ">
<path fill="none" stroke="#63b8ff" d="M177.42,-19.61C189.46,-19.36 201.66,-19.14 213.25,-19 304.35,-17.89 327.15,-17.84 418.25,-19 426.18,-19.1 434.42,-19.24 442.68,-19.4"/>
<polygon fill="#63b8ff" stroke="#63b8ff" points="442.35,-22.9 452.42,-19.61 442.5,-15.9 442.35,-22.9"/>
</a>
</g>
</g>
<!-- Node2&#45;&gt;Node3 -->
<g id="edge2_Node000002_Node000003" class="edge">
<title>Node2&#45;&gt;Node3</title>
<g id="a_edge2_Node000002_Node000003"><a xlink:title=" ">
<path fill="none" stroke="#63b8ff" d="M418.61,-33.77C426.67,-32.96 434.77,-32.15 442.76,-31.35"/>
<polygon fill="#63b8ff" stroke="#63b8ff" points="442.85,-34.86 452.45,-30.38 442.15,-27.89 442.85,-34.86"/>
</a>
</g>
</g>
</g>
</svg>
