<?xml version="1.0" encoding="UTF-8" standalone="no"?>
<!DOCTYPE svg PUBLIC "-//W3C//DTD SVG 1.1//EN"
 "http://www.w3.org/Graphics/SVG/1.1/DTD/svg11.dtd">
<!-- Generated by graphviz version 12.2.1 (20241206.2353)
 -->
<!-- Title: fr.softsf.canscan.ui.IFlatLafStyledForLGoodDatePicker Pages: 1 -->
<svg width="149pt" height="168pt"
 viewBox="0.00 0.00 148.75 168.00" xmlns="http://www.w3.org/2000/svg" xmlns:xlink="http://www.w3.org/1999/xlink">
<g id="graph0" class="graph" transform="scale(1 1) rotate(0) translate(4 164)">
<title>fr.softsf.canscan.ui.IFlatLafStyledForLGoodDatePicker</title>
<!-- Node1 -->
<g id="Node000001" class="node">
<title>Node1</title>
<g id="a_Node000001"><a xlink:title="Interface providing FlatLaf styling support for LGoodDatePicker components.">
<polygon fill="#999999" stroke="none" points="140.75,-160 0,-160 0,0 140.75,0 140.75,-160"/>
<text text-anchor="start" x="4" y="-146.5" font-family="Helvetica,sans-Serif" font-size="10.00">fr.softsf.canscan.ui.IFlat</text>
<text text-anchor="start" x="4" y="-134.5" font-family="Helvetica,sans-Serif" font-size="10.00">LafStyledForLGoodDatePicker</text>
<text text-anchor="start" x="4.88" y="-118.5" font-family="Helvetica,sans-Serif" font-size="10.00">+</text>
<text text-anchor="start" x="15.75" y="-118.5" font-family="Helvetica,sans-Serif" font-size="10.00">int TEXT_FIELD_HEIGHT</text>
<text text-anchor="start" x="4.88" y="-102.5" font-family="Helvetica,sans-Serif" font-size="10.00">+</text>
<text text-anchor="start" x="15.75" y="-102.5" font-family="Helvetica,sans-Serif" font-size="10.00">default void applyTheme()</text>
<text text-anchor="start" x="4.88" y="-86.5" font-family="Helvetica,sans-Serif" font-size="10.00">+</text>
<text text-anchor="start" x="15.75" y="-86.5" font-family="Helvetica,sans-Serif" font-size="10.00">default Dimension compute</text>
<text text-anchor="start" x="15.75" y="-74.5" font-family="Helvetica,sans-Serif" font-size="10.00">PreferredSize(Dimension</text>
<text text-anchor="start" x="15.75" y="-62.5" font-family="Helvetica,sans-Serif" font-size="10.00"> original)</text>
<text text-anchor="start" x="4.88" y="-46.5" font-family="Helvetica,sans-Serif" font-size="10.00">+</text>
<text text-anchor="start" x="15.75" y="-46.5" font-family="Helvetica,sans-Serif" font-size="10.00">JTextField getInternalText</text>
<text text-anchor="start" x="15.75" y="-34.5" font-family="Helvetica,sans-Serif" font-size="10.00">Field()</text>
<text text-anchor="start" x="4.88" y="-18.5" font-family="Helvetica,sans-Serif" font-size="10.00">+</text>
<text text-anchor="start" x="15.75" y="-18.5" font-family="Helvetica,sans-Serif" font-size="10.00">default void installTheme</text>
<text text-anchor="start" x="15.75" y="-6.5" font-family="Helvetica,sans-Serif" font-size="10.00">Listener()</text>
<polygon fill="#666666" stroke="#666666" points="0,-130 0,-130 140.75,-130 140.75,-130 0,-130"/>
<polygon fill="#666666" stroke="#666666" points="0,-114 0,-114 13.75,-114 13.75,-114 0,-114"/>
<polygon fill="#666666" stroke="#666666" points="13.75,-114 13.75,-114 140.75,-114 140.75,-114 13.75,-114"/>
<polygon fill="none" stroke="#666666" points="0,0 0,-160 140.75,-160 140.75,0 0,0"/>
</a>
</g>
</g>
</g>
</svg>
